<svg width="30" height="31" viewBox="0 0 30 31"  xmlns="http://www.w3.org/2000/svg">
<path d="M15.0003 27.9627C13.361 27.9627 11.7748 27.6411 10.276 27.0071C8.83021 26.395 7.53444 25.5206 6.41957 24.406C5.30469 23.2914 4.43056 21.9954 3.81847 20.5496C3.18479 19.0538 2.8629 17.4646 2.8629 15.8253C2.8629 14.1861 3.18452 12.5998 3.81847 11.101C4.43056 9.65524 5.30469 8.35948 6.41957 7.2446C7.53417 6.12973 8.82993 5.25559 10.276 4.6435C11.7718 4.00983 13.361 3.68794 15.0003 3.68794C16.6395 3.68794 18.226 4.00956 19.7245 4.6435C21.1703 5.25559 22.4661 6.12973 23.581 7.2446C24.6956 8.3592 25.57 9.65497 26.1821 11.101C26.8157 12.5968 27.1376 14.1861 27.1376 15.8253C27.1376 17.4646 26.816 19.0511 26.1821 20.5496C25.57 21.9954 24.6956 23.2911 23.581 24.406C22.4664 25.5206 21.1703 26.395 19.7245 27.0071C18.2258 27.6441 16.6395 27.9627 15.0003 27.9627ZM15.0003 5.69252C12.2931 5.69252 9.74834 6.7481 7.83393 8.66224C5.91979 10.5764 4.86448 13.1212 4.86448 15.8283C4.86448 18.5357 5.91979 21.0805 7.83393 22.9947C9.74807 24.9088 12.2929 25.9641 15.0003 25.9641C17.7074 25.9641 20.2525 24.9088 22.1663 22.9947C24.0805 21.0805 25.1361 18.5357 25.1361 15.8283C25.1361 13.1212 24.0808 10.5761 22.1663 8.66224C20.2522 6.74482 17.7074 5.69252 15.0003 5.69252Z" fill="black"/>
<path d="M15.0003 21.3882C11.9341 21.3882 9.43902 18.8934 9.43902 15.8269C9.43902 12.7608 11.9341 10.269 15.0003 10.269C18.0664 10.269 20.5615 12.7608 20.5615 15.8269C20.5615 18.8934 18.0664 21.3882 15.0003 21.3882ZM15.0003 12.2673C13.0361 12.2673 11.4373 13.8661 11.4373 15.8302C11.4373 17.7944 13.0361 19.3932 15.0003 19.3932C16.9644 19.3932 18.5632 17.7944 18.5632 15.8302C18.5632 13.8628 16.9644 12.2673 15.0003 12.2673ZM14.9688 8.07666C15.5216 8.07666 15.9681 7.63016 15.9681 7.07737V2.83101C15.9681 2.27822 15.5216 1.83173 14.9688 1.83173C14.4161 1.83173 13.9696 2.27822 13.9696 2.83101V7.07764C13.9696 7.63016 14.4163 8.07666 14.9688 8.07666ZM15.0003 23.574C14.4475 23.574 14.001 24.0204 14.001 24.5732V28.8199C14.001 29.3727 14.4475 29.8189 15.0003 29.8189C15.5531 29.8189 15.9993 29.3724 15.9993 28.8199V24.5732C15.9993 24.0204 15.5528 23.574 15.0003 23.574ZM7.25326 15.8409C7.25326 15.2881 6.80677 14.8416 6.25397 14.8416H2.00734C1.45455 14.8416 1.00806 15.2881 1.00806 15.8409C1.00806 16.3937 1.45455 16.8399 2.00734 16.8399H6.25397C6.80349 16.8402 7.25326 16.3937 7.25326 15.8409ZM22.7473 15.8097C22.7473 16.3625 23.1938 16.8087 23.7463 16.8087H27.9929C28.5457 16.8087 28.9922 16.3622 28.9922 15.8097C28.9922 15.2569 28.5457 14.8104 27.9929 14.8104H23.7463C23.1968 14.8104 22.7473 15.2602 22.7473 15.8097Z" fill="black"/>
</svg>
