<svg width="30" height="30" viewBox="0 0 30 30" xmlns="http://www.w3.org/2000/svg">
<path fill-rule="evenodd" clip-rule="evenodd" d="M26.9992 22.2173C26.9907 21.4652 26.8276 20.6973 26.5315 19.9306C26.3849 19.5497 26.2554 19.2498 25.9622 18.5955L25.8637 18.3756C24.0642 14.381 22.1715 10.4208 20.1863 6.49507C20.1361 6.39641 20.096 6.31747 20.0076 6.14266L20.0039 6.13551C19.6792 5.49384 19.5295 5.20385 19.3347 4.84722C18.978 4.19887 18.6145 3.69216 18.1754 3.27761C17.4027 2.52736 16.3569 2.06945 15.2704 2.00055L14.7975 1.99951C13.6563 2.05624 12.5757 2.53245 11.781 3.32137C11.3648 3.72284 11.0158 4.21466 10.6674 4.84697C10.4719 5.20379 10.3111 5.51495 10.0044 6.12148L9.82823 6.46966C8.50716 9.08038 7.2178 11.7273 5.95932 14.4109C5.03895 16.3819 4.38876 17.8012 3.7634 19.2192C3.37735 20.0985 3.15875 20.7562 3.06312 21.4546C2.86067 22.802 3.14985 24.2234 3.86368 25.3919C4.47839 26.406 5.40039 27.2198 6.47347 27.6907C7.30959 28.0589 8.23118 28.2253 9.13851 28.1707C10.285 28.1088 11.4364 27.7062 12.5032 27.0329C13.3555 26.5002 14.1327 25.8302 15.0014 24.9199C15.788 25.7465 16.5031 26.3753 17.2773 26.8898C18.3323 27.5967 19.4637 28.0401 20.6051 28.1499C21.9321 28.2911 23.3023 27.9529 24.4111 27.204C25.3873 26.5492 26.1582 25.584 26.5914 24.4757C26.8725 23.7591 27.0122 22.9866 26.9992 22.2173ZM24.2981 23.3057C24.0689 24.1112 23.5158 24.8173 22.7978 25.2218C22.1651 25.5822 21.401 25.7122 20.6715 25.5881C19.8027 25.4503 18.9484 25.0014 18.0595 24.2721C17.6236 23.9154 17.2029 23.5088 16.7243 22.9914C17.5823 21.8584 18.22 20.868 18.7234 19.8374C19.3448 18.5611 19.6952 17.3693 19.7322 16.1858C19.7569 15.2969 19.5823 14.4404 19.2035 13.7051C18.692 12.6919 17.7729 11.8943 16.6908 11.5065C15.7111 11.1501 14.619 11.1159 13.6117 11.4084C12.643 11.6875 11.7772 12.2795 11.1855 13.0817C10.6701 13.7737 10.3609 14.6337 10.29 15.5312C10.1955 16.6523 10.428 17.8187 10.928 19.0535C11.4732 20.3768 12.2469 21.646 13.2806 22.9883C12.9283 23.3772 12.5466 23.7508 12.1377 24.1083C11.2514 24.8721 10.4112 25.3573 9.5477 25.5475C8.78843 25.7211 7.9888 25.6286 7.32366 25.2859C6.53109 24.8836 5.92014 24.1229 5.69087 23.2531C5.51841 22.6244 5.54764 21.9275 5.76529 21.274C5.89334 20.8915 6.02248 20.5831 6.32666 19.9046L6.35223 19.8476C6.40775 19.7237 6.4436 19.6433 6.48036 19.5601C8.24178 15.6487 10.1067 11.7451 12.0718 7.85324L12.2294 7.54114C12.5804 6.84544 12.7434 6.5288 12.9509 6.14782C13.2292 5.64364 13.4744 5.31602 13.7701 5.0872C14.1245 4.80488 14.5692 4.6536 15.0075 4.66372C15.4762 4.6584 15.9345 4.82846 16.289 5.13179C16.6054 5.3994 16.8474 5.75236 17.171 6.36737C17.6361 7.2571 18.0409 8.05991 18.7823 9.55147L18.9294 9.84738C20.591 13.1977 22.179 16.5612 23.6924 19.9374C23.713 19.9846 23.7289 20.0209 23.7675 20.1085L23.7959 20.1727C24.0803 20.8176 24.197 21.1106 24.2981 21.4737C24.4644 22.0771 24.4657 22.721 24.2984 23.3047L24.2981 23.3057ZM13.2806 22.9883C13.3763 22.8826 13.4698 22.7759 13.5612 22.668L13.5511 23.3337C13.459 23.218 13.3689 23.1028 13.2806 22.9883ZM16.7243 22.9914C16.6371 23.1067 16.5475 23.2234 16.4556 23.3418L16.4322 22.6701C16.5322 22.7819 16.6294 22.8888 16.7243 22.9914ZM15.0001 20.8815C15.1525 21.0945 15.2719 21.2498 15.4072 21.4122L15.0072 21.7483L14.5926 21.4304C14.7349 21.2434 14.8707 21.0607 15.0001 20.8815ZM15.0001 20.8815C14.9066 20.7509 14.8008 20.5987 14.6711 20.41L14.5999 20.3064C14.1327 19.6084 13.7539 18.9398 13.4577 18.2716C13.1756 17.6273 12.9982 17.0456 12.9274 16.4827C12.8671 15.9616 12.9004 15.5131 13.0426 15.1387C13.1774 14.7669 13.4336 14.4458 13.7599 14.234C14.5757 13.6978 15.7394 13.7668 16.4575 14.3987C16.8007 14.6964 17.0261 15.1532 17.083 15.6521C17.1547 16.29 17.0352 16.9854 16.7479 17.767C16.3676 18.7836 15.8064 19.7648 15.0001 20.8815Z" fill="black"/>
</svg>
