<svg width="31" height="30" viewBox="0 0 31 30" xmlns="http://www.w3.org/2000/svg">
<path d="M21.9652 28.9629C21.9144 28.9629 21.8633 28.9569 21.8128 28.9447C21.5919 28.8909 21.4155 28.7249 21.3488 28.5075L17.706 16.6523L13.356 20.3384L13.4087 26.7492C13.4101 26.92 13.3436 27.0845 13.2238 27.2063L12.1469 28.3025C11.9934 28.4588 11.771 28.5265 11.5565 28.4821C11.342 28.4378 11.1646 28.2876 11.0856 28.0832L8.7547 22.0577L2.49889 19.3705C2.30371 19.2866 2.16234 19.1121 2.12094 18.9037C2.07954 18.6954 2.14339 18.48 2.29168 18.3279L3.36426 17.2278C3.49331 17.0955 3.67345 17.0251 3.8575 17.0339L10.4192 17.3552L14.1149 12.8208L2.17706 9.02976C1.96367 8.96193 1.80068 8.78833 1.74658 8.57109C1.69241 8.35384 1.75485 8.12405 1.91149 7.96405L3.96071 5.87112C4.09781 5.73113 4.29113 5.66125 4.48606 5.68062L19.2073 7.16286L23.3789 2.98155C25.0405 1.3005 26.6331 1.03662 27.4347 1.03662C27.4387 1.03662 27.4426 1.03662 27.4466 1.03662C28.1907 1.03662 28.8485 1.25679 29.2081 1.6163C30.0763 2.48452 30.0332 4.96114 27.6943 7.34727C27.6926 7.34897 27.691 7.35214 27.6893 7.35378L23.4809 11.5554L24.6583 26.1731C24.6733 26.3592 24.6069 26.5429 24.4762 26.6763L22.4258 28.7692C22.303 28.8945 22.1363 28.9629 21.9652 28.9629ZM18.0352 14.8833C18.0958 14.8833 18.1567 14.8918 18.2164 14.9093C18.4244 14.9702 18.5879 15.1316 18.6515 15.3387L22.2632 27.0926L23.3493 25.984L22.1715 11.3624C22.1563 11.1737 22.2247 10.9879 22.3587 10.8543L26.7759 6.44496C27.8597 5.33833 28.2413 4.36726 28.3705 3.74736C28.5298 2.98331 28.3491 2.59035 28.2958 2.53403C28.0585 2.30037 26.2578 1.90827 24.2944 3.89598C24.2935 3.89685 24.2927 3.89774 24.2918 3.89861L19.9033 8.29085C19.7665 8.42783 19.5753 8.49614 19.3826 8.47661L4.6653 6.99484L3.56595 8.11767L15.4089 11.8786C15.6124 11.9433 15.7707 12.1044 15.8317 12.309C15.8927 12.5136 15.8484 12.7351 15.7136 12.9006L11.213 18.4226C11.0835 18.5815 10.8864 18.6689 10.6816 18.6593L4.08476 18.3363L3.8704 18.5561L9.51279 20.9797C9.67211 21.0482 9.79713 21.1779 9.8597 21.3396L11.9277 26.6856L12.1169 26.493L12.064 20.047C12.0624 19.8557 12.1459 19.6735 12.2919 19.5498L17.6183 15.0362C17.7362 14.9362 17.8845 14.8833 18.0352 14.8833Z" fill="black"/>
</svg>
