<svg width="30" height="30" viewBox="0 0 30 30" xmlns="http://www.w3.org/2000/svg">
<path d="M11.5715 15.7828C11.5555 15.6914 11.4951 15.5852 11.366 15.4561L5.00097 12.3645C4.95224 12.3401 4.90677 12.319 4.86457 12.2995C4.59178 12.1729 4.45539 12.1096 4.45539 11.6371C4.45539 11.4552 4.45539 11.2734 4.63725 10.9096C5.18283 10.7278 5.54654 10.3641 5.7284 10.1822C6.09212 9.81849 6.63769 9.45477 7.18327 9.45477L19.1859 11.0915L19.6282 11.2389C19.6758 11.2058 19.7397 11.1491 19.8292 11.0694C20.2266 10.716 21.1304 9.91237 23.3686 8.72743C23.5013 8.67437 23.6301 8.6213 23.7561 8.56937C24.494 8.26533 25.138 8 25.9146 8C27.0058 8 28.2788 8.36372 28.8244 9.27301C29.1881 9.63673 29.0062 10.546 28.0969 11.2735C28.0969 11.2735 17.3673 18.0022 10.2748 21.6394C9.91107 21.8213 9.18364 22.0031 8.81992 22.0031C8.502 22.0031 8.22855 22.0253 7.96846 22.0465C7.48466 22.0858 7.04713 22.1214 6.45576 22.0031C5.72832 22.0031 5.36461 22.0031 5.00089 21.6394L1.18186 18.1841C1 18.0022 1 17.8204 1 17.2748C1 17.0929 1.18186 16.5474 1.36372 16.3655C1.72743 16.0018 2.45487 15.6381 3.00044 16.0018C3.3187 16.0927 3.68242 16.1836 4.06887 16.2803C5.22821 16.5701 6.59215 16.9111 7.54691 17.4566H7.72877L11.1841 16.0018L11.5715 15.7828Z" fill="black"/>
</svg>
