<svg width="30" height="30" viewBox="0 0 30 30" xmlns="http://www.w3.org/2000/svg">
<path d="M29 20.1692V6.38416C29 3.4115 26.5894 0.999968 23.6158 0.999968H6.38419C3.41153 0.999968 1 3.41054 1 6.38416V23.6158C1 26.5884 3.41057 29 6.38419 29H23.6158C26.2651 29 28.4686 27.0854 28.9168 24.564C27.4895 23.9499 21.2995 21.2776 18.0765 19.7361C15.6239 22.7075 13.0542 24.4903 9.181 24.4903C5.30776 24.4903 2.72311 22.1077 3.03471 19.1863C3.23923 17.2689 4.55393 14.1385 10.2616 14.6769C13.2699 14.9607 14.6474 15.5219 17.1032 16.3302C17.7342 15.1673 18.2639 13.8864 18.6616 12.523H7.7848V11.4461H13.1655V9.50768H6.60089V8.32307H13.1655V5.5305C13.1655 5.5305 13.2274 5.09229 13.7078 5.09229H16.4001V8.32307H23.4V9.50768H16.4V11.4461H22.1077C21.5844 13.5845 20.7897 15.546 19.7916 17.2627C21.4519 17.8617 29 20.1692 29 20.1692ZM8.75388 22.6461C4.66155 22.6461 4.01543 20.0614 4.23081 18.9845C4.44618 17.9076 5.63082 16.5076 7.90583 16.5076C10.5219 16.5076 12.8609 17.1751 15.6722 18.5444C13.7003 21.1142 11.2727 22.6461 8.75391 22.6461H8.75388Z" fill="black"/>
</svg>
