<svg width="31" height="30" viewBox="0 0 31 30" fill="none" xmlns="http://www.w3.org/2000/svg">
<rect x="1.72742" y="14.45" width="28" height="1.1" fill="black"/>
<rect x="1.72742" y="10.3499" width="28" height="1.1" fill="black"/>
<rect x="1.72742" y="6.24976" width="28" height="1.1" fill="black"/>
<rect x="1.72742" y="18.55" width="28" height="1.1" fill="black"/>
<rect x="1.72742" y="22.6501" width="28" height="1.1" fill="black"/>
<path d="M10.1783 6.24976H12.1392V23.7502H10.1783V6.24976Z" fill="black"/>
<path d="M12.9169 6.24976H13.5434V23.7502H12.9169V6.24976Z" fill="black"/>
<path d="M17.2306 6.62852C15.0887 6.62851 14.4461 7.72049 14.4461 8.60215C14.4803 9.1157 14.8904 9.88268 15.6395 9.84141C16.4414 9.79723 16.7869 9.28287 16.7869 8.81635C16.7869 8.47275 16.6033 8.03608 16.3738 7.92899C16.1443 7.82189 15.9607 7.28641 16.3738 7.20991C16.7869 7.13342 17.8579 6.94982 18.6687 7.92899C19.2098 8.81635 19.0716 11.3765 18.8676 12.6106C18.786 12.9727 18.3719 13.6846 17.3683 13.6357C16.3646 13.5867 15.774 11.9988 15.6159 11.2236C15.2487 13.0596 14.1707 14.5332 13.6658 15.0279H15.6395L16.3738 13.9111C16.3432 14.0385 16.6217 14.2935 17.9803 14.2935C20.2187 14.2935 21.3771 12.3692 21.2696 10.3769C21.141 7.99197 20.1685 6.62854 17.2306 6.62852Z" fill="black"/>
<path d="M17.1082 23.3989C14.9663 23.3989 14.3237 22.307 14.3237 21.4254C14.3579 20.9118 14.768 20.1449 15.5171 20.1862C16.319 20.2304 16.6645 20.7447 16.6645 21.2112C16.6645 21.5548 16.4809 21.9914 16.2514 22.0985C16.0219 22.2056 15.8383 22.741 16.2514 22.8175C16.6645 22.894 17.7355 23.0776 18.5463 22.0985C19.0874 21.2112 18.9492 18.6512 18.7452 17.4172C18.6636 17.0551 18.2495 16.3432 17.2459 16.3922C16.2422 16.4411 15.6516 18.0289 15.4935 18.804C15.1263 16.9682 14.0483 15.4947 13.5434 15H15.5171L16.2514 16.1168C16.2208 15.9893 16.4993 15.7343 17.8579 15.7343C20.0963 15.7343 21.2547 17.6586 21.1472 19.6507C21.0186 22.0355 20.0461 23.3989 17.1082 23.3989Z" fill="black"/>
</svg>
