<svg width="30" height="30" viewBox="0 0 30 30" xmlns="http://www.w3.org/2000/svg">
<path d="M24.7942 24.0624C24.9506 24 25.0859 23.9842 25.2002 24.0151C25.3146 24.046 25.3717 24.1373 25.3717 24.289C25.3717 24.4407 25.2936 24.6151 25.1372 24.8123C25.0019 24.9791 24.7726 25.2057 24.4495 25.4921C24.1263 25.7785 23.629 26.1326 22.9576 26.5544C22.2862 26.9761 21.5518 27.3614 20.7543 27.7102C19.9569 28.0591 18.9778 28.3612 17.817 28.6168C16.6561 28.8722 15.4609 29 14.2312 29C12.9916 29 11.7521 28.8384 10.5125 28.5152C9.27289 28.1921 8.18439 27.7937 7.24697 27.32C6.30956 26.8463 5.41122 26.3047 4.55197 25.6951C3.69272 25.0855 3.00264 24.5387 2.48172 24.0545C1.96081 23.5703 1.52331 23.1145 1.16922 22.6869C1.08581 22.593 1.0336 22.5069 1.0126 22.4287C0.9916 22.3506 0.99685 22.2882 1.02835 22.2415C1.05985 22.1948 1.10156 22.1584 1.15347 22.1321C1.20539 22.1059 1.26518 22.0954 1.33285 22.1006C1.40052 22.1059 1.46031 22.1292 1.51222 22.1706C3.51247 23.3892 5.07493 24.2537 6.1996 24.7641C10.2514 26.5975 14.4129 27.0662 18.6841 26.1702C20.6633 25.7537 22.6998 25.0505 24.7933 24.0606L24.7942 24.0624ZM28.0291 22.266C28.1434 22.4328 28.1566 22.7948 28.0685 23.3519C27.9804 23.909 27.8319 24.4427 27.6231 24.9531C27.269 25.8176 26.8263 26.4634 26.2948 26.8904C26.1175 27.0362 25.9822 27.0832 25.8888 27.0312C25.7955 26.9793 25.7955 26.8542 25.8888 26.6559C26.1076 26.1869 26.3395 25.554 26.5845 24.7571C26.8295 23.9603 26.8633 23.4472 26.686 23.218C26.6341 23.1451 26.5533 23.0853 26.4436 23.0386C26.3339 22.992 26.1933 22.9608 26.0218 22.945C25.8503 22.9293 25.6966 22.9161 25.5607 22.9056C25.4248 22.8951 25.2425 22.8951 25.0138 22.9056C24.7852 22.9161 24.621 22.9266 24.5212 22.9371C24.4215 22.9476 24.2599 22.9634 24.0365 22.9844C23.8131 23.0054 23.6958 23.0159 23.6847 23.0159C23.6223 23.0264 23.5546 23.0342 23.4817 23.0395C23.4088 23.0447 23.3516 23.05 23.3102 23.0553C23.2688 23.0605 23.2245 23.0658 23.1772 23.071C23.13 23.0763 23.0935 23.0789 23.0678 23.0789H22.9112C22.9112 23.0789 22.8955 23.0763 22.864 23.071C22.8325 23.0658 22.822 23.0579 22.8325 23.0474L22.8088 23.0001C22.7464 22.8333 22.9911 22.625 23.543 22.3754C24.0948 22.1257 24.6312 21.9694 25.1521 21.9064C25.631 21.8335 26.1936 21.8282 26.84 21.8906C27.4863 21.953 27.8821 22.0782 28.0273 22.266H28.0291ZM21.8726 15.3439C21.8726 15.667 21.9429 16.0004 22.0835 16.344C22.2241 16.6876 22.3906 16.9897 22.5831 17.2505C22.7756 17.5112 22.971 17.7507 23.1693 17.9689C23.3677 18.187 23.5395 18.3536 23.6847 18.4685L23.8877 18.64L20.3405 22.14C19.924 21.7544 19.5124 21.3612 19.1058 20.9605C18.6993 20.5597 18.3971 20.255 18.1993 20.0461L17.9027 19.7337C17.7884 19.6194 17.6583 19.4476 17.5125 19.2184C17.1164 19.8332 16.6086 20.367 15.9891 20.8196C15.3696 21.2723 14.7055 21.603 13.9967 21.8119C13.288 22.0207 12.5588 22.1406 11.8092 22.1715C11.0596 22.2024 10.3436 22.093 9.6611 21.8434C8.9786 21.5937 8.36668 21.2525 7.82535 20.8196C7.28401 20.3868 6.85177 19.7982 6.5286 19.0539C6.20543 18.3095 6.04385 17.4631 6.04385 16.5146C6.04385 15.6396 6.18968 14.8375 6.48135 14.1084C6.77301 13.3792 7.1481 12.7725 7.6066 12.2884C8.0651 11.8042 8.61985 11.372 9.27085 10.9916C9.92185 10.6113 10.56 10.3144 11.1853 10.1009C11.8107 9.88737 12.4876 9.70771 13.2162 9.56187C13.9448 9.41604 14.5672 9.31979 15.0835 9.27312C15.5997 9.22646 16.118 9.19263 16.6383 9.17163V7.18712C16.6383 6.50987 16.529 6.00471 16.3102 5.67163C15.9561 5.11979 15.3258 4.84387 14.4193 4.84387C14.3569 4.84387 14.2709 4.84913 14.1612 4.85963C14.0516 4.87013 13.8407 4.93254 13.5286 5.04688C13.2165 5.16121 12.9248 5.31492 12.6536 5.508C12.3823 5.70108 12.0907 6.01113 11.7786 6.43813C11.4665 6.86513 11.2166 7.36504 11.0287 7.93787L6.43497 7.51612C6.43497 6.89137 6.5496 6.27158 6.77885 5.65675C7.0081 5.04192 7.35693 4.45333 7.82535 3.891C8.29376 3.32867 8.85639 2.834 9.51322 2.407C10.1701 1.98 10.959 1.63875 11.8801 1.38325C12.8012 1.12775 13.7934 1 14.8568 1C15.8987 1 16.8413 1.13008 17.6848 1.39025C18.5283 1.65042 19.203 1.97067 19.7087 2.351C20.2145 2.73133 20.6362 3.16358 20.974 3.64775C21.3117 4.13192 21.5462 4.57992 21.6775 4.99175C21.8087 5.40358 21.8738 5.78654 21.8726 6.14062V15.3439ZM11.3726 15.672C11.3726 16.568 11.7372 17.2607 12.4663 17.7501C13.1541 18.2086 13.878 18.3232 14.6381 18.094C15.5131 17.8338 16.1069 17.1933 16.4196 16.1725C16.5654 15.7035 16.6383 15.1773 16.6383 14.594V12.0626C16.0235 12.0836 15.4454 12.146 14.9041 12.2499C14.3628 12.3537 13.808 12.5281 13.2398 12.7731C12.6717 13.0181 12.2184 13.388 11.8801 13.8826C11.5418 14.3773 11.3726 14.9737 11.3726 15.672Z" fill="black"/>
</svg>
