<svg width="30" height="30" viewBox="0 0 30 30"  xmlns="http://www.w3.org/2000/svg">
<path d="M19.6841 17.7743C19.6841 17.401 19.5266 17.1957 19.2828 17.0487C19.0378 16.9087 18.7414 16.8912 18.3378 16.8912H16.5376V20.1812H17.3251V18.983H18.1651C18.4451 18.983 18.6201 19.011 18.7228 19.1288C18.8628 19.2805 18.8441 19.5722 18.8441 19.7705V20.1788H19.6141V19.5313C19.6118 19.2397 19.5943 19.0927 19.4881 18.9293C19.3872 18.8048 19.254 18.7103 19.1031 18.6563L19.1264 18.647C19.2969 18.5754 19.4417 18.4537 19.5417 18.2982C19.6417 18.1426 19.6921 17.9603 19.6864 17.7755L19.6841 17.7743ZM18.6691 18.2492L18.6364 18.2468C18.5314 18.3087 18.4089 18.3145 18.2514 18.3145H17.3064V17.5795H18.2678C18.4078 17.5795 18.5478 17.5795 18.6528 17.6378C18.7081 17.6645 18.7543 17.707 18.7854 17.76C18.8166 17.813 18.8313 17.874 18.8278 17.9353C18.8278 18.0753 18.7753 18.1862 18.6714 18.2503L18.6691 18.2492ZM24.6798 19.4765H23.1666V20.1765H24.688C25.4766 20.1765 25.913 19.8522 25.913 19.1452C25.913 18.8185 25.836 18.6225 25.6948 18.4662C25.5163 18.311 25.2374 18.241 24.8431 18.2247L24.4044 18.2072C24.2831 18.2072 24.1944 18.2072 24.1069 18.1722C24.0549 18.1563 24.0095 18.1237 23.9779 18.0794C23.9462 18.0351 23.9301 17.9816 23.9319 17.9272C23.9319 17.8222 23.9518 17.7335 24.0369 17.6822C24.1338 17.6289 24.244 17.6046 24.3543 17.6122H25.7893V16.9098H24.2143C23.3929 16.9098 23.0966 17.4197 23.0966 17.8898C23.0966 18.9398 24.0019 18.8873 24.7381 18.9048C24.8595 18.9048 24.9481 18.9223 25.0006 18.9748C25.0543 19.0098 25.0963 19.0985 25.0963 19.1848C25.0963 19.2747 25.0554 19.3598 25.0029 19.3948C24.9329 19.4567 24.8279 19.4765 24.6798 19.4765Z" fill="black"/>
<path d="M1 1V12.7787L1.945 10.59H3.98667L4.24917 11.1313V10.59H6.63267L7.15768 11.78L7.66751 10.5982H15.2532C15.5974 10.5982 15.9065 10.6647 16.1352 10.8735V10.6052H18.22V10.8735C18.5782 10.6752 19.0204 10.6052 19.5267 10.6052H22.567L22.847 11.1488V10.6052H25.0847L25.381 11.1477V10.604H27.5487V15.21H25.3484L24.9284 14.51V15.1925H22.1832L21.8845 14.4575H21.2044L20.8894 15.1738H19.4742C18.9142 15.1738 18.4942 15.0525 18.2142 14.8938V15.1738H14.8425V14.1425C14.8425 14.0025 14.8075 14.0025 14.72 13.985H14.5975V15.1937H8.07818V14.6337L7.83318 15.1937H6.47167L6.23601 14.6337V15.1762H3.6075L3.30884 14.4482H2.63334L2.33467 15.1762H1V29H28.7504V20.7073C28.4354 20.8648 28.0352 20.9173 27.6152 20.9173H25.605V20.6198C25.36 20.8123 24.94 20.9173 24.5387 20.9173H18.1617V19.8673C18.1617 19.7273 18.1407 19.7273 18.0217 19.7273H17.9342V20.9197H15.8342V19.676C15.4865 19.8347 15.084 19.851 14.7515 19.8347H14.5019V20.9022H11.9585L11.3285 20.1823L10.6635 20.8823H6.53234V16.2973H10.744L11.3483 16.9997L11.9947 16.2997H14.8087C15.1354 16.2997 15.672 16.3347 15.9077 16.5622V16.2822H18.4475C18.6832 16.2822 19.1989 16.3347 19.501 16.5447V16.2647H23.3102V16.5447C23.5004 16.3533 23.9029 16.2647 24.247 16.2647H26.452V16.5447C26.6784 16.3697 26.9934 16.2647 27.432 16.2647H28.804V1H1Z" fill="black"/>
<path d="M25.6821 18.4475C25.6868 18.4534 25.6891 18.4615 25.6938 18.4662C25.7055 18.4779 25.7218 18.4779 25.7311 18.4895L25.6821 18.4487V18.4475ZM28.7995 16.2624H28.8753V16.9099H28.7995V16.2624Z" fill="black"/>
<path d="M28.8426 18.5351V18.5292C28.8076 18.5001 28.7889 18.4732 28.7551 18.4476C28.5801 18.2691 28.3001 18.1967 27.8638 18.1851L27.4438 18.1711C27.3376 18.1757 27.2313 18.1639 27.1288 18.1361C27.0767 18.1202 27.0313 18.0875 26.9997 18.0433C26.968 17.999 26.9519 17.9455 26.9538 17.8911C26.9538 17.7861 26.9888 17.7044 27.0588 17.6531C27.1474 17.6006 27.2338 17.5947 27.3738 17.5947H28.8006V16.9087H27.3038C26.4988 16.9087 26.1838 17.4186 26.1838 17.8887C26.1838 18.9387 27.0938 18.8862 27.8288 18.9037C27.9501 18.9037 28.0388 18.9212 28.0901 18.9737C28.1438 19.0087 28.1788 19.0974 28.1788 19.1837C28.1788 19.2654 28.1391 19.3447 28.0738 19.3937C28.0213 19.4591 27.9151 19.4754 27.7588 19.4754H26.2561V20.1812H27.7576C28.2476 20.1812 28.6139 20.0436 28.8076 19.7612H28.8426C28.9476 19.6049 29.0001 19.4112 29.0001 19.1511C29.0001 18.8711 28.9476 18.6961 28.8426 18.5374V18.5351ZM22.6966 17.5761V16.8959H20.0891V20.2011H22.6966V19.5186H20.8649V18.8536H22.6534V18.1722H20.8661V17.5772L22.6966 17.5761ZM16.7617 11.2516H17.5609V14.5334H16.7629L16.7617 11.2516ZM16.3137 12.1336L16.3056 12.1406C16.3056 11.7742 16.1539 11.5572 15.9089 11.4126C15.6557 11.2667 15.3606 11.2551 14.9639 11.2551H13.1684V14.5451H13.9547V13.3387H14.7947C15.0747 13.3387 15.2497 13.3737 15.3629 13.4787C15.5052 13.6374 15.4877 13.9197 15.4877 14.1181V14.5311H16.2776V13.8859C16.2776 13.5942 16.2589 13.4484 16.1492 13.2839C16.0472 13.1597 15.9145 13.0644 15.7642 13.0074C15.9649 12.9257 16.3149 12.6574 16.3149 12.1324L16.3137 12.1336ZM15.3162 12.5956H15.2987C15.1937 12.6586 15.0712 12.6609 14.9137 12.6609H13.9501V11.9341H14.9126C15.0526 11.9341 15.1926 11.9387 15.2976 11.9924C15.4026 12.0391 15.4726 12.1417 15.4726 12.2841C15.4726 12.4264 15.4177 12.5407 15.3162 12.5944V12.5956ZM19.5734 11.9352H20.3108V11.2352H19.5594C19.0181 11.2352 18.6214 11.3577 18.3694 11.6202C18.0357 11.9702 17.9471 12.4252 17.9471 12.9152C17.9471 13.5126 18.0906 13.8871 18.3671 14.1682C18.6377 14.4459 19.1196 14.5299 19.4987 14.5299H20.4088L20.7063 13.7984H22.3279L22.6336 14.5299H24.2203V12.0682L25.7043 14.5299H26.8126L26.8149 14.5322V11.2504H26.0169V13.5406L24.6403 11.2539H23.4503V14.3001L22.1284 11.2014H20.9571L19.8569 13.7914H19.5069C19.3004 13.7914 19.0846 13.7564 18.9609 13.6351C18.8151 13.4601 18.7439 13.2151 18.7439 12.8627C18.7439 12.5302 18.8372 12.2677 18.9702 12.1277C19.1254 11.9702 19.2876 11.9352 19.5722 11.9352H19.5734ZM21.5194 11.8092L22.0608 13.1136V13.1159H20.9758L21.5194 11.8092ZM3.77672 13.7984L4.07306 14.5311H5.66673V11.9586L6.80073 14.5311H7.48206L8.61723 11.9621L8.63473 14.5311H9.43973V11.2527H8.13773L7.19623 13.4741L6.17423 11.2516H4.90023V14.3584L3.57256 11.2516H2.40939L1.01172 14.5299H1.85172L2.15505 13.7996H3.77672V13.7984ZM2.97406 11.8092L3.51072 13.1136L3.50722 13.1159H2.43972L2.97289 11.8092H2.97406ZM14.8321 16.8901H12.3331L11.3414 17.9669L10.3789 16.8912H7.23706V20.1812H10.3334L11.3309 19.0939L12.2922 20.1789H13.8112V19.0822H14.7889C15.4889 19.0822 16.1539 18.8909 16.1539 17.9797L16.1469 17.9762C16.1469 17.0662 15.4492 16.8912 14.8309 16.8912L14.8321 16.8901ZM9.9484 19.4952L9.93207 19.4929H8.0234V18.8431H9.7384V18.1734H8.0234V17.5784H9.9834L10.8386 18.5351L9.94723 19.4964L9.9484 19.4952ZM13.0307 19.8802L11.8291 18.5421L13.0307 17.2494V19.8779V19.8802ZM14.8426 18.4126H13.8101V17.5761H14.8426C15.1226 17.5761 15.3326 17.6904 15.3326 17.9774C15.3326 18.2609 15.1576 18.4114 14.8426 18.4114V18.4126ZM12.6282 11.9352V11.2516H10.0184V14.5334H12.6282V13.8567H10.8001V13.1987H12.5816V12.5267H10.8001V11.9352" fill="black"/>
</svg>
