<svg width="30" height="30" viewBox="0 0 30 30" xmlns="http://www.w3.org/2000/svg">
<path d="M21.7342 12.5582L24.4373 8.62718C24.553 8.45979 24.5105 8.22767 24.3431 8.11193L24.2758 8.06551C24.1084 7.94912 23.8776 7.99227 23.7619 8.15966L20.9809 12.2038C19.1645 11.414 17.1382 10.9726 15 10.9726C12.971 10.9726 11.0415 11.3702 9.29826 12.0861L6.64093 8.22178C6.52585 8.05439 6.29438 8.01189 6.12699 8.12762L6.05964 8.17405C5.89225 8.28978 5.84975 8.52191 5.96483 8.68995L8.53454 12.4255C4.49428 14.3616 1.5911 18.0534 1 22.4127H29C28.4226 18.1508 25.6345 14.5264 21.7342 12.5582ZM9.10406 18.1894C8.3338 18.1894 7.7087 17.5623 7.7087 16.7894C7.7087 16.0166 8.3338 15.3901 9.10406 15.3901C9.87497 15.3901 10.4994 16.0166 10.4994 16.7894C10.4994 17.5623 9.87497 18.1894 9.10406 18.1894ZM21.1483 18.1894C20.3781 18.1894 19.753 17.5623 19.753 16.7894C19.753 16.0166 20.3781 15.3901 21.1483 15.3901C21.9192 15.3901 22.5437 16.0166 22.5437 16.7894C22.5437 17.5623 21.9192 18.1894 21.1483 18.1894Z" fill="black"/>
</svg>
