<svg width="30" height="30" viewBox="0 0 30 30" xmlns="http://www.w3.org/2000/svg">
<path d="M22.6665 15.797C22.653 13.5019 23.6929 11.7722 25.7928 10.4968C24.6184 8.81416 22.8415 7.88871 20.4993 7.71036C18.2816 7.53536 15.8552 9.00261 14.9668 9.00261C14.0279 9.00261 11.8809 7.77093 10.1915 7.77093C6.70514 7.82478 3 10.5506 3 16.0966C3 17.7354 3.29951 19.4281 3.89852 21.1713C4.69945 23.4664 7.58683 29.0898 10.5987 28.9989C12.1737 28.9619 13.2876 27.8817 15.337 27.8817C17.3259 27.8817 18.3556 28.9989 20.1123 28.9989C23.1511 28.9552 25.7625 23.8434 26.5231 21.5415C22.4478 19.62 22.6665 15.9148 22.6665 15.797Z" fill="black"/>
<path d="M19.1297 5.53299C20.8359 3.50711 20.6811 1.66295 20.6306 1C19.123 1.0875 17.3798 2.0264 16.387 3.18068C15.2933 4.41909 14.6506 5.95028 14.7885 7.67665C16.4173 7.80117 17.9048 6.96322 19.1297 5.53299Z" fill="black"/>
</svg>
