<svg width="30" height="30" viewBox="0 0 30 30" xmlns="http://www.w3.org/2000/svg">
<path d="M26.4925 6C26.5881 6 26.684 6 26.7796 6.00068C26.8603 6.00112 26.941 6.00227 27.0217 6.00431C27.1971 6.00906 27.3743 6.01934 27.5483 6.05038C27.7222 6.07986 27.8908 6.13492 28.0487 6.21376C28.3656 6.37386 28.6232 6.62947 28.7845 6.9438C28.8642 7.10015 28.9198 7.26767 28.9493 7.44067C28.9808 7.61299 28.9909 7.78867 28.9956 7.96296C28.9978 8.04282 28.999 8.12281 28.9993 8.20276C29 8.29774 29 8.39272 29 8.48785V21.2961C29 21.3912 29 21.486 28.9993 21.5812C28.9991 21.6613 28.9978 21.7413 28.9956 21.8212C28.9909 21.9951 28.9807 22.1709 28.9493 22.3432C28.918 22.5182 28.8662 22.681 28.7845 22.84C28.6224 23.1549 28.3648 23.4104 28.0487 23.57C27.8909 23.6491 27.7223 23.7043 27.5483 23.7339C27.3743 23.7647 27.1971 23.775 27.0217 23.7798C26.9407 23.7816 26.8601 23.7828 26.7796 23.7831C26.684 23.7838 26.5881 23.7838 26.4925 23.7838H3.5075C3.41178 23.7838 3.31587 23.7838 3.2203 23.7831C3.1396 23.7826 3.05912 23.7816 2.97841 23.7798C2.80258 23.775 2.62532 23.7647 2.45197 23.7339C2.27548 23.7026 2.11147 23.651 1.95118 23.57C1.79378 23.4907 1.6499 23.3871 1.5249 23.2628C1.4 23.1391 1.29551 22.9964 1.21532 22.84C1.13576 22.6836 1.08023 22.5161 1.05059 22.3432C1.01934 22.1709 1.00882 21.9951 1.00404 21.8212C1.00189 21.7412 1.00087 21.6611 1.00037 21.5812C1 21.486 1 21.3912 1 21.2961V8.4877C1 8.39257 1 8.29759 1.00037 8.20295C1.00078 8.12287 1.00199 8.04291 1.00404 7.96296C1.00882 7.78867 1.01915 7.61299 1.05059 7.44067C1.08029 7.26771 1.13588 7.10021 1.2155 6.94383C1.3774 6.62879 1.63503 6.3732 1.95134 6.2138C2.10919 6.1349 2.27784 6.07978 2.45181 6.05022C2.62532 6.01934 2.80258 6.00891 2.97841 6.00416C3.05912 6.00202 3.1396 6.00118 3.2203 6.0005C3.31587 6 3.41178 6 3.5075 6H26.4925ZM26.4925 6.59275H3.5075L3.22381 6.59328C3.14748 6.59359 3.07113 6.5948 2.99483 6.59666C2.86044 6.60029 2.70369 6.60752 2.55737 6.63353C2.44092 6.65277 2.328 6.68932 2.22237 6.74198C2.12095 6.79312 2.02824 6.85995 1.94768 6.94001C1.86707 7.01959 1.7997 7.11154 1.7481 7.21238C1.69497 7.31702 1.65809 7.42914 1.63875 7.5449C1.61218 7.69081 1.60492 7.8461 1.60125 7.97907C1.59927 8.05496 1.59815 8.13085 1.59784 8.20677L1.5975 8.4291V21.3552L1.59799 21.5779C1.59834 21.6537 1.59945 21.7295 1.60141 21.8053C1.60476 21.9378 1.61218 22.0931 1.63859 22.238C1.65791 22.3539 1.69478 22.4662 1.74791 22.571C1.79943 22.6719 1.8667 22.7638 1.94718 22.8434C2.02757 22.9236 2.12017 22.9904 2.22153 23.0415C2.32744 23.0945 2.4407 23.1312 2.55753 23.1506C2.70534 23.1768 2.86872 23.1841 2.99465 23.1874C3.07072 23.1892 3.14686 23.1902 3.22297 23.1905C3.31776 23.1912 3.41075 23.1912 3.50384 23.1912H26.4925C26.5866 23.1912 26.681 23.1912 26.7748 23.1905C26.8539 23.1902 26.9308 23.189 27.0082 23.1873C27.1311 23.184 27.2945 23.1768 27.4436 23.1504C27.5692 23.1279 27.6754 23.0935 27.777 23.0422C27.9813 22.9394 28.1476 22.7745 28.252 22.571C28.3051 22.4668 28.3419 22.355 28.3611 22.2396C28.3875 22.0947 28.3947 21.9387 28.3985 21.8051C28.4005 21.7296 28.4015 21.654 28.4018 21.5785C28.4025 21.4832 28.4025 21.3899 28.4025 21.2962V8.48785C28.4025 8.39427 28.4025 8.30088 28.4017 8.20742C28.4015 8.13029 28.4005 8.05471 28.3983 7.97925C28.3947 7.84544 28.3875 7.68957 28.3614 7.54617C28.3386 7.41913 28.304 7.31406 28.2523 7.2134C28.1482 7.01002 27.9821 6.84504 27.778 6.74232C27.6759 6.69061 27.5692 6.65616 27.4424 6.63353C27.2962 6.60749 27.1396 6.60032 27.0054 6.59666C26.9288 6.59475 26.852 6.59362 26.7753 6.59324L26.4925 6.59275ZM8.35999 12.0032C8.11416 12.2896 7.72441 12.5164 7.33428 12.4829C7.28359 12.0957 7.47864 11.6837 7.69899 11.4313C7.94466 11.1364 8.36862 10.9261 8.71607 10.909C8.75846 11.3131 8.59744 11.7087 8.35999 12.0032ZM8.71166 12.5586H8.71147C8.93138 12.5753 9.56541 12.6425 9.97128 13.238C9.93741 13.2632 9.21883 13.6744 9.22721 14.5388C9.23569 15.5709 10.1401 15.9151 10.1485 15.9235C10.1401 15.9487 10.0052 16.4103 9.67535 16.8885C9.38799 17.3082 9.09192 17.7193 8.61864 17.7276C8.16205 17.736 8.00981 17.4592 7.4859 17.4592C6.96178 17.4592 6.79281 17.7193 6.36149 17.736C5.90507 17.7527 5.55864 17.2912 5.27119 16.8716C4.67909 16.0241 4.2312 14.4801 4.83988 13.4394C5.13589 12.9192 5.67684 12.592 6.25996 12.5836C6.7081 12.5753 7.12241 12.8774 7.39301 12.8774C7.66354 12.8774 8.14492 12.525 8.71163 12.5586H8.71166ZM14.3593 11.389C15.5905 11.389 16.4479 12.231 16.4479 13.4568C16.4479 14.687 15.5729 15.5334 14.3285 15.5334H12.9654V17.6842H11.9805V11.389H14.3593H14.3593ZM12.9654 14.7132H14.0954C14.9531 14.7132 15.441 14.2551 15.441 13.4612C15.441 12.6674 14.9529 12.2135 14.0998 12.2135H12.9654V14.7132ZM16.6923 16.3797C16.6923 15.5727 17.3123 15.1102 18.4554 15.0404L19.6822 14.9662V14.6172C19.6822 14.1069 19.3437 13.8277 18.7413 13.8277C18.2443 13.8277 17.8837 14.0806 17.8092 14.4688H16.9208C16.9474 13.6532 17.7211 13.0599 18.7677 13.0599C19.8934 13.0599 20.6276 13.6444 20.6276 14.5519V17.6841H19.7175V16.9294H19.6956C19.4361 17.4222 18.8643 17.7319 18.2443 17.7319C17.3298 17.7319 16.6922 17.1911 16.6922 16.3797H16.6923ZM19.6822 15.9741V15.6206L18.5874 15.6904C17.9716 15.7297 17.6509 15.9564 17.6509 16.3534C17.6509 16.7373 17.985 16.9861 18.5082 16.9861C19.1764 16.9861 19.6822 16.5628 19.6822 15.9741H19.6822ZM21.4645 19.3678V18.6133C21.5261 18.6218 21.6754 18.6306 21.7547 18.6306C22.1899 18.6306 22.4362 18.4477 22.5857 17.9762L22.6737 17.6971L21.0071 13.1166H22.0359L23.1969 16.8334H23.2189L24.3797 13.1166H25.3823L23.6542 17.9283C23.2583 19.0321 22.8055 19.3943 21.8469 19.3943C21.7721 19.3943 21.5303 19.3856 21.4645 19.3679V19.3678Z" fill="black"/>
</svg>
