<svg width="31" height="31" viewBox="0 0 31 31"  xmlns="http://www.w3.org/2000/svg">
<path d="M7.32005 1.62488H3.50186C2.42005 1.62488 1.59277 2.45215 1.59277 3.53397V7.35215C1.59277 8.43397 2.42005 9.26124 3.50186 9.26124H7.32005C8.40186 9.26124 9.22914 8.43397 9.22914 7.35215V3.53397C9.22914 2.45215 8.40186 1.62488 7.32005 1.62488ZM7.32005 21.9885H3.50186C2.42005 21.9885 1.59277 22.8158 1.59277 23.8976V27.7158C1.59277 28.7976 2.42005 29.6249 3.50186 29.6249H7.32005C8.40186 29.6249 9.22914 28.7976 9.22914 27.7158V23.8976C9.22914 22.8158 8.40186 21.9885 7.32005 21.9885ZM7.32005 11.8067H3.50186C2.42005 11.8067 1.59277 12.634 1.59277 13.7158V17.534C1.59277 18.6158 2.42005 19.4431 3.50186 19.4431H7.32005C8.40186 19.4431 9.22914 18.6158 9.22914 17.534V13.7158C9.22914 12.634 8.40186 11.8067 7.32005 11.8067ZM17.5019 1.62488H13.6837C12.6019 1.62488 11.7746 2.45215 11.7746 3.53397V7.35215C11.7746 8.43397 12.6019 9.26124 13.6837 9.26124H17.5019C18.5837 9.26124 19.411 8.43397 19.411 7.35215V3.53397C19.411 2.45215 18.5837 1.62488 17.5019 1.62488ZM17.5019 21.9885H13.6837C12.6019 21.9885 11.7746 22.8158 11.7746 23.8976V27.7158C11.7746 28.7976 12.6019 29.6249 13.6837 29.6249H17.5019C18.5837 29.6249 19.411 28.7976 19.411 27.7158V23.8976C19.411 22.8158 18.5837 21.9885 17.5019 21.9885ZM17.5019 11.8067H13.6837C12.6019 11.8067 11.7746 12.634 11.7746 13.7158V17.534C11.7746 18.6158 12.6019 19.4431 13.6837 19.4431H17.5019C18.5837 19.4431 19.411 18.6158 19.411 17.534V13.7158C19.411 12.634 18.5837 11.8067 17.5019 11.8067ZM27.6837 1.62488H23.8655C22.7837 1.62488 21.9564 2.45215 21.9564 3.53397V7.35215C21.9564 8.43397 22.7837 9.26124 23.8655 9.26124H27.6837C28.7655 9.26124 29.5928 8.43397 29.5928 7.35215V3.53397C29.5928 2.45215 28.7655 1.62488 27.6837 1.62488ZM27.6837 21.9885H23.8655C22.7837 21.9885 21.9564 22.8158 21.9564 23.8976V27.7158C21.9564 28.7976 22.7837 29.6249 23.8655 29.6249H27.6837C28.7655 29.6249 29.5928 28.7976 29.5928 27.7158V23.8976C29.5928 22.8158 28.7655 21.9885 27.6837 21.9885ZM27.6837 11.8067H23.8655C22.7837 11.8067 21.9564 12.634 21.9564 13.7158V17.534C21.9564 18.6158 22.7837 19.4431 23.8655 19.4431H27.6837C28.7655 19.4431 29.5928 18.6158 29.5928 17.534V13.7158C29.5928 12.634 28.7655 11.8067 27.6837 11.8067Z" fill="black"/>
</svg>
