<svg width="30" height="30" viewBox="0 0 30 30" xmlns="http://www.w3.org/2000/svg">
<path d="M14.9485 5.22512L15.7296 3.87748C16.2103 3.03628 17.2833 2.75302 18.1245 3.2337C18.9657 3.71439 19.2489 4.78735 18.7682 5.62855L11.2575 18.6328H16.691C18.4506 18.6328 19.4378 20.7015 18.6738 22.135H2.75107C1.78112 22.135 1 21.3539 1 20.3839C1 19.414 1.78112 18.6328 2.75107 18.6328H7.21459L12.9313 8.72726L11.1459 5.62855C10.6652 4.78735 10.9485 3.72297 11.7897 3.2337C12.6309 2.75302 13.6953 3.03628 14.1845 3.87748L14.9485 5.22512ZM8.19313 23.9376L6.51073 26.856C6.03004 27.6972 4.95708 27.9805 4.11588 27.4998C3.27468 27.0191 2.99142 25.9461 3.4721 25.1049L4.72532 22.9419C6.13305 22.5041 7.28326 22.8389 8.19313 23.9376ZM22.691 18.6414H27.2489C28.2189 18.6414 29 19.4225 29 20.3925C29 21.3625 28.2189 22.1436 27.2489 22.1436H24.7167L26.4249 25.1049C26.9056 25.9461 26.6223 27.0105 25.7811 27.4998C24.9399 27.9805 23.8755 27.6972 23.3863 26.856C20.5107 21.8689 18.3476 18.135 16.9142 15.6457C15.4464 13.1135 16.4936 10.5728 17.5322 9.71439C18.6824 11.6886 20.3991 14.6672 22.691 18.6414Z" fill="black"/>
</svg>
