<svg width="30" height="30" viewBox="0 0 30 30" xmlns="http://www.w3.org/2000/svg">
<path d="M25.7491 2.37455C26.1287 2.37455 26.4364 2.06684 26.4364 1.68727C26.4364 1.3077 26.1287 1 25.7491 1C25.3695 1 25.0618 1.3077 25.0618 1.68727C25.0618 2.06684 25.3695 2.37455 25.7491 2.37455ZM17.68 5.09818C17.68 4.23664 17.1771 3.86324 16.719 3.70038C16.07 3.5984 15.4048 3.54545 14.7273 3.54545C7.69819 3.54545 2 9.24365 2 16.2727C2 23.3018 7.69819 29 14.7273 29C21.7564 29 27.4545 23.3018 27.4545 16.2727C27.4506 16.2345 27.434 16.1696 27.4125 16.086C27.3246 15.7432 27.1562 15.0867 27.4545 14.6691C27.8256 14.1496 27.9127 13.4982 27.7091 13.0655C27.2764 12.3782 26.5891 12.1236 25.2655 12.0473C23.9418 11.9709 23.2229 10.5608 23.5091 9.65454L23.5283 9.59371C23.6644 9.16155 23.6987 9.05253 23.9927 8.68727C24.8327 7.64364 24.7998 6.93485 24.2218 6.21818C23.5855 5.42909 22.0327 4.99173 20.9636 6.32C20.4782 6.92309 19.5893 7.15462 18.8255 6.85455C18.1127 6.57454 17.68 5.90714 17.68 5.09818ZM26.9455 7.31273C27.4234 7.31273 27.8109 6.92525 27.8109 6.44727C27.8109 5.9693 27.4234 5.58182 26.9455 5.58182C26.4675 5.58182 26.08 5.9693 26.08 6.44727C26.08 6.92525 26.4675 7.31273 26.9455 7.31273ZM24.4 4.41091C24.4 4.88889 24.0125 5.27636 23.5345 5.27636C23.0566 5.27636 22.6691 4.88889 22.6691 4.41091C22.6691 3.93293 23.0566 3.54545 23.5345 3.54545C24.0125 3.54545 24.4 3.93293 24.4 4.41091ZM16.4288 8.72671L23.8765 20.1695C24.4962 21.1218 23.8129 22.3818 22.6768 22.3818C21.3805 22.3818 20.177 21.7096 19.4972 20.6058L15.5608 14.2142C15.2482 13.7066 14.5103 13.7069 14.1981 14.2147L11.8377 18.054C11.51 18.587 11.8935 19.273 12.5192 19.273H13.3645C14.8387 19.273 16.218 20.0001 17.0509 21.2164C17.3893 21.7106 17.0355 22.3818 16.4365 22.3818H7.92004C6.4634 22.3818 5.58434 20.7696 6.37334 19.5452L13.34 8.73375C14.0626 7.61235 15.7011 7.60861 16.4288 8.72671ZM26.9455 10.1636C26.9455 10.9228 26.3301 11.5382 25.5709 11.5382C24.8118 11.5382 24.1964 10.9228 24.1964 10.1636C24.1964 9.40449 24.8118 8.78909 25.5709 8.78909C26.3301 8.78909 26.9455 9.40449 26.9455 10.1636ZM19.6655 6.29455C20.4246 6.29455 21.04 5.67914 21.04 4.92C21.04 4.16086 20.4246 3.54546 19.6655 3.54546C18.9063 3.54546 18.2909 4.16086 18.2909 4.92C18.2909 5.67914 18.9063 6.29455 19.6655 6.29455Z" fill="black"/>
</svg>
