<svg width="31" height="30" viewBox="0 0 31 30" xmlns="http://www.w3.org/2000/svg">
<g clip-path="url(#clip0_1121_405)">
<path d="M13.1348 10.6971C13.1907 10.623 13.2272 10.5065 13.2336 10.324L11.1537 3.56042C11.1382 3.50817 11.1227 3.46053 11.1082 3.41631C11.0148 3.13046 10.968 2.98754 11.3136 2.6653C11.4466 2.54128 11.5796 2.41725 11.9696 2.3022C12.4747 2.57718 12.9888 2.59513 13.2458 2.60411C13.7599 2.62206 14.398 2.77301 14.77 3.17202L21.7588 13.0665L21.9526 13.4905C22.0093 13.5027 22.0944 13.5107 22.2137 13.5219C22.7431 13.5715 23.9473 13.6844 26.3404 14.5132C26.4696 14.574 26.5963 14.632 26.7202 14.6888C27.4459 15.0211 28.0791 15.3111 28.6087 15.8791C29.3529 16.6771 29.9551 17.8562 29.6622 18.8754C29.6442 19.3894 28.8552 19.8766 27.703 19.7077C27.703 19.7077 15.4643 16.4495 7.96717 13.7429C7.58611 13.6009 6.957 13.193 6.70895 12.9269C6.49213 12.6944 6.28937 12.5096 6.09653 12.3338C5.73782 12.0068 5.41341 11.7111 5.09659 11.1979C4.60048 10.6659 4.35243 10.3999 4.37038 9.88583L4.29286 4.73625C4.30184 4.47922 4.43484 4.35519 4.83385 3.98311C4.96685 3.85908 5.48989 3.62 5.74692 3.62898C6.26098 3.64693 7.0231 3.93089 7.12917 4.57795C7.27972 4.87272 7.46127 5.20074 7.65417 5.54926C8.23287 6.59482 8.9137 7.8249 9.16583 8.89524L9.28986 9.02825L12.7104 10.5631L13.1348 10.6971Z" fill="black"/>
<rect x="4.30902" y="23.6396" width="23.4116" height="2.02881" rx="1.0144" fill="black"/>
</g>
<defs>
<clipPath id="clip0_1121_405">
<rect width="30" height="30" fill="white" transform="translate(0.727417)"/>
</clipPath>
</defs>
</svg>
