<svg width="30" height="30" viewBox="0 0 30 30" xmlns="http://www.w3.org/2000/svg">
<path d="M8.03926 6C8.03926 5.44772 8.48698 5 9.03926 5C9.59155 5 10.0393 5.44772 10.0393 6V24C10.0393 24.5523 9.59155 25 9.03926 25C8.48698 25 8.03926 24.5523 8.03926 24V6Z" fill="black"/>
<path d="M13.9957 10C13.9957 9.44771 14.4434 9 14.9957 9C15.548 9 15.9957 9.44772 15.9957 10V20C15.9957 20.5523 15.548 21 14.9957 21C14.4434 21 13.9957 20.5523 13.9957 20V10Z" fill="black"/>
<path d="M26.9422 9C26.3899 9 25.9422 9.44771 25.9422 10V20C25.9422 20.5523 26.3899 21 26.9422 21C27.4945 21 27.9422 20.5523 27.9422 20V10C27.9422 9.44772 27.4945 9 26.9422 9Z" fill="black"/>
<path d="M20.1998 12C20.1998 11.4477 20.6475 11 21.1998 11C21.752 11 22.1998 11.4477 22.1998 12V18C22.1998 18.5523 21.752 19 21.1998 19C20.6475 19 20.1998 18.5523 20.1998 18V12Z" fill="black"/>
<path d="M3.05762 11C2.50533 11 2.05762 11.4477 2.05762 12V18C2.05762 18.5523 2.50533 19 3.05762 19C3.6099 19 4.05762 18.5523 4.05762 18V12C4.05762 11.4477 3.6099 11 3.05762 11Z" fill="black"/>
</svg>
