<svg width="30" height="31" viewBox="0 0 30 31" xmlns="http://www.w3.org/2000/svg">
<path d="M15.3787 18.2893C18.6207 18.2893 21.2586 15.6516 21.2586 12.4093C21.2586 9.16702 18.6207 6.52996 15.3787 6.52996C12.1374 6.52996 9.4995 9.16685 9.4995 12.4092C9.4995 15.6515 12.1374 18.2893 15.3787 18.2893ZM15.3787 8.20943C17.6944 8.20943 19.5783 10.0929 19.5783 12.4093C19.5783 14.7254 17.6942 16.6098 15.3787 16.6098C13.0625 16.6098 11.1788 14.7254 11.1788 12.4092C11.1788 10.0929 13.0625 8.20943 15.3787 8.20943ZM23.4637 19.2289C25.2731 17.086 26.2517 14.2196 25.886 11.13C25.3163 6.29768 21.4229 2.43216 16.5888 1.89277C10.2124 1.18292 4.79435 6.17512 4.79435 12.4094C4.79435 15.0438 5.76498 17.4553 7.36397 19.3089L4.04222 25.3516C3.91841 25.5751 4.08149 25.8491 4.33684 25.8491H8.23618C8.34726 25.8492 8.45659 25.8768 8.55432 25.9297C8.65204 25.9825 8.73509 26.0588 8.79599 26.1517L11.0942 29.6727C11.2318 29.8832 11.5421 29.8742 11.668 29.6572L15.4356 23.0876L19.2049 29.6562C19.3289 29.8742 19.639 29.8832 19.7764 29.6728L22.0769 26.1517C22.1376 26.059 22.2204 25.9828 22.3178 25.9299C22.4152 25.8771 22.5242 25.8493 22.635 25.849H26.5359C26.7914 25.849 26.9527 25.5752 26.831 25.3517L23.4637 19.2289ZM14.2158 3.58015C20.0337 2.83808 24.9489 7.75421 24.2086 13.5726C23.702 17.5454 20.5137 20.7337 16.5415 21.2392C10.723 21.98 5.8083 17.064 6.5488 11.2473C7.05578 7.27399 10.2416 4.08624 14.2158 3.58015ZM11.1551 26.6942L9.70555 24.472C9.64481 24.379 9.56182 24.3026 9.46409 24.2498C9.36637 24.1969 9.257 24.1693 9.1459 24.1694H6.97125C6.93408 24.1694 6.89754 24.1597 6.86524 24.1413C6.83294 24.1229 6.80601 24.0963 6.78709 24.0643C6.76817 24.0323 6.75793 23.996 6.75737 23.9588C6.75681 23.9216 6.76595 23.8849 6.7839 23.8524L8.60791 20.5354C10.0482 21.7405 11.7844 22.5389 13.6367 22.8479L11.4355 26.6858C11.4216 26.7102 11.4016 26.7306 11.3775 26.7451C11.3534 26.7595 11.326 26.7676 11.2979 26.7684C11.2698 26.7693 11.2419 26.7629 11.217 26.7499C11.1921 26.7369 11.1709 26.7177 11.1555 26.6942H11.1551ZM21.1676 24.472L19.716 26.6944C19.7008 26.7179 19.6798 26.737 19.655 26.75C19.6302 26.763 19.6025 26.7693 19.5746 26.7684C19.5466 26.7675 19.5194 26.7595 19.4955 26.7449C19.4716 26.7304 19.4518 26.71 19.4381 26.6856L17.2254 22.8279C19.0733 22.5005 20.8004 21.6859 22.2284 20.4682L24.1303 23.9272C24.144 23.9522 24.151 23.9802 24.1506 24.0087C24.1501 24.0372 24.1422 24.065 24.1277 24.0895C24.1131 24.114 24.0924 24.1342 24.0676 24.1482C24.0429 24.1622 24.0148 24.1695 23.9864 24.1694H21.7281C21.6169 24.1692 21.5074 24.1969 21.4095 24.2498C21.3117 24.3026 21.2286 24.3791 21.1677 24.4722L21.1676 24.472Z" fill="black"/>
</svg>
