<svg width="30" height="30" viewBox="0 0 30 30" xmlns="http://www.w3.org/2000/svg">
<path d="M26.2334 18.829L24.2558 20.8067L19.9759 15.3433L19.9732 15.3407C19.9706 15.3381 19.0499 14.1913 17.7556 12.5672C16.2681 10.7023 14.7885 8.83118 13.3169 6.95372L11.9423 8.02893C14.8983 11.8079 18.5708 16.381 18.6092 16.429L23.013 22.0503L22.0486 23.0129L16.4308 18.6117C16.4125 18.5969 11.8184 14.9078 8.02811 11.9423L6.95203 13.3177C8.82944 14.7893 10.7006 16.2689 12.5655 17.7564C13.4915 18.4938 14.416 19.233 15.339 19.9741L15.3425 19.9767L20.805 24.2566L18.8273 26.2342L20.0614 27.4682L27.4666 20.0631L26.2334 18.829Z" fill="black"/>
<path d="M2.27433 12.2941C1.86998 12.6958 1.5492 13.1737 1.3305 13.7C1.1118 14.2264 0.999521 14.7909 1.00014 15.3609C0.998102 16.1883 1.23242 16.9992 1.67553 17.698C2.11863 18.3968 2.75209 18.9546 3.5014 19.3056C3.53805 19.3231 11.8395 23.3734 19.5545 26.9604L20.0624 27.4683C20.5484 27.9549 21.1257 28.3406 21.7612 28.6035C22.3967 28.8663 23.0778 29.0011 23.7654 29C24.4532 29.0011 25.1344 28.8665 25.77 28.6039C26.4056 28.3412 26.9832 27.9557 27.4695 27.4693C27.9558 26.983 28.3413 26.4055 28.604 25.7699C28.8667 25.1343 29.0013 24.4531 29.0001 23.7653C29.001 23.0777 28.8662 22.3966 28.6033 21.7612C28.3405 21.1257 27.9548 20.5484 27.4685 20.0623L26.9605 19.5544C25.1723 15.7082 23.2724 11.7216 21.8123 8.68269C21.0417 7.07966 20.2678 5.47819 19.4908 3.87828L19.3538 3.59726L19.3189 3.52482L19.311 3.50649L19.3101 3.50213H19.3075L19.3066 3.503C18.9556 2.7537 18.3978 2.11936 17.699 1.67626C17.0002 1.23315 16.1893 0.998835 15.3619 1.00087C14.7919 1.00035 14.2275 1.11267 13.7011 1.33137C13.1747 1.55006 12.6969 1.87079 12.2951 2.27506C11.8072 2.76212 11.4423 3.35835 11.2306 4.01442C11.0189 4.67049 10.9665 5.36754 11.0776 6.0479C10.8559 6.01386 10.6325 5.99117 10.4082 5.99117C9.82817 5.99026 9.25365 6.10406 8.71774 6.32603C8.18183 6.54801 7.69511 6.87377 7.28558 7.28457C6.87484 7.69396 6.54912 8.18054 6.32715 8.7163C6.10517 9.25206 5.99134 9.82642 5.99218 10.4063C5.99218 10.6306 6.01488 10.8541 6.04891 11.0757C5.36821 10.9644 4.67077 11.0168 4.01437 11.2287C3.35797 11.4406 2.76149 11.8058 2.27433 12.2941ZM7.73504 10.4063C7.73428 10.0556 7.803 9.70827 7.93721 9.38426C8.07142 9.06026 8.26848 8.76605 8.51701 8.51861C9.04589 7.99061 9.72138 7.73752 10.4056 7.73577C10.8124 7.73448 11.214 7.8263 11.5798 8.0042C11.9456 8.1821 12.2658 8.44135 12.5159 8.76211C12.5211 8.76909 12.5298 8.77171 12.5351 8.77869C12.6022 8.86198 12.6842 8.93211 12.7768 8.98553C12.8746 9.03975 12.9818 9.07471 13.0928 9.08851L13.0971 9.08938C13.2689 9.11001 13.4429 9.07923 13.5972 9.00093C13.7514 8.92263 13.879 8.80034 13.9638 8.64952C14.0755 8.44967 14.1043 8.21403 14.044 7.99323C14.017 7.89548 13.9672 7.80472 13.907 7.72006C13.8992 7.70959 13.8983 7.6965 13.8904 7.68602L13.3162 6.95205C12.9241 6.45158 12.729 5.8248 12.7678 5.19023C12.8065 4.55566 13.0765 3.95727 13.5265 3.50824C14.051 2.98634 14.7003 2.74721 15.3593 2.74547C16.3306 2.74896 17.2714 3.27173 17.7287 4.25094L17.734 4.26228C17.7444 4.2841 21.8393 12.6789 25.4411 20.4297L25.6156 20.6793L26.2327 21.2963C26.5572 21.6201 26.8144 22.0048 26.9895 22.4284C27.1646 22.852 27.2541 23.3061 27.2529 23.7644C27.2542 24.2229 27.1648 24.6771 26.99 25.101C26.8151 25.5248 26.5582 25.9099 26.2341 26.2342C25.9099 26.5584 25.5249 26.8154 25.1011 26.9904C24.6773 27.1653 24.2231 27.2548 23.7646 27.2536C23.3062 27.2547 22.8522 27.1651 22.4286 26.99C22.0051 26.8149 21.6203 26.5578 21.2965 26.2334L20.6795 25.6164L20.4299 25.4418C16.5558 23.6414 12.5141 21.7153 9.44211 20.2386C7.84068 19.4686 6.24066 18.6956 4.64206 17.9197L4.36104 17.7827L4.2886 17.7478L4.25108 17.7295C3.27274 17.2722 2.7491 16.3322 2.74561 15.3609C2.74474 15.02 2.81175 14.6825 2.9427 14.3678C3.07366 14.0531 3.26596 13.7677 3.50838 13.5281C4.01544 13.0219 4.67872 12.7653 5.35072 12.7653C5.93133 12.7651 6.49508 12.9595 6.95203 13.3177L7.67656 13.8842C7.70362 13.9051 7.73591 13.9112 7.76471 13.9287C7.83453 13.9715 7.90348 14.016 7.98202 14.0378C8.14781 14.0838 8.32349 14.0797 8.48694 14.026C8.6504 13.9723 8.79433 13.8715 8.9006 13.7362C9.00688 13.6009 9.07075 13.4372 9.08418 13.2657C9.0976 13.0942 9.05999 12.9225 8.97607 12.7723C8.93592 12.6999 8.87483 12.6414 8.81548 12.5829C8.79279 12.5611 8.78057 12.5323 8.75527 12.5123C8.43641 12.2618 8.17882 11.942 8.00204 11.5771C7.82526 11.2122 7.73395 10.8118 7.73504 10.4063Z" fill="black"/>
</svg>
