<svg width="30" height="31" viewBox="0 0 30 31"  xmlns="http://www.w3.org/2000/svg">
<path d="M1 4.69196C1 4.13967 1.44772 3.69196 2 3.69196H2.05333C2.60562 3.69196 3.05333 4.13967 3.05333 4.69196V26.9586C3.05333 27.5109 2.60562 27.9586 2.05333 27.9586H2C1.44772 27.9586 1 27.5109 1 26.9586V4.69196ZM5.66667 4.62529C5.66667 4.10982 6.08453 3.69196 6.6 3.69196C7.11547 3.69196 7.53333 4.10982 7.53333 4.62529V22.3586C7.53333 22.8741 7.11547 23.292 6.6 23.292C6.08453 23.292 5.66667 22.8741 5.66667 22.3586V4.62529ZM5.66667 27.0253C5.66667 26.5098 6.08453 26.092 6.6 26.092C7.11547 26.092 7.53333 26.5098 7.53333 27.0253C7.53333 27.5408 7.11547 27.9586 6.6 27.9586C6.08453 27.9586 5.66667 27.5408 5.66667 27.0253ZM10.3333 4.62529C10.3333 4.10982 10.7512 3.69196 11.2667 3.69196C11.7821 3.69196 12.2 4.10982 12.2 4.62529V22.3586C12.2 22.8741 11.7821 23.292 11.2667 23.292C10.7512 23.292 10.3333 22.8741 10.3333 22.3586V4.62529ZM10.3333 27.0253C10.3333 26.5098 10.7512 26.092 11.2667 26.092C11.7821 26.092 12.2 26.5098 12.2 27.0253C12.2 27.5408 11.7821 27.9586 11.2667 27.9586C10.7512 27.9586 10.3333 27.5408 10.3333 27.0253ZM15 4.62529C15 4.10982 15.4179 3.69196 15.9333 3.69196C16.4488 3.69196 16.8667 4.10982 16.8667 4.62529V22.3586C16.8667 22.8741 16.4488 23.292 15.9333 23.292C15.4179 23.292 15 22.8741 15 22.3586V4.62529ZM15 27.0253C15 26.5098 15.4179 26.092 15.9333 26.092C16.4488 26.092 16.8667 26.5098 16.8667 27.0253C16.8667 27.5408 16.4488 27.9586 15.9333 27.9586C15.4179 27.9586 15 27.5408 15 27.0253ZM27.1333 4.62529C27.1333 4.10982 27.5512 3.69196 28.0667 3.69196C28.5821 3.69196 29 4.10982 29 4.62529V22.3586C29 22.8741 28.5821 23.292 28.0667 23.292C27.5512 23.292 27.1333 22.8741 27.1333 22.3586V4.62529ZM27.1333 27.0253C27.1333 26.5098 27.5512 26.092 28.0667 26.092C28.5821 26.092 29 26.5098 29 27.0253C29 27.5408 28.5821 27.9586 28.0667 27.9586C27.5512 27.9586 27.1333 27.5408 27.1333 27.0253ZM19.6667 4.69196C19.6667 4.13967 20.1144 3.69196 20.6667 3.69196H23.3333C23.8856 3.69196 24.3333 4.13967 24.3333 4.69196V22.292C24.3333 22.8442 23.8856 23.292 23.3333 23.292H20.6667C20.1144 23.292 19.6667 22.8442 19.6667 22.292V4.69196ZM19.6667 27.0253C19.6667 26.5098 20.0845 26.092 20.6 26.092H23.4C23.9155 26.092 24.3333 26.5098 24.3333 27.0253C24.3333 27.5408 23.9155 27.9586 23.4 27.9586H20.6C20.0845 27.9586 19.6667 27.5408 19.6667 27.0253Z" fill="black"/>
</svg>
