<svg width="30" height="30" viewBox="0 0 30 30" xmlns="http://www.w3.org/2000/svg">
<g clip-path="url(#clip0_1038_1010)">
<path d="M25.0102 4.98978L24.9076 5.09243L25.0102 4.98978C19.4905 -0.529927 10.5095 -0.529927 4.98978 4.98978C-0.529928 10.5095 -0.529926 19.4902 4.98978 25.01L5.09585 24.904L4.98978 25.01C10.5095 30.5297 19.4905 30.5297 25.0102 25.01C30.5299 19.4903 30.5299 10.5097 25.0102 4.98978ZM10.945 17.167L10.9449 17.167C8.68397 14.9062 5.45087 14.1986 2.58035 15.0399C2.57079 12.1131 3.58382 9.18474 5.6226 6.84368L13.7469 14.9681L11.2464 17.4686L10.945 17.167ZM6.80962 24.3488L11.2464 19.9119L11.611 20.2766L11.611 20.2767C13.5039 22.1693 14.0276 24.9192 13.1854 27.2895C10.8847 26.9528 8.66149 25.9733 6.80962 24.3488ZM17.1672 10.9447L17.4689 11.2463L14.9684 13.7466L6.8441 5.62218C9.18516 3.5834 12.1133 2.57037 15.0402 2.57993C14.1988 5.45061 14.9065 8.68372 17.1672 10.9447L17.2733 10.8386L17.1672 10.9447ZM27.2894 13.1852C24.9191 14.0274 22.1696 13.5039 20.2765 11.611L19.9119 11.2464L24.3487 6.80962C25.9732 8.66149 26.9526 10.8846 27.2894 13.1852ZM16.8146 2.71054C19.0872 3.04316 21.2835 4.00438 23.1216 5.59374L18.6904 10.0249L18.3888 9.72343C18.3888 9.72342 18.3888 9.72342 18.3888 9.72341C16.4959 7.83056 15.9723 5.08066 16.8146 2.71054ZM2.71054 16.8147C5.08065 15.9723 7.83054 16.4959 9.72339 18.3887C9.7234 18.3887 9.72342 18.3887 9.72343 18.3887L10.0249 18.6905L5.59374 23.1217C4.00438 21.2836 3.04316 19.0873 2.71054 16.8147ZM12.8328 19.0554L12.4681 18.6906L14.9685 16.19L23.1561 24.3778C20.815 26.4165 17.8867 27.4296 14.9598 27.42C15.8016 24.5495 15.0939 21.3164 12.8328 19.0555C12.8328 19.0554 12.8328 19.0554 12.8328 19.0554ZM19.0551 12.8328C21.3161 15.0939 24.5492 15.8014 27.4197 14.9598C27.4292 17.8867 26.416 20.815 24.3774 23.1559L16.1898 14.9686L18.6903 12.4681L19.0551 12.8328C19.0551 12.8328 19.0551 12.8328 19.0551 12.8328Z" fill="black" stroke="black" stroke-width="0.3"/>
</g>
<defs>
<clipPath id="clip0_1038_1010">
<rect width="30" height="30" fill="white"/>
</clipPath>
</defs>
</svg>
