<svg width="31" height="30" viewBox="0 0 31 30" xmlns="http://www.w3.org/2000/svg">
<rect x="1.72742" y="14.45" width="28" height="1.1" fill="black"/>
<rect x="1.72742" y="10.3499" width="28" height="1.1" fill="black"/>
<rect x="1.72742" y="6.24976" width="28" height="1.1" fill="black"/>
<rect x="1.72742" y="18.55" width="28" height="1.1" fill="black"/>
<rect x="1.72742" y="22.6501" width="28" height="1.1" fill="black"/>
<path d="M16.599 7.34773C14.9446 6.48573 13.3025 6.65117 11.8223 7.77089C10.6764 8.64159 10.3195 9.87973 10.5337 11.2537C10.6904 12.2759 11.8327 12.9951 12.8602 12.8001C13.7309 12.6364 14.2272 11.7413 14.0165 10.7104C13.797 9.65159 13.1196 9.28591 11.8589 9.54015C11.7074 9.57149 11.5524 9.58195 11.1135 9.63941C11.4914 9.04036 11.6795 8.54233 12.026 8.19405C13.7013 6.5728 15.8206 7.18054 16.4544 9.42871C17.4819 13.0717 15.5419 17.6603 12.2037 19.4418C11.4549 19.8406 10.6643 20.1645 9.89282 20.5232L9.91894 20.7322C10.3752 20.6503 10.8349 20.5876 11.2842 20.4832C15.6342 19.4714 18.8628 15.8562 19.0718 11.7186C19.1676 9.76131 18.3404 8.255 16.599 7.34773ZM19.8554 13.1623C19.8554 13.2743 19.8775 13.3853 19.9204 13.4888C19.9632 13.5923 20.0261 13.6864 20.1053 13.7656C20.1846 13.8449 20.2786 13.9077 20.3822 13.9506C20.4857 13.9935 20.5966 14.0156 20.7087 14.0156C20.8208 14.0156 20.9317 13.9935 21.0352 13.9506C21.1388 13.9077 21.2328 13.8449 21.3121 13.7656C21.3913 13.6864 21.4542 13.5923 21.497 13.4888C21.5399 13.3853 21.562 13.2743 21.562 13.1623C21.562 13.0502 21.5399 12.9393 21.497 12.8357C21.4542 12.7322 21.3913 12.6381 21.3121 12.5589C21.2328 12.4797 21.1388 12.4168 21.0352 12.3739C20.9317 12.3311 20.8208 12.309 20.7087 12.309C20.5966 12.309 20.4857 12.3311 20.3822 12.3739C20.2786 12.4168 20.1846 12.4797 20.1053 12.5589C20.0261 12.6381 19.9632 12.7322 19.9204 12.8357C19.8775 12.9393 19.8554 13.0502 19.8554 13.1623ZM19.8554 8.93066C19.8554 9.04271 19.8775 9.15367 19.9204 9.2572C19.9632 9.36072 20.0261 9.45479 20.1053 9.53402C20.1846 9.61326 20.2786 9.67611 20.3822 9.71899C20.4857 9.76188 20.5966 9.78395 20.7087 9.78395C20.8208 9.78395 20.9317 9.76188 21.0352 9.71899C21.1388 9.67611 21.2328 9.61326 21.3121 9.53402C21.3913 9.45479 21.4542 9.36072 21.497 9.2572C21.5399 9.15367 21.562 9.04271 21.562 8.93066C21.562 8.8186 21.5399 8.70764 21.497 8.60412C21.4542 8.50059 21.3913 8.40653 21.3121 8.32729C21.2328 8.24806 21.1388 8.1852 21.0352 8.14232C20.9317 8.09944 20.8208 8.07737 20.7087 8.07737C20.5966 8.07737 20.4857 8.09944 20.3822 8.14232C20.2786 8.1852 20.1846 8.24806 20.1053 8.32729C20.0261 8.40653 19.9632 8.50059 19.9204 8.60412C19.8775 8.70764 19.8554 8.8186 19.8554 8.93066Z" fill="black"/>
</svg>
