<svg width="30" height="30" viewBox="0 0 30 30" xmlns="http://www.w3.org/2000/svg">
<path fill-rule="evenodd" clip-rule="evenodd" d="M11.1535 11L9 15.6905L14.1429 15.0952L13.4457 18H5C4.44771 18 4 17.5523 4 17V12C4 11.4477 4.44772 11 5 11H11.1535ZM11.8422 9.5H4.5C3.39543 9.5 2.5 10.3954 2.5 11.5V17.5C2.5 18.6046 3.39543 19.5 4.5 19.5H13.0857L12.7257 21H3.5C2.11929 21 1 19.8807 1 18.5V10.5C1 9.11929 2.11929 8 3.5 8H12.5309L11.8422 9.5ZM15.2857 9.5H11.8422L11.1535 11H15.2857V11.5238L21 12.7143L17.4057 18H13.4457L13.0857 19.5H16.3857L15.3657 21H12.7257L11.2857 27L15.3657 21H24.5C25.8807 21 27 19.8807 27 18.5V17.9146C27.1564 17.9699 27.3247 18 27.5 18C28.3284 18 29 17.3284 29 16.5V12.5C29 11.6716 28.3284 11 27.5 11C27.3247 11 27.1564 11.0301 27 11.0854V10.5C27 9.11929 25.8807 8 24.5 8H15.2857V2L12.5309 8H15.2857V9.5ZM16.3857 19.5L17.4057 18H22.5C23.0523 18 23.5 17.5523 23.5 17V12C23.5 11.4477 23.0523 11 22.5 11H15.2857V9.5H23.5C24.6046 9.5 25.5 10.3954 25.5 11.5V17.5C25.5 18.6046 24.6046 19.5 23.5 19.5H16.3857Z" fill="black"/>
</svg>
