<svg width="30" height="30" viewBox="0 0 30 30" xmlns="http://www.w3.org/2000/svg">
<path fill-rule="evenodd" clip-rule="evenodd" d="M1 10.5C1 9.11929 2.11929 8 3.5 8H24.5C25.8807 8 27 9.11929 27 10.5V11.0854C27.1564 11.0301 27.3247 11 27.5 11C28.3284 11 29 11.6716 29 12.5V16.5C29 17.3284 28.3284 18 27.5 18C27.3247 18 27.1564 17.9699 27 17.9146V18.5C27 19.8807 25.8807 21 24.5 21H3.5C2.11929 21 1 19.8807 1 18.5V10.5ZM4.5 9.5C3.39543 9.5 2.5 10.3954 2.5 11.5V17.5C2.5 18.6046 3.39543 19.5 4.5 19.5H23.5C24.6046 19.5 25.5 18.6046 25.5 17.5V11.5C25.5 10.3954 24.6046 9.5 23.5 9.5H4.5Z" fill="black"/>
<rect x="4" y="11" width="5.5" height="7" rx="1" fill="black"/>
</svg>
