<svg width="30" height="30" viewBox="0 0 30 30" xmlns="http://www.w3.org/2000/svg">
<path fill-rule="evenodd" clip-rule="evenodd" d="M15 1C7.26801 1 1 7.26801 1 15C1 22.732 7.26801 29 15 29C22.732 29 29 22.732 29 15C29 7.26801 22.732 1 15 1ZM14.1979 11.3035C14.4797 11.6907 14.6211 12.1532 14.6211 12.6929C14.6211 13.2481 14.4797 13.6959 14.1943 14.0338C14.0345 14.2226 13.8001 14.3958 13.4902 14.5517C13.9608 14.7215 14.3155 14.9892 14.557 15.3556C14.7958 15.7211 14.9161 16.1663 14.9161 16.6895C14.9161 17.2292 14.7791 17.7134 14.5043 18.1413C14.3304 18.4245 14.1127 18.6636 13.851 18.8576C13.5569 19.0802 13.2101 19.2318 12.8088 19.315C12.4076 19.3973 11.9738 19.4371 11.505 19.4371H7.34666V10.3333H11.8061C12.9317 10.3498 13.7281 10.6729 14.1979 11.3035ZM16.889 11.8907V10.7577H20.8436V11.8907H16.889ZM17.8258 14.3632C18.0778 14.1068 18.4343 13.9786 18.8909 13.9786C19.3123 13.9786 19.6644 14.099 19.9506 14.3407C20.2334 14.5841 20.3932 14.9375 20.4257 15.4052H17.3499C17.4149 14.9669 17.5738 14.6196 17.8258 14.3632ZM21.6733 13.8383C21.9551 14.2384 22.136 14.7027 22.2185 15.2302C22.2668 15.5386 22.2862 15.9856 22.2783 16.5668H17.306C17.3359 17.2416 17.5712 17.7154 18.0207 17.9865C18.2929 18.1554 18.6204 18.2403 19.005 18.2403C19.4098 18.2403 19.7408 18.1372 19.9945 17.9319C20.1341 17.8202 20.2571 17.666 20.3624 17.4685H22.1843C22.136 17.867 21.9148 18.2732 21.5232 18.6855C20.9121 19.3395 20.056 19.6669 18.9558 19.6669C18.0471 19.6669 17.2454 19.3915 16.5527 18.8388C15.8564 18.2871 15.5105 17.388 15.5105 16.1441C15.5105 14.9773 15.8239 14.0825 16.45 13.4597C17.0777 12.8387 17.8899 12.526 18.89 12.526C19.4844 12.526 20.0191 12.6316 20.495 12.8421C20.9718 13.0517 21.3642 13.3844 21.6733 13.8383ZM9.18609 15.429V17.8569H11.4268C11.8272 17.8569 12.1398 17.8032 12.3619 17.6967C12.7667 17.4974 12.9686 17.1198 12.9686 16.5602C12.9686 16.0855 12.7737 15.7607 12.3812 15.5831C12.1617 15.4844 11.8535 15.4324 11.4584 15.429H9.18609ZM9.18609 13.9229V11.9141H11.195C11.6366 11.9141 12.0001 11.9618 12.2864 12.0562C12.6165 12.1931 12.7816 12.4728 12.7816 12.8982C12.7816 13.2793 12.656 13.5461 12.4067 13.6968C12.1556 13.8475 11.8298 13.9229 11.4303 13.9229H9.18609Z" fill="black"/>
</svg>
