<svg width="30" height="30" viewBox="0 0 30 30" xmlns="http://www.w3.org/2000/svg">
<g clip-path="url(#clip0_1038_1031)">
<path fill-rule="evenodd" clip-rule="evenodd" d="M7.2727 3.32707C0.82511 7.59464 -0.94215 16.281 3.32542 22.7286C7.59299 29.1762 16.2793 30.9434 22.7269 26.6759C29.1745 22.4083 30.9418 13.7219 26.6742 7.27435C22.4067 0.826759 13.7203 -0.940501 7.2727 3.32707ZM9.60348 11.378C13.0576 9.0918 17.711 10.0385 19.9972 13.4926C22.2834 16.9467 21.3366 21.6001 17.8825 23.8863C14.4285 26.1725 9.77507 25.2257 7.48887 21.7717C5.20267 18.3176 6.14942 13.6642 9.60348 11.378Z" fill="black"/>
<path d="M14.5369 17.1277C14.7168 16.7862 14.7995 16.507 14.7848 16.2903C14.7729 16.0718 14.6493 15.7847 14.4139 15.4291C14.0438 14.8699 13.6206 14.5313 13.1443 14.4133C12.668 14.2952 12.0674 14.476 11.3427 14.9558C10.7156 15.3708 10.339 15.825 10.2128 16.3184C10.0847 16.8092 10.2085 17.3382 10.584 17.9055C10.8014 18.234 11.0313 18.4722 11.2736 18.6201C11.5169 18.7636 11.7727 18.8168 12.041 18.7798C11.8347 19.17 11.7974 19.5324 11.929 19.8669C12.0633 20.1996 12.2626 20.5654 12.5267 20.9645C12.9201 21.5589 13.2624 21.9433 13.5534 22.1176C13.8472 22.2901 14.1878 22.3594 14.5752 22.3255C14.9626 22.2916 15.4007 22.1129 15.8893 21.7895C16.3914 21.4571 16.7388 21.112 16.9314 20.7543C17.1222 20.3938 17.1856 20.0531 17.1217 19.7324C17.0577 19.4117 16.8497 18.9853 16.4976 18.4533C16.0142 17.7231 15.6437 17.3048 15.3858 17.1983C15.1262 17.0891 14.8432 17.0656 14.5369 17.1277ZM12.6748 16.3226L12.9739 16.7745C13.1284 17.008 13.2119 17.1753 13.2242 17.2764C13.2347 17.3749 13.1856 17.46 13.0771 17.5319C12.9739 17.6002 12.8755 17.6107 12.7817 17.5634C12.688 17.5161 12.5755 17.3934 12.4444 17.1953L12.1129 16.6945C11.9727 16.4827 11.8965 16.3263 11.8842 16.2251C11.8701 16.1213 11.9174 16.0334 12.0259 15.9615C12.1372 15.8879 12.2361 15.8751 12.3226 15.9232C12.4101 15.9669 12.5275 16.1 12.6748 16.3226ZM14.5211 19.0413L15.079 19.8841C15.2712 20.1745 15.3748 20.3753 15.3898 20.4864C15.403 20.5948 15.3512 20.6876 15.2345 20.7649C15.1205 20.8403 15.0094 20.8553 14.9012 20.8098C14.7957 20.7625 14.6487 20.5964 14.46 20.3113L13.8941 19.4563C13.7234 19.1984 13.6351 19.0148 13.6291 18.9056C13.6241 18.7918 13.6758 18.699 13.7844 18.6271C13.8957 18.5535 14.005 18.5416 14.1122 18.5916C14.2177 18.6389 14.354 18.7888 14.5211 19.0413Z" fill="black"/>
</g>
<defs>
<clipPath id="clip0_1038_1031">
<rect width="30" height="30" fill="white"/>
</clipPath>
</defs>
</svg>
