<svg width="30" height="30" viewBox="0 0 30 30" xmlns="http://www.w3.org/2000/svg">
<g clip-path="url(#clip0_1046_199)">
<path fill-rule="evenodd" clip-rule="evenodd" d="M26.5482 12.03C27.0186 8.88566 24.6245 7.19532 21.3509 6.06769L22.4128 1.80825L19.8201 1.16209L18.7862 5.30929C18.1046 5.13945 17.4046 4.9792 16.7089 4.82043L17.7502 0.64591L15.1589 -0.000244141L14.0962 4.25773C13.5321 4.12923 12.9782 4.00222 12.4406 3.86856L12.4436 3.85526L8.86794 2.96246L8.17822 5.73169C8.17822 5.73169 10.1019 6.17256 10.0613 6.19988C11.1114 6.46203 11.3012 7.15693 11.2694 7.70782L10.0598 12.5602C10.1322 12.5787 10.226 12.6053 10.3294 12.6466L10.2415 12.6247C10.1814 12.6096 10.119 12.594 10.0554 12.5787L8.35988 19.3762C8.23138 19.6953 7.90572 20.1738 7.17169 19.9921C7.19754 20.0298 5.28714 19.5217 5.28714 19.5217L4 22.4896L7.37403 23.3307C7.75084 23.4251 8.12313 23.5222 8.49154 23.6183C8.73664 23.6822 8.98055 23.7458 9.2224 23.8078L8.14942 28.1159L10.7392 28.7621L11.8018 24.4997C12.5093 24.6917 13.1961 24.8689 13.8681 25.0358L12.8091 29.2783L15.4018 29.9244L16.4748 25.6244C20.896 26.461 24.2206 26.1236 25.6199 22.1248C26.7476 18.9051 25.5638 17.0479 23.2377 15.8368C24.9317 15.4462 26.2078 14.3318 26.5482 12.03ZM20.6242 20.337C19.8892 23.2909 15.2655 22.0697 13.1499 21.5109C12.9597 21.4607 12.7894 21.4157 12.6444 21.3797L14.0682 15.6721C14.2448 15.7162 14.4607 15.7646 14.7052 15.8195C16.8933 16.3105 21.3775 17.3167 20.6242 20.337ZM15.1448 13.1708C14.9845 13.128 14.8414 13.0898 14.7195 13.0594L16.0103 7.88283C16.1583 7.91972 16.3396 7.95984 16.545 8.00531C18.3712 8.40959 22.1106 9.2374 21.4262 11.9835C20.756 14.6683 16.9087 13.6415 15.1448 13.1708Z" fill="black"/>
</g>
<defs>
<clipPath id="clip0_1046_199">
<rect width="30" height="30" fill="white"/>
</clipPath>
</defs>
</svg>
