<svg width="31" height="30" viewBox="0 0 31 30" xmlns="http://www.w3.org/2000/svg">
<path d="M21.0799 20.0423L21.0828 20.0389L15.2035 15L21.0823 9.96106L21.0794 9.95769C21.2852 9.78125 21.4184 9.5226 21.4184 9.23077C21.4179 9.09233 21.3874 8.95564 21.329 8.83014C21.2705 8.70464 21.1856 8.59331 21.0799 8.50385L21.0828 8.50048L14.352 2.73125L14.3491 2.73462C14.1809 2.59038 13.965 2.5 13.7261 2.5C13.471 2.5 13.2265 2.6013 13.0461 2.78163C12.8658 2.96195 12.7645 3.20652 12.7645 3.46154V12.9091L7.62125 8.50048L7.61837 8.50385C7.4501 8.35962 7.23423 8.26923 6.99529 8.26923C6.74028 8.26923 6.4957 8.37054 6.31538 8.55086C6.13506 8.73118 6.03375 8.97575 6.03375 9.23077C6.03375 9.5226 6.16693 9.78125 6.37221 9.95769L6.36933 9.96106L12.2487 15L6.36933 20.0389L6.37221 20.0423C6.26656 20.1318 6.18159 20.2431 6.12315 20.3686C6.06472 20.4941 6.03422 20.6308 6.03375 20.7692C6.03375 21.0242 6.13506 21.2688 6.31538 21.4491C6.4957 21.6295 6.74028 21.7308 6.99529 21.7308C7.23423 21.7308 7.4501 21.6404 7.61837 21.4962L7.62125 21.4995L12.7645 17.0909V26.5385C12.7645 26.7935 12.8658 27.038 13.0461 27.2184C13.2265 27.3987 13.471 27.5 13.7261 27.5C13.965 27.5 14.1809 27.4096 14.3491 27.2654L14.352 27.2687L21.0828 21.4995L21.0799 21.4962C21.1856 21.4067 21.2705 21.2954 21.329 21.1699C21.3874 21.0444 21.4179 20.9077 21.4184 20.7692C21.4179 20.6308 21.3874 20.4941 21.329 20.3686C21.2705 20.2431 21.1856 20.1318 21.0799 20.0423ZM18.9794 20.7692L14.6876 24.4476V17.0909L18.9794 20.7692ZM14.6876 12.9091V5.5524L18.9794 9.23077L14.6876 12.9091Z" fill="black"/>
<rect x="19.7794" y="16.6704" width="6.19101" height="1.46631" rx="0.733154" transform="rotate(-45 19.7794 16.6704)" fill="black"/>
<rect x="20.8162" y="12.293" width="6.19101" height="1.46631" rx="0.733154" transform="rotate(45 20.8162 12.293)" fill="black"/>
</svg>
