<svg width="31" height="30" viewBox="0 0 31 30" xmlns="http://www.w3.org/2000/svg">
<path d="M22.9677 20.0423L22.9706 20.0389L17.0913 15L22.9701 9.96106L22.9672 9.95769C23.173 9.78125 23.3062 9.5226 23.3062 9.23077C23.3057 9.09233 23.2752 8.95564 23.2168 8.83014C23.1583 8.70464 23.0733 8.59331 22.9677 8.50385L22.9706 8.50048L16.2398 2.73125L16.2369 2.73462C16.0687 2.59038 15.8528 2.5 15.6138 2.5C15.3588 2.5 15.1143 2.6013 14.9339 2.78163C14.7536 2.96195 14.6523 3.20652 14.6523 3.46154V12.9091L9.50904 8.50048L9.50615 8.50385C9.33789 8.35962 9.12202 8.26923 8.88308 8.26923C8.62806 8.26923 8.38349 8.37054 8.20317 8.55086C8.02284 8.73118 7.92154 8.97575 7.92154 9.23077C7.92154 9.5226 8.05471 9.78125 8.26 9.95769L8.25712 9.96106L14.1364 15L8.25712 20.0389L8.26 20.0423C8.15435 20.1318 8.06937 20.2431 8.01094 20.3686C7.9525 20.4941 7.922 20.6308 7.92154 20.7692C7.92154 21.0242 8.02284 21.2688 8.20317 21.4491C8.38349 21.6295 8.62806 21.7308 8.88308 21.7308C9.12202 21.7308 9.33789 21.6404 9.50615 21.4962L9.50904 21.4995L14.6523 17.0909V26.5385C14.6523 26.7935 14.7536 27.038 14.9339 27.2184C15.1143 27.3987 15.3588 27.5 15.6138 27.5C15.8528 27.5 16.0687 27.4096 16.2369 27.2654L16.2398 27.2687L22.9706 21.4995L22.9677 21.4962C23.0733 21.4067 23.1583 21.2954 23.2168 21.1699C23.2752 21.0444 23.3057 20.9077 23.3062 20.7692C23.3057 20.6308 23.2752 20.4941 23.2168 20.3686C23.1583 20.2431 23.0733 20.1318 22.9677 20.0423ZM20.8672 20.7692L16.5754 24.4476V17.0909L20.8672 20.7692ZM16.5754 12.9091V5.5524L20.8672 9.23077L16.5754 12.9091Z" fill="black"/>
</svg>
