<svg width="30" height="30" viewBox="0 0 30 30" xmlns="http://www.w3.org/2000/svg">
<path d="M14 6C14 5.44772 14.4477 5 15 5C15.5523 5 16 5.44772 16 6V24C16 24.5523 15.5523 25 15 25C14.4477 25 14 24.5523 14 24V6Z" fill="black"/>
<path d="M8 10C8 9.44771 8.44771 9 9 9C9.55229 9 10 9.44772 10 10V20C10 20.5523 9.55229 21 9 21C8.44771 21 8 20.5523 8 20V10Z" fill="black"/>
<path d="M21 9C20.4477 9 20 9.44771 20 10V20C20 20.5523 20.4477 21 21 21C21.5523 21 22 20.5523 22 20V10C22 9.44772 21.5523 9 21 9Z" fill="black"/>
<path d="M26 12C26 11.4477 26.4477 11 27 11C27.5523 11 28 11.4477 28 12V18C28 18.5523 27.5523 19 27 19C26.4477 19 26 18.5523 26 18V12Z" fill="black"/>
<path d="M3 11C2.44772 11 2 11.4477 2 12V18C2 18.5523 2.44772 19 3 19C3.55228 19 4 18.5523 4 18V12C4 11.4477 3.55228 11 3 11Z" fill="black"/>
</svg>
