<svg width="30" height="30" viewBox="0 0 30 30"  xmlns="http://www.w3.org/2000/svg">
<path d="M1 15C1 14.1418 1.69573 13.446 2.55396 13.446H27.446C28.3043 13.446 29 14.1418 29 15C29 15.8582 28.3043 16.554 27.446 16.554H2.55396C1.69573 16.554 1 15.8582 1 15Z" fill="black"/>
<path d="M4 10.5C4 9.11929 5.11929 8 6.5 8C7.88071 8 9 9.11929 9 10.5V19.5C9 20.8807 7.88071 22 6.5 22C5.11929 22 4 20.8807 4 19.5V10.5Z" fill="black"/>
<path d="M20.949 10.5C20.949 9.11929 22.0683 8 23.449 8C24.8297 8 25.949 9.11929 25.949 10.5V19.5C25.949 20.8807 24.8297 22 23.449 22C22.0683 22 20.949 20.8807 20.949 19.5V10.5Z" fill="black"/>
</svg>
