<svg width="30" height="30" viewBox="0 0 30 30" xmlns="http://www.w3.org/2000/svg">
<path d="M22.1896 6.60861C21.2192 6.60925 20.2791 6.94609 19.529 7.5618C18.779 8.17751 18.2655 9.03407 18.0758 9.98574C17.8861 10.9374 18.032 11.9254 18.4887 12.7816C18.9453 13.6378 19.6846 14.3094 20.5805 14.682C20.3675 15.1926 20.0079 15.6286 19.5472 15.935C19.0865 16.2413 18.5453 16.4042 17.992 16.403H12.3952C11.4088 16.4071 10.4419 16.6779 9.59682 17.1866V9.15515C10.5304 8.82509 11.3172 8.17562 11.8182 7.32153C12.3193 6.46744 12.5022 5.46373 12.3348 4.48779C12.1673 3.51186 11.6603 2.62653 10.9032 1.9883C10.1461 1.35007 9.18781 1.00001 8.19761 1.00001C7.20742 1.00001 6.2491 1.35007 5.49203 1.9883C4.73497 2.62653 4.2279 3.51186 4.06046 4.48779C3.89302 5.46373 4.07597 6.46744 4.577 7.32153C5.07802 8.17562 5.86485 8.82509 6.79841 9.15515V20.8525C5.87632 21.1841 5.0993 21.8278 4.60202 22.6722C4.10473 23.5165 3.91851 24.5083 4.07563 25.4755C4.23276 26.4427 4.72332 27.3245 5.46231 27.968C6.2013 28.6115 7.14214 28.9762 8.12178 28.9989C9.10143 29.0216 10.0581 28.7008 10.8261 28.0922C11.5941 27.4835 12.1249 26.6254 12.3266 25.6665C12.5283 24.7076 12.3882 23.7083 11.9305 22.8418C11.4728 21.9754 10.7264 21.2964 9.82069 20.9224C10.0328 20.414 10.3902 19.9795 10.8482 19.6733C11.3062 19.3672 11.8443 19.203 12.3952 19.2014H17.992C19.2721 19.2012 20.5133 18.7621 21.5089 17.9576C22.5044 17.153 23.1941 16.0314 23.4629 14.7799C24.3984 14.4621 25.1918 13.8244 25.7034 12.9792C26.215 12.134 26.4121 11.1354 26.26 10.1592C26.1079 9.183 25.6163 8.29173 24.8718 7.64226C24.1272 6.9928 23.1775 6.62677 22.1896 6.60861ZM8.19761 3.81021C8.38138 3.81018 8.56335 3.84635 8.73313 3.91665C8.90291 3.98696 9.05719 4.09002 9.18714 4.21995C9.31709 4.34988 9.42017 4.50413 9.4905 4.67391C9.56083 4.84368 9.59703 5.02564 9.59703 5.20941C9.59703 5.39317 9.56083 5.57513 9.4905 5.74491C9.42017 5.91468 9.31709 6.06894 9.18714 6.19887C9.05719 6.3288 8.90291 6.43186 8.73313 6.50216C8.56335 6.57247 8.38138 6.60864 8.19761 6.60861C7.82656 6.60855 7.47072 6.46111 7.20837 6.19872C6.94601 5.93632 6.79863 5.58046 6.79863 5.20941C6.79863 4.83835 6.94601 4.48249 7.20837 4.2201C7.47072 3.9577 7.82656 3.81026 8.19761 3.81021ZM8.19761 26.1974C8.01385 26.1974 7.83188 26.1613 7.6621 26.091C7.49231 26.0207 7.33804 25.9176 7.20809 25.7877C7.07814 25.6577 6.97506 25.5035 6.90473 25.3337C6.8344 25.1639 6.7982 24.982 6.7982 24.7982C6.7982 24.6145 6.8344 24.4325 6.90473 24.2627C6.97506 24.0929 7.07814 23.9387 7.20809 23.8088C7.33804 23.6788 7.49231 23.5758 7.6621 23.5055C7.83188 23.4352 8.01385 23.399 8.19761 23.399C8.56867 23.3991 8.9245 23.5465 9.18686 23.8089C9.44921 24.0713 9.5966 24.4272 9.5966 24.7982C9.5966 25.1693 9.44921 25.5251 9.18686 25.7875C8.9245 26.0499 8.56867 26.1974 8.19761 26.1974ZM22.1896 12.2054C21.8185 12.2054 21.4626 12.058 21.2002 11.7956C20.9378 11.5332 20.7904 11.1773 20.7904 10.8062C20.7904 10.4351 20.9378 10.0792 21.2002 9.81682C21.4626 9.55442 21.8185 9.40701 22.1896 9.40701C22.5607 9.40701 22.9166 9.55442 23.179 9.81682C23.4414 10.0792 23.5888 10.4351 23.5888 10.8062C23.5888 11.1773 23.4414 11.5332 23.179 11.7956C22.9166 12.058 22.5607 12.2054 22.1896 12.2054Z" fill="black"/>
</svg>
