<svg width="30" height="30" viewBox="0 0 30 30" xmlns="http://www.w3.org/2000/svg">
<path d="M28.6713 8.59576L16.3042 2.41223C15.4798 1.86259 14.5179 1.86259 13.6934 2.41223L1.32635 8.59576C1.32635 8.73317 1.18894 8.87058 1.05153 8.87058C0.914118 9.42023 1.05153 9.96987 1.46376 10.1073L5.86094 12.3059L2.15082 14.2296C1.73859 14.5045 1.46376 14.9167 1.46376 15.3289C1.46376 15.7412 1.73859 16.2908 2.15082 16.4282L5.31129 18.0772L2.15082 19.7261C1.73859 20.0009 1.46376 20.4132 1.46376 20.8254C1.46376 21.2376 1.73859 21.7873 2.15082 21.9247L13.6934 27.696C14.1056 27.9708 14.5179 28.1082 14.9301 28.1082C15.3423 28.1082 15.892 27.9708 16.3042 27.696L27.8468 21.9247C28.259 21.6499 28.5339 21.2376 28.5339 20.8254C28.5339 20.4132 28.259 19.8635 27.8468 19.7261L24.6863 18.0772L27.8468 16.4282C28.259 16.1534 28.5339 15.7412 28.5339 15.3289C28.5339 14.9167 28.259 14.367 27.8468 14.2296L24.2741 12.3059L28.6713 10.1073C28.8087 9.96987 28.9461 9.96987 28.9461 9.83246C29.0835 9.28282 28.9461 8.73317 28.6713 8.59576ZM26.0604 20.8254L15.4798 26.1844C15.2049 26.3219 14.9301 26.3219 14.6553 26.1844L4.07459 20.8254L7.50988 19.039L13.8308 22.1995C14.243 22.4743 14.6553 22.6117 15.0675 22.6117C15.4798 22.6117 16.0294 22.4743 16.4416 22.1995L22.7626 19.039L26.0604 20.8254ZM26.0604 15.3289L22.6252 17.1153L20.564 18.0772L15.3423 20.688C15.0675 20.8254 14.7927 20.8254 14.5179 20.688L9.29623 18.0772L7.23505 17.1153L3.79976 15.3289L7.92211 13.2678L13.8308 16.2908C14.6553 16.8405 15.6172 16.8405 16.4416 16.2908L22.3503 13.2678L26.0604 15.3289Z" fill="black"/>
</svg>
