<svg width="30" height="30" viewBox="0 0 30 30" xmlns="http://www.w3.org/2000/svg">
<path d="M8.25 11.875V20.25C8.25 21.3993 8.55244 22.4988 9.11891 23.4658C9.67398 24.4125 10.4625 25.201 11.4092 25.7561C12.3762 26.3226 13.4756 26.625 14.625 26.625C15.7743 26.625 16.8738 26.3226 17.8408 25.7561C18.7875 25.201 19.576 24.4125 20.1311 23.4658C20.6976 22.4988 21 21.3994 21 20.25V11.875H8.25ZM23.375 17.25V20.25C23.375 20.4532 23.3681 20.6548 23.3544 20.8546C25.4978 21.7699 27 23.897 27 26.375C27 26.4413 26.9737 26.5049 26.9268 26.5518C26.8799 26.5987 26.8163 26.625 26.75 26.625H25C24.9337 26.625 24.8701 26.5987 24.8232 26.5518C24.7763 26.5049 24.75 26.4413 24.75 26.375C24.75 24.9925 24.0019 23.7847 22.8884 23.1345C22.7026 23.6668 22.4654 24.1798 22.1804 24.6663C21.4197 25.9639 20.3389 27.0447 19.0413 27.8053C17.745 28.5648 16.2358 29 14.625 29C13.0142 29 11.505 28.5647 10.2087 27.8054C8.91112 27.0447 7.83032 25.9639 7.06966 24.6663C6.78459 24.1798 6.54746 23.6668 6.36159 23.1345C5.24813 23.7848 4.5 24.9925 4.5 26.375C4.5 26.4413 4.47366 26.5049 4.42678 26.5518C4.37989 26.5987 4.3163 26.625 4.25 26.625H2.5C2.4337 26.625 2.37011 26.5987 2.32322 26.5518C2.27634 26.5049 2.25 26.4413 2.25 26.375C2.25 23.897 3.75219 21.7699 5.89556 20.8546C5.88184 20.6533 5.87499 20.4517 5.875 20.25V17.25H1.25C1.1837 17.25 1.12011 17.2237 1.07322 17.1768C1.02634 17.1299 1 17.0663 1 17V15.25C1 15.1837 1.02634 15.1201 1.07322 15.0732C1.12011 15.0263 1.1837 15 1.25 15H5.875V11.875C3.476 11.875 1.53125 9.93025 1.53125 7.53125C1.53125 7.46495 1.55759 7.40136 1.60447 7.35447C1.65136 7.30759 1.71495 7.28125 1.78125 7.28125H3.65625C3.72255 7.28125 3.78614 7.30759 3.83303 7.35447C3.87991 7.40136 3.90625 7.46495 3.90625 7.53125C3.90625 8.61856 4.78769 9.5 5.875 9.5H23.375C24.4623 9.5 25.3438 8.61856 25.3438 7.53125C25.3438 7.46495 25.3701 7.40136 25.417 7.35447C25.4639 7.30759 25.5274 7.28125 25.5938 7.28125H27.4688C27.5351 7.28125 27.5986 7.30759 27.6455 7.35447C27.6924 7.40136 27.7188 7.46495 27.7188 7.53125C27.7188 9.93025 25.774 11.875 23.375 11.875V15H28C28.0663 15 28.1299 15.0263 28.1768 15.0732C28.2237 15.1201 28.25 15.1837 28.25 15.25V17C28.25 17.0663 28.2237 17.1299 28.1768 17.1768C28.1299 17.2237 28.0663 17.25 28 17.25H23.375ZM10.125 7.5C10.125 7.5663 10.0987 7.62989 10.0518 7.67678C10.0049 7.72366 9.9413 7.75 9.875 7.75H8.125C8.0587 7.75 7.99511 7.72366 7.94822 7.67678C7.90134 7.62989 7.875 7.5663 7.875 7.5C7.875 6.24878 8.14934 5.10169 8.68437 4.12288C9.22297 3.13769 10.0127 2.34797 10.9979 1.80941C11.9767 1.27434 13.1238 1 14.375 1H14.875C16.1262 1 17.2733 1.27434 18.2521 1.80938C19.2373 2.34797 20.027 3.13769 20.5656 4.12288C21.1007 5.10169 21.375 6.24881 21.375 7.5C21.375 7.5663 21.3487 7.62989 21.3018 7.67678C21.2549 7.72366 21.1913 7.75 21.125 7.75H19.375C19.3087 7.75 19.2451 7.72366 19.1982 7.67678C19.1513 7.62989 19.125 7.5663 19.125 7.5C19.125 6.61481 18.9394 5.83894 18.5913 5.20216C18.2593 4.59475 17.7803 4.11569 17.1728 3.78366C16.5361 3.43553 15.7602 3.25 14.875 3.25H14.375C13.4898 3.25 12.7139 3.43556 12.0772 3.78366C11.4697 4.11569 10.9907 4.59475 10.6587 5.20216C10.3105 5.83894 10.125 6.61481 10.125 7.5Z" fill="black"/>
</svg>
