<svg width="31" height="31" viewBox="0 0 31 31"  xmlns="http://www.w3.org/2000/svg">
<path d="M27.4512 3.4599C28.0479 3.4599 28.554 3.6549 28.9695 4.0449C29.385 4.4349 29.5928 4.9099 29.5928 5.4699V6.9999C29.5928 7.5599 29.385 8.0349 28.9695 8.4249C28.554 8.8149 28.0479 9.0099 27.4512 9.0099H3.73433C3.13767 9.0099 2.63159 8.8149 2.21606 8.4249C1.80054 8.0349 1.59277 7.5599 1.59277 6.9999V5.4699C1.59277 4.9099 1.80054 4.4349 2.21606 4.0449C2.63159 3.6549 3.13767 3.4599 3.73433 3.4599H27.4512ZM27.4512 12.8499C28.0479 12.8499 28.554 13.0449 28.9695 13.4349C29.385 13.8249 29.5928 14.2999 29.5928 14.8599V16.3899C29.5928 16.9499 29.385 17.4249 28.9695 17.8149C28.554 18.2049 28.0479 18.3999 27.4512 18.3999H3.73433C3.13767 18.3999 2.63159 18.2049 2.21606 17.8149C1.80054 17.4249 1.59277 16.9499 1.59277 16.3899V14.8599C1.59277 14.2999 1.80054 13.8249 2.21606 13.4349C2.63159 13.0449 3.13767 12.8499 3.73433 12.8499H27.4512ZM27.4512 22.2399C28.0479 22.2399 28.554 22.4349 28.9695 22.8249C29.385 23.2149 29.5928 23.6899 29.5928 24.2499V25.7799C29.5928 26.3399 29.385 26.8149 28.9695 27.2049C28.554 27.5949 28.0479 27.7899 27.4512 27.7899H3.73433C3.13767 27.7899 2.63159 27.5949 2.21606 27.2049C1.80054 26.8149 1.59277 26.3399 1.59277 25.7799V24.2499C1.59277 23.6899 1.80054 23.2149 2.21606 22.8249C2.63159 22.4349 3.13767 22.2399 3.73433 22.2399H27.4512Z" fill="black"/>
</svg>
