<svg width="31" height="30" viewBox="0 0 31 30" xmlns="http://www.w3.org/2000/svg">
<path d="M6.84906 1.00001H9.98651V29H6.84906V1.00001Z" fill="black"/>
<path d="M11.2307 1H12.2332V29H11.2307V1Z" fill="black"/>
<path d="M18.1324 1.60601C14.7055 1.60599 13.6774 3.35311 13.6774 4.76373C13.7322 5.58538 14.3882 6.81252 15.5867 6.74649C16.8697 6.6758 17.4226 5.85284 17.4226 5.10644C17.4226 4.55669 17.1288 3.85804 16.7617 3.68669C16.3945 3.51535 16.1007 2.6586 16.7617 2.53621C17.4226 2.41382 19.1361 2.12008 20.4334 3.68669C21.299 5.10644 21.078 9.20248 20.7516 11.1771C20.6211 11.7564 19.9585 12.8955 18.3527 12.8171C16.747 12.7388 15.802 10.1982 15.549 8.95801C14.9616 11.8954 13.2368 14.2532 12.429 15.0447H15.5867L16.7617 13.2577C16.7127 13.4617 17.1582 13.8697 19.3319 13.8697C22.9133 13.8697 24.7667 10.7908 24.5947 7.60323C24.3889 3.78747 22.8329 1.60603 18.1324 1.60601Z" fill="black"/>
<path d="M17.9366 28.4378C14.5096 28.4378 13.4816 26.6908 13.4816 25.2803C13.5363 24.4587 14.1924 23.2316 15.3909 23.2977C16.6739 23.3683 17.2267 24.1912 17.2267 24.9376C17.2267 25.4873 16.933 26.1859 16.5658 26.3573C16.1986 26.5286 15.9049 27.3853 16.5658 27.5077C17.2267 27.6301 18.9402 27.9238 20.2376 26.3573C21.1032 24.9376 20.8822 20.8418 20.5558 18.8673C20.4252 18.2881 19.7627 17.1491 18.1569 17.2274C16.5511 17.3057 15.6061 19.8461 15.3532 21.0863C14.7657 18.1491 13.0409 15.7914 12.2332 15H15.3909L16.5658 16.7868C16.5169 16.5828 16.9624 16.1749 19.1361 16.1749C22.7175 16.1749 24.5708 19.2536 24.3989 22.441C24.1931 26.2565 22.6371 28.4378 17.9366 28.4378Z" fill="black"/>
</svg>
