<svg width="30" height="30" viewBox="0 0 30 30" xmlns="http://www.w3.org/2000/svg">
<path d="M12.746 6.28191H8.63732V2.1766C8.63758 2.02221 8.60741 1.86929 8.54852 1.72658C8.48964 1.58387 8.40321 1.45416 8.29416 1.34487C8.18512 1.23559 8.0556 1.14887 7.91301 1.08968C7.77043 1.03049 7.61757 0.999983 7.46319 0.999908C7.3088 0.999983 7.15593 1.0305 7.01334 1.08971C6.87076 1.14893 6.74124 1.23567 6.63222 1.34499C6.52319 1.45431 6.43679 1.58405 6.37795 1.7268C6.31912 1.86954 6.28901 2.02249 6.28935 2.17688V6.28476H2.17862C1.86637 6.28468 1.56687 6.40863 1.34599 6.62935C1.12512 6.85007 1.00095 7.14948 1.0008 7.46173C1.00039 7.61668 1.03052 7.77018 1.08947 7.91348C1.14842 8.05677 1.23503 8.18705 1.34435 8.29685C1.45314 8.40674 1.58257 8.49404 1.72521 8.55373C1.86784 8.61342 2.02087 8.64433 2.17549 8.64468H6.28935V12.7469C6.28935 13.0719 6.41829 13.3662 6.6312 13.5786C6.74009 13.688 6.86957 13.7748 7.01217 13.834C7.15477 13.8931 7.30767 13.9235 7.46205 13.9233C7.61647 13.9232 7.76938 13.8928 7.91202 13.8336C8.05467 13.7745 8.18427 13.6878 8.29341 13.5786C8.40255 13.4693 8.4891 13.3396 8.5481 13.1969C8.60711 13.0542 8.63743 12.9013 8.63732 12.7469V8.6444H12.746C13.3959 8.6444 13.9227 8.11298 13.9225 7.46315C13.9222 6.81361 13.3953 6.28191 12.746 6.28191Z" fill="black"/>
<path d="M13.1145 22.1076H1.80763C1.36163 22.1076 0.999939 22.4693 0.999939 22.9153V23.723C0.999939 24.169 1.36163 24.5307 1.80763 24.5307H13.1145C13.5605 24.5307 13.9222 24.169 13.9222 23.723V22.9153C13.9222 22.4693 13.5605 22.1076 13.1145 22.1076Z" fill="black"/>
<path d="M25.9631 2.98208L23.0578 5.88739L20.1549 2.98449C20.0459 2.87514 19.9165 2.78834 19.7739 2.72907C19.6314 2.66979 19.4785 2.63919 19.3241 2.63902C19.1698 2.63885 19.0168 2.66912 18.8742 2.72809C18.7315 2.78705 18.6018 2.87357 18.4926 2.98268C18.3835 3.09191 18.297 3.22158 18.238 3.36427C18.1791 3.50696 18.1488 3.65988 18.149 3.81428C18.1493 3.96867 18.1799 4.12151 18.2392 4.26405C18.2986 4.40658 18.3854 4.53602 18.4948 4.64496L21.3995 7.54966L18.4928 10.4564C18.272 10.6771 18.1478 10.9766 18.1477 11.2888C18.1476 11.6011 18.2715 11.9006 18.4922 12.1215C18.6015 12.2313 18.7313 12.3186 18.8744 12.3782C19.0174 12.4379 19.1707 12.4687 19.3257 12.4691C19.4803 12.4698 19.6335 12.4401 19.7766 12.3814C19.9197 12.3228 20.0497 12.2364 20.1593 12.1273L23.0683 9.21838L25.9689 12.1191C26.1988 12.3489 26.4981 12.4658 26.7988 12.4654C26.9532 12.4658 27.1061 12.4356 27.2488 12.3766C27.3914 12.3176 27.521 12.231 27.63 12.1217C27.7392 12.0125 27.8258 11.8828 27.8848 11.7401C27.9438 11.5974 27.9742 11.4445 27.9741 11.2901C27.974 11.1356 27.9435 10.9828 27.8844 10.8401C27.8252 10.6975 27.7385 10.5679 27.6292 10.4588L24.7283 7.55792L27.6336 4.6526C28.0931 4.19311 28.0899 3.44479 27.6302 2.9855C27.1707 2.5264 26.4222 2.52298 25.9631 2.98208Z" fill="black"/>
<path d="M28.3206 22.1076H17.6177C17.2421 22.1076 16.9384 22.4816 16.9384 22.9442V23.692C16.9384 24.1546 17.2421 24.5285 17.6177 24.5285H28.3206C28.6963 24.5285 28.9999 24.1546 28.9999 23.692V22.9442C29.003 22.4816 28.6963 22.1076 28.3206 22.1076Z" fill="black"/>
<path d="M21.6769 19.0924C21.6768 19.2621 21.7103 19.4302 21.7752 19.587C21.8401 19.7438 21.9353 19.8863 22.0553 20.0063C22.1753 20.1263 22.3178 20.2215 22.4746 20.2865C22.6314 20.3514 22.7994 20.3848 22.9692 20.3848C23.1389 20.3848 23.3069 20.3514 23.4637 20.2865C23.6205 20.2215 23.763 20.1263 23.883 20.0063C24.003 19.8863 24.0982 19.7438 24.1631 19.587C24.2281 19.4302 24.2615 19.2621 24.2615 19.0924C24.2615 18.9227 24.2281 18.7546 24.1631 18.5978C24.0982 18.441 24.003 18.2985 23.883 18.1785C23.763 18.0585 23.6205 17.9633 23.4637 17.8983C23.3069 17.8334 23.1389 17.7999 22.9692 17.7999C22.7994 17.7999 22.6314 17.8334 22.4746 17.8983C22.3178 17.9633 22.1753 18.0585 22.0553 18.1785C21.9353 18.2985 21.8401 18.441 21.7752 18.5978C21.7103 18.7546 21.6768 18.9227 21.6769 19.0924Z" fill="black"/>
<path d="M21.6769 27.7078C21.6768 27.8775 21.7103 28.0456 21.7752 28.2024C21.8401 28.3592 21.9353 28.5016 22.0553 28.6217C22.1753 28.7417 22.3178 28.8369 22.4746 28.9018C22.6314 28.9668 22.7994 29.0002 22.9692 29.0002C23.1389 29.0002 23.3069 28.9668 23.4637 28.9018C23.6205 28.8369 23.763 28.7417 23.883 28.6217C24.003 28.5016 24.0982 28.3592 24.1631 28.2024C24.2281 28.0456 24.2615 27.8775 24.2615 27.7078C24.2615 27.538 24.2281 27.37 24.1631 27.2132C24.0982 27.0564 24.003 26.9139 23.883 26.7939C23.763 26.6739 23.6205 26.5787 23.4637 26.5137C23.3069 26.4487 23.1389 26.4153 22.9692 26.4153C22.7994 26.4153 22.6314 26.4487 22.4746 26.5137C22.3178 26.5787 22.1753 26.6739 22.0553 26.7939C21.9353 26.9139 21.8401 27.0564 21.7752 27.2132C21.7103 27.37 21.6768 27.538 21.6769 27.7078Z" fill="black"/>
</svg>
