<svg width="30" height="31" viewBox="0 0 30 31" xmlns="http://www.w3.org/2000/svg">
<path d="M9.99907 25.4547C8.89614 25.4547 8.00284 26.348 8.00284 27.4509C8.00284 28.5538 8.89614 29.4471 9.99907 29.4471C11.102 29.4471 11.9953 28.5538 11.9953 27.4509C11.9953 26.348 11.102 25.4547 9.99907 25.4547ZM23.9726 25.4547C22.8697 25.4547 21.9764 26.348 21.9764 27.4509C21.9764 28.5538 22.8697 29.4471 23.9726 29.4471C25.0756 29.4471 25.9689 28.5538 25.9689 27.4509C25.9689 26.348 25.0756 25.4547 23.9726 25.4547ZM25.9529 24.4566H9.74057C8.30228 24.4566 7.03767 23.3187 6.86201 21.8664L5.1692 9.94897L4.20601 4.37951C4.14612 3.89342 3.70297 3.49618 3.26978 3.49618H1.99817C1.44722 3.49618 1.00006 3.04902 1.00006 2.49807C1.00006 1.94712 1.44722 1.49995 1.99817 1.49995H3.26978C4.72601 1.49995 6.0046 2.63781 6.18128 4.09007L7.14245 9.63857L8.84224 21.607C8.89813 22.0701 9.31735 22.4603 9.74054 22.4603H25.9529C26.5048 22.4603 26.951 22.9065 26.951 23.4584C26.951 24.0104 26.5049 24.4566 25.9529 24.4566ZM10.9882 20.4641C10.4702 20.4641 10.032 20.0648 9.99407 19.5389C9.95315 18.9889 10.3664 18.5108 10.9153 18.4709L24.4557 17.4728C24.9528 17.4698 25.372 17.0795 25.4269 16.6354L26.9989 7.64036C27.0389 7.30499 26.946 6.93768 26.7454 6.71011C26.6167 6.56438 26.455 6.49052 26.2663 6.49052H8.98496C8.43401 6.49052 7.98685 6.04336 7.98685 5.49241C7.98685 4.94146 8.43401 4.49429 8.98496 4.49429H26.2663C27.0289 4.49429 27.7295 4.81069 28.2396 5.3866C28.8225 6.04435 29.09 6.97162 28.9732 7.93278L27.4002 16.9288C27.2305 18.3281 25.9669 19.466 24.5286 19.466L11.0621 20.4611C11.0371 20.4631 11.0121 20.4641 10.9882 20.4641Z" fill="black"/>
</svg>
