<svg width="31" height="30" viewBox="0 0 31 30" xmlns="http://www.w3.org/2000/svg">
<path fill-rule="evenodd" clip-rule="evenodd" d="M2.375 7.2085C1.82272 7.2085 1.375 7.65621 1.375 8.2085V21.7913C1.375 22.3435 1.82271 22.7913 2.375 22.7913H28.375C28.9273 22.7913 29.375 22.3435 29.375 21.7913V8.2085C29.375 7.65621 28.9273 7.2085 28.375 7.2085H2.375ZM3.47959 8.97466C3.25868 8.97466 3.07959 9.15375 3.07959 9.37466V20.6252C3.07959 20.8461 3.25867 21.0252 3.47959 21.0252H27.2705C27.4914 21.0252 27.6705 20.8461 27.6705 20.6252V9.37466C27.6705 9.15375 27.4914 8.97466 27.2705 8.97466H3.47959Z" fill="black"/>
<path fill-rule="evenodd" clip-rule="evenodd" d="M15.375 10.0386C12.6349 10.0386 10.4136 12.2599 10.4136 15C10.4136 17.7401 12.6349 19.9614 15.375 19.9614C18.1151 19.9614 20.3364 17.7401 20.3364 15C20.3364 12.2599 18.1151 10.0386 15.375 10.0386ZM15.375 11.7529C13.5817 11.7529 12.1279 13.2067 12.1279 15C12.1279 16.7934 13.5817 18.2472 15.375 18.2472C17.1684 18.2472 18.6222 16.7934 18.6222 15C18.6222 13.2067 17.1684 11.7529 15.375 11.7529Z" fill="black"/>
<path d="M22.0042 19.0969C22.0042 18.6195 22.3912 18.2324 22.8687 18.2324H25.5406C26.0181 18.2324 26.4052 18.6195 26.4052 19.0969C26.4052 19.5744 26.0181 19.9614 25.5406 19.9614H22.8687C22.3912 19.9614 22.0042 19.5744 22.0042 19.0969Z" fill="black"/>
<path d="M4.3374 10.9031C4.3374 10.4256 4.72445 10.0386 5.2019 10.0386H7.8739C8.35135 10.0386 8.7384 10.4256 8.7384 10.9031C8.7384 11.3805 8.35135 11.7676 7.8739 11.7676H5.2019C4.72445 11.7676 4.3374 11.3805 4.3374 10.9031Z" fill="black"/>
</svg>
