<svg width="31" height="30" viewBox="0 0 31 30" xmlns="http://www.w3.org/2000/svg">
<path d="M24.6104 4.43778C24.6104 2.53913 23.0713 1 21.1727 1H10.0551C8.15644 1 6.61731 2.53913 6.61731 4.43778V25.5622C6.61731 27.4609 8.15644 29 10.0551 29H21.1727C23.0713 29 24.6104 27.4609 24.6104 25.5622V4.43778ZM8.24593 6.86691L22.8108 6.86691V22.447H8.24593V6.86691ZM10.0551 2.76765H21.1712C22.3794 2.76765 22.8109 3.22954 22.8109 4.43778V5.13669L8.24596 5.13669V4.43778C8.24593 3.22958 8.84685 2.76765 10.0551 2.76765ZM21.1727 27.4069H10.0566C8.84836 27.4069 8.24593 26.7689 8.24593 25.5607V24.1882H22.8108V25.5607C22.8108 26.7689 22.3809 27.4069 21.1727 27.4069Z" fill="black"/>
</svg>
