<svg width="30" height="30" viewBox="0 0 30 30" xmlns="http://www.w3.org/2000/svg">
<path d="M14.954 1.004C17.4531 0.982673 19.8009 1.6071 21.9974 2.87728C24.4124 4.27275 26.2451 6.20934 27.4953 8.68706L15.9057 8.0773C14.2396 7.984 12.7089 8.37185 11.3134 9.24085C9.91797 10.1099 8.955 11.3047 8.42454 12.8255L4.11418 6.20201C5.44701 4.54664 7.06639 3.26847 8.97233 2.36748C10.8783 1.46649 12.8722 1.01066 14.954 1V1.004ZM3.2865 7.32958L8.55049 17.6856C9.30087 19.1744 10.3991 20.304 11.8452 21.0743C13.2913 21.8447 14.8168 22.0793 16.4215 21.7781L12.8289 28.8214C10.6217 28.4775 8.61713 27.6578 6.81515 26.3623C5.01317 25.0668 3.59438 23.4214 2.55878 21.4262C1.52317 19.431 1.00537 17.2884 1.00537 14.9987C1.00537 12.2184 1.76575 9.66202 3.2865 7.32958ZM28.057 9.96857C28.6608 11.5306 28.9707 13.1474 28.9867 14.8187C29.0027 16.4901 28.7501 18.0835 28.229 19.5989C27.7078 21.1143 26.9115 22.5304 25.8399 23.8473C24.7683 25.1641 23.4874 26.255 21.9974 27.12C19.6023 28.5048 17.0093 29.1246 14.2183 28.9793L20.5439 19.249C21.4609 17.8855 21.8907 16.3728 21.8334 14.7108C21.7761 13.0487 21.2216 11.6039 20.17 10.3764L28.057 9.96857ZM15 10.2825C16.3022 10.2825 17.4138 10.7429 18.3347 11.6639C19.2557 12.5849 19.7162 13.6965 19.7162 14.9987C19.7162 16.3008 19.2557 17.4124 18.3347 18.3334C17.4138 19.2544 16.3022 19.7148 15 19.7148C13.6979 19.7148 12.5863 19.2544 11.6653 18.3334C10.7443 17.4124 10.2838 16.3008 10.2838 14.9987C10.2838 13.6965 10.7443 12.5849 11.6653 11.6639C12.5863 10.7429 13.6979 10.2825 15 10.2825Z" fill="black"/>
</svg>
