<svg width="30" height="30" viewBox="0 0 30 30"  xmlns="http://www.w3.org/2000/svg">
<path d="M15.0043 12.7158L8.90702 18.8397L7 17.1603L15.0043 9.16031L23 17.1609L21.1136 18.8397L15.0043 12.7158Z" fill="black"/>
<path fill-rule="evenodd" clip-rule="evenodd" d="M15 1C7.26801 1 1 7.26801 1 15C1 22.732 7.26801 29 15 29C22.732 29 29 22.732 29 15C29 7.26801 22.732 1 15 1ZM15 3.55664C21.32 3.55664 26.4434 8.68001 26.4434 15C26.4434 21.32 21.32 26.4434 15 26.4434C8.68001 26.4434 3.55664 21.32 3.55664 15C3.55664 8.68001 8.68001 3.55664 15 3.55664Z" fill="black"/>
</svg>
