<svg width="31" height="30" viewBox="0 0 31 30" fill="none" xmlns="http://www.w3.org/2000/svg">
<path d="M25.8774 2.9248C27.9914 2.9248 29.7274 4.6608 29.7274 6.7748V23.2248C29.7274 25.3388 27.9914 27.0748 25.8774 27.0748H5.57742C3.46342 27.0748 1.72742 25.3388 1.72742 23.2248V6.7748C1.72742 4.6608 3.46342 2.9248 5.57742 2.9248H25.8774ZM25.8774 5.0248H5.57742C4.59882 5.0248 3.82742 5.7962 3.82742 6.7748V13.6065H6.80522C6.86765 13.5959 6.9309 13.591 6.99422 13.5918C7.04537 13.593 7.09638 13.5979 7.14682 13.6065H10.3052C10.3676 13.5959 10.4309 13.591 10.4942 13.5918C10.5454 13.593 10.5964 13.5979 10.6468 13.6065H17.3052C17.3676 13.5959 17.4309 13.591 17.4942 13.5918C17.5454 13.593 17.5964 13.5979 17.6468 13.6065H20.8052C20.8676 13.5959 20.9309 13.591 20.9942 13.5918C21.0454 13.593 21.0964 13.5979 21.1468 13.6065H24.3052C24.3676 13.5959 24.4309 13.591 24.4942 13.5918C24.5454 13.593 24.5964 13.5979 24.6468 13.6065H27.6274V6.7748C27.6274 5.7962 26.856 5.0248 25.8774 5.0248ZM27.6274 15.7065H25.5274V20.2565C25.5274 20.535 25.4168 20.8021 25.2199 20.999C25.023 21.1959 24.7559 21.3065 24.4774 21.3065C24.1989 21.3065 23.9319 21.1959 23.735 20.999C23.538 20.8021 23.4274 20.535 23.4274 20.2565V15.7065H22.0274V20.2565C22.0274 20.535 21.9168 20.8021 21.7199 20.999C21.523 21.1959 21.2559 21.3065 20.9774 21.3065C20.6989 21.3065 20.4319 21.1959 20.235 20.999C20.038 20.8021 19.9274 20.535 19.9274 20.2565V15.7065H18.5274V20.2565C18.5274 20.535 18.4168 20.8021 18.2199 20.999C18.023 21.1959 17.7559 21.3065 17.4774 21.3065C17.1989 21.3065 16.9319 21.1959 16.735 20.999C16.538 20.8021 16.4274 20.535 16.4274 20.2565V15.7065H11.5274V20.2565C11.5274 20.535 11.4168 20.8021 11.2199 20.999C11.023 21.1959 10.7559 21.3065 10.4774 21.3065C10.1989 21.3065 9.93187 21.1959 9.73495 20.999C9.53804 20.8021 9.42742 20.535 9.42742 20.2565V15.7065H8.02742V20.2565C8.02742 20.535 7.91679 20.8021 7.71988 20.999C7.52297 21.1959 7.25589 21.3065 6.97742 21.3065C6.69894 21.3065 6.43187 21.1959 6.23496 20.999C6.03804 20.8021 5.92742 20.535 5.92742 20.2565V15.7065H3.82742V23.2248C3.82742 24.2034 4.59882 24.9748 5.57742 24.9748H25.8774C26.1078 24.9769 26.3363 24.933 26.5495 24.8458C26.7628 24.7586 26.9565 24.6297 27.1194 24.4668C27.2823 24.3039 27.4112 24.1102 27.4984 23.8969C27.5856 23.6837 27.6295 23.4552 27.6274 23.2248V15.7065Z" fill="black"/>
<rect x="6.08411" y="7.89502" width="14.358" height="2.69775" rx="1.34888" fill="black"/>
<rect x="22.7921" y="7.89502" width="2.7" height="2.69775" rx="1.34888" fill="black"/>
</svg>
