<svg width="31" height="30" viewBox="0 0 31 30" fill="none" xmlns="http://www.w3.org/2000/svg">
<path d="M25.8774 2.92505C27.9914 2.92505 29.7274 4.66105 29.7274 6.77505V23.225C29.7274 25.339 27.9914 27.075 25.8774 27.075H5.57742C3.46342 27.075 1.72742 25.339 1.72742 23.225V6.77505C1.72742 4.66105 3.46342 2.92505 5.57742 2.92505H25.8774ZM25.8774 5.02505H5.57742C4.59882 5.02505 3.82742 5.79645 3.82742 6.77505V15.525H6.80522C6.86765 15.5145 6.9309 15.5095 6.99422 15.5103C7.04537 15.5115 7.09638 15.5164 7.14682 15.525H10.3052C10.3676 15.5145 10.4309 15.5095 10.4942 15.5103C10.5454 15.5115 10.5964 15.5164 10.6468 15.525H17.3052C17.3676 15.5145 17.4309 15.5095 17.4942 15.5103C17.5454 15.5115 17.5964 15.5164 17.6468 15.525H20.8052C20.8676 15.5145 20.9309 15.5095 20.9942 15.5103C21.0454 15.5115 21.0964 15.5164 21.1468 15.525H24.3052C24.3676 15.5145 24.4309 15.5095 24.4942 15.5103C24.5454 15.5115 24.5964 15.5164 24.6468 15.525H27.6274V6.77505C27.6274 5.79645 26.856 5.02505 25.8774 5.02505ZM27.6274 17.625H25.5274V22.175C25.5274 22.4535 25.4168 22.7206 25.2199 22.9175C25.023 23.1144 24.7559 23.225 24.4774 23.225C24.1989 23.225 23.9319 23.1144 23.735 22.9175C23.538 22.7206 23.4274 22.4535 23.4274 22.175V17.625H22.0274V22.175C22.0274 22.4535 21.9168 22.7206 21.7199 22.9175C21.523 23.1144 21.2559 23.225 20.9774 23.225C20.6989 23.225 20.4319 23.1144 20.235 22.9175C20.038 22.7206 19.9274 22.4535 19.9274 22.175V17.625H18.5274V22.175C18.5274 22.4535 18.4168 22.7206 18.2199 22.9175C18.023 23.1144 17.7559 23.225 17.4774 23.225C17.1989 23.225 16.9319 23.1144 16.735 22.9175C16.538 22.7206 16.4274 22.4535 16.4274 22.175V17.625H11.5274V22.175C11.5274 22.4535 11.4168 22.7206 11.2199 22.9175C11.023 23.1144 10.7559 23.225 10.4774 23.225C10.1989 23.225 9.93187 23.1144 9.73495 22.9175C9.53804 22.7206 9.42742 22.4535 9.42742 22.175V17.625H8.02742V22.175C8.02742 22.4535 7.91679 22.7206 7.71988 22.9175C7.52297 23.1144 7.25589 23.225 6.97742 23.225C6.69894 23.225 6.43187 23.1144 6.23496 22.9175C6.03804 22.7206 5.92742 22.4535 5.92742 22.175V17.625H3.82742V23.225C3.82742 24.2036 4.59882 24.975 5.57742 24.975H25.8774C26.1078 24.9771 26.3363 24.9332 26.5495 24.846C26.7628 24.7588 26.9565 24.63 27.1194 24.4671C27.2823 24.3042 27.4112 24.1104 27.4984 23.8972C27.5856 23.6839 27.6295 23.4554 27.6274 23.225V17.625Z" fill="black"/>
</svg>
