<svg width="31" height="31" viewBox="0 0 31 31"  xmlns="http://www.w3.org/2000/svg">
<path d="M15.5928 28.7498C8.35527 28.7498 2.46777 22.8623 2.46777 15.6248C2.46777 8.38732 8.35527 2.49982 15.5928 2.49982C22.8303 2.49982 28.7178 8.38732 28.7178 15.6248C28.7178 22.8623 22.8303 28.7498 15.5928 28.7498ZM15.5928 4.38325C9.39402 4.38325 4.35121 9.42607 4.35121 15.6248C4.35121 21.8226 9.39402 26.8664 15.5928 26.8664C21.7906 26.8664 26.8343 21.8226 26.8343 15.6248C26.8343 9.42607 21.7906 4.38325 15.5928 4.38325Z" fill="black"/>
<path d="M16.9126 15.6651L20.9664 11.6555C21.3348 11.2917 21.3376 10.6983 20.9739 10.3298C20.6101 9.9614 20.0157 9.95859 19.6482 10.3223L15.5888 14.3367L11.5913 10.327C11.2248 9.96046 10.6323 9.95859 10.2657 10.3251C9.89916 10.6908 9.89822 11.2842 10.2638 11.6508L14.2557 15.6548L10.231 19.6364C9.86259 20.0011 9.85978 20.5936 10.2235 20.962C10.4073 21.1476 10.6482 21.2404 10.8901 21.2404C11.1282 21.2404 11.3663 21.1495 11.5492 20.9695L15.5795 16.9833L19.6426 21.0595C19.8254 21.2433 20.0654 21.3351 20.3064 21.3351C20.5464 21.3351 20.7854 21.2433 20.9682 21.0614C21.3348 20.6958 21.3357 20.1033 20.9701 19.7358L16.9126 15.6651Z" fill="black"/>
</svg>
