<svg width="31" height="30" viewBox="0 0 31 30" xmlns="http://www.w3.org/2000/svg">
<path fill-rule="evenodd" clip-rule="evenodd" d="M15.9768 1C8.24482 1 1.97681 7.26801 1.97681 15C1.97681 22.732 8.24482 29 15.9768 29C23.7088 29 29.9768 22.732 29.9768 15C29.9768 7.26801 23.7088 1 15.9768 1ZM15.9768 3.53662C9.64576 3.53662 4.51343 8.66895 4.51343 15C4.51343 21.331 9.64576 26.4634 15.9768 26.4634C22.3079 26.4634 27.4402 21.331 27.4402 15C27.4402 8.66895 22.3079 3.53662 15.9768 3.53662Z" fill="black"/>
<path d="M14.7787 7.77196C14.7787 7.11025 15.3151 6.57384 15.9768 6.57384C16.6385 6.57384 17.1749 7.11025 17.1749 7.77196V15.5242C17.1749 16.1859 16.6385 16.7223 15.9768 16.7223C15.3151 16.7223 14.7787 16.1859 14.7787 15.5242V7.77196Z" fill="black"/>
<path d="M15.9767 16.8712C15.3151 16.8596 14.7882 16.3139 14.7997 15.6523C14.8113 14.9907 15.357 14.4637 16.0186 14.4753L21.1712 14.5652C21.8328 14.5768 22.3598 15.1225 22.3483 15.7841C22.3367 16.4457 21.791 16.9726 21.1294 16.9611L15.9767 16.8712Z" fill="black"/>
</svg>
