<svg width="30" height="30" viewBox="0 0 30 30" xmlns="http://www.w3.org/2000/svg">
<path d="M27.7862 11.4586C27.7879 11.4666 27.7895 11.4747 27.7907 11.4831C27.7969 11.5281 27.8 11.5746 27.8 11.6219V19.1781C27.8 19.2246 27.7969 19.2711 27.7907 19.3176C27.7896 19.3246 27.7882 19.3317 27.7867 19.339C27.7851 19.347 27.7834 19.3552 27.7822 19.3633C27.7768 19.3936 27.7713 19.423 27.7636 19.4525C27.7607 19.4636 27.7568 19.4745 27.7531 19.4852C27.7508 19.4917 27.7486 19.498 27.7465 19.5044C27.7453 19.5081 27.7441 19.5117 27.7429 19.5154C27.7355 19.5375 27.728 19.5601 27.7194 19.5827C27.7124 19.5997 27.7039 19.6168 27.6954 19.6338C27.6845 19.6579 27.6729 19.6811 27.659 19.7051C27.6528 19.716 27.6459 19.7268 27.639 19.7377C27.6355 19.7431 27.6321 19.7485 27.6287 19.754C27.6148 19.7764 27.6 19.7973 27.5838 19.8183C27.5721 19.8346 27.5597 19.85 27.5473 19.8648C27.5303 19.8841 27.5125 19.9043 27.4939 19.9221L27.4931 19.9229C27.4795 19.9373 27.4665 19.951 27.452 19.964C27.4319 19.9818 27.4117 19.9988 27.3916 20.0151C27.3866 20.0189 27.3818 20.0227 27.3769 20.0264C27.3658 20.035 27.3549 20.0435 27.3435 20.0515C27.3404 20.0535 27.3375 20.0558 27.3346 20.0581C27.3317 20.0605 27.3288 20.0628 27.3257 20.0647L15.9913 27.621C15.8123 27.7403 15.6061 27.8 15.4 27.8C15.1938 27.8 14.9877 27.7403 14.8087 27.621L3.47507 20.0647C3.47198 20.0628 3.46907 20.0605 3.46616 20.0581C3.46326 20.0558 3.46035 20.0535 3.45725 20.0515C3.4402 20.0399 3.4247 20.0275 3.4092 20.0151C3.38827 19.9988 3.36813 19.9818 3.34875 19.964C3.33402 19.9508 3.32008 19.9368 3.30612 19.9221C3.28752 19.9043 3.2697 19.8841 3.25342 19.8648C3.24025 19.85 3.22785 19.8346 3.21622 19.8183C3.20073 19.7973 3.186 19.7764 3.17205 19.754C3.1612 19.7377 3.15113 19.7214 3.14105 19.7051C3.12788 19.6811 3.11625 19.6579 3.10462 19.6338C3.10204 19.6281 3.09937 19.6225 3.09671 19.6168C3.09137 19.6054 3.08603 19.594 3.08138 19.5827C3.0716 19.5589 3.06372 19.5352 3.05602 19.5121L3.05348 19.5044C3.05185 19.4993 3.05015 19.4942 3.04845 19.489C3.04447 19.477 3.04045 19.465 3.0372 19.4525C3.02945 19.423 3.02403 19.3936 3.0186 19.3633C3.01778 19.3593 3.01691 19.3552 3.01604 19.3511C3.01362 19.3397 3.01122 19.3285 3.01007 19.3176C3.00387 19.2711 3 19.2246 3 19.1781V11.6219C3 11.5746 3.00387 11.5281 3.01007 11.4831C3.01122 11.4711 3.01363 11.46 3.01606 11.4487C3.01692 11.4447 3.01779 11.4407 3.0186 11.4367C3.02402 11.4064 3.02945 11.3762 3.0372 11.3475C3.04045 11.335 3.04447 11.323 3.04844 11.311C3.05015 11.3058 3.05185 11.3007 3.05348 11.2956C3.062 11.2692 3.07053 11.2437 3.08138 11.2181C3.08819 11.2007 3.09647 11.1833 3.10407 11.1673L3.10462 11.1662C3.11625 11.1414 3.12788 11.1181 3.14105 11.0956C3.15113 11.0786 3.1612 11.0623 3.17205 11.0461C3.186 11.0236 3.20073 11.0019 3.21622 10.9809C3.22785 10.9654 3.24025 10.95 3.25342 10.9352C3.2697 10.9151 3.28752 10.8957 3.30612 10.8771C3.30891 10.8743 3.3117 10.8715 3.31449 10.8687C3.32568 10.8574 3.33696 10.8459 3.34875 10.836C3.36813 10.8182 3.38827 10.8011 3.4092 10.7849C3.4247 10.7725 3.4402 10.7601 3.45725 10.7484C3.46035 10.7465 3.46326 10.7442 3.46616 10.7419C3.46907 10.7395 3.47198 10.7372 3.47507 10.7353L14.8087 3.17902C15.1675 2.94033 15.6333 2.94033 15.9913 3.17902L27.3257 10.7353C27.3288 10.7372 27.3317 10.7395 27.3346 10.7419C27.3375 10.7442 27.3404 10.7465 27.3435 10.7484C27.3549 10.7565 27.3658 10.765 27.3769 10.7736C27.3818 10.7773 27.3866 10.7811 27.3916 10.7849C27.4117 10.8011 27.4319 10.8182 27.452 10.836C27.4625 10.8449 27.4723 10.8549 27.482 10.865C27.4859 10.869 27.4899 10.8731 27.4939 10.8771C27.5125 10.8957 27.5303 10.9151 27.5473 10.9352C27.5597 10.95 27.5721 10.9654 27.5838 10.9809C27.6 11.0019 27.6148 11.0236 27.6287 11.0461C27.6315 11.0505 27.6343 11.055 27.6372 11.0595C27.6447 11.0714 27.6522 11.0833 27.659 11.0956C27.6729 11.1181 27.6845 11.1414 27.6954 11.1662C27.7039 11.1825 27.7124 11.2003 27.7194 11.2181C27.7295 11.2437 27.738 11.2692 27.7465 11.2956C27.7486 11.302 27.7508 11.3083 27.7531 11.3148C27.7568 11.3255 27.7607 11.3364 27.7636 11.3475C27.7713 11.3762 27.7768 11.4064 27.7822 11.4367C27.7833 11.4441 27.7848 11.4513 27.7862 11.4586ZM14.3343 11.0277V6.05762L5.9845 11.6237L9.71457 14.1184L14.3343 11.0277ZM24.8155 11.6237L16.4656 6.05762V11.0277L21.0862 14.1184L24.8155 11.6237ZM5.13123 13.6172V17.1837L7.798 15.4005L5.13123 13.6172ZM5.9845 19.1766L14.3343 24.7426V19.7725L9.71457 16.6826L5.9845 19.1766ZM15.4 17.9211L19.1696 15.4L15.4 12.8789L11.6312 15.4L15.4 17.9211ZM16.4656 19.7725V24.7426L24.8155 19.1766L21.0862 16.6826L16.4656 19.7725ZM25.6687 17.1837V13.6172L23.0027 15.4005L25.6687 17.1837Z" fill="black"/>
</svg>
