<svg width="30" height="31" viewBox="0 0 30 31"  xmlns="http://www.w3.org/2000/svg">
<path d="M27.7193 18.7176C27.9969 19.0438 28.233 19.3847 28.4278 19.7402C28.8089 20.4353 29 21.1767 29 21.9619C28.888 24.1824 27.5075 25.983 24.8609 27.3635C22.213 28.7428 18.9261 29.455 15 29.5C11.0739 29.455 7.78696 28.7428 5.13913 27.3635C2.49252 25.9817 1.112 24.1824 1 21.9619C1 21.1767 1.196 20.4353 1.58922 19.7402C1.78643 19.3908 2.02139 19.056 2.2953 18.7358C1.49183 17.7802 1.06087 16.7016 1 15.5C1 14.7148 1.196 13.9746 1.58922 13.2783C1.78643 12.9301 2.02139 12.5941 2.2953 12.2739C1.49183 11.3183 1.06087 10.2409 1 9.03809C1.112 6.81757 2.49252 5.01826 5.13913 3.63652C7.78696 2.25722 11.0739 1.54504 15 1.5C18.9261 1.54504 22.213 2.25722 24.8609 3.63652C27.5075 5.01704 28.888 6.81757 29 9.03809C28.9391 10.2323 28.513 11.3049 27.7193 12.2557C27.9969 12.5819 28.233 12.9228 28.4278 13.2783C28.8089 13.9746 29 14.7148 29 15.5C28.9391 16.693 28.513 17.7668 27.7193 18.7176ZM26.1002 20.1614C25.7024 20.433 25.2886 20.6801 24.8609 20.9016C22.213 22.2809 18.9261 22.993 15 23.0381C11.0739 22.993 7.78696 22.2809 5.13913 20.9016C4.71144 20.6801 4.29758 20.433 3.89983 20.1614C3.42139 20.7311 3.17183 21.3301 3.15357 21.9619C3.24365 23.3984 4.39287 24.6426 6.60365 25.6969C8.81322 26.7511 11.612 27.3014 15 27.3464C18.388 27.3014 21.1868 26.7511 23.3963 25.6969C25.6071 24.6426 26.7563 23.3972 26.8464 21.9619C26.8282 21.3313 26.5786 20.7311 26.1002 20.1614ZM3.89983 13.6995C3.42139 14.2692 3.17183 14.8694 3.15357 15.5C3.24365 16.9365 4.39287 18.1807 6.60365 19.2362C8.81322 20.2904 11.612 20.8395 15 20.8845C18.388 20.8395 21.1868 20.2904 23.3963 19.2362C25.6071 18.1807 26.7563 16.9353 26.8464 15.5C26.8282 14.8694 26.5786 14.2704 26.1002 13.6995C25.7024 13.971 25.2886 14.2182 24.8609 14.4397C22.213 15.8202 18.9261 16.5323 15 16.5774C11.0739 16.5323 7.78696 15.8202 5.13913 14.4397C4.71144 14.2182 4.29758 13.971 3.89983 13.6995ZM15 14.4226C18.388 14.3788 21.1868 13.8285 23.3963 12.7743C25.6071 11.72 26.7563 10.4734 26.8464 9.03809C26.7563 7.60157 25.6071 6.35739 23.3963 5.30313C21.1868 4.24887 18.388 3.69861 15 3.65357C11.612 3.69861 8.81322 4.24887 6.60365 5.30313C4.39287 6.35739 3.24365 7.60278 3.15357 9.03809C3.24365 10.4746 4.39287 11.72 6.60365 12.7743C8.81322 13.8285 11.612 14.3788 15 14.4226Z" fill="black"/>
</svg>
