<svg width="30" height="30" viewBox="0 0 30 30" xmlns="http://www.w3.org/2000/svg">
<path d="M27.25 17H19.928C19.2052 19.0352 17.2838 20.5 15 20.5C12.718 20.5 10.7948 19.0352 10.072 17H2.75C2.28587 17 1.84075 16.8156 1.51256 16.4874C1.18437 16.1592 1 15.7141 1 15.25C1 14.7859 1.18437 14.3408 1.51256 14.0126C1.84075 13.6844 2.28587 13.5 2.75 13.5H10.072C10.7948 11.4665 12.718 10 15 10C17.2838 10 19.2052 11.4665 19.928 13.5H27.25C28.2178 13.5 29 14.2822 29 15.25C29 16.2178 28.2178 17 27.25 17ZM15 13.5C14.5359 13.5 14.0908 13.6844 13.7626 14.0126C13.4344 14.3408 13.25 14.7859 13.25 15.25C13.25 15.7141 13.4344 16.1592 13.7626 16.4874C14.0908 16.8156 14.5359 17 15 17C15.9677 17 16.75 16.2178 16.75 15.25C16.75 14.2822 15.9677 13.5 15 13.5Z" fill="black"/>
</svg>
