<svg width="31" height="30" viewBox="0 0 31 30" fill="none" xmlns="http://www.w3.org/2000/svg">
<path d="M22.9055 27.5C20.0337 27.5 17.6972 25.1635 17.6972 22.2917V19.1667H13.5305V22.2917C13.5305 25.1635 11.1941 27.5 8.32219 27.5C5.45032 27.5 3.11386 25.1635 3.11386 22.2917C3.11386 19.4198 5.45032 17.0833 8.32219 17.0833H11.4472V12.9167H8.32219C5.45032 12.9167 3.11386 10.5802 3.11386 7.70833C3.11386 4.83646 5.45032 2.5 8.32219 2.5C11.1941 2.5 13.5305 4.83646 13.5305 7.70833V10.8333H17.6972V7.70833C17.6972 4.83646 20.0337 2.5 22.9055 2.5C25.7774 2.5 28.1139 4.83646 28.1139 7.70833C28.1139 10.5802 25.7774 12.9167 22.9055 12.9167H19.7805V17.0833H22.9055C25.7774 17.0833 28.1139 19.4198 28.1139 22.2917C28.1139 25.1635 25.7774 27.5 22.9055 27.5ZM19.7805 19.1667V22.2917C19.7805 24.0146 21.1826 25.4167 22.9055 25.4167C24.6284 25.4167 26.0305 24.0146 26.0305 22.2917C26.0305 20.5687 24.6284 19.1667 22.9055 19.1667H19.7805ZM8.32219 19.1667C6.59928 19.1667 5.19719 20.5687 5.19719 22.2917C5.19719 24.0146 6.59928 25.4167 8.32219 25.4167C10.0451 25.4167 11.4472 24.0146 11.4472 22.2917V19.1667H8.32219ZM13.5305 17.0833H17.6972V12.9167H13.5305V17.0833ZM19.7805 10.8333H22.9055C24.6284 10.8333 26.0305 9.43125 26.0305 7.70833C26.0305 5.98542 24.6284 4.58333 22.9055 4.58333C21.1826 4.58333 19.7805 5.98542 19.7805 7.70833V10.8333ZM8.32219 4.58333C6.59928 4.58333 5.19719 5.98542 5.19719 7.70833C5.19719 9.43125 6.59928 10.8333 8.32219 10.8333H11.4472V7.70833C11.4472 5.98542 10.0451 4.58333 8.32219 4.58333Z" fill="black"/>
</svg>
