<svg width="31" height="30" viewBox="0 0 31 30" fill="none" xmlns="http://www.w3.org/2000/svg">
<path d="M2.69773 3.16772H28.53C29.0719 3.16772 29.6139 3.70966 29.6139 4.2516V22.858C29.6139 23.4 29.0719 23.9419 28.53 23.9419H16.6074V25.3871H22.5687C22.93 25.3871 23.2913 25.7484 23.2913 26.1097C23.2913 26.471 22.93 26.8322 22.5687 26.8322H8.47838C8.11709 26.8322 7.7558 26.471 7.7558 26.1097C7.7558 25.7484 8.11709 25.3871 8.47838 25.3871H14.4397V23.9419H2.69773C2.1558 23.9419 1.61386 23.4 1.61386 22.858V4.2516C1.61386 3.52902 1.97515 3.16772 2.69773 3.16772ZM6.03662 18.5601C5.49469 18.5601 4.95275 19.102 4.95275 19.644C4.95275 20.1859 5.49469 20.7278 6.03662 20.7278C6.57856 20.7278 7.1205 20.1859 7.1205 19.644C7.1205 18.9214 6.57856 18.5601 6.03662 18.5601ZM27.4461 5.33547H3.7816V21.7742H27.4461V5.33547Z" fill="black"/>
</svg>
