<svg width="30" height="30" viewBox="0 0 30 30" xmlns="http://www.w3.org/2000/svg">
<path d="M2.01537 22.3749C1.72578 22.8664 1.40055 23.4367 1.12433 23.8911C0.87709 24.326 1.00982 24.8868 1.42283 25.1523L7.21457 28.8617C7.41787 28.9923 7.66306 29.0325 7.8951 28.9732C8.12715 28.9139 8.32659 28.7602 8.44865 28.5464C8.68032 28.143 8.97882 27.619 9.30405 27.058C11.5985 23.1168 13.9063 23.599 18.0674 25.667L23.8101 28.5093C24.0276 28.617 24.2778 28.6285 24.5036 28.5412C24.7293 28.4538 24.9115 28.2751 25.0086 28.0456L27.7663 21.5542C27.9612 21.0906 27.7629 20.55 27.3208 20.3394C26.109 19.7459 23.6987 18.5636 21.5291 17.4739C13.7236 13.5281 7.08982 13.7831 2.01537 22.3749Z" fill="black"/>
<path d="M27.9845 7.64495C28.2741 7.15346 28.5993 6.58314 28.8756 6.12875C29.1228 5.69392 28.9901 5.13313 28.5771 4.86756L22.7853 1.1582C22.5804 1.01452 22.3273 0.96589 22.0865 1.02391C21.8458 1.08194 21.639 1.2414 21.5156 1.46422C21.2839 1.86761 20.9854 2.39156 20.6602 2.9526C18.3658 6.8938 16.058 6.41158 11.8969 4.34361L6.17195 1.51522C5.95445 1.40748 5.70431 1.39598 5.47853 1.48333C5.25275 1.57068 5.07057 1.74945 4.97351 1.97889L2.21575 8.47028C2.02091 8.9339 2.21916 9.47449 2.66127 9.6851C3.87308 10.2786 6.28333 11.461 8.45301 12.5506C16.2763 16.4918 22.9101 16.2275 27.9845 7.64495Z" fill="black"/>
</svg>
