<svg width="31" height="30" viewBox="0 0 31 30" xmlns="http://www.w3.org/2000/svg">
<path fill-rule="evenodd" clip-rule="evenodd" d="M15.7867 1C8.0547 1 1.78668 7.26801 1.78668 15C1.78668 22.732 8.0547 29 15.7867 29C23.5187 29 29.7867 22.732 29.7867 15C29.7867 7.26801 23.5187 1 15.7867 1ZM15.7867 3C9.15927 3 3.78668 8.37258 3.78668 15C3.78668 21.6274 9.15927 27 15.7867 27C22.4141 27 27.7867 21.6274 27.7867 15C27.7867 8.37258 22.4141 3 15.7867 3Z" fill="black"/>
<path d="M21.0651 13.4375H18.5765C18.531 13.1155 18.4382 12.8295 18.298 12.5795C18.1579 12.3258 17.978 12.1098 17.7583 11.9318C17.5386 11.7538 17.2848 11.6174 16.9969 11.5227C16.7128 11.428 16.4041 11.3807 16.0708 11.3807C15.4685 11.3807 14.9439 11.5303 14.4969 11.8295C14.0499 12.125 13.7033 12.5568 13.4571 13.125C13.2109 13.6894 13.0878 14.375 13.0878 15.1818C13.0878 16.0114 13.2109 16.7083 13.4571 17.2727C13.7071 17.8371 14.0556 18.2633 14.5026 18.5511C14.9496 18.839 15.4666 18.983 16.0537 18.983C16.3833 18.983 16.6882 18.9394 16.9685 18.8523C17.2526 18.7652 17.5045 18.6383 17.7242 18.4716C17.9439 18.3011 18.1257 18.0947 18.2696 17.8523C18.4174 17.6098 18.5196 17.3333 18.5765 17.0227L21.0651 17.0341C21.0007 17.5682 20.8397 18.0833 20.5821 18.5795C20.3284 19.072 19.9855 19.5133 19.5537 19.9034C19.1257 20.2898 18.6143 20.5966 18.0196 20.8239C17.4287 21.0473 16.7602 21.1591 16.014 21.1591C14.9761 21.1591 14.048 20.9242 13.2299 20.4545C12.4155 19.9848 11.7715 19.3049 11.298 18.4148C10.8283 17.5246 10.5935 16.447 10.5935 15.1818C10.5935 13.9129 10.8321 12.8333 11.3094 11.9432C11.7867 11.053 12.4344 10.375 13.2526 9.90909C14.0708 9.43939 14.9912 9.20455 16.014 9.20455C16.6882 9.20455 17.3132 9.29924 17.889 9.48864C18.4685 9.67803 18.9818 9.95455 19.4287 10.3182C19.8757 10.678 20.2393 11.1193 20.5196 11.642C20.8037 12.1648 20.9855 12.7633 21.0651 13.4375Z" fill="black"/>
</svg>
