<svg width="30" height="31" viewBox="0 0 30 31"  xmlns="http://www.w3.org/2000/svg">
<path d="M20 25.8253H6C4.346 25.8253 3 24.4793 3 22.8253V4.82532C3 3.17132 4.346 1.82532 6 1.82532H20C21.654 1.82532 23 3.17132 23 4.82532V22.8253C23 24.4793 21.654 25.8253 20 25.8253ZM6 3.82532C5.449 3.82532 5 4.27432 5 4.82532V22.8253C5 23.3773 5.449 23.8253 6 23.8253H20C20.552 23.8253 21 23.3773 21 22.8253V4.82532C21 4.27432 20.552 3.82532 20 3.82532H6Z" fill="black"/>
<path d="M24 29.8253H9C8.448 29.8253 8 29.3783 8 28.8253C8 28.2723 8.448 27.8253 9 27.8253H24C24.552 27.8253 25 27.3773 25 26.8253V7.82532C25 7.27332 25.447 6.82532 26 6.82532C26.553 6.82532 27 7.27332 27 7.82532V26.8253C27 28.4793 25.654 29.8253 24 29.8253Z" fill="black"/>
<path d="M16 9.82532H8C7.448 9.82532 7 9.37732 7 8.82532C7 8.27332 7.448 7.82532 8 7.82532H16C16.553 7.82532 17 8.27332 17 8.82532C17 9.37732 16.553 9.82532 16 9.82532Z" fill="black"/>
<path d="M18 14.8253H8.00098C7.44898 14.8253 7.00098 14.3773 7.00098 13.8253C7.00098 13.2733 7.44898 12.8253 8.00098 12.8253H18C18.553 12.8253 19 13.2733 19 13.8253C19 14.3773 18.553 14.8253 18 14.8253Z" fill="black"/>
<path d="M18 19.8253H8C7.448 19.8253 7 19.3783 7 18.8253C7 18.2723 7.448 17.8253 8 17.8253H18C18.553 17.8253 19 18.2723 19 18.8253C19 19.3783 18.553 19.8253 18 19.8253Z" fill="black"/>
</svg>
