<svg width="30" height="31" viewBox="0 0 30 31" xmlns="http://www.w3.org/2000/svg">
<path d="M28.3977 11.5795C28.875 11.5795 29.25 11.9545 29.25 12.4318C29.25 12.9091 28.875 13.2841 28.3977 13.2841C27.1705 13.2841 26.1818 14.2727 26.1818 15.5C26.1818 16.7273 27.1705 17.7159 28.3977 17.7159C28.875 17.7159 29.25 18.0909 29.25 18.5682C29.25 19.0455 28.875 19.4205 28.3977 19.4205C26.25 19.4205 24.4773 17.6477 24.4773 15.5C24.4773 13.3523 26.25 11.5795 28.3977 11.5795Z" fill="black"/>
<path d="M4.26136 4.82954L25.6705 4.82954C27.6477 4.82954 29.25 6.43181 29.25 8.40909L29.25 12.1591C29.25 12.6364 28.875 13.0114 28.3977 13.0114C27.9205 13.0114 27 12.6364 27 12.1591L27 8.40909C27 7.38636 26.6932 7.00004 25.6705 7.00004H15L4.26136 7.00004C3.23863 7.00004 2.5 7.38636 2.5 8.40909L2.5 12.1591C2.5 12.6364 2.01136 13.2841 1.53409 13.2841C1.05682 13.2841 0.681816 12.9091 0.681816 12.4318L0.681816 8.40909C0.681816 6.43181 2.28409 4.82954 4.26136 4.82954ZM1.53409 17.7159C2.01136 17.7159 2.5 18.0909 2.5 18.5682V22.5C2.5 23.5228 3.23863 24 4.26136 24L25.6705 24C26.6932 24 27 23.6136 27 22.5909V18.5682C27 18.0909 27.9205 17.7159 28.3977 17.7159C28.875 17.7159 29.25 18.0909 29.25 18.5682V22.5909C29.25 24.5682 27.6477 26.1705 25.6705 26.1705L4.26136 26.1705C2.28409 26.1705 0.681816 24.5682 0.681816 22.5909V18.5682C0.681816 18.0909 1.05682 17.7159 1.53409 17.7159Z" fill="black"/>
<path d="M1.53407 11.5795C3.6818 11.5795 5.45453 13.3523 5.45453 15.5C5.45453 17.6477 3.6818 19.4205 1.53407 19.4205C1.05679 19.4205 0.681789 19.0455 0.681789 18.5682C0.681789 18.0909 1.05679 17.7159 1.53407 17.7159C2.76134 17.7159 3.74998 16.7273 3.74998 15.5C3.74998 14.2727 2.76134 13.2841 1.53407 13.2841C1.05679 13.2841 0.681789 12.9091 0.681789 12.4318C0.681789 11.9545 1.05679 11.5795 1.53407 11.5795Z" fill="black"/>
<path d="M18.6021 5.06807C19.1621 5.06807 19.6021 5.44307 19.6021 5.92034V10.7272C19.6021 11.2044 19.1621 11.5794 18.6021 11.5794C18.0421 11.5794 17.6021 11.2044 17.6021 10.7272L17.6021 5.92034C17.6021 5.44307 18.0421 5.06807 18.6021 5.06807ZM18.6021 13.0453C19.1621 13.0453 19.6021 13.4203 19.6021 13.8976V17.0681C19.6021 17.5453 19.1621 17.9203 18.6021 17.9203C18.0421 17.9203 17.6021 17.5453 17.6021 17.0681V13.8976C17.6021 13.4203 18.0421 13.0453 18.6021 13.0453ZM18.6021 19.4203C19.1621 19.4203 19.6021 19.7953 19.6021 20.2726V25.0113C19.6021 25.4885 19.1621 25.8635 18.6021 25.8635C18.0421 25.8635 17.6021 25.4885 17.6021 25.0113V20.2726C17.6021 19.7953 18.0421 19.4203 18.6021 19.4203Z" fill="black"/>
</svg>
