<svg width="31" height="31" viewBox="0 0 31 31" fill="none" xmlns="http://www.w3.org/2000/svg">
<path fill-rule="evenodd" clip-rule="evenodd" d="M8.8528 7.57077C8.30051 7.57077 7.8528 8.01849 7.8528 8.57077V22.8193C7.8528 23.3716 8.30051 23.8193 8.8528 23.8193H23.1013C23.6536 23.8193 24.1013 23.3716 24.1013 22.8193V8.57077C24.1013 8.01849 23.6536 7.57077 23.1013 7.57077H8.8528ZM10.9675 9.68552C10.4153 9.68552 9.96754 10.1332 9.96754 10.6855V20.7046C9.96754 21.2568 10.4153 21.7046 10.9675 21.7046H20.9866C21.5389 21.7046 21.9866 21.2568 21.9866 20.7046V10.6855C21.9866 10.1332 21.5389 9.68552 20.9866 9.68552H10.9675Z" fill="black"/>
<path d="M14.9038 24.1255C14.9038 23.5732 15.3515 23.1255 15.9038 23.1255H16.0503C16.6026 23.1255 17.0503 23.5732 17.0503 24.1255V26.6841C17.0503 27.2363 16.6026 27.6841 16.0503 27.6841H15.9038C15.3515 27.6841 14.9038 27.2363 14.9038 26.6841V24.1255Z" fill="black"/>
<path d="M19.84 24.1255C19.84 23.5732 20.2877 23.1255 20.84 23.1255H20.9865C21.5388 23.1255 21.9865 23.5732 21.9865 24.1255V26.6841C21.9865 27.2363 21.5388 27.6841 20.9865 27.6841H20.84C20.2877 27.6841 19.84 27.2363 19.84 26.6841V24.1255Z" fill="black"/>
<path d="M9.9673 24.1255C9.9673 23.5732 10.415 23.1255 10.9673 23.1255H11.1138C11.6661 23.1255 12.1138 23.5732 12.1138 24.1255V26.6841C12.1138 27.2363 11.6661 27.6841 11.1138 27.6841H10.9673C10.415 27.6841 9.9673 27.2363 9.9673 26.6841V24.1255Z" fill="black"/>
<path d="M14.9038 4.79053C14.9038 4.23824 15.3515 3.79053 15.9038 3.79053H16.0503C16.6026 3.79053 17.0503 4.23824 17.0503 4.79053V7.34912C17.0503 7.90141 16.6026 8.34912 16.0503 8.34912H15.9038C15.3515 8.34912 14.9038 7.90141 14.9038 7.34912V4.79053Z" fill="black"/>
<path d="M19.8401 4.79053C19.8401 4.23824 20.2878 3.79053 20.8401 3.79053H20.9866C21.5389 3.79053 21.9866 4.23824 21.9866 4.79053V7.34912C21.9866 7.90141 21.5389 8.34912 20.9866 8.34912H20.8401C20.2878 8.34912 19.8401 7.90141 19.8401 7.34912V4.79053Z" fill="black"/>
<path d="M9.9673 4.79053C9.9673 4.23824 10.415 3.79053 10.9673 3.79053H11.1138C11.6661 3.79053 12.1138 4.23824 12.1138 4.79053V7.34912C12.1138 7.90141 11.6661 8.34912 11.1138 8.34912H10.9673C10.415 8.34912 9.9673 7.90141 9.9673 7.34912V4.79053Z" fill="black"/>
<path d="M5.08313 16.768C4.53085 16.768 4.08313 16.3203 4.08313 15.768V15.6216C4.08313 15.0693 4.53085 14.6216 5.08313 14.6216H7.64172C8.19401 14.6216 8.64172 15.0693 8.64172 15.6216V15.768C8.64172 16.3203 8.19401 16.768 7.64172 16.768H5.08313Z" fill="black"/>
<path d="M5.08313 11.8318C4.53085 11.8318 4.08313 11.384 4.08313 10.8318V10.6853C4.08313 10.133 4.53085 9.68527 5.08313 9.68527H7.64172C8.19401 9.68527 8.64172 10.133 8.64172 10.6853V10.8318C8.64172 11.384 8.19401 11.8318 7.64172 11.8318H5.08313Z" fill="black"/>
<path d="M5.08313 21.7046C4.53085 21.7046 4.08313 21.2568 4.08313 20.7046V20.5581C4.08313 20.0058 4.53085 19.5581 5.08313 19.5581H7.64172C8.19401 19.5581 8.64172 20.0058 8.64172 20.5581V20.7046C8.64172 21.2568 8.19401 21.7046 7.64172 21.7046H5.08313Z" fill="black"/>
<path d="M24.3123 16.768C23.76 16.768 23.3123 16.3203 23.3123 15.768V15.6216C23.3123 15.0693 23.76 14.6216 24.3123 14.6216H26.8709C27.4232 14.6216 27.8709 15.0693 27.8709 15.6216V15.768C27.8709 16.3203 27.4232 16.768 26.8709 16.768H24.3123Z" fill="black"/>
<path d="M24.3123 11.8318C23.76 11.8318 23.3123 11.384 23.3123 10.8318V10.6853C23.3123 10.133 23.76 9.68527 24.3123 9.68527H26.8709C27.4232 9.68527 27.8709 10.133 27.8709 10.6853V10.8318C27.8709 11.384 27.4232 11.8318 26.8709 11.8318H24.3123Z" fill="black"/>
<path d="M24.3123 21.7046C23.76 21.7046 23.3123 21.2568 23.3123 20.7046V20.5581C23.3123 20.0058 23.76 19.5581 24.3123 19.5581H26.8709C27.4232 19.5581 27.8709 20.0058 27.8709 20.5581V20.7046C27.8709 21.2568 27.4232 21.7046 26.8709 21.7046H24.3123Z" fill="black"/>
</svg>
