<svg width="30" height="30" viewBox="0 0 30 30" xmlns="http://www.w3.org/2000/svg">
<g clip-path="url(#clip0_1038_954)">
<path d="M13.6 2.4C13.6 3.24 13.04 3.8 12.2 3.8H5.2C4.36 3.8 3.8 4.36 3.8 5.2L3.8 24.8C3.8 25.64 4.36 26.2 5.2 26.2H24.8C25.64 26.2 26.2 25.64 26.2 24.8V17.8C26.2 16.96 26.76 16.4 27.6 16.4C28.44 16.4 29 16.96 29 17.8V26.2C29 27.74 27.74 29 26.2 29H3.8C2.26 29 1 27.74 1 26.2L1 3.8C1 2.26 2.26 1 3.8 1H12.2C13.04 1 13.6 1.56 13.6 2.4Z" fill="black"/>
<path d="M22.5 10.5V1.5C22.5 0.6 23.1 0 24 0C24.9 0 25.5 0.6 25.5 1.5V10.5C25.5 11.4 24.9 12 24 12C23.1 12 22.5 11.4 22.5 10.5ZM18 6C18 5.1 18.6 4.5 19.5 4.5L28.5 4.5C29.4 4.5 30 5.1 30 6C30 6.9 29.4 7.5 28.5 7.5L19.5 7.5C18.6 7.5 18 6.9 18 6Z" fill="black"/>
</g>
<defs>
<clipPath id="clip0_1038_954">
<rect width="30" height="30" fill="white" transform="matrix(0 -1 1 0 0 30)"/>
</clipPath>
</defs>
</svg>
