<svg width="31" height="31" viewBox="0 0 31 31"  xmlns="http://www.w3.org/2000/svg">
<path d="M10.5928 15.6249C10.5928 16.2815 10.7221 16.9317 10.9734 17.5383C11.2246 18.1449 11.5929 18.6961 12.0572 19.1604C12.5215 19.6247 13.0727 19.993 13.6794 20.2443C14.286 20.4955 14.9362 20.6249 15.5928 20.6249C16.2494 20.6249 16.8996 20.4955 17.5062 20.2443C18.1128 19.993 18.664 19.6247 19.1283 19.1604C19.5926 18.6961 19.9609 18.1449 20.2122 17.5383C20.4634 16.9317 20.5928 16.2815 20.5928 15.6249C20.5928 14.2988 20.066 13.027 19.1283 12.0893C18.1906 11.1517 16.9189 10.6249 15.5928 10.6249C14.2667 10.6249 12.9949 11.1517 12.0572 12.0893C11.1196 13.027 10.5928 14.2988 10.5928 15.6249Z" fill="black"/>
<path d="M16.9928 4.52148V1.62488H14.1928V4.52148C11.7292 4.83603 9.43973 5.95952 7.68357 7.71568C5.92741 9.47183 4.80393 11.7613 4.48937 14.2249H1.59277V17.0249H4.48937C4.80347 19.4886 5.9268 21.7784 7.68305 23.5346C9.43929 25.2908 11.729 26.4142 14.1928 26.7283V29.6249H16.9928V26.7283C19.4566 26.4144 21.7465 25.2912 23.5028 23.5349C25.259 21.7786 26.3823 19.4887 26.6962 17.0249H29.5928V14.2249H26.6962C26.3821 11.7611 25.2587 9.4714 23.5025 7.71515C21.7463 5.95891 19.4565 4.83557 16.9928 4.52148ZM15.5928 24.0249C10.9602 24.0249 7.19277 20.2575 7.19277 15.6249C7.19277 10.9923 10.9602 7.22488 15.5928 7.22488C20.2254 7.22488 23.9928 10.9923 23.9928 15.6249C23.9928 20.2575 20.2254 24.0249 15.5928 24.0249Z" fill="black"/>
</svg>
