<svg width="31" height="30" viewBox="0 0 31 30" xmlns="http://www.w3.org/2000/svg">
<g clip-path="url(#clip0_1085_73)">
<path fill-rule="evenodd" clip-rule="evenodd" d="M15.7867 2.5C22.8677 2.5 28.6697 8.2315 28.7852 15.286L28.7867 15.5L28.7867 25.5C28.7867 26.0304 28.576 26.5391 28.2009 26.9142C27.8258 27.2893 27.3171 27.5 26.7867 27.5H22.7867C21.991 27.5 21.228 27.1839 20.6654 26.6213C20.1028 26.0587 19.7867 25.2956 19.7867 24.5V20C19.7867 19.2044 20.1028 18.4413 20.6654 17.8787C21.228 17.3161 21.991 17 22.7867 17H26.7867L26.7867 15.5C26.7867 9.4525 21.8342 4.5 15.7867 4.5C9.79968 4.5 4.88568 9.3535 4.78818 15.319L4.78668 15.5V17H8.78668C9.58233 17 10.3454 17.3161 10.908 17.8787C11.4706 18.4413 11.7867 19.2044 11.7867 20V24.5C11.7867 25.2956 11.4706 26.0587 10.908 26.6213C10.3454 27.1839 9.58233 27.5 8.78668 27.5H4.78668C4.25625 27.5 3.74754 27.2893 3.37247 26.9142C2.9974 26.5391 2.78668 26.0304 2.78668 25.5V15.5C2.78668 8.3475 8.63418 2.5 15.7867 2.5ZM26.7867 25.5H22.7867C22.5215 25.5 22.2671 25.3946 22.0796 25.2071C21.892 25.0196 21.7867 24.7652 21.7867 24.5V20C21.7867 19.8687 21.8125 19.7386 21.8628 19.6173C21.9131 19.496 21.9867 19.3858 22.0796 19.2929C22.1724 19.2 22.2827 19.1264 22.404 19.0761C22.5253 19.0259 22.6554 19 22.7867 19H26.7867V25.5ZM4.78668 19H8.78668C8.918 19 9.04804 19.0259 9.16937 19.0761C9.29069 19.1264 9.40093 19.2 9.49379 19.2929C9.58665 19.3858 9.66031 19.496 9.71056 19.6173C9.76082 19.7386 9.78668 19.8687 9.78668 20V24.5C9.78668 24.7652 9.68133 25.0196 9.49379 25.2071C9.30625 25.3946 9.0519 25.5 8.78668 25.5H4.78668V19Z" fill="black"/>
<path d="M21.3312 8.661C21.1747 8.559 20.9877 8.5 20.7867 8.5C20.5769 8.50003 20.3724 8.56605 20.2022 8.68871C20.032 8.81137 19.9047 8.98445 19.8383 9.18346C19.7719 9.38247 19.7697 9.59732 19.8322 9.79761C19.8946 9.9979 20.0185 10.1735 20.1862 10.2995L20.3242 10.407C21.7767 11.5695 22.5717 13.394 22.5732 15.514L24.5732 15.513L24.5712 15.3095C24.5162 12.605 23.4047 10.215 21.3872 8.7005L21.3312 8.661Z" fill="black"/>
</g>
<defs>
<clipPath id="clip0_1085_73">
<rect width="30" height="30" fill="white" transform="translate(0.786682)"/>
</clipPath>
</defs>
</svg>
