<svg width="31" height="30" viewBox="0 0 31 30" xmlns="http://www.w3.org/2000/svg">
<path d="M14.2114 14.9428L10.7645 19.6597C9.85844 18.9556 8.72455 18.6106 7.57995 18.6906C6.43535 18.7707 5.36051 19.2701 4.56126 20.0933C3.76201 20.9166 3.29455 22.0057 3.2484 23.1522C3.20225 24.2987 3.58066 25.4219 4.31115 26.3067C5.04164 27.1915 6.07286 27.7757 7.20733 27.9475C8.34179 28.1192 9.49974 27.8665 10.4594 27.2375C11.4191 26.6086 12.113 25.6478 12.4083 24.5391C12.7036 23.4303 12.5795 22.2516 12.0598 21.2287L15.4322 16.6142L18.8037 21.2287C18.2841 22.2514 18.1601 23.4299 18.4554 24.5384C18.7507 25.647 19.4445 26.6076 20.404 27.2364C21.3635 27.8651 22.5213 28.1179 23.6555 27.9461C24.7897 27.7744 25.8208 27.1902 26.5511 26.3056C27.2815 25.421 27.6598 24.298 27.6137 23.1517C27.5676 22.0055 27.1002 20.9165 26.3011 20.0935C25.502 19.2704 24.4274 18.771 23.283 18.6909C22.1387 18.6109 21.005 18.9558 20.0991 19.6597L7.48953 2.40414C7.16832 1.96458 6.55155 1.86872 6.11208 2.19006C5.67279 2.51128 5.57699 3.12775 5.89809 3.56713L14.2114 14.9428ZM10.5932 23.3385C10.5932 24.0515 10.31 24.7354 9.80574 25.2396C9.30152 25.7438 8.61766 26.0271 7.90459 26.0271C7.19152 26.0271 6.50766 25.7438 6.00344 25.2396C5.49922 24.7354 5.21596 24.0515 5.21596 23.3385C5.21596 22.6254 5.49922 21.9415 6.00344 21.4373C6.50766 20.9331 7.19152 20.6498 7.90459 20.6498C8.61766 20.6498 9.30152 20.9331 9.80574 21.4373C10.31 21.9415 10.5932 22.6254 10.5932 23.3385ZM25.6484 23.3385C25.6484 24.0515 25.3651 24.7354 24.8609 25.2396C24.3567 25.7438 23.6729 26.0271 22.9598 26.0271C22.2467 26.0271 21.5628 25.7438 21.0586 25.2396C20.5544 24.7354 20.2712 24.0515 20.2712 23.3385C20.2712 22.6254 20.5544 21.9415 21.0586 21.4373C21.5628 20.9331 22.2467 20.6498 22.9598 20.6498C23.6729 20.6498 24.3567 20.9331 24.8609 21.4373C25.3651 21.9415 25.6484 22.6254 25.6484 23.3385Z" fill="black"/>
<path d="M17.5411 13.7285L16.3203 12.0571L23.3748 2.40412C23.696 1.96457 24.3128 1.86872 24.7523 2.19007C25.1916 2.51128 25.2874 3.12775 24.9663 3.56715L17.5411 13.7285Z" fill="black"/>
</svg>
