<svg width="30" height="30" viewBox="0 0 30 30" xmlns="http://www.w3.org/2000/svg">
<path d="M13.8333 5.66667V10.3333C13.8333 10.6428 13.7104 10.9395 13.4916 11.1583C13.2728 11.3771 12.9761 11.5 12.6667 11.5H5.66667C5.35725 11.5 5.0605 11.3771 4.84171 11.1583C4.62292 10.9395 4.5 10.6428 4.5 10.3333V5.66667C4.5 5.35725 4.62292 5.0605 4.84171 4.84171C5.0605 4.62292 5.35725 4.5 5.66667 4.5H12.6667C12.9761 4.5 13.2728 4.62292 13.4916 4.84171C13.7104 5.0605 13.8333 5.35725 13.8333 5.66667ZM12.6667 13.8333H5.66667C5.35725 13.8333 5.0605 13.9562 4.84171 14.175C4.62292 14.3938 4.5 14.6906 4.5 15V24.3333C4.5 24.6428 4.62292 24.9395 4.84171 25.1583C5.0605 25.3771 5.35725 25.5 5.66667 25.5H12.6667C12.9761 25.5 13.2728 25.3771 13.4916 25.1583C13.7104 24.9395 13.8333 24.6428 13.8333 24.3333V15C13.8333 14.6906 13.7104 14.3938 13.4916 14.175C13.2728 13.9562 12.9761 13.8333 12.6667 13.8333ZM24.3333 18.5H17.3333C17.0239 18.5 16.7272 18.6229 16.5084 18.8417C16.2896 19.0605 16.1667 19.3572 16.1667 19.6667V24.3333C16.1667 24.6428 16.2896 24.9395 16.5084 25.1583C16.7272 25.3771 17.0239 25.5 17.3333 25.5H24.3333C24.6428 25.5 24.9395 25.3771 25.1583 25.1583C25.3771 24.9395 25.5 24.6428 25.5 24.3333V19.6667C25.5 19.3572 25.3771 19.0605 25.1583 18.8417C24.9395 18.6229 24.6428 18.5 24.3333 18.5ZM24.3333 4.5H17.3333C17.0239 4.5 16.7272 4.62292 16.5084 4.84171C16.2896 5.0605 16.1667 5.35725 16.1667 5.66667V15C16.1667 15.3094 16.2896 15.6062 16.5084 15.825C16.7272 16.0437 17.0239 16.1667 17.3333 16.1667H24.3333C24.6428 16.1667 24.9395 16.0437 25.1583 15.825C25.3771 15.6062 25.5 15.3094 25.5 15V5.66667C25.5 5.35725 25.3771 5.0605 25.1583 4.84171C24.9395 4.62292 24.6428 4.5 24.3333 4.5Z" fill="black"/>
</svg>
