<svg width="30" height="30" viewBox="0 0 30 30" xmlns="http://www.w3.org/2000/svg">
<path d="M15 2.55566C11.287 2.55566 7.72601 4.03066 5.10051 6.65617C2.475 9.28168 1 12.8426 1 16.5557C1 16.9682 1.16389 17.3639 1.45561 17.6556C1.74733 17.9473 2.143 18.1112 2.55556 18.1112C2.96811 18.1112 3.36378 17.9473 3.6555 17.6556C3.94722 17.3639 4.11111 16.9682 4.11111 16.5557C4.11111 10.5512 8.99556 5.66678 15 5.66678C21.0044 5.66678 25.8889 10.5512 25.8889 16.5557C25.8889 16.9682 26.0528 17.3639 26.3445 17.6556C26.6362 17.9473 27.0319 18.1112 27.4444 18.1112C27.857 18.1112 28.2527 17.9473 28.5444 17.6556C28.8361 17.3639 29 16.9682 29 16.5557C29 12.8426 27.525 9.28168 24.8995 6.65617C22.274 4.03066 18.713 2.55566 15 2.55566Z" fill="black"/>
<path d="M16.5556 15.1961V10.3334C16.5556 9.92083 16.3917 9.52517 16.1 9.23344C15.8083 8.94172 15.4126 8.77783 15 8.77783C14.5875 8.77783 14.1918 8.94172 13.9001 9.23344C13.6084 9.52517 13.4445 9.92083 13.4445 10.3334V15.1961C11.9815 15.5783 10.7076 16.48 9.86079 17.7327C9.01393 18.9854 8.65196 20.5035 8.84247 22.0035C9.03297 23.5036 9.76293 24.883 10.896 25.8842C12.0292 26.8855 13.4879 27.4401 15 27.4445C16.5156 27.446 17.9795 26.8943 19.1172 25.893C20.2548 24.8917 20.9879 23.5097 21.1788 22.0062C21.3698 20.5028 21.0054 18.9813 20.1542 17.7274C19.303 16.4735 18.0234 15.5734 16.5556 15.1961ZM15 24.3334C13.2843 24.3334 11.8889 22.9381 11.8889 21.2223C11.8889 19.5065 13.2843 18.1112 15 18.1112C16.7158 18.1112 18.1111 19.5065 18.1111 21.2223C18.1111 22.9381 16.7158 24.3334 15 24.3334Z" fill="black"/>
</svg>
