<svg width="30" height="30" viewBox="0 0 30 30" xmlns="http://www.w3.org/2000/svg">
<path d="M15.5 9C22.9558 9 29 7.20914 29 5C29 2.79086 22.9558 1 15.5 1C8.04416 1 2 2.79086 2 5C2 7.20914 8.04416 9 15.5 9Z" fill="black"/>
<path d="M3 21C2.63181 21 2 21.2985 2 21.6667V25C2 27.2091 7.96953 29 15.3333 29C22.6971 29 29 27.2091 29 25V21.6667C29 21.2985 28.3682 21 28 21C27.6318 21 27 21.2985 27 21.6667V24.7456C24.839 26.0801 20.6109 27 15.3333 27C10.0557 27 6.16096 26.0801 4 24.7457V21.6667C4 21.2985 3.36819 21 3 21Z" fill="black"/>
<path d="M2 14.6667C2 14.2985 2.63181 14 3 14C3.36819 14 4 14.2985 4 14.6667V17.7457C6.16096 19.0801 10.0557 20 15.3333 20C20.6109 20 24.839 19.0801 27 17.7456V14.6667C27 14.2985 27.6318 14 28 14C28.3682 14 29 14.2985 29 14.6667V18C29 20.2091 22.6971 22 15.3333 22C7.96953 22 2 20.2091 2 18V14.6667Z" fill="black"/>
<path d="M2 7.66667C2 7.29848 2.63181 7 3 7C3.36819 7 4 7.29848 4 7.66667V10.7457C6.16096 12.0801 10.0557 13 15.3333 13C20.6109 13 24.839 12.0801 27 10.7456V7.66667C27 7.29848 27.6318 7 28 7C28.3682 7 29 7.29848 29 7.66667V11C29 13.2091 22.6971 15 15.3333 15C7.96953 15 2 13.2091 2 11V7.66667Z" fill="black"/>
</svg>
