<svg width="30" height="31" viewBox="0 0 30 31" xmlns="http://www.w3.org/2000/svg">
<path d="M24.5473 29.5L5.00841 29.4773C2.76272 29.234 1 27.0616 1 24.6101V9.19078C1 6.20894 2.98647 3.93306 5.42878 3.93306H24.5471C26.9889 3.93306 28.9747 6.20894 28.9747 9.08026V24.499C28.9748 27.2232 26.9883 29.5 24.5473 29.5ZM5.42814 6.00097C3.98108 6.00097 2.80364 7.34928 2.80364 9.19138V24.6101C2.80364 26.0838 3.98108 27.433 5.42814 27.433H24.5473C25.9937 27.433 27.1707 26.0838 27.1707 24.4996V9.08026C27.1707 7.34867 25.9937 6.00007 24.5473 6.00007H5.42814V6.00097ZM19.8801 8.9705C19.2161 8.9705 18.838 8.35322 18.838 7.5923V2.87801C18.838 2.1174 19.2161 1.5 19.8801 1.5C20.544 1.5 20.9221 2.1174 20.9221 2.87801V7.59202C20.9221 8.35322 20.5447 8.9705 19.8801 8.9705ZM9.94287 8.9705C9.27886 8.9705 8.90081 8.35322 8.90081 7.5923V2.87801C8.90081 2.1174 9.27886 1.5 9.94287 1.5C10.6068 1.5 10.9849 2.1174 10.9849 2.87801V7.59202C10.9849 8.35322 10.6076 8.9705 9.94287 8.9705ZM15.6282 23.8421H14.4801C13.8162 23.8421 13.2772 23.3352 13.2772 22.5744C13.2772 21.8138 13.8162 21.3069 14.4801 21.3069H15.6282C16.2921 21.3069 16.831 21.8138 16.831 22.5744C16.831 23.3352 16.2921 23.8421 15.6282 23.8421ZM27.7965 13.6021H2.88359C2.21957 13.6021 1.68073 13.1689 1.68073 12.4082C1.68073 11.6475 2.21957 11.2144 2.88359 11.2144H27.7972C28.4611 11.2144 29 11.6475 29 12.4082C29 13.1689 28.4612 13.6021 27.7965 13.6021ZM9.42456 19.5113H8.27644C7.61254 19.5113 7.0736 19.0044 7.0736 18.2439C7.0736 17.4831 7.61254 17.05 8.27644 17.05H9.42456C10.0884 17.05 10.6274 17.4831 10.6274 18.2439C10.6274 19.0046 10.0884 19.5113 9.42456 19.5113ZM15.6282 19.5113H14.4801C13.8162 19.5113 13.2772 19.0044 13.2772 18.2439C13.2772 17.4831 13.8162 17.05 14.4801 17.05H15.6282C16.2921 17.05 16.831 17.4831 16.831 18.2439C16.831 19.0046 16.2921 19.5113 15.6282 19.5113ZM21.9006 19.5113H20.7525C20.0885 19.5113 19.5498 19.0044 19.5498 18.2439C19.5498 17.4831 20.0885 17.05 20.7525 17.05H21.9006C22.5646 17.05 23.1034 17.4831 23.1034 18.2439C23.1034 19.0046 22.5653 19.5113 21.9006 19.5113ZM9.42456 23.8421H8.27644C7.61254 23.8421 7.0736 23.3352 7.0736 22.5744C7.0736 21.8138 7.61254 21.3069 8.27644 21.3069H9.42456C10.0884 21.3069 10.6274 21.8138 10.6274 22.5744C10.6274 23.3352 10.0884 23.8421 9.42456 23.8421ZM21.9006 23.8421H20.7525C20.0885 23.8421 19.5498 23.3352 19.5498 22.5744C19.5498 21.8138 20.0885 21.3069 20.7525 21.3069H21.9006C22.5646 21.3069 23.1034 21.8138 23.1034 22.5744C23.1034 23.3352 22.5653 23.8421 21.9006 23.8421Z" fill="black"/>
</svg>
