<svg width="30" height="30" viewBox="0 0 30 30" xmlns="http://www.w3.org/2000/svg">
<path d="M4.75316 9.69189C5.99628 3.68826 11.0725 1.06981 14.9255 1.00138L14.9255 1C14.9503 1.00002 14.975 1.00014 14.9999 1.00037C15.0247 1.00014 15.0495 1.00002 15.0742 1L15.0742 1.00138C18.9273 1.06981 24.0035 3.68826 25.2466 9.69189C25.55 10.8392 25.5607 12.8798 25.304 14.2917C25.2969 14.364 25.2831 14.5359 25.2848 14.6458C25.2864 14.7556 25.3568 16.0675 25.3918 16.7097C25.3966 16.9318 25.3596 17.4342 25.2635 17.703C24.9939 18.457 23.5335 21.2049 22.2415 22.6197L21.6273 24.3213C21.5924 24.4122 21.4817 24.6306 21.3179 24.7762C21.2139 24.8686 20.1153 25.9404 19.0513 26.9785L19.051 26.9787C18.0207 27.9839 17.0227 28.9575 16.9914 28.9799C16.9438 29.0139 15.7241 28.9976 14.9999 28.983C14.2757 28.9976 13.0559 29.0139 13.0084 28.9799C12.977 28.9575 11.9792 27.9841 10.9489 26.9789L10.9485 26.9785C9.88442 25.9404 8.78585 24.8686 8.68184 24.7762C8.51806 24.6306 8.40735 24.4122 8.37247 24.3213L7.7583 22.6197C6.46625 21.2049 5.00587 18.457 4.73629 17.703C4.6402 17.4342 4.60317 16.9318 4.60799 16.7097C4.64299 16.0675 4.71338 14.7556 4.71502 14.6458C4.71666 14.5359 4.70288 14.364 4.69578 14.2917C4.43907 12.8798 4.44981 10.8392 4.75316 9.69189ZM7.789 13.8816C7.78208 13.887 7.77534 13.893 7.77262 13.9014C7.76498 13.9249 7.76796 13.97 7.79337 14.0139V18.4399C7.79224 18.4778 7.78358 18.5613 7.75835 18.6137C7.75479 18.6211 7.75641 18.63 7.76317 18.6347C8.01796 18.8103 8.63143 19.0593 9.12813 19.052H12.9348C13.0684 19.0521 13.3872 19.0125 13.5819 18.8326C13.6718 18.7624 13.7237 18.6775 13.7667 18.5408C13.8594 18.2463 14.2485 17.7651 15.0174 17.7468C15.7819 17.7651 16.1688 18.2463 16.2609 18.5408C16.3036 18.6775 16.3553 18.7624 16.4447 18.8326C16.6382 19.0125 16.9551 19.0521 17.088 19.052H20.8726C21.3664 19.0593 21.9763 18.8103 22.2296 18.6347C22.2363 18.63 22.238 18.6211 22.2344 18.6137C22.2093 18.5614 22.2007 18.4779 22.1996 18.4399V14.0139C22.2248 13.97 22.2278 13.9249 22.2202 13.9014C22.2175 13.893 22.2108 13.887 22.2039 13.8816C21.7341 13.5127 20.9202 13.4641 20.5696 13.4862H9.43286C9.08022 13.4641 8.2615 13.5127 7.789 13.8816ZM6.18426 13.8829C6.0631 13.8829 5.96488 13.9811 5.96488 14.1022V18.4316C5.96488 18.5528 6.0631 18.651 6.18426 18.651H7.02706C7.14822 18.651 7.24643 18.5528 7.24643 18.4316V14.1022C7.24643 13.9811 7.14822 13.8829 7.02706 13.8829H6.18426ZM22.7534 14.1022V18.4316C22.7534 18.5528 22.8516 18.651 22.9727 18.651H23.8155C23.9367 18.651 24.0349 18.5528 24.0349 18.4316V14.1022C24.0349 13.9811 23.9367 13.8829 23.8155 13.8829H22.9727C22.8516 13.8829 22.7534 13.9811 22.7534 14.1022ZM14.1853 21.6626C14.2494 21.8659 14.6822 22.0987 14.9762 22.0943L14.9762 22.0942C14.9929 22.0944 15.0102 22.0945 15.0264 22.0943C15.3204 22.0972 15.7506 21.8653 15.8145 21.6626L15.1907 19.705H14.8092L14.1853 21.6626Z" fill="black"/>
</svg>
