<svg width="30" height="30" viewBox="0 0 30 30" xmlns="http://www.w3.org/2000/svg">
<path d="M1.31783 13.537L1.05928 13.3063C0.93264 13.1932 1.02233 13 1.20144 13H5.63369C5.82159 13 5.9739 13.1359 5.9739 13.3036V13.8406C5.9739 14.0981 5.86189 14.3455 5.66148 14.5307L1.9896 17.9244C1.86402 18.0405 1.64395 17.9612 1.64395 17.7998V14.9303C1.64395 14.7547 1.72215 14.5862 1.86135 14.462L1.89046 14.436C2.02967 14.3118 2.21968 14.242 2.41654 14.242C2.50195 14.242 2.57179 14.3038 2.57179 14.38V15.824C2.57179 15.9866 2.79479 16.0653 2.91945 15.9467L4.82898 14.1301C4.94941 14.0156 4.85838 13.828 4.68236 13.828H2.10514C1.80984 13.828 1.52664 13.7233 1.31783 13.537Z" fill="black"/>
<path d="M8.27679 13.2905L3.37175 17.6615C3.24497 17.7745 3.33463 17.9679 3.5138 17.9679H4.36243C4.40404 17.9679 4.44389 17.9529 4.47298 17.9264L8.2426 14.4875C8.36859 14.3725 8.58734 14.4521 8.58734 14.6129V16.4581C8.58734 16.6299 8.51255 16.795 8.37875 16.9185L8.35772 16.9379C8.21786 17.067 8.02525 17.1399 7.82403 17.1399H6.29487C6.11496 17.1399 6.02564 17.3346 6.15389 17.4472L6.42215 17.6827C6.6304 17.8654 6.91081 17.9679 7.20292 17.9679H8.75927C8.95613 17.9679 9.14493 17.8981 9.28414 17.7739L9.31325 17.7479C9.45245 17.6237 9.53065 17.4552 9.53065 17.2795V13.138C9.53065 13.0618 9.46142 13 9.37601 13H9.06355C8.76852 13 8.48555 13.1045 8.27679 13.2905Z" fill="black"/>
<path d="M10.4585 17.8299V13.6884C10.4585 13.5127 10.5367 13.3442 10.6759 13.22L10.705 13.194C10.8442 13.0698 11.0342 13 11.2311 13C11.3165 13 11.3864 13.0618 11.3864 13.138V16.0153C11.3864 16.1862 11.6289 16.2603 11.7463 16.1251L14.1139 13.3988C14.3248 13.1559 14.6497 13.0138 14.994 13.0138H15.1735C15.3394 13.0138 15.4339 13.1831 15.3339 13.3013L11.7205 17.5729C11.51 17.8217 11.181 17.9679 10.8318 17.9679H10.6131C10.5277 17.9679 10.4585 17.9061 10.4585 17.8299Z" fill="black"/>
<path d="M15.2215 17.9817H14.6029C14.5175 17.9817 14.4482 17.9199 14.4482 17.8437V15.9093C14.4482 15.6458 14.5656 15.3931 14.7744 15.2067L15.0329 14.976C15.1596 14.863 15.3761 14.943 15.3761 15.1029V17.8437C15.3761 17.9199 15.3069 17.9817 15.2215 17.9817Z" fill="black"/>
<path d="M19.642 16.0747L17.4319 13.2643C17.3016 13.0986 17.0891 13 16.8623 13L16.6364 13C16.4485 13 16.2962 13.1359 16.2962 13.3036V16.9836C16.2962 17.2472 16.4135 17.4999 16.6223 17.6862L16.8809 17.9169C17.0075 18.0299 17.2241 17.9499 17.2241 17.7901V15.0202C17.2241 14.8452 17.476 14.7738 17.5892 14.9166L19.7996 17.7055C19.9301 17.8701 20.1419 17.9679 20.3678 17.9679H20.5952C20.7831 17.9679 20.9355 17.832 20.9355 17.6643V13.9911C20.9355 13.7276 20.8181 13.4749 20.6093 13.2886L20.3508 13.0579C20.2241 12.9448 20.0076 13.0249 20.0076 13.1847V15.9717C20.0076 16.147 19.7549 16.2182 19.642 16.0747Z" fill="black"/>
<path d="M28.6706 17.6798L28.4077 17.9125C28.2807 18.0249 28.0648 17.9445 28.0651 17.7849L28.0719 13.1516C28.0721 13.0755 28.1413 13.0138 28.2266 13.0138H28.8454C28.9308 13.0138 29 13.0756 29 13.1518V16.9743C29 17.2393 28.8814 17.4932 28.6706 17.6798Z" fill="black"/>
<path d="M24.2927 17.8128L22.1138 15.9854C21.7864 15.7109 21.7893 15.246 22.1201 14.9747L24.3049 13.1826C24.612 12.9308 25.0875 12.9416 25.3798 13.2071L27.0945 14.7648C27.2194 14.8783 27.1294 15.07 26.9511 15.07H26.6042C26.293 15.07 25.996 14.9537 25.7852 14.7494L25.3072 14.2863C25.058 14.0448 24.6364 14.0297 24.3664 14.2527L23.4112 15.0415C23.1269 15.2764 23.1269 15.6777 23.4112 15.9125L24.3691 16.7036C24.6381 16.9257 25.0576 16.9118 25.3074 16.6726L25.7857 16.2143C25.9963 16.0125 26.2914 15.8979 26.6005 15.8979H26.956C27.1335 15.8979 27.2239 16.0883 27.1004 16.2021L25.3778 17.7899C25.0839 18.0609 24.6007 18.071 24.2927 17.8128Z" fill="black"/>
</svg>
