<svg width="30" height="30" viewBox="0 0 30 30" xmlns="http://www.w3.org/2000/svg">
<g clip-path="url(#clip0_1038_966)">
<path d="M13.6 2.4C13.6 3.24 13.04 3.8 12.2 3.8H5.2C4.36 3.8 3.8 4.36 3.8 5.2L3.8 24.8C3.8 25.64 4.36 26.2 5.2 26.2H24.8C25.64 26.2 26.2 25.64 26.2 24.8V17.8C26.2 16.96 26.76 16.4 27.6 16.4C28.44 16.4 29 16.96 29 17.8V26.2C29 27.74 27.74 29 26.2 29H3.8C2.26 29 1 27.74 1 26.2L1 3.8C1 2.26 2.26 1 3.8 1H12.2C13.04 1 13.6 1.56 13.6 2.4Z" fill="black"/>
<path d="M19.7574 8.12132L26.1214 1.75736C26.7578 1.12096 27.6063 1.12096 28.2427 1.75736C28.8791 2.39376 28.8791 3.24228 28.2427 3.87868L21.8787 10.2426C21.2423 10.879 20.3938 10.879 19.7574 10.2426C19.121 9.60624 19.121 8.75772 19.7574 8.12132ZM19.7574 1.75736C20.3938 1.12096 21.2423 1.12096 21.8787 1.75736L28.2427 8.12132C28.8791 8.75772 28.8791 9.60624 28.2427 10.2426C27.6063 10.879 26.7578 10.879 26.1214 10.2426L19.7574 3.87868C19.121 3.24228 19.121 2.39376 19.7574 1.75736Z" fill="black"/>
</g>
<defs>
<clipPath id="clip0_1038_966">
<rect width="30" height="30" fill="white" transform="matrix(0 -1 1 0 0 30)"/>
</clipPath>
</defs>
</svg>
