<svg width="31" height="30" viewBox="0 0 31 30" xmlns="http://www.w3.org/2000/svg">
<g clip-path="url(#clip0_1121_403)">
<path d="M12.5863 13.4415C12.5703 13.3501 12.5099 13.2439 12.3808 13.1148L6.01574 10.0232C5.96701 9.99883 5.92154 9.97773 5.87934 9.95815C5.60655 9.83155 5.47016 9.76825 5.47016 9.29576C5.47016 9.1139 5.47016 8.93205 5.65202 8.56833C6.1976 8.38647 6.56131 8.02275 6.74317 7.84089C7.10689 7.47718 7.65246 7.11346 8.19804 7.11346L20.2007 8.75019L20.643 8.89762C20.6906 8.8645 20.7544 8.80774 20.844 8.72813C21.2414 8.37474 22.1452 7.57107 24.3834 6.38613C24.516 6.33306 24.6448 6.28 24.7709 6.22806C25.5088 5.92402 26.1528 5.65869 26.9294 5.65869C28.0206 5.65869 29.2936 6.02241 29.8391 6.9317C30.2029 7.29542 30.021 8.20471 29.1117 8.93215C29.1117 8.93215 18.382 15.6609 11.2896 19.2981C10.9258 19.4799 10.1984 19.6618 9.83469 19.6618C9.51677 19.6618 9.24332 19.684 8.98323 19.7052C8.49944 19.7445 8.0619 19.7801 7.47053 19.6618C6.7431 19.6618 6.37938 19.6618 6.01566 19.2981L2.19663 15.8428C2.01477 15.6609 2.01477 15.4791 2.01477 14.9335C2.01477 14.7516 2.19663 14.206 2.37849 14.0242C2.74221 13.6605 3.46964 13.2968 4.01522 13.6605C4.33347 13.7514 4.69719 13.8423 5.08364 13.9389C6.24298 14.2288 7.60692 14.5698 8.56168 15.1153H8.74354L12.1989 13.6605L12.5863 13.4415Z" fill="black"/>
<rect x="4.30902" y="23.6396" width="23.4116" height="2.02881" rx="1.0144" fill="black"/>
</g>
<defs>
<clipPath id="clip0_1121_403">
<rect width="30" height="30" fill="white" transform="translate(0.727417)"/>
</clipPath>
</defs>
</svg>
