<svg width="30" height="31" viewBox="0 0 30 31" xmlns="http://www.w3.org/2000/svg">
<path d="M15.9375 9.26282C15.9375 7.71219 14.6756 6.45032 13.125 6.45032C11.5744 6.45032 10.3125 7.71219 10.3125 9.26282C10.3125 10.8134 11.5744 12.0753 13.125 12.0753C14.6756 12.0753 15.9375 10.8134 15.9375 9.26282ZM12.1875 9.26282C12.1875 8.74625 12.6084 8.32532 13.125 8.32532C13.6416 8.32532 14.0625 8.74625 14.0625 9.26282C14.0625 9.77938 13.6416 10.2003 13.125 10.2003C12.6084 10.2003 12.1875 9.77938 12.1875 9.26282Z" fill="black"/>
<path d="M8.90625 13.9503C7.61437 13.9503 6.5625 15.0022 6.5625 16.2941C6.5625 17.5869 7.61437 18.6378 8.90625 18.6378C10.1981 18.6378 11.25 17.5869 11.25 16.2941C11.25 15.0022 10.1981 13.9503 8.90625 13.9503ZM8.90625 16.7628C8.6475 16.7628 8.4375 16.5528 8.4375 16.2941C8.4375 16.0353 8.6475 15.8253 8.90625 15.8253C9.165 15.8253 9.375 16.0353 9.375 16.2941C9.375 16.5528 9.165 16.7628 8.90625 16.7628Z" fill="black"/>
<path d="M17.875 22.3878C17.875 22.8851 18.0725 23.362 18.4242 23.7136C18.7758 24.0653 19.2527 24.2628 19.75 24.2628C20.2473 24.2628 20.7242 24.0653 21.0758 23.7136C21.4275 23.362 21.625 22.8851 21.625 22.3878C21.625 21.8905 21.4275 21.4136 21.0758 21.062C20.7242 20.7104 20.2473 20.5128 19.75 20.5128C19.2527 20.5128 18.7758 20.7104 18.4242 21.062C18.0725 21.4136 17.875 21.8905 17.875 22.3878Z" fill="black"/>
<path d="M26.7752 8.2988C28.0005 6.42816 28.7563 4.80911 28.7553 3.70606C28.7553 2.99766 28.4682 2.56749 28.2275 2.33169C27.0534 1.17931 24.8355 2.23303 23.2707 3.12297C22.7981 3.39231 22.6323 3.99514 22.9017 4.46872C23.171 4.9423 23.7748 5.10707 24.2474 4.83772C25.7708 3.96949 26.5058 3.81755 26.7909 3.7988C26.7446 5.07451 23.8518 10.0402 16.61 17.1646C9.63057 24.0315 4.31858 27.1749 2.9748 27.1966C3.0044 26.8464 3.24513 25.8262 4.77934 23.5372C4.81979 23.479 4.85333 23.4149 4.87898 23.3478L4.95002 23.1653C4.95791 23.1455 4.9589 23.1238 4.96581 23.1031C5.23713 22.7874 5.29929 22.3296 5.07039 21.9547C3.94366 20.1058 3.34774 17.9776 3.34774 15.8011C3.34774 9.2726 8.65875 3.9616 15.1872 3.9616C17.0155 3.9616 18.7667 4.36611 20.3937 5.16528C20.885 5.40503 21.474 5.20179 21.7138 4.71341C21.9535 4.22503 21.7523 3.63404 21.2629 3.3933C19.3626 2.46094 17.3184 1.98835 15.1872 1.98835C7.5705 1.98835 1.37449 8.18436 1.37449 15.8011C1.37449 18.1463 1.97535 20.4412 3.10306 22.4806C3.09714 22.4983 3.08333 22.5131 3.07839 22.5309C0.978855 25.6861 0.486529 27.6307 1.52643 28.6509C1.86583 28.9834 2.31672 29.1314 2.85443 29.1314C4.06699 29.1314 5.71762 28.3628 7.4817 27.2539C9.76377 28.794 12.4109 29.6139 15.1872 29.6139C22.804 29.6139 29 23.4179 29 15.8011C29 13.1145 28.2265 10.5365 26.7752 8.2988ZM15.1872 27.6406C13.0818 27.6406 11.0641 27.0891 9.27243 26.0512C13.2278 23.2067 17.2404 19.3125 17.9932 18.5706C20.7419 15.8662 23.4986 12.8037 25.536 10.0619C26.5088 11.8112 27.0268 13.7696 27.0268 15.8011C27.0268 22.3296 21.7157 27.6406 15.1872 27.6406Z" fill="black"/>
</svg>
