<svg width="31" height="30" viewBox="0 0 31 30" xmlns="http://www.w3.org/2000/svg">
<path d="M26.3721 18.5242H21.1553C21.5343 19.4055 21.9702 21.6847 21.7191 23.7601C21.5201 25.4091 20.5488 26.6743 19.1368 27.1576C18.0896 27.5129 16.9809 27.3376 16.3839 26.7311C15.6731 26.0061 15.3414 24.6415 14.9861 23.1962C14.7539 22.2533 14.517 21.2724 14.2185 20.7654C13.3609 19.306 11.5651 18.6426 11.205 18.5242H8.7316C8.24358 18.5242 7.85028 18.1309 7.85028 17.6428V5.304C7.85028 4.81596 8.24355 4.42265 8.7316 4.42265H11.1149C11.8541 4.02463 14.5975 2.65997 17.7769 2.65997H23.7234C24.7043 2.65997 26.3911 3.03903 27.0213 4.08622C27.6562 5.14762 29.0019 14.795 29.0019 15.8612C29.0066 17.3301 27.5662 18.5242 26.3721 18.5242ZM25.5192 4.99126C25.3865 4.76855 24.5147 4.42265 23.7329 4.42265H17.7816C14.6355 4.42265 11.8541 6.18533 11.8257 6.18533H9.61764V16.7614H11.3803C11.4513 16.7614 11.5177 16.7851 11.584 16.8041C11.5982 16.8088 11.6124 16.8041 11.6267 16.8088C11.6314 16.8136 11.6503 16.8183 11.674 16.823C11.6977 16.8325 11.7214 16.8325 11.7451 16.8467C12.2805 17.0221 14.5691 17.875 15.7442 19.8746C16.1706 20.5995 16.4312 21.6609 16.7013 22.7792C16.9525 23.8217 17.2699 25.12 17.6395 25.4943C17.7248 25.5654 18.137 25.6602 18.6535 25.4564C19.0752 25.2906 19.8096 24.8215 19.966 23.5374C20.3119 20.7133 19.0989 18.0266 19.0894 17.9982C18.9615 17.7233 18.9852 17.4153 19.1463 17.1642C19.3073 16.9131 19.5869 16.7662 19.8854 16.7662H26.3673C26.609 16.7662 27.2392 16.354 27.2392 15.8612C27.2439 14.6813 25.8841 5.82521 25.5192 4.99126Z" fill="black"/>
<path d="M2.95215 17.3539C2.95215 17.9062 3.39986 18.354 3.95215 18.354H5.38696C5.93925 18.354 6.38696 17.9062 6.38696 17.3539V5.55497C6.38696 5.00267 5.93925 4.55494 5.38696 4.55494H3.95215C3.39986 4.55494 2.95215 5.00267 2.95215 5.55497V17.3539Z" fill="black"/>
</svg>
