<svg width="30" height="30" viewBox="0 0 30 30" xmlns="http://www.w3.org/2000/svg">
<path d="M26.6632 13.2978C26.6383 14.1957 25.7914 14.7524 25.7914 15.6528C25.8288 15.684 25.8537 15.7238 25.891 15.7039C26.5635 14.9704 27.2361 13.9267 28.2075 13.6129C28.4565 13.5979 28.7056 13.8221 28.7928 13.9865C29.1291 14.6702 29.0543 15.6317 28.5811 16.2519C28.0829 16.8609 27.2361 17.4711 26.2646 17.3678C25.8537 18.3541 25.5921 19.4002 25.4178 20.4837C25.3431 20.7079 25.1562 20.5086 25.0317 20.4713C24.1973 19.7988 24.8823 18.0552 24.9321 17.8323C24.9943 17.6094 25.2185 17.0838 25.3804 16.6429C24.9943 15.9418 25.231 15.0937 25.5548 14.4436C25.7914 14.0164 26.1401 13.583 26.5511 13.238C26.5884 13.238 26.6383 13.253 26.6632 13.2978ZM28.332 14.4137C28.2075 14.3925 28.1576 14.5569 28.058 14.588C27.5723 15.126 27.0991 15.6628 26.8624 16.3042C27.1862 16.344 27.4602 16.1373 27.7218 16.024C28.2075 15.7238 28.5064 15.2294 28.4815 14.6603C28.4565 14.5669 28.3694 14.4959 28.332 14.4137ZM10.3771 11.4721C11.3299 12.2504 12.5665 13.583 12.4121 15.1049C12.2266 16.3141 10.945 17.2233 9.8603 17.5122C8.8067 17.8211 7.48534 17.7912 6.41056 17.5434C6.33833 17.7389 6.26485 17.9767 6.03694 18.0589C5.89372 18.11 5.70816 18.0801 5.59483 17.988C5.27352 17.6878 5.53131 17.1087 5.06803 16.9231C4.15764 16.5408 3.17752 15.7873 2.71174 14.8558C2.65071 14.6702 2.72668 14.4847 2.83628 14.3402C3.54864 13.7773 4.44657 13.5382 5.34575 13.3725C5.39681 13.3875 5.37688 13.3127 5.41798 13.2978C5.47029 12.6838 5.49146 12.0412 5.68699 11.487C5.73182 11.4123 5.84142 11.3824 5.91489 11.4422C6.48155 11.8756 6.21379 12.6838 6.46162 13.2829C7.54636 13.3277 8.6311 13.3725 9.48918 13.9865C9.77811 14.2256 9.84785 14.6802 9.75694 14.9405C9.66602 15.1995 9.36464 15.3826 9.08442 15.4038C8.89886 15.4038 8.5489 15.4224 8.56883 15.2805C8.59 15.1372 9.20025 14.9056 9.01344 14.7126C8.74319 14.4336 7.39318 14.268 6.55627 14.1658C6.45415 14.1509 6.35825 14.1808 6.35825 14.2891C6.33833 15.0737 6.27606 15.9418 6.41056 16.6952C6.42551 16.7463 6.48155 16.8098 6.53386 16.8198C8.01214 17.0564 9.57137 16.9231 10.7283 16.0763C11.2664 15.6416 11.4407 15.0326 11.3486 14.3614C10.8828 12.4895 8.93124 11.3674 7.32966 10.6488C5.76918 9.96015 4.04431 9.61642 2.1949 9.70608C1.90099 9.72103 1.43396 9.82564 1.4306 9.93026C1.42811 10.0349 1.95952 10.005 1.89476 10.1993C1.83174 10.3948 1.29112 10.274 1.13096 10.2292C0.970801 10.1843 0.986493 9.9452 1.02759 9.8107C1.4306 9.09211 2.55482 9.03233 3.06294 9.00244C5.87255 8.94141 8.59 10.005 10.3771 11.4721ZM5.31461 14.2406C4.60225 14.2406 3.84754 14.3203 3.18623 14.5669C3.05298 14.6192 2.88609 14.7636 2.98946 14.9405C3.25971 15.3004 3.64205 15.5993 4.00321 15.8073C4.36313 16.0165 4.84012 16.283 5.27352 16.344C5.37688 15.674 5.37688 15.0115 5.36692 14.3203C5.32458 14.2991 5.36692 14.258 5.31461 14.2406ZM25.1189 13.8221C25.1812 13.9118 25.231 14.0313 25.1189 14.0911C24.6581 14.2991 24.0354 14.2107 23.4874 14.268C23.3629 14.3925 23.2383 14.5992 23.3006 14.7848C23.338 14.8159 23.3878 14.862 23.4501 14.8558C23.7739 14.877 24.272 14.7026 24.4962 15.0115C24.5335 15.1036 24.4837 15.4474 24.3343 15.4561C23.9233 15.5071 23.2632 15.405 23.0764 15.5071C22.8149 15.674 22.8523 15.9941 22.7526 16.2519C22.927 16.3652 23.1138 16.2519 23.3255 16.2195C23.6991 16.1585 24.1226 16.0451 24.5086 16.1273C24.5834 16.2618 24.683 16.4076 24.6083 16.5719C23.9607 17.0875 23.1138 17.6181 22.2171 17.2432C21.8933 17.0925 21.7439 16.5819 21.8559 16.1485C21.9182 15.8384 22.2545 15.5383 22.0552 15.2082C22.0303 15.0625 22.105 14.9405 22.2171 14.9081C22.5658 14.9081 22.4911 14.4847 22.6655 14.2891C22.4786 14.0762 21.9805 14.0762 22.0303 13.6428C22.2669 13.5232 22.5658 13.5681 22.8149 13.5232C23.4376 13.4024 24.1226 13.3277 24.7328 13.4024C24.8574 13.4174 25.0317 13.6727 25.1189 13.8221ZM13.6488 13.9716C13.7484 14.9592 13.7982 15.8795 13.7733 16.9231C13.7609 17.0564 13.599 17.0875 13.4993 17.1398C13.3374 17.1697 13.1133 17.1398 13.0535 17.0477C12.8144 16.6641 12.8978 16.1485 12.8767 15.684C12.9078 14.9492 12.8978 14.1509 13.1008 13.4771C13.1382 13.3725 13.2627 13.2829 13.3499 13.3426C13.599 13.4771 13.6363 13.7175 13.6488 13.9716ZM18.1571 13.583C18.1571 13.7324 18.045 13.9267 17.933 13.9417C16.9491 14.1061 15.8407 14.0164 14.9066 14.3203C14.8817 14.4324 15.0187 14.4535 15.081 14.4847C15.8905 14.6092 16.7249 14.6391 17.4846 14.8371C17.908 14.9405 18.0575 15.4249 18.0824 15.8272C18.1073 16.1448 17.9828 16.5296 17.6714 16.7463C16.9117 17.2332 15.7411 17.2121 14.9689 16.7675C14.67 16.6018 14.3836 16.3341 14.3587 16.0028C14.3587 15.7413 14.4832 15.5345 14.6576 15.4361C15.4048 15.136 16.3264 15.3004 16.9615 15.684C17.0114 15.8907 16.7872 15.8783 16.6751 15.9517C15.9652 16.3652 15.4297 15.486 14.7697 15.8073C14.67 15.8695 14.6078 16.0414 14.7198 16.0974C15.5293 16.4574 16.4385 16.2008 17.248 15.9729C17.3352 15.9418 17.4597 15.8484 17.4597 15.7562C17.4348 15.4249 17.0612 15.3527 16.8121 15.2605C16.1271 15.0837 15.3425 15.0837 14.5953 15.0115C14.4458 14.9803 14.259 14.8807 14.2217 14.7636C14.1345 14.517 14.1345 14.1808 14.3213 13.9716C15.2803 13.1185 16.7374 13.1932 17.9579 13.4174C18.045 13.4472 18.1322 13.4771 18.1571 13.583ZM21.2955 13.8221C21.6193 14.6304 21.8933 15.8994 21.2955 16.6753C21.1212 16.8609 20.8223 17.0327 20.6479 16.892C19.9629 16.344 19.6765 15.5594 19.2531 14.8558C19.1908 14.8259 19.1908 14.9081 19.1534 14.9405C19.004 15.6528 19.2904 16.5819 18.8047 17.1398C18.6304 17.1697 18.4436 17.0763 18.3938 16.892C18.1447 16.1585 18.3938 15.3938 18.4685 14.6603C18.593 14.2891 18.6553 13.852 18.9915 13.583C19.4897 13.7773 19.7512 14.3614 20.0501 14.7848C20.2618 15.1049 20.4362 15.4673 20.6977 15.7562C20.897 15.6628 20.7974 15.3789 20.7974 15.2082C20.7102 14.5357 20.5234 13.9118 20.349 13.2829C20.3366 13.1035 20.2494 12.8345 20.4237 12.7299C20.8845 12.9391 21.0838 13.4174 21.2955 13.8221ZM15.081 10.274C15.2803 10.274 15.4546 10.35 15.6041 10.4695C15.8033 10.6638 15.8531 10.9776 15.7535 11.218C15.3924 11.9665 14.533 12.4597 13.9477 12.624C13.599 12.715 13.1506 12.715 12.8356 12.5792C12.6799 12.6838 12.5504 12.984 12.3598 12.8495C12.0858 12.639 12.3237 12.3102 12.1655 12.0711C12.1319 12.0113 12.0497 12.0113 12.0099 11.9366C11.7932 11.4571 12.0609 11.0075 12.3598 10.6488C12.8605 10.0797 14.2964 9.46572 15.081 10.274ZM13.4246 10.6488C13.1506 10.6937 12.8306 10.8132 12.6612 11.0075C12.4906 11.218 12.381 11.4123 12.4844 11.6066C12.8468 11.3376 13.0211 10.9776 13.4246 10.7385C13.4246 10.7086 13.4869 10.6787 13.4246 10.6488ZM15.1059 10.7385C14.396 10.6787 13.8605 11.218 13.3499 11.7411C13.325 11.8158 13.1382 11.9067 13.2752 12.0113C13.9601 12.0711 14.6078 11.8756 15.1059 11.4123C15.2554 11.2778 15.355 11.1134 15.2803 10.9179C15.2554 10.8431 15.1806 10.7834 15.1059 10.7385Z" fill="black"/>
</svg>
