<svg width="30" height="31" viewBox="0 0 30 31" xmlns="http://www.w3.org/2000/svg">
<path d="M27.423 12.4999H2.57695C1.7049 12.4999 1 13.368 1 14.4419V16.178C1 17.2519 1.7049 18.1199 2.57695 18.1199H27.423C28.295 18.1199 28.9999 17.2519 28.9999 16.178V14.4419C29.0072 13.368 28.295 12.4999 27.423 12.4999Z" fill="black"/>
<path d="M12 5.50025C12 5.89424 12.0775 6.28438 12.2283 6.6484C12.379 7.01241 12.6 7.34317 12.8786 7.62178C13.1571 7.90039 13.4879 8.1214 13.8519 8.27219C14.2159 8.42297 14.606 8.50058 15 8.50058C15.394 8.50058 15.7841 8.42297 16.1481 8.27219C16.5121 8.1214 16.8429 7.90039 17.1214 7.62178C17.4 7.34317 17.621 7.01241 17.7717 6.6484C17.9225 6.28438 18 5.89424 18 5.50025C18 5.10625 17.9225 4.71611 17.7717 4.35209C17.621 3.98808 17.4 3.65732 17.1214 3.37871C16.8429 3.1001 16.5121 2.87909 16.1481 2.7283C15.7841 2.57752 15.394 2.49991 15 2.49991C14.606 2.49991 14.2159 2.57752 13.8519 2.7283C13.4879 2.87909 13.1571 3.1001 12.8786 3.37871C12.6 3.65732 12.379 3.98808 12.2283 4.35209C12.0775 4.71611 12 5.10625 12 5.50025Z" fill="black"/>
<path d="M12 25.5002C12 25.8942 12.0775 26.2844 12.2283 26.6484C12.379 27.0124 12.6 27.3432 12.8786 27.6218C13.1571 27.9004 13.4879 28.1214 13.8519 28.2722C14.2159 28.423 14.606 28.5006 15 28.5006C15.394 28.5006 15.7841 28.423 16.1481 28.2722C16.5121 28.1214 16.8429 27.9004 17.1214 27.6218C17.4 27.3432 17.621 27.0124 17.7717 26.6484C17.9225 26.2844 18 25.8942 18 25.5002C18 25.1063 17.9225 24.7161 17.7717 24.3521C17.621 23.9881 17.4 23.6573 17.1214 23.3787C16.8429 23.1001 16.5121 22.8791 16.1481 22.7283C15.7841 22.5775 15.394 22.4999 15 22.4999C14.606 22.4999 14.2159 22.5775 13.8519 22.7283C13.4879 22.8791 13.1571 23.1001 12.8786 23.3787C12.6 23.6573 12.379 23.9881 12.2283 24.3521C12.0775 24.7161 12 25.1063 12 25.5002Z" fill="black"/>
</svg>
