<svg width="31" height="31" viewBox="0 0 31 31"  xmlns="http://www.w3.org/2000/svg">
<path d="M14.4255 16.7174V9.71738H16.76V16.7174H20.26L15.5928 21.8046L10.9255 16.7174H14.4255ZM29.5928 18.6284C29.5928 22.5326 26.7455 25.6249 23.13 25.6249H9.13002C4.98077 25.6249 1.59277 21.9499 1.59277 17.4629C1.59277 13.4834 4.18102 10.1899 7.78427 9.40938C9.36277 6.46938 12.3063 4.62488 15.5928 4.62488C19.7578 4.62488 23.3068 7.58938 24.4355 11.7649C27.3475 12.4299 29.5928 15.3174 29.5928 18.6301V18.6284ZM22.5053 13.0144C21.8368 9.48638 18.9808 6.92438 15.5928 6.92438C12.9328 6.92438 10.5878 8.49238 9.45027 10.9564L9.19652 11.5094L8.62427 11.5899C5.79802 11.9836 3.74702 14.4424 3.74702 17.4611C3.74702 20.6864 6.17602 23.3236 9.13177 23.3236H23.1318C25.5468 23.3236 27.4385 21.2691 27.4385 18.6284C27.4385 16.2204 25.636 14.1186 23.4748 13.9314L22.668 13.8614L22.507 13.0144H22.5053Z" fill="black"/>
</svg>
