<svg width="30" height="30" viewBox="0 0 30 30" xmlns="http://www.w3.org/2000/svg">
<g clip-path="url(#clip0_1038_940)">
<path d="M10.3145 23.1257C10.4421 23.9149 10.3162 24.7241 9.95497 25.4372C9.59374 26.1504 9.01577 26.7306 8.30408 27.0946C7.5924 27.4587 6.78364 27.5878 5.994 27.4633C5.20436 27.3389 4.47448 26.9674 3.90923 26.4021C3.34398 25.8369 2.97245 25.107 2.84802 24.3174C2.72359 23.5277 2.85267 22.719 3.2167 22.0073C3.58074 21.2956 4.16099 20.7176 4.87411 20.3564C5.58722 19.9952 6.39648 19.8693 7.18563 19.9968C7.592 19.5607 7.96199 19.1391 8.29053 18.7374C7.35709 18.4187 6.35305 18.3679 5.39219 18.5906C4.43132 18.8133 3.55206 19.3007 2.85403 19.9976C0.79755 22.0541 0.79755 25.4004 2.85403 27.4573C4.91051 29.5142 8.25728 29.5142 10.3142 27.4573C11.0107 26.7595 11.498 25.8806 11.7208 24.9201C11.9436 23.9597 11.893 22.956 11.5747 22.0228C11.1723 22.3505 10.7499 22.7197 10.3145 23.1257ZM21.9127 18.5462C22.2357 18.9521 22.6006 19.3753 23.0011 19.8126C23.7899 19.6867 24.5982 19.8139 25.3102 20.1758C26.0222 20.5378 26.6013 21.1159 26.9644 21.8273C27.3276 22.5387 27.4561 23.3468 27.3315 24.1358C27.207 24.9247 26.8358 25.654 26.2712 26.2189C25.7066 26.7839 24.9776 27.1555 24.1887 27.2806C23.3999 27.4056 22.5917 27.2776 21.88 26.9149C21.1684 26.5522 20.5899 25.9735 20.2275 25.2617C19.8651 24.5499 19.7375 23.7417 19.8628 22.9529C19.4256 22.5527 19.0024 22.1882 18.596 21.8656C18.2837 22.7958 18.2369 23.7946 18.4606 24.75C18.6844 25.7054 19.17 26.5795 19.8628 27.2743C21.9197 29.3312 25.2665 29.3312 27.323 27.2743C29.3794 25.2174 29.3798 21.871 27.323 19.8142C26.6281 19.1208 25.7538 18.6348 24.7981 18.4109C23.8424 18.1869 22.8432 18.2337 21.9127 18.5462ZM19.9442 7.23043C19.8178 6.44152 19.9446 5.63286 20.3064 4.9205C20.6682 4.20813 21.2463 3.62868 21.9579 3.2653C22.6694 2.90192 23.4778 2.77328 24.267 2.89785C25.0562 3.02243 25.7857 3.3938 26.3507 3.95868C26.9157 4.52357 27.2873 5.25292 27.412 6.04209C27.5368 6.83125 27.4084 7.63966 27.0452 8.35129C26.682 9.06293 26.1027 9.64122 25.3904 10.0032C24.6781 10.3651 23.8695 10.4922 23.0805 10.366C22.6636 10.8177 22.3003 11.239 21.9854 11.6301C22.9171 11.9449 23.9182 11.9933 24.8759 11.7697C25.8336 11.5462 26.7098 11.0596 27.4059 10.3648C29.4627 8.30795 29.4627 4.96158 27.4059 2.9047C25.349 0.847832 22.0022 0.847832 19.9457 2.9047C19.2506 3.60107 18.7639 4.47781 18.5404 5.43605C18.317 6.3943 18.3658 7.3959 18.6813 8.3279C19.0626 8.02009 19.4831 7.65714 19.9442 7.23043ZM8.06251 11.2523C7.72224 10.8482 7.34598 10.4309 6.93805 10.0007C6.14814 10.1314 5.33713 10.0079 4.6219 9.64808C3.90666 9.28825 3.32414 8.71063 2.95826 7.99847C2.59239 7.2863 2.46206 6.47637 2.58606 5.68538C2.71006 4.89439 3.08199 4.16319 3.64824 3.59716C4.21449 3.03112 4.94583 2.65947 5.73687 2.53577C6.5279 2.41206 7.33779 2.5427 8.04981 2.90884C8.76184 3.27498 9.33924 3.85772 9.6988 4.57309C10.0584 5.28846 10.1815 6.09952 10.0505 6.88938C10.4784 7.29692 10.8981 7.67161 11.3021 8.01384C11.6292 7.07664 11.6856 6.06621 11.4646 5.09847C11.2436 4.13073 10.7544 3.24487 10.0529 2.54253C7.99602 0.48566 4.64847 0.48566 2.59277 2.54253C0.537068 4.5994 0.535894 7.94578 2.59277 10.0027C3.29508 10.7037 4.18064 11.1927 5.14802 11.4137C6.11539 11.6347 7.12545 11.5787 8.06251 11.2523ZM15.1734 13.5829C14.8171 13.5834 14.4721 13.7074 14.197 13.9338C13.9219 14.1602 13.7338 14.4749 13.6647 14.8244C13.5956 15.1739 13.6498 15.5365 13.818 15.8505C13.9863 16.1645 14.2581 16.4105 14.5874 16.5466C14.9166 16.6826 15.2829 16.7004 15.6237 16.5967C15.9645 16.4931 16.2589 16.2745 16.4567 15.9782C16.6545 15.6819 16.7434 15.3262 16.7084 14.9717C16.6734 14.6172 16.5165 14.2857 16.2646 14.0339C16.1216 13.8902 15.9515 13.7764 15.7642 13.699C15.5769 13.6216 15.376 13.5821 15.1734 13.5829Z" fill="black"/>
<path d="M22.5455 24.1149C22.6331 24.2083 22.8478 24.4516 22.8928 24.4962L22.9151 24.5177C22.9266 24.5311 22.9398 24.5431 22.9542 24.5533C23.4791 25.0254 24.2343 25.0617 24.6751 24.6194C25.0889 24.2056 25.0838 23.5149 24.6919 22.9974C24.586 22.8809 24.4743 22.7698 24.3571 22.6646C24.3137 22.6278 24.2789 22.5958 24.2621 22.5825C23.0555 21.4647 19.1177 17.6407 19.1952 15.4004C19.1983 15.307 19.1952 14.9143 19.1952 14.8009C19.1842 12.5531 23.0672 8.78316 24.2633 7.67474C24.2781 7.66145 24.3149 7.62938 24.3583 7.59222C24.4755 7.48725 24.5873 7.37628 24.6931 7.25977C25.0842 6.74233 25.0901 6.05162 24.6763 5.63782C24.2355 5.19703 23.4802 5.23184 22.9554 5.70392C22.9409 5.71416 22.9278 5.72611 22.9163 5.73951C22.9088 5.74694 22.9014 5.75359 22.894 5.76063C22.849 5.80561 22.6343 6.04888 22.5467 6.14275C21.369 7.40409 17.8818 10.9425 15.6771 11.1099C15.5035 11.1232 14.9097 11.1205 14.7646 11.1146C12.5075 11.0258 8.8197 7.22887 7.72771 6.0481C7.71402 6.03324 7.68234 5.99647 7.64518 5.95306C7.54031 5.83571 7.42934 5.72396 7.31273 5.61826C6.79529 5.22715 6.10458 5.22128 5.69078 5.63469C5.25 6.07587 5.28441 6.83111 5.75688 7.3556C5.76725 7.36992 5.77919 7.38304 5.79247 7.39471L5.81359 7.41661C5.85857 7.46198 6.10184 7.67631 6.19532 7.76392C7.42303 8.91223 10.8116 12.2504 11.141 14.4602C11.1766 14.698 11.1742 15.6691 11.1105 15.9703C10.6411 18.1777 7.39174 21.3771 6.19376 22.4953C6.10028 22.5833 5.85701 22.7976 5.81203 22.8426L5.79091 22.8649C5.77751 22.8764 5.76556 22.8895 5.75532 22.904C5.28285 23.4288 5.24687 24.1841 5.68922 24.6249C6.10302 25.0387 6.79373 25.034 7.31117 24.6417C7.42768 24.5359 7.53864 24.4241 7.64362 24.3069C7.68077 24.2635 7.71245 24.2287 7.72653 24.2119C8.79428 23.0588 12.3331 19.4117 14.6004 19.1571C14.8049 19.134 15.5289 19.1348 15.7178 19.1528C17.9248 19.3609 21.3753 22.8633 22.5455 24.1149ZM16.8661 16.8159C16.5313 17.1507 16.1047 17.3787 15.6403 17.4711C15.1759 17.5635 14.6946 17.5161 14.2571 17.3349C13.8196 17.1537 13.4457 16.8469 13.1827 16.4532C12.9196 16.0595 12.7792 15.5966 12.7792 15.1231C12.7792 14.6496 12.9196 14.1868 13.1827 13.7931C13.4457 13.3994 13.8196 13.0925 14.2571 12.9113C14.6946 12.7301 15.1759 12.6827 15.6403 12.7751C16.1047 12.8675 16.5313 13.0956 16.8661 13.4304C17.0903 13.6516 17.2682 13.9152 17.3897 14.2058C17.5112 14.4964 17.5738 14.8082 17.5738 15.1231C17.5738 15.4381 17.5112 15.7499 17.3897 16.0405C17.2682 16.3311 17.0903 16.5946 16.8661 16.8159Z" fill="black"/>
</g>
<defs>
<clipPath id="clip0_1038_940">
<rect width="28" height="28" fill="white" transform="translate(1 1)"/>
</clipPath>
</defs>
</svg>
