<svg width="30" height="30" viewBox="0 0 30 30" xmlns="http://www.w3.org/2000/svg">
<path d="M8.06533 14.7401V9.00006H9.46533V12.5304C10.1537 11.7102 11.101 11.4734 12.0343 11.4734C13.5977 11.4734 15.3337 12.5281 15.3337 14.8042C15.3337 15.0761 15.3162 15.3374 15.2637 15.5836C15.5437 14.4717 16.75 14.0611 18.6423 14.0156C19.2373 13.9946 19.9198 13.9946 20.4623 13.9946V13.8371C20.4623 12.8046 19.8137 12.3857 18.6773 12.3857C17.8373 12.3857 17.2248 12.7357 17.1548 13.3307H15.6673C15.826 11.8257 17.4173 11.4407 18.801 11.4407C20.0423 11.4407 21.1285 11.7557 21.6185 12.6307L21.1098 11.6507H22.7548L25.1523 16.4632L27.5498 11.6496H29L24.66 20.1721H23.0897L24.338 17.7921L21.6197 12.6821C21.7713 12.9796 21.853 13.3296 21.853 13.7671V16.6371C21.853 17.0407 21.8647 17.4421 21.8997 17.8096H20.6C20.5647 17.5134 20.5468 17.2154 20.5463 16.9171C19.8428 17.7734 19.0063 18.0371 17.8397 18.0371C16.113 18.0371 15.189 17.1271 15.189 16.0596C15.189 15.8846 15.2065 15.7282 15.2322 15.5871C14.8822 17.0407 13.6455 18.0207 12.004 18.0207C10.989 18.0207 10.0277 17.6532 9.43733 16.9357C9.43733 17.2157 9.41983 17.5121 9.39067 17.7921H8.014C8.03733 17.3371 8.06067 16.7946 8.06067 16.3396V15.1146H2.42567C2.5015 16.3921 3.38 17.1446 4.5875 17.1446C5.42517 17.1446 6.16833 16.7946 6.41683 16.0596H7.8635C7.5835 17.5646 5.98517 18.0721 4.6085 18.0721C2.10833 18.0966 1 16.7117 1 14.8567C1 12.8104 2.14567 11.4617 4.63533 11.4617C6.60467 11.4617 8.05367 12.4954 8.06533 14.7354V14.7412V14.7401ZM18.7252 14.9536C17.4477 14.9932 16.6602 15.2254 16.6602 16.0619C16.6602 16.6044 17.0802 17.1936 18.1827 17.1936C19.6527 17.1936 20.4402 16.3886 20.4402 15.0772V14.9256C19.9152 14.9256 19.2852 14.9326 18.7088 14.9512H18.7228L18.7252 14.9536ZM11.6552 17.1411C12.9502 17.1411 13.8438 16.2007 13.8438 14.7844C13.8438 13.3681 12.9478 12.4277 11.6353 12.4277C10.3403 12.4277 9.43033 13.3681 9.43033 14.7844C9.43033 16.2007 10.3228 17.1411 11.6178 17.1411H11.6528H11.6552ZM6.58017 14.2081C6.52883 12.8956 5.58383 12.4044 4.56767 12.4044C3.46633 12.4044 2.59133 12.9574 2.45017 14.2081H6.58017Z" fill="black"/>
</svg>
