<svg width="30" height="30" viewBox="0 0 30 30" xmlns="http://www.w3.org/2000/svg">
<path d="M13.6 2.4C13.6 3.24 13.04 3.8 12.2 3.8H5.2C4.36 3.8 3.8 4.36 3.8 5.2L3.8 24.8C3.8 25.64 4.36 26.2 5.2 26.2H24.8C25.64 26.2 26.2 25.64 26.2 24.8V17.8C26.2 16.96 26.76 16.4 27.6 16.4C28.44 16.4 29 16.96 29 17.8V26.2C29 27.74 27.74 29 26.2 29H3.8C2.26 29 1 27.74 1 26.2L1 3.8C1 2.26 2.26 1 3.8 1H12.2C13.04 1 13.6 1.56 13.6 2.4Z" fill="black"/>
<path d="M12.0604 17.6171C11.424 16.9807 11.424 16.1322 12.0604 15.4958L25.4954 2.06073C26.1318 1.42434 26.9804 1.42434 27.6168 2.06074C28.2532 2.69713 28.2532 3.54566 27.6168 4.18205L14.1818 17.6171C13.5454 18.2535 12.6968 18.2535 12.0604 17.6171Z" fill="black"/>
</svg>
