<svg width="31" height="30" viewBox="0 0 31 30" xmlns="http://www.w3.org/2000/svg">
<path d="M25.8774 2.9248C27.9914 2.9248 29.7274 4.6608 29.7274 6.7748V23.2248C29.7274 25.3388 27.9914 27.0748 25.8774 27.0748H5.57742C3.46342 27.0748 1.72742 25.3388 1.72742 23.2248V6.7748C1.72742 4.6608 3.46342 2.9248 5.57742 2.9248H25.8774ZM25.8774 5.0248H5.57742C4.59882 5.0248 3.82742 5.7962 3.82742 6.7748V14.4088H6.80522C6.86765 14.3982 6.9309 14.3933 6.99422 14.3941C7.04537 14.3953 7.09638 14.4002 7.14682 14.4088H10.3052C10.3676 14.3982 10.4309 14.3933 10.4942 14.3941C10.5454 14.3953 10.5964 14.4002 10.6468 14.4088H17.3052C17.3676 14.3982 17.4309 14.3933 17.4942 14.3941C17.5454 14.3953 17.5964 14.4002 17.6468 14.4088H20.8052C20.8676 14.3982 20.9309 14.3933 20.9942 14.3941C21.0454 14.3953 21.0964 14.4002 21.1468 14.4088H24.3052C24.3676 14.3982 24.4309 14.3933 24.4942 14.3941C24.5454 14.3953 24.5964 14.4002 24.6468 14.4088H27.6274V6.7748C27.6274 5.7962 26.856 5.0248 25.8774 5.0248ZM27.6274 16.5088H25.5274V21.0588C25.5274 21.3373 25.4168 21.6044 25.2199 21.8013C25.023 21.9982 24.7559 22.1088 24.4774 22.1088C24.1989 22.1088 23.9319 21.9982 23.735 21.8013C23.538 21.6044 23.4274 21.3373 23.4274 21.0588V16.5088H22.0274V21.0588C22.0274 21.3373 21.9168 21.6044 21.7199 21.8013C21.523 21.9982 21.2559 22.1088 20.9774 22.1088C20.6989 22.1088 20.4319 21.9982 20.235 21.8013C20.038 21.6044 19.9274 21.3373 19.9274 21.0588V16.5088H18.5274V21.0588C18.5274 21.3373 18.4168 21.6044 18.2199 21.8013C18.023 21.9982 17.7559 22.1088 17.4774 22.1088C17.1989 22.1088 16.9319 21.9982 16.735 21.8013C16.538 21.6044 16.4274 21.3373 16.4274 21.0588V16.5088H11.5274V21.0588C11.5274 21.3373 11.4168 21.6044 11.2199 21.8013C11.023 21.9982 10.7559 22.1088 10.4774 22.1088C10.1989 22.1088 9.93187 21.9982 9.73495 21.8013C9.53804 21.6044 9.42742 21.3373 9.42742 21.0588V16.5088H8.02742V21.0588C8.02742 21.3373 7.91679 21.6044 7.71988 21.8013C7.52297 21.9982 7.25589 22.1088 6.97742 22.1088C6.69894 22.1088 6.43187 21.9982 6.23496 21.8013C6.03804 21.6044 5.92742 21.3373 5.92742 21.0588V16.5088H3.82742V23.2248C3.82742 24.2034 4.59882 24.9748 5.57742 24.9748H25.8774C26.1078 24.9769 26.3363 24.933 26.5495 24.8458C26.7628 24.7586 26.9565 24.6297 27.1194 24.4668C27.2823 24.3039 27.4112 24.1102 27.4984 23.8969C27.5856 23.6837 27.6295 23.4552 27.6274 23.2248V16.5088Z" fill="black"/>
<path d="M5.9216 4.96436H8.01285V10.4822C8.01285 11.0597 7.54471 11.5278 6.96723 11.5278C6.38974 11.5278 5.9216 11.0597 5.9216 10.4822V4.96436Z" fill="black"/>
<path d="M9.4379 4.96436H11.5291V10.4822C11.5291 11.0597 11.061 11.5278 10.4835 11.5278C9.90604 11.5278 9.4379 11.0597 9.4379 10.4822V4.96436Z" fill="black"/>
<path d="M16.4095 4.96436H18.5007V10.4822C18.5007 11.0597 18.0326 11.5278 17.4551 11.5278C16.8776 11.5278 16.4095 11.0597 16.4095 10.4822V4.96436Z" fill="black"/>
<path d="M19.9258 4.96436H22.017V10.4822C22.017 11.0597 21.5489 11.5278 20.9714 11.5278C20.3939 11.5278 19.9258 11.0597 19.9258 10.4822V4.96436Z" fill="black"/>
<path d="M23.442 4.96436H25.5332V10.4822C25.5332 11.0597 25.0651 11.5278 24.4876 11.5278C23.9101 11.5278 23.442 11.0597 23.442 10.4822V4.96436Z" fill="black"/>
</svg>
