<svg width="31" height="30" viewBox="0 0 31 30" xmlns="http://www.w3.org/2000/svg">
<g clip-path="url(#clip0_1082_365)">
<path d="M25.8531 12.5156H5.72321C5.35114 12.5156 5.00836 12.7178 4.82672 13.043L0.915588 20.0596C0.830627 20.2119 0.786682 20.3848 0.786682 20.5605V28.9717C0.786682 29.54 1.24664 30 1.815 30H29.7613C30.3297 30 30.7896 29.54 30.7896 28.9717V20.5605C30.7896 20.3848 30.7457 20.2148 30.6607 20.0596L26.7496 13.043C26.5679 12.7178 26.2252 12.5156 25.8531 12.5156ZM20.5152 20.3789C20.0318 20.3789 19.6129 20.7158 19.5103 21.1904C19.1382 22.9043 17.6119 24.1875 15.7838 24.1875C13.9556 24.1875 12.4293 22.9043 12.0572 21.1904C11.9547 20.7188 11.5357 20.3789 11.0523 20.3789H4.27301C3.49957 20.3789 3.00446 19.5586 3.36188 18.873L5.75543 14.3086C5.93414 13.9688 6.28278 13.7578 6.66656 13.7578H24.9009C25.2818 13.7578 25.6334 13.9688 25.8121 14.3086L28.2056 18.873C28.563 19.5586 28.0679 20.3789 27.2945 20.3789H20.5152ZM24.8072 6.1377C24.7779 6.08496 24.7457 6.0293 24.7134 5.97656C24.4263 5.49023 23.8023 5.32617 23.313 5.60742L19.7857 7.64648C19.2877 7.93359 19.1207 8.57227 19.4166 9.06445C19.4429 9.10547 19.4664 9.14941 19.4898 9.19336C19.7681 9.69141 20.4039 9.86133 20.8961 9.57422L24.4293 7.53809C24.9185 7.25391 25.0855 6.62988 24.8072 6.1377ZM11.7847 7.64941L8.25739 5.61328C7.76813 5.33203 7.1441 5.49609 6.85699 5.98242C6.82477 6.03516 6.79547 6.08789 6.76324 6.14355C6.48492 6.63574 6.65192 7.25977 7.14117 7.54395L10.6685 9.58008C11.1636 9.86426 11.7994 9.69727 12.0748 9.19629C12.0982 9.15234 12.1246 9.11133 12.148 9.06738C12.4468 8.5752 12.2798 7.93652 11.7847 7.64941ZM15.7867 7.01074H15.8599C16.4312 7.01953 16.9 6.55664 16.9 5.98242V1.91016C16.9 1.34473 16.4429 0.887695 15.8804 0.881836H15.6929C15.1304 0.887695 14.6734 1.34766 14.6734 1.91016V5.98242C14.6734 6.55371 15.1392 7.01953 15.7134 7.01074H15.7867Z" fill="black"/>
</g>
<defs>
<clipPath id="clip0_1082_365">
<rect width="30" height="30" fill="white" transform="translate(0.786682)"/>
</clipPath>
</defs>
</svg>
