<svg width="30" height="30" viewBox="0 0 30 30"  xmlns="http://www.w3.org/2000/svg">
<path d="M5.12708 1C3.52641 1 2.93608 1.59033 2.93608 3.191V22.5168C2.93608 22.6977 2.94425 22.8657 2.95825 23.0197C2.99791 23.372 3.00141 23.7115 3.32808 24.0953C3.35841 24.1397 3.68975 24.3823 3.68975 24.3823C3.86591 24.471 3.98958 24.5317 4.19141 24.6157L13.9144 28.6897C14.4172 28.9195 14.6296 29.0117 14.9947 28.9988H14.9994C15.3692 29.0117 15.5816 28.9195 16.0844 28.6897L25.8062 24.6157C26.0092 24.5317 26.1282 24.471 26.3091 24.3823C26.3091 24.3823 26.6404 24.135 26.6707 24.0953C26.9974 23.7115 27.0009 23.372 27.0406 23.0197C27.0546 22.8657 27.0639 22.6977 27.0639 22.518V3.18983C27.0627 1.59033 26.4712 1 24.8706 1H5.12708ZM20.7091 4.62833H21.5024C22.8254 4.62833 23.4694 5.27233 23.4694 6.60817V8.80033H21.8687V6.69683C21.8687 6.26867 21.6704 6.07033 21.2562 6.07033H20.9832C20.5551 6.07033 20.3567 6.26867 20.3567 6.69683V13.4787C20.3567 13.9057 20.5551 14.104 20.9832 14.104H21.2866C21.6972 14.104 21.8956 13.9057 21.8956 13.4787V11.052H23.5009V13.5533C23.5009 14.8892 22.8429 15.546 21.5164 15.546H20.7091C19.3779 15.546 18.7257 14.8845 18.7257 13.5533V6.62217C18.7257 5.28983 19.3779 4.62833 20.7091 4.62833ZM6.48975 4.717H10.1227V6.20683H8.12075V9.24483H10.0481V10.7312H8.12075V13.9675H10.1496V15.4538H6.48975V4.717ZM10.9429 4.717H13.5049C14.8314 4.717 15.4882 5.3785 15.4882 6.71433V9.56683C15.4882 10.9027 14.8314 11.5607 13.5049 11.5607H12.5786V15.4538H10.9429V4.717ZM16.2256 4.717H17.8566V15.4538H16.2256V4.717ZM12.5739 6.16367V10.1187H13.2494C13.6589 10.1187 13.8572 9.92033 13.8572 9.48867V6.79367C13.8572 6.362 13.6589 6.16367 13.2494 6.16367H12.5739ZM8.07641 18.01H8.31908L8.37275 18.0182H8.46025L8.50458 18.0322H8.54891L8.59325 18.045L8.63641 18.0543L8.67608 18.0625L8.71575 18.0718L8.75541 18.08L8.79975 18.094L8.83475 18.1022L8.86975 18.1162L8.91408 18.129L8.94908 18.1465L8.99458 18.164L9.03425 18.1815L9.06925 18.2048L9.11358 18.2212L9.14391 18.2445L9.18825 18.2655L9.22325 18.2888L9.26291 18.3098L9.29791 18.3367L9.33291 18.3588L9.36791 18.3845L9.40408 18.4113L9.43908 18.4417L9.47408 18.4685L9.44841 18.5035L9.41691 18.535L9.39125 18.57L9.35975 18.605L9.33408 18.6365L9.30725 18.6668L9.27575 18.7018L9.25008 18.7368L9.22325 18.7683L9.19291 18.8033L9.16608 18.8383L9.13458 18.8733L9.10891 18.9048L9.08208 18.9398L9.05175 18.9748L9.02491 19.011L8.99458 19.0413L8.96775 19.0763L8.93275 19.0507L8.89775 19.0203L8.86275 18.997L8.82191 18.9713L8.79158 18.9492L8.75191 18.927L8.71691 18.9048L8.67608 18.8827L8.64108 18.8652L8.60608 18.8477L8.57108 18.8348L8.53141 18.8208L8.48708 18.8092L8.45208 18.7998L8.40775 18.7905L8.36341 18.7812L8.31908 18.7777H8.27125L8.21758 18.7683H8.13008L8.08575 18.773H8.04141L7.99708 18.7858L7.95741 18.7952L7.91775 18.808L7.87458 18.8208L7.83958 18.8383L7.79525 18.857L7.76375 18.878L7.72875 18.9013L7.69375 18.9223L7.66225 18.9492L7.63191 18.976L7.60041 19.0017L7.57475 19.0332L7.53975 19.0635L7.51641 19.0985L7.49541 19.13L7.46858 19.165L7.45108 19.2047L7.42775 19.2397L7.40675 19.2793L7.39391 19.319L7.37525 19.3587L7.36358 19.403L7.35775 19.4473L7.34491 19.487L7.33558 19.536V19.5792L7.32741 19.6235V19.7285L7.33208 19.774L7.33558 19.8137L7.34025 19.8568L7.34958 19.9012L7.36241 19.9362L7.36708 19.9805L7.37991 20.0155L7.39391 20.0505L7.41141 20.096L7.43358 20.1392L7.45108 20.1742L7.47325 20.2092L7.49891 20.2453L7.52575 20.2803L7.54791 20.3118L7.58291 20.3422L7.60975 20.3737L7.64008 20.3993L7.67508 20.4262L7.71008 20.453L7.74625 20.4752L7.78125 20.4962L7.82091 20.5148L7.86525 20.5323L7.90025 20.5498L7.94458 20.5627L7.98891 20.5767L8.03325 20.5848L8.07641 20.5942L8.12075 20.5988L8.17441 20.6023H8.31908L8.37275 20.5942H8.41591L8.46025 20.5802L8.50458 20.572L8.54891 20.558L8.58858 20.5498L8.62825 20.5323L8.66325 20.5148L8.70758 20.4962L8.73441 20.4787L8.76941 20.4565V20.0517H8.12541V19.3983H9.58025V20.8543L9.54991 20.88L9.51491 20.9068L9.48341 20.929L9.44841 20.9558L9.41341 20.9768L9.37841 21.0037L9.34341 21.0258L9.30725 21.048L9.26291 21.0702L9.22325 21.0923L9.18825 21.1145L9.14391 21.132L9.10891 21.1542L9.06458 21.1717L9.02025 21.1892L8.97591 21.2067L8.93625 21.2242L8.89658 21.237L8.85691 21.251L8.81375 21.2638L8.77408 21.2767L8.72975 21.2907L8.69008 21.2988L8.64575 21.3082L8.60141 21.3175L8.55708 21.3257L8.51391 21.3303L8.46958 21.335L8.42525 21.3397L8.37275 21.3432L8.32841 21.3478L8.27941 21.3525H8.05075L8.00175 21.3432H7.95741L7.91425 21.335H7.86991L7.82558 21.321L7.78125 21.3128L7.73691 21.3035L7.69375 21.2953L7.65875 21.2813L7.61441 21.2732L7.57008 21.2592L7.53041 21.2417L7.49075 21.2288L7.44641 21.2113L7.40675 21.1938L7.36241 21.1763L7.32741 21.1577L7.28308 21.1367L7.25275 21.1133L7.20841 21.0923L7.17691 21.069L7.14191 21.048L7.10691 21.0212L7.07191 20.9943L7.03225 20.9687L7.00541 20.9418L6.97041 20.915L6.93891 20.8847L6.90858 20.8578L6.87708 20.8275L6.85141 20.796L6.81991 20.7657L6.79425 20.7307L6.76741 20.6992L6.74525 20.6642L6.71841 20.6292L6.69625 20.5942L6.67525 20.5592L6.65191 20.5183L6.63091 20.4833L6.61341 20.4437L6.59591 20.404L6.57725 20.3643L6.55975 20.3247L6.54691 20.2897L6.52941 20.25L6.52008 20.2103L6.50725 20.1707L6.49791 20.1263L6.48508 20.0867L6.47575 20.0423L6.47225 20.0027L6.46291 19.9583L6.45825 19.9187L6.45475 19.8743L6.45008 19.8312L6.44541 19.7868V19.5442L6.45475 19.4998V19.452L6.46641 19.4077V19.3633L6.48041 19.319L6.49441 19.2758L6.50258 19.2315L6.51541 19.1918L6.52941 19.1475L6.54225 19.1078L6.55975 19.0635L6.57725 19.0238L6.59591 18.9842L6.61341 18.9445L6.63091 18.9048L6.65308 18.8652L6.67525 18.8302L6.69625 18.7952L6.71958 18.7602L6.74058 18.7252L6.76741 18.689L6.79425 18.654L6.81991 18.619L6.85141 18.5875L6.87708 18.5572L6.90391 18.5257L6.93891 18.4953L6.96575 18.4638L7.00075 18.437L7.03225 18.4067L7.06725 18.3798L7.10225 18.3542L7.13725 18.3308L7.17225 18.3052L7.20725 18.283L7.24341 18.2608L7.28308 18.2387L7.32741 18.2165L7.36241 18.1955L7.40675 18.1768L7.44641 18.1593L7.49075 18.1372L7.52575 18.1255L7.57008 18.1115L7.60975 18.094L7.64941 18.0847L7.68908 18.0718L7.73341 18.0625L7.77308 18.0497L7.81625 18.0403H7.86058L7.90491 18.0275H7.94925L7.99358 18.0182H8.03675L8.07641 18.01ZM22.0636 18.0182H22.3051L22.3587 18.0275H22.4462L22.4906 18.0403H22.5431L22.5874 18.0543L22.6271 18.0625L22.6714 18.0718L22.7157 18.08L22.7554 18.0893L22.7997 18.1022L22.8429 18.1162L22.8779 18.1243L22.9222 18.1418L22.9666 18.1558L23.0016 18.1733L23.0459 18.1908L23.0902 18.2083L23.1299 18.2317L23.1614 18.248L23.2046 18.2713L23.2442 18.2923L23.2792 18.3145L23.3201 18.3413L23.3551 18.3623L23.3901 18.3892L23.4251 18.416L23.4601 18.4417L23.4344 18.4767L23.4122 18.5128L23.3854 18.5478L23.3597 18.5828L23.3329 18.6225L23.3107 18.6575L23.2839 18.6925L23.2582 18.7287L23.2349 18.7637L23.2092 18.7987L23.1824 18.8337L23.1567 18.8698L23.1334 18.9095L23.1077 18.9445L23.0774 18.9795L23.0541 19.0145L23.0284 19.0507L22.9934 19.0238L22.9537 19.0017L22.9187 18.9807L22.8837 18.9538L22.8429 18.9363L22.8079 18.913L22.7636 18.8967L22.7332 18.8792L22.6889 18.8605L22.6539 18.843L22.6189 18.8302L22.5792 18.8127L22.5349 18.7998L22.4906 18.7858L22.4462 18.773L22.3984 18.7637L22.3541 18.7555L22.3097 18.7462L22.2654 18.7415L22.2222 18.7368L22.1826 18.7333H22.0846L22.0367 18.7415L21.9924 18.7508L21.9481 18.759L21.9131 18.7777L21.8827 18.7952L21.8431 18.8302L21.8162 18.8698L21.7987 18.9095V19.0192L21.8209 19.0682L21.8384 19.095L21.8687 19.1253L21.9131 19.1487L21.9481 19.1697L21.9924 19.1872L22.0367 19.2047L22.0939 19.2222L22.1289 19.2315L22.1639 19.2443L22.2082 19.2537L22.2432 19.2665L22.2876 19.2758L22.3366 19.2887L22.3844 19.3015L22.4334 19.3155L22.4824 19.3237L22.5256 19.3377L22.5746 19.3505L22.6189 19.3598L22.6621 19.3727L22.7064 19.3855L22.7507 19.3995L22.7951 19.4123L22.8347 19.4252L22.8791 19.4392L22.9222 19.4567L22.9666 19.4788L23.0109 19.4963L23.0552 19.5185L23.0996 19.5407L23.1346 19.5628L23.1696 19.5838L23.2092 19.6107L23.2407 19.634L23.2804 19.6643L23.3107 19.6947L23.3457 19.7297L23.3772 19.7612L23.3994 19.7962L23.4297 19.8405L23.4519 19.8708L23.4694 19.9152L23.4916 19.9455L23.5044 19.9898L23.5184 20.0248L23.5266 20.0692L23.5359 20.1135L23.5441 20.1578L23.5487 20.2022L23.5534 20.2453V20.3562L23.5487 20.404L23.5441 20.4483L23.5406 20.4973L23.5312 20.5417L23.5184 20.5848L23.5091 20.6292L23.4962 20.6735L23.4787 20.7132L23.4612 20.7482L23.4426 20.7878L23.4216 20.8228L23.3947 20.8578L23.3714 20.8928L23.3504 20.929L23.3201 20.9605L23.2932 20.9908L23.2617 21.0177L23.2267 21.048L23.1964 21.0748L23.1614 21.1017L23.1264 21.1227L23.0902 21.1495L23.0459 21.1717L23.0109 21.1892L22.9666 21.2125L22.9222 21.2288L22.8791 21.2463L22.8347 21.2603L22.7904 21.2732L22.7554 21.286L22.7111 21.2953L22.6667 21.3047L22.6317 21.3128L22.5874 21.3222H22.5431L22.4999 21.3303H22.4556L22.4112 21.3397H22.0846L22.0414 21.335L21.9971 21.3303L21.9481 21.3268L21.9037 21.3175L21.8606 21.3128L21.8162 21.3047L21.7719 21.2953L21.7229 21.2825L21.6797 21.2732L21.6354 21.2603L21.5911 21.251L21.5467 21.2382L21.5036 21.2242L21.4592 21.2067L21.4196 21.1938L21.3752 21.181L21.3309 21.1623L21.2959 21.1448L21.2516 21.1273L21.2166 21.1052L21.1722 21.0877L21.1326 21.0655L21.1022 21.0433L21.0579 21.0212L21.0264 21.0002L20.9867 20.9768L20.9517 20.9512L20.9167 20.9243L20.8817 20.8987L20.8467 20.8718L20.8152 20.845L20.7802 20.8147L20.8059 20.7797L20.8374 20.7482L20.8642 20.7132L20.8946 20.6782L20.9214 20.6467L20.9471 20.6117L20.9786 20.5767L21.0054 20.5452L21.0357 20.5102L21.0626 20.4798L21.0929 20.4448L21.1197 20.4098L21.1454 20.3783L21.1769 20.3433L21.2037 20.3083L21.2341 20.2768L21.2656 20.2418L21.2959 20.2675L21.3402 20.2943L21.3706 20.3212L21.4149 20.3468L21.4499 20.3702L21.4896 20.3958L21.5246 20.418L21.5654 20.4355L21.6004 20.4577L21.6401 20.4752L21.6844 20.4927L21.7194 20.5102L21.7637 20.523L21.7987 20.5417L21.8431 20.5533L21.8862 20.5673L21.9306 20.5813L21.9749 20.5895L22.0192 20.5988L22.0636 20.607H22.1114L22.1557 20.621H22.3984L22.4427 20.6117L22.4859 20.6023L22.5209 20.5942L22.5559 20.5813L22.5874 20.5627L22.6271 20.537L22.6504 20.5055L22.6714 20.4705L22.6842 20.4262V20.3247L22.6667 20.2815L22.6411 20.2465L22.6142 20.2197L22.5746 20.1928L22.5431 20.1753L22.4999 20.1578L22.4556 20.1403L22.4031 20.117L22.3716 20.1088L22.3366 20.0995L22.2922 20.0878L22.2572 20.0785L22.2129 20.0645L22.1686 20.0563L22.1207 20.0423L22.0764 20.0342L22.0274 20.0202L21.9842 20.012L21.9399 19.998L21.8956 19.9898L21.8512 19.9758L21.8069 19.9642L21.7637 19.9548L21.7241 19.9408L21.6844 19.928L21.6447 19.914L21.6004 19.8965L21.5514 19.879L21.5071 19.8615L21.4639 19.844L21.4196 19.8218L21.3752 19.7997L21.3449 19.7775L21.3006 19.7553L21.2691 19.7297L21.2294 19.7063L21.2037 19.6807L21.1722 19.6503L21.1372 19.6188L21.1104 19.5885L21.0847 19.557L21.0614 19.5267L21.0404 19.4917L21.0171 19.452L21.0007 19.4205L20.9867 19.3855L20.9739 19.3458L20.9611 19.3108L20.9517 19.2665L20.9436 19.2268V19.1825L20.9342 19.1382V18.9492L20.9389 18.9048L20.9436 18.8605L20.9517 18.8255L20.9611 18.7812L20.9739 18.7462L20.9832 18.7018L21.0007 18.6668L21.0182 18.6225L21.0357 18.5875L21.0579 18.5432L21.0801 18.5082L21.1104 18.4732L21.1337 18.4382L21.1687 18.4032L21.1991 18.3717L21.2259 18.3367L21.2656 18.3052L21.2912 18.283L21.3309 18.2562L21.3659 18.2305L21.4009 18.2072L21.4452 18.1862L21.4802 18.1687L21.5257 18.1465L21.5607 18.129L21.6051 18.115L21.6482 18.0975L21.6926 18.0847L21.7241 18.0753L21.7672 18.0672L21.8022 18.0578L21.8466 18.0497L21.8909 18.0403L21.9352 18.0357L21.9796 18.031L22.0239 18.0275L22.0636 18.0182ZM11.2871 18.0497H12.1119L12.1294 18.0893L12.1469 18.129L12.1644 18.1687L12.1772 18.213L12.1947 18.2527L12.2122 18.2923L12.2309 18.332L12.2484 18.3717L12.2612 18.4113L12.2834 18.4545L12.3009 18.4942L12.3184 18.535L12.3277 18.5747L12.3452 18.6143L12.3674 18.654L12.3849 18.6972L12.4024 18.7368L12.4152 18.7765L12.4327 18.8162L12.4561 18.8558L12.4677 18.8955L12.4864 18.9398L12.4992 18.9842L12.5167 19.0192L12.5401 19.0635L12.5564 19.0985L12.5739 19.1428L12.5879 19.1872L12.6007 19.2222L12.6229 19.2665L12.6404 19.3015L12.6579 19.3458L12.6707 19.3808L12.6894 19.4252L12.7116 19.4695L12.7291 19.5092L12.7419 19.5488L12.7547 19.5885L12.7722 19.6282L12.7956 19.6678L12.8119 19.711L12.8306 19.7518L12.8422 19.7915L12.8609 19.8312L12.8784 19.8708L12.8959 19.9105L12.9134 19.9537L12.9274 19.9933L12.9449 20.033L12.9671 20.0727L12.9846 20.1123L13.0021 20.152L13.0114 20.1963L13.0289 20.236L13.0511 20.2757L13.0686 20.3153L13.0814 20.355L13.0989 20.3947L13.1164 20.439L13.1397 20.4833L13.1514 20.5183L13.1701 20.5627L13.1829 20.5977L13.2004 20.642L13.2226 20.6863L13.2401 20.7213L13.2529 20.7657L13.2716 20.8007L13.2844 20.845L13.3066 20.88L13.3241 20.9243L13.3369 20.9687L13.3544 21.0037L13.3731 21.048L13.3941 21.083L13.4127 21.1273L13.4244 21.1705L13.4384 21.2055L13.4559 21.2498L13.4792 21.2848H12.5657L12.5424 21.2463L12.5307 21.2067L12.5121 21.167L12.4946 21.1227L12.4817 21.083L12.4642 21.0433L12.4467 21.0037L12.4327 20.964L12.4152 20.9243L12.3977 20.8847L12.3849 20.845L12.3674 20.8007L12.3499 20.761L12.3359 20.7213L12.3184 20.6817H11.0526L11.0351 20.726L11.0222 20.761L11.0047 20.8053L10.9826 20.8485L10.9732 20.8835L10.9557 20.929L10.9382 20.964L10.9254 21.0083L10.9079 21.0433L10.8904 21.0877L10.8764 21.1227L10.8589 21.167L10.8414 21.2102L10.8239 21.2452L10.8111 21.2895H9.90691L9.92441 21.2463L9.94191 21.2067L9.95941 21.167L9.97341 21.1227L9.98508 21.083L10.0084 21.0433L10.0259 21.0037L10.0434 20.964L10.0562 20.9243L10.0737 20.88L10.0971 20.8403L10.1134 20.8007L10.1274 20.761L10.1402 20.7213L10.1577 20.6817L10.1811 20.6373L10.1974 20.5977L10.2149 20.558L10.2289 20.5183L10.2464 20.4787L10.2639 20.439L10.2814 20.3947L10.2989 20.3503L10.3129 20.3153L10.3304 20.271L10.3526 20.236L10.3701 20.1917L10.3829 20.1485L10.3957 20.1135L10.4132 20.0692L10.4366 20.0342L10.4529 19.9898L10.4716 19.9548L10.4832 19.9105L10.5019 19.8662L10.5241 19.8312L10.5369 19.7868L10.5544 19.7518L10.5684 19.7075L10.5859 19.6632L10.6081 19.6282L10.6256 19.5838L10.6384 19.5488L10.6559 19.5045L10.6699 19.4695L10.6921 19.4252L10.7096 19.3808L10.7271 19.3412L10.7399 19.3015L10.7574 19.2618L10.7807 19.2222L10.7971 19.1825L10.8064 19.1382L10.8239 19.0985L10.8414 19.0588L10.8636 19.0192L10.8811 18.9795L10.8939 18.9398L10.9126 18.8955L10.9301 18.8523L10.9476 18.8173L10.9651 18.773L10.9779 18.738L10.9954 18.6937L11.0129 18.6493L11.0362 18.6143L11.0526 18.57L11.0666 18.535L11.0794 18.4907L11.0969 18.4557L11.1202 18.4113L11.1366 18.367L11.1506 18.332L11.1681 18.2877L11.1856 18.2527L11.2077 18.2083L11.2206 18.164L11.2334 18.129L11.2521 18.0847L11.2871 18.0497ZM13.8444 18.0718H14.7486L14.7742 18.1068L14.7976 18.1465L14.8232 18.1815L14.8454 18.2212L14.8676 18.2562L14.8897 18.2958L14.9107 18.3308L14.9376 18.3717L14.9597 18.4067L14.9819 18.4417L15.0041 18.4813L15.0262 18.5163L15.0566 18.556L15.0741 18.591L15.0974 18.6318L15.1231 18.6668L15.1499 18.7018L15.1674 18.7415L15.1931 18.7765L15.2164 18.8162L15.2327 18.8512L15.2642 18.892L15.2864 18.927L15.3086 18.9667L15.3307 19.0017L15.3517 19.0367L15.3786 19.0763L15.4007 19.1113L15.4229 19.1522L15.4451 19.1872L15.4672 19.2268L15.4929 19.2618L15.5162 19.3015L15.5372 19.3365L15.5641 19.3015L15.5816 19.2572L15.6084 19.2268L15.6341 19.1825L15.6574 19.1522L15.6737 19.1078L15.7052 19.0763L15.7274 19.0332L15.7449 19.0017L15.7717 18.9667L15.7974 18.9223L15.8207 18.892L15.8417 18.8477L15.8639 18.8162L15.8907 18.773L15.9117 18.7415L15.9351 18.6972L15.9561 18.6668L15.9794 18.6318L16.0051 18.5875L16.0272 18.556L16.0494 18.5128L16.0751 18.4813L16.0984 18.437L16.1194 18.4067L16.1462 18.3717L16.1684 18.3273L16.1941 18.2958L16.2174 18.2527L16.2384 18.2212L16.2617 18.1768L16.2874 18.1465L16.3096 18.1022L16.3317 18.0718H17.2441V21.3257H16.3877V19.4123L16.3667 19.4427L16.3399 19.487L16.3177 19.5173L16.2909 19.5523L16.2687 19.5967L16.2431 19.6282L16.2197 19.6632L16.1941 19.7075L16.1719 19.7378L16.1497 19.7728L16.1194 19.8078L16.0972 19.8533L16.0704 19.8837L16.0482 19.9187L16.0272 19.963L16.0004 19.9933L15.9782 20.0283L15.9514 20.0727L15.9292 20.1042L15.9036 20.1392L15.8802 20.1835L15.8592 20.2138L15.8324 20.2488L15.8102 20.2932L15.7846 20.3247L15.7577 20.3597L15.7356 20.3947L15.7134 20.439L15.6866 20.4705L15.6609 20.5055L15.6434 20.5498L15.6119 20.5802L15.5897 20.6152L15.5641 20.6595L15.5407 20.691H15.5244L15.4976 20.6513L15.4754 20.6163L15.4486 20.5755L15.4264 20.5405L15.4007 20.5008L15.3774 20.4658L15.3517 20.4262L15.3296 20.3912L15.3039 20.3515L15.2806 20.3165L15.2502 20.2757L15.2327 20.2407L15.2059 20.201L15.1802 20.166L15.1569 20.1263L15.1312 20.0913L15.1091 20.047L15.0834 20.012L15.0601 19.9723L15.0344 19.9373L15.0122 19.8965L14.9854 19.8615L14.9644 19.8218L14.9376 19.7868L14.9154 19.7472L14.8886 19.7122L14.8664 19.6725L14.8407 19.6375L14.8174 19.5967L14.7917 19.5617L14.7696 19.522L14.7392 19.487L14.7217 19.4473L14.6949 19.4123V21.3303H13.8491V18.1103L13.8444 18.0718ZM17.8927 18.0718H20.4582V18.8068H18.7432V19.3283H20.2856V20.0202H18.7444V20.5802H20.4816V21.3163H17.8974V18.0975L17.8927 18.0718ZM11.6884 19.0682L11.6709 19.1125L11.6569 19.1475L11.6394 19.1918L11.6219 19.235L11.6091 19.2747L11.5916 19.3143L11.5729 19.3587L11.5554 19.403L11.5426 19.438L11.5251 19.4823L11.5076 19.5173L11.4936 19.5617L11.4761 19.606L11.4586 19.641L11.4457 19.6853L11.4282 19.7203L11.4107 19.7647L11.3921 19.809L11.3804 19.844L11.3617 19.8883L11.3442 19.9327L11.3314 19.9677L11.3127 20.012H12.0629L12.0454 19.9677L12.0314 19.928L12.0139 19.8837L11.9964 19.844L11.9836 19.8043L11.9661 19.7647L11.9486 19.7203L11.9346 19.6807L11.9171 19.641L11.8996 19.6013L11.8867 19.5617L11.8692 19.5173L11.8552 19.4777L11.8377 19.438L11.8202 19.3983L11.8074 19.3587L11.7899 19.3155L11.7724 19.2712L11.7584 19.2362L11.7409 19.1918L11.7234 19.1475L11.7106 19.1078L11.6884 19.0682ZM10.3467 25.1617H19.6952L14.9236 26.7367L10.3467 25.1617Z" fill="black"/>
</svg>
