<svg width="30" height="31" viewBox="0 0 30 31" xmlns="http://www.w3.org/2000/svg">
<path d="M15 2.0311C18.7113 2.1286 21.8022 3.41266 24.2728 5.88329C26.7434 8.35391 28.0275 11.4448 28.125 15.1561C28.0275 18.8673 26.7434 21.9583 24.2728 24.4289C21.8022 26.8995 18.7113 28.1836 15 28.2811C11.2887 28.1836 8.19781 26.8995 5.72719 24.4289C3.25656 21.9583 1.9725 18.8673 1.875 15.1561C1.9725 11.4448 3.25656 8.35391 5.72719 5.88329C8.19781 3.41266 11.2887 2.1286 15 2.0311ZM15 13.5745L11.9531 10.5277C11.7188 10.2933 11.4503 10.1761 11.1478 10.1761C10.8453 10.1761 10.5816 10.2883 10.3566 10.5127C10.1316 10.737 10.0194 11.0008 10.02 11.3039C10.0206 11.607 10.1378 11.8755 10.3716 12.1092L13.4184 15.1561L10.3716 18.203C10.1372 18.4373 10.02 18.7058 10.02 19.0083C10.02 19.3108 10.1322 19.5745 10.3566 19.7995C10.5809 20.0245 10.8447 20.1367 11.1478 20.1361C11.4509 20.1355 11.7194 20.0183 11.9531 19.7845L15 16.7377L18.0469 19.7845C18.3594 20.0777 18.7206 20.1705 19.1306 20.063C19.5406 19.9555 19.7994 19.6967 19.9069 19.2867C20.0144 18.8767 19.9216 18.5155 19.6284 18.203L16.5816 15.1561L19.6284 12.1092C19.8628 11.8748 19.98 11.6064 19.98 11.3039C19.98 11.0014 19.8678 10.7377 19.6434 10.5127C19.4191 10.2877 19.1553 10.1755 18.8522 10.1761C18.5491 10.1767 18.2806 10.2939 18.0469 10.5277L15 13.5745Z" fill="black"/>
</svg>
