<svg width="30" height="30" viewBox="0 0 30 30" xmlns="http://www.w3.org/2000/svg">
<path d="M11.4083 21.0023C10.7427 21.6679 9.66354 21.6679 8.99795 21.0023C8.33236 20.3367 8.33236 19.2576 8.99795 18.592L18.5922 8.99773C19.2578 8.33214 20.3369 8.33214 21.0025 8.99773C21.6681 9.66332 21.6681 10.7424 21.0025 11.408L11.4083 21.0023Z" fill="black"/>
<path d="M8.99794 11.408C8.33235 10.7424 8.33235 9.66331 8.99794 8.99773C9.66353 8.33214 10.7427 8.33214 11.4082 8.99773L21.0025 18.592C21.6681 19.2576 21.6681 20.3367 21.0025 21.0023C20.3369 21.6679 19.2578 21.6679 18.5922 21.0023L8.99794 11.408Z" fill="black"/>
<path fill-rule="evenodd" clip-rule="evenodd" d="M15 1C22.732 1 29 7.26801 29 15C29 22.732 22.732 29 15 29C7.26801 29 1 22.732 1 15C1 7.26801 7.26801 1 15 1ZM15 3.54785C8.67515 3.54785 3.54785 8.67515 3.54785 15C3.54785 21.3248 8.67515 26.4521 15 26.4521C21.3248 26.4521 26.4521 21.3248 26.4521 15C26.4521 8.67515 21.3248 3.54785 15 3.54785Z" fill="black"/>
</svg>
