<svg width="31" height="30" viewBox="0 0 31 30" fill="none" xmlns="http://www.w3.org/2000/svg">
<path d="M23.956 22.7739C23.5252 22.1037 22.4685 22.0594 21.7455 22.394C20.9224 22.775 19.9178 22.9414 19.0233 22.9414C14.8685 22.9414 10.9684 19.1547 10.9684 15C10.9684 10.8453 14.8685 6.84214 19.0233 6.84214C19.9515 6.84214 20.9441 7.01879 21.777 7.48484C22.4819 7.87936 23.5236 7.85686 23.9486 7.16983L24.2496 6.68332C24.4962 6.28457 24.3765 5.75815 23.961 5.54083C22.4846 4.76854 20.8049 4.33179 19.0233 4.33179C13.1314 4.33179 8.35504 9.10811 8.35504 15C8.35504 20.8919 13.1314 25.6682 19.0233 25.6682C20.8232 25.6682 22.5191 25.2224 24.0064 24.4353C24.4243 24.2141 24.5392 23.6811 24.2835 23.2835L23.956 22.7739Z" fill="black"/>
<path d="M6.33142 12.9218C6.33142 12.2823 6.84982 11.7639 7.4893 11.7639H20.8801C21.5196 11.7639 22.038 12.2823 22.038 12.9218C22.038 13.5613 21.5196 14.0797 20.8801 14.0797H7.4893C6.84982 14.0797 6.33142 13.5613 6.33142 12.9218Z" fill="black"/>
<path d="M6.33142 17.0782C6.33142 16.4387 6.84982 15.9203 7.4893 15.9203H20.8801C21.5196 15.9203 22.038 16.4387 22.038 17.0782C22.038 17.7177 21.5196 18.2361 20.8801 18.2361H7.4893C6.84982 18.2361 6.33142 17.7177 6.33142 17.0782Z" fill="black"/>
</svg>
