<svg width="31" height="31" viewBox="0 0 31 31"  xmlns="http://www.w3.org/2000/svg">
<path d="M29.4073 14.2938C26.3631 7.86178 21.7615 4.62482 15.5928 4.62482C9.42086 4.62482 4.82243 7.86178 1.77822 14.2971C1.53096 14.8188 1.53096 15.4308 1.77822 15.9558C4.82243 22.3879 9.42407 25.6248 15.5928 25.6248C21.7647 25.6248 26.3631 22.3879 29.4073 15.9526C29.6546 15.4308 29.6546 14.8253 29.4073 14.2938ZM15.5928 23.3058C10.4131 23.3058 6.6207 20.6711 3.94578 15.1248C6.6207 9.5785 10.4131 6.94384 15.5928 6.94384C20.7724 6.94384 24.5648 9.5785 27.2398 15.1248C24.5681 20.6711 20.7756 23.3058 15.5928 23.3058Z" fill="black"/>
<path d="M15.749 10.6248C12.9014 10.6248 10.5928 12.9334 10.5928 15.7811C10.5928 18.6287 12.9014 20.9373 15.749 20.9373C18.5967 20.9373 20.9053 18.6287 20.9053 15.7811C20.9053 12.9334 18.5967 10.6248 15.749 10.6248ZM15.749 19.0623C13.9355 19.0623 12.4678 17.5945 12.4678 15.7811C12.4678 13.9676 13.9355 12.4998 15.749 12.4998C17.5625 12.4998 19.0303 13.9676 19.0303 15.7811C19.0303 17.5945 17.5625 19.0623 15.749 19.0623Z" fill="black"/>
</svg>
