<svg width="31" height="31" viewBox="0 0 31 31"  xmlns="http://www.w3.org/2000/svg">
<path d="M29.4181 11.2341C29.7184 10.7845 29.6185 10.1849 29.2178 9.83504C28.7671 9.48538 28.1663 9.58537 27.8158 10.035C27.7656 10.0849 22.2074 16.6296 15.5976 16.6296C9.18826 16.6296 3.37949 10.035 3.32951 9.98513C2.97879 9.58537 2.32777 9.53548 1.92729 9.88535C1.52682 10.2346 1.47662 10.884 1.82712 11.2838C1.92729 11.4337 3.12916 12.7827 5.03181 14.2815L2.47814 16.9294C2.07744 17.3291 2.12742 17.9786 2.52812 18.3284C2.62829 18.528 2.87884 18.628 3.12916 18.628C3.37949 18.628 3.62981 18.5282 3.83016 18.3282L6.58417 15.4806C7.88622 16.3799 9.43836 17.2293 11.1409 17.8287L10.0894 21.3758C9.93923 21.9255 10.2398 22.4749 10.7904 22.6248H11.0907C11.5416 22.6248 11.9421 22.325 12.0422 21.8754L13.0939 18.3284C13.8951 18.4783 14.7463 18.5783 15.5976 18.5783C16.4488 18.5783 17.3002 18.4785 18.1013 18.3284L19.1528 21.8257C19.253 22.2754 19.7037 22.5751 20.1041 22.5751C20.2043 22.5751 20.3045 22.5751 20.3547 22.525C20.9055 22.3751 21.2058 21.8257 21.0557 21.276L20.0042 17.779C21.7067 17.1794 23.2589 16.3302 24.5609 15.4309L27.2649 18.2286C27.4651 18.4284 27.7156 18.5284 27.9659 18.5284C28.2163 18.5284 28.4666 18.4286 28.6669 18.2286C29.0676 17.8289 29.0676 17.2295 28.7169 16.8296L26.1632 14.1819C28.2163 12.6831 29.4181 11.2343 29.4181 11.2343V11.2341Z" fill="black"/>
</svg>
