<svg width="30" height="30" viewBox="0 0 30 30" xmlns="http://www.w3.org/2000/svg">
<path d="M28.8146 13.669C25.7703 7.23696 21.1687 4 15 4C8.82809 4 4.22966 7.23696 1.18545 13.6722C0.938185 14.194 0.938185 14.806 1.18545 15.331C4.22966 21.763 8.8313 25 15 25C21.1719 25 25.7703 21.763 28.8146 15.3278C29.0618 14.806 29.0618 14.2005 28.8146 13.669ZM15 22.681C9.82034 22.681 6.02793 20.0463 3.353 14.5C6.02793 8.95368 9.82034 6.31902 15 6.31902C20.1797 6.31902 23.9721 8.95368 26.647 14.5C23.9753 20.0463 20.1829 22.681 15 22.681Z" fill="black"/>
<path d="M15.1562 10C12.3086 10 10 12.3086 10 15.1562C10 18.0039 12.3086 20.3125 15.1562 20.3125C18.0039 20.3125 20.3125 18.0039 20.3125 15.1562C20.3125 12.3086 18.0039 10 15.1562 10ZM15.1562 18.4375C13.3428 18.4375 11.875 16.9697 11.875 15.1562C11.875 13.3428 13.3428 11.875 15.1562 11.875C16.9697 11.875 18.4375 13.3428 18.4375 15.1562C18.4375 16.9697 16.9697 18.4375 15.1562 18.4375Z" fill="black"/>
<path d="M23.0535 4.81989C23.4371 4.42261 24.0702 4.41156 24.4675 4.79521L24.8686 5.18256C25.2659 5.56621 25.2769 6.19928 24.8933 6.59656L6.94713 25.1803C6.56348 25.5776 5.93041 25.5887 5.53313 25.205L5.13201 24.8177C4.73473 24.434 4.72368 23.8009 5.10733 23.4037L23.0535 4.81989Z" fill="black"/>
</svg>
