<svg width="31" height="30" viewBox="0 0 31 30" fill="none" xmlns="http://www.w3.org/2000/svg">
<path d="M17.0935 4.93966C14.5004 3.58852 11.9264 3.84783 9.60627 5.60294C7.81019 6.96773 7.25066 8.90844 7.58639 11.0621C7.83205 12.6644 9.62264 13.7917 11.2331 13.4859C12.5979 13.2294 13.3758 11.8263 13.0455 10.2105C12.7016 8.55085 11.6398 7.97767 9.66358 8.37618C9.42611 8.4253 9.18319 8.4417 8.49533 8.53177C9.08763 7.59278 9.38244 6.81214 9.92564 6.26622C12.5515 3.725 15.8734 4.6776 16.8669 8.2015C18.4774 13.9117 15.4366 21.1042 10.204 23.8966C9.03032 24.5216 7.79111 25.0293 6.58191 25.5916L6.62285 25.9192C7.33798 25.7909 8.0586 25.6926 8.76282 25.5288C15.5813 23.9429 20.6419 18.2764 20.9695 11.7909C21.1196 8.72284 19.8231 6.36175 17.0935 4.93966ZM22.1978 14.0537C22.1978 14.2293 22.2324 14.4033 22.2996 14.5655C22.3668 14.7278 22.4653 14.8752 22.5895 14.9994C22.7137 15.1236 22.8612 15.2222 23.0235 15.2894C23.1857 15.3566 23.3596 15.3912 23.5353 15.3912C23.7109 15.3912 23.8849 15.3566 24.0471 15.2894C24.2094 15.2222 24.3568 15.1236 24.481 14.9994C24.6052 14.8752 24.7038 14.7278 24.771 14.5655C24.8382 14.4033 24.8728 14.2293 24.8728 14.0537C24.8728 13.8781 24.8382 13.7041 24.771 13.5419C24.7038 13.3796 24.6052 13.2321 24.481 13.1079C24.3568 12.9837 24.2094 12.8852 24.0471 12.818C23.8849 12.7508 23.7109 12.7162 23.5353 12.7162C23.3596 12.7162 23.1857 12.7508 23.0235 12.818C22.8612 12.8852 22.7137 12.9837 22.5895 13.1079C22.4653 13.2321 22.3668 13.3796 22.2996 13.5419C22.2324 13.7041 22.1978 13.8781 22.1978 14.0537ZM22.1978 7.42083C22.1978 7.59647 22.2324 7.77039 22.2996 7.93266C22.3668 8.09493 22.4653 8.24238 22.5895 8.36657C22.7137 8.49077 22.8612 8.58929 23.0235 8.65651C23.1857 8.72372 23.3596 8.75832 23.5353 8.75832C23.7109 8.75832 23.8849 8.72372 24.0471 8.65651C24.2094 8.58929 24.3568 8.49077 24.481 8.36657C24.6052 8.24238 24.7038 8.09493 24.771 7.93266C24.8382 7.77039 24.8728 7.59647 24.8728 7.42083C24.8728 7.24518 24.8382 7.07126 24.771 6.90899C24.7038 6.74672 24.6052 6.59927 24.481 6.47508C24.3568 6.35088 24.2094 6.25236 24.0471 6.18514C23.8849 6.11793 23.7109 6.08333 23.5353 6.08333C23.3596 6.08333 23.1857 6.11793 23.0235 6.18514C22.8612 6.25236 22.7137 6.35088 22.5895 6.47508C22.4653 6.59927 22.3668 6.74672 22.2996 6.90899C22.2324 7.07126 22.1978 7.24518 22.1978 7.42083Z" fill="black"/>
</svg>
