<svg width="30" height="30" viewBox="0 0 30 30" xmlns="http://www.w3.org/2000/svg">
<path fill-rule="evenodd" clip-rule="evenodd" d="M15 1C22.732 1 29 7.26801 29 15C29 22.732 22.732 29 15 29C7.26801 29 1 22.732 1 15C1 7.26801 7.26801 1 15 1ZM15 3.54785C8.67515 3.54785 3.54785 8.67515 3.54785 15C3.54785 21.3248 8.67515 26.4521 15 26.4521C21.3248 26.4521 26.4521 21.3248 26.4521 15C26.4521 8.67515 21.3248 3.54785 15 3.54785Z" fill="black"/>
<path fill-rule="evenodd" clip-rule="evenodd" d="M8.09766 12.1099C8.09766 11.0053 8.99309 10.1099 10.0977 10.1099C11.2022 10.1099 12.0977 11.0053 12.0977 12.1099C12.0977 13.2144 11.2022 14.1099 10.0977 14.1099C8.99309 14.1099 8.09766 13.2144 8.09766 12.1099ZM17.9023 12.1099C17.9023 11.0053 18.7978 10.1099 19.9023 10.1099C21.0069 10.1099 21.9023 11.0053 21.9023 12.1099C21.9023 13.2144 21.0069 14.1099 19.9023 14.1099C18.7978 14.1099 17.9023 13.2144 17.9023 12.1099ZM10.7782 18.7837H19.2218C19.9508 18.7837 20.5417 19.3746 20.5417 20.1036C20.5417 20.8325 19.9508 21.4235 19.2218 21.4235H10.7782C10.0492 21.4235 9.45825 20.8325 9.45825 20.1036C9.45825 19.3746 10.0492 18.7837 10.7782 18.7837Z" fill="black"/>
</svg>
