<svg width="30" height="30" viewBox="0 0 30 30" xmlns="http://www.w3.org/2000/svg">
<path fill-rule="evenodd" clip-rule="evenodd" d="M15 1C7.26801 1 1 7.26801 1 15C1 22.732 7.26801 29 15 29C22.732 29 29 22.732 29 15C29 7.26801 22.732 1 15 1ZM8.09766 12.1098C8.09766 11.0052 8.99309 10.1098 10.0977 10.1098C11.2022 10.1098 12.0977 11.0052 12.0977 12.1098C12.0977 13.2144 11.2022 14.1098 10.0977 14.1098C8.99309 14.1098 8.09766 13.2144 8.09766 12.1098ZM17.9023 12.1098C17.9023 11.0052 18.7978 10.1098 19.9023 10.1098C21.0069 10.1098 21.9023 11.0052 21.9023 12.1098C21.9023 13.2144 21.0069 14.1098 19.9023 14.1098C18.7978 14.1098 17.9023 13.2144 17.9023 12.1098ZM10.7782 18.7836H19.2218C19.9508 18.7836 20.5417 19.3745 20.5417 20.1035C20.5417 20.8325 19.9508 21.4234 19.2218 21.4234H10.7782C10.0492 21.4234 9.45825 20.8325 9.45825 20.1035C9.45825 19.3745 10.0492 18.7836 10.7782 18.7836Z" fill="black"/>
</svg>
