<svg width="30" height="30" viewBox="0 0 30 30" xmlns="http://www.w3.org/2000/svg">
<path fill-rule="evenodd" clip-rule="evenodd" d="M8.09766 12.1098C8.09766 11.0052 8.99309 10.1098 10.0977 10.1098C11.2022 10.1098 12.0977 11.0052 12.0977 12.1098C12.0977 13.2144 11.2022 14.1098 10.0977 14.1098C8.99309 14.1098 8.09766 13.2144 8.09766 12.1098ZM20.0009 19.649C20.5252 20.221 20.0009 20.9273 19.14 21.7611C16.7102 23.622 13.348 23.6713 10.8647 21.8823L10.6964 21.7611C10.2537 21.3002 9.37519 20.3117 10.0159 19.649C10.5226 19.1249 10.756 18.977 11.3989 19.3561L11.5892 19.4929C14.6546 21.7611 15.3453 21.7611 18.403 19.3561C18.8928 19.082 19.415 19.0098 20.0009 19.649ZM19.9023 10.1098C21.0069 10.1098 21.9023 11.0052 21.9023 12.1098C21.9023 13.2144 21.0069 14.1098 19.9023 14.1098C18.7978 14.1098 17.9023 13.2144 17.9023 12.1098C17.9023 11.0052 18.7978 10.1098 19.9023 10.1098Z" fill="black"/>
<path fill-rule="evenodd" clip-rule="evenodd" d="M15 1C22.732 1 29 7.26801 29 15C29 22.732 22.732 29 15 29C7.26801 29 1 22.732 1 15C1 7.26801 7.26801 1 15 1ZM15 3.54785C8.67515 3.54785 3.54785 8.67515 3.54785 15C3.54785 21.3248 8.67515 26.4521 15 26.4521C21.3248 26.4521 26.4521 21.3248 26.4521 15C26.4521 8.67515 21.3248 3.54785 15 3.54785Z" fill="black"/>
</svg>
