<svg width="30" height="30" viewBox="0 0 30 30" xmlns="http://www.w3.org/2000/svg">
<path d="M27.4544 1H2.5456C1.6916 1 1 1.6916 1 2.5456V27.4544C1 28.3084 1.6916 29 2.5456 29H15.9548V18.157H12.3064V13.9318H15.9548V10.814C15.9548 7.1964 18.164 5.228 21.391 5.228C22.9366 5.228 24.2638 5.3428 24.6516 5.3946V9.1746H22.4144C20.6588 9.1746 20.32 10.009 20.32 11.2326V13.9304H24.5046L23.9586 18.1556H20.3186V29H27.4544C28.3084 29 29 28.3084 29 27.4544V2.5456C29 1.6916 28.3084 1 27.4544 1Z" fill="black"/>
</svg>
