<svg width="31" height="30" viewBox="0 0 31 30" fill="none" xmlns="http://www.w3.org/2000/svg">
<path fill-rule="evenodd" clip-rule="evenodd" d="M15.5759 1C23.3079 1 29.5759 7.26801 29.5759 15C29.5759 22.732 23.3079 29 15.5759 29C7.84388 29 1.57587 22.732 1.57587 15C1.57587 7.26801 7.84388 1 15.5759 1ZM15.5759 3.54785C9.25102 3.54785 4.12372 8.67515 4.12372 15C4.12372 21.3248 9.25102 26.4521 15.5759 26.4521C21.9007 26.4521 27.028 21.3248 27.028 15C27.028 8.67515 21.9007 3.54785 15.5759 3.54785Z" fill="black"/>
<path fill-rule="evenodd" clip-rule="evenodd" d="M11.354 18.7837H19.7977C20.5267 18.7837 21.1176 19.3746 21.1176 20.1036C21.1176 20.8325 20.5267 21.4235 19.7977 21.4235H11.354C10.6251 21.4235 10.0341 20.8325 10.0341 20.1036C10.0341 19.3746 10.6251 18.7837 11.354 18.7837Z" fill="black"/>
<path d="M18.4624 14.0492C18.1181 13.7048 18.1181 13.1466 18.4624 12.8022L21.1583 10.1063C21.5027 9.76194 22.0609 9.76194 22.4053 10.1063C22.7496 10.4506 22.7496 11.0089 22.4053 11.3532L19.7093 14.0492C19.365 14.3935 18.8067 14.3935 18.4624 14.0492Z" fill="black"/>
<path d="M18.4624 10.1063C18.8067 9.76195 19.365 9.76195 19.7093 10.1063L22.4053 12.8022C22.7496 13.1466 22.7496 13.7048 22.4053 14.0492C22.0609 14.3935 21.5027 14.3935 21.1583 14.0492L18.4624 11.3532C18.1181 11.0089 18.1181 10.4506 18.4624 10.1063Z" fill="black"/>
<path d="M9.1681 14.049C8.82377 13.7047 8.82377 13.1464 9.1681 12.8021L11.864 10.1061C12.2084 9.76182 12.7666 9.76182 13.111 10.1061C13.4553 10.4505 13.4553 11.0087 13.111 11.3531L10.415 14.049C10.0707 14.3934 9.51243 14.3934 9.1681 14.049Z" fill="black"/>
<path d="M9.1681 10.1062C9.51243 9.76183 10.0707 9.76183 10.415 10.1062L13.111 12.8021C13.4553 13.1464 13.4553 13.7047 13.111 14.049C12.7666 14.3934 12.2084 14.3934 11.864 14.049L9.1681 11.3531C8.82376 11.0088 8.82376 10.4505 9.1681 10.1062Z" fill="black"/>
</svg>
