<svg width="30" height="30" viewBox="0 0 30 30" xmlns="http://www.w3.org/2000/svg">
<path fill-rule="evenodd" clip-rule="evenodd" d="M15 1C7.26801 1 1 7.26801 1 15C1 22.732 7.26801 29 15 29C22.732 29 29 22.732 29 15C29 7.26801 22.732 1 15 1ZM8.09766 12.1098C8.09766 11.0052 8.99309 10.1098 10.0977 10.1098C11.2022 10.1098 12.0977 11.0052 12.0977 12.1098C12.0977 13.2144 11.2022 14.1098 10.0977 14.1098C8.99309 14.1098 8.09766 13.2144 8.09766 12.1098ZM17.9023 12.1098C17.9023 11.0052 18.7978 10.1098 19.9023 10.1098C21.0069 10.1098 21.9023 11.0052 21.9023 12.1098C21.9023 13.2144 21.0069 14.1098 19.9023 14.1098C18.7978 14.1098 17.9023 13.2144 17.9023 12.1098ZM10.7782 18.7836C13.2081 16.9227 16.5702 16.8734 19.0535 18.6624L19.2218 18.7836C19.6645 19.2445 20.543 20.233 19.9023 20.8957C19.3957 21.4198 19.1622 21.5676 18.5194 21.1886L18.3573 21.046C16.3853 19.3104 13.4132 19.3723 11.5152 21.1886C11.0255 21.4627 10.5032 21.5348 9.91735 20.8957C9.393 20.3237 9.91735 19.6173 10.7782 18.7836Z" fill="black"/>
</svg>
