<svg width="31" height="30" viewBox="0 0 31 30" fill="none" xmlns="http://www.w3.org/2000/svg">
<path fill-rule="evenodd" clip-rule="evenodd" d="M1.78668 15C1.78668 7.26801 8.0547 1 15.7867 1C23.5187 1 29.7867 7.26801 29.7867 15C29.7867 22.732 23.5187 29 15.7867 29C8.0547 29 1.78668 22.732 1.78668 15ZM21.3284 20.1035C21.3284 19.3745 20.7375 18.7836 20.0085 18.7836H11.5648C10.8359 18.7836 10.2449 19.3745 10.2449 20.1035C10.2449 20.8325 10.8359 21.4234 11.5648 21.4234H20.0085C20.7375 21.4234 21.3284 20.8325 21.3284 20.1035ZM9.1681 14.049C8.82377 13.7047 8.82377 13.1464 9.1681 12.8021L9.8926 12.0776L9.16809 11.3531C8.82376 11.0088 8.82376 10.4505 9.1681 10.1062C9.51243 9.76183 10.0707 9.76183 10.415 10.1062L11.1395 10.8307L11.864 10.1061C12.2084 9.76182 12.7666 9.76182 13.111 10.1061C13.4553 10.4505 13.4553 11.0087 13.111 11.3531L12.3865 12.0776L13.111 12.8021C13.4553 13.1464 13.4553 13.7047 13.111 14.049C12.7666 14.3934 12.2084 14.3934 11.864 14.049L11.1395 13.3245L10.415 14.049C10.0707 14.3934 9.51243 14.3934 9.1681 14.049ZM18.4624 12.8022C18.1181 13.1466 18.1181 13.7048 18.4624 14.0492C18.8067 14.3935 19.365 14.3935 19.7093 14.0492L20.4338 13.3246L21.1583 14.0492C21.5027 14.3935 22.0609 14.3935 22.4053 14.0492C22.7496 13.7048 22.7496 13.1466 22.4053 12.8022L21.6808 12.0777L22.4053 11.3532C22.7496 11.0089 22.7496 10.4506 22.4053 10.1063C22.0609 9.76194 21.5027 9.76194 21.1583 10.1063L20.4338 10.8308L19.7093 10.1063C19.365 9.76195 18.8067 9.76195 18.4624 10.1063C18.1181 10.4506 18.1181 11.0089 18.4624 11.3532L19.1869 12.0777L18.4624 12.8022Z" fill="black"/>
</svg>
