<svg width="31" height="30" viewBox="0 0 31 30" fill="none" xmlns="http://www.w3.org/2000/svg">
<path d="M15.5003 15.6293L7.82273 21.1452C7.23562 21.567 6.41772 21.433 5.99591 20.8458C5.83601 20.6233 5.75 20.3561 5.75 20.0821V9.91835C5.75 9.19543 6.33604 8.60938 7.05898 8.60938C7.31749 8.60937 7.57021 8.68592 7.78528 8.82936L15.4712 13.9554C15.939 14.2674 16.0653 14.8995 15.7533 15.3673C15.6854 15.4691 15.5997 15.5579 15.5003 15.6293Z" fill="black"/>
<path d="M26.5758 15.6293L18.8982 21.1452C18.3111 21.567 17.4932 21.433 17.0714 20.8458C16.9115 20.6233 16.8255 20.3561 16.8255 20.0821V9.91835C16.8255 9.19543 17.4115 8.60938 18.1345 8.60938C18.393 8.60937 18.6457 8.68592 18.8608 8.82936L26.5467 13.9554C27.0145 14.2674 27.1408 14.8995 26.8288 15.3673C26.7609 15.4691 26.6752 15.5579 26.5758 15.6293Z" fill="black"/>
</svg>
