<svg width="31" height="30" viewBox="0 0 31 30" xmlns="http://www.w3.org/2000/svg">
<path d="M15.2497 14.3712L22.9273 8.85533C23.5144 8.43353 24.3323 8.56754 24.7541 9.15465C24.914 9.37722 25 9.64435 25 9.9184V20.0821C25 20.8051 24.414 21.3911 23.691 21.3911C23.4325 21.3911 23.1798 21.3146 22.9647 21.1711L15.2788 16.045C14.811 15.7331 14.6847 15.1009 14.9967 14.6332C15.0646 14.5314 15.1503 14.4426 15.2497 14.3712Z" fill="black"/>
<path d="M4.17417 14.3712L11.8518 8.85533C12.4389 8.43353 13.2568 8.56754 13.6786 9.15465C13.8385 9.37722 13.9245 9.64435 13.9245 9.9184L13.9245 20.0821C13.9245 20.8051 13.3385 21.3911 12.6155 21.3911C12.357 21.3911 12.1043 21.3146 11.8892 21.1711L4.2033 16.045C3.73552 15.7331 3.60922 15.1009 3.9212 14.6332C3.98909 14.5314 4.07479 14.4426 4.17417 14.3712Z" fill="black"/>
</svg>
