<svg width="31" height="30" viewBox="0 0 31 30" fill="none" xmlns="http://www.w3.org/2000/svg">
<path d="M21.7867 20.6H17.5867V17.6756C21.5565 17.0067 24.5867 13.5627 24.5867 9.4C24.5867 4.76133 20.8253 1 16.1867 1C11.548 1 7.78668 4.76133 7.78668 9.4C7.78668 13.5596 10.8169 17.0067 14.7867 17.6756V20.6H10.5867C9.81202 20.6 9.18668 21.2253 9.18668 22C9.18668 22.7747 9.81202 23.4 10.5867 23.4H14.7867V27.6C14.7867 28.3747 15.412 29 16.1867 29C16.9613 29 17.5867 28.3747 17.5867 27.6V23.4H21.7867C22.5613 23.4 23.1867 22.7747 23.1867 22C23.1867 21.2253 22.5613 20.6 21.7867 20.6ZM10.5867 9.4C10.5867 6.30756 13.0942 3.8 16.1867 3.8C19.2791 3.8 21.7867 6.30756 21.7867 9.4C21.7867 12.4924 19.2791 15 16.1867 15C13.0942 15 10.5867 12.4924 10.5867 9.4Z" fill="black"/>
</svg>
