<svg width="30" height="30" viewBox="0 0 30 30" xmlns="http://www.w3.org/2000/svg">
<path d="M20.0438 10.3187C22.625 10.3187 24.725 8.21875 24.725 5.6375C24.725 3.05625 22.625 1 20.0438 1H10.6812C8.1 1 6 3.1 6 5.68125C6 8.2625 8.1 10.3625 10.6812 10.3625C8.1 10.3625 6 12.4625 6 15.0437C6 17.625 8.1 19.725 10.6812 19.725C8.1 19.725 6 21.825 6 24.4062C6 26.9875 8.1 29 10.6812 29C13.2625 29 15.3625 26.9 15.3625 24.3188V10.3187H20.0438ZM20.0438 10.3187C17.4625 10.3187 15.3625 12.4187 15.3625 15C15.3625 17.5812 17.4625 19.6812 20.0438 19.6812C22.625 19.6812 24.725 17.5812 24.725 15C24.6813 12.4187 22.625 10.3187 20.0438 10.3187Z" fill="black"/>
</svg>
