<svg width="30" height="30" viewBox="0 0 30 30" fill="none" xmlns="http://www.w3.org/2000/svg">
<path fill-rule="evenodd" clip-rule="evenodd" d="M5.5 1C5.22386 1 5 1.22386 5 1.5V28.5C5 28.7761 5.22386 29 5.5 29H24.5C24.7761 29 25 28.7761 25 28.5V6.97519C25 6.72384 24.9053 6.4817 24.7349 6.29699L20.1434 1.3218C19.9541 1.11667 19.6876 1 19.4085 1H5.5ZM19.1998 3.39637C19.0099 3.18101 18.7367 3.05762 18.4496 3.05762H7.08015C6.91447 3.05762 6.78015 3.19193 6.78015 3.35762V26.6426C6.78015 26.8083 6.91446 26.9426 7.08015 26.9426H22.9199C23.0856 26.9426 23.2199 26.8083 23.2199 26.6426V8.33493C23.2199 8.09144 23.1311 7.85633 22.9701 7.67368L19.1998 3.39637Z" fill="black"/>
<path fill-rule="evenodd" clip-rule="evenodd" d="M10.9101 10.6821C10.4862 10.6821 10.1266 10.9932 10.0655 11.4127L9.42062 15.842C9.3457 16.3569 9.74498 16.8185 10.2653 16.8185H19.7347C20.2525 16.8185 20.6512 16.361 20.5802 15.848L19.9675 11.4187C19.9091 10.9965 19.5482 10.6821 19.122 10.6821H10.9101ZM10.9868 11.4127C10.7764 11.4127 10.7885 11.4015 10.7562 11.6094L10.1838 15.842C10.1435 16.1007 10.2101 16.1261 10.4719 16.1261H19.4819C19.7424 16.1261 19.8409 16.0771 19.8029 15.8193L19.249 11.6337C19.2181 11.4243 19.1437 11.4187 18.932 11.4187L10.9868 11.4127Z" fill="black"/>
<path d="M11.8694 21.926C11.8694 21.5066 12.2093 21.1666 12.6287 21.1666H17.364C17.7834 21.1666 18.1234 21.5066 18.1234 21.926H11.8694Z" fill="black"/>
<path d="M14.5943 16.7881H15.5771V21.1666H14.5943V16.7881Z" fill="black"/>
<path d="M11.6854 15.3383C11.6854 15.2054 11.7931 15.0977 11.926 15.0977H18.074C18.2069 15.0977 18.3146 15.2054 18.3146 15.3383C18.3146 15.4711 18.2069 15.5789 18.074 15.5789H11.926C11.7931 15.5789 11.6854 15.4711 11.6854 15.3383Z" fill="black"/>
<path fill-rule="evenodd" clip-rule="evenodd" d="M15 11.8796C14.2243 11.8796 13.5955 12.5084 13.5955 13.2841C13.5955 14.0598 14.2243 14.6886 15 14.6886C15.7757 14.6886 16.4045 14.0598 16.4045 13.2841C16.4045 12.5084 15.7757 11.8796 15 11.8796ZM15 12.4619C14.5458 12.4619 14.1777 12.8301 14.1777 13.2842C14.1777 13.7384 14.5458 14.1066 15 14.1066C15.4542 14.1066 15.8223 13.7384 15.8223 13.2842C15.8223 12.8301 15.4542 12.4619 15 12.4619Z" fill="black"/>
</svg>
