<svg width="31" height="31" viewBox="0 0 31 31" xmlns="http://www.w3.org/2000/svg">
<path fill-rule="evenodd" clip-rule="evenodd" d="M4.39258 4.83683C4.11644 4.83683 3.89258 5.06069 3.89258 5.33683L3.89258 29.1949C3.89258 29.471 4.11644 29.6949 4.39258 29.6949H23.3926C23.6687 29.6949 23.8926 29.471 23.8926 29.1949V11.2279C23.8926 10.9765 23.7979 10.7344 23.6275 10.5497L19.0359 5.15863C18.8466 4.9535 18.5802 4.83683 18.3011 4.83683H4.39258ZM18.1336 7.29756C18.1061 7.25472 18.0761 7.21333 18.0396 7.17784C17.8537 6.99682 17.6037 6.89445 17.3422 6.89445H5.97273C5.80704 6.89445 5.67273 7.02876 5.67273 7.19445V27.3375C5.67273 27.5032 5.80704 27.6375 5.97273 27.6375H21.8125C21.9781 27.6375 22.1125 27.5032 22.1125 27.3375V12.5876C22.1125 12.3697 22.0413 12.1585 21.9109 11.9856C21.8803 11.945 21.8488 11.9049 21.8214 11.862L18.1336 7.29756Z" fill="black"/>
<path d="M8.06138 2.19482C8.06138 1.9187 8.28526 1.69482 8.56138 1.69482H22.4698C22.7491 1.69482 23.0155 1.81152 23.2047 2.0166L27.7962 6.99182C27.9667 7.17651 28.0614 7.4187 28.0614 7.67004V26.9273C28.0614 27.2034 27.8375 27.4273 27.5614 27.4273H23.7208V25.3699H25.9813C26.1468 25.3699 26.2814 25.2357 26.2814 25.0699V9.02979C26.2814 8.78625 26.1925 8.55115 26.0314 8.36853L22.2611 4.09119C22.0714 3.87585 21.798 3.75244 21.5111 3.75244H10.1415C9.97593 3.75244 9.84141 3.88672 9.84141 4.05249V5.95654H8.06138V2.19482Z" fill="black"/>
</svg>
