<svg width="30" height="30" viewBox="0 0 30 30" fill="none" xmlns="http://www.w3.org/2000/svg">
<path fill-rule="evenodd" clip-rule="evenodd" d="M5.5 1C5.22386 1 5 1.22386 5 1.5V28.5C5 28.7761 5.22386 29 5.5 29H24.5C24.7761 29 25 28.7761 25 28.5V6.97519C25 6.72384 24.9053 6.4817 24.7349 6.29699L20.1434 1.3218C19.9541 1.11667 19.6876 1 19.4085 1H5.5ZM19.1998 3.39637C19.0099 3.18101 18.7367 3.05762 18.4496 3.05762H7.08015C6.91447 3.05762 6.78015 3.19193 6.78015 3.35762V26.6426C6.78015 26.8083 6.91446 26.9426 7.08015 26.9426H22.9199C23.0856 26.9426 23.2199 26.8083 23.2199 26.6426V8.33493C23.2199 8.09144 23.1311 7.85633 22.9701 7.67368L19.1998 3.39637Z" fill="black"/>
<path d="M18.4615 20.664H11.5385C10.1482 20.664 9.02106 19.5368 9.02106 18.1465V11.8529C9.02106 10.4626 10.1482 9.33545 11.5385 9.33545H18.4615C19.8518 9.33545 20.9789 10.4626 20.9789 11.8529V18.1465C20.9789 19.5368 19.8518 20.664 18.4615 20.664ZM19.7349 12.2305C19.7349 10.9793 19.335 10.6511 18.0839 10.6511H11.9161C10.665 10.6511 10.2261 10.9793 10.2261 12.2305V17.7689C10.2261 19.0201 10.665 19.4869 11.9161 19.4869H18.0839C19.335 19.4869 19.7349 19.0201 19.7349 17.7689V12.2305ZM13.4266 12.4948L17.2028 14.9997L13.4266 17.5046V12.4948Z" fill="black"/>
</svg>
