<svg width="30" height="30" viewBox="0 0 30 30" xmlns="http://www.w3.org/2000/svg">
<g clip-path="url(#clip0_1086_143)">
<path fill-rule="evenodd" clip-rule="evenodd" d="M5.5 1C5.22386 1 5 1.22386 5 1.5V28.5C5 28.7761 5.22386 29 5.5 29H24.5C24.7761 29 25 28.7761 25 28.5V6.97519C25 6.72384 24.9053 6.4817 24.7349 6.29699L20.1434 1.3218C19.9541 1.11667 19.6876 1 19.4085 1H5.5ZM19.1998 3.39637C19.0099 3.18101 18.7367 3.05762 18.4496 3.05762H7.08015C6.91447 3.05762 6.78015 3.19193 6.78015 3.35762V26.6426C6.78015 26.8083 6.91446 26.9426 7.08015 26.9426H22.9199C23.0856 26.9426 23.2199 26.8083 23.2199 26.6426V8.33493C23.2199 8.09144 23.1311 7.85633 22.9701 7.67368L19.1998 3.39637Z" fill="black"/>
<path d="M19.4056 14.9606C18.4903 14.8928 17.6089 14.5538 16.897 13.9436C15.507 14.2487 14.1849 14.6894 12.8628 15.2318C11.8119 17.0963 10.8288 18.0456 9.98124 18.0456C9.81174 18.0456 9.60834 18.0117 9.47273 17.91C9.09983 17.7405 8.89642 17.3676 8.89642 16.9946C8.89642 16.6895 8.96422 15.842 12.1848 14.4521C12.9306 13.0961 13.5069 11.7061 13.9815 10.2484C13.5747 9.43481 12.6933 7.43467 13.3035 6.41765C13.5069 6.04474 13.9137 5.84134 14.3544 5.87524C14.6934 5.87524 15.0324 6.04474 15.2358 6.31595C15.6765 6.92616 15.6426 8.21438 15.0663 10.1128C15.6087 11.1298 16.3207 12.0452 17.1682 12.8249C17.8801 12.6893 18.592 12.5876 19.3039 12.5876C20.8972 12.6215 21.1346 13.3673 21.1006 13.808C21.1006 14.9606 19.9819 14.9606 19.4056 14.9606ZM9.91344 17.0624L10.0151 17.0285C10.4898 16.859 10.8627 16.52 11.1339 16.0793C10.6254 16.2827 10.2185 16.6217 9.91344 17.0624ZM14.4222 6.89226H14.3205C14.2866 6.89226 14.2188 6.89226 14.1849 6.92616C14.0493 7.50247 14.151 8.11268 14.3883 8.65509C14.5917 8.07878 14.5917 7.46857 14.4222 6.89226ZM14.6595 11.8078L14.6256 11.8757L14.5917 11.8418C14.2866 12.6215 13.9476 13.4012 13.5747 14.147L13.6425 14.1131V14.1809C14.3883 13.9097 15.2019 13.6724 15.9478 13.5029L15.9139 13.469H16.0156C15.507 12.9605 15.0324 12.3842 14.6595 11.8078ZM19.27 13.6046C18.9649 13.6046 18.6937 13.6046 18.3886 13.6724C18.7276 13.8419 19.0666 13.9097 19.4056 13.9436C19.6429 13.9775 19.8802 13.9436 20.0836 13.8758C20.0836 13.7741 19.948 13.6046 19.27 13.6046Z" fill="black"/>
<path d="M11.932 20.0371C12.388 20.0371 12.748 20.1991 13.012 20.5231C13.252 20.8231 13.372 21.2071 13.372 21.6871C13.372 22.1431 13.252 22.5211 13.018 22.8211C12.766 23.1451 12.412 23.3071 11.968 23.3071C11.608 23.3071 11.296 23.1331 11.044 22.7971V24.4111H10.36V20.1211H10.996V20.4511C11.212 20.1751 11.524 20.0371 11.932 20.0371ZM11.83 20.5891C11.56 20.5891 11.356 20.6911 11.212 20.9071C11.08 21.0931 11.02 21.3391 11.02 21.6511V21.6991C11.02 22.0231 11.098 22.2871 11.26 22.4851C11.404 22.6651 11.584 22.7551 11.806 22.7551C12.106 22.7551 12.334 22.6531 12.478 22.4611C12.604 22.2811 12.67 22.0231 12.67 21.6871C12.67 21.3511 12.61 21.0931 12.496 20.9131C12.352 20.6971 12.13 20.5891 11.83 20.5891ZM16.1774 18.8551H16.8614V23.2231H16.2254V22.8931C16.0094 23.1691 15.6974 23.3071 15.2894 23.3071C14.8274 23.3071 14.4674 23.1451 14.2094 22.8211C13.9694 22.5211 13.8494 22.1311 13.8494 21.6571C13.8494 21.2011 13.9634 20.8231 14.2034 20.5231C14.4554 20.1991 14.8094 20.0371 15.2534 20.0371C15.6134 20.0371 15.9194 20.2051 16.1774 20.5471V18.8551ZM15.4154 20.5891C15.1034 20.5891 14.8814 20.6911 14.7374 20.8951C14.6114 21.0691 14.5514 21.3211 14.5514 21.6571C14.5514 21.9931 14.6054 22.2511 14.7254 22.4311C14.8634 22.6471 15.0854 22.7551 15.3914 22.7551C15.6554 22.7551 15.8654 22.6471 16.0094 22.4371C16.1354 22.2451 16.2014 21.9931 16.2014 21.6931V21.6451C16.2014 21.3151 16.1174 21.0511 15.9614 20.8591C15.8174 20.6791 15.6314 20.5891 15.4154 20.5891ZM18.7968 18.9391H19.4568V19.5151H18.8928C18.8027 19.5151 18.7368 19.5391 18.6888 19.5871C18.6408 19.6351 18.6228 19.7071 18.6228 19.8091V20.1211H19.4148V20.6791H18.6228V23.2231H17.9388V20.6791H17.2488V20.1211H17.9388V19.7911C17.9388 19.5271 18.0107 19.3171 18.1608 19.1671C18.3048 19.0111 18.5208 18.9391 18.7968 18.9391Z" fill="black"/>
</g>
<defs>
<clipPath id="clip0_1086_143">
<rect width="30" height="30" fill="white"/>
</clipPath>
</defs>
</svg>
