<svg width="30" height="30" viewBox="0 0 30 30" xmlns="http://www.w3.org/2000/svg">
<path fill-rule="evenodd" clip-rule="evenodd" d="M5.5 1C5.22386 1 5 1.22386 5 1.5V28.5C5 28.7761 5.22386 29 5.5 29H24.5C24.7761 29 25 28.7761 25 28.5V6.97519C25 6.72384 24.9053 6.4817 24.7349 6.29699L20.1434 1.3218C19.9541 1.11667 19.6876 1 19.4085 1H5.5ZM19.1998 3.39637C19.0099 3.18101 18.7367 3.05762 18.4496 3.05762H7.08015C6.91447 3.05762 6.78015 3.19193 6.78015 3.35762V26.6426C6.78015 26.8083 6.91446 26.9426 7.08015 26.9426H22.9199C23.0856 26.9426 23.2199 26.8083 23.2199 26.6426V8.33493C23.2199 8.09144 23.1311 7.85633 22.9701 7.67368L19.1998 3.39637Z" fill="black"/>
<path d="M18.0711 12.7926C18.0711 12.6062 18.2223 12.455 18.4087 12.455H19.6125C19.799 12.455 19.9501 12.6062 19.9501 12.7926V20.0994C19.9501 20.2859 19.799 20.437 19.6125 20.437H18.4087C18.2223 20.437 18.0711 20.2859 18.0711 20.0994V12.7926Z" fill="black"/>
<path d="M10.0498 17.7099C10.0498 17.5235 10.201 17.3723 10.3874 17.3723H11.5912C11.7776 17.3723 11.9288 17.5235 11.9288 17.7099V20.0994C11.9288 20.2859 11.7776 20.437 11.5912 20.437H10.3874C10.201 20.437 10.0498 20.2859 10.0498 20.0994V17.7099Z" fill="black"/>
<path d="M12.7236 14.9675C12.7236 14.7811 12.8747 14.6299 13.0612 14.6299H14.2649C14.4514 14.6299 14.6025 14.7811 14.6025 14.9675V20.0994C14.6025 20.2859 14.4514 20.437 14.2649 20.437H13.0612C12.8747 20.437 12.7236 20.2859 12.7236 20.0994V14.9675Z" fill="black"/>
<path d="M15.3973 9.90036C15.3973 9.7139 15.5485 9.56274 15.7349 9.56274H16.9387C17.1251 9.56274 17.2763 9.7139 17.2763 9.90036V20.0994C17.2763 20.2859 17.1251 20.437 16.9387 20.437H15.7349C15.5485 20.437 15.3973 20.2859 15.3973 20.0994V9.90036Z" fill="black"/>
</svg>
