<svg width="30" height="30" viewBox="0 0 30 30" xmlns="http://www.w3.org/2000/svg">
<path fill-rule="evenodd" clip-rule="evenodd" d="M5.5 1C5.22386 1 5 1.22386 5 1.5V28.5C5 28.7761 5.22386 29 5.5 29H24.5C24.7761 29 25 28.7761 25 28.5V6.97519C25 6.72384 24.9053 6.4817 24.7349 6.29699L20.1434 1.3218C19.9541 1.11667 19.6876 1 19.4085 1H5.5ZM19.1998 3.39637C19.0099 3.18101 18.7367 3.05762 18.4496 3.05762H7.08015C6.91447 3.05762 6.78015 3.19193 6.78015 3.35762V26.6426C6.78015 26.8083 6.91446 26.9426 7.08015 26.9426H22.9199C23.0856 26.9426 23.2199 26.8083 23.2199 26.6426V8.33493C23.2199 8.09144 23.1311 7.85633 22.9701 7.67368L19.1998 3.39637Z" fill="black"/>
<path d="M21.9607 11.4203V11.0338H15.6391C15.6455 10.9568 15.6551 10.8798 15.6567 10.8012C15.6567 10.4148 15.5797 10.0668 15.4627 9.64021C15.3472 9.21524 15.1917 8.86725 15.0377 8.55774C14.8437 8.28673 14.7282 8.13278 14.6127 8.24824C14.1878 8.44228 13.8783 8.82876 13.6842 9.44777C13.4902 10.0668 13.3747 10.5687 13.3747 11.0338H8.03778V11.4203H13.3908C13.4244 11.9495 13.5207 12.4771 13.6457 13.0063C13.5255 13.1185 13.4084 13.2356 13.2913 13.3543H8.03778V13.7407H12.9257C12.6114 14.0855 12.3099 14.4463 12.0212 14.8232C11.8096 15.0942 11.6476 15.3781 11.5273 15.6747H8.03778V16.0612H11.4006C11.3092 16.4076 11.2691 16.7684 11.2868 17.1437C11.314 17.4452 11.3814 17.7258 11.4664 17.9952H8.03778V18.3817H11.6075C11.7598 18.7153 11.9587 19.0167 12.2137 19.2717C12.7557 19.8138 13.4517 20.0832 14.2247 20.1233C14.4957 20.1233 14.7282 20.0848 15.0361 20.0078L15.1035 20.3173H8.03778V20.7022H15.1884L15.3472 21.4366C15.4242 21.6692 15.4242 21.9001 15.4242 22.0941C15.4242 22.8286 14.9992 23.2937 14.1862 23.4091C14.0322 23.4091 13.8767 23.4091 13.6826 23.3322C13.5287 23.2937 13.4116 23.1782 13.3731 23.0226C13.5271 23.0611 13.7211 22.9842 13.9536 22.8687C14.1862 22.7532 14.3016 22.5207 14.3016 22.1727C14.2631 21.9402 14.1862 21.7093 13.9921 21.5537C13.8382 21.3597 13.6056 21.2827 13.3731 21.3212C13.1406 21.3597 12.9097 21.4751 12.7541 21.7077C12.6002 21.9402 12.5601 22.2112 12.5601 22.4806C12.5986 22.9056 12.7926 23.2151 13.1406 23.4476C13.4886 23.6801 13.8366 23.7956 14.2231 23.7571C15.2285 23.6032 15.7321 23.0611 15.7706 22.1326C15.7706 22.0172 15.7706 21.8616 15.7321 21.7077L15.5204 20.7022H21.9607V20.3157H15.4386L15.3488 19.8907C15.7738 19.6582 16.1218 19.3872 16.3928 19.0392C16.5243 18.8435 16.6253 18.6206 16.6927 18.3817H21.9607V17.9952H16.7632C16.7696 17.9311 16.7793 17.8685 16.7793 17.8012C16.7793 17.2207 16.5852 16.7187 16.2372 16.2921C16.1651 16.2039 16.0865 16.1302 16.0047 16.0596H21.9607V15.6731H15.2173C15.0986 15.6507 14.9752 15.6346 14.8453 15.6346C14.7298 15.6346 14.6127 15.6346 14.4973 15.6731L14.1878 14.1641C14.3209 14.0262 14.4428 13.8835 14.5582 13.7391H21.9623V13.3527H14.8389C15.2333 12.7577 15.4867 12.113 15.5958 11.4187H21.9607V11.4203ZM14.3417 19.7737C13.6842 19.8121 13.1037 19.6197 12.6403 19.2316C12.3676 19.0039 12.1832 18.7153 12.0629 18.3801H13.2352C13.2448 18.3929 13.2496 18.4057 13.2593 18.4186C13.4918 18.6896 13.7628 18.9221 14.1108 19.0376C14.1878 19.0376 14.2263 19.0376 14.2263 18.9606C14.2263 18.9221 14.1878 18.9221 14.1493 18.8836C13.8879 18.765 13.7083 18.5966 13.5928 18.3801H14.6897L14.9222 19.6566C14.7282 19.7352 14.5358 19.7737 14.3417 19.7737ZM13.4517 17.9182C13.4517 17.6087 13.5287 17.3762 13.7227 17.1453C13.9168 16.9144 14.1092 16.7588 14.3802 16.6818L14.6192 17.9968H13.4677C13.4645 17.968 13.4549 17.9455 13.4517 17.9182ZM15.2317 19.5427L14.9992 18.3817H16.0881C15.9999 18.8997 15.7096 19.2878 15.2317 19.5427ZM14.9222 17.9952L14.6512 16.6417C15.0762 16.6802 15.3857 16.7957 15.6567 17.0282C15.9181 17.2527 16.0705 17.5879 16.1138 17.9952H14.9222ZM13.3362 16.3707C13.1037 16.6802 12.9498 17.0282 12.9498 17.4147C12.9498 17.628 12.977 17.8156 13.0364 17.9952H11.9571C11.9346 17.8701 11.9138 17.745 11.9058 17.6087C11.9379 17.0314 12.1094 16.5102 12.3869 16.0612H13.6329C13.5239 16.1542 13.4228 16.2553 13.3362 16.3707ZM14.2166 15.6747H12.6531C13.0219 15.184 13.4517 14.7542 13.9168 14.3597L14.2166 15.6747ZM13.9937 10.3378C14.1477 9.87434 14.4187 9.60332 14.7667 9.48626C14.9206 9.48626 15.0377 9.56323 15.1532 9.6803C15.2301 9.79576 15.2686 9.91283 15.2686 10.0668C15.2686 10.3923 15.2141 10.7179 15.1051 11.0338H13.8125C13.851 10.8157 13.9103 10.588 13.9937 10.3378ZM14.8838 11.5357C14.6127 11.9992 14.2647 12.3873 13.9168 12.6968C13.8398 12.3103 13.7628 11.9623 13.7628 11.5758C13.7628 11.5245 13.7676 11.4732 13.7708 11.4219H14.9415C14.9206 11.4587 14.9046 11.4988 14.8838 11.5357Z" fill="black"/>
</svg>
