<svg width="30" height="30" viewBox="0 0 30 30" fill="none" xmlns="http://www.w3.org/2000/svg">
<path fill-rule="evenodd" clip-rule="evenodd" d="M5.5 1C5.22386 1 5 1.22386 5 1.5V28.5C5 28.7761 5.22386 29 5.5 29H24.5C24.7761 29 25 28.7761 25 28.5V6.97519C25 6.72384 24.9053 6.4817 24.7349 6.29699L20.1434 1.3218C19.9541 1.11667 19.6876 1 19.4085 1H5.5ZM19.1998 3.39637C19.0099 3.18101 18.7367 3.05762 18.4496 3.05762H7.08015C6.91447 3.05762 6.78015 3.19193 6.78015 3.35762V26.6426C6.78015 26.8083 6.91446 26.9426 7.08015 26.9426H22.9199C23.0856 26.9426 23.2199 26.8083 23.2199 26.6426V8.33493C23.2199 8.09144 23.1311 7.85633 22.9701 7.67368L19.1998 3.39637Z" fill="black"/>
<path d="M20.7104 16.356V19.2212C20.7104 20.0884 20.0073 20.7915 19.14 20.7915H10.86C9.9927 20.7915 9.28961 20.0884 9.28961 19.2212V12.3687C9.28961 11.5014 9.9927 10.7983 10.86 10.7983H19.14C20.0073 10.7983 20.7104 11.5014 20.7104 12.3687V16.356ZM19.8538 15.3572V12.3687C19.8538 12.275 19.8354 12.1821 19.7995 12.0955C19.7636 12.0089 19.711 11.9302 19.6448 11.864C19.5785 11.7977 19.4998 11.7451 19.4132 11.7092C19.3266 11.6734 19.2338 11.6549 19.14 11.6549H10.86C10.7662 11.6549 10.6734 11.6734 10.5868 11.7092C10.5002 11.7451 10.4215 11.7977 10.3552 11.864C10.289 11.9302 10.2364 12.0089 10.2005 12.0955C10.1646 12.1821 10.1462 12.275 10.1462 12.3687V16.9791C10.3352 16.951 10.5261 16.937 10.7172 16.937C11.6127 16.9357 12.4804 17.2474 13.1704 17.8183C13.8628 16.0142 15.601 14.7956 17.5697 14.7956C18.4491 14.7956 19.2694 15.0202 19.8538 15.3572ZM19.8538 16.4579C19.7824 16.3465 19.571 16.1681 19.2696 16.0173C18.8112 15.7881 18.2261 15.6522 17.5697 15.6522C15.9399 15.6522 14.503 16.6729 13.9503 18.1776C13.9137 18.2772 13.8512 18.4495 13.763 18.6939C13.6602 18.979 13.3019 19.0701 13.0755 18.8687C12.8555 18.6728 12.6933 18.5332 12.5918 18.4518C12.0605 18.0246 11.3989 17.7923 10.7172 17.7936C10.5236 17.7936 10.3328 17.8118 10.1462 17.8478V19.2212C10.1462 19.3149 10.1646 19.4077 10.2005 19.4943C10.2364 19.5809 10.289 19.6596 10.3552 19.7259C10.4215 19.7922 10.5002 19.8447 10.5868 19.8806C10.6734 19.9165 10.7662 19.9349 10.86 19.9349H19.14C19.2338 19.9349 19.3266 19.9165 19.4132 19.8806C19.4998 19.8447 19.5785 19.7922 19.6448 19.7259C19.711 19.6596 19.7636 19.5809 19.7995 19.4943C19.8354 19.4077 19.8538 19.3149 19.8538 19.2212V16.4578V16.4579ZM12.4303 15.3666C12.0896 15.3666 11.7628 15.2313 11.5218 14.9903C11.2809 14.7494 11.1455 14.4226 11.1455 14.0818C11.1455 13.741 11.2809 13.4142 11.5218 13.1733C11.7628 12.9323 12.0896 12.797 12.4303 12.797C12.7711 12.797 13.0979 12.9323 13.3388 13.1733C13.5798 13.4142 13.7152 13.741 13.7152 14.0818C13.7152 14.4226 13.5798 14.7494 13.3388 14.9903C13.0979 15.2313 12.7711 15.3666 12.4303 15.3666ZM12.4303 14.5101C12.5439 14.5101 12.6528 14.465 12.7332 14.3846C12.8135 14.3043 12.8586 14.1954 12.8586 14.0818C12.8586 13.9682 12.8135 13.8593 12.7332 13.779C12.6528 13.6987 12.5439 13.6535 12.4303 13.6535C12.3167 13.6535 12.2078 13.6987 12.1275 13.779C12.0472 13.8593 12.002 13.9682 12.002 14.0818C12.002 14.1954 12.0472 14.3043 12.1275 14.3846C12.2078 14.465 12.3167 14.5101 12.4303 14.5101Z" fill="black"/>
</svg>
