<svg width="30" height="30" viewBox="0 0 30 30" fill="none" xmlns="http://www.w3.org/2000/svg">
<g clip-path="url(#clip0_1086_138)">
<path fill-rule="evenodd" clip-rule="evenodd" d="M5.5 1C5.22386 1 5 1.22386 5 1.5V28.5C5 28.7761 5.22386 29 5.5 29H24.5C24.7761 29 25 28.7761 25 28.5V6.97519C25 6.72384 24.9053 6.4817 24.7349 6.29699L20.1434 1.3218C19.9541 1.11667 19.6876 1 19.4085 1H5.5ZM19.1998 3.39637C19.0099 3.18101 18.7367 3.05762 18.4496 3.05762H7.08015C6.91447 3.05762 6.78015 3.19193 6.78015 3.35762V26.6426C6.78015 26.8083 6.91446 26.9426 7.08015 26.9426H22.9199C23.0856 26.9426 23.2199 26.8083 23.2199 26.6426V8.33493C23.2199 8.09144 23.1311 7.85633 22.9701 7.67368L19.1998 3.39637Z" fill="black"/>
<path d="M10.826 14.221C11.51 14.221 11.996 14.473 12.293 14.977C12.509 14.689 12.734 14.491 12.968 14.383C13.175 14.275 13.436 14.221 13.751 14.221C14.228 14.221 14.624 14.374 14.948 14.698C15.254 15.022 15.416 15.436 15.416 15.949V19H14.39V16.129C14.39 15.76 14.309 15.49 14.156 15.328C13.994 15.157 13.742 15.076 13.382 15.076C13.13 15.076 12.923 15.166 12.752 15.364C12.572 15.553 12.491 15.814 12.491 16.156V19H11.465V16.138C11.465 15.427 11.159 15.076 10.547 15.076C10.25 15.076 10.016 15.184 9.836 15.418C9.656 15.634 9.566 15.904 9.566 16.21V19H8.54V14.347H9.566V14.824C9.953 14.419 10.376 14.221 10.826 14.221ZM19.8061 12.448H20.8321V19H19.8781V18.505C19.5541 18.919 19.0861 19.126 18.4741 19.126C17.7811 19.126 17.2411 18.883 16.8541 18.397C16.4941 17.947 16.3141 17.362 16.3141 16.651C16.3141 15.967 16.4851 15.4 16.8451 14.95C17.2231 14.464 17.7541 14.221 18.4201 14.221C18.9601 14.221 19.4191 14.473 19.8061 14.986V12.448ZM18.6631 15.049C18.1951 15.049 17.8621 15.202 17.6461 15.508C17.4571 15.769 17.3671 16.147 17.3671 16.651C17.3671 17.155 17.4481 17.542 17.6281 17.812C17.8351 18.136 18.1681 18.298 18.6271 18.298C19.0231 18.298 19.3381 18.136 19.5541 17.821C19.7431 17.533 19.8421 17.155 19.8421 16.705V16.633C19.8421 16.138 19.7161 15.742 19.4821 15.454C19.2661 15.184 18.9871 15.049 18.6631 15.049Z" fill="black"/>
</g>
<defs>
<clipPath id="clip0_1086_138">
<rect width="30" height="30" fill="white"/>
</clipPath>
</defs>
</svg>
