<svg width="30" height="30" viewBox="0 0 30 30" xmlns="http://www.w3.org/2000/svg">
<g clip-path="url(#clip0_1086_133)">
<path fill-rule="evenodd" clip-rule="evenodd" d="M5.5 1C5.22386 1 5 1.22386 5 1.5V28.5C5 28.7761 5.22386 29 5.5 29H24.5C24.7761 29 25 28.7761 25 28.5V6.97519C25 6.72384 24.9053 6.4817 24.7349 6.29699L20.1434 1.3218C19.9541 1.11667 19.6876 1 19.4085 1H5.5ZM19.1998 3.39637C19.0099 3.18101 18.7367 3.05762 18.4496 3.05762H7.08015C6.91447 3.05762 6.78015 3.19193 6.78015 3.35762V26.6426C6.78015 26.8083 6.91446 26.9426 7.08015 26.9426H22.9199C23.0856 26.9426 23.2199 26.8083 23.2199 26.6426V8.33493C23.2199 8.09144 23.1311 7.85633 22.9701 7.67368L19.1998 3.39637Z" fill="black"/>
<path d="M8.105 14.002H12.2V14.702H10.562V19H9.743V14.702H8.105V14.002ZM12.4536 14.002H13.4546L14.6306 15.766L15.8066 14.002H16.8076L15.1206 16.417L16.9196 19H15.9186L14.6306 17.068L13.3426 19H12.3416L14.1266 16.417L12.4536 14.002ZM17.0601 14.002H21.1551V14.702H19.5171V19H18.6981V14.702H17.0601V14.002Z" fill="black"/>
</g>
<defs>
<clipPath id="clip0_1086_133">
<rect width="30" height="30" fill="white"/>
</clipPath>
</defs>
</svg>
