<svg width="30" height="30" viewBox="0 0 30 30" fill="none" xmlns="http://www.w3.org/2000/svg">
<path fill-rule="evenodd" clip-rule="evenodd" d="M5.5 1C5.22386 1 5 1.22386 5 1.5V28.5C5 28.7761 5.22386 29 5.5 29H24.5C24.7761 29 25 28.7761 25 28.5V6.97519C25 6.72384 24.9053 6.4817 24.7349 6.29699L20.1434 1.3218C19.9541 1.11667 19.6876 1 19.4085 1H5.5ZM19.1998 3.39637C19.0099 3.18101 18.7367 3.05762 18.4496 3.05762H7.08015C6.91447 3.05762 6.78015 3.19193 6.78015 3.35762V26.6426C6.78015 26.8083 6.91446 26.9426 7.08015 26.9426H22.9199C23.0856 26.9426 23.2199 26.8083 23.2199 26.6426V8.33493C23.2199 8.09144 23.1311 7.85633 22.9701 7.67368L19.1998 3.39637Z" fill="black"/>
<path d="M13 9.76465H15V11.7646H13V9.76465Z" fill="black"/>
<path d="M15 11.7646L17 11.7648V13.7648H15L15 11.7646Z" fill="black"/>
<path d="M13 13.7648H15V15.7648H13V13.7648Z" fill="black"/>
<path d="M15 15.7648H17V17.7648H15V15.7648Z" fill="black"/>
<path d="M13 17.7648H15V19.7648H13V17.7648Z" fill="black"/>
<path d="M13 19.7648H17V21.7648H13V19.7648Z" fill="black"/>
</svg>
