<svg width="30" height="30" viewBox="0 0 30 30" xmlns="http://www.w3.org/2000/svg">
<path fill-rule="evenodd" clip-rule="evenodd" d="M5.5 1C5.22386 1 5 1.22386 5 1.5V28.5C5 28.7761 5.22386 29 5.5 29H24.5C24.7761 29 25 28.7761 25 28.5V6.97519C25 6.72384 24.9053 6.4817 24.7349 6.29699L20.1434 1.3218C19.9541 1.11667 19.6876 1 19.4085 1H5.5ZM19.1998 3.39637C19.0099 3.18101 18.7367 3.05762 18.4496 3.05762H7.08015C6.91447 3.05762 6.78015 3.19193 6.78015 3.35762V26.6426C6.78015 26.8083 6.91446 26.9426 7.08015 26.9426H22.9199C23.0856 26.9426 23.2199 26.8083 23.2199 26.6426V8.33493C23.2199 8.09144 23.1311 7.85633 22.9701 7.67368L19.1998 3.39637Z" fill="black"/>
<path d="M12.2729 10.2748C11.9374 10.2748 11.6654 10.5468 11.6654 10.8823V19.1176C11.6654 19.4531 11.9374 19.7251 12.2729 19.7251C12.6085 19.7251 12.8804 19.4531 12.8804 19.1176V10.8823C12.8804 10.5468 12.6085 10.2748 12.2729 10.2748ZM14.9981 12.1049C14.6626 12.1049 14.3906 12.3769 14.3906 12.7124V17.2875C14.3906 17.623 14.6626 17.895 14.9981 17.895C15.3336 17.895 15.6056 17.623 15.6056 17.2875V12.7124C15.6056 12.3769 15.3336 12.1049 14.9981 12.1049ZM20.4638 12.1049C20.1283 12.1049 19.8563 12.3769 19.8563 12.7124V17.2875C19.8563 17.623 20.1283 17.895 20.4638 17.895C20.7993 17.895 21.0713 17.623 21.0713 17.2875V12.7124C21.0713 12.3769 20.7993 12.1049 20.4638 12.1049ZM17.8365 13.0199C17.501 13.0199 17.229 13.2919 17.229 13.6274V16.3725C17.229 16.708 17.501 16.98 17.8365 16.98C18.172 16.98 18.444 16.708 18.444 16.3725V13.6274C18.444 13.2919 18.172 13.0199 17.8365 13.0199ZM9.53625 13.0199C9.20073 13.0199 8.92874 13.2919 8.92874 13.6274V16.3725C8.92874 16.708 9.20073 16.98 9.53625 16.98C9.87177 16.98 10.1438 16.708 10.1438 16.3725V13.6274C10.1438 13.2919 9.87177 13.0199 9.53625 13.0199Z" fill="black" stroke="black" stroke-width="0.3"/>
</svg>
