<svg width="30" height="30" viewBox="0 0 30 30" xmlns="http://www.w3.org/2000/svg">
<path fill-rule="evenodd" clip-rule="evenodd" d="M5.5 1C5.22386 1 5 1.22386 5 1.5V28.5C5 28.7761 5.22386 29 5.5 29H24.5C24.7761 29 25 28.7761 25 28.5V6.97519C25 6.72384 24.9053 6.4817 24.7349 6.29699L20.1434 1.3218C19.9541 1.11667 19.6876 1 19.4085 1H5.5ZM19.1998 3.39637C19.0099 3.18101 18.7367 3.05762 18.4496 3.05762H7.08015C6.91447 3.05762 6.78015 3.19193 6.78015 3.35762V26.6426C6.78015 26.8083 6.91446 26.9426 7.08015 26.9426H22.9199C23.0856 26.9426 23.2199 26.8083 23.2199 26.6426V8.33493C23.2199 8.09144 23.1311 7.85633 22.9701 7.67368L19.1998 3.39637Z" fill="black"/>
<path d="M15.3813 9.38776C15.3813 9.06816 15.6404 8.80908 15.96 8.80908C16.151 8.80908 16.3204 8.90166 16.4258 9.0444C16.4416 9.06025 16.4566 9.07717 16.4707 9.09516L18.4684 11.6344C18.666 11.8856 18.6226 12.2494 18.3714 12.447C18.1202 12.6446 17.7564 12.6012 17.5588 12.35L16.5387 11.0533V18.6464C16.5387 18.7336 16.5194 18.8163 16.4848 18.8904C16.4707 19.6627 15.8607 20.4424 14.5739 20.9205C12.9658 21.5181 11.8506 21.0687 11.5027 20.1324C11.1547 19.196 11.7639 18.1058 13.314 17.5299C14.129 17.227 14.8398 17.2017 15.3813 17.3819V9.38776Z" fill="black"/>
</svg>
