<svg width="30" height="30" viewBox="0 0 30 30" xmlns="http://www.w3.org/2000/svg">
<g clip-path="url(#clip0_1087_158)">
<path fill-rule="evenodd" clip-rule="evenodd" d="M5.5 1C5.22386 1 5 1.22386 5 1.5V28.5C5 28.7761 5.22386 29 5.5 29H24.5C24.7761 29 25 28.7761 25 28.5V6.97519C25 6.72384 24.9053 6.4817 24.7349 6.29699L20.1434 1.3218C19.9541 1.11667 19.6876 1 19.4085 1H5.5ZM19.1998 3.39637C19.0099 3.18101 18.7367 3.05762 18.4496 3.05762H7.08015C6.91447 3.05762 6.78015 3.19193 6.78015 3.35762V26.6426C6.78015 26.8083 6.91446 26.9426 7.08015 26.9426H22.9199C23.0856 26.9426 23.2199 26.8083 23.2199 26.6426V8.33493C23.2199 8.09144 23.1311 7.85633 22.9701 7.67368L19.1998 3.39637Z" fill="black"/>
<path d="M9.698 15.283C10.23 15.283 10.608 15.479 10.839 15.871C11.007 15.647 11.182 15.493 11.364 15.409C11.525 15.325 11.728 15.283 11.973 15.283C12.344 15.283 12.652 15.402 12.904 15.654C13.142 15.906 13.268 16.228 13.268 16.627V19H12.47V16.767C12.47 16.48 12.407 16.27 12.288 16.144C12.162 16.011 11.966 15.948 11.686 15.948C11.49 15.948 11.329 16.018 11.196 16.172C11.056 16.319 10.993 16.522 10.993 16.788V19H10.195V16.774C10.195 16.221 9.957 15.948 9.481 15.948C9.25 15.948 9.068 16.032 8.928 16.214C8.788 16.382 8.718 16.592 8.718 16.83V19H7.92V15.381H8.718V15.752C9.019 15.437 9.348 15.283 9.698 15.283ZM14.6455 13.904C14.7995 13.904 14.9325 13.953 15.0375 14.051C15.1355 14.149 15.1915 14.275 15.1915 14.429C15.1915 14.583 15.1355 14.716 15.0305 14.814C14.9255 14.912 14.7995 14.961 14.6455 14.961C14.4915 14.961 14.3655 14.912 14.2605 14.814C14.1555 14.709 14.1065 14.583 14.1065 14.429C14.1065 14.275 14.1555 14.149 14.2605 14.051C14.3655 13.953 14.4915 13.904 14.6455 13.904ZM14.2465 15.381H15.0445V19H14.2465V15.381ZM18.6103 13.904H19.4083V19H18.6663V18.615C18.4143 18.937 18.0503 19.098 17.5743 19.098C17.0353 19.098 16.6153 18.909 16.3143 18.531C16.0343 18.181 15.8943 17.726 15.8943 17.173C15.8943 16.641 16.0273 16.2 16.3073 15.85C16.6013 15.472 17.0143 15.283 17.5323 15.283C17.9523 15.283 18.3093 15.479 18.6103 15.878V13.904ZM17.7213 15.927C17.3573 15.927 17.0983 16.046 16.9303 16.284C16.7833 16.487 16.7133 16.781 16.7133 17.173C16.7133 17.565 16.7763 17.866 16.9163 18.076C17.0773 18.328 17.3363 18.454 17.6933 18.454C18.0013 18.454 18.2463 18.328 18.4143 18.083C18.5613 17.859 18.6383 17.565 18.6383 17.215V17.159C18.6383 16.774 18.5403 16.466 18.3583 16.242C18.1903 16.032 17.9733 15.927 17.7213 15.927ZM20.7842 13.904C20.9382 13.904 21.0712 13.953 21.1762 14.051C21.2742 14.149 21.3302 14.275 21.3302 14.429C21.3302 14.583 21.2742 14.716 21.1692 14.814C21.0642 14.912 20.9382 14.961 20.7842 14.961C20.6302 14.961 20.5042 14.912 20.3992 14.814C20.2942 14.709 20.2452 14.583 20.2452 14.429C20.2452 14.275 20.2942 14.149 20.3992 14.051C20.5042 13.953 20.6302 13.904 20.7842 13.904ZM20.3852 15.381H21.1832V19H20.3852V15.381Z" fill="black"/>
</g>
<defs>
<clipPath id="clip0_1087_158">
<rect width="30" height="30" fill="white"/>
</clipPath>
</defs>
</svg>
