<svg width="30" height="30" viewBox="0 0 30 30" xmlns="http://www.w3.org/2000/svg">
<path fill-rule="evenodd" clip-rule="evenodd" d="M5.5 1C5.22386 1 5 1.22386 5 1.5V28.5C5 28.7761 5.22386 29 5.5 29H24.5C24.7761 29 25 28.7761 25 28.5V6.97519C25 6.72384 24.9053 6.4817 24.7349 6.29699L20.1434 1.3218C19.9541 1.11667 19.6876 1 19.4085 1H5.5ZM19.1998 3.39637C19.0099 3.18101 18.7367 3.05762 18.4496 3.05762H7.08015C6.91447 3.05762 6.78015 3.19193 6.78015 3.35762V26.6426C6.78015 26.8083 6.91446 26.9426 7.08015 26.9426H22.9199C23.0856 26.9426 23.2199 26.8083 23.2199 26.6426V8.33493C23.2199 8.09144 23.1311 7.85633 22.9701 7.67368L19.1998 3.39637Z" fill="black"/>
<path d="M20.8065 15.5041C20.7606 15.2514 20.5152 14.9941 20.2606 14.9372L20.0702 14.8939C19.623 14.7596 19.2261 14.4659 18.9738 14.0334C18.7215 13.5985 18.6619 13.1045 18.772 12.6514L18.8316 12.4739C18.9073 12.228 18.8087 11.8888 18.6091 11.7203C18.6091 11.7203 18.4302 11.57 17.9256 11.2809C17.421 10.994 17.2031 10.9143 17.2031 10.9143C16.9577 10.8256 16.6136 10.9098 16.4347 11.0988L16.3017 11.2399C15.9622 11.5586 15.5058 11.7521 15.0011 11.7521C14.4965 11.7521 14.0355 11.5564 13.696 11.2354L13.5676 11.0988C13.391 10.9098 13.0446 10.8255 12.7992 10.9143C12.7992 10.9143 12.579 10.994 12.0744 11.2809C11.5697 11.5723 11.3931 11.7225 11.3931 11.7225C11.1936 11.8887 11.095 12.2257 11.1706 12.4738L11.2257 12.6537C11.3335 13.1067 11.2762 13.5985 11.0239 14.0333C10.7715 14.4682 10.3701 14.7641 9.92057 14.8962L9.73708 14.9372C9.48477 14.9941 9.23706 15.2491 9.19119 15.5041C9.19119 15.5041 9.1499 15.7317 9.1499 16.31C9.1499 16.8883 9.19119 17.1159 9.19119 17.1159C9.23706 17.3709 9.48249 17.6259 9.73709 17.6828L9.916 17.7238C10.3656 17.8559 10.7693 18.1518 11.0216 18.5889C11.2739 19.0238 11.3335 19.5178 11.2234 19.9709L11.1707 20.1462C11.095 20.392 11.1936 20.7313 11.3931 20.8997C11.3931 20.8997 11.5721 21.05 12.0767 21.3391C12.5813 21.6283 12.7992 21.7057 12.7992 21.7057C13.0446 21.7945 13.3887 21.7102 13.5676 21.5213L13.6937 21.3869C14.0355 21.0659 14.4942 20.8701 15.0011 20.8701C15.5081 20.8701 15.9691 21.0682 16.3086 21.3892L16.4347 21.5235C16.6113 21.7125 16.9577 21.7967 17.2031 21.7079C17.2031 21.7079 17.4233 21.6283 17.9279 21.3414C18.4325 21.0523 18.6091 20.902 18.6091 20.902C18.8087 20.7358 18.9073 20.3966 18.8316 20.1484L18.7766 19.9663C18.6688 19.5155 18.7261 19.0238 18.9784 18.5912C19.2307 18.1564 19.6344 17.8581 20.084 17.7261L20.2629 17.6851C20.5152 17.6282 20.7629 17.3732 20.8088 17.1182C20.8088 17.1182 20.8501 16.8906 20.8501 16.3123C20.8478 15.7317 20.8065 15.5041 20.8065 15.5041H20.8065ZM15.0011 18.6254C13.7144 18.6254 12.6684 17.5895 12.6684 16.31C12.6684 15.0328 13.7121 13.9969 15.0011 13.9969C16.2879 13.9969 17.3338 15.0328 17.3338 16.3123C17.3315 17.5895 16.2879 18.6254 15.0011 18.6254Z" fill="black"/>
</svg>
