<svg width="30" height="30" viewBox="0 0 30 30" fill="none" xmlns="http://www.w3.org/2000/svg">
<path fill-rule="evenodd" clip-rule="evenodd" d="M5.5 1C5.22386 1 5 1.22386 5 1.5V28.5C5 28.7761 5.22386 29 5.5 29H24.5C24.7761 29 25 28.7761 25 28.5V6.97519C25 6.72384 24.9053 6.4817 24.7349 6.29699L20.1434 1.3218C19.9541 1.11667 19.6876 1 19.4085 1H5.5ZM19.1998 3.39637C19.0099 3.18101 18.7367 3.05762 18.4496 3.05762H7.08015C6.91447 3.05762 6.78015 3.19193 6.78015 3.35762V26.6426C6.78015 26.8083 6.91446 26.9426 7.08015 26.9426H22.9199C23.0856 26.9426 23.2199 26.8083 23.2199 26.6426V8.33493C23.2199 8.09144 23.1311 7.85633 22.9701 7.67368L19.1998 3.39637Z" fill="black"/>
<path d="M13.8191 14.9646C13.7228 15.0655 13.6266 15.1664 13.5306 15.2674L14.6768 16.2994C14.7751 16.2016 14.874 16.103 14.9733 16.0039L13.8191 14.9646Z" fill="black"/>
<path d="M13.9447 14.8334L15.1019 15.8753C16.9156 14.0617 18.8494 12.0745 20.1172 10.7553C20.7666 10.1215 21.2416 8.71178 19.4256 9.71801C18.5055 10.2279 16.2025 12.4764 13.9447 14.8334Z" fill="black"/>
<path d="M9.77541 19.3652C10.7017 18.3063 12.0233 16.8568 13.4055 15.3991L14.5478 16.4276C12.7431 18.2205 11.1446 19.7463 10.5706 20.129L9.77541 19.3652Z" fill="black"/>
<path d="M9.55845 20.5928C9.40348 20.6591 9.2487 20.4988 9.32032 20.3462L9.71933 19.4962L10.4218 20.2237L9.55845 20.5928Z" fill="black"/>
<path d="M10.5741 20.4325C10.5741 20.3213 10.6642 20.2312 10.7753 20.2312H20.4801C20.5913 20.2312 20.6814 20.3213 20.6814 20.4325C20.6814 20.5436 20.5913 20.6337 20.4801 20.6337H10.7753C10.6642 20.6337 10.5741 20.5436 10.5741 20.4325Z" fill="black"/>
</svg>
