<svg width="31" height="30" viewBox="0 0 31 30" fill="none" xmlns="http://www.w3.org/2000/svg">
<path d="M27.9762 11.7384C27.8244 11.222 27.2838 10.9267 26.7652 11.0784C26.2489 11.2307 25.9532 11.7725 26.1052 12.2894C26.4 13.2905 26.5497 14.3321 26.5497 15.3861C26.5497 17.4902 25.9512 19.5326 24.8186 21.2929C24.5276 21.7458 24.6582 22.3493 25.1114 22.6406C25.2683 22.7418 25.4511 22.7956 25.6378 22.7955C25.9584 22.7955 26.2723 22.6377 26.4591 22.3479C27.794 20.2725 28.5 17.8649 28.5 15.3859C28.5 14.1456 28.324 12.9187 27.9762 11.7384ZM11.2117 5.37202C12.6011 4.76014 14.0823 4.45001 15.6139 4.45001C18.805 4.45001 21.8296 5.83969 23.9114 8.26199C24.1043 8.48641 24.377 8.60166 24.6513 8.60166C24.8763 8.60166 25.1027 8.52435 25.2863 8.36624C25.6949 8.01527 25.7415 7.39934 25.3906 6.99133C22.9375 4.13698 19.374 2.5 15.6139 2.5C13.8101 2.5 12.0645 2.86574 10.4258 3.58707C9.93296 3.80425 9.70941 4.37964 9.9263 4.8725C10.1435 5.36507 10.7177 5.58862 11.2117 5.37202ZM3.70273 16.3612C4.24134 16.3612 4.67773 15.9248 4.67773 15.3861C4.67773 12.396 5.86152 9.60389 8.01162 7.52444C8.3985 7.15031 8.40892 6.53293 8.0345 6.14577C7.65979 5.75889 7.04328 5.74876 6.65583 6.12289C4.12261 8.57271 2.72772 11.8626 2.72772 15.3861C2.72772 15.9248 3.16411 16.3612 3.70273 16.3612Z" fill="black"/>
<path d="M22.5678 8.47425C20.8639 6.70523 18.5985 5.64451 16.1893 5.48785C13.6184 5.31671 11.1579 6.19123 9.25535 7.94114C7.17272 9.85582 5.94665 12.6398 5.89192 15.5784C5.88961 15.6945 5.8925 15.813 5.90148 15.8862C5.90061 15.8967 5.75466 16.9342 3.54954 17.3978C3.02251 17.5087 2.68515 18.0256 2.79606 18.5527C2.90639 19.0791 3.42271 19.4176 3.95089 19.3061C7.33923 18.5938 7.91114 16.5059 7.8457 15.7655C7.84164 15.716 7.84048 15.6656 7.84164 15.6158C7.88711 13.2068 8.88325 10.9325 10.5755 9.37657C12.0825 7.99182 14.0325 7.30436 16.0627 7.43409C17.9861 7.55919 19.798 8.4091 21.1636 9.82744C23.2488 11.9923 23.9088 15.3537 22.8449 18.3911C22.1094 20.4908 21.4068 21.7655 20.7275 22.998C20.301 23.7714 19.8599 24.5712 19.438 25.5332C19.2214 26.0263 19.4458 26.6014 19.939 26.8181C20.0667 26.8739 20.1996 26.9006 20.3302 26.9006C20.7058 26.9006 21.0634 26.6825 21.2238 26.3171C21.6107 25.4356 22.0112 24.7088 22.4354 23.9394C23.1536 22.6366 23.896 21.2897 24.6854 19.036C25.99 15.31 25.1589 11.1641 22.5678 8.47425Z" fill="black"/>
<path d="M15.8736 9.44926C13.1368 9.44926 10.9103 11.6758 10.9103 14.4126C10.9103 14.5328 10.9198 14.6793 10.9326 14.8493C11.0203 16.042 11.2259 18.8353 5.23574 21.7977C4.75302 22.0366 4.55524 22.6212 4.79385 23.1042C5.03362 23.587 5.61769 23.7842 6.10042 23.5461C13.2671 20.0011 12.9839 16.1541 12.8774 14.7062C12.869 14.5918 12.8606 14.4937 12.8606 14.4126C12.8606 12.7513 14.2123 11.3996 15.8736 11.3996C17.5352 11.3996 18.887 12.7513 18.887 14.4126C18.887 18.6827 17.5691 22.6664 15.0761 25.9331C14.7495 26.3614 14.8317 26.9733 15.2597 27.2999C15.4293 27.4298 15.6371 27.5002 15.8507 27.5C16.1444 27.5 16.4348 27.368 16.6265 27.1166C19.3813 23.5067 20.8373 19.1139 20.8373 14.4126C20.8373 11.6758 18.6107 9.44926 15.8736 9.44926Z" fill="black"/>
<path d="M16.4907 15.1232C16.4273 14.5904 15.9483 14.2119 15.4115 14.2722C14.8778 14.3335 14.4947 14.8166 14.5537 15.35C14.5801 15.5868 15.1239 21.189 8.92292 24.9781C8.46336 25.2587 8.31857 25.859 8.59946 26.3185C8.78334 26.6194 9.10391 26.785 9.43228 26.785C9.60545 26.785 9.78122 26.739 9.93991 26.642C17.2422 22.1799 16.5249 15.4093 16.4907 15.1232Z" fill="black"/>
</svg>
