<svg width="31" height="31" viewBox="0 0 31 31"  xmlns="http://www.w3.org/2000/svg">
<path d="M28.1062 9.76964L13.7659 24.1118C13.4265 24.4518 12.9584 24.6606 12.4418 24.6606C11.9263 24.6606 11.4589 24.4518 11.1195 24.1118L3.01112 16.0054C2.67352 15.6675 2.46411 15.1989 2.46411 14.6844C2.46411 13.6511 3.30186 12.8112 4.3352 12.8112C4.85181 12.8112 5.31994 13.0218 5.65928 13.3597L12.4418 20.1438L25.4611 7.1227C25.7998 6.78486 26.2685 6.57632 26.7857 6.57632C27.8178 6.57632 28.6568 7.41381 28.6568 8.44739C28.6568 8.96247 28.448 9.4321 28.1062 9.76964Z" fill="black"/>
</svg>
