<svg width="30" height="31" viewBox="0 0 30 31" xmlns="http://www.w3.org/2000/svg">
<g clip-path="url(#clip0_1038_803)">
<path d="M7.83438 2.82519C13.0795 2.82519 16.4725 5.30589 21.4615 5.30589C23.8593 5.30589 25.1557 4.74428 25.8933 4.74428C26.7678 4.74428 27.4618 5.22005 27.4618 6.013V19.7769C27.4618 21.0311 26.8289 21.7673 25.8337 22.1994C24.7337 22.6752 23.8433 22.9211 21.6288 22.9211C16.6238 22.9211 13.2454 20.4404 8.00025 20.4404C5.99532 20.4404 5.12587 20.9016 4.74904 21.0602V28.5911C4.74904 29.2109 4.06029 29.8252 3.41138 29.8252C2.77847 29.8252 2 29.1963 2 28.5911V5.92716C2 4.68608 2.64891 3.97897 3.6281 3.54685C4.74405 3.07107 5.61848 2.82519 7.83293 2.82519H7.83438ZM7.83438 5.30589C5.71014 5.30589 4.97601 5.8966 4.74904 6.31563L4.77959 18.45C5.57982 18.1474 6.53802 17.9742 8.0308 17.9742C13.4869 17.9742 16.925 20.4404 21.6288 20.4404C23.7531 20.4404 24.5869 20.2118 24.8139 19.7928L24.7993 7.48673C23.8638 7.73116 22.9252 7.77205 21.4324 7.77205C16.231 7.77205 12.7943 5.30589 7.83438 5.30589Z" fill="black"/>
</g>
<defs>
<clipPath id="clip0_1038_803">
<rect width="30" height="30" fill="white" transform="translate(0 0.825348)"/>
</clipPath>
</defs>
</svg>
