<svg width="30" height="31" viewBox="0 0 30 31"  xmlns="http://www.w3.org/2000/svg">
<path d="M24.4365 14.2563C23.8652 12.9731 23.0479 11.8364 22.0078 10.8813L21.1553 10.0991C21.0293 9.98776 20.8301 10.0376 20.7744 10.1958L20.3936 11.2885C20.1562 11.9741 19.7197 12.6743 19.1016 13.3628C19.0605 13.4067 19.0137 13.4184 18.9814 13.4214C18.9492 13.4243 18.8994 13.4184 18.8555 13.3774C18.8145 13.3423 18.7939 13.2895 18.7969 13.2368C18.9053 11.4731 18.3779 9.48385 17.2236 7.31881C16.2686 5.51998 14.9414 4.11666 13.2832 3.13815L12.0732 2.42623C11.915 2.33248 11.7129 2.45553 11.7217 2.6401L11.7861 4.04635C11.8301 5.00729 11.7188 5.8569 11.4551 6.56295C11.1328 7.42721 10.6699 8.22995 10.0781 8.95065C9.66211 9.45456 9.19629 9.90866 8.68652 10.3012C7.45312 11.2475 6.43652 12.4809 5.74805 13.8608C5.05371 15.2553 4.6875 16.8169 4.6875 18.3813C4.6875 19.7641 4.95996 21.103 5.49902 22.3657C6.02051 23.5815 6.76465 24.6772 7.71094 25.6147C8.66016 26.5522 9.76172 27.2905 10.9893 27.8032C12.2607 28.3364 13.6084 28.6059 15 28.6059C16.3916 28.6059 17.7393 28.3364 19.0107 27.8061C20.2383 27.2934 21.3428 26.5581 22.2891 25.6176C23.2383 24.6801 23.9824 23.5844 24.501 22.3686C25.04 21.1059 25.3125 19.7671 25.3125 18.3842C25.3125 16.9546 25.0195 15.5659 24.4365 14.2563ZM20.8887 24.1967C19.3154 25.7553 17.2266 26.6108 15 26.6108C12.7734 26.6108 10.6846 25.7553 9.11133 24.1967C7.54395 22.6411 6.67969 20.5786 6.67969 18.3842C6.67969 17.1098 6.9668 15.8882 7.53223 14.7514C8.08301 13.6411 8.90332 12.6479 9.89941 11.8833C10.5293 11.4028 11.1064 10.8432 11.6162 10.2192C12.3486 9.32565 12.9229 8.32956 13.3213 7.26022C13.4795 6.83541 13.5996 6.38131 13.6758 5.89791C14.3818 6.54831 14.9736 7.33346 15.4688 8.25338C16.4473 10.0874 16.8984 11.7192 16.8105 13.1079C16.7695 13.7758 17.0303 14.4116 17.5254 14.8598C17.9561 15.2465 18.5127 15.4428 19.0898 15.4106C19.667 15.3813 20.1973 15.1264 20.584 14.6958C20.9736 14.2592 21.3105 13.8139 21.5918 13.3598C22.002 13.8842 22.3447 14.4555 22.6172 15.0708C23.083 16.1196 23.3203 17.2358 23.3203 18.3842C23.3203 20.5786 22.4561 22.644 20.8887 24.1967Z" fill="black"/>
</svg>
