<svg width="30" height="30" viewBox="0 0 30 30" xmlns="http://www.w3.org/2000/svg">
<rect x="14.8878" y="19.9175" width="10.5986" height="1.84814" rx="0.3" fill="black"/>
<rect x="19.9963" y="17.1963" width="5.49011" height="1.84814" rx="0.3" fill="black"/>
<path fill-rule="evenodd" clip-rule="evenodd" d="M29 24.5C29 24.7761 28.7761 25 28.5 25H1.5C1.22386 25 1 24.7761 1 24.5V5.5C1 5.22386 1.22386 5 1.5 5H23.0248C23.2762 5 23.5183 5.09465 23.703 5.26512L28.6782 9.85663C28.8833 10.0459 29 10.3124 29 10.5915V24.5ZM26.6036 10.8002C26.819 10.9901 26.9424 11.2633 26.9424 11.5504V22.9198C26.9424 23.0855 26.8081 23.2198 26.6424 23.2198H3.35737C3.19169 23.2198 3.05737 23.0855 3.05737 22.9199V7.08012C3.05737 6.91443 3.19169 6.78012 3.35737 6.78012H21.6651C21.9086 6.78012 22.1437 6.86895 22.3263 7.02995L26.6036 10.8002Z" fill="black"/>
</svg>
