<svg width="31" height="30" viewBox="0 0 31 30" xmlns="http://www.w3.org/2000/svg">
<path fill-rule="evenodd" clip-rule="evenodd" d="M6.90405 14.3432C3.86649 14.3432 1.40405 16.8057 1.40405 19.8432C1.40405 22.8808 3.86649 25.3432 6.90405 25.3432C9.94162 25.3432 12.4041 22.8808 12.4041 19.8432C12.4041 16.8057 9.94162 14.3432 6.90405 14.3432ZM6.90401 16.6349C5.1321 16.6349 3.69568 18.0713 3.69568 19.8432C3.69568 21.6152 5.1321 23.0516 6.90401 23.0516C8.67593 23.0516 10.1123 21.6152 10.1123 19.8432C10.1123 18.0713 8.67593 16.6349 6.90401 16.6349Z" fill="black"/>
<path fill-rule="evenodd" clip-rule="evenodd" d="M23.9082 14.3432C20.8706 14.3432 18.4082 16.8057 18.4082 19.8432C18.4082 22.8808 20.8706 25.3432 23.9082 25.3432C26.9458 25.3432 29.4082 22.8808 29.4082 19.8432C29.4082 16.8057 26.9458 14.3432 23.9082 14.3432ZM23.9082 16.6349C22.1363 16.6349 20.6999 18.0713 20.6999 19.8432C20.6999 21.6152 22.1363 23.0516 23.9082 23.0516C25.6801 23.0516 27.1165 21.6152 27.1165 19.8432C27.1165 18.0713 25.6801 16.6349 23.9082 16.6349Z" fill="black"/>
<path d="M2.4082 8.87109C2.4082 8.31881 2.85592 7.87109 3.4082 7.87109H27.4082C27.9605 7.87109 28.4082 8.31881 28.4082 8.87109C28.4082 9.42338 27.9605 9.87109 27.4082 9.87109H3.4082C2.85592 9.87109 2.4082 9.42338 2.4082 8.87109Z" fill="black"/>
<path d="M6.64864 19.8432C6.64864 19.1529 7.20829 18.5932 7.89864 18.5932H13.8064C14.4967 18.5932 15.0564 19.1529 15.0564 19.8432C15.0564 20.5336 14.4967 21.0932 13.8064 21.0932H7.89864C7.20829 21.0932 6.64864 20.5336 6.64864 19.8432Z" fill="black"/>
<path d="M13.5275 20.5453C12.9071 20.2427 12.6494 19.4943 12.952 18.8738L16.0715 12.4779C16.3742 11.8574 17.1225 11.5997 17.743 11.9024C18.3635 12.205 18.6211 12.9533 18.3185 13.5738L15.199 19.9698C14.8964 20.5902 14.148 20.8479 13.5275 20.5453Z" fill="black"/>
</svg>
