<svg width="30" height="30" viewBox="0 0 30 30" xmlns="http://www.w3.org/2000/svg">
<path d="M19.5 3H25.5C26.4 3 27 3.6 27 4.49999C27 5.39999 26.4 5.99999 25.5 5.99999H19.5C18.6 5.99999 18 5.39999 18 4.49999C18 3.6 18.6 3 19.5 3Z" fill="black"/>
<path d="M25.5 3C26.4 3 27 3.6 27 4.49999V10.5C27 11.4 26.4 12 25.5 12C24.6 12 24 11.4 24 10.5V4.49999C24 3.6 24.6 3 25.5 3Z" fill="black"/>
<path d="M25.0499 4.79999C25.4999 5.39999 25.4999 6.29999 25.0499 6.89999L18.8999 13.05C18.2999 13.65 17.4 13.65 16.8 13.05C16.2 12.45 16.2 11.55 16.8 10.95L22.9499 4.79999C23.5499 4.34999 24.4499 4.34999 25.0499 4.79999ZM4.49999 23.9999H10.5C11.4 23.9999 12 24.5999 12 25.4999C12 26.3999 11.4 26.9999 10.5 26.9999H4.49999C3.6 26.9999 3 26.3999 3 25.4999C3 24.5999 3.6 23.9999 4.49999 23.9999Z" fill="black"/>
<path d="M4.5 17.9998C5.39999 17.9998 5.99999 18.5998 5.99999 19.4998V25.4998C5.99999 26.3998 5.39999 26.9998 4.5 26.9998C3.6 26.9998 3 26.3998 3 25.4998V19.4998C3 18.5998 3.6 17.9998 4.5 17.9998Z" fill="black"/>
<path d="M4.8001 25.0499C4.2001 24.4499 4.2001 23.5499 4.8001 22.9499L10.9501 16.7999C11.5501 16.1999 12.4501 16.1999 13.0501 16.7999C13.6501 17.3999 13.6501 18.2999 13.0501 18.8999L6.90009 25.0499C6.30009 25.4999 5.40009 25.4999 4.8001 25.0499Z" fill="black"/>
<path d="M4.8001 25.0499C4.2001 24.4499 4.2001 23.5499 4.8001 22.9499L10.9501 16.7999C11.5501 16.1999 12.4501 16.1999 13.0501 16.7999C13.6501 17.3999 13.6501 18.2999 13.0501 18.8999L6.90009 25.0499C6.30009 25.4999 5.40009 25.4999 4.8001 25.0499Z" fill="black"/>
<path d="M3 10.5L3 4.50002C3 3.60003 3.6 3.00003 4.49999 3.00003C5.39999 3.00003 5.99999 3.60003 5.99999 4.50002V10.5C5.99999 11.4 5.39999 12 4.49999 12C3.6 12 3 11.4 3 10.5Z" fill="black"/>
<path d="M3 4.50001C3 3.60002 3.6 3.00003 4.49999 3.00003L10.5 3.00003C11.4 3.00003 12 3.60002 12 4.50001C12 5.40001 11.4 6 10.5 6L4.49999 6C3.6 6 3 5.40001 3 4.50001Z" fill="black"/>
<path d="M4.7999 4.95007C5.3999 4.50007 6.2999 4.50007 6.8999 4.95007L13.0499 11.1001C13.6499 11.7001 13.6499 12.6 13.0499 13.2C12.4499 13.8 11.5499 13.8 10.9499 13.2L4.7999 7.05007C4.3499 6.45007 4.3499 5.55007 4.7999 4.95007ZM23.9998 25.5V19.5C23.9998 18.6 24.5998 18 25.4998 18C26.3998 18 26.9998 18.6 26.9998 19.5V25.5C26.9998 26.4 26.3998 27 25.4998 27C24.5998 27 23.9998 26.4 23.9998 25.5Z" fill="black"/>
<path d="M18 25.5C18 24.6 18.6 24 19.5 24H25.5C26.4 24 27 24.6 27 25.5C27 26.4 26.4 27 25.5 27H19.5C18.6 27 18 26.4 18 25.5Z" fill="black"/>
<path d="M25.0501 25.2C24.4501 25.8 23.5501 25.8 22.9501 25.2L16.8001 19.0501C16.2001 18.4501 16.2001 17.5501 16.8001 16.9501C17.4001 16.3501 18.3001 16.3501 18.9001 16.9501L25.0501 23.1C25.5001 23.7 25.5001 24.6 25.0501 25.2Z" fill="black"/>
<path d="M25.0501 25.2C24.4501 25.8 23.5501 25.8 22.9501 25.2L16.8001 19.0501C16.2001 18.4501 16.2001 17.5501 16.8001 16.9501C17.4001 16.3501 18.3001 16.3501 18.9001 16.9501L25.0501 23.1C25.5001 23.7 25.5001 24.6 25.0501 25.2Z" fill="black"/>
</svg>
