<svg width="30" height="30" viewBox="0 0 30 30" xmlns="http://www.w3.org/2000/svg">
<path d="M18.5285 4.21407H1.60705C1.30352 4.21407 1.07588 4.51759 1 4.66935V26.6748C1 27.0997 1.35411 27.3071 1.53117 27.3577H6.99458C7.48022 27.3577 7.55104 26.9024 7.52575 26.6748V19.0108C7.52575 18.6466 7.87986 18.4543 8.05691 18.4038H14.2033C14.5675 18.4038 14.6079 18.1002 14.5827 17.9485V13.5474C14.5827 13.1225 14.3297 13.0668 14.2033 13.0921H8.05691C7.69268 13.0921 7.55104 12.6874 7.52575 12.4851C7.50045 11.8527 7.46504 10.497 7.52575 10.1327C7.58645 9.76852 7.90515 9.72805 8.05691 9.75334C11.2945 9.70276 17.8911 9.63194 18.3767 9.75334C18.8623 9.87475 18.9332 10.2086 18.9079 10.3604V12.4851C18.9079 12.8493 18.4526 13.0415 18.2249 13.0921H16.0244C15.7209 13.0921 15.5438 13.3956 15.4932 13.5474C15.4679 14.8374 15.4325 17.5235 15.4932 17.9485C15.5539 18.3734 15.8726 18.429 16.0244 18.4038H18.5285C18.832 18.4038 18.9079 18.8084 18.9079 19.0108C18.8826 19.6178 18.8472 20.9382 18.9079 21.3631C18.9686 21.788 19.2873 21.8437 19.439 21.8184H23.9919C24.2347 21.8184 24.346 21.4137 24.3713 21.2113V19.0108C24.3713 18.6466 24.776 18.4543 24.9783 18.4038C25.5095 18.429 26.6932 18.4645 27.1789 18.4038C27.6645 18.343 27.7353 17.9232 27.71 17.7208V13.775C27.71 13.2894 27.3559 13.1174 27.1789 13.0921H24.9783C24.6141 13.0921 24.4219 12.6874 24.3713 12.4851C24.3966 11.9539 24.432 10.7853 24.3713 10.3604C24.3106 9.93546 23.8907 9.67746 23.6883 9.60158H19.439C19.1962 9.60158 19.0849 9.29806 19.0596 9.1463V4.66935C19.0596 4.24442 18.7055 4.18877 18.5285 4.21407Z" fill="black"/>
<path d="M21.2602 3.45524C20.8959 3.45524 20.8049 3.80935 20.8049 3.98641V7.1734C20.8049 7.35551 21.0072 7.45163 21.1084 7.47692H24.523C24.8266 7.47692 24.9024 7.27457 24.9024 7.1734C24.8771 6.18695 24.9024 4.14419 24.9024 3.83465C24.9024 3.45524 24.523 3.45524 24.2954 3.45524H21.2602Z" fill="black"/>
<path d="M26.496 3.30352V5.27642C26.496 5.57995 26.7489 5.60524 26.8754 5.57995H28.6207C28.9242 5.57995 29.0001 5.3776 29.0001 5.27642V3.30352C29.0001 3.0607 28.7471 3 28.6207 3H26.8754C26.6326 3 26.5213 3.20235 26.496 3.30352Z" fill="black"/>
<path d="M28.3171 7.55285H25.8131C25.4488 7.55285 25.3072 7.85637 25.2819 8.00813C25.2819 8.69106 25.2971 10.148 25.3578 10.5122C25.4185 10.8764 25.6866 10.9675 25.8131 10.9675H28.3171C28.7421 10.9675 28.8483 10.7145 28.8483 10.5881V8.00813C28.8483 7.6439 28.4942 7.55285 28.3171 7.55285Z" fill="black"/>
</svg>
