<svg width="31" height="30" viewBox="0 0 31 30" xmlns="http://www.w3.org/2000/svg">
<path d="M17.3783 4.71439C16.6618 6.04169 16.512 7.66559 16.8145 9.26892C18.5294 7.79773 19.4104 6.47923 19.6277 5.17542C19.9536 3.21677 18.456 2.72343 17.3783 4.71439ZM17.6074 16.2226L18.1712 20.7331C19.4133 20.2691 19.9713 19.4616 19.845 18.3105C19.7187 17.1593 18.9728 16.4634 17.6074 16.2226ZM16.3124 12.088C14.7325 13.1804 13.6196 14.2463 12.9735 15.2888C12.0045 16.851 12.7239 19.8844 14.2685 20.5804C15.2993 21.0443 16.2859 21.2029 17.2315 21.0532L16.6824 16.3724C15.7221 16.6719 15.1906 17.2974 15.0937 18.2458C14.9968 19.1943 15.4108 19.9226 16.3388 20.4277C14.5622 19.8815 13.7106 18.933 13.787 17.5763C13.8633 16.2197 14.7707 15.1831 16.5091 14.4607L16.3124 12.088ZM18.6616 1.00557C19.9096 1.13478 21.0137 4.92582 20.1416 7.46003C19.5601 9.14853 18.5001 10.3642 17.0641 11.5653L17.3401 14.0877C17.3548 14.2199 17.3636 14.3139 17.3695 14.3726C19.4163 14.2845 21.3984 16.2167 21.1547 18.516C20.9932 20.0489 20.0682 21.1765 18.3797 21.9018L18.412 22.1544C18.6351 23.9515 18.6997 25.2729 18.6116 26.1245C18.4707 27.4606 17.2374 28.9054 15.2141 28.9964C13.1908 29.0845 11.3643 27.5252 11.5875 26.2185C11.8107 24.9117 13.044 24.5711 13.8427 24.8794C14.6385 25.1878 15.1436 26.1392 14.7736 26.7764C14.4036 27.4136 13.6871 27.5311 13.9103 27.8101C14.1335 28.092 14.8147 28.2094 15.775 28.0039C17.2139 27.6956 17.622 26.2449 17.6573 25.1995C17.6808 24.5006 17.6044 23.5697 17.4253 22.401C13.4199 22.2336 11.1 20.8682 10.4687 18.3016C9.5202 14.4519 12.2658 12.0381 15.9893 9.65067C15.7192 8.76384 15.4666 6.96376 15.5342 5.40447C15.637 3.01415 17.4165 0.876364 18.6616 1.00557Z" fill="black"/>
</svg>
