<svg width="30" height="30" viewBox="0 0 30 30" xmlns="http://www.w3.org/2000/svg">
<path d="M28.4704 13.7517L16.2449 1.52734C15.9059 1.18964 15.447 1.00003 14.9685 1.00003C14.4901 1.00003 14.0311 1.18964 13.6922 1.52734L11.1594 4.06484L14.3794 7.28485C14.7593 7.15615 15.1676 7.13658 15.5581 7.22836C15.9486 7.32015 16.3054 7.51961 16.5882 7.80408C16.871 8.08855 17.0683 8.44663 17.1578 8.83764C17.2472 9.22865 17.2252 9.6369 17.0942 10.016L20.1952 13.1194C20.6541 12.9598 21.1537 12.9608 21.6119 13.1222C22.0702 13.2837 22.4601 13.596 22.7177 14.008C22.9752 14.42 23.0853 14.9072 23.0297 15.3899C22.9742 15.8726 22.7563 16.3222 22.4119 16.6649C22.2128 16.8642 21.9764 17.0224 21.7162 17.1303C21.4559 17.2383 21.1769 17.2938 20.8952 17.2938C20.6135 17.2938 20.3345 17.2383 20.0742 17.1303C19.814 17.0224 19.5776 16.8642 19.3785 16.6649C19.0802 16.3657 18.8765 15.9855 18.7927 15.5714C18.7089 15.1573 18.7487 14.7278 18.9072 14.3362L16.0034 11.4475V19.06C16.2087 19.1604 16.4024 19.2969 16.5727 19.466C16.9722 19.8697 17.1964 20.4147 17.1964 20.9827C17.1964 21.5507 16.9722 22.0957 16.5727 22.4994C16.3729 22.6994 16.1357 22.858 15.8745 22.9662C15.6134 23.0745 15.3335 23.1302 15.0508 23.1302C14.7681 23.1302 14.4882 23.0745 14.227 22.9662C13.9659 22.858 13.7287 22.6994 13.5289 22.4994C13.3294 22.3006 13.1712 22.0644 13.0632 21.8043C12.9552 21.5443 12.8996 21.2655 12.8996 20.9839C12.8996 20.7023 12.9552 20.4235 13.0632 20.1634C13.1712 19.9033 13.3294 19.6671 13.5289 19.4684C13.7412 19.2584 13.9804 19.0997 14.2347 18.9947V11.3075C13.9728 11.2005 13.7347 11.0425 13.5343 10.8428C13.3338 10.6431 13.175 10.4057 13.0669 10.1442C12.9588 9.8827 12.9037 9.60238 12.9047 9.31944C12.9057 9.0365 12.9628 8.75657 13.0727 8.49585L9.90868 5.31668L1.525 13.6945C0.825 14.4004 0.825 15.5425 1.525 16.2484L13.7517 28.4716C13.9191 28.6391 14.1179 28.772 14.3367 28.8627C14.5555 28.9534 14.79 29.0001 15.0269 29.0001C15.2637 29.0001 15.4982 28.9534 15.717 28.8627C15.9358 28.772 16.1346 28.6391 16.302 28.4716L28.4704 16.3032C28.6383 16.1359 28.7715 15.937 28.8623 15.7181C28.9532 15.4992 29 15.2645 29 15.0274C29 14.7904 28.9532 14.5557 28.8623 14.3368C28.7715 14.1179 28.6383 13.919 28.4704 13.7517Z" fill="black"/>
</svg>
