<svg width="31" height="31" viewBox="0 0 31 31"  xmlns="http://www.w3.org/2000/svg">
<path d="M15.2483 1.62485H15.8746C16.5036 1.69556 17.1349 1.74923 17.7609 1.83999C20.3829 2.22001 22.6778 3.31992 24.6925 5.02425C26.0034 6.13324 27.0658 7.45498 27.8806 8.95656C28.7249 10.5124 29.2623 12.1816 29.4558 13.9511C29.4997 14.3526 29.547 14.7538 29.5928 15.1551V16.0947C29.5334 16.5886 29.4771 17.083 29.414 17.5765C29.2425 18.9166 28.899 20.2135 28.2871 21.4176C27.8554 22.267 27.3695 23.0945 26.843 23.8888C26.1895 24.875 25.349 25.709 24.4337 26.4526C23.2069 27.4491 21.8517 28.2343 20.3543 28.7622C19.0824 29.2105 17.7815 29.5104 16.4294 29.5665C16.2231 29.5751 16.0178 29.6049 15.812 29.6249H15.3735C15.1672 29.605 14.9596 29.5939 14.7549 29.5635C13.8515 29.4292 12.9331 29.3543 12.0495 29.1378C10.3046 28.7103 8.71123 27.9312 7.26694 26.8531C6.31947 26.1458 5.47012 25.3385 4.72878 24.4188C3.9879 23.4995 3.36867 22.5067 2.87741 21.4291C2.28093 20.1206 1.89804 18.7561 1.72 17.3332C1.65821 16.8393 1.63409 16.3406 1.59277 15.8441V15.4056C1.61055 15.2835 1.63018 15.1616 1.64579 15.0392C1.75232 14.2044 1.8098 13.3599 1.97389 12.5366C2.33472 10.7263 3.10182 9.07778 4.16107 7.57422C5.06609 6.2895 6.16706 5.19165 7.44896 4.27025C8.68679 3.38054 10.029 2.70676 11.4808 2.26663C12.637 1.91609 13.822 1.68243 15.04 1.67385C15.1096 1.67333 15.1789 1.64188 15.2483 1.62485ZM10.9446 26.697C12.0392 27.1906 13.152 27.4409 14.2919 27.5746C15.3116 27.6942 16.3266 27.6568 17.3471 27.5082C18.4282 27.3508 19.4641 27.0554 20.4554 26.6182C21.7611 26.0424 22.9274 25.2465 23.9592 24.255C24.1289 24.0919 24.1728 23.9484 24.0522 23.7444C23.9463 23.5654 23.8674 23.3705 23.7605 23.1923C23.6361 22.9848 23.6582 22.8081 23.7582 22.5854C23.9405 22.1798 24.1086 21.7582 24.2043 21.326C24.3255 20.7777 24.2366 20.2596 23.816 19.8194C23.5745 19.5666 23.3651 19.2681 23.2037 18.9577C23.0349 18.633 22.9409 18.2694 22.8054 17.8988C22.7292 17.9615 22.6636 18.0247 22.5893 18.0751C22.1687 18.3607 21.7656 18.6797 21.3195 18.9178C20.726 19.2345 20.145 19.23 19.6429 18.6814C19.5079 18.5337 19.3107 18.4171 19.1195 18.3518C18.692 18.2058 18.4366 17.892 18.2176 17.5308C18.1096 17.3527 18.0097 17.1694 17.9143 16.9843C17.2874 15.7685 17.5376 14.8936 18.5738 14.0763C18.7883 13.907 18.8589 13.7598 18.8957 13.5036C18.9525 13.1081 19.0589 12.7088 19.2188 12.3438C19.2986 12.1619 19.5319 11.9514 19.7165 11.9297C20.1983 11.873 20.5624 11.601 20.9719 11.4041C21.2962 11.2482 21.6391 11.0941 21.9896 11.0379C22.6831 10.927 23.2022 11.3238 23.68 11.7581C23.8059 11.8724 23.8857 11.8688 24.0289 11.7994C24.4208 11.6092 24.8158 11.4181 25.2262 11.2753C25.6721 11.1201 26.1367 11.019 26.5942 10.894C26.5942 10.8647 26.6038 10.83 26.5928 10.8042C26.1169 9.68207 25.4584 8.67416 24.6643 7.75407C24.6185 7.70102 24.4868 7.69418 24.4022 7.70843C24.2415 7.73553 24.0884 7.80534 23.928 7.83629C23.5107 7.91684 23.4462 8.01402 23.6076 8.40479C23.7267 8.69316 23.885 8.96605 23.9932 9.25797C24.051 9.41413 24.0397 9.59597 24.0596 9.76624C23.8893 9.78035 23.6836 9.86211 23.5558 9.79517C23.24 9.62974 22.9398 9.41941 22.6698 9.18505C22.1345 8.72015 21.3972 8.75255 20.962 9.30965C20.7513 9.57937 20.5951 9.89167 20.3844 10.1614C20.0948 10.5324 19.7768 10.8813 19.471 11.2397C19.4345 11.2266 19.398 11.2135 19.3616 11.2005C19.4098 10.5204 19.0192 10.0406 18.5735 9.50429C18.7939 9.46319 18.9388 9.42461 19.0859 9.41164C19.2726 9.39516 19.4645 9.41865 19.648 9.3884C19.7822 9.36628 19.9066 9.28521 20.0353 9.23044C19.9795 9.11286 19.9479 8.97313 19.8639 8.88131C19.3826 8.35527 19.5578 8.20718 20.0323 7.84791C20.0734 7.81674 20.1266 7.8014 20.1678 7.77033C20.4578 7.55216 20.8098 7.36215 20.8497 6.9603C20.9055 6.40104 21.2535 6.17617 21.7382 6.06592L22.5359 5.88452L22.554 5.79863L20.963 4.88926C21.1791 5.50824 21.1575 5.75884 20.6558 6.1349C20.3061 6.39699 19.8918 6.61326 19.473 6.73461C18.527 7.00865 18.3215 6.83775 18.4745 5.86972C18.5524 5.37718 18.6765 4.8915 18.7917 4.40552C18.8481 4.16705 18.8255 4.03452 18.5377 3.96799C17.1765 3.65329 15.811 3.52584 14.4125 3.66871C13.7284 3.7386 13.7191 3.70388 13.569 4.5409C13.5481 4.65782 13.5159 4.77275 13.4848 4.90627C13.3088 4.84882 13.1695 4.80884 13.0342 4.75817C12.5706 4.58465 12.1693 4.70015 11.9074 5.09836C11.6028 5.5612 11.3603 6.06493 11.0928 6.54733C11.4828 6.7882 11.6252 7.21848 11.5389 7.72702C11.4484 8.25976 11.013 8.09961 10.6166 8.1459C10.7982 8.2529 10.9219 8.32284 11.0426 8.39755C11.3641 8.59639 11.3859 8.69762 11.1509 8.9844C11.0192 9.14507 10.857 9.28182 10.7343 9.44839C10.6193 9.60458 10.5183 9.57382 10.3614 9.51651C10.0115 9.38865 9.65465 9.26166 9.28955 9.1973C8.7805 9.10761 8.61012 9.23323 8.55105 9.7331C8.50052 10.1607 8.26657 10.4037 7.88069 10.4885C7.55869 10.5593 7.22242 10.5775 6.89131 10.592C6.20485 10.6221 6.09826 10.7211 6.07114 11.4009C6.06159 11.6404 6.04959 11.8805 6.02288 12.1185C5.99597 12.3584 5.9254 12.5822 5.62459 12.59C5.3296 12.5978 5.17333 12.4341 5.09983 12.1559C5.01507 11.8349 4.92016 11.5155 4.80597 11.204C4.76635 11.0959 4.65604 11.0137 4.5304 10.8624C4.37817 11.3027 4.26576 11.6574 4.13301 12.0043C3.97559 12.4156 3.93646 12.7621 4.16292 13.2159C4.50726 13.9058 4.65519 14.6913 4.92387 15.4226C5.07889 15.8445 5.30718 16.2394 5.497 16.635C5.5994 16.6034 5.62232 16.6017 5.63829 16.5904C5.68065 16.5602 5.72134 16.5278 5.76018 16.4932C6.07395 16.2146 6.3837 16.1588 6.78238 16.3768C7.07178 16.535 7.43144 16.6503 7.75562 16.6408C8.36594 16.6232 8.73809 16.8697 8.96282 17.4126C9.0025 17.5084 9.09536 17.6434 9.17518 17.6519C9.89123 17.7278 10.3157 18.2206 10.7237 18.7227C11.4295 19.5914 12.2622 20.2582 13.346 20.6122C13.7195 20.7342 14.0761 20.9675 14.3821 21.2207C14.7019 21.4852 14.6081 21.9569 14.2401 22.1522C13.9716 22.2946 13.7312 22.4661 13.6804 22.7787C13.6171 23.1677 13.5782 23.5624 13.5587 23.9561C13.5313 24.5072 13.4657 24.5571 12.9151 24.6046C12.6275 24.6293 12.2816 24.6849 12.0799 24.8614C11.5307 25.3414 11.2286 26.0024 10.9446 26.697ZM3.67675 14.3326C3.3559 15.4127 3.74681 18.3641 4.32442 19.8428C5.21648 22.1264 6.75853 23.9462 7.49345 24.4133C7.24216 23.903 7.00969 23.4307 6.77713 22.9586C6.68501 22.7715 6.58422 22.6253 6.35693 22.5399C6.16066 22.4662 5.97576 22.2816 5.85578 22.0998C5.41713 21.4348 5.21804 20.6809 5.15187 19.8955C5.09073 19.1697 4.94444 18.423 5.0554 17.7201C5.13781 17.1981 4.96768 16.9359 4.65547 16.6437C4.6098 16.601 4.56586 16.5564 4.5217 16.5121C4.38944 16.3791 4.36664 16.2547 4.46447 16.0697C4.55167 15.9047 4.62315 15.681 4.58457 15.5095C4.468 14.9916 4.12661 14.623 3.67675 14.3326Z" fill="black"/>
</svg>
