<svg width="30" height="30" viewBox="0 0 30 30" xmlns="http://www.w3.org/2000/svg">
<path d="M28.4402 15.3115C28.4402 14.1597 28.3471 13.32 28.1448 12.4492H15V17.6445H22.7156C22.5604 18.936 21.7201 20.8804 19.8533 22.1868L19.827 22.3605L23.9832 25.5803L24.2715 25.6089C26.9153 23.1668 28.4402 19.5734 28.4402 15.3109" fill="black"/>
<path d="M15.0002 29C18.7804 29 21.9536 27.7556 24.2717 25.6089L19.8535 22.1868C18.6718 23.011 17.0843 23.5869 15.0002 23.5869C11.2982 23.5869 8.15595 21.1447 7.03574 17.7692L6.87162 17.7829L2.55011 21.1274L2.49341 21.2844C4.79591 25.8578 9.52444 29 15.0002 29Z" fill="black"/>
<path d="M7.03555 17.7692C6.72965 16.8778 6.57198 15.9423 6.56885 15C6.56885 14.0355 6.74013 13.1021 7.02004 12.2307L7.01228 12.0457L2.63646 8.64749L2.49322 8.71553C1.51288 10.6655 1.00156 12.8174 1 15C1 17.2559 1.54429 19.3865 2.49322 21.2844L7.03555 17.7692Z" fill="black"/>
<path d="M15.0001 6.41308C17.629 6.41308 19.4022 7.54881 20.4132 8.49774L24.3652 4.64055C21.938 2.3846 18.7803 1 15.0013 1C9.52493 1 4.7958 4.14221 2.4939 8.71558L7.02071 12.2308C8.15644 8.85583 11.2987 6.41308 15.0007 6.41308" fill="black"/>
</svg>
