<svg width="30" height="30" viewBox="0 0 30 30" xmlns="http://www.w3.org/2000/svg">
<path d="M5.62524 13.2063V15.0109H8.12337C8.07299 15.2986 7.96512 15.5732 7.80621 15.8183C7.6473 16.0633 7.44061 16.2738 7.19849 16.4372C6.78112 16.7238 6.24824 16.8869 5.62349 16.8869C4.41599 16.8869 3.39531 16.0596 3.02912 14.9523C2.8375 14.3698 2.8375 13.7411 3.02912 13.1586C3.39531 12.0447 4.41599 11.2174 5.62349 11.2174C5.9508 11.2113 6.27604 11.2703 6.58031 11.3911C6.88458 11.5119 7.16178 11.692 7.39581 11.9209L8.72056 10.5813C7.88621 9.78854 6.77607 9.3517 5.62524 9.36326C4.76434 9.36656 3.9215 9.61046 3.19188 10.0674C2.46225 10.5244 1.8749 11.1762 1.49612 11.9493C1.16985 12.6027 1 13.323 1 14.0533C1 14.7836 1.16985 15.5038 1.49612 16.1572V16.1638C1.875 16.9364 2.46251 17.5876 3.19221 18.0438C3.92192 18.5 4.76469 18.7429 5.62524 18.745C6.87081 18.745 7.9243 18.3281 8.68774 17.6114C9.56274 16.7973 10.0619 15.5924 10.0619 14.1591C10.0624 13.84 10.0368 13.5213 9.98537 13.2063H5.62524ZM22.6619 13.0313C22.2187 12.6209 21.615 12.4126 20.8511 12.4126C19.8685 12.4126 19.13 12.7775 18.6417 13.5003L19.5539 14.0804C19.8879 13.5846 20.3438 13.3366 20.9216 13.3366C21.2894 13.3375 21.644 13.4745 21.9169 13.7212C22.0499 13.8367 22.1565 13.9794 22.2297 14.1396C22.3028 14.2998 22.3407 14.4739 22.3408 14.65V14.8911C21.9427 14.6693 21.4417 14.552 20.8253 14.552C20.1061 14.552 19.5281 14.7218 19.0976 15.0669C18.6671 15.4121 18.4492 15.868 18.4492 16.4477C18.4425 16.7068 18.4938 16.9641 18.5993 17.2008C18.7048 17.4375 18.8619 17.6476 19.0591 17.8158C19.4638 18.1806 19.9779 18.3631 20.5812 18.3631C21.2939 18.3631 21.8591 18.0437 22.2874 17.4054H22.3312V18.1806H23.3204V14.7375C23.3234 14.0134 23.1051 13.4399 22.6619 13.0313ZM21.8206 16.9381C21.6689 17.0925 21.488 17.2152 21.2884 17.299C21.0889 17.3828 20.8746 17.4261 20.6582 17.4264C20.3672 17.4312 20.0836 17.3345 19.8562 17.1529C19.7501 17.0734 19.6641 16.9702 19.6051 16.8514C19.546 16.7327 19.5156 16.6017 19.5163 16.4691C19.5163 16.1629 19.6572 15.9087 19.9337 15.707C20.2102 15.5053 20.5694 15.4008 20.9867 15.4008C21.5625 15.3938 22.0131 15.525 22.3342 15.7849C22.3342 16.2281 22.161 16.6122 21.8206 16.9381ZM17.7234 10.7256C17.4913 10.4935 17.2146 10.3107 16.9101 10.1882C16.6055 10.0657 16.2793 10.0059 15.9511 10.0125H13.2093V18.1824H14.2431V14.8731H15.9494C16.6494 14.8731 17.24 14.6386 17.7217 14.1762C17.7602 14.1373 17.7987 14.0979 17.8376 14.0589C18.2592 13.5989 18.4834 12.9917 18.462 12.3681C18.4407 11.7444 18.1755 11.1541 17.7234 10.7239V10.7256ZM16.9981 13.4482C16.8677 13.5873 16.7092 13.697 16.5332 13.7701C16.3571 13.8431 16.1675 13.8777 15.9769 13.8717H14.2431V11.0188H15.9769C16.3469 11.0174 16.7024 11.1626 16.9657 11.4226C17.2335 11.6893 17.3868 12.05 17.3928 12.4279C17.3988 12.8059 17.2572 13.1713 16.9981 13.4464V13.4482ZM27.8761 12.5938L26.2774 16.6056H26.2577L24.6206 12.5938H23.4967L25.7625 17.8241L24.4784 20.6381H25.5437L29 12.5938H27.8761Z" fill="black"/>
</svg>
