<svg width="31" height="30" viewBox="0 0 31 30" xmlns="http://www.w3.org/2000/svg">
<path d="M23.5239 26.0945C23.5239 25.3319 22.8959 24.7039 22.1334 24.7039H17.573C17.5132 24.7039 17.4384 24.7039 17.3786 24.7189H14.1788C13.3266 24.7189 12.7883 23.7769 13.2518 23.0592C13.7602 22.2817 14.119 21.4294 14.3583 20.5024C14.5526 19.5305 14.6274 18.5287 14.6124 17.512C14.6124 16.9139 15.0909 16.4055 15.7039 16.4055H18.6196C18.6794 16.4055 18.7392 16.4055 18.7841 16.3905H18.8738C19.6364 16.3905 20.2643 15.7626 20.2643 15C20.2643 14.2374 19.6364 13.6094 18.8738 13.6094H15.046C14.5825 13.5347 14.2237 13.1758 14.1489 12.7123L14.0293 11.9647C14.0144 11.9348 14.0144 11.89 14.0144 11.86L13.8798 9.88636V9.8116C13.8798 8.436 14.1639 7.31459 14.8517 6.44737C15.5395 5.55024 16.5861 5.10167 18.0664 5.07177C18.8588 5.08672 19.5317 5.16148 20.0999 5.29605C20.3242 5.46053 20.5783 5.55024 20.8774 5.55024C21.61 5.55024 22.1932 4.9671 22.1932 4.23445C22.1932 3.59151 21.7297 3.05323 21.1166 2.94856C20.9521 2.88876 20.7578 2.8439 20.5634 2.78409C19.8756 2.58971 19.0383 2.5 18.0514 2.5C15.8983 2.5 14.134 3.20275 12.863 4.45873C11.5622 5.72966 10.9043 7.50897 10.8594 9.7817C10.8894 10.7536 10.9492 11.5909 11.0538 12.3834C11.1286 13.0413 10.6352 13.6094 9.97727 13.6094H8.90071C8.13816 13.6094 7.51017 14.2374 7.51017 15C7.51017 15.7626 8.13816 16.3905 8.90071 16.3905H10.5305C11.0837 16.3905 11.5472 16.7943 11.6071 17.3475V17.512L11.637 18.8128C11.622 20.3379 11.2183 21.6986 10.4258 22.9097C9.73804 23.9414 8.82595 24.8385 7.7494 25.4665C7.42045 25.6609 7.22607 26.0197 7.22607 26.3935C7.22607 26.9916 7.70454 27.485 8.30263 27.5H22.0736C22.1633 27.5 22.238 27.485 22.3128 27.4701C22.9856 27.3804 23.5239 26.7972 23.5239 26.0945Z" fill="black"/>
</svg>
