<svg width="31" height="31" viewBox="0 0 31 31"  xmlns="http://www.w3.org/2000/svg">
<path d="M1.59277 4.62488C1.59277 3.82923 1.90884 3.06617 2.47145 2.50356C3.03406 1.94095 3.79712 1.62488 4.59277 1.62488H11.5928C12.3884 1.62488 13.1515 1.94095 13.7141 2.50356C14.2767 3.06617 14.5928 3.82923 14.5928 4.62488V11.6249C14.5928 12.4205 14.2767 13.1836 13.7141 13.7462C13.1515 14.3088 12.3884 14.6249 11.5928 14.6249H4.59277C3.79712 14.6249 3.03406 14.3088 2.47145 13.7462C1.90884 13.1836 1.59277 12.4205 1.59277 11.6249V4.62488ZM1.59277 19.6249C1.59277 18.8292 1.90884 18.0662 2.47145 17.5036C3.03406 16.9409 3.79712 16.6249 4.59277 16.6249H11.5928C12.3884 16.6249 13.1515 16.9409 13.7141 17.5036C14.2767 18.0662 14.5928 18.8292 14.5928 19.6249V26.6249C14.5928 27.4205 14.2767 28.1836 13.7141 28.7462C13.1515 29.3088 12.3884 29.6249 11.5928 29.6249H4.59277C3.79712 29.6249 3.03406 29.3088 2.47145 28.7462C1.90884 28.1836 1.59277 27.4205 1.59277 26.6249V19.6249ZM19.5928 16.6249C18.7971 16.6249 18.0341 16.9409 17.4715 17.5036C16.9088 18.0662 16.5928 18.8292 16.5928 19.6249V26.6249C16.5928 27.4205 16.9088 28.1836 17.4715 28.7462C18.0341 29.3088 18.7971 29.6249 19.5928 29.6249H26.5928C27.3884 29.6249 28.1515 29.3088 28.7141 28.7462C29.2767 28.1836 29.5928 27.4205 29.5928 26.6249V19.6249C29.5928 18.8292 29.2767 18.0662 28.7141 17.5036C28.1515 16.9409 27.3884 16.6249 26.5928 16.6249H19.5928ZM19.5928 1.62488H26.5928C28.5928 1.62488 29.5928 2.62488 29.5928 4.62488V11.6249C29.5928 13.6249 28.5928 14.6249 26.5928 14.6249H19.5928C17.5928 14.6249 16.5928 13.6249 16.5928 11.6249V4.62488C16.5928 2.62488 17.5928 1.62488 19.5928 1.62488Z" fill="black"/>
</svg>
