<svg width="30" height="30" viewBox="0 0 30 30"  xmlns="http://www.w3.org/2000/svg">
<path d="M18.6563 16H16.6563V12H18.6563V16ZM18.6563 25V28C18.6563 28.2917 18.5625 28.5312 18.375 28.7188C18.1875 28.9062 17.9479 29 17.6563 29H11.6563C11.3646 29 11.125 28.9062 10.9375 28.7188C10.75 28.5312 10.6563 28.2917 10.6563 28V25H12.6563V27H16.6563V25H18.6563ZM10.6563 16V12H12.6563V16H10.6563ZM18.6563 7H16.6563V3H12.6563V7H10.6563V2C10.6563 1.70834 10.75 1.46875 10.9375 1.28125C11.125 1.09375 11.3646 1 11.6563 1H17.6563C17.9479 1 18.1875 1.09375 18.375 1.28125C18.5625 1.46875 18.6563 1.70834 18.6563 2V7ZM5.5625 7L3.34375 9.5L5.5625 12H22.6563V7H5.5625ZM5.09375 5H23.6563C23.9479 5 24.1875 5.09375 24.375 5.28125C24.5625 5.46875 24.6563 5.70834 24.6563 6V13C24.6563 13.2917 24.5625 13.5313 24.375 13.7188C24.1875 13.9063 23.9479 14 23.6563 14H5.09375C4.80209 14 4.55209 13.8854 4.34375 13.6562L1.25 10.1562C1.08334 9.96875 1 9.75 1 9.5C1 9.25 1.08334 9.03125 1.25 8.84375L4.34375 5.34375C4.55209 5.11459 4.80209 5 5.09375 5ZM26.3125 20.5L24.0938 23H7V18H24.0938L26.3125 20.5ZM24.5313 16H6C5.70834 16 5.46875 16.0938 5.28125 16.2813C5.09375 16.4688 5 16.7083 5 17V24C5 24.2917 5.09375 24.5313 5.28125 24.7188C5.46875 24.9063 5.70834 25 6 25H24.5313C24.8438 25 25.0938 24.8854 25.2813 24.6563L28.4063 21.1563C28.5729 20.9688 28.6563 20.75 28.6563 20.5C28.6563 20.25 28.5729 20.0312 28.4063 19.8438L25.2813 16.3437C25.0938 16.1146 24.8438 16 24.5313 16Z" fill="black"/>
</svg>
