<svg width="31" height="30" viewBox="0 0 31 30" xmlns="http://www.w3.org/2000/svg">
<g clip-path="url(#clip0_1104_117)">
<path d="M16.6818 22.3703C16.7628 21.314 17.1793 20.4928 17.8218 19.9131C18.2669 19.5119 18.7169 19.3019 19.033 19.2231C19.4746 19.0975 19.9169 18.8742 20.3432 18.5791C20.5958 18.4047 20.8267 18.2163 21.029 18.0293L21.1504 17.9128L21.2307 17.8312L21.2976 17.7384C22.2039 16.3856 21.6688 14.5919 20.2414 12.7263L20.1088 12.5568L21.4762 11.4733C23.4437 13.957 24.26 16.537 22.7153 18.7556L22.6065 18.9063L22.559 18.9649C22.3121 19.2405 21.8942 19.6277 21.3339 20.0142C20.8414 20.3605 20.3023 20.6353 19.7328 20.8305L19.4844 20.9072C19.3951 20.9303 19.1956 21.0231 18.9897 21.2086C18.7023 21.4668 18.5056 21.8282 18.4372 22.3445L18.4239 22.4679L18.426 22.5838C18.426 22.874 18.4016 23.2305 18.3395 23.6359L18.3046 23.8431C18.1511 24.7309 17.845 25.5854 17.3997 26.3686C17.0002 27.0694 16.4826 27.6958 15.8697 28.2203L15.6618 28.3898C15.4532 28.5712 15.0967 28.814 14.5972 29.0484C11.8162 30.3552 8.3509 29.7761 4.5716 26.1154C0.948574 22.3647 0.375086 18.907 1.67904 16.131C1.91346 15.6314 2.15625 15.2742 2.30904 15.1005C2.87144 14.3823 3.56807 13.7802 4.3602 13.3277C5.14327 12.8826 5.99752 12.5764 6.88508 12.4228C7.30034 12.3462 7.72144 12.3056 8.14369 12.3014L8.2602 12.3028L8.38369 12.2903C8.84764 12.2289 9.18602 12.0635 9.43788 11.8214L9.51881 11.7377C9.645 11.6021 9.74379 11.4434 9.80974 11.2703L9.82648 11.2145C10.01 10.574 10.3169 9.96562 10.7118 9.39353C10.9933 8.97997 11.3161 8.59614 11.6753 8.24795L11.7611 8.16911L11.8197 8.12027C13.4662 6.88678 15.403 7.01097 17.3955 8.03864L17.5888 8.1405L16.7551 9.67329C15.29 8.87585 14.016 8.7405 12.9876 9.42911L12.8949 9.49539L12.7588 9.63283L12.6974 9.69841C12.5104 9.90074 12.3221 10.131 12.1476 10.3842C11.8532 10.8105 11.63 11.2528 11.5114 11.6659C11.4256 12.0098 11.2156 12.4605 10.8144 12.9049C10.2737 13.5049 9.52229 13.9082 8.56578 14.0254L8.35788 14.0463L8.23439 14.047C7.88428 14.0437 7.5347 14.0748 7.19067 14.1398C6.50072 14.2586 5.83652 14.4958 5.22741 14.841C4.70555 15.1403 4.23671 15.5219 3.81043 16.02L3.65276 16.2119C3.57113 16.3054 3.41834 16.53 3.25788 16.8726C2.2616 18.9935 2.70671 21.674 5.80578 24.8833C9.04369 28.0193 11.7304 28.4679 13.8556 27.4696C14.1549 27.3293 14.3649 27.1947 14.4974 27.09L14.5504 27.0468C15.0919 26.623 15.5456 26.0979 15.8865 25.5007C16.2316 24.8916 16.4688 24.2274 16.5876 23.5375C16.6456 23.2251 16.6771 22.9084 16.6818 22.5907L16.6804 22.484L16.6818 22.3703Z" fill="black"/>
<path d="M5.9767 18.8665C6.12861 18.7146 6.33123 18.6241 6.54572 18.6124C6.76021 18.6007 6.97148 18.6686 7.13903 18.803L7.20949 18.8665L11.8609 23.5179C12.0186 23.6756 12.11 23.8877 12.1161 24.1107C12.1222 24.3337 12.0427 24.5506 11.8938 24.7167C11.7449 24.8828 11.538 24.9856 11.3157 25.0038C11.0934 25.0221 10.8725 24.9545 10.6986 24.8149L10.6274 24.7507L5.9767 20.1C5.8957 20.019 5.83144 19.9228 5.7876 19.817C5.74376 19.7112 5.72119 19.5978 5.72119 19.4832C5.72119 19.3687 5.74376 19.2553 5.7876 19.1494C5.83144 19.0436 5.8957 18.9475 5.9767 18.8665ZM26.0188 0.523926L26.1165 0.525321C26.7493 0.565786 27.5997 0.863693 28.4397 1.6116L28.6448 1.80346L28.6728 1.83137C28.8604 2.01834 29.0321 2.21927 29.1904 2.43067C29.7521 3.18416 30.0555 3.93276 30.1811 4.46788C30.2439 4.73788 30.1755 5.01904 29.9997 5.22834L29.9286 5.303L25.8974 9.08579C25.7439 9.22972 25.5435 9.31331 25.3333 9.32113C25.123 9.32895 24.917 9.26048 24.7532 9.12834L24.7344 9.1123L16.85 16.9988C16.6981 17.151 16.4954 17.2417 16.2807 17.2535C16.0661 17.2654 15.8546 17.1975 15.6869 17.063L15.6165 16.9988C15.4646 16.8469 15.3741 16.6443 15.3624 16.4298C15.3507 16.2153 15.4186 16.004 15.553 15.8365L15.6158 15.766L24.1162 7.26486C24.2682 7.11279 24.4709 7.02221 24.6856 7.01049C24.9002 6.99877 25.1117 7.06675 25.2793 7.20137L25.3183 7.23625L28.3246 4.41625L28.2555 4.25648C28.1608 4.05071 28.0505 3.85246 27.9255 3.66346L27.7923 3.47369C27.7202 3.37712 27.6436 3.28399 27.5627 3.19462L27.4086 3.03346L27.3897 3.01532C27.1354 2.76651 26.8386 2.5652 26.5134 2.4209L26.3523 2.35741L23.4911 5.40904L23.526 5.44811C23.6503 5.60293 23.718 5.79551 23.718 5.99404C23.718 6.19257 23.6503 6.38516 23.526 6.53997L23.4632 6.61114L14.9614 15.1116C14.8033 15.2679 14.5916 15.358 14.3694 15.3635C14.1472 15.369 13.9313 15.2894 13.7658 15.141C13.6003 14.9926 13.4977 14.7866 13.479 14.5651C13.4603 14.3436 13.5268 14.1233 13.6651 13.9493L13.7279 13.8788L21.6158 5.9916L21.6004 5.97555C21.4781 5.82418 21.41 5.63626 21.4068 5.4417C21.4037 5.24713 21.4657 5.0571 21.583 4.90183L21.643 4.83067L25.4244 0.798112C25.5796 0.632835 25.793 0.534491 26.0195 0.523926H26.0188Z" fill="black"/>
<path d="M23.5476 1.29539C23.6996 1.14352 23.9022 1.05305 24.1167 1.04134C24.3312 1.02962 24.5424 1.09748 24.71 1.2319L24.7804 1.29469L25.2974 1.81237C25.4538 1.97038 25.5439 2.18212 25.5493 2.40433C25.5548 2.62654 25.4752 2.84245 25.3268 3.00795C25.1784 3.17344 24.9724 3.27603 24.7509 3.29474C24.5294 3.31346 24.3091 3.24689 24.1351 3.10865L24.0639 3.04586L23.5476 2.52888C23.4666 2.4479 23.4024 2.35175 23.3585 2.24592C23.3147 2.1401 23.2921 2.02668 23.2921 1.91214C23.2921 1.79759 23.3147 1.68417 23.3585 1.57835C23.4024 1.47252 23.4666 1.37638 23.5476 1.29539ZM21.9967 2.84632C22.1486 2.69416 22.3513 2.60344 22.5659 2.5916C22.7806 2.57975 22.9921 2.64761 23.1597 2.78214L23.2302 2.84562L23.7472 3.3619C23.9065 3.51926 23.9992 3.73188 24.006 3.95571C24.0129 4.17954 23.9334 4.39743 23.784 4.56424C23.6346 4.73104 23.4267 4.83398 23.2035 4.85173C22.9803 4.86948 22.7587 4.80068 22.5849 4.65958L22.5137 4.59609L21.9974 4.07911C21.9164 3.99813 21.8521 3.90198 21.8083 3.79616C21.7645 3.69033 21.7419 3.57691 21.7419 3.46237C21.7419 3.34782 21.7645 3.2344 21.8083 3.12858C21.8521 3.02276 21.9164 2.92661 21.9974 2.84562L21.9967 2.84632ZM27.2781 5.20237C27.4301 5.0503 27.6328 4.95972 27.8475 4.948C28.0621 4.93628 28.2735 5.00426 28.4411 5.13888L28.5116 5.20167L29.203 5.89376C29.3623 6.05112 29.455 6.26374 29.4619 6.48757C29.4687 6.7114 29.3892 6.92929 29.2398 7.0961C29.0904 7.2629 28.8825 7.36584 28.6593 7.38359C28.4361 7.40134 28.2146 7.33254 28.0407 7.19144L27.9702 7.12725L27.2781 6.43586C27.1971 6.35487 27.1328 6.25872 27.089 6.1529C27.0452 6.04708 27.0226 5.93366 27.0226 5.81911C27.0226 5.70457 27.0452 5.59115 27.089 5.48532C27.1328 5.3795 27.1971 5.28335 27.2781 5.20237ZM25.7523 6.61516C25.9043 6.46339 26.107 6.37305 26.3215 6.36146C26.5359 6.34988 26.7472 6.41785 26.9146 6.55237L26.9851 6.61586L27.6772 7.30865C27.836 7.46625 27.9282 7.67887 27.9346 7.90253C27.9411 8.12618 27.8613 8.34376 27.7118 8.51026C27.5624 8.67675 27.3546 8.77943 27.1316 8.79705C26.9085 8.81467 26.6872 8.74589 26.5135 8.60493L26.443 8.54144L25.7509 7.84865C25.67 7.76757 25.6058 7.67135 25.5621 7.56548C25.5184 7.45961 25.496 7.34616 25.4961 7.23161C25.4962 7.11707 25.5189 7.00367 25.5629 6.8979C25.6068 6.79213 25.6712 6.69605 25.7523 6.61516ZM11.383 14.4556C11.0622 14.7768 10.8078 15.1579 10.6343 15.5774C10.4608 15.9968 10.3716 16.4463 10.3718 16.9003C10.3721 17.3542 10.4617 17.8036 10.6356 18.2229C10.8095 18.6422 11.0643 19.0231 11.3854 19.3439C11.7066 19.6647 12.0877 19.9191 12.5072 20.0926C12.9266 20.2661 13.3762 20.3553 13.8301 20.355C14.284 20.3548 14.7334 20.2652 15.1527 20.0913C15.572 19.9174 15.9529 19.6626 16.2737 19.3414C16.9216 18.6929 17.2853 17.8135 17.2849 16.8968C17.2844 15.9801 16.9198 15.1011 16.2713 14.4532C15.9501 14.1324 15.569 13.878 15.1495 13.7045C14.7301 13.531 14.2805 13.4418 13.8266 13.442C12.9099 13.4425 12.0309 13.8071 11.383 14.4556ZM15.0381 15.6891C15.7079 16.3575 15.7079 17.4403 15.0381 18.1093C14.7987 18.3488 14.4936 18.5119 14.1615 18.578C13.8294 18.6441 13.4851 18.6103 13.1722 18.4807C12.8594 18.3511 12.5919 18.1317 12.4038 17.8501C12.2156 17.5686 12.1152 17.2375 12.1152 16.8989C12.1152 16.5602 12.2156 16.2292 12.4038 15.9476C12.5919 15.6661 12.8594 15.4466 13.1722 15.3171C13.4851 15.1875 13.8294 15.1536 14.1615 15.2197C14.4936 15.2858 14.7987 15.4489 15.0381 15.6884V15.6891Z" fill="black"/>
</g>
<defs>
<clipPath id="clip0_1104_117">
<rect width="30" height="30" fill="white" transform="translate(0.727417)"/>
</clipPath>
</defs>
</svg>
