<svg width="30" height="30" viewBox="0 0 30 30"  xmlns="http://www.w3.org/2000/svg">
<path fill-rule="evenodd" clip-rule="evenodd" d="M15 26.8125C15 26.8125 29 19.8398 29 10.625C29 6.51797 25.6695 3.1875 21.5625 3.1875C18.7926 3.1875 16.3754 4.70234 15.093 6.95C15.052 7.02383 14.9453 7.02383 14.9043 6.95C13.6246 4.70234 11.2074 3.1875 8.4375 3.1875C4.33047 3.1875 1 6.51797 1 10.625C1 19.8672 15 26.8125 15 26.8125ZM15 24.1804C15 24.1804 26.5221 17.5239 26.5221 11.3993C26.5221 8.01912 24.6502 5.27808 21.2701 5.27808C18.9904 5.27808 16.7593 7.48408 15.7039 9.33395C15.3311 9.98732 14.7466 10.0133 14.2954 9.33395C13.2422 7.48408 10.5998 5.27808 8.32007 5.27808C4.9399 5.27808 3.47754 8.01912 3.47754 11.3993C3.47754 17.9436 15 24.1804 15 24.1804Z" fill="black"/>
</svg>
