<svg width="30" height="30" viewBox="0 0 30 30" xmlns="http://www.w3.org/2000/svg">
<path d="M2.00004 21.5001C1.39351 20.5903 1.13186 18.3775 1.04079 16.7794C1.00377 16.1298 1.61304 15.6572 2.25547 15.7599C5.42442 16.2664 7.05539 15.2786 7.50004 13.5C7.58897 13.1443 7.52096 12.7441 7.44419 12.2924C7.33368 11.6422 7.20502 10.8852 7.50004 10.0001C9.00004 9.50006 11.5 9.6252 13 10.0001C15 10.5001 22.5 10.5 25 9.50021C26.6739 8.8308 29.5 10.5 29 12.0001C28.5 13.5003 26.9424 14.9185 25.5 16.0001C24.1043 17.0468 17.8816 20.8802 13 23.5C12.9756 24.019 13.0825 25.2087 11.5 26C9.91747 26.7913 8.76731 25.7843 8.26968 25.5987C7.87472 25.8071 7.60712 25.9466 7.50004 26.0001C6.72211 26.3891 5.35743 25.8431 4.52196 25.5089L4.50004 25.5001C4.00004 24.6668 2.80004 22.7001 2.00004 21.5001ZM2.75573 19.0325C3.16192 19.6312 3.41566 20.305 4 20.4998C5.5 20.9998 7.43358 21.4943 8.43358 20.9943L4.21874 23.0454C4.30643 23.1713 4.7713 23.947 4.85975 24.0583C11.595 20.5961 23.1279 14.289 24.2768 13.3699L27.0451 10.9547C26.9261 10.8538 26.7884 10.7719 26.6378 10.7067C24.7648 12.492 18.791 16.0012 16.0733 17.36C15.9354 16.3154 18.1 15.0998 18.5 13.4998C18.7394 12.542 18.6959 12.2032 18.5 11.8022C16.8494 11.7668 14.9837 11.6065 13.4127 11.4474C11.2788 11.2313 9.27118 10.956 8.72199 11.2306C8.72199 11.5472 8.73721 11.8973 8.78985 12.2299C8.90347 12.9475 8.91805 13.6498 8.57637 14.6749C8.00628 16.3851 6 17.3478 4 17.3478L2.43158 17.1818C2.2462 17.1818 2.22003 17.3971 2.25547 17.5791C2.36623 18.1478 2.43158 18.332 2.75573 19.0325ZM5.14998 24.3941C5.4369 24.6963 5.72328 24.9077 6.00004 25C7.50004 25.5 27.5 14 27.5 12C27.5 11.7223 27.4384 11.49 27.3303 11.2977C26.5339 12.2102 25.3874 13.3086 24.4913 13.9061C23.36 14.6602 11.78 20.8998 5.14998 24.3941Z" fill="black"/>
</svg>
