<svg width="31" height="30" viewBox="0 0 31 30" fill="none" xmlns="http://www.w3.org/2000/svg">
<path d="M15.0687 9.45752C15.0687 8.79582 15.6051 8.2594 16.2668 8.2594C16.9285 8.2594 17.4649 8.79582 17.4649 9.45752V16.181L21.4612 16.2508C22.1228 16.2623 22.6498 16.808 22.6383 17.4696C22.6267 18.1312 22.081 18.6582 21.4194 18.6467L16.2667 18.5567C15.6433 18.5458 15.1394 18.0607 15.093 17.4511C15.077 17.3732 15.0687 17.2924 15.0687 17.2097V9.45752Z" fill="black"/>
<path d="M5.49635 15.0236C4.85951 15.0236 4.33778 14.5056 4.3947 13.8713C4.97703 7.3816 10.4303 2.29529 17.0715 2.29529C24.1011 2.29529 29.7998 7.99392 29.7998 15.0236C29.7998 21.6648 24.7134 27.118 18.2238 27.7004C17.5895 27.7573 17.0715 27.2356 17.0715 26.5987C17.0715 25.9619 17.5897 25.4523 18.2228 25.3828C23.437 24.8098 27.4936 20.3904 27.4936 15.0236C27.4936 9.2676 22.8275 4.60149 17.0715 4.60149C11.7047 4.60149 7.28528 8.65807 6.71231 13.8723C6.64275 14.5053 6.13319 15.0236 5.49635 15.0236Z" fill="black"/>
<path d="M4.71767 16.4822C4.39984 16.1034 4.44925 15.5387 4.82803 15.2209L7.80986 12.7188C8.18864 12.401 8.75335 12.4504 9.07118 12.8292C9.38901 13.2079 9.3396 13.7726 8.96083 14.0905L5.97899 16.5925C5.60022 16.9104 5.0355 16.861 4.71767 16.4822Z" fill="black"/>
<path d="M2.53944 11.8484C2.92367 11.6083 3.42978 11.7252 3.66988 12.1094L5.812 15.5375C6.05209 15.9217 5.93525 16.4278 5.55102 16.6679C5.16679 16.908 4.66067 16.7912 4.42058 16.407L2.27845 12.9788C2.03836 12.5946 2.1552 12.0885 2.53944 11.8484Z" fill="black"/>
</svg>
