<svg width="31" height="30" viewBox="0 0 31 30" xmlns="http://www.w3.org/2000/svg">
<path d="M28.0626 14.1784L16.6714 2.78717C16.2885 2.40428 15.6663 2.40428 15.2834 2.78717L3.89221 14.1784C3.27 14.8006 3.71672 15.8535 4.57823 15.8535H7.30638V26.5268C7.30638 27.0692 7.73714 27.5 8.27957 27.5H12.2202C12.7627 27.5 13.1934 27.0692 13.1934 26.5268V19.6825C13.1934 19.1401 13.6242 18.7093 14.1666 18.7093H17.7722C18.3147 18.7093 18.7454 19.1401 18.7454 19.6825V26.5268C18.7454 27.0692 19.1762 27.5 19.7186 27.5H23.6593C24.2017 27.5 24.6325 27.0692 24.6325 26.5268V15.8535H27.3606C28.2381 15.8376 28.6848 14.7846 28.0626 14.1784Z" fill="black"/>
</svg>
