<svg width="30" height="30" viewBox="0 0 30 30" xmlns="http://www.w3.org/2000/svg">
<path fill-rule="evenodd" clip-rule="evenodd" d="M3 4C1.89543 4 1 4.89543 1 6V24C1 25.1046 1.89543 26 3 26H27C28.1046 26 29 25.1046 29 24V6C29 4.89543 28.1046 4 27 4H3ZM3.99219 5.90662H26.0083C26.5606 5.90662 27.0083 6.35433 27.0083 6.90662V23.0933C27.0083 23.6456 26.5606 24.0933 26.0083 24.0933H3.99219C3.4399 24.0933 2.99219 23.6456 2.99219 23.0933V6.90662C2.99219 6.35433 3.4399 5.90662 3.99219 5.90662Z" fill="black"/>
<path fill-rule="evenodd" clip-rule="evenodd" d="M23.3957 16.7278C23.847 17.179 24.2027 17.7048 24.4499 18.2908C24.6932 18.865 24.8227 19.4732 24.8358 20.0984C24.8371 20.1572 24.79 20.2056 24.7311 20.2056H23.5481C23.4905 20.2056 23.4448 20.1612 23.4434 20.1036C23.4173 19.0939 22.8949 18.1037 22.3162 17.525C21.7375 16.9463 20.7425 16.7278 19.9179 16.7291C19.0933 16.7304 18.0031 16.8875 17.3656 17.525C16.7282 18.1624 16.3583 19.0886 16.3321 20.0984C16.3308 20.1546 16.285 20.2004 16.2275 20.2004L15.1047 20.2056C15.0458 20.2056 14.9987 20.1572 15 20.0984C15.0131 19.4732 15.1426 18.865 15.3859 18.2921C15.6344 17.7061 15.9888 17.1803 16.4401 16.7291C16.8913 16.2766 17.4171 15.9221 18.0031 15.6749C18.0057 15.6736 18.0083 15.6726 18.0109 15.6716C18.0135 15.6707 18.0162 15.6697 18.0188 15.6684C17.2039 15.0785 16.6742 14.1198 16.6742 13.0381C16.6742 11.2462 18.126 9.79437 19.9179 9.79437C21.7098 9.79437 23.1616 11.2462 23.1616 13.0381C23.1616 14.1198 22.6319 15.0785 21.817 15.6671C21.8197 15.6684 21.8223 15.6693 21.8249 15.6703C21.8275 15.6713 21.8301 15.6723 21.8327 15.6736C22.4187 15.9221 22.9445 16.2766 23.3957 16.7278ZM19.918 10.9227C18.7757 10.9227 17.8496 11.8488 17.8496 12.9911C17.8496 14.1335 18.7757 15.0596 19.918 15.0596C21.0604 15.0596 21.9865 14.1335 21.9865 12.9911C21.9865 11.8488 21.0604 10.9227 19.918 10.9227Z" fill="black"/>
<path d="M4.98828 13.0128C4.98828 12.577 5.34158 12.2237 5.7774 12.2237H12.2333C12.6692 12.2237 13.0225 12.577 13.0225 13.0128C13.0225 13.4487 12.6692 13.802 12.2333 13.802H5.7774C5.34158 13.802 4.98828 13.4487 4.98828 13.0128Z" fill="black"/>
<path d="M4.98828 15.521C4.98828 15.0852 5.34158 14.7319 5.7774 14.7319H12.2333C12.6692 14.7319 13.0225 15.0852 13.0225 15.521C13.0225 15.9569 12.6692 16.3102 12.2333 16.3102H5.7774C5.34158 16.3102 4.98828 15.9569 4.98828 15.521Z" fill="black"/>
<path d="M4.98828 18.0293C4.98828 17.5935 5.34158 17.2402 5.7774 17.2402H12.2333C12.6692 17.2402 13.0225 17.5935 13.0225 18.0293C13.0225 18.4651 12.6692 18.8184 12.2333 18.8184H5.7774C5.34158 18.8184 4.98828 18.4651 4.98828 18.0293Z" fill="black"/>
</svg>
