<svg width="30" height="31" viewBox="0 0 30 31" xmlns="http://www.w3.org/2000/svg">
<path d="M10 27.8253C9.73478 27.8253 9.48043 27.9307 9.29289 28.1182C9.10536 28.3058 9 28.5601 9 28.8253C9 29.0906 9.10536 29.3449 9.29289 29.5325C9.48043 29.72 9.73478 29.8253 10 29.8253V27.8253ZM20 29.8253C20.2652 29.8253 20.5196 29.72 20.7071 29.5325C20.8946 29.3449 21 29.0906 21 28.8253C21 28.5601 20.8946 28.3058 20.7071 28.1182C20.5196 27.9307 20.2652 27.8253 20 27.8253V29.8253ZM19 16.8253C19 16.5601 18.8946 16.3058 18.7071 16.1182C18.5196 15.9307 18.2652 15.8253 18 15.8253C17.7348 15.8253 17.4804 15.9307 17.2929 16.1182C17.1054 16.3058 17 16.5601 17 16.8253H19ZM13 16.8253C13 16.5601 12.8946 16.3058 12.7071 16.1182C12.5196 15.9307 12.2652 15.8253 12 15.8253C11.7348 15.8253 11.4804 15.9307 11.2929 16.1182C11.1054 16.3058 11 16.5601 11 16.8253H13ZM10 29.8253H20V27.8253H10V29.8253ZM6 12.6033C6 7.26635 9.97 3.82535 15 3.82535V1.82535C8.984 1.82535 4 6.04735 4 12.6033H6ZM15 3.82535C20.03 3.82535 24 7.26635 24 12.6033H26C26 6.04735 21.016 1.82535 15 1.82535V3.82535ZM24 12.6033C24 14.6213 23.114 16.4793 22.018 18.3083C21.747 18.7623 21.468 19.2043 21.19 19.6463C20.915 20.0843 20.639 20.5243 20.384 20.9543C19.88 21.8043 19.417 22.6903 19.177 23.5773L21.107 24.1003C21.274 23.4853 21.621 22.7903 22.105 21.9733C22.344 21.5693 22.605 21.1533 22.883 20.7113C23.159 20.2733 23.449 19.8113 23.734 19.3373C24.864 17.4513 26 15.1953 26 12.6033H24ZM10.823 23.5773C10.583 22.6903 10.12 21.8053 9.616 20.9543C9.361 20.5243 9.086 20.0843 8.81 19.6463C8.532 19.2043 8.253 18.7623 7.982 18.3083C6.886 16.4793 6 14.6213 6 12.6033H4C4 15.1953 5.136 17.4513 6.266 19.3373C6.551 19.8123 6.841 20.2733 7.116 20.7113C7.395 21.1533 7.656 21.5693 7.896 21.9733C8.379 22.7903 8.726 23.4853 8.893 24.1003L10.823 23.5773ZM19 23.8253H11V25.8253H19V23.8253ZM8.893 24.1003C9.117 24.9263 9.863 25.8253 11 25.8253V23.8253L10.994 23.8233C10.977 23.8153 10.9615 23.8045 10.948 23.7913C10.8875 23.7328 10.8443 23.6588 10.823 23.5773L8.893 24.1003ZM19.177 23.5773C19.1557 23.6588 19.1125 23.7328 19.052 23.7913C19.0369 23.8058 19.0193 23.8173 19 23.8253V25.8253C20.137 25.8253 20.883 24.9263 21.107 24.1003L19.177 23.5773ZM17 16.8253C17 17.3558 16.7893 17.8645 16.4142 18.2396C16.0391 18.6146 15.5304 18.8253 15 18.8253V20.8253C16.0609 20.8253 17.0783 20.4039 17.8284 19.6538C18.5786 18.9036 19 17.8862 19 16.8253H17ZM15 18.8253C14.4696 18.8253 13.9609 18.6146 13.5858 18.2396C13.2107 17.8645 13 17.3558 13 16.8253H11C11 17.8862 11.4214 18.9036 12.1716 19.6538C12.9217 20.4039 13.9391 20.8253 15 20.8253V18.8253Z" fill="black"/>
</svg>
