<svg width="31" height="30" viewBox="0 0 31 30" fill="none" xmlns="http://www.w3.org/2000/svg">
<g clip-path="url(#clip0_1082_340)">
<path d="M30.0759 16.6255V23.65C30.0759 25.7762 28.3521 27.5 26.2259 27.5H5.92587C3.79962 27.5 2.07587 25.7762 2.07587 23.65V6.85C2.07587 4.72375 3.79962 3 5.92587 3H26.2259C28.3521 3 30.0759 4.72375 30.0759 6.85V16.6255ZM27.9759 14.1769V6.85C27.9759 6.62019 27.9306 6.39262 27.8427 6.1803C27.7547 5.96798 27.6258 5.77507 27.4633 5.61256C27.3008 5.45006 27.1079 5.32116 26.8956 5.23321C26.6832 5.14526 26.4557 5.1 26.2259 5.1H5.92587C5.69605 5.1 5.46849 5.14526 5.25617 5.23321C5.04385 5.32116 4.85093 5.45006 4.68843 5.61256C4.52593 5.77507 4.39702 5.96798 4.30908 6.1803C4.22113 6.39262 4.17587 6.62019 4.17587 6.85V18.1532C4.63936 18.0844 5.10729 18.0499 5.57587 18.05C7.77127 18.0468 9.89875 18.811 11.5903 20.2105C13.2878 15.7876 17.5494 12.8 22.3759 12.8C24.5319 12.8 26.543 13.3505 27.9759 14.1769ZM27.9759 16.8754C27.8009 16.6024 27.2825 16.1649 26.5437 15.7953C25.4198 15.2332 23.9852 14.9 22.3759 14.9C18.3803 14.9 14.8575 17.4025 13.5023 21.0915C13.4127 21.3358 13.2594 21.7582 13.0431 22.3574C12.7911 23.0564 11.9126 23.2797 11.3575 22.7858C10.8182 22.3056 10.4206 21.9633 10.1717 21.7638C8.86917 20.7166 7.24722 20.147 5.57587 20.15C5.10127 20.15 4.63332 20.1948 4.17587 20.283V23.65C4.17587 23.8798 4.22113 24.1074 4.30908 24.3197C4.39702 24.532 4.52593 24.7249 4.68843 24.8874C4.85093 25.0499 5.04385 25.1788 5.25617 25.2668C5.46849 25.3547 5.69605 25.4 5.92587 25.4H26.2259C26.4557 25.4 26.6832 25.3547 26.8956 25.2668C27.1079 25.1788 27.3008 25.0499 27.4633 24.8874C27.6258 24.7249 27.7547 24.532 27.8427 24.3197C27.9306 24.1074 27.9759 23.8798 27.9759 23.65V16.875V16.8754ZM9.77587 14.2C8.94043 14.2 8.13922 13.8681 7.54848 13.2774C6.95774 12.6866 6.62587 11.8854 6.62587 11.05C6.62587 10.2146 6.95774 9.41335 7.54848 8.82261C8.13922 8.23187 8.94043 7.9 9.77587 7.9C10.6113 7.9 11.4125 8.23187 12.0033 8.82261C12.594 9.41335 12.9259 10.2146 12.9259 11.05C12.9259 11.8854 12.594 12.6866 12.0033 13.2774C11.4125 13.8681 10.6113 14.2 9.77587 14.2ZM9.77587 12.1C10.0543 12.1 10.3214 11.9894 10.5183 11.7925C10.7152 11.5955 10.8259 11.3285 10.8259 11.05C10.8259 10.7715 10.7152 10.5045 10.5183 10.3075C10.3214 10.1106 10.0543 10 9.77587 10C9.49739 10 9.23032 10.1106 9.0334 10.3075C8.83649 10.5045 8.72587 10.7715 8.72587 11.05C8.72587 11.3285 8.83649 11.5955 9.0334 11.7925C9.23032 11.9894 9.49739 12.1 9.77587 12.1Z" fill="black"/>
</g>
<defs>
<clipPath id="clip0_1082_340">
<rect width="30" height="30" fill="white" transform="translate(0.786682)"/>
</clipPath>
</defs>
</svg>
