<svg width="31" height="30" viewBox="0 0 31 30" xmlns="http://www.w3.org/2000/svg">
<g clip-path="url(#clip0_1082_338)">
<path fill-rule="evenodd" clip-rule="evenodd" d="M7.54848 13.2774C8.13922 13.8681 8.94043 14.2 9.77587 14.2C10.6113 14.2 11.4125 13.8681 12.0033 13.2774C12.594 12.6866 12.9259 11.8854 12.9259 11.05C12.9259 10.2146 12.594 9.41335 12.0033 8.82261C11.4125 8.23187 10.6113 7.9 9.77587 7.9C8.94043 7.9 8.13922 8.23187 7.54848 8.82261C6.95774 9.41335 6.62587 10.2146 6.62587 11.05C6.62587 11.8854 6.95774 12.6866 7.54848 13.2774ZM10.5183 11.7925C10.3214 11.9894 10.0543 12.1 9.77587 12.1C9.49739 12.1 9.23032 11.9894 9.0334 11.7925C8.83649 11.5955 8.72587 11.3285 8.72587 11.05C8.72587 10.7715 8.83649 10.5045 9.0334 10.3075C9.23032 10.1106 9.49739 10 9.77587 10C10.0543 10 10.3214 10.1106 10.5183 10.3075C10.7152 10.5045 10.8259 10.7715 10.8259 11.05C10.8259 11.3285 10.7152 11.5955 10.5183 11.7925Z" fill="black"/>
<path fill-rule="evenodd" clip-rule="evenodd" d="M29.0259 19.4501C29.6058 19.4501 30.0759 18.98 30.0759 18.4001V6.85C30.0759 4.72375 28.3521 3 26.2259 3H5.92587C3.79962 3 2.07587 4.72375 2.07587 6.85V23.65C2.07587 25.7762 3.79962 27.5 5.92587 27.5H20.0659C20.6458 27.5 21.1159 27.0299 21.1159 26.45C21.1159 25.8701 20.6458 25.4 20.0659 25.4H5.92587C5.69605 25.4 5.46849 25.3547 5.25617 25.2668C5.04385 25.1788 4.85093 25.0499 4.68843 24.8874C4.52593 24.7249 4.39702 24.532 4.30908 24.3197C4.22113 24.1074 4.17587 23.8798 4.17587 23.65V20.283C4.63332 20.1948 5.10127 20.15 5.57587 20.15C7.24722 20.147 8.86917 20.7166 10.1717 21.7638C10.4206 21.9633 10.8182 22.3056 11.3575 22.7858C11.9126 23.2797 12.7911 23.0564 13.0431 22.3574C13.2594 21.7582 13.4127 21.3358 13.5023 21.0915C14.8575 17.4025 18.3803 14.9 22.3759 14.9C23.9852 14.9 25.4198 15.2332 26.5437 15.7953C27.2825 16.1649 27.8009 16.6024 27.9759 16.8754V18.4001C27.9759 18.98 28.446 19.4501 29.0259 19.4501ZM27.9759 6.85V14.1769C26.543 13.3505 24.5319 12.8 22.3759 12.8C17.5494 12.8 13.2878 15.7876 11.5903 20.2105C9.89875 18.811 7.77127 18.0468 5.57587 18.05C5.10729 18.0499 4.63936 18.0844 4.17587 18.1532V6.85C4.17587 6.62019 4.22113 6.39262 4.30908 6.1803C4.39702 5.96798 4.52593 5.77507 4.68843 5.61256C4.85093 5.45006 5.04385 5.32116 5.25617 5.23321C5.46849 5.14526 5.69605 5.1 5.92587 5.1H26.2259C26.4557 5.1 26.6832 5.14526 26.8956 5.23321C27.1079 5.32116 27.3008 5.45006 27.4633 5.61256C27.6258 5.77507 27.7547 5.96798 27.8427 6.1803C27.9306 6.39262 27.9759 6.62019 27.9759 6.85Z" fill="black"/>
<path d="M28.456 20.3514L26.2794 22.528L24.1046 20.3533C24.023 20.2713 23.926 20.2063 23.8192 20.1619C23.7124 20.1175 23.5979 20.0946 23.4822 20.0944C23.3666 20.0943 23.252 20.117 23.1451 20.1612C23.0382 20.2053 22.9411 20.2702 22.8593 20.3519C22.7775 20.4337 22.7127 20.5309 22.6686 20.6378C22.6244 20.7447 22.6017 20.8592 22.6019 20.9749C22.602 21.0906 22.625 21.2051 22.6695 21.3119C22.7139 21.4186 22.779 21.5156 22.8609 21.5972L25.0371 23.7734L22.8594 25.951C22.694 26.1164 22.601 26.3407 22.6009 26.5746C22.6008 26.8085 22.6937 27.0329 22.859 27.1984C22.9409 27.2807 23.0381 27.3461 23.1453 27.3908C23.2524 27.4354 23.3673 27.4586 23.4834 27.4588C23.5992 27.4594 23.714 27.4371 23.8212 27.3932C23.9284 27.3492 24.0258 27.2845 24.1079 27.2028L26.2872 25.0235L28.4603 27.1966C28.6325 27.3688 28.8568 27.4564 29.082 27.4561C29.1977 27.4564 29.3123 27.4338 29.4191 27.3896C29.526 27.3454 29.6231 27.2805 29.7048 27.1986C29.7866 27.1168 29.8514 27.0196 29.8957 26.9127C29.9399 26.8058 29.9626 26.6913 29.9626 26.5756C29.9625 26.4599 29.9397 26.3453 29.8953 26.2385C29.851 26.1316 29.786 26.0345 29.7042 25.9528L27.5309 23.7795L29.7075 21.603C30.0517 21.2587 30.0493 20.6981 29.7049 20.354C29.3607 20.0101 28.7999 20.0075 28.456 20.3514Z" fill="black"/>
</g>
<defs>
<clipPath id="clip0_1082_338">
<rect width="30" height="30" fill="white" transform="translate(0.786682)"/>
</clipPath>
</defs>
</svg>
