<svg width="30" height="30" viewBox="0 0 30 30" xmlns="http://www.w3.org/2000/svg">
<path d="M1 27C1 28.1046 1.89543 29 3 29H16.7241V26.0024H4.63595C4.08366 26.0024 3.63595 25.7018 3.63595 25.1495L3.63595 4.87813C3.63595 4.32584 4.09266 3.9917 4.64494 3.9917H16.7241V1H3C1.89543 1 1 1.89543 1 3L1 27Z" fill="black"/>
<path d="M15.0877 14.9955L21.3003 21.7189L19.8044 23.3108L12.098 14.9947L19.8065 6.68778L21.3003 8.28118L15.0877 14.9955Z" fill="black"/>
<path d="M15.0326 16.0507V13.9493L29.0421 13.9493L29.0421 16.0507L15.0326 16.0507Z" fill="black"/>
</svg>
