<svg width="30" height="30" viewBox="0 0 30 30" xmlns="http://www.w3.org/2000/svg">
<path d="M13.2957 7.77954C13.2957 6.83826 14.0587 6.0752 15 6.0752C15.9413 6.0752 16.7043 6.83826 16.7043 7.77954C16.7043 8.72083 15.9413 9.48389 15 9.48389C14.0587 9.48389 13.2957 8.72083 13.2957 7.77954Z" fill="black"/>
<path d="M13.2957 12.8287C13.2957 11.8874 14.0587 11.1244 15 11.1244C15.9413 11.1244 16.7043 11.8874 16.7043 12.8287V22.2204C16.7043 23.1617 15.9413 23.9247 15 23.9247C14.0587 23.9247 13.2957 23.1617 13.2957 22.2204V12.8287Z" fill="black"/>
<path fill-rule="evenodd" clip-rule="evenodd" d="M15 1C22.732 1 29 7.26801 29 15C29 22.732 22.732 29 15 29C7.26801 29 1 22.732 1 15C1 7.26801 7.26801 1 15 1ZM15 3.54785C8.67515 3.54785 3.54785 8.67515 3.54785 15C3.54785 21.3248 8.67515 26.4521 15 26.4521C21.3248 26.4521 26.4521 21.3248 26.4521 15C26.4521 8.67515 21.3248 3.54785 15 3.54785Z" fill="black"/>
</svg>
