<svg width="30" height="31" viewBox="0 0 30 31" xmlns="http://www.w3.org/2000/svg">
<path d="M14.9997 2.80807C7.79411 2.80807 1.93286 8.66933 1.93286 15.875C1.93286 23.0806 7.79411 28.9418 14.9997 28.9418C22.2054 28.9418 28.0666 23.0806 28.0666 15.875C28.0666 8.66933 22.2054 2.80807 14.9997 2.80807ZM15.9372 22.4375C15.9372 22.9559 15.5182 23.375 14.9997 23.375C14.4813 23.375 14.0622 22.9559 14.0622 22.4375V14C14.0622 13.4815 14.4813 13.0625 14.9997 13.0625C15.5182 13.0625 15.9372 13.4815 15.9372 14V22.4375ZM14.9997 11.1875C14.2235 11.1875 13.5935 10.5565 13.5935 9.7812C13.5935 9.00401 14.2235 8.37495 14.9997 8.37495C15.776 8.37495 16.406 9.00401 16.406 9.7812C16.406 10.5565 15.776 11.1875 14.9997 11.1875Z" fill="black"/>
</svg>
