<svg width="30" height="30" viewBox="0 0 30 30" xmlns="http://www.w3.org/2000/svg">
<path d="M9 1C4.58172 1 1 4.58172 1 9V21C1 25.4183 4.58172 29 9 29H21C25.4183 29 29 25.4183 29 21V9C29 4.58172 25.4183 1 21 1H9ZM15 8C18.866 8 22 11.134 22 15C22 18.866 18.866 22 15 22C11.134 22 8 18.866 8 15C8 11.134 11.134 8 15 8ZM10 15C10 17.7614 12.2386 20 15 20C17.7614 20 20 17.7614 20 15C20 12.2386 17.7614 10 15 10C12.2386 10 10 12.2386 10 15ZM22.5 6C23.3284 6 24 6.67157 24 7.5C24 8.32843 23.3284 9 22.5 9C21.6716 9 21 8.32843 21 7.5C21 6.67157 21.6716 6 22.5 6Z" fill="black"/>
</svg>
