<svg width="30" height="30" viewBox="0 0 30 30" xmlns="http://www.w3.org/2000/svg">
<path fill-rule="evenodd" clip-rule="evenodd" d="M6.16696 24.9631C8.08612 24.9631 9.66081 23.4376 9.66081 21.4692V4H4.54306C2.6239 4 1.04921 5.52548 1.04921 7.49385V16.1054C2.03339 16.5975 3.01757 16.8928 4.05097 16.8928C5.28119 16.8928 5.92091 16.1547 5.92091 15.1705V11.0861H8.92267V15.1705C8.92267 16.7452 7.93849 18.0246 4.59227 18.0246C2.57469 18.0246 1 17.5817 1 17.5817V24.9631H6.16696ZM15.8612 25.0123C17.7803 25.0123 19.355 23.4868 19.355 21.5185H19.3058V4.04921H14.188C12.2689 4.04921 10.6942 5.57469 10.6942 7.54306V12.1195C11.58 11.3322 13.1547 10.8893 15.6151 10.9877C16.9438 11.0861 18.3708 11.4306 18.3708 11.4306V12.9069C17.6819 12.5132 16.7961 12.2179 15.7135 12.1195C13.8436 11.9719 12.7118 12.9069 12.7118 14.5308C12.7118 16.1547 13.8436 17.0896 15.7135 16.942C16.7961 16.8436 17.6819 16.4991 18.3708 16.1547V17.6309C18.3708 17.6309 16.9438 18.0246 15.6151 18.0738C13.1054 18.1722 11.58 17.6801 10.6942 16.942V25.0123H15.8612ZM25.5061 24.9631C27.4253 24.9631 29 23.4376 29 21.4692V4.04921H23.8822C21.9631 4.04921 20.3884 5.57469 20.3884 7.54306V11.1845H25.6046C26.7364 11.2337 27.5729 11.8243 27.5729 12.8084C27.5729 13.5958 27.0316 14.2355 25.9982 14.3831V14.4323C27.1301 14.4815 28.0158 15.1213 28.0158 16.1054C28.0158 17.188 27.0808 17.877 25.8014 17.877H20.3884V24.9631H25.5061ZM24.3743 14.9244H24.1283V14.826H22.1107V16.696H24.3743C24.7188 16.6467 25.0633 16.3023 25.0633 15.8102C25.0633 15.3673 24.768 15.0228 24.3743 14.9244ZM22.1107 12.1687V13.8418H24.1283C24.4728 13.7926 24.8172 13.4482 24.8172 13.0053C24.8172 12.5132 24.522 12.2179 24.1283 12.1687H22.1107Z" fill="black"/>
</svg>
