<svg width="30" height="31" viewBox="0 0 30 31" xmlns="http://www.w3.org/2000/svg">
<path d="M11.6383 29.8253C17.5139 29.8253 22.2767 25.0626 22.2767 19.187C22.2767 16.7269 21.4403 14.4627 20.0405 12.6605L21.4788 11.2222L23.659 13.4024C23.7674 13.5109 23.9459 13.5109 24.0579 13.4024L25.4507 12.0096C25.5592 11.9011 25.5592 11.7226 25.4507 11.6107L23.2705 9.43051L24.8418 7.85925L27.0219 10.0394C27.1304 10.1479 27.3089 10.1479 27.4209 10.0394L28.8137 8.64663C28.9221 8.53814 28.9221 8.35967 28.8137 8.24769L26.6335 6.06753L28.9186 3.78239C29.0271 3.6739 29.0271 3.49543 28.9186 3.38695L27.4384 1.90668C27.3299 1.7982 27.1514 1.7982 27.0429 1.90668L18.1683 10.7813C16.3626 9.38501 14.0985 8.54864 11.6383 8.54864C5.76276 8.54864 1 13.3114 1 19.187C1 25.0626 5.76276 29.8253 11.6383 29.8253ZM5.99722 13.5459C7.50198 12.0376 9.50717 11.2082 11.6383 11.2082C13.7695 11.2082 15.7747 12.0376 17.2795 13.5459C18.7877 15.0506 19.6171 17.0558 19.6171 19.187C19.6171 21.3181 18.7877 23.3233 17.2795 24.8281C15.7747 26.3364 13.7695 27.1657 11.6383 27.1657C9.50717 27.1657 7.50198 26.3364 5.99722 24.8281C4.48895 23.3233 3.65958 21.3181 3.65958 19.187C3.65958 17.0558 4.48895 15.0506 5.99722 13.5459Z" fill="black"/>
</svg>
