<svg width="30" height="31" viewBox="0 0 30 31" xmlns="http://www.w3.org/2000/svg">
<path d="M26.6667 6.82535H3.33333C2.04465 6.82535 1 7.87 1 9.15868V23.1587C1 24.4474 2.04465 25.492 3.33333 25.492H26.6667C27.9553 25.492 29 24.4474 29 23.1587V9.15868C29 7.87 27.9553 6.82535 26.6667 6.82535ZM27.0556 23.1587C27.0556 23.3731 26.8811 23.5476 26.6667 23.5476H3.33333C3.11891 23.5476 2.94444 23.3731 2.94444 23.1587V9.15868C2.94444 8.94426 3.11891 8.76979 3.33333 8.76979H26.6667C26.8811 8.76979 27.0556 8.94426 27.0556 9.15868V23.1587ZM9.26389 16.8392V15.4781C9.26389 15.156 9.0027 14.8948 8.68056 14.8948H7.31944C6.9973 14.8948 6.73611 15.156 6.73611 15.4781V16.8392C6.73611 17.1614 6.9973 17.4226 7.31944 17.4226H8.68056C9.0027 17.4226 9.26389 17.1614 9.26389 16.8392ZM13.9306 16.8392V15.4781C13.9306 15.156 13.6694 14.8948 13.3472 14.8948H11.9861C11.664 14.8948 11.4028 15.156 11.4028 15.4781V16.8392C11.4028 17.1614 11.664 17.4226 11.9861 17.4226H13.3472C13.6694 17.4226 13.9306 17.1614 13.9306 16.8392ZM18.5972 16.8392V15.4781C18.5972 15.156 18.336 14.8948 18.0139 14.8948H16.6528C16.3306 14.8948 16.0694 15.156 16.0694 15.4781V16.8392C16.0694 17.1614 16.3306 17.4226 16.6528 17.4226H18.0139C18.336 17.4226 18.5972 17.1614 18.5972 16.8392ZM23.2639 16.8392V15.4781C23.2639 15.156 23.0027 14.8948 22.6806 14.8948H21.3194C20.9973 14.8948 20.7361 15.156 20.7361 15.4781V16.8392C20.7361 17.1614 20.9973 17.4226 21.3194 17.4226H22.6806C23.0027 17.4226 23.2639 17.1614 23.2639 16.8392ZM6.93056 20.8254V19.4642C6.93056 19.1421 6.66937 18.8809 6.34722 18.8809H4.98611C4.66397 18.8809 4.40278 19.1421 4.40278 19.4642V20.8254C4.40278 21.1475 4.66397 21.4087 4.98611 21.4087H6.34722C6.66937 21.4087 6.93056 21.1475 6.93056 20.8254ZM25.5972 20.8254V19.4642C25.5972 19.1421 25.336 18.8809 25.0139 18.8809H23.6528C23.3306 18.8809 23.0694 19.1421 23.0694 19.4642V20.8254C23.0694 21.1475 23.3306 21.4087 23.6528 21.4087H25.0139C25.336 21.4087 25.5972 21.1475 25.5972 20.8254ZM6.93056 12.8531V11.492C6.93056 11.1699 6.66937 10.9087 6.34722 10.9087H4.98611C4.66397 10.9087 4.40278 11.1699 4.40278 11.492V12.8531C4.40278 13.1753 4.66397 13.4365 4.98611 13.4365H6.34722C6.66937 13.4365 6.93056 13.1753 6.93056 12.8531ZM11.5972 12.8531V11.492C11.5972 11.1699 11.336 10.9087 11.0139 10.9087H9.65278C9.33063 10.9087 9.06944 11.1699 9.06944 11.492V12.8531C9.06944 13.1753 9.33063 13.4365 9.65278 13.4365H11.0139C11.336 13.4365 11.5972 13.1753 11.5972 12.8531ZM16.2639 12.8531V11.492C16.2639 11.1699 16.0027 10.9087 15.6806 10.9087H14.3194C13.9973 10.9087 13.7361 11.1699 13.7361 11.492V12.8531C13.7361 13.1753 13.9973 13.4365 14.3194 13.4365H15.6806C16.0027 13.4365 16.2639 13.1753 16.2639 12.8531ZM20.9306 12.8531V11.492C20.9306 11.1699 20.6694 10.9087 20.3472 10.9087H18.9861C18.664 10.9087 18.4028 11.1699 18.4028 11.492V12.8531C18.4028 13.1753 18.664 13.4365 18.9861 13.4365H20.3472C20.6694 13.4365 20.9306 13.1753 20.9306 12.8531ZM25.5972 12.8531V11.492C25.5972 11.1699 25.336 10.9087 25.0139 10.9087H23.6528C23.3306 10.9087 23.0694 11.1699 23.0694 11.492V12.8531C23.0694 13.1753 23.3306 13.4365 23.6528 13.4365H25.0139C25.336 13.4365 25.5972 13.1753 25.5972 12.8531ZM20.8333 20.5337V19.7559C20.8333 19.4338 20.5721 19.1726 20.25 19.1726H9.75C9.42785 19.1726 9.16667 19.4338 9.16667 19.7559V20.5337C9.16667 20.8558 9.42785 21.117 9.75 21.117H20.25C20.5721 21.117 20.8333 20.8558 20.8333 20.5337Z" fill="black"/>
</svg>
