<svg width="31" height="30" viewBox="0 0 31 30" fill="none" xmlns="http://www.w3.org/2000/svg">
<path d="M1.61386 23.1721C1.61386 24.4449 2.84968 24.4449 2.84968 24.4449H28.3373C28.3373 24.4449 29.6139 24.4449 29.6139 23.1721C29.6139 21.8994 28.3373 21.8994 28.3373 21.8994H2.84968C2.84968 21.8994 1.61386 21.8994 1.61386 23.1721ZM12.432 22.5358H17.523C17.523 22.5358 18.1593 22.5358 18.1593 23.1721C18.1593 23.8085 17.523 23.8085 17.523 23.8085H12.432C12.432 23.8085 11.7957 23.8085 11.7957 23.1721C11.7957 22.5358 12.432 22.5358 12.432 22.5358Z" fill="black"/>
<path fill-rule="evenodd" clip-rule="evenodd" d="M4.61386 5.55518C3.50929 5.55518 2.61386 6.45061 2.61386 7.55518V18.4924C2.61386 19.597 3.50929 20.4924 4.61386 20.4924H26.6139C27.7184 20.4924 28.6139 19.597 28.6139 18.4924V7.55518C28.6139 6.45061 27.7184 5.55518 26.6139 5.55518H4.61386ZM5.15662 7.19861C4.60433 7.19861 4.15662 7.64632 4.15662 8.19861V17.849C4.15662 18.4013 4.60433 18.849 5.15661 18.849H26.0711C26.6234 18.849 27.0711 18.4013 27.0711 17.849V8.19861C27.0711 7.64632 26.6234 7.19861 26.0711 7.19861H5.15662Z" fill="black"/>
</svg>
