<svg width="30" height="30" viewBox="0 0 30 30"  xmlns="http://www.w3.org/2000/svg">
<path fill-rule="evenodd" clip-rule="evenodd" d="M7.76352 4.41638C7.49476 4.41638 7.25228 4.57776 7.14853 4.82569C7.04478 5.07362 7.10005 5.3596 7.2887 5.55102C7.83433 6.10463 8.52963 6.71417 9.27757 7.36986L9.29159 7.38215C10.0521 8.04884 10.8793 8.77415 11.7119 9.57571C13.3181 11.1221 14.9156 12.9259 16.03 15.0559C14.6126 16.3779 12.9312 17.1453 11.2661 17.2401C8.31361 15.082 5.67944 12.2701 4.29466 10.2559C3.92963 9.72491 3.20328 9.59039 2.67233 9.95544C2.14137 10.3205 2.00687 11.0468 2.3719 11.5778C2.46543 11.7139 2.56374 11.8528 2.66662 11.9942V21.6538C2.66662 21.853 2.75569 22.0417 2.90945 22.1684C4.65308 23.6044 8.0996 25.5711 12.0812 25.5834C14.8231 25.592 17.8402 24.9237 20.6818 22.5079C20.7382 22.4599 20.7937 22.4118 20.8484 22.3634C21.2415 22.2319 21.6267 22.06 22.0012 21.8432C22.482 21.5648 22.6897 20.9958 22.5309 20.4868C23.5489 19.0423 24.0809 17.5454 24.5273 16.2249L24.5717 16.0936C25.2317 14.1396 25.6862 12.7941 26.9859 12.0852C27.2073 11.9645 27.3416 11.7291 27.3329 11.4771C27.3242 11.225 27.1741 10.9994 26.9449 10.8942L26.8279 10.8401C26.0703 10.4891 24.7887 9.89521 23.1065 10.0986C22.5088 10.1708 21.8758 10.3409 21.208 10.6412C20.7418 9.24639 19.5458 6.39397 17.5433 4.58799C17.4209 4.47752 17.2618 4.41638 17.0969 4.41638H7.76352ZM20.0398 11.2829C20.0082 11.2348 19.9823 11.1818 19.9635 11.1245C19.5477 9.8588 18.4963 7.35681 16.834 5.74972H9.45506C9.68115 5.95045 9.92018 6.16006 10.1705 6.37954L10.1757 6.3841C10.9325 7.04749 11.7804 7.79081 12.6366 8.61517C14.191 10.1116 15.7983 11.8984 16.9906 14.0299C18.0692 12.7902 19.0859 11.9012 20.0398 11.2829ZM3.99995 21.3333V13.6688C5.78235 15.7405 8.23207 18.0426 10.8504 19.7974C12.6284 20.9891 14.5432 21.9687 16.4285 22.4274C16.996 22.5654 17.5689 22.658 18.1395 22.693C16.1121 23.8895 14.0426 24.2562 12.0854 24.2501C8.6838 24.2395 5.6598 22.6223 3.99995 21.3333ZM23.2642 15.7979C22.8305 17.0809 22.3506 18.411 21.4767 19.6682C21.2587 19.6568 21.0351 19.7063 20.8321 19.8238C19.7861 20.4294 18.4958 20.529 16.9802 20.1602C15.6809 19.8441 14.2837 19.1974 12.8776 18.3283C14.7308 17.8459 16.4671 16.7014 17.8411 15.0858C20.1078 12.4206 21.9256 11.5844 23.2665 11.4223C24.0734 11.3247 24.757 11.462 25.3394 11.6632C24.3092 12.6786 23.8341 14.0973 23.3731 15.4738C23.3368 15.5821 23.3006 15.6903 23.2642 15.7979Z" fill="black"/>
</svg>
