<svg width="30" height="30" viewBox="0 0 30 30" xmlns="http://www.w3.org/2000/svg">
<path d="M8.59576 1.32873L2.41223 13.6958C1.86259 14.5202 1.86259 15.4821 2.41223 16.3066L8.59576 28.6736C8.73317 28.6736 8.87058 28.8111 8.87058 28.9485C9.42023 29.0859 9.96987 28.9485 10.1073 28.5362L12.3059 24.1391L14.2296 27.8492C14.5045 28.2614 14.9167 28.5362 15.3289 28.5362C15.7412 28.5362 16.2908 28.2614 16.4282 27.8492L18.0772 24.6887L19.7261 27.8492C20.0009 28.2614 20.4132 28.5362 20.8254 28.5362C21.2376 28.5362 21.7873 28.2614 21.9247 27.8492L27.696 16.3066C27.9708 15.8944 28.1082 15.4821 28.1082 15.0699C28.1082 14.6577 27.9708 14.108 27.696 13.6958L21.9247 2.1532C21.6499 1.74097 21.2376 1.46614 20.8254 1.46614C20.4132 1.46614 19.8635 1.74097 19.7261 2.1532L18.0772 5.31367L16.4282 2.1532C16.1534 1.74097 15.7412 1.46614 15.3289 1.46614C14.9167 1.46614 14.367 1.74097 14.2296 2.1532L12.3059 5.7259L10.1073 1.32873C9.96987 1.19132 9.96987 1.05391 9.83246 1.05391C9.28282 0.916496 8.73317 1.05391 8.59576 1.32873ZM20.8254 3.93955L26.1844 14.5202C26.3219 14.7951 26.3219 15.0699 26.1844 15.3447L20.8254 25.9254L19.039 22.4901L22.1995 16.1692C22.4743 15.757 22.6117 15.3447 22.6117 14.9325C22.6117 14.5202 22.4743 13.9706 22.1995 13.5584L19.039 7.23743L20.8254 3.93955ZM15.3289 3.93955L17.1153 7.37484L18.0772 9.43602L20.688 14.6577C20.8254 14.9325 20.8254 15.2073 20.688 15.4821L18.0772 20.7038L17.1153 22.7649L15.3289 26.2002L13.2678 22.0779L16.2908 16.1692C16.8405 15.3447 16.8405 14.3828 16.2908 13.5584L13.2678 7.64967L15.3289 3.93955Z" fill="black"/>
</svg>
