<svg width="31" height="30" viewBox="0 0 31 30" xmlns="http://www.w3.org/2000/svg">
<path fill-rule="evenodd" clip-rule="evenodd" d="M6.58367 4.44336C5.73275 4.44336 5.04294 5.13317 5.04294 5.98409V18.7139H7.47577V8.14607C7.47577 7.63552 7.88965 7.22163 8.4002 7.22163H22.8276C23.3381 7.22163 23.752 7.63552 23.752 8.14607V18.7139H26.1848V5.98409C26.1848 5.13317 25.495 4.44336 24.6441 4.44336H6.58367Z" fill="black"/>
<path d="M9.19376 10.9571C9.19376 10.3769 9.66406 9.90662 10.2442 9.90662C10.8244 9.90662 11.2947 10.3769 11.2947 10.9571V15.4975C11.2947 16.0777 10.8244 16.548 10.2442 16.548C9.66406 16.548 9.19376 16.0777 9.19376 15.4975V10.9571Z" fill="black"/>
<path d="M12.7731 10.9571C12.7731 10.3769 13.2434 9.90662 13.8235 9.90662C14.4037 9.90662 14.874 10.3769 14.874 10.9571V15.4975C14.874 16.0777 14.4037 16.548 13.8235 16.548C13.2434 16.548 12.7731 16.0777 12.7731 15.4975V10.9571Z" fill="black"/>
<path d="M16.3531 10.9571C16.3531 10.3769 16.8234 9.90662 17.4036 9.90662C17.9837 9.90662 18.454 10.3769 18.454 10.9571V15.4975C18.454 16.0777 17.9837 16.548 17.4036 16.548C16.8234 16.548 16.3531 16.0777 16.3531 15.4975V10.9571Z" fill="black"/>
<path d="M19.9331 10.9571C19.9331 10.3769 20.4034 9.90662 20.9835 9.90662C21.5637 9.90662 22.034 10.3769 22.034 10.9571V15.4975C22.034 16.0777 21.5637 16.548 20.9835 16.548C20.4034 16.548 19.9331 16.0777 19.9331 15.4975V10.9571Z" fill="black"/>
<path d="M3.11386 20.2546C3.11386 19.4037 3.80367 18.7139 4.65459 18.7139H26.5731C27.4241 18.7139 28.1139 19.4037 28.1139 20.2546V24.0162C28.1139 24.8671 27.4241 25.5569 26.5731 25.5569H4.65459C3.80367 25.5569 3.11386 24.8671 3.11386 24.0162V20.2546Z" fill="black"/>
</svg>
