<svg width="31" height="30" viewBox="0 0 31 30" xmlns="http://www.w3.org/2000/svg">
<path d="M26.3722 11.4759H21.1554C21.5345 10.5946 21.9704 8.31551 21.7193 6.24013C21.5202 4.59121 20.5489 3.32609 19.1369 2.8428C18.0898 2.48744 16.981 2.66274 16.384 3.26924C15.6732 3.99419 15.3416 5.3588 14.9862 6.80399C14.754 7.74691 14.5171 8.72773 14.2186 9.23471C13.361 10.6941 11.5652 11.3574 11.2051 11.4759H8.73173C8.2437 11.4759 7.8504 11.8692 7.8504 12.3572V24.6957C7.8504 25.1837 8.24367 25.577 8.73173 25.577H11.1151C11.8542 25.975 14.5977 27.3396 17.7771 27.3396H23.7236C24.7044 27.3396 26.3912 26.9605 27.0214 25.9134C27.6563 24.852 29.002 15.2049 29.002 14.1388C29.0067 12.67 27.5663 11.4759 26.3722 11.4759ZM25.5193 25.0084C25.3867 25.2311 24.5148 25.577 23.733 25.577H17.7818C14.6356 25.577 11.8542 23.8144 11.8258 23.8144H9.61776V13.2386H11.3804C11.4515 13.2386 11.5178 13.2149 11.5841 13.1959C11.5984 13.1912 11.6126 13.1959 11.6268 13.1912C11.6315 13.1865 11.6505 13.1817 11.6742 13.177C11.6979 13.1675 11.7215 13.1675 11.7452 13.1533C12.2807 12.978 14.5692 12.1251 15.7443 10.1256C16.1708 9.40061 16.4314 8.33925 16.7014 7.221C16.9526 6.17859 17.27 4.88031 17.6396 4.50599C17.7249 4.43492 18.1371 4.34016 18.6536 4.54389C19.0753 4.70971 19.8097 5.17882 19.9661 6.46289C20.312 9.28688 19.099 11.9735 19.0895 12.0019C18.9616 12.2767 18.9853 12.5847 19.1464 12.8358C19.3075 13.0869 19.587 13.2338 19.8855 13.2338H26.3675C26.6091 13.2338 27.2393 13.646 27.2393 14.1388C27.244 15.3187 25.8842 24.1745 25.5193 25.0084Z" fill="black"/>
<path d="M2.95227 12.6461C2.95227 12.0938 3.39999 11.6461 3.95227 11.6461H5.38708C5.93937 11.6461 6.38708 12.0938 6.38708 12.6461V24.4447C6.38708 24.997 5.93937 25.4447 5.38708 25.4447H3.95227C3.39999 25.4447 2.95227 24.997 2.95227 24.4447V12.6461Z" fill="black"/>
</svg>
