<svg width="31" height="30" viewBox="0 0 31 30" xmlns="http://www.w3.org/2000/svg">
<path fill-rule="evenodd" clip-rule="evenodd" d="M7.97095 12.4495C6.04577 12.4495 4.48511 14.0102 4.48511 15.9354C4.48511 17.8605 6.04577 19.4212 7.97095 19.4212C9.89612 19.4212 11.4568 17.8605 11.4568 15.9354C11.4568 14.0102 9.89612 12.4495 7.97095 12.4495ZM7.97095 14.0706C6.94108 14.0706 6.1062 14.9055 6.1062 15.9354C6.1062 16.9652 6.94108 17.8001 7.97095 17.8001C9.00082 17.8001 9.83569 16.9652 9.83569 15.9354C9.83569 14.9055 9.00082 14.0706 7.97095 14.0706Z" fill="black"/>
<path fill-rule="evenodd" clip-rule="evenodd" d="M16.924 3.49609C14.9988 3.49609 13.4381 5.05676 13.4381 6.98193C13.4381 8.90711 14.9988 10.4678 16.924 10.4678C18.8491 10.4678 20.4098 8.90711 20.4098 6.98193C20.4098 5.05676 18.8491 3.49609 16.924 3.49609ZM16.924 5.11719C15.8941 5.11719 15.0592 5.95206 15.0592 6.98193C15.0592 8.0118 15.8941 8.84668 16.924 8.84668C17.9538 8.84668 18.7887 8.0118 18.7887 6.98193C18.7887 5.95206 17.9538 5.11719 16.924 5.11719Z" fill="black"/>
<path fill-rule="evenodd" clip-rule="evenodd" d="M22.9488 20.2C21.0236 20.2 19.4629 21.7607 19.4629 23.6858C19.4629 25.611 21.0236 27.1717 22.9488 27.1717C24.874 27.1717 26.4346 25.611 26.4346 23.6858C26.4346 21.7607 24.874 20.2 22.9488 20.2ZM22.9488 21.8211C21.9189 21.8211 21.084 22.656 21.084 23.6858C21.084 24.7157 21.9189 25.5506 22.9488 25.5506C23.9787 25.5506 24.8135 24.7157 24.8135 23.6858C24.8135 22.656 23.9787 21.8211 22.9488 21.8211Z" fill="black"/>
<path d="M9.16544 13.5244L14.4131 8.27677L15.5449 9.40856L10.2972 14.6562L9.16544 13.5244Z" fill="black"/>
<path d="M10.8472 16.6022L20.7572 22.0954L19.9812 23.4953L10.0712 18.0021L10.8472 16.6022Z" fill="black"/>
</svg>
