<svg width="31" height="30" viewBox="0 0 31 30" fill="none" xmlns="http://www.w3.org/2000/svg">
<path d="M23.4803 28.2631H7.26974C4.01437 28.2631 1.375 25.6238 1.375 22.3684V7.63155C1.375 4.37618 4.01437 1.73682 7.26974 1.73682H23.4803C26.7356 1.73682 29.375 4.37618 29.375 7.63155V22.3684C29.375 25.6238 26.7356 28.2631 23.4803 28.2631ZM27.5394 8.51576C27.5394 5.58608 25.5257 3.68449 22.5961 3.68449H8.15395C5.22426 3.68449 3.28649 5.58608 3.28649 8.51576V21.4842C3.28649 24.4139 5.22426 26.261 8.15395 26.261H22.5961C25.5257 26.261 27.5394 24.4139 27.5394 21.4842V8.51576Z" fill="black"/>
<path d="M12.7283 14.9998C12.7283 13.538 13.9133 12.353 15.375 12.353C16.8367 12.353 18.0217 13.538 18.0217 14.9998C18.0217 16.4615 16.8367 17.6465 15.375 17.6465C13.9133 17.6465 12.7283 16.4615 12.7283 14.9998Z" fill="black"/>
<path d="M7.75684 8.62443C6.17746 10.4487 5.39044 12.5706 5.39578 14.99C5.40112 17.4094 6.18244 19.5313 7.73976 21.3556C7.9067 21.5446 8.11244 21.6446 8.35698 21.6557C8.60153 21.6667 8.81279 21.5832 8.99077 21.4052C9.14668 21.2493 9.23015 21.0601 9.24118 20.8377C9.25222 20.6152 9.18547 20.4207 9.04096 20.2541C8.47356 19.5977 8.0231 18.8578 7.68957 18.0345C7.3005 17.0667 7.10313 16.0516 7.09743 14.9895C7.09174 13.9273 7.28911 12.9066 7.68957 11.9274C8.01206 11.1151 8.45701 10.3807 9.0244 9.72433C9.16928 9.55739 9.23602 9.36286 9.22463 9.14074C9.21324 8.91863 9.12977 8.72943 8.97421 8.57317C8.80727 8.40623 8.60135 8.32275 8.35645 8.32275C8.10052 8.33379 7.90029 8.43399 7.75577 8.62336L7.75684 8.62443Z" fill="black"/>
<path d="M11.8289 10.3685C11.5045 10.0441 10.9742 10.0415 10.6881 10.4001C9.68197 11.6611 9.08056 13.2592 9.08056 14.9977C9.08056 16.7362 9.68192 18.3342 10.6879 19.5951C10.9742 19.9539 11.5045 19.9512 11.8291 19.6267C12.1536 19.3022 12.1478 18.7791 11.8735 18.4112C11.163 17.4586 10.7424 16.2771 10.7424 14.9974C10.7424 13.7178 11.1629 12.5363 11.8733 11.5837C12.1476 11.2159 12.1533 10.693 11.8289 10.3685Z" fill="black"/>
<path d="M22.9929 21.3653C24.5723 19.541 25.3593 17.4192 25.354 14.9997C25.3486 12.5803 24.5673 10.4584 23.01 8.63416C22.8431 8.44515 22.6373 8.34513 22.3928 8.33409C22.1482 8.32306 21.937 8.40653 21.759 8.58451C21.6031 8.74042 21.5196 8.92961 21.5086 9.15208C21.4975 9.37455 21.5643 9.56908 21.7088 9.73567C22.2762 10.3921 22.7267 11.1319 23.0602 11.9552C23.4493 12.9231 23.6466 13.9381 23.6523 15.0003C23.658 16.0624 23.4606 17.0832 23.0602 18.0624C22.7377 18.8747 22.2927 19.609 21.7254 20.2654C21.5805 20.4324 21.5137 20.6269 21.5251 20.849C21.5365 21.0711 21.62 21.2603 21.7755 21.4166C21.9425 21.5835 22.1484 21.667 22.3933 21.667C22.6492 21.656 22.8495 21.5558 22.994 21.3664L22.9929 21.3653Z" fill="black"/>
<path d="M18.9208 19.6212C19.2453 19.9457 19.7755 19.9483 20.0617 19.5896C21.0678 18.3286 21.6692 16.7306 21.6692 14.992C21.6692 13.2536 21.0678 11.6556 20.0618 10.3946C19.7756 10.0359 19.2452 10.0385 18.9207 10.363C18.5962 10.6875 18.6019 11.2107 18.8763 11.5785C19.5867 12.5311 20.0074 13.7126 20.0074 14.9923C20.0074 16.272 19.5869 17.4535 18.8765 18.406C18.6022 18.7738 18.5964 19.2968 18.9208 19.6212Z" fill="black"/>
</svg>
