<svg width="31" height="31" viewBox="0 0 31 31"  xmlns="http://www.w3.org/2000/svg">
<g clip-path="url(#clip0_1038_638)">
<path d="M18.8185 3.81396C20.41 4.25532 21.8678 4.99445 23.1513 6.01439C24.3913 6.99673 25.4148 8.1971 26.1974 9.58038C26.98 10.9637 27.4792 12.4585 27.6852 14.028C27.8958 15.6528 27.7811 17.2838 27.3398 18.8753C26.8984 20.4668 26.1593 21.9246 25.1394 23.2081C24.157 24.4481 22.9566 25.4716 21.5734 26.2542C20.1901 27.0368 18.6953 27.536 17.1265 27.7394C15.5017 27.9499 13.8707 27.8353 12.2792 27.3939C10.9802 27.0337 9.7607 26.4685 8.65545 25.7165C8.03277 25.2912 7.87141 24.4406 8.29664 23.8179C8.63571 23.3218 9.24261 23.1183 9.79067 23.2703C9.93033 23.3091 10.0687 23.373 10.1952 23.4591C11.052 24.0429 12 24.4818 13.0092 24.7616C15.4544 25.4397 18.0159 25.1257 20.2271 23.8747C22.435 22.6255 24.0267 20.5898 24.7049 18.1445C25.383 15.6993 25.069 13.1379 23.8179 10.9266C22.5687 8.71878 20.533 7.12701 18.0878 6.44889C15.6426 5.77077 13.0811 6.08479 10.8699 7.33584C8.662 8.585 7.07023 10.6208 6.39211 13.066C5.96391 14.61 5.93269 16.2472 6.30043 17.7963C6.47404 18.5312 6.02266 19.2686 5.28782 19.4422C4.55298 19.6158 3.81553 19.1644 3.64192 18.4296C3.16554 16.4332 3.20812 14.3253 3.75982 12.336C4.20118 10.7445 4.94031 9.28664 5.96025 8.00315C6.94258 6.76315 8.14295 5.73968 9.52624 4.95706C10.9095 4.17443 12.4043 3.67527 13.9739 3.46926C15.596 3.25795 17.227 3.3726 18.8185 3.81396Z" fill="black"/>
</g>
<defs>
<clipPath id="clip0_1038_638">
<rect width="30" height="30" fill="white" transform="translate(0.592773 0.624878)"/>
</clipPath>
</defs>
</svg>
