<svg width="30" height="31" viewBox="0 0 30 31" xmlns="http://www.w3.org/2000/svg">
<path d="M22.056 2.82532C22.952 2.82532 23.8153 2.99332 24.646 3.32932C25.4767 3.66532 26.214 4.12732 26.858 4.71532C27.502 5.30332 28.02 5.98932 28.412 6.77332C28.804 7.55732 29 8.39732 29 9.29332V13.4373H25.8451V10.0773C25.8451 8.90132 25.6627 7.47865 25 6.82532C24.3373 6.17198 23.176 5.82532 22.056 5.82532C21.048 5.82532 19.616 6.17198 19 6.82532C18.384 7.47865 18.1959 8.90132 18.1959 10.0773V13.4933H15.056V9.29332C15.056 8.39732 15.2333 7.55732 15.588 6.77332C15.9427 5.98932 16.4327 5.30332 17.058 4.71532C17.6833 4.12732 18.4207 3.66532 19.27 3.32932C20.1193 2.99332 21.048 2.82532 22.056 2.82532ZM22 21.9213V24.3293V25.6453C22 26.1493 21.9113 26.6253 21.734 27.0733C21.5567 27.5213 21.314 27.904 21.006 28.2213C20.698 28.5387 20.334 28.7907 19.914 28.9773C19.494 29.164 19.032 29.2573 18.528 29.2573H4.36C3.856 29.2573 3.39867 29.1686 2.988 28.9913C2.57733 28.814 2.22267 28.5713 1.924 28.2633C1.62533 27.9553 1.39667 27.596 1.238 27.1853C1.07933 26.7746 1 26.336 1 25.8693V16.9653C1 16.4426 1.182 16.004 1.546 15.6493C1.91 15.2947 2.33467 15.1173 2.82 15.1173H20.152C20.6747 15.1173 21.1133 15.2947 21.468 15.6493C21.8227 16.004 22 16.4426 22 16.9653V21.9213Z" fill="black"/>
</svg>
