<svg width="30" height="31" viewBox="0 0 30 31" xmlns="http://www.w3.org/2000/svg">
<path d="M15.056 2.60944C15.952 2.60944 16.8153 2.77744 17.646 3.11344C18.4767 3.44944 19.214 3.91144 19.858 4.49944C20.502 5.08744 21.02 5.77344 21.412 6.55744C21.804 7.34144 22 8.18144 22 9.07744V13.2214H18.8451V9.86144C18.8451 8.68544 18.6627 7.26277 18 6.60944C17.3373 5.9561 16.176 5.60944 15.056 5.60944C14.048 5.60944 12.616 5.9561 12 6.60944C11.384 7.26277 11.1959 8.68544 11.1959 9.86144V13.2774H8.056V9.07744C8.056 8.18144 8.23333 7.34144 8.588 6.55744C8.94267 5.77344 9.43267 5.08744 10.058 4.49944C10.6833 3.91144 11.4207 3.44944 12.27 3.11344C13.1193 2.77744 14.048 2.60944 15.056 2.60944ZM25.5 21.7053V24.1133V25.4293C25.5 25.9333 25.4113 26.4093 25.234 26.8573C25.0567 27.3053 24.814 27.688 24.506 28.0053C24.198 28.3226 23.834 28.5746 23.414 28.7613C22.994 28.948 22.532 29.0413 22.028 29.0413H7.86C7.356 29.0413 6.89867 28.9526 6.488 28.7753C6.07733 28.5979 5.72267 28.3553 5.424 28.0473C5.12533 27.7393 4.89667 27.3799 4.738 26.9693C4.57933 26.5586 4.5 26.1199 4.5 25.6533V16.7493C4.5 16.2266 4.682 15.7879 5.046 15.4333C5.41 15.0786 5.83467 14.9013 6.32 14.9013H23.652C24.1747 14.9013 24.6133 15.0786 24.968 15.4333C25.3227 15.7879 25.5 16.2266 25.5 16.7493V21.7053Z" fill="black"/>
</svg>
