<svg width="30" height="31" viewBox="0 0 30 31" xmlns="http://www.w3.org/2000/svg">
<path d="M23.6667 3.82535C25.0812 3.82535 26.4377 4.38725 27.4379 5.38744C28.4381 6.38764 29 7.74419 29 9.15868V22.492C29 23.9065 28.4381 25.2631 27.4379 26.2633C26.4377 27.2634 25.0812 27.8253 23.6667 27.8253H6.33333C4.91885 27.8253 3.56229 27.2634 2.5621 26.2633C1.5619 25.2631 1 23.9065 1 22.492V9.15868C1 7.74419 1.5619 6.38764 2.5621 5.38744C3.56229 4.38725 4.91885 3.82535 6.33333 3.82535H23.6667ZM27 11.444L17.2933 16.0667C16.577 16.4079 15.7935 16.5849 15 16.5849C14.2065 16.5849 13.423 16.4079 12.7067 16.0667L3 11.444V22.492C3.00005 23.351 3.33169 24.1768 3.92577 24.7972C4.51985 25.4176 5.3305 25.7847 6.18867 25.822L6.33333 25.8253H23.6667C24.5256 25.8253 25.3514 25.4937 25.9719 24.8996C26.5923 24.3055 26.9594 23.4948 26.9967 22.6367L27 22.492V11.444ZM23.6667 5.82535H6.33333C5.47436 5.8254 4.64856 6.15704 4.02815 6.75112C3.40774 7.3452 3.04061 8.15585 3.00333 9.01401L3 9.22935L13.5667 14.2613C13.9875 14.4616 14.4456 14.5715 14.9114 14.5838C15.3773 14.5961 15.8406 14.5105 16.2713 14.3327L16.4333 14.2613L27 9.22868V9.15868C27 8.29971 26.6683 7.47391 26.0742 6.8535C25.4801 6.23309 24.6695 5.86596 23.8113 5.82868L23.6667 5.82535Z" fill="black"/>
</svg>
