<svg width="31" height="30" viewBox="0 0 31 30" fill="none" xmlns="http://www.w3.org/2000/svg">
<path d="M17.5877 12.3072V5.75448L19.8404 8.01027C20.388 8.55788 21.2747 8.55788 21.8192 8.01027C22.3669 7.46266 22.3669 6.5759 21.8192 6.02829L17.2019 1.4047C16.9219 1.12467 16.5547 0.993989 16.1876 1.00021C15.8204 0.993989 15.4533 1.12778 15.1732 1.4047L10.5527 6.02829C10.0051 6.5759 10.0051 7.46266 10.5527 8.01027C11.1004 8.55788 11.9871 8.55788 12.5316 8.01027L14.7843 5.75448V12.3072C10.8141 12.9761 7.78668 16.4236 7.78668 20.5898C7.78668 25.2352 11.5484 29 16.1876 29C20.8267 29 24.5884 25.2352 24.5884 20.5898C24.5884 16.4236 21.561 12.9761 17.5877 12.3072ZM16.1876 26.1966C13.0948 26.1966 10.587 23.6857 10.587 20.5898C10.587 17.4939 13.0948 14.983 16.1876 14.983C19.2803 14.983 21.7881 17.4939 21.7881 20.5898C21.7881 23.6857 19.2803 26.1966 16.1876 26.1966Z" fill="black"/>
</svg>
