<svg width="30" height="31" viewBox="0 0 30 31" xmlns="http://www.w3.org/2000/svg">
<path d="M28.9982 25.6822C28.9861 26.3373 28.7147 26.9608 28.2435 27.416C27.7724 27.8713 27.1399 28.1211 26.4848 28.1107C26.3509 28.1112 26.2179 28.0896 26.0911 28.0466L19.2564 25.7491L11.1473 28.0619C11.037 28.0939 10.9227 28.11 10.8078 28.1098C10.6529 28.1081 10.4998 28.0775 10.3562 28.0195L10.3463 28.0493L3.28306 25.6741C2.66962 25.6283 2.09543 25.3549 1.67307 24.9077C1.25072 24.4604 1.01067 23.8715 1 23.2565V6.25456C1.01258 5.59919 1.2845 4.97554 1.75614 4.52032C2.22777 4.06511 2.86066 3.81546 3.51606 3.8261C3.64986 3.82585 3.78282 3.8472 3.90982 3.88931L10.8005 6.20579L18.98 3.87306C19.2815 3.78638 19.6048 3.8187 19.8831 3.96337L26.7151 6.26088C27.3277 6.30741 27.901 6.58029 28.3234 7.02638C28.7458 7.47246 28.987 8.0598 29 8.67399L28.9982 25.6822ZM9.58135 8.36061L3.51877 6.32139L3.45375 23.2529C3.60891 23.2528 3.76332 23.2744 3.91253 23.317L9.58135 25.2226V8.36061ZM18.0959 6.65283L12.0333 8.38228V25.2831L18.0959 23.5527V6.65012V6.65283ZM26.0875 8.6189L20.5469 6.75578V23.6186L26.4839 25.6154L26.5481 8.68211C26.3926 8.68237 26.2379 8.6611 26.0884 8.6189H26.0875Z" fill="black"/>
</svg>
