<svg width="30" height="30" viewBox="0 0 30 30"  xmlns="http://www.w3.org/2000/svg">
<path d="M14.9994 7.85085C16.03 8.65986 16.8631 9.69272 17.4357 10.8713C18.0082 12.0498 18.3051 13.3432 18.3039 14.6534C18.3047 15.9632 18.0076 17.2561 17.4351 18.4342C16.8626 19.6122 16.0297 20.6447 14.9994 21.4534C13.9689 20.6446 13.1359 19.6119 12.5634 18.4336C11.9908 17.2553 11.6938 15.9622 11.6948 14.6521C11.6938 13.3421 11.9908 12.049 12.5634 10.8707C13.1359 9.69239 13.9689 8.65972 14.9994 7.85085ZM13.8919 7.11C12.8009 8.04124 11.9252 9.19828 11.3252 10.5011C10.7252 11.804 10.4153 13.2216 10.4168 14.656C10.4153 16.0897 10.725 17.5067 11.3246 18.8091C11.9241 20.1114 12.7992 21.2682 13.8894 22.1994C12.5724 22.9387 11.0848 23.3204 9.57454 23.3067C8.06427 23.2929 6.58392 22.8841 5.28061 22.1209C3.97731 21.3577 2.89646 20.2667 2.1455 18.9563C1.39454 17.6459 0.999618 16.1617 1 14.6514C1.00038 13.1411 1.39605 11.6572 2.14768 10.3472C2.8993 9.03716 3.98071 7.94668 5.2844 7.18413C6.58808 6.42158 8.06865 6.01352 9.57891 6.00052C11.0892 5.98751 12.5766 6.37001 13.8932 7.11H13.8919ZM16.1094 22.1994C17.1995 21.2682 18.0746 20.1114 18.6742 18.8091C19.2737 17.5067 19.5834 16.0897 19.5819 14.656C19.5835 13.2216 19.2735 11.804 18.6735 10.5011C18.0735 9.19828 17.1978 8.04124 16.1068 7.11C17.4234 6.37001 18.9108 5.98751 20.4211 6.00052C21.9314 6.01352 23.4119 6.42158 24.7156 7.18413C26.0193 7.94668 27.1007 9.03716 27.8523 10.3472C28.6039 11.6572 28.9996 13.1411 29 14.6514C29.0004 16.1617 28.6055 17.6459 27.8545 18.9563C27.1035 20.2667 26.0227 21.3577 24.7194 22.1209C23.4161 22.8841 21.9357 23.2929 20.4255 23.3067C18.9152 23.3204 17.4276 22.9387 16.1106 22.1994H16.1094Z" fill="black"/>
</svg>
