<svg width="30" height="31" viewBox="0 0 30 31" xmlns="http://www.w3.org/2000/svg">
<path d="M15 27.8253C17.2707 27.7627 19.156 26.9813 20.656 25.4813C22.156 23.9813 22.9373 22.096 23 19.8253C22.9373 17.5547 22.156 15.6693 20.656 14.1693C19.156 12.6693 17.2707 11.888 15 11.8253C12.7293 11.888 10.844 12.6693 9.344 14.1693C7.844 15.6693 7.06267 17.5547 7 19.8253C7.06267 22.096 7.844 23.9813 9.344 25.4813C10.844 26.9813 12.7293 27.7627 15 27.8253ZM15 29.8253C12.1667 29.7627 9.80733 28.7887 7.922 26.9033C6.03667 25.018 5.06267 22.6587 5 19.8253C5.06267 16.992 6.03667 14.6327 7.922 12.7473C9.80733 10.862 12.1667 9.88798 15 9.82532C17.8333 9.88798 20.1927 10.862 22.078 12.7473C23.9633 14.6327 24.9373 16.992 25 19.8253C24.9373 22.6587 23.9633 25.018 22.078 26.9033C20.1927 28.7887 17.8333 29.7627 15 29.8253ZM17 3.82532H13V10.0753C13.6667 9.90865 14.3333 9.82532 15 9.82532C15.604 9.82532 16.2707 9.90865 17 10.0753V3.82532ZM19 3.82532V10.7003C19.7707 10.971 20.5833 11.3253 21.438 11.7633L22.657 3.82532H19.001H19ZM11 3.82532H7.344L8.563 11.7633C9.417 11.326 10.2297 10.9717 11.001 10.7003V3.82532H11ZM6.156 1.82532H23.844C24.136 1.82532 24.3807 1.93998 24.578 2.16932C24.7753 2.39865 24.8533 2.66965 24.812 2.98232L22.999 14.8263C19.4363 12.8263 16.7697 11.8263 14.999 11.8263C13.2283 11.8263 10.5617 12.8263 6.999 14.8263L5.186 2.98232C5.144 2.66965 5.222 2.39865 5.42 2.16932C5.618 1.93998 5.86267 1.82532 6.154 1.82532H6.156Z" fill="black"/>
</svg>
