<svg width="30" height="30" viewBox="0 0 30 30" xmlns="http://www.w3.org/2000/svg">
<path d="M2 24.1C2 26.802 4.198 29 6.9 29C9.602 29 11.8 26.802 11.8 24.1C11.8 21.888 10.316 20.0358 8.3 19.4282V15.2254C8.4456 15.3472 8.5814 15.476 8.7382 15.5866C10.3902 16.7682 12.402 17.1238 14.2234 17.1238C15.5758 17.1238 16.8176 16.9278 17.7318 16.7304C18.0823 17.6598 18.707 18.4608 19.5231 19.0271C20.3392 19.5934 21.3081 19.8983 22.3014 19.9014C25.0034 19.9014 27.2014 17.7034 27.2014 15.0014C27.2014 12.2994 25.0034 10.1014 22.3014 10.1014C21.1939 10.1038 20.1199 10.4813 19.2545 11.1723C18.3891 11.8633 17.7832 12.8271 17.5358 13.9066C15.72 14.356 12.4062 14.769 10.3692 13.3102C9.5054 12.6928 8.9412 11.7184 8.6192 10.4752C9.55124 10.1258 10.3548 9.50086 10.923 8.68358C11.4912 7.8663 11.7971 6.89539 11.8 5.9C11.8 3.198 9.602 1 6.9 1C4.198 1 2 3.198 2 5.9C2 8.112 3.484 9.9642 5.5 10.5718V19.4282C3.484 20.0358 2 21.888 2 24.1ZM22.3 12.9C23.4578 12.9 24.4 13.8422 24.4 15C24.4 16.1578 23.4578 17.1 22.3 17.1C21.1422 17.1 20.2 16.1578 20.2 15C20.2 13.8422 21.1422 12.9 22.3 12.9ZM9 24.1C9 25.2578 8.0578 26.2 6.9 26.2C5.7422 26.2 4.8 25.2578 4.8 24.1C4.8 22.9422 5.7422 22 6.9 22C8.0578 22 9 22.9422 9 24.1ZM4.8 5.9C4.8 4.7422 5.7422 3.8 6.9 3.8C8.0578 3.8 9 4.7422 9 5.9C9 7.0578 8.0578 8 6.9 8C5.7422 8 4.8 7.0578 4.8 5.9Z" fill="black"/>
</svg>
