<svg width="30" height="31" viewBox="0 0 30 31" xmlns="http://www.w3.org/2000/svg">
<path d="M26.4545 22.189V22.9004H19.1313C17.9515 22.9004 16.6978 23.6501 16.1518 24.6835L15 26.8599L13.8482 24.6823C13.3022 23.6501 12.0485 22.9004 10.8687 22.9004H3.54545V4.3708H26.4545V22.189ZM26.6658 1.82535H3.33418C2.04745 1.82535 1 2.91862 1 4.26135V23.0099C1 24.3526 2.05 25.4459 3.33927 25.4459H10.8687C11.1042 25.4459 11.4936 25.6737 11.5993 25.8735L13.1125 28.7359L13.2284 28.9166C13.6725 29.4944 14.3178 29.8253 15 29.8253C15.6822 29.8253 16.3275 29.4944 16.7716 28.9166L18.4007 25.8735C18.4987 25.6903 18.8767 25.4459 19.1313 25.4459H26.6671C27.9538 25.4459 29 24.3526 29 23.0099V4.26135C29 2.91862 27.9525 1.82535 26.6658 1.82535Z" fill="black"/>
<path d="M8 11.8253C7.48533 11.8253 7.02133 12.0253 6.66667 12.344C6.45745 12.53 6.2899 12.7581 6.17501 13.0134C6.06012 13.2687 6.00048 13.5454 6 13.8253C6 14.416 6.26 14.94 6.66667 15.3067C7.03128 15.6392 7.50657 15.824 8 15.8253C8.53043 15.8253 9.03914 15.6146 9.41421 15.2396C9.78929 14.8645 10 14.3558 10 13.8253C10 13.2949 9.78929 12.7862 9.41421 12.4111C9.03914 12.0361 8.53043 11.8253 8 11.8253ZM22.6667 11.8253C22.1362 11.8253 21.6275 12.0361 21.2525 12.4111C20.8774 12.7862 20.6667 13.2949 20.6667 13.8253C20.6667 14.3558 20.8774 14.8645 21.2525 15.2396C21.6275 15.6146 22.1362 15.8253 22.6667 15.8253C23.1813 15.8253 23.6453 15.6253 24 15.3067C24.4067 14.94 24.6667 14.416 24.6667 13.8253C24.6662 13.5454 24.6065 13.2687 24.4917 13.0134C24.3768 12.7581 24.2092 12.53 24 12.344C23.6354 12.0115 23.1601 11.8267 22.6667 11.8253ZM15.3333 11.8253C14.8187 11.8253 14.3547 12.0253 14 12.344C13.7908 12.53 13.6232 12.7581 13.5083 13.0134C13.3935 13.2687 13.3338 13.5454 13.3333 13.8253C13.3333 14.416 13.5933 14.94 14 15.3067C14.3646 15.6392 14.8399 15.824 15.3333 15.8253C15.848 15.8253 16.312 15.6253 16.6667 15.3067C17.0733 14.94 17.3333 14.416 17.3333 13.8253C17.3329 13.5454 17.2732 13.2687 17.1583 13.0134C17.0434 12.7581 16.8759 12.53 16.6667 12.344C16.3021 12.0115 15.8268 11.8267 15.3333 11.8253Z" fill="black"/>
</svg>
