<svg width="30" height="30" viewBox="0 0 30 30" xmlns="http://www.w3.org/2000/svg">
<path d="M20.2178 1.91016C24.5537 1.91016 28.0664 5.42285 28.0664 9.75879V20.2236C28.0664 24.5596 24.5537 28.0723 20.2178 28.0723H9.75293C5.41992 28.0723 1.9043 24.5596 1.9043 20.2236V9.75879C1.9043 5.42578 5.41992 1.91016 9.75293 1.91016H20.2178ZM15.4365 10.1016H7.74609C7.7168 10.1016 7.69043 10.1133 7.66992 10.1338C7.64941 10.1543 7.6377 10.1807 7.6377 10.21V19.7285C7.6377 19.7578 7.64941 19.7842 7.66992 19.8047C7.69043 19.8252 7.7168 19.8369 7.74609 19.8369H9.7998C9.8584 19.8369 9.9082 19.7871 9.9082 19.7285V12.2578C9.9082 12.1963 9.95508 12.1465 10.0166 12.1465H14.4346C15.2637 12.1465 15.9375 12.8379 15.9375 13.6875V19.7285C15.9375 19.79 15.9844 19.8369 16.043 19.8369H18.0674C18.0967 19.8369 18.123 19.8252 18.1436 19.8047C18.1641 19.7842 18.1758 19.7578 18.1729 19.7285V12.9082C18.1729 11.3584 16.9482 10.1016 15.4365 10.1016ZM13.916 13.8926H11.8623C11.833 13.8926 11.8066 13.9043 11.7861 13.9248C11.7656 13.9453 11.7539 13.9746 11.7539 14.001V19.7256C11.7539 19.7871 11.8008 19.834 11.8623 19.834H13.916C13.9453 19.834 13.9717 19.8223 13.9922 19.8018C14.0127 19.7812 14.0244 19.752 14.0244 19.7227V14.0039C14.0244 13.9746 14.0127 13.9482 13.9922 13.9248C13.9717 13.9043 13.9453 13.8926 13.916 13.8926ZM22.1279 10.1016H20.0742C20.0156 10.1016 19.9658 10.1514 19.9658 10.2129V19.7314C19.9658 19.793 20.0156 19.8398 20.0742 19.8398H22.1279C22.1865 19.8398 22.2363 19.79 22.2363 19.7314V10.21C22.2363 10.1807 22.2246 10.1543 22.2041 10.1309C22.1865 10.1133 22.1572 10.1016 22.1279 10.1016Z" fill="black"/>
</svg>
