<svg width="30" height="30" viewBox="0 0 30 30" xmlns="http://www.w3.org/2000/svg">
<path d="M15.0341 19.5534C17.5486 19.5534 19.5875 17.5146 19.5875 15V5.5534C19.5875 4.34576 19.1077 3.18759 18.2538 2.33366C17.3999 1.47973 16.2417 1 15.0341 1C13.8264 1 12.6683 1.47973 11.8143 2.33366C10.9604 3.18759 10.4807 4.34576 10.4807 5.5534V15C10.4807 17.5146 12.5195 19.5534 15.0341 19.5534ZM12.5195 5.5534C12.5195 4.19418 13.6748 3.03884 15.0341 3.03884C16.3933 3.03884 17.5486 4.19418 17.5486 5.5534V15C17.5486 16.3592 16.3933 17.5146 15.0341 17.5146C13.6748 17.5146 12.5195 16.3592 12.5195 15V5.5534Z" fill="black"/>
<path d="M23.2574 11.6699C22.7137 11.6699 22.238 12.1456 22.238 12.6893V15.068C22.238 19.0777 18.9758 22.3398 14.9661 22.3398C10.9564 22.3398 7.76222 19.0097 7.76222 15V12.6214C7.76222 12.0777 7.2865 11.6019 6.74281 11.6019C6.19912 11.6019 5.72339 12.0777 5.72339 12.6214V15C5.72339 19.7573 9.32533 23.699 14.0147 24.2427V26.9612H10.2768C9.7331 26.9612 9.25737 27.4369 9.25737 27.9806C9.25737 28.5243 9.7331 29 10.2768 29H19.7234C20.2671 29 20.7428 28.5243 20.7428 27.9806C20.7428 27.4369 20.2671 26.9612 19.7234 26.9612H15.9855V24.2427C20.6069 23.767 24.2768 19.7573 24.2768 15V12.6214C24.2768 12.0777 23.869 11.6699 23.2574 11.6699Z" fill="black"/>
</svg>
