<svg width="30" height="30" viewBox="0 0 30 30" xmlns="http://www.w3.org/2000/svg">
<path d="M6.42578 10.3806C7.32473 8.43885 9.26963 7.19604 11.4094 7.19604H13.9324C14.3546 7.19604 14.6344 7.63388 14.457 8.01699L9.08538 19.6197C8.18643 21.5614 6.24153 22.8042 4.1018 22.8042H1.57876C1.15659 22.8042 0.876811 22.3664 1.05418 21.9832L6.42578 10.3806Z" fill="black"/>
<path d="M16.1086 10.3806C17.0076 8.43885 18.9525 7.19604 21.0922 7.19604H23.6152C24.0374 7.19604 24.3172 7.63388 24.1398 8.01699L18.7682 19.6197C17.8693 21.5614 15.9244 22.8042 13.7846 22.8042H11.2616C10.8394 22.8042 10.5596 22.3664 10.737 21.9832L16.1086 10.3806Z" fill="black"/>
<path d="M21.774 19.1912C21.774 17.1958 23.3916 15.5782 25.387 15.5782C27.3824 15.5782 29 17.1958 29 19.1912C29 21.1866 27.3824 22.8042 25.387 22.8042C23.3916 22.8042 21.774 21.1866 21.774 19.1912Z" fill="black"/>
</svg>
