<svg width="31" height="31" viewBox="0 0 31 31"  xmlns="http://www.w3.org/2000/svg">
<path d="M5.59277 18.6248C3.93877 18.6248 2.59277 17.2788 2.59277 15.6248C2.59277 13.9708 3.93877 12.6248 5.59277 12.6248C7.24677 12.6248 8.59277 13.9708 8.59277 15.6248C8.59277 17.2788 7.24677 18.6248 5.59277 18.6248Z" fill="black"/>
<path d="M15.5928 18.6248C13.9388 18.6248 12.5928 17.2788 12.5928 15.6248C12.5928 13.9708 13.9388 12.6248 15.5928 12.6248C17.2468 12.6248 18.5928 13.9708 18.5928 15.6248C18.5928 17.2788 17.2468 18.6248 15.5928 18.6248Z" fill="black"/>
<path d="M25.5928 18.6248C23.9388 18.6248 22.5928 17.2788 22.5928 15.6248C22.5928 13.9708 23.9388 12.6248 25.5928 12.6248C27.2468 12.6248 28.5928 13.9708 28.5928 15.6248C28.5928 17.2788 27.2468 18.6248 25.5928 18.6248Z" fill="black"/>
</svg>
