<svg width="30" height="31" viewBox="0 0 30 31"  xmlns="http://www.w3.org/2000/svg">
<path d="M5 12.0691C5 6.5491 9.47688 2.07535 15 2.07535C20.5213 2.07535 25 6.55285 25 12.0691V19.5816C25 25.1016 20.5231 29.5754 15 29.5754C9.47875 29.5754 5 25.0979 5 19.5816V12.0691ZM7.5 12.0691V19.5816C7.5 23.7166 10.8594 27.0754 15 27.0754C19.1431 27.0754 22.5 23.7204 22.5 19.5816V12.0691C22.5 7.9341 19.1406 4.57535 15 4.57535C10.8569 4.57535 7.5 7.93035 7.5 12.0691ZM13.75 9.57535C13.75 9.24383 13.8817 8.92589 14.1161 8.69147C14.3505 8.45705 14.6685 8.32535 15 8.32535C15.3315 8.32535 15.6495 8.45705 15.8839 8.69147C16.1183 8.92589 16.25 9.24383 16.25 9.57535V13.9504C16.25 14.2819 16.1183 14.5998 15.8839 14.8342C15.6495 15.0687 15.3315 15.2004 15 15.2004C14.6685 15.2004 14.3505 15.0687 14.1161 14.8342C13.8817 14.5998 13.75 14.2819 13.75 13.9504V9.57535Z" fill="black"/>
</svg>
