<svg width="30" height="30" viewBox="0 0 30 30" xmlns="http://www.w3.org/2000/svg">
<path d="M14.7397 28.9961C12.7406 28.9615 10.7723 28.498 8.96783 27.6369C7.16338 26.7759 5.56491 25.5373 4.28053 24.005L4.26303 23.984C2.9579 22.43 2.00768 20.6099 1.4787 18.6507L1.45595 18.5527C1.1496 17.3911 0.996336 16.1945 1.00007 14.9931C1.00007 13.937 1.11644 12.908 1.33608 11.9183L1.31857 12.0119C1.69028 10.3007 2.3817 8.67504 3.3565 7.22031L3.325 7.27019C4.52378 5.46779 6.1195 3.96396 7.98975 2.87407L8.05713 2.8382C9.52048 1.99376 11.1276 1.42769 12.7971 1.16865L12.8759 1.15815C14.3312 0.939662 15.8115 0.945859 17.265 1.17653L17.1836 1.16603C19.1652 1.47684 21.0561 2.21232 22.7269 3.32208C23.7573 4.00476 24.6929 4.82064 25.5095 5.74852C27.018 7.45312 28.085 9.50202 28.6167 11.7153L28.6359 11.8107C29.1049 13.8154 29.1216 15.9592 28.6814 17.984C27.9805 21.1157 26.311 23.7801 24.0079 25.7165L23.9869 25.7341C22.433 27.0397 20.6129 27.9905 18.6537 28.5201L18.5557 28.5429C17.6885 28.7704 16.8065 28.9113 15.8842 28.9708C15.6112 28.9865 15.2822 28.9979 14.9506 29.0014H14.9401L14.7397 28.9961ZM6.66147 21.1979C6.76359 21.1721 6.85657 21.1185 6.9301 21.0431C7.00455 20.9688 7.0598 20.8775 7.0911 20.777L7.09198 20.7727C7.10685 20.7228 7.1086 20.5653 7.11298 18.0155C7.11735 15.5418 7.1191 15.3003 7.13398 15.1708C7.15948 14.8853 7.21671 14.6036 7.30461 14.3307C7.42274 13.9772 7.56624 13.7287 7.778 13.5082C7.94162 13.3402 8.08163 13.2378 8.28463 13.1407C8.45526 13.0593 8.65389 12.999 8.86215 12.9692L8.87265 12.9683C9.00565 12.9482 9.31804 12.9403 9.44754 12.9543C9.75392 12.9891 10.0489 13.0908 10.3117 13.2521C10.5745 13.4135 10.7986 13.6305 10.9683 13.888L10.9736 13.8959C11.167 14.1872 11.2895 14.5119 11.3551 14.9065L11.3752 15.0299L11.3796 17.8746C11.384 20.5863 11.3857 20.721 11.4015 20.7735C11.4313 20.8729 11.4847 20.9636 11.5572 21.0378C11.6211 21.1047 11.7 21.1553 11.7874 21.1857L11.7917 21.1866C11.8541 21.2094 11.9208 21.2177 11.9869 21.2111C12.0668 21.2169 12.1471 21.2048 12.2217 21.1756C12.2964 21.1464 12.3635 21.1008 12.4182 21.0422C12.5134 20.9492 12.5745 20.8268 12.5915 20.6948V20.6922C12.5985 20.6432 12.6011 19.7891 12.6011 17.8842C12.6011 16.0852 12.6046 15.113 12.6107 15.0518C12.6659 14.4918 12.8698 14.0149 13.2206 13.6229C13.4341 13.3848 13.7623 13.1678 14.072 13.0602C14.317 12.9736 14.5314 12.9421 14.8027 12.9491C15.126 12.9527 15.4446 13.0267 15.7363 13.1661C16.068 13.3245 16.3357 13.5642 16.516 13.8626C16.7234 14.2056 16.8424 14.6353 16.8651 15.1261C16.8677 15.1883 16.88 15.6993 16.8922 16.2611C16.9176 17.4301 16.9202 17.501 16.9386 17.7057C17.0226 18.6236 17.2965 19.3691 17.7681 19.9633C17.8696 20.0919 18.1313 20.3518 18.2546 20.4498C18.7622 20.8514 19.3563 21.0973 20.0423 21.1892C20.2488 21.2172 20.6338 21.2242 20.836 21.2032C21.7661 21.1078 22.621 20.6633 23.1872 19.9825C23.622 19.4575 23.8942 18.8275 24.0088 18.0688C24.0622 17.7162 24.0587 17.9017 24.0622 15.1454C24.0657 12.3252 24.07 12.5518 23.9992 12.4083C23.9606 12.3345 23.9063 12.2701 23.84 12.2196C23.7738 12.1691 23.6973 12.1337 23.6159 12.1161L23.6124 12.1152C23.4461 12.0775 23.2717 12.1031 23.1233 12.1869L23.1268 12.1852C23.0007 12.2678 22.9094 12.394 22.8704 12.5396C22.8599 12.5755 22.8564 13.097 22.852 15.1296C22.8459 17.9472 22.852 17.7311 22.7881 18.0583C22.5781 19.1285 21.8431 19.8338 20.7695 19.9948C20.5658 20.0137 20.3607 20.0101 20.1578 19.9843L20.1718 19.986C19.6302 19.9046 19.1918 19.6876 18.8532 19.3359C18.4655 18.9334 18.2345 18.3839 18.1523 17.6655C18.1313 17.4896 18.1216 17.2139 18.1024 16.2514C18.0814 15.2565 18.0718 15.0264 18.0473 14.805C17.8968 13.4951 17.2536 12.4915 16.2412 11.9848C15.8371 11.7793 15.3938 11.6623 14.9409 11.6418H14.9339C14.2925 11.6007 13.6083 11.7818 12.9844 12.1563C12.623 12.3697 12.3034 12.6469 12.0411 12.9745L12.0359 12.9815L11.9912 13.0383L11.9589 12.9937C11.8747 12.8865 11.7835 12.7851 11.6858 12.6901L11.685 12.6892C11.1521 12.1843 10.4013 11.8466 9.60854 11.7556C9.35092 11.7327 9.09177 11.7327 8.83415 11.7556L8.85077 11.7547C8.10963 11.8361 7.51986 12.0881 7.0316 12.5317C6.47159 13.0418 6.10408 13.8189 5.96757 14.7788C5.90195 15.2373 5.90107 15.2871 5.90457 18.18L5.9072 20.728L5.93257 20.8024C5.9646 20.8969 6.01908 20.9821 6.09132 21.0508C6.16357 21.1196 6.25142 21.1698 6.34733 21.1971L6.35171 21.1979C6.45509 21.2215 6.56246 21.2215 6.66584 21.1979H6.66147ZM20.6496 10.8578C20.8001 10.831 20.9399 10.7619 21.0526 10.6586C21.1653 10.5552 21.2462 10.4218 21.2857 10.2741L21.2866 10.2689C21.3117 10.1518 21.3147 10.031 21.2954 9.91276L21.2962 9.91801C21.2688 9.7808 21.2059 9.65318 21.1138 9.54786C21.0217 9.44254 20.9035 9.3632 20.7712 9.31774L20.766 9.31599C20.647 9.27586 20.5202 9.26461 20.3961 9.28319C20.2719 9.30176 20.1539 9.34962 20.0519 9.4228C19.9499 9.49599 19.8668 9.59241 19.8095 9.70408C19.7521 9.81575 19.7221 9.93947 19.7221 10.065V10.0729C19.7221 10.1368 19.7282 10.2015 19.7361 10.2383C19.7801 10.4399 19.9004 10.6168 20.0718 10.7319C20.2431 10.847 20.4523 10.8915 20.6557 10.856L20.6513 10.8569L20.6496 10.8578ZM17.538 10.6968C17.6182 10.6754 17.6929 10.6371 17.7571 10.5845C17.8213 10.5318 17.8734 10.4659 17.9099 10.3914L17.9116 10.3879C17.965 10.2803 17.9816 10.2033 17.9895 9.98801C18.0044 9.31162 18.2765 8.70173 18.7105 8.24846L18.7097 8.24934C19.0609 7.87778 19.5281 7.63677 20.0344 7.56595L20.0467 7.5642C20.2156 7.53882 20.5533 7.53619 20.7248 7.55982C21.0827 7.6097 21.4012 7.72695 21.6839 7.90983C21.9682 8.09621 22.2369 8.37622 22.4233 8.68335C22.6586 9.07186 22.8039 9.57325 22.8048 9.99851C22.8048 10.1149 22.8188 10.2129 22.8468 10.3021C22.8829 10.4144 22.9516 10.5133 23.0442 10.5862C23.1368 10.6592 23.249 10.703 23.3666 10.7119C23.4841 10.7208 23.6017 10.6945 23.7042 10.6363C23.8068 10.5782 23.8896 10.4907 23.9423 10.3853L23.944 10.3818C24.0062 10.2523 24.014 10.2068 24.0132 9.97313C24.0158 9.7722 23.9991 9.57148 23.9633 9.37374C23.7104 7.85908 22.6044 6.69705 21.1326 6.40479C20.8914 6.3514 20.6443 6.32993 20.3976 6.34091H20.4028H20.3495C19.7046 6.34078 19.0719 6.51696 18.52 6.8504C17.968 7.18384 17.5177 7.66184 17.2177 8.23271L17.2081 8.25196C16.9403 8.76644 16.7942 9.33553 16.7811 9.91538V9.92063C16.7697 10.2295 16.824 10.408 16.9762 10.555C17.0503 10.6259 17.1415 10.6763 17.2409 10.7013C17.3403 10.7263 17.4445 10.725 17.5433 10.6977L17.5389 10.6985L17.538 10.6968Z" fill="black"/>
</svg>
