<svg width="30" height="30" viewBox="0 0 30 30" xmlns="http://www.w3.org/2000/svg">
<path d="M22 2.26193C22 2.02387 22.1505 1.81184 22.3752 1.73329L24.0552 1.14608C24.4193 1.01883 24.8 1.28906 24.8 1.67472V18.4358C24.8 18.6218 24.6221 18.7561 24.4433 18.7051L22.4065 18.1247C22.1659 18.0561 22 17.8363 22 17.5861V2.26193Z" fill="black"/>
<path d="M18.2777 4.38128C18.0032 4.42206 17.8 4.6577 17.8 4.93519V17.1296C17.8 17.4064 18.0023 17.6417 18.2759 17.6833L19.9559 17.9384C20.2948 17.9899 20.6 17.7275 20.6 17.3847V4.68556C20.6 4.34351 20.296 4.08137 19.9577 4.13164L18.2777 4.38128Z" fill="black"/>
<path d="M13.6 7.04576C13.6 6.73648 13.8507 6.48576 14.16 6.48576H15.84C16.1493 6.48576 16.4 6.73648 16.4 7.04576V17.1258C16.4 17.435 16.1493 17.6858 15.84 17.6858H14.16C13.8507 17.6858 13.6 17.435 13.6 17.1258V7.04576Z" fill="black"/>
<path d="M5.9 28.5242C5.9 27.9276 6.3321 27.4148 6.92083 27.3182C12.2711 26.4398 17.7289 26.4398 23.0792 27.3182C23.6679 27.4148 24.1 27.9276 24.1 28.5242C24.1 28.7231 23.9388 28.8857 23.7399 28.8857H6.26014C6.06124 28.8857 5.9 28.7231 5.9 28.5242Z" fill="black"/>
<path d="M13.6288 19.3952C13.6133 19.231 13.7426 19.089 13.9076 19.089H16.0925C16.2575 19.089 16.3867 19.2309 16.3713 19.3951L16.0714 22.5939C16.0195 23.1465 15.5556 23.569 15.0005 23.569C14.4455 23.569 13.9816 23.1467 13.9297 22.5942L13.6288 19.3952Z" fill="black"/>
<path d="M18.1437 19.1333C17.9668 19.1105 17.814 19.2566 17.8289 19.4343L18.1395 23.1501C18.1858 23.7035 18.6484 24.129 19.2036 24.129C19.7564 24.129 20.2178 23.7072 20.2672 23.1566L20.5759 19.7183C20.5894 19.5685 20.482 19.4348 20.3328 19.4156L18.1437 19.1333Z" fill="black"/>
<path d="M26.2 10.9441C26.2 10.7059 26.3507 10.4938 26.5756 10.4153L28.2556 9.82941C28.6196 9.70246 29 9.97268 29 10.3582V18.7471C29 19.0798 28.7116 19.3391 28.3808 19.304L26.7008 19.1254C26.416 19.0951 26.2 18.8549 26.2 18.5685V10.9441Z" fill="black"/>
<path d="M26.5429 20.5887C26.3662 20.5697 26.2167 20.7182 26.2344 20.8951L26.5232 23.7739C26.5789 24.3291 27.0462 24.7519 27.6042 24.7519C28.1592 24.7519 28.625 24.3336 28.6844 23.7818L28.97 21.1312C28.9866 20.9774 28.8753 20.8393 28.7215 20.8228L26.5429 20.5887Z" fill="black"/>
<path d="M3.8 10.9427C3.8 10.7043 3.64918 10.4921 3.42413 10.4138L1.74413 9.82887C1.38019 9.70216 1 9.97237 1 10.3577V18.7471C1 19.0798 1.28836 19.3391 1.6192 19.304L3.29919 19.1254C3.58396 19.0951 3.8 18.8549 3.8 18.5685V10.9427Z" fill="black"/>
<path d="M3.45706 20.5887C3.63384 20.5697 3.78332 20.7182 3.76557 20.8951L3.47677 23.7739C3.42107 24.3291 2.95379 24.7519 2.39575 24.7519C1.84078 24.7519 1.37501 24.3336 1.31556 23.7818L1.03 21.1312C1.01343 20.9774 1.1247 20.8393 1.27848 20.8228L3.45706 20.5887Z" fill="black"/>
<path d="M12.2 4.93519C12.2 4.6577 11.9968 4.42206 11.7223 4.38128L10.0423 4.13164C9.70397 4.08137 9.4 4.34351 9.4 4.68556V17.3847C9.4 17.7275 9.70518 17.9899 10.0441 17.9384L11.7241 17.6833C11.9978 17.6417 12.2 17.4064 12.2 17.1296V4.93519Z" fill="black"/>
<path d="M11.8563 19.1333C12.0332 19.1105 12.186 19.2566 12.1711 19.4343L11.8605 23.1501C11.8142 23.7035 11.3516 24.129 10.7964 24.129C10.2436 24.129 9.78221 23.7072 9.73278 23.1566L9.42409 19.7183C9.41064 19.5685 9.51797 19.4348 9.66716 19.4156L11.8563 19.1333Z" fill="black"/>
<path d="M22.3901 19.6264C22.202 19.5704 22.0161 19.7204 22.0311 19.9162L22.346 24.0249C22.3885 24.5795 22.8509 25.0079 23.4071 25.0079C23.9579 25.0079 24.4177 24.5876 24.4671 24.039L24.7794 20.5715C24.7914 20.4388 24.7081 20.316 24.5804 20.278L22.3901 19.6264Z" fill="black"/>
<path d="M8 2.26193C8 2.02387 7.8495 1.81184 7.62478 1.73329L5.94478 1.14608C5.58072 1.01883 5.2 1.28906 5.2 1.67472V18.4365C5.2 18.6224 5.37796 18.7567 5.5568 18.7057L7.5936 18.1248C7.83413 18.0562 8 17.8364 8 17.5863V2.26193Z" fill="black"/>
<path d="M7.60945 19.6226C7.79769 19.5662 7.98388 19.7163 7.96887 19.9122L7.65395 24.0248C7.61148 24.5795 7.14905 25.0078 6.59281 25.0078C6.04203 25.0078 5.58225 24.5876 5.53284 24.039L5.22053 20.5712C5.20859 20.4386 5.29163 20.3159 5.41915 20.2778L7.60945 19.6226Z" fill="black"/>
</svg>
