<svg width="30" height="30" viewBox="0 0 30 30" xmlns="http://www.w3.org/2000/svg">
<path fill-rule="evenodd" clip-rule="evenodd" d="M11.8582 6.24958C11.4499 6.24958 11.0415 5.95792 10.9832 5.49125C10.9249 5.08292 11.2749 4.61625 11.7415 4.49958L27.4915 1.87458C27.9582 1.81625 28.4249 2.10792 28.4832 2.57458C28.5415 3.04125 28.2499 3.50792 27.7832 3.56625L12.0332 6.24958H11.8582Z" fill="black"/>
<path fill-rule="evenodd" clip-rule="evenodd" d="M11.8582 24.3333C11.3915 24.3333 10.9832 23.925 10.9832 23.4583V5.375C10.9832 4.90833 11.3915 4.5 11.8582 4.5C12.3249 4.5 12.7332 4.90833 12.7332 5.375V23.4C12.7332 23.925 12.3832 24.3333 11.8582 24.3333ZM27.6665 20.25C27.1999 20.25 26.7915 19.8417 26.7915 19.375V2.75C26.7915 2.28333 27.1999 1.875 27.6665 1.875C28.1332 1.875 28.5415 2.28333 28.5415 2.75V19.375C28.5415 19.8417 28.1332 20.25 27.6665 20.25Z" fill="black"/>
<path fill-rule="evenodd" clip-rule="evenodd" d="M7.69647 26.2705C6.64647 26.2705 5.6548 26.0869 4.7798 25.6831C2.5048 24.6917 1.92147 22.6724 3.49647 21.2405C5.07147 19.8085 8.2798 19.4414 10.5548 20.4327C12.8298 21.424 13.4131 23.4434 11.8381 24.8753C11.0798 25.5729 9.91314 26.0502 8.57147 26.1971C8.2798 26.2705 7.98814 26.2705 7.69647 26.2705ZM7.69647 20.9834C6.64647 20.9834 5.59647 21.2772 4.9548 21.8646C3.9048 22.8192 4.2548 24.1043 5.77147 24.7652C6.47147 25.0956 7.4048 25.2058 8.2798 25.0956C9.1548 24.9855 9.91314 24.6917 10.4381 24.2511C11.4881 23.2965 11.1381 22.0115 9.62147 21.3506C9.03814 21.1303 8.39647 20.9834 7.69647 20.9834ZM23.5048 23.627C22.4548 23.627 21.4631 23.4434 20.5881 23.0395C19.4798 22.5622 18.7215 21.8279 18.4881 20.9834C18.2548 20.139 18.5465 19.2945 19.3048 18.5969C20.8798 17.165 24.0881 16.7979 26.3631 17.7892C27.4715 18.2665 28.2298 19.0008 28.4631 19.8453C28.6965 20.6897 28.4048 21.5342 27.6465 22.2318C26.8881 22.9294 25.7215 23.4067 24.3798 23.5535C24.0881 23.627 23.7965 23.627 23.5048 23.627ZM23.5048 18.3399C22.4548 18.3399 21.4048 18.6336 20.7631 19.2211C20.2381 19.6617 20.0631 20.2491 20.2381 20.7999C20.4131 21.3506 20.8798 21.8279 21.5798 22.1583C22.2798 22.4888 23.2131 22.5989 24.0881 22.4888C24.9631 22.3786 25.7215 22.0849 26.2465 21.6443C26.7715 21.2037 26.9465 20.6163 26.7715 20.0656C26.5965 19.5148 26.1298 19.0375 25.4298 18.7071C24.8465 18.4868 24.1465 18.3399 23.5048 18.3399Z" fill="black"/>
<path fill-rule="evenodd" clip-rule="evenodd" d="M12.3249 10.2745C11.9165 10.2745 11.5082 9.98288 11.4499 9.51622C11.3915 9.04955 11.6832 8.58288 12.2082 8.52455L27.2582 6.24955C27.7249 6.19121 28.1915 6.48288 28.2499 7.00788C28.3082 7.47455 28.0165 7.94121 27.4915 7.99955L12.4415 10.2745H12.3249Z" fill="black"/>
</svg>
