<svg width="30" height="30" viewBox="0 0 30 30" xmlns="http://www.w3.org/2000/svg">
<path d="M22.75 6H23.7606C24.5832 6 25.25 6.66681 25.25 7.48936V23.2606C25.25 24.0832 24.5832 24.75 23.7606 24.75H22.75C21.9274 24.75 21.2606 24.0832 21.2606 23.2606V7.48936C21.2606 6.66681 21.9274 6 22.75 6ZM18.2637 16.271L7.03218 24.3402C6.1733 24.9572 4.97681 24.7612 4.35973 23.9023C4.12582 23.5767 4 23.1859 4 22.785V7.9166C4 6.85904 4.85731 6.0017 5.91489 6.0017C6.29307 6.0017 6.66277 6.11368 6.97739 6.32351L18.2211 13.8224C18.9054 14.2788 19.0901 15.2035 18.6338 15.8878C18.5344 16.0368 18.4091 16.1666 18.2637 16.271Z" fill="black"/>
</svg>
