<svg width="30" height="30" viewBox="0 0 30 30" xmlns="http://www.w3.org/2000/svg">
<path fill-rule="evenodd" clip-rule="evenodd" d="M1.24846 6.25314C1.94073 3.59812 4.13668 1.57848 6.86601 1.0906C7.22349 1.02819 8.03492 1.01117 10.7359 1.0055C14.061 0.999825 14.1575 1.0055 14.2142 1.10761C14.2539 1.18704 14.271 5.5213 14.271 14.7231C14.271 27.1359 14.2653 28.2308 14.1802 28.3159C14.0951 28.401 13.766 28.4067 10.5883 28.384C7.51856 28.367 7.04192 28.3499 6.66741 28.2648C3.79622 27.5954 1.77617 25.5701 1.14633 22.7279C1.03284 22.2003 1.02717 22.0414 1.01014 15.211C0.981772 7.77353 0.998795 7.21189 1.24846 6.25314ZM12.0012 26.1995L12.0012 14.7058V3.21202L9.80529 3.2177C7.3767 3.22337 7.03056 3.25741 6.28156 3.55808C4.78922 4.15376 3.68273 5.4756 3.34227 7.06975C3.22311 7.63139 3.22311 21.7461 3.34795 22.3191C3.72813 24.1515 5.08428 25.5584 6.9114 26.0293C7.33698 26.1371 7.56395 26.1485 9.69181 26.1711L12.0012 26.1995Z" fill="black"/>
<path d="M7.24164 6.13583C6.83268 6.21357 6.2095 6.52453 5.87844 6.81606C5.19684 7.40559 4.85928 8.2413 4.91121 9.22601C4.93718 9.7378 4.96964 9.87385 5.17736 10.2885C5.48246 10.9169 5.94335 11.3768 6.57302 11.6878C7.00795 11.9016 7.1183 11.9275 7.68306 11.9469C8.19588 11.9664 8.37764 11.9469 8.72169 11.8303C10.1303 11.3574 10.9807 9.99046 10.7405 8.59113C10.4614 6.92619 8.87748 5.81191 7.24164 6.13583Z" fill="black"/>
<path fill-rule="evenodd" clip-rule="evenodd" d="M16.9946 14.7058C16.9946 7.20593 17.0117 1.05627 17.0343 1.03925C17.0514 1.01656 18.1862 0.999537 19.5481 0.999537C21.5227 0.999537 22.1355 1.01656 22.5327 1.08463C25.4947 1.59521 27.7474 3.82475 28.3092 6.78045C28.3886 7.19459 28.4 8.16469 28.4 14.6718C28.4 21.6232 28.4082 22.4409 28.189 23.1922C28.1511 23.322 28.1065 23.4498 28.0538 23.6069C27.9574 23.8849 27.7701 24.3331 27.6283 24.5997C26.5218 26.6818 24.4904 28.083 22.1866 28.344C21.6419 28.4007 17.2386 28.4234 17.0854 28.3667C17.0003 28.3326 16.9946 27.0789 16.9946 14.7058ZM25.001 15.165C24.706 14.3027 23.9797 13.6276 23.0945 13.395C21.6759 13.0263 20.2006 13.8432 19.775 15.2331C19.6332 15.6756 19.6275 16.4018 19.7523 16.8329C20.1665 18.2399 21.6759 19.0965 23.0945 18.7278C23.9683 18.4952 24.6492 17.8654 24.9954 16.9691C25.1826 16.4812 25.1883 15.6983 25.001 15.165Z" fill="black"/>
</svg>
