<svg width="31" height="30" viewBox="0 0 31 30" fill="none" xmlns="http://www.w3.org/2000/svg">
<path fill-rule="evenodd" clip-rule="evenodd" d="M6.28668 7.59864C3.8014 7.59864 1.78668 9.61336 1.78668 12.0986C1.78668 14.5839 3.8014 16.5986 6.28668 16.5986C8.77196 16.5986 10.7867 14.5839 10.7867 12.0986C10.7867 9.61336 8.77196 7.59864 6.28668 7.59864ZM6.28668 8.91149C4.52646 8.91149 3.09953 10.3384 3.09953 12.0986C3.09953 13.8589 4.52646 15.2858 6.28668 15.2858C8.0469 15.2858 9.47383 13.8589 9.47383 12.0986C9.47383 10.3384 8.0469 8.91149 6.28668 8.91149Z" fill="black"/>
<path fill-rule="evenodd" clip-rule="evenodd" d="M15.7867 7.59863C13.3014 7.59863 11.2867 9.61335 11.2867 12.0986C11.2867 14.5839 13.3014 16.5986 15.7867 16.5986C18.272 16.5986 20.2867 14.5839 20.2867 12.0986C20.2867 9.61335 18.272 7.59863 15.7867 7.59863ZM15.7867 8.91148C14.0265 8.91148 12.5995 10.3384 12.5995 12.0986C12.5995 13.8588 14.0265 15.2858 15.7867 15.2858C17.5469 15.2858 18.9738 13.8588 18.9738 12.0986C18.9738 10.3384 17.5469 8.91148 15.7867 8.91148Z" fill="black"/>
<path fill-rule="evenodd" clip-rule="evenodd" d="M25.2867 7.59863C22.8014 7.59863 20.7867 9.61335 20.7867 12.0986C20.7867 14.5839 22.8014 16.5986 25.2867 16.5986C27.772 16.5986 29.7867 14.5839 29.7867 12.0986C29.7867 9.61335 27.772 7.59863 25.2867 7.59863ZM25.2867 8.91148C23.5265 8.91148 22.0995 10.3384 22.0995 12.0986C22.0995 13.8588 23.5265 15.2858 25.2867 15.2858C27.0469 15.2858 28.4738 13.8588 28.4738 12.0986C28.4738 10.3384 27.0469 8.91148 25.2867 8.91148Z" fill="black"/>
<path fill-rule="evenodd" clip-rule="evenodd" d="M20.497 13.4016C18.0117 13.4016 15.997 15.4163 15.997 17.9016C15.997 20.3869 18.0117 22.4016 20.497 22.4016C22.9823 22.4016 24.997 20.3869 24.997 17.9016C24.997 15.4163 22.9823 13.4016 20.497 13.4016ZM20.497 14.7144C18.7368 14.7144 17.3098 16.1414 17.3098 17.9016C17.3098 19.6618 18.7368 21.0887 20.497 21.0887C22.2572 21.0887 23.6841 19.6618 23.6841 17.9016C23.6841 16.1414 22.2572 14.7144 20.497 14.7144Z" fill="black"/>
<path fill-rule="evenodd" clip-rule="evenodd" d="M11.0764 13.4013C8.5911 13.4013 6.57638 15.416 6.57638 17.9013C6.57638 20.3866 8.5911 22.4013 11.0764 22.4013C13.5617 22.4013 15.5764 20.3866 15.5764 17.9013C15.5764 15.416 13.5617 13.4013 11.0764 13.4013ZM11.0764 14.7141C9.31616 14.7141 7.88923 16.1411 7.88923 17.9013C7.88923 19.6615 9.31616 21.0885 11.0764 21.0885C12.8366 21.0885 14.2635 19.6615 14.2635 17.9013C14.2635 16.1411 12.8366 14.7141 11.0764 14.7141Z" fill="black"/>
</svg>
