<svg width="31" height="31" viewBox="0 0 31 31" xmlns="http://www.w3.org/2000/svg">
<g clip-path="url(#clip0_220_82)">
<path d="M28.4183 12.9771C28.7464 11.9919 28.8601 10.9481 28.7521 9.91543C28.644 8.88276 28.3166 7.88508 27.7918 6.98918C27.0138 5.63409 25.8253 4.56122 24.398 3.92538C22.9707 3.28953 21.3782 3.12359 19.8505 3.45149C19.1613 2.67489 18.3143 2.05445 17.366 1.63169C16.4177 1.20893 15.39 0.993612 14.3518 1.00014C12.7898 0.996374 11.2669 1.48875 10.0028 2.40627C8.73862 3.32379 7.7985 4.61907 7.31796 6.10534C6.30039 6.31363 5.33905 6.73691 4.49831 7.34682C3.65756 7.95673 2.95681 8.73921 2.44296 9.64188C1.65872 10.9932 1.32396 12.5587 1.48696 14.1126C1.64996 15.6665 2.3023 17.1285 3.34988 18.2876C3.02187 19.2728 2.90808 20.3166 3.01613 21.3493C3.12419 22.382 3.45159 23.3796 3.97642 24.2755C4.75452 25.6306 5.94296 26.7034 7.37027 27.3392C8.79759 27.9751 10.39 28.141 11.9178 27.8132C12.6069 28.5898 13.4539 29.2103 14.4022 29.633C15.3505 30.0558 16.3782 30.2711 17.4164 30.2646C18.9792 30.2686 20.5028 29.7761 21.7675 28.858C23.0322 27.9398 23.9724 26.6437 24.4526 25.1565C25.4701 24.9482 26.4315 24.5249 27.2722 23.915C28.113 23.3051 28.8137 22.5226 29.3276 21.62C30.1108 20.2687 30.4448 18.7036 30.2814 17.1503C30.118 15.5971 29.4656 14.1358 28.4183 12.9771ZM17.4187 28.3515C16.1359 28.3533 14.8933 27.904 13.9082 27.0823C13.9526 27.058 14.0305 27.0153 14.0812 26.9842L19.9082 23.6184C20.0544 23.5352 20.1759 23.4145 20.26 23.2688C20.3442 23.1231 20.388 22.9576 20.387 22.7894V14.5746L22.8499 15.9967C22.8628 16.0031 22.8739 16.0127 22.8823 16.0244C22.8906 16.0362 22.896 16.0499 22.8978 16.0642V22.8673C22.8959 24.3203 22.3183 25.7134 21.2913 26.7413C20.2643 27.7693 18.8718 28.3483 17.4187 28.3515ZM5.63565 23.319C4.99307 22.2087 4.76148 20.9078 4.98142 19.644C5.02469 19.67 5.10027 19.7161 5.1545 19.7473L10.9814 23.113C11.1266 23.1979 11.2918 23.2426 11.46 23.2426C11.6282 23.2426 11.7933 23.1979 11.9385 23.113L19.0526 19.0053V21.8496C19.0534 21.8641 19.0506 21.8786 19.0445 21.8918C19.0383 21.905 19.029 21.9164 19.0174 21.9251L13.127 25.3261C11.8671 26.0517 10.3707 26.2479 8.96628 25.8717C7.56185 25.4954 6.36404 24.5774 5.63565 23.319ZM4.10277 10.5984C4.74256 9.48666 5.75309 8.63542 6.95738 8.1938C6.95738 8.24399 6.9545 8.33284 6.9545 8.39457V15.1261C6.95348 15.2942 6.99724 15.4596 7.0813 15.6052C7.16536 15.7508 7.28667 15.8714 7.43277 15.9546L14.5468 20.0617L12.0839 21.4838C12.0718 21.4918 12.0578 21.4967 12.0433 21.498C12.0288 21.4993 12.0142 21.497 12.0008 21.4913L6.10988 18.0875C4.85215 17.3591 3.93456 16.1617 3.55831 14.7578C3.18207 13.3539 3.37786 11.8582 4.10277 10.5984ZM24.3378 15.3073L17.2237 11.1996L19.6866 9.77803C19.6988 9.77003 19.7127 9.76516 19.7272 9.76385C19.7417 9.76254 19.7563 9.76483 19.7697 9.77053L25.6607 13.1715C26.5632 13.6928 27.2985 14.4605 27.7805 15.3846C28.2625 16.3087 28.4713 17.3509 28.3823 18.3894C28.2934 19.4278 27.9105 20.4195 27.2784 21.2482C26.6463 22.0769 25.7912 22.7083 24.8132 23.0686V16.1357C24.8145 15.9679 24.7712 15.8027 24.6877 15.6571C24.6041 15.5115 24.4834 15.3908 24.3378 15.3073ZM26.7891 11.6178C26.7458 11.5913 26.6703 11.5457 26.616 11.5146L20.7891 8.1488C20.6439 8.06405 20.4787 8.0194 20.3106 8.0194C20.1424 8.0194 19.9772 8.06405 19.832 8.1488L12.718 12.2565V9.41226C12.7171 9.39774 12.7199 9.38324 12.7261 9.37006C12.7322 9.35687 12.7415 9.34541 12.7532 9.33668L18.6435 5.93861C19.5459 5.41826 20.5779 5.16565 21.6186 5.21033C22.6593 5.25501 23.6658 5.59512 24.5203 6.19089C25.3747 6.78665 26.0419 7.61343 26.4437 8.57449C26.8455 9.53556 26.9653 10.5912 26.7891 11.6178ZM11.3789 16.6873L8.91546 15.2651C8.90254 15.2587 8.89141 15.2492 8.88305 15.2374C8.8747 15.2256 8.86938 15.212 8.86758 15.1976V8.39457C8.86825 7.3526 9.16572 6.33238 9.72515 5.45333C10.2846 4.57428 11.0828 3.87276 12.0265 3.4309C12.9701 2.98904 14.0201 2.82512 15.0535 2.95832C16.0869 3.09152 17.061 3.51633 17.8618 4.18303C17.8174 4.20726 17.7401 4.24995 17.6887 4.28111L11.8618 7.64688C11.7156 7.72999 11.5942 7.85055 11.51 7.99616C11.4259 8.14176 11.382 8.30716 11.383 8.47534L11.3789 16.6873ZM12.7168 13.8026L15.8853 11.9726L19.0537 13.8015V17.4603L15.8853 19.2892L12.7168 17.4603V13.8026Z" fill="black"/>
</g>
<defs>
<clipPath id="clip0_220_82">
<rect width="30" height="30" fill="white" transform="translate(0.885254 0.630859)"/>
</clipPath>
</defs>
</svg>
