<svg width="31" height="30" viewBox="0 0 31 30" xmlns="http://www.w3.org/2000/svg">
<path d="M14.8062 18.8187C14.8062 18.1083 15.3822 17.5323 16.0927 17.5323H26.8274C27.5379 17.5323 28.1139 18.1083 28.1139 18.8187C28.1139 19.5292 27.5379 20.1051 26.8274 20.1051H16.0927C15.3822 20.1051 14.8062 19.5292 14.8062 18.8187Z" fill="black"/>
<path d="M3.11386 11.1805C3.11386 10.47 3.68981 9.89404 4.40028 9.89404H8.90841C9.61888 9.89404 10.1948 10.47 10.1948 11.1805C10.1948 11.8909 9.61888 12.4669 8.90841 12.4669H4.40028C3.68981 12.4669 3.11386 11.8909 3.11386 11.1805Z" fill="black"/>
<path d="M14.8062 11.1805C14.8062 10.47 15.3822 9.89404 16.0927 9.89404H26.8274C27.5379 9.89404 28.1139 10.47 28.1139 11.1805C28.1139 11.8909 27.5379 12.4669 26.8274 12.4669H16.0927C15.3822 12.4669 14.8062 11.8909 14.8062 11.1805Z" fill="black"/>
<path d="M8.07274 10.3031C8.59234 9.81859 9.40636 9.84701 9.8909 10.3666L16.9551 17.9421C17.4397 18.4617 17.4113 19.2757 16.8917 19.7603C16.3721 20.2448 15.558 20.2164 15.0735 19.6968L8.00925 12.1213C7.52471 11.6017 7.55314 10.7877 8.07274 10.3031Z" fill="black"/>
</svg>
