<svg width="31" height="30" viewBox="0 0 31 30" fill="none" xmlns="http://www.w3.org/2000/svg">
<path d="M2.96857 1.47344C2.96857 1.10347 3.37439 0.876915 3.68931 1.07107L6.51258 2.81161C7.21064 3.24196 7.63572 4.0034 7.63572 4.82345V20.5148C7.63572 20.9105 7.25434 21.1943 6.87528 21.0808L3.38984 20.0364C3.13982 19.9615 2.96857 19.7314 2.96857 19.4704V1.47344Z" fill="black"/>
<path d="M10.0279 24.0958C9.98991 23.6711 10.3597 23.3229 10.7813 23.3864L13.9902 23.8696C14.3379 23.922 14.5769 24.2469 14.5234 24.5945L14.0935 27.3842C13.9503 28.3139 13.1503 29 12.2098 29C11.2229 29 10.3993 28.2467 10.3113 27.2638L10.0279 24.0958Z" fill="black"/>
<path d="M21.4798 9.74774C21.4798 9.37657 21.0716 9.15021 20.7568 9.34678L17.9829 11.0786C17.2913 11.5103 16.8711 12.2681 16.8711 13.0834V22.4681C16.8711 22.837 17.2055 23.1158 17.5684 23.0493L20.9954 22.4217C21.276 22.3704 21.4798 22.1258 21.4798 21.8406V9.74774Z" fill="black"/>
<path d="M9.9825 9.74774C9.9825 9.37657 10.3907 9.15021 10.7055 9.34678L13.4794 11.0786C14.171 11.5103 14.5912 12.2681 14.5912 13.0834V22.4681C14.5912 22.837 14.2568 23.1158 13.8939 23.0493L10.4669 22.4217C10.1863 22.3704 9.9825 22.1258 9.9825 21.8406V9.74774Z" fill="black"/>
<path d="M21.4062 24.0955C21.4437 23.6711 21.0736 23.3237 20.6523 23.3879L17.4979 23.869C17.1517 23.9218 16.9138 24.2452 16.9665 24.5914L17.3943 27.4034C17.534 28.3216 18.3235 29 19.2523 29C20.2261 29 21.0386 28.2561 21.1243 27.2861L21.4062 24.0955Z" fill="black"/>
<path d="M3.17482 22.1384C3.1353 21.691 3.55346 21.341 3.9869 21.4588L7.16164 22.3211C7.44787 22.3988 7.62917 22.6802 7.58168 22.9729L7.19314 25.3683C7.04485 26.2826 6.25536 26.9543 5.32915 26.9543C4.35064 26.9543 3.53423 26.2069 3.44813 25.2322L3.17482 22.1384Z" fill="black"/>
<path d="M28.4863 1.47361C28.4863 1.10366 28.0805 0.877099 27.7656 1.07123L24.9418 2.81187C24.2437 3.2422 23.8186 4.00368 23.8186 4.82378V20.515C23.8186 20.9107 24.1999 21.1946 24.579 21.081L28.065 20.0367C28.3151 19.9618 28.4863 19.7317 28.4863 19.4707V1.47361Z" fill="black"/>
<path d="M28.3157 22.1369C28.3561 21.6894 27.9393 21.3381 27.5051 21.4536L24.2409 22.322C23.9517 22.3989 23.7683 22.683 23.8172 22.9782L24.2078 25.337C24.3623 26.27 25.1691 26.9542 26.1148 26.9542C27.115 26.9542 27.95 26.1911 28.0399 25.1949L28.3157 22.1369Z" fill="black"/>
</svg>
