<svg width="31" height="30" viewBox="0 0 31 30" xmlns="http://www.w3.org/2000/svg">
<path fill-rule="evenodd" clip-rule="evenodd" d="M9.11386 10.2793C5.80015 10.2793 3.11386 12.9656 3.11386 16.2793V19.314H28.1139V16.2793C28.1139 12.9656 25.4276 10.2793 22.1139 10.2793H9.11386ZM9.26633 12.167C7.05719 12.167 5.26633 13.9579 5.26633 16.167V17.4258H25.9614V16.167C25.9614 13.9579 24.1705 12.167 21.9614 12.167H9.26633Z" fill="black"/>
<path d="M24.0253 18.9746H25.9638V19.7158H24.0253V18.9746Z" fill="black"/>
<path d="M5.26877 18.9796H7.20728V19.7208H5.26877V18.9796Z" fill="black"/>
<path d="M8.03423 15.5688H9.84138V17.5405H8.03423V15.5688Z" fill="black"/>
<path d="M21.3863 15.5688H23.1935V17.5405H21.3863V15.5688Z" fill="black"/>
<path d="M18.7159 15.5688H20.5231V17.5405H18.7159V15.5688Z" fill="black"/>
<path d="M16.0455 15.5688H17.8526V17.5405H16.0455V15.5688Z" fill="black"/>
<path d="M13.375 15.5688H15.1822V17.5405H13.375V15.5688Z" fill="black"/>
<path d="M10.7046 15.5688H12.5118V17.5405H10.7046V15.5688Z" fill="black"/>
</svg>
