<svg width="30" height="30" viewBox="0 0 30 30" xmlns="http://www.w3.org/2000/svg">
<g clip-path="url(#clip0_1038_972)">
<path d="M14.5599 0.897358C17.8451 1.01903 20.887 2.35744 23.0771 4.54755C25.2672 6.73767 26.6056 9.7795 26.6056 13.1863L26.7273 24.2197C26.7273 25.1931 25.9972 25.9231 25.0238 25.9231C24.0505 25.9231 23.3204 25.1931 23.3204 24.2197L23.3204 13.0647C23.3204 8.19774 19.5486 4.42587 14.6816 4.42587C9.8147 4.42587 6.04281 8.19776 6.04281 13.0647L6.04282 29.0439L2.51433 29.0439L2.51429 12.943C2.51429 6.37266 7.98959 0.897359 14.5599 0.897358Z" fill="black"/>
<path d="M19.4856 29.0439L16.2634 29.0439L16.2634 13.0647C16.2634 12.0913 15.5333 11.3612 14.5599 11.3612C14.0733 11.3612 13.7082 11.4829 13.3432 11.8479C12.9782 12.213 12.8565 12.578 12.8565 13.0647L12.8565 29.0439L10.9856 29.0439L9.44968 29.0439V13.0647C9.328 11.7263 9.93637 10.3879 10.9098 9.41447C11.8831 8.44109 13.2215 7.83272 14.5599 7.71105C17.3584 7.58938 19.6702 9.90117 19.6702 12.8213L19.4856 29.0439Z" fill="black"/>
</g>
<defs>
<clipPath id="clip0_1038_972">
<rect width="30" height="30" fill="white" transform="matrix(-1 0 0 1 30 0)"/>
</clipPath>
</defs>
</svg>
