<svg width="30" height="30" viewBox="0 0 30 30" xmlns="http://www.w3.org/2000/svg">
<path fill-rule="evenodd" clip-rule="evenodd" d="M3 4C1.89543 4 1 4.89543 1 6V24C1 25.1046 1.89543 26 3 26H27C28.1046 26 29 25.1046 29 24V6C29 4.89543 28.1046 4 27 4H3ZM3.99219 5.90662H26.0083C26.5606 5.90662 27.0083 6.35433 27.0083 6.90662V23.0933C27.0083 23.6456 26.5606 24.0933 26.0083 24.0933H3.99219C3.4399 24.0933 2.99219 23.6456 2.99219 23.0933V6.90662C2.99219 6.35433 3.4399 5.90662 3.99219 5.90662Z" fill="black"/>
<path fill-rule="evenodd" clip-rule="evenodd" d="M23.3957 16.7278C23.847 17.179 24.2027 17.7048 24.4499 18.2908C24.6932 18.865 24.8227 19.4732 24.8358 20.0984C24.8371 20.1572 24.79 20.2056 24.7311 20.2056H23.5481C23.4905 20.2056 23.4448 20.1612 23.4434 20.1036C23.4173 19.0939 22.8949 18.1037 22.3162 17.525C21.7375 16.9463 20.7425 16.7278 19.9179 16.7291C19.0933 16.7304 18.0031 16.8875 17.3656 17.525C16.7282 18.1624 16.3583 19.0886 16.3321 20.0984C16.3308 20.1546 16.285 20.2004 16.2275 20.2004L15.1047 20.2056C15.0458 20.2056 14.9987 20.1572 15 20.0984C15.0131 19.4732 15.1426 18.865 15.3859 18.2921C15.6344 17.7061 15.9888 17.1803 16.4401 16.7291C16.8913 16.2766 17.4171 15.9221 18.0031 15.6749C18.0057 15.6736 18.0083 15.6726 18.0109 15.6716C18.0135 15.6707 18.0162 15.6697 18.0188 15.6684C17.2039 15.0785 16.6742 14.1198 16.6742 13.0381C16.6742 11.2462 18.126 9.79437 19.9179 9.79437C21.7098 9.79437 23.1616 11.2462 23.1616 13.0381C23.1616 14.1198 22.6319 15.0785 21.817 15.6671C21.8197 15.6684 21.8223 15.6693 21.8249 15.6703C21.8275 15.6713 21.8301 15.6723 21.8327 15.6736C22.4187 15.9221 22.9445 16.2766 23.3957 16.7278ZM19.918 10.9227C18.7757 10.9227 17.8496 11.8488 17.8496 12.9911C17.8496 14.1335 18.7757 15.0596 19.918 15.0596C21.0604 15.0596 21.9865 14.1335 21.9865 12.9911C21.9865 11.8488 21.0604 10.9227 19.918 10.9227Z" fill="black"/>
<path d="M4.98828 14.4001C4.98828 13.9643 5.34158 13.611 5.7774 13.611H12.2333C12.6692 13.611 13.0225 13.9643 13.0225 14.4001C13.0225 14.8359 12.6692 15.1892 12.2333 15.1892H5.7774C5.34158 15.1892 4.98828 14.8359 4.98828 14.4001Z" fill="black"/>
<path d="M4.98828 16.9083C4.98828 16.4724 5.34158 16.1191 5.7774 16.1191H12.2333C12.6692 16.1191 13.0225 16.4724 13.0225 16.9083C13.0225 17.3441 12.6692 17.6974 12.2333 17.6974H5.7774C5.34158 17.6974 4.98828 17.3441 4.98828 16.9083Z" fill="black"/>
<path d="M4.98828 19.4165C4.98828 18.9807 5.34158 18.6274 5.7774 18.6274H12.2333C12.6692 18.6274 13.0225 18.9807 13.0225 19.4165C13.0225 19.8523 12.6692 20.2056 12.2333 20.2056H5.7774C5.34158 20.2056 4.98828 19.8523 4.98828 19.4165Z" fill="black"/>
<path d="M5.40625 9.79437C5.40625 8.8005 6.21194 7.99481 7.20581 7.99481C8.19968 7.99481 9.00537 8.8005 9.00537 9.79437C9.00537 10.7882 8.19968 11.5939 7.20581 11.5939C6.21194 11.5939 5.40625 10.7882 5.40625 9.79437Z" fill="black"/>
</svg>
