<svg width="30" height="30" viewBox="0 0 30 30" xmlns="http://www.w3.org/2000/svg">
<path fill-rule="evenodd" clip-rule="evenodd" d="M4 27C4 28.1046 4.89543 29 6 29H24C25.1046 29 26 28.1046 26 27V3C26 1.89543 25.1046 1 24 1H6C4.89543 1 4 1.89543 4 3V27ZM5.90662 26.0078V3.9917C5.90662 3.43941 6.35433 2.9917 6.90662 2.9917H23.0933C23.6456 2.9917 24.0933 3.43941 24.0933 3.9917V26.0078C24.0933 26.5601 23.6456 27.0078 23.0933 27.0078H6.90662C6.35433 27.0078 5.90662 26.5601 5.90662 26.0078Z" fill="black"/>
<path d="M10.9829 20.1289C10.9829 19.6931 11.3362 19.3398 11.772 19.3398H18.228C18.6638 19.3398 19.0171 19.6931 19.0171 20.1289C19.0171 20.5648 18.6638 20.9181 18.228 20.9181H11.772C11.3362 20.9181 10.9829 20.5648 10.9829 20.1289Z" fill="black"/>
<path d="M12.4824 22.6372C12.4824 22.2014 12.8357 21.8481 13.2715 21.8481H16.7289C17.1648 21.8481 17.5181 22.2014 17.5181 22.6372C17.5181 23.073 17.1648 23.4263 16.7289 23.4263H13.2715C12.8357 23.4263 12.4824 23.073 12.4824 22.6372Z" fill="black"/>
<path d="M14.8852 6.33333H15.094C15.3036 6.3569 15.514 6.3748 15.7227 6.40505C16.5967 6.53172 17.3617 6.89836 18.0332 7.46647C18.4702 7.83613 18.8244 8.27671 19.096 8.77724C19.3774 9.29585 19.5565 9.85226 19.621 10.4421C19.6356 10.5759 19.6514 10.7096 19.6667 10.8434V11.1566C19.6469 11.3213 19.6281 11.486 19.6071 11.6505C19.5499 12.0973 19.4354 12.5295 19.2315 12.9309C19.0876 13.2141 18.9256 13.4899 18.7501 13.7547C18.5322 14.0834 18.2521 14.3614 17.947 14.6092C17.5381 14.9414 17.0863 15.2032 16.5872 15.3791C16.1632 15.5286 15.7296 15.6285 15.2789 15.6472C15.2101 15.6501 15.1417 15.66 15.0731 15.6667H14.9269C14.8582 15.66 14.7889 15.6563 14.7207 15.6462C14.4196 15.6015 14.1134 15.5765 13.8189 15.5043C13.2373 15.3618 12.7062 15.1021 12.2247 14.7427C11.9089 14.507 11.6258 14.2379 11.3787 13.9313C11.1317 13.6249 10.9253 13.294 10.7615 12.9347C10.5627 12.4986 10.4351 12.0438 10.3757 11.5695C10.3551 11.4048 10.3471 11.2386 10.3333 11.0731V10.9269C10.3393 10.8862 10.3458 10.8456 10.351 10.8048C10.3865 10.5265 10.4057 10.245 10.4604 9.97058C10.5806 9.36716 10.8363 8.81764 11.1894 8.31646C11.4911 7.88822 11.8581 7.52227 12.2854 7.21513C12.698 6.91856 13.1454 6.69397 13.6293 6.54726C14.0148 6.43041 14.4097 6.35253 14.8158 6.34967C14.8389 6.34949 14.862 6.33901 14.8852 6.33333ZM13.4506 14.6907C13.8155 14.8553 14.1864 14.9387 14.5664 14.9832C14.9063 15.0231 15.2446 15.0106 15.5848 14.9611C15.9451 14.9087 16.2904 14.8102 16.6209 14.6645C17.0561 14.4725 17.4449 14.2072 17.7888 13.8767C17.8454 13.8223 17.86 13.7745 17.8198 13.7065C17.7845 13.6469 17.7582 13.5819 17.7226 13.5225C17.6811 13.4533 17.6885 13.3944 17.7218 13.3202C17.7826 13.185 17.8386 13.0445 17.8705 12.9004C17.9109 12.7176 17.8813 12.5449 17.7411 12.3982C17.6606 12.3139 17.5908 12.2144 17.537 12.1109C17.4807 12.0027 17.4494 11.8815 17.4042 11.758C17.3788 11.7789 17.3569 11.7999 17.3322 11.8168C17.192 11.9119 17.0576 12.0183 16.9089 12.0977C16.7111 12.2032 16.5174 12.2017 16.35 12.0188C16.305 11.9696 16.2393 11.9307 16.1756 11.909C16.0331 11.8603 15.9479 11.7557 15.8749 11.6353C15.8389 11.576 15.8056 11.5148 15.7738 11.4531C15.5649 11.0479 15.6483 10.7563 15.9937 10.4838C16.0652 10.4274 16.0887 10.3783 16.101 10.2929C16.1199 10.1611 16.1554 10.028 16.2087 9.90633C16.2353 9.84567 16.3131 9.77552 16.3746 9.7683C16.5352 9.7494 16.6566 9.65872 16.793 9.59309C16.9011 9.54113 17.0154 9.48974 17.1323 9.47103C17.3634 9.43404 17.5365 9.56631 17.6958 9.71107C17.7377 9.7492 17.7643 9.748 17.812 9.72484C17.9427 9.66145 18.0743 9.59774 18.2111 9.55014C18.3598 9.49843 18.5146 9.46471 18.6671 9.42305C18.6671 9.41328 18.6704 9.40172 18.6667 9.3931C18.5081 9.01908 18.2885 8.6831 18.0238 8.37641C18.0086 8.35872 17.9647 8.35644 17.9365 8.36119C17.8829 8.37023 17.8319 8.3935 17.7784 8.40381C17.6393 8.43067 17.6178 8.46306 17.6716 8.59332C17.7113 8.68944 17.7641 8.7804 17.8001 8.87771C17.8194 8.92976 17.8156 8.99037 17.8223 9.04713C17.7655 9.05183 17.6969 9.07909 17.6543 9.05677C17.5491 9.00163 17.449 8.93152 17.359 8.8534C17.1806 8.69843 16.9348 8.70923 16.7897 8.89494C16.7195 8.98484 16.6674 9.08894 16.5972 9.17886C16.5007 9.30251 16.3947 9.41881 16.2927 9.53827C16.2806 9.53391 16.2684 9.52956 16.2563 9.52521C16.2723 9.29852 16.1421 9.13859 15.9936 8.95981C16.067 8.94611 16.1153 8.93325 16.1644 8.92893C16.2266 8.92344 16.2906 8.93127 16.3517 8.92119C16.3965 8.91381 16.4379 8.88679 16.4809 8.86853C16.4622 8.82934 16.4517 8.78276 16.4237 8.75216C16.2633 8.57681 16.3217 8.52744 16.4798 8.40769C16.4935 8.3973 16.5113 8.39218 16.525 8.38183C16.6217 8.3091 16.739 8.24577 16.7523 8.11182C16.7709 7.9254 16.8869 7.85044 17.0485 7.81369L17.3144 7.75322L17.3204 7.72459L16.7901 7.42147C16.8621 7.6278 16.8549 7.71133 16.6877 7.83669C16.5711 7.92405 16.433 7.99614 16.2934 8.03659C15.9781 8.12793 15.9096 8.07097 15.9606 7.74829C15.9865 7.58411 16.0279 7.42222 16.0663 7.26022C16.0851 7.18074 16.0776 7.13656 15.9816 7.11438C15.5279 7.00948 15.0727 6.967 14.6066 7.01462C14.3786 7.03792 14.3755 7.02634 14.3254 7.30535C14.3184 7.34432 14.3077 7.38263 14.2973 7.42714C14.2387 7.40799 14.1922 7.39466 14.1471 7.37777C13.9926 7.31993 13.8588 7.35843 13.7715 7.49117C13.67 7.64545 13.5892 7.81336 13.5 7.97416C13.63 8.05445 13.6775 8.19788 13.6487 8.36739C13.6185 8.54497 13.4734 8.49159 13.3413 8.50702C13.4018 8.54268 13.443 8.566 13.4833 8.5909C13.5905 8.65718 13.5977 8.69092 13.5194 8.78652C13.4755 8.84007 13.4214 8.88566 13.3805 8.94118C13.3422 8.99325 13.3085 8.98299 13.2562 8.96389C13.1396 8.92127 13.0206 8.87894 12.8989 8.85748C12.7292 8.82759 12.6724 8.86946 12.6528 9.03608C12.6359 9.17861 12.5579 9.2596 12.4293 9.28789C12.322 9.3115 12.2099 9.31755 12.0995 9.32238C11.8707 9.33242 11.8352 9.36541 11.8261 9.59202C11.8229 9.67185 11.8189 9.75188 11.81 9.83123C11.8011 9.91119 11.7775 9.98577 11.6773 9.98839C11.5789 9.99097 11.5269 9.93643 11.5024 9.84367C11.4741 9.73669 11.4425 9.63021 11.4044 9.52639C11.3912 9.49036 11.3544 9.46297 11.3125 9.41251C11.2618 9.5593 11.2243 9.67752 11.1801 9.79314C11.1276 9.93024 11.1146 10.0458 11.1901 10.197C11.3048 10.427 11.3541 10.6888 11.4437 10.9326C11.4954 11.0732 11.5715 11.2049 11.6347 11.3367C11.6689 11.3262 11.6765 11.3256 11.6818 11.3218C11.696 11.3118 11.7095 11.301 11.7225 11.2894C11.8271 11.1966 11.9303 11.178 12.0632 11.2506C12.1597 11.3034 12.2796 11.3418 12.3876 11.3387C12.5911 11.3328 12.7151 11.4149 12.79 11.5959C12.8032 11.6278 12.8342 11.6728 12.8608 11.6757C13.0995 11.701 13.241 11.8653 13.377 12.0326C13.6122 12.3222 13.8898 12.5445 14.2511 12.6625C14.3756 12.7031 14.4945 12.7809 14.5964 12.8653C14.703 12.9534 14.6718 13.1107 14.5491 13.1758C14.4596 13.2233 14.3795 13.2804 14.3625 13.3846C14.3415 13.5143 14.3285 13.6459 14.322 13.7771C14.3128 13.9608 14.291 13.9774 14.1074 13.9932C14.0116 14.0015 13.8963 14.02 13.829 14.0788C13.646 14.2388 13.5453 14.4592 13.4506 14.6907ZM11.028 10.5692C10.921 10.9293 11.0513 11.9131 11.2439 12.406C11.5412 13.1672 12.0553 13.7738 12.3002 13.9295C12.2165 13.7594 12.139 13.602 12.0615 13.4446C12.0307 13.3822 11.9971 13.3335 11.9214 13.305C11.856 13.2805 11.7943 13.2189 11.7543 13.1583C11.6081 12.9367 11.5418 12.6854 11.5197 12.4236C11.4993 12.1816 11.4506 11.9327 11.4875 11.6984C11.515 11.5244 11.4583 11.437 11.3542 11.3396C11.339 11.3254 11.3244 11.3105 11.3096 11.2957C11.2656 11.2514 11.258 11.21 11.2906 11.1483C11.3196 11.0933 11.3435 11.0187 11.3306 10.9616C11.2917 10.7889 11.1779 10.6661 11.028 10.5692Z" fill="black"/>
</svg>
