<svg width="31" height="30" viewBox="0 0 31 30" xmlns="http://www.w3.org/2000/svg">
<path d="M14.2208 2.84258H17.8337C18.0733 2.84258 18.303 2.74742 18.4724 2.57804C18.6418 2.40865 18.737 2.17891 18.737 1.93936C18.737 1.69981 18.6418 1.47007 18.4724 1.30068C18.303 1.13129 18.0733 1.03613 17.8337 1.03613H14.2208C13.9813 1.03613 13.7515 1.13129 13.5822 1.30068C13.4128 1.47007 13.3176 1.69981 13.3176 1.93936C13.3176 2.17891 13.4128 2.40865 13.5822 2.57804C13.7515 2.74742 13.9813 2.84258 14.2208 2.84258ZM8.78341 5.48C9.02296 5.48 9.2527 5.38484 9.42209 5.21546C9.59148 5.04607 9.68664 4.81633 9.68664 4.57678V3.74581C9.68659 3.50936 9.77927 3.28231 9.94477 3.11344C10.1103 2.94456 10.3354 2.84731 10.5718 2.84258C10.8113 2.84258 11.0411 2.74742 11.2105 2.57804C11.3799 2.40865 11.475 2.17891 11.475 1.93936C11.4658 1.69963 11.3653 1.47251 11.194 1.30456C11.0227 1.13661 10.7936 1.04057 10.5537 1.03613C9.84284 1.05024 9.16555 1.34138 8.66616 1.84752C8.16677 2.35366 7.88475 3.03479 7.88018 3.74581V4.57678C7.88018 4.81633 7.97535 5.04607 8.14473 5.21546C8.31412 5.38484 8.54386 5.48 8.78341 5.48ZM21.5189 2.84258H25.1318C25.3713 2.84258 25.6011 2.74742 25.7705 2.57804C25.9399 2.40865 26.035 2.17891 26.035 1.93936C26.035 1.69981 25.9399 1.47007 25.7705 1.30068C25.6011 1.13129 25.3713 1.03613 25.1318 1.03613H21.5189C21.2793 1.03613 21.0496 1.13129 20.8802 1.30068C20.7108 1.47007 20.6157 1.69981 20.6157 1.93936C20.6157 2.17891 20.7108 2.40865 20.8802 2.57804C21.0496 2.74742 21.2793 2.84258 21.5189 2.84258ZM28.5279 16.6981C28.2884 16.6981 28.0586 16.7932 27.8892 16.9626C27.7199 17.132 27.6247 17.3617 27.6247 17.6013V21.2142C27.6293 21.4523 27.726 21.6794 27.8944 21.8478C28.0628 22.0162 28.2898 22.1128 28.5279 22.1174C28.7675 22.1174 28.9972 22.0223 29.1666 21.8529C29.336 21.6835 29.4312 21.4537 29.4312 21.2142V17.6013C29.4312 17.3617 29.336 17.132 29.1666 16.9626C28.9972 16.7932 28.7675 16.6981 28.5279 16.6981ZM26.7215 23.0026H23.1086C22.8705 23.0072 22.6434 23.1039 22.475 23.2723C22.3066 23.4406 22.21 23.6677 22.2053 23.9058C22.2053 24.1454 22.3005 24.3751 22.4699 24.5445C22.6393 24.7139 22.869 24.809 23.1086 24.809H26.7215C26.8393 24.8091 26.9558 24.7856 27.0644 24.74C27.173 24.6944 27.2714 24.6275 27.3539 24.5434C27.4363 24.4593 27.5011 24.3596 27.5445 24.2501C27.5879 24.1406 27.609 24.0236 27.6066 23.9058C27.598 23.6721 27.5025 23.45 27.3388 23.2829C27.1751 23.1159 26.955 23.0159 26.7215 23.0026ZM29.2144 2.66194C29.1192 2.45424 28.9489 2.29031 28.7378 2.20316C28.5266 2.11601 28.2902 2.11211 28.0763 2.19226C27.8586 2.29118 27.6879 2.47087 27.6002 2.69336C27.5126 2.91585 27.5149 3.16369 27.6066 3.38452C27.6337 3.50343 27.6337 3.6269 27.6066 3.74581V6.6542C27.6113 6.8923 27.7079 7.11936 27.8763 7.28776C28.0447 7.45615 28.2718 7.5528 28.5099 7.55742C28.7494 7.55742 28.9791 7.46226 29.1485 7.29287C29.3179 7.12349 29.4131 6.89375 29.4131 6.6542V3.74581C29.4203 3.37484 29.3527 3.00623 29.2144 2.66194ZM28.5279 9.4C28.2884 9.4 28.0586 9.49516 27.8892 9.66455C27.7199 9.83394 27.6247 10.0637 27.6247 10.3032V13.9161C27.6293 14.1542 27.726 14.3813 27.8944 14.5497C28.0628 14.7181 28.2898 14.8147 28.5279 14.8194C28.7675 14.8194 28.9972 14.7242 29.1666 14.5548C29.336 14.3854 29.4312 14.1557 29.4312 13.9161V10.3032C29.4312 10.0637 29.336 9.83394 29.1666 9.66455C28.9972 9.49516 28.7675 9.4 28.5279 9.4Z" fill="black"/>
<path d="M20.2724 28.9639H4.14083C3.42218 28.9639 2.73296 28.6784 2.2248 28.1702C1.71664 27.6621 1.43115 26.9728 1.43115 26.2542V7.90065C1.43115 7.182 1.71664 6.49278 2.2248 5.98462C2.73296 5.47645 3.42218 5.19097 4.14083 5.19097H20.2724C20.9911 5.19097 21.6803 5.47645 22.1885 5.98462C22.6966 6.49278 22.9821 7.182 22.9821 7.90065V26.2542C22.9821 26.9728 22.6966 27.6621 22.1885 28.1702C21.6803 28.6784 20.9911 28.9639 20.2724 28.9639ZM4.14083 6.99742C3.90128 6.99742 3.67154 7.09258 3.50215 7.26197C3.33276 7.43136 3.2376 7.6611 3.2376 7.90065V26.2542C3.2376 26.4937 3.33276 26.7235 3.50215 26.8929C3.67154 27.0623 3.90128 27.1574 4.14083 27.1574H20.2724C20.512 27.1574 20.7417 27.0623 20.9111 26.8929C21.0805 26.7235 21.1757 26.4937 21.1757 26.2542V7.90065C21.1757 7.6611 21.0805 7.43136 20.9111 7.26197C20.7417 7.09258 20.512 6.99742 20.2724 6.99742H4.14083Z" fill="black"/>
<path d="M17.0819 23.4604H7.08191C6.52991 23.4604 6.08191 23.0134 6.08191 22.4604C6.08191 21.9074 6.52991 21.4604 7.08191 21.4604H17.0819C17.6349 21.4604 18.0819 21.9074 18.0819 22.4604C18.0819 23.0134 17.6349 23.4604 17.0819 23.4604Z" fill="black"/>
<path d="M17.0819 18.6349H7.08191C6.52991 18.6349 6.08191 18.1879 6.08191 17.6349C6.08191 17.0819 6.52991 16.6349 7.08191 16.6349H17.0819C17.6349 16.6349 18.0819 17.0819 18.0819 17.6349C18.0819 18.1879 17.6349 18.6349 17.0819 18.6349Z" fill="black"/>
<path d="M15.2654 13.809H6.91677C6.45593 13.809 6.08191 13.362 6.08191 12.809C6.08191 12.256 6.45593 11.809 6.91677 11.809H15.2654C15.727 11.809 16.1002 12.256 16.1002 12.809C16.1002 13.362 15.727 13.809 15.2654 13.809Z" fill="black"/>
</svg>
