<svg width="30" height="30" viewBox="0 0 30 30" xmlns="http://www.w3.org/2000/svg">
<path d="M22.5 24.375H18.75C17.7131 24.375 16.875 23.5369 16.875 22.5V7.5C16.875 6.46313 17.7131 5.625 18.75 5.625H22.5C23.5369 5.625 24.375 6.46313 24.375 7.5V22.5C24.375 23.5369 23.5369 24.375 22.5 24.375ZM11.25 24.375H7.5C6.46313 24.375 5.625 23.5369 5.625 22.5V7.5C5.625 6.46313 6.46313 5.625 7.5 5.625H11.25C12.2869 5.625 13.125 6.46313 13.125 7.5V22.5C13.125 23.5369 12.2869 24.375 11.25 24.375Z" fill="black"/>
</svg>
