<svg width="30" height="31" viewBox="0 0 30 31" xmlns="http://www.w3.org/2000/svg">
<path d="M10.6923 29.8253H4.23077C2.44954 29.8253 1 28.3758 1 26.5945V20.133C1 18.3518 2.44954 16.9022 4.23077 16.9022H10.6923C12.4735 16.9022 13.9231 18.3518 13.9231 20.133V26.5945C13.9231 28.3758 12.4735 29.8253 10.6923 29.8253ZM4.23077 19.0561C3.63738 19.0561 3.15385 19.5385 3.15385 20.133V26.5945C3.15385 27.189 3.63738 27.6715 4.23077 27.6715H10.6923C11.2857 27.6715 11.7692 27.189 11.7692 26.5945V20.133C11.7692 19.5385 11.2857 19.0561 10.6923 19.0561H4.23077ZM8.53846 25.5176H6.38462C5.79015 25.5176 5.30769 25.0362 5.30769 24.4407V22.2869C5.30769 21.6913 5.79015 21.2099 6.38462 21.2099H8.53846C9.13292 21.2099 9.61539 21.6913 9.61539 22.2869V24.4407C9.61539 25.0362 9.13292 25.5176 8.53846 25.5176ZM10.6923 14.7484H4.23077C2.44954 14.7484 1 13.2989 1 11.5176V5.05609C1 3.27486 2.44954 1.82532 4.23077 1.82532H10.6923C12.4735 1.82532 13.9231 3.27486 13.9231 5.05609V11.5176C13.9231 13.2989 12.4735 14.7484 10.6923 14.7484ZM4.23077 3.97916C3.63738 3.97916 3.15385 4.4627 3.15385 5.05609V11.5176C3.15385 12.111 3.63738 12.5945 4.23077 12.5945H10.6923C11.2857 12.5945 11.7692 12.111 11.7692 11.5176V5.05609C11.7692 4.4627 11.2857 3.97916 10.6923 3.97916H4.23077ZM8.53846 10.4407H6.38462C5.79015 10.4407 5.30769 9.95824 5.30769 9.36378V7.20993C5.30769 6.61547 5.79015 6.13301 6.38462 6.13301H8.53846C9.13292 6.13301 9.61539 6.61547 9.61539 7.20993V9.36378C9.61539 9.95824 9.13292 10.4407 8.53846 10.4407ZM25.7692 14.7484H19.3077C17.5265 14.7484 16.0769 13.2989 16.0769 11.5176V5.05609C16.0769 3.27486 17.5265 1.82532 19.3077 1.82532H25.7692C27.5505 1.82532 29 3.27486 29 5.05609V11.5176C29 13.2989 27.5505 14.7484 25.7692 14.7484ZM19.3077 3.97916C18.7132 3.97916 18.2308 4.4627 18.2308 5.05609V11.5176C18.2308 12.111 18.7132 12.5945 19.3077 12.5945H25.7692C26.3637 12.5945 26.8462 12.111 26.8462 11.5176V5.05609C26.8462 4.4627 26.3637 3.97916 25.7692 3.97916H19.3077ZM23.6154 10.4407H21.4615C20.866 10.4407 20.3846 9.95824 20.3846 9.36378V7.20993C20.3846 6.61547 20.866 6.13301 21.4615 6.13301H23.6154C24.2109 6.13301 24.6923 6.61547 24.6923 7.20993V9.36378C24.6923 9.95824 24.2109 10.4407 23.6154 10.4407Z" fill="black"/>
<path d="M17.915 23.651C17.4097 23.651 17 24.0607 17 24.566C17 25.0713 17.4097 25.481 17.915 25.481H21.5752V28.3595C21.5752 28.8648 21.9849 29.2747 22.4903 29.2747C22.9956 29.2747 23.4053 28.8648 23.4053 28.3595V25.481H27.0655C27.5708 25.481 27.9807 25.0713 27.9807 24.566C27.9807 24.0607 27.5708 23.651 27.0655 23.651H23.4053V21.2108H27.0655C27.5709 21.2108 27.9807 20.8011 27.9807 20.2958C27.9807 19.7905 27.5709 19.3808 27.0655 19.3808H24.6995L26.6929 17.3874C27.0503 17.03 27.0503 16.4506 26.693 16.0934C26.3357 15.7359 25.7562 15.7361 25.399 16.0932L22.4904 19.0017L19.5818 16.0932C19.2246 15.7361 18.6451 15.7359 18.2877 16.0934C17.9304 16.4507 17.9304 17.03 18.2878 17.3874L20.2812 19.3808H17.915C17.4097 19.3808 17 19.7905 17 20.2958C17 20.8011 17.4097 21.2108 17.915 21.2108H21.5752V23.651H17.915Z" fill="black"/>
</svg>
