<svg width="30" height="30" viewBox="0 0 30 30" xmlns="http://www.w3.org/2000/svg">
<path d="M26.6018 11.0938C26.7893 11.9688 26.7685 13.0312 26.5393 14.2812C25.633 18.9062 22.6903 21.2188 17.7112 21.2188H17.0237C16.7632 21.2188 16.5341 21.3047 16.3362 21.4766C16.1382 21.6484 16.0132 21.8698 15.9612 22.1406L15.8987 22.4375L15.0393 27.8438L15.008 28.0781C14.956 28.349 14.8284 28.5703 14.6252 28.7422C14.4221 28.9141 14.1903 29 13.9299 29H10.008C9.78929 29 9.61741 28.9219 9.49241 28.7656C9.36741 28.6094 9.32054 28.4219 9.35179 28.2031C9.44554 27.6198 9.58356 26.7448 9.76585 25.5781C9.94814 24.4115 10.0862 23.5365 10.1799 22.9531C10.2737 22.3698 10.4143 21.4974 10.6018 20.3359C10.7893 19.1745 10.9299 18.3021 11.0237 17.7188C11.0757 17.3333 11.2997 17.1406 11.6955 17.1406H13.7424C15.1278 17.1615 16.357 17.0521 17.4299 16.8125C19.2528 16.4062 20.7476 15.6562 21.9143 14.5625C22.9768 13.5729 23.7841 12.2917 24.3362 10.7188C24.5862 9.98958 24.7685 9.29688 24.883 8.64062C24.8935 8.57812 24.9065 8.53906 24.9221 8.52344C24.9377 8.50781 24.956 8.5026 24.9768 8.50781C24.9976 8.51302 25.0289 8.53125 25.0705 8.5625C25.8935 9.17708 26.4039 10.0208 26.6018 11.0938ZM23.9143 6.6875C23.9143 7.80208 23.6747 9.03125 23.1955 10.375C22.3622 12.8021 20.7893 14.4427 18.4768 15.2969C17.2997 15.7135 15.9872 15.9323 14.5393 15.9531C14.5393 15.9635 14.0705 15.9688 13.133 15.9688L11.7268 15.9531C10.6851 15.9531 10.0705 16.4531 9.88304 17.4531C9.8622 17.5365 9.4195 20.2969 8.55491 25.7344C8.5445 25.8385 8.482 25.8906 8.36741 25.8906H3.75804C3.52887 25.8906 3.33876 25.8047 3.18772 25.6328C3.03668 25.4609 2.97679 25.2604 3.00804 25.0312L6.63304 2.04688C6.68512 1.74479 6.82835 1.49479 7.06272 1.29688C7.2971 1.09896 7.56533 1 7.86741 1H17.2112C17.5653 1 18.0731 1.06771 18.7346 1.20312C19.3961 1.33854 19.9768 1.50521 20.4768 1.70312C21.5914 2.13021 22.4429 2.77083 23.0315 3.625C23.62 4.47917 23.9143 5.5 23.9143 6.6875Z" fill="black"/>
</svg>
