<svg width="30" height="31" viewBox="0 0 30 31" xmlns="http://www.w3.org/2000/svg">
<g clip-path="url(#clip0_1038_665)">
<path d="M22.3699 5.05146L4.80112 22.6203C4.18449 23.2369 4.12293 24.1722 4.66339 24.7127L5.53714 25.5864C6.0776 26.1269 7.01292 26.0653 7.62955 25.4487L25.1984 7.87988C25.815 7.26325 25.8766 6.32794 25.3361 5.78747L24.4623 4.91372C23.927 4.36812 22.9866 4.43483 22.3699 5.05146Z" fill="black"/>
<path d="M5.80761 10.3006C6.08617 10.5792 6.41689 10.8002 6.78088 10.951C7.14487 11.1018 7.53501 11.1795 7.929 11.1795C8.32299 11.1795 8.71313 11.1019 9.07714 10.9511C9.44115 10.8004 9.77189 10.5794 10.0505 10.3008C10.3291 10.0222 10.5501 9.69146 10.7008 9.32745C10.8516 8.96344 10.9292 8.5733 10.9292 8.17931C10.9291 7.78532 10.8515 7.39518 10.7007 7.03119C10.5499 6.6672 10.3289 6.33648 10.0502 6.05792C9.77168 5.77929 9.44096 5.55827 9.07697 5.40746C8.71298 5.25665 8.32285 5.17902 7.92886 5.179C7.53487 5.17898 7.14472 5.25657 6.78072 5.40733C6.41671 5.5581 6.08597 5.77909 5.80737 6.05768C5.52877 6.33628 5.30778 6.66702 5.15702 7.03103C5.00626 7.39504 4.92867 7.78518 4.92869 8.17917C4.92871 8.57316 5.00634 8.96329 5.15715 9.32728C5.30796 9.69127 5.52898 10.022 5.80761 10.3006Z" fill="black"/>
<path d="M19.9497 24.4427C20.2283 24.7213 20.559 24.9423 20.923 25.0932C21.287 25.244 21.6771 25.3216 22.0711 25.3216C22.4651 25.3216 22.8553 25.2441 23.2193 25.0933C23.5833 24.9425 23.914 24.7215 24.1926 24.4429C24.4712 24.1643 24.6922 23.8336 24.843 23.4696C24.9937 23.1056 25.0713 22.7154 25.0713 22.3214C25.0713 21.9275 24.9937 21.5373 24.8428 21.1733C24.692 20.8093 24.471 20.4786 24.1924 20.2001C23.9138 19.9214 23.5831 19.7004 23.2191 19.5496C22.8551 19.3988 22.465 19.3212 22.071 19.3211C21.677 19.3211 21.2869 19.3987 20.9229 19.5495C20.5588 19.7002 20.2281 19.9212 19.9495 20.1998C19.6709 20.4784 19.4499 20.8092 19.2992 21.1732C19.1484 21.5372 19.0708 21.9273 19.0708 22.3213C19.0708 22.7153 19.1485 23.1054 19.2993 23.4694C19.4501 23.8334 19.6711 24.1641 19.9497 24.4427Z" fill="black"/>
</g>
<defs>
<clipPath id="clip0_1038_665">
<rect width="30" height="30" fill="white" transform="translate(0 0.249969)"/>
</clipPath>
</defs>
</svg>
