<svg width="30" height="30" viewBox="0 0 30 30" xmlns="http://www.w3.org/2000/svg">
<path d="M27.4146 23.8503C26.7498 22.2744 25.793 20.8603 24.5795 19.6467C23.3659 18.4332 21.9518 17.4799 20.3759 16.8116C20.3619 16.8045 20.3478 16.801 20.3337 16.794C22.5252 15.2111 23.9498 12.6327 23.9498 9.72362C23.9498 4.90452 20.0453 1 15.2262 1C10.4071 1 6.50258 4.90452 6.50258 9.72362C6.50258 12.6327 7.92721 15.2111 10.1187 16.7975C10.1046 16.8045 10.0905 16.808 10.0765 16.8151C8.50057 17.4799 7.0865 18.4332 5.87294 19.6503C4.65937 20.8638 3.7061 22.2779 3.03776 23.8538C2.38349 25.3945 2.03525 27.0301 2.00007 28.7116C1.99655 28.8698 2.12319 29 2.28148 29H4.39203C4.54681 29 4.66992 28.8769 4.67344 28.7256C4.74379 26.01 5.83424 23.4668 7.76188 21.5392C9.75635 19.5447 12.4051 18.4472 15.2262 18.4472C18.0473 18.4472 20.6961 19.5447 22.6905 21.5392C24.6182 23.4668 25.7086 26.01 25.779 28.7256C25.7825 28.8804 25.9056 29 26.0604 29H28.1709C28.3292 29 28.4558 28.8698 28.4523 28.7116C28.4172 27.0301 28.0689 25.3945 27.4146 23.8503ZM15.2262 15.7739C13.6116 15.7739 12.092 15.1442 10.9488 14.001C9.8056 12.8578 9.17595 11.3382 9.17595 9.72362C9.17595 8.10905 9.8056 6.58945 10.9488 5.44623C12.092 4.30301 13.6116 3.67337 15.2262 3.67337C16.8408 3.67337 18.3604 4.30301 19.5036 5.44623C20.6468 6.58945 21.2765 8.10905 21.2765 9.72362C21.2765 11.3382 20.6468 12.8578 19.5036 14.001C18.3604 15.1442 16.8408 15.7739 15.2262 15.7739Z" fill="black"/>
</svg>
