<svg width="31" height="30" viewBox="0 0 31 30" xmlns="http://www.w3.org/2000/svg">
<path d="M5.04907 19.729C3.87815 21.0881 3.8541 23.0128 4.99515 24.0273L8.38067 27.0385L8.54005 27.1633C8.77805 27.3274 9.05988 27.4292 9.38031 27.4739C10.2165 27.5906 11.3132 27.3125 12.5644 26.7021C15.0208 25.5004 18.0727 23.0155 20.9177 19.7141C23.7627 16.4137 25.7837 13.0112 26.6301 10.3785C27.2269 8.52495 27.2405 7.05191 26.548 6.26522L26.4049 6.12145L23.0201 3.11091C22.6525 2.78401 22.2096 2.59142 21.7383 2.52562C20.7454 2.38728 19.6271 2.81185 18.8336 3.7335L16.6953 6.215C15.524 7.57344 15.5003 9.49812 16.6417 10.5127L19.8739 13.3876C19.1401 14.4428 18.3093 15.5164 17.3931 16.5798C16.4762 17.6432 15.5389 18.6222 14.6057 19.4997L11.3738 16.6252C11.0066 16.299 10.5637 16.1064 10.0924 16.0406C9.09954 15.9016 7.98152 16.3268 7.18738 17.2478L5.04907 19.729ZM21.5335 4.0387C21.7281 4.06583 21.8949 4.14041 22.0293 4.25978L22.3928 4.58258L17.954 9.65005L17.6319 9.36385C17.3409 9.10474 17.3016 8.71888 17.3043 8.51204C17.3104 8.06984 17.5003 7.59921 17.8258 7.22076L19.9648 4.73926C20.3941 4.24082 21.0099 3.96613 21.5335 4.0387ZM7.20398 23.8971L11.6336 18.8351L14.0123 20.9728L14.6349 21.5547L15.6284 20.6201C16.6186 19.6869 17.5925 18.6656 18.5243 17.5855C19.4548 16.5052 20.3222 15.3889 21.1015 14.2685L21.8827 13.1441L20.8641 12.238L18.913 10.5208L23.425 5.39506L25.3795 7.23904L25.4406 7.30077C25.5667 7.48185 25.7369 8.23872 25.2012 9.90435C24.8139 11.1088 24.1371 12.5228 23.2438 13.9945C22.2856 15.572 21.1225 17.1583 19.7871 18.7089C18.4511 20.2593 17.0567 21.6401 15.6441 22.8133C14.3263 23.9079 13.0364 24.776 11.9127 25.3254C10.5322 25.9995 9.82521 25.9954 9.58548 25.9615C9.48985 25.9479 9.43426 25.9276 9.40372 25.9113L9.33559 25.857L7.20398 23.8971ZM5.65841 22.0267C5.66384 21.5845 5.85404 21.1138 6.18025 20.7354L8.31825 18.2532C8.74791 17.7551 9.36402 17.4804 9.8876 17.5537C10.0822 17.5808 10.2491 17.6547 10.3833 17.7747L10.639 18.0019L6.23929 23.086L5.98561 22.8785C5.69469 22.6194 5.65571 22.2342 5.65841 22.0267Z" fill="black"/>
</svg>
