<svg width="31" height="30" viewBox="0 0 31 30" xmlns="http://www.w3.org/2000/svg">
<path d="M29.7262 17.5689V20.9972C29.7262 22.266 28.8809 23.3247 27.7259 23.6695V26.1983C27.7259 26.5167 27.5994 26.822 27.3742 27.0472C27.1491 27.2723 26.8437 27.3988 26.5253 27.3988H26.1246C25.8062 27.3988 25.5008 27.2723 25.2757 27.0472C25.0506 26.822 24.9241 26.5167 24.9241 26.1983V23.8007H15.7277V26.2C15.7277 26.3578 15.6966 26.5141 15.6361 26.6599C15.5757 26.8056 15.4871 26.938 15.3754 27.0495C15.2638 27.161 15.1312 27.2494 14.9853 27.3097C14.8395 27.3699 14.6832 27.4008 14.5254 27.4006H14.1264C13.808 27.4006 13.5026 27.2741 13.2775 27.0489C13.0523 26.8238 12.9259 26.5184 12.9259 26.2V23.8007H7.32752V26.2C7.32752 26.5184 7.20103 26.8238 6.97589 27.0489C6.75075 27.2741 6.44539 27.4006 6.127 27.4006H5.72799C5.40959 27.4006 5.10423 27.2741 4.87909 27.0489C4.65395 26.8238 4.52747 26.5184 4.52747 26.2V23.8007C4.15947 23.8007 3.79507 23.7282 3.45513 23.5873C3.11518 23.4463 2.80635 23.2398 2.5463 22.9794C2.28624 22.719 2.08006 22.4099 1.93955 22.0698C1.79905 21.7297 1.72696 21.3652 1.72742 20.9972V17.7999C1.72742 17.7544 1.73267 17.7071 1.74142 17.6651C1.72716 17.5558 1.74235 17.4446 1.78542 17.3431C1.82849 17.2415 1.89788 17.1534 1.98642 17.0876L21.3435 2.74087C21.4553 2.65716 21.5891 2.60789 21.7285 2.59912C22.124 2.60087 25.1621 2.68137 26.2786 4.32815C26.6093 4.82341 26.9034 5.67742 26.4116 6.90595C25.3371 9.60974 26.0966 10.5705 27.2481 12.0108C27.3899 12.1875 27.5386 12.3783 27.6856 12.569C27.9394 12.8945 28.1774 13.1763 28.4084 13.4441C29.7122 15.3008 29.7367 16.7761 29.7262 17.5689ZM26.1263 25.9988C26.1263 26.0517 26.1474 26.1024 26.1848 26.1398C26.2222 26.1773 26.2729 26.1983 26.3258 26.1983C26.3788 26.1983 26.4295 26.1773 26.4669 26.1398C26.5043 26.1024 26.5253 26.0517 26.5253 25.9988V23.8007H26.1246V25.9988H26.1263ZM14.1264 25.9988C14.1264 26.0517 14.1474 26.1024 14.1848 26.1398C14.2222 26.1773 14.273 26.1983 14.3259 26.1983C14.3788 26.1983 14.4295 26.1773 14.467 26.1398C14.5044 26.1024 14.5254 26.0517 14.5254 25.9988V23.8007H14.1264V25.9988ZM5.72799 25.9988C5.72799 26.1108 5.81724 26.2 5.92749 26.2C5.98087 26.2 6.03206 26.1788 6.0698 26.1411C6.10754 26.1033 6.12875 26.0522 6.12875 25.9988V23.8007H5.72799V25.9988ZM27.2481 14.746C26.8229 14.2322 26.4222 13.6984 26.0476 13.1465C24.8243 11.6152 23.3292 10.3028 24.6784 6.90595C24.9095 6.32844 24.9095 5.61958 24.6784 5.27308C24.0939 4.41031 22.5808 4.36315 21.7285 4.32815L4.86277 17.0001L20.2882 17.0001V8.79948C20.2882 8.64028 20.4312 8.52263 20.5788 8.37503C20.7264 8.22743 20.9253 8.19922 21.1265 8.19922C21.3277 8.19922 21.5683 8.22197 21.7214 8.37503C21.8572 8.51083 22.0354 8.64028 22.0354 8.79948V17.0001L28.137 17.0001C28.1352 16.1724 27.7574 15.3936 27.2481 14.746ZM28.137 18.5575L3.38092 18.5575V20.9972C3.38092 21.8827 3.64195 22.2412 4.52747 22.2412H26.9261C27.8099 22.2412 28.1387 21.8827 28.1387 20.9972V18.5575H28.137Z" fill="black"/>
<path d="M19.5345 20.8367C19.5345 20.4932 19.8129 20.2148 20.1563 20.2148H25.7611C26.1045 20.2148 26.3829 20.4932 26.3829 20.8367C26.3829 21.1801 26.1045 21.4585 25.7611 21.4585H20.1563C19.8129 21.4585 19.5345 21.1801 19.5345 20.8367Z" fill="black"/>
</svg>
