<svg width="30" height="30" viewBox="0 0 30 30"  xmlns="http://www.w3.org/2000/svg">
<path d="M28.1023 8.63175C27.4845 7.11275 26.578 5.75125 25.4073 4.584C24.2365 3.41675 22.8715 2.512 21.349 1.896C19.8808 1.301 18.3268 1 16.7343 1C15.1418 1 13.5896 1.301 12.1196 1.896C10.5971 2.512 9.23209 3.41675 8.06135 4.584C6.34635 6.29375 5.18786 8.46375 4.71011 10.856L4.66286 11.108C4.66111 11.1202 4.65936 11.1325 4.65586 11.1447C4.64361 11.2183 4.63136 11.2917 4.62086 11.3652C4.61592 11.3908 4.61184 11.4165 4.60861 11.4423C4.59811 11.5052 4.58936 11.57 4.58061 11.633C4.57508 11.6685 4.57041 11.7041 4.56661 11.7397C4.55961 11.7975 4.55261 11.8535 4.54736 11.9095C4.54211 11.955 4.53686 11.9987 4.53336 12.0442C4.53336 12.0477 4.53161 12.053 4.53161 12.0565V12.06C4.42278 13.1465 4.45691 14.2426 4.63311 15.3202C4.83786 16.5732 5.22811 17.7668 5.7951 18.8797L1.45509 22.6283C1.43832 22.6429 1.42198 22.6581 1.40609 22.6737C1.10509 22.973 0.961592 23.3983 1.00884 23.8375C1.04909 24.2068 1.22409 24.5603 1.49709 24.8368L5.13358 28.4978L5.13708 28.5013C5.41358 28.776 5.76883 28.951 6.13983 28.9912C6.19758 28.9965 6.25182 29 6.30783 29C6.68757 29 7.04457 28.8565 7.30707 28.5958C7.32107 28.5818 7.33507 28.5678 7.34732 28.552L11.2113 24.1648C13.3866 25.2603 15.8313 25.6785 18.248 25.3775C18.2533 25.3775 18.2585 25.3757 18.2638 25.3757C18.3635 25.3635 18.4615 25.3495 18.5613 25.3355C18.5753 25.3337 18.5875 25.332 18.6015 25.3302C18.6435 25.3232 18.6838 25.318 18.7258 25.311L18.8465 25.29L18.941 25.2743C19.011 25.262 19.0793 25.248 19.1475 25.234C19.1703 25.2287 19.193 25.2253 19.2158 25.22C19.291 25.2043 19.3663 25.1885 19.4415 25.171H19.4433C21.7025 24.6635 23.764 23.5278 25.409 21.888C26.5798 20.7207 27.4863 19.3575 28.104 17.8403C28.6972 16.3738 29 14.825 29 13.236C29 11.647 28.6973 10.0983 28.1023 8.63175ZM11.6208 22.2852C11.5788 22.2607 11.5351 22.2362 11.4931 22.2118C11.1378 22.0053 10.6881 22.056 10.3888 22.3377L10.2086 22.5075C10.1876 22.5268 10.1683 22.5478 10.1491 22.5705L6.25182 26.9928L3.01259 23.7308L7.43835 19.9088C7.4436 19.9053 7.44885 19.9 7.4541 19.8965L7.5906 19.7723C7.91785 19.4765 7.99135 18.9935 7.76735 18.6155C6.97985 17.2873 6.5091 15.8103 6.36735 14.286L15.7578 23.5785C14.3141 23.442 12.9053 23.008 11.6208 22.2852ZM23.4018 14.972C21.958 14.972 20.7891 13.8047 20.7891 12.3645C20.7891 10.9242 21.958 9.75875 23.4018 9.75875C24.8455 9.75875 26.0145 10.926 26.0145 12.3645C26.0145 13.8065 24.8438 14.972 23.4018 14.972Z" fill="black"/>
</svg>
