<svg width="30" height="30" viewBox="0 0 30 30" xmlns="http://www.w3.org/2000/svg">
<g clip-path="url(#clip0_1046_214)">
<path d="M15.0123 0C6.72157 0 0 6.71053 0 14.9877C0 21.3405 3.95386 26.7681 9.53869 28.9515C9.40278 27.7673 9.29158 25.9416 9.58812 24.6464C9.85995 23.4745 11.3426 17.1957 11.3426 17.1957C11.3426 17.1957 10.8978 16.2952 10.8978 14.9753C10.8978 12.8906 12.1087 11.3363 13.6161 11.3363C14.9011 11.3363 15.5189 12.2985 15.5189 13.4457C15.5189 14.7286 14.7034 16.653 14.271 18.4416C13.9127 19.9342 15.0247 21.1554 16.495 21.1554C19.1639 21.1554 21.2149 18.3429 21.2149 14.2969C21.2149 10.7072 18.6326 8.20312 14.9382 8.20312C10.6631 8.20312 8.15484 11.398 8.15484 14.7039C8.15484 15.9868 8.64907 17.3684 9.26687 18.1209C9.39042 18.2689 9.40278 18.4046 9.36571 18.5526C9.25451 19.0214 8.99504 20.0452 8.94561 20.2549C8.88383 20.5263 8.72321 20.588 8.43903 20.4523C6.56094 19.5765 5.38714 16.8503 5.38714 14.6423C5.38714 9.91776 8.82206 5.57566 15.3089 5.57566C20.5107 5.57566 24.5634 9.27631 24.5634 14.2352C24.5634 19.4038 21.3014 23.5609 16.7792 23.5609C15.2594 23.5609 13.8262 22.7714 13.3443 21.8339C13.3443 21.8339 12.5906 24.6957 12.4052 25.3988C12.0716 26.7064 11.1573 28.3347 10.5395 29.3339C11.9481 29.7656 13.4308 30 14.9876 30C23.2784 30 29.9999 23.2895 29.9999 15.0123C30.0246 6.71053 23.3031 0 15.0123 0Z" fill="black"/>
</g>
<defs>
<clipPath id="clip0_1046_214">
<rect width="30" height="30" fill="white"/>
</clipPath>
</defs>
</svg>
