<svg width="30" height="30" viewBox="0 0 30 30" xmlns="http://www.w3.org/2000/svg">
<path d="M12.2 3.9999L12.2 24.8993L15.7684 26.3999L15.7684 8.86999C15.7684 8.04929 16.0462 7.50073 16.4892 7.69131C17.0727 7.90507 17.1867 8.66224 17.1867 9.48294V16.4837C19.4094 17.9054 21.16 16.4829 21.16 12.7237C21.16 8.86999 20.136 7.15992 17.1142 5.78551C15.9264 5.25498 13.7161 4.37162 12.2 3.9999Z" fill="black"/>
<path d="M15.5601 23.801L23.7056 21.2266C24.6269 20.934 24.7704 20.5198 24.021 20.3022C23.2698 20.0837 21.9099 20.1473 20.9858 20.4408L15.5601 22.1348V19.4364L15.8727 19.3435C15.8727 19.3435 17.4413 18.8519 19.6471 18.6359C21.852 18.4199 24.5525 18.6636 26.6709 19.3761C29.0606 20.047 29.33 21.0326 28.7241 21.7117C28.1154 22.3907 26.6277 22.8758 26.6277 22.8758L15.5601 26.3999V23.801Z" fill="black"/>
<path d="M2.96688 21.1887C0.900842 20.5878 0.556372 19.3363 1.49612 18.6154C2.36851 17.9488 3.84625 17.4455 3.84625 17.4455L9.96 15.2002V17.7592L5.56163 19.3875C4.7829 19.6772 4.66446 20.0829 5.29534 20.2973C5.92777 20.5118 7.07188 20.451 7.84983 20.1613L9.96 19.3715V21.6617C9.82531 21.6873 9.67591 21.7113 9.5389 21.7353C7.42718 22.0922 5.18 21.9441 2.96688 21.1887Z" fill="black"/>
</svg>
