<svg width="30" height="31" viewBox="0 0 30 31"  xmlns="http://www.w3.org/2000/svg">
<path d="M26.4508 12.6313H17.5476V3.73549C17.5482 3.40095 17.4828 3.06959 17.3552 2.76034C17.2276 2.45109 17.0403 2.17003 16.804 1.93322C16.5677 1.69641 16.2871 1.50851 15.9781 1.38024C15.6692 1.25198 15.3379 1.18588 15.0034 1.18571C14.6688 1.18588 14.3376 1.252 14.0286 1.38031C13.7197 1.50862 13.439 1.6966 13.2028 1.93348C12.9665 2.17036 12.7793 2.4515 12.6518 2.76082C12.5243 3.07013 12.4591 3.40155 12.4598 3.7361V12.6375H3.55225C2.87562 12.6373 2.22664 12.9059 1.74802 13.3842C1.2694 13.8624 1.00034 14.5112 1.00001 15.1879C0.999124 15.5236 1.06442 15.8563 1.19215 16.1668C1.31989 16.4773 1.50757 16.7596 1.74446 16.9975C1.98019 17.2356 2.26065 17.4248 2.56973 17.5541C2.87881 17.6835 3.21041 17.7504 3.54546 17.7512H12.4598V26.6402C12.4598 27.3446 12.7392 27.9824 13.2005 28.4425C13.4365 28.6796 13.7171 28.8677 14.0261 28.9959C14.3351 29.1241 14.6664 29.1899 15.0009 29.1894C15.3356 29.1893 15.6669 29.1233 15.976 28.9951C16.2851 28.867 16.5659 28.6792 16.8024 28.4424C17.0389 28.2057 17.2264 27.9247 17.3543 27.6155C17.4822 27.3063 17.5479 26.9749 17.5476 26.6402V17.7506H26.4508C27.859 17.7506 29.0006 16.5991 29 15.191C28.9994 13.7835 27.8577 12.6313 26.4508 12.6313Z" fill="black"/>
</svg>
