<svg width="30" height="31" viewBox="0 0 30 31" xmlns="http://www.w3.org/2000/svg">
<path d="M14.8696 29.8253C11.6739 29.8253 3 19.8326 3 13.6949C3 7.1514 8.32609 1.82532 14.8696 1.82532C21.413 1.82532 26.7391 7.1514 26.7391 13.6949C26.7391 19.8326 18.0652 29.8253 14.8696 29.8253ZM14.8696 4.15865C9.5942 4.15865 5.33333 8.41952 5.33333 13.6949C5.33333 19.1731 13.2464 27.2891 14.8696 27.492C16.442 27.2384 24.3551 19.021 24.3551 13.6949C24.4058 8.41952 20.1449 4.15865 14.8696 4.15865Z" fill="black"/>
<path d="M11.0156 13.1378C11.0156 14.1945 11.4354 15.208 12.1826 15.9552C12.9298 16.7024 13.9433 17.1222 15 17.1222C16.0567 17.1222 17.0702 16.7024 17.8174 15.9552C18.5646 15.208 18.9844 14.1945 18.9844 13.1378C18.9844 12.0811 18.5646 11.0677 17.8174 10.3204C17.0702 9.57322 16.0567 9.15344 15 9.15344C13.9433 9.15344 12.9298 9.57322 12.1826 10.3204C11.4354 11.0677 11.0156 12.0811 11.0156 13.1378Z" fill="black"/>
</svg>
