<svg width="30" height="31" viewBox="0 0 30 31" xmlns="http://www.w3.org/2000/svg">
<path d="M20.0185 5.21368C19.4328 4.95587 18.2467 5.19535 17.9889 5.78117C17.731 6.36699 17.9052 7.05533 18.4909 7.31314C22.3135 8.99558 24.8462 12.8025 24.8462 16.9778C24.8462 19.7904 23.7181 22.4943 21.7292 24.4831C19.7404 26.4718 17.6601 26.9766 14.8476 26.9766C12.035 26.9766 9.37994 25.8485 7.39115 23.8597C5.40232 21.8709 4.89757 19.7904 4.89757 16.9778C4.89757 12.7786 7.27853 9.32323 11.1315 7.65138C11.7187 7.39661 12.0097 6.36831 11.7549 5.78117C11.5001 5.194 10.3249 4.93212 9.73786 5.1869C5.03726 7.22646 2 11.8547 2 16.9778C2 18.7117 2.33985 20.3944 3.01008 21.979C3.65723 23.509 4.58341 24.8829 5.76294 26.0624C6.94248 27.2419 8.3163 28.1681 9.84634 28.8152C11.431 29.4855 13.1137 29.8253 14.8476 29.8253C16.5814 29.8253 18.2641 29.4855 19.8487 28.8152C21.3788 28.1681 22.7526 27.2419 23.9321 26.0624C25.1116 24.8829 26.0378 23.509 26.685 21.979C27.3552 20.3944 27.695 18.7117 27.695 16.9778C27.6951 11.8838 24.6818 7.26613 20.0185 5.21368Z" fill="black"/>
<path d="M14.8719 15.8158C15.5119 15.8158 16.3017 15.2969 16.3017 14.6569V2.98421C16.3017 2.34418 15.5119 1.82532 14.8719 1.82532C14.2318 1.82532 13.4324 2.34418 13.4324 2.98421V14.6569C13.4324 15.2969 14.2319 15.8158 14.8719 15.8158Z" fill="black"/>
</svg>
