<svg width="30" height="30" viewBox="0 0 30 30"  xmlns="http://www.w3.org/2000/svg">
<path d="M6.25 6H5.23936C4.41681 6 3.75 6.66681 3.75 7.48936V23.2606C3.75 24.0832 4.41681 24.75 5.23936 24.75H6.25C7.07255 24.75 7.73936 24.0832 7.73936 23.2606V7.48936C7.73936 6.66681 7.07255 6 6.25 6ZM10.7363 16.271L21.9678 24.3402C22.8267 24.9572 24.0232 24.7612 24.6403 23.9023C24.8742 23.5767 25 23.1859 25 22.785V7.9166C25 6.85904 24.1427 6.0017 23.0851 6.0017C22.7069 6.0017 22.3372 6.11368 22.0226 6.32351L10.7789 13.8224C10.0946 14.2788 9.90987 15.2035 10.3663 15.8878C10.4656 16.0368 10.5909 16.1666 10.7363 16.271Z" fill="black"/>
</svg>
