<svg width="30" height="30" viewBox="0 0 30 30" xmlns="http://www.w3.org/2000/svg">
<path d="M2.98786 8.29218V19.3469C2.98786 20.4565 3.231 20.9387 4.33472 20.9387H4.7422V18.6782H25.2756V20.9387H27.2282V9.99147C27.2282 8.8818 26.7695 8.29218 25.6666 8.29218H2.98786ZM1 6.64159H25.6666C27.5069 6.64159 29 8.14415 29 9.99147V22.6904H23.6667V19.3469V20.0156H6.33333V22.6904H4.33472C2.49379 22.6904 1 21.1879 1 19.3405V6.64159Z" fill="black"/>
<path d="M21.3811 26.9868H8.62193V21.9363C8.62193 21.567 8.15725 21.2676 7.78906 21.2676C7.42087 21.2676 7 21.567 7 21.9363V28.04C7 28.4093 7.29848 28.7087 7.66667 28.7087H22.3333C22.7015 28.7087 23 28.4093 23 28.04V21.9363C23 21.567 22.5359 21.2676 22.1677 21.2676C21.7995 21.2676 21.3811 21.567 21.3811 21.9363V26.9868Z" fill="black"/>
<path d="M15.6667 11.2494H24.3333V9.91202H15.6667V11.2494Z" fill="black"/>
<path d="M7.42861 7.31029V3.00305H22.583V7.31029H24.3333V1.29199H5.66667V7.31029H7.42861Z" fill="black"/>
</svg>
