<svg width="30" height="30" viewBox="0 0 30 30" xmlns="http://www.w3.org/2000/svg">
<path d="M5.97305 1.15099C8.71961 1.15099 10.9461 3.37749 10.9461 6.12404C10.9461 8.48584 9.29971 10.4631 7.09199 10.9707V19.1804C9.29971 19.688 10.9461 21.6652 10.9461 24.027C10.9461 26.7736 8.71961 29.0001 5.97305 29.0001C3.2265 29.0001 1 26.7736 1 24.027C1 21.6652 2.64639 19.688 4.85412 19.1804V10.9707C2.64639 10.4631 1 8.48584 1 6.12404C1 3.37749 3.2265 1.15099 5.97305 1.15099ZM5.97305 21.2918C4.46246 21.2918 3.23787 22.5164 3.23787 24.027C3.23787 25.5376 4.46246 26.7622 5.97305 26.7622C7.48365 26.7622 8.70823 25.5376 8.70823 24.027C8.70823 22.5164 7.48365 21.2918 5.97305 21.2918ZM5.97305 3.38887C4.46246 3.38887 3.23787 4.61345 3.23787 6.12404C3.23787 7.63464 4.46246 8.85922 5.97305 8.85922C7.48365 8.85922 8.70823 7.63464 8.70823 6.12404C8.70823 4.61345 7.48365 3.38887 5.97305 3.38887ZM18.903 10.6264C18.903 10.9697 18.6247 11.248 18.2814 11.248C18.1342 11.248 17.9919 11.1958 17.8796 11.1008L12.5631 6.59844C12.301 6.37655 12.2685 5.9843 12.4904 5.72231C12.5126 5.69613 12.5369 5.67182 12.5631 5.64965L17.8796 1.14733C18.1416 0.925465 18.5339 0.958007 18.7558 1.21999C18.8508 1.33226 18.903 1.47461 18.903 1.62172V5.00511H21.0165C23.1918 5.00511 24.9593 6.75086 24.9944 8.91775L24.995 8.98355V19.1804C27.2027 19.688 28.8491 21.6652 28.8491 24.027C28.8491 26.7736 26.6226 29.0001 23.876 29.0001C21.1295 29.0001 18.903 26.7736 18.903 24.027C18.903 21.6652 20.5494 19.688 22.7571 19.1804V8.98355C22.7571 8.03186 21.9933 7.25858 21.0453 7.24323L21.0165 7.24298H18.903V10.6264ZM23.876 21.2918C22.3654 21.2918 21.1409 22.5164 21.1409 24.027C21.1409 25.5376 22.3654 26.7622 23.876 26.7622C25.3866 26.7622 26.6112 25.5376 26.6112 24.027C26.6112 22.5164 25.3866 21.2918 23.876 21.2918Z" fill="black"/>
</svg>
