<svg width="30" height="30" viewBox="0 0 30 30" xmlns="http://www.w3.org/2000/svg">
<path d="M20.0683 30C21.9433 30 23.4374 29.6289 24.5507 28.8867C25.1562 28.4766 25.62 28.0274 25.9423 27.5391C26.2646 27.0508 26.4257 26.4941 26.4257 25.8691C26.4257 25.1856 26.2402 24.5605 25.8691 23.9941H26.1327C26.1913 23.9941 26.2743 23.9795 26.3818 23.9502C26.4892 23.9209 26.5722 23.877 26.6308 23.8184C27.6855 23.4668 28.3105 22.5293 28.5058 21.0059C28.6816 19.6973 28.496 18.1934 27.9491 16.4941C27.871 16.2402 27.7783 15.9863 27.6708 15.7324C27.5634 15.4785 27.4462 15.2344 27.3193 15C27.1923 14.7656 27.0507 14.5312 26.8945 14.2969C26.7382 14.0625 26.5771 13.8379 26.4111 13.623C26.245 13.4082 26.0644 13.1836 25.8691 12.9492C25.8691 12.1289 25.6835 11.25 25.3124 10.3125C25.3124 9.375 25.205 8.48145 24.9902 7.63184C24.7753 6.78223 24.4482 5.96681 24.0087 5.18555C23.5693 4.40429 23.0077 3.67187 22.3241 2.98828C22.0312 2.69531 21.7285 2.42675 21.4159 2.18262C21.1034 1.93849 20.7861 1.71387 20.4638 1.50879C20.1415 1.30371 19.8095 1.11817 19.4677 0.952148C19.1259 0.786123 18.7743 0.644531 18.413 0.527344C18.0517 0.410156 17.6855 0.31251 17.3144 0.234375C16.9433 0.15624 16.5673 0.0976465 16.1865 0.0585938C15.8056 0.019541 15.4101 0 14.9999 0C14.0624 0 13.1689 0.107432 12.3193 0.322266C11.4697 0.5371 10.6542 0.864258 9.87298 1.30371C9.09172 1.74316 8.35929 2.3047 7.67571 2.98828C5.68352 5.21484 4.68743 7.65624 4.68743 10.3125C4.31633 11.0547 4.13079 11.9336 4.13079 12.9492V13.125C3.85736 13.3398 3.60834 13.5889 3.38372 13.8721C3.1591 14.1553 2.96381 14.4483 2.79778 14.751C2.63175 15.0537 2.49506 15.3418 2.38762 15.6152C2.28019 15.8887 2.1679 16.1816 2.05071 16.4941C1.50383 18.1934 1.31829 19.6973 1.49407 21.0059C1.59172 21.7285 1.80658 22.3291 2.1386 22.8076C2.47062 23.2861 2.88078 23.623 3.36907 23.8184C3.42766 23.8184 3.55461 23.8477 3.74993 23.9062C3.94525 23.9648 4.07219 23.9941 4.13079 23.9941C3.75968 24.5605 3.57415 25.1856 3.57415 25.8691C3.57415 27.1582 4.19914 28.1641 5.44915 28.8867C5.72258 29.0625 6.02044 29.2236 6.3427 29.3701C6.66497 29.5166 7.01164 29.6338 7.38274 29.7217C7.75385 29.8096 8.1347 29.8779 8.52532 29.9268C8.91593 29.9756 9.32609 30 9.75579 30C11.8261 30 13.3886 29.5605 14.4433 28.6816H15.3808C16.6113 29.5605 18.1737 30 20.0683 30Z" fill="black"/>
</svg>
