<svg width="30" height="31" viewBox="0 0 30 31"  xmlns="http://www.w3.org/2000/svg">
<path d="M10.6923 29.8253H4.23077C2.44954 29.8253 1 28.3758 1 26.5945V20.133C1 18.3518 2.44954 16.9022 4.23077 16.9022H10.6923C12.4735 16.9022 13.9231 18.3518 13.9231 20.133V26.5945C13.9231 28.3758 12.4735 29.8253 10.6923 29.8253ZM4.23077 19.0561C3.63738 19.0561 3.15385 19.5385 3.15385 20.133V26.5945C3.15385 27.189 3.63738 27.6715 4.23077 27.6715H10.6923C11.2857 27.6715 11.7692 27.189 11.7692 26.5945V20.133C11.7692 19.5385 11.2857 19.0561 10.6923 19.0561H4.23077ZM22.5385 28.7484C21.9429 28.7484 21.4615 28.267 21.4615 27.6715V25.5176C21.4615 24.9221 21.9429 24.4407 22.5385 24.4407C23.134 24.4407 23.6154 24.9221 23.6154 25.5176V27.6715C23.6154 28.267 23.134 28.7484 22.5385 28.7484ZM26.8462 28.7484C26.2506 28.7484 25.7692 28.267 25.7692 27.6715V24.4407C25.7692 23.8452 26.2506 23.3638 26.8462 23.3638C27.4417 23.3638 27.9231 23.8452 27.9231 24.4407V27.6715C27.9231 28.267 27.4417 28.7484 26.8462 28.7484ZM26.8462 21.2099C26.2506 21.2099 25.7692 20.7285 25.7692 20.133V17.9792C25.7692 17.3836 26.2506 16.9022 26.8462 16.9022C27.4417 16.9022 27.9231 17.3836 27.9231 17.9792V20.133C27.9231 20.7285 27.4417 21.2099 26.8462 21.2099ZM22.5385 23.3638C21.9429 23.3638 21.4615 22.8824 21.4615 22.2869V17.9792C21.4615 17.3836 21.9429 16.9022 22.5385 16.9022C23.134 16.9022 23.6154 17.3836 23.6154 17.9792V22.2869C23.6154 22.8824 23.134 23.3638 22.5385 23.3638ZM18.2308 28.7484C17.6352 28.7484 17.1538 28.267 17.1538 27.6715V23.3638C17.1538 22.7682 17.6352 22.2869 18.2308 22.2869C18.8263 22.2869 19.3077 22.7682 19.3077 23.3638V27.6715C19.3077 28.267 18.8263 28.7484 18.2308 28.7484ZM18.2308 20.133C17.6352 20.133 17.1538 19.6516 17.1538 19.0561V17.9792C17.1538 17.3836 17.6352 16.9022 18.2308 16.9022C18.8263 16.9022 19.3077 17.3836 19.3077 17.9792V19.0561C19.3077 19.6516 18.8263 20.133 18.2308 20.133ZM8.53846 25.5176H6.38462C5.79015 25.5176 5.30769 25.0362 5.30769 24.4407V22.2869C5.30769 21.6913 5.79015 21.2099 6.38462 21.2099H8.53846C9.13292 21.2099 9.61539 21.6913 9.61539 22.2869V24.4407C9.61539 25.0362 9.13292 25.5176 8.53846 25.5176ZM10.6923 14.7484H4.23077C2.44954 14.7484 1 13.2989 1 11.5176V5.05609C1 3.27486 2.44954 1.82532 4.23077 1.82532H10.6923C12.4735 1.82532 13.9231 3.27486 13.9231 5.05609V11.5176C13.9231 13.2989 12.4735 14.7484 10.6923 14.7484ZM4.23077 3.97916C3.63738 3.97916 3.15385 4.4627 3.15385 5.05609V11.5176C3.15385 12.111 3.63738 12.5945 4.23077 12.5945H10.6923C11.2857 12.5945 11.7692 12.111 11.7692 11.5176V5.05609C11.7692 4.4627 11.2857 3.97916 10.6923 3.97916H4.23077ZM8.53846 10.4407H6.38462C5.79015 10.4407 5.30769 9.95824 5.30769 9.36378V7.20993C5.30769 6.61547 5.79015 6.13301 6.38462 6.13301H8.53846C9.13292 6.13301 9.61539 6.61547 9.61539 7.20993V9.36378C9.61539 9.95824 9.13292 10.4407 8.53846 10.4407ZM25.7692 14.7484H19.3077C17.5265 14.7484 16.0769 13.2989 16.0769 11.5176V5.05609C16.0769 3.27486 17.5265 1.82532 19.3077 1.82532H25.7692C27.5505 1.82532 29 3.27486 29 5.05609V11.5176C29 13.2989 27.5505 14.7484 25.7692 14.7484ZM19.3077 3.97916C18.7132 3.97916 18.2308 4.4627 18.2308 5.05609V11.5176C18.2308 12.111 18.7132 12.5945 19.3077 12.5945H25.7692C26.3637 12.5945 26.8462 12.111 26.8462 11.5176V5.05609C26.8462 4.4627 26.3637 3.97916 25.7692 3.97916H19.3077ZM23.6154 10.4407H21.4615C20.866 10.4407 20.3846 9.95824 20.3846 9.36378V7.20993C20.3846 6.61547 20.866 6.13301 21.4615 6.13301H23.6154C24.2109 6.13301 24.6923 6.61547 24.6923 7.20993V9.36378C24.6923 9.95824 24.2109 10.4407 23.6154 10.4407Z" fill="black"/>
</svg>
