<svg width="30" height="30" viewBox="0 0 30 30" xmlns="http://www.w3.org/2000/svg">
<path d="M15 28.125C11.519 28.125 8.18064 26.7422 5.71922 24.2808C3.25781 21.8194 1.875 18.481 1.875 15C1.875 11.519 3.25781 8.18064 5.71922 5.71922C8.18064 3.25781 11.519 1.875 15 1.875C18.481 1.875 21.8194 3.25781 24.2808 5.71922C26.7422 8.18064 28.125 11.519 28.125 15C28.125 18.481 26.7422 21.8194 24.2808 24.2808C21.8194 26.7422 18.481 28.125 15 28.125ZM15.023 19.9186C14.116 19.9186 13.3807 20.6539 13.3807 21.5609C13.3807 22.4679 14.116 23.2031 15.023 23.2031H15.087C15.994 23.2031 16.7292 22.4679 16.7292 21.5609C16.7292 20.6539 15.994 19.9186 15.087 19.9186H15.023ZM10.0182 11.1689C9.85925 11.8768 10.4162 12.5095 11.1323 12.6252L11.3899 12.6668C12.1421 12.7884 12.9226 12.2156 13.1116 11.4776C13.1874 11.1641 13.3209 10.8676 13.5054 10.6031C13.6859 10.3538 13.9123 10.1552 14.1895 10.0059C14.4668 9.85664 14.7966 9.78117 15.1805 9.78117C15.7498 9.78117 16.1944 9.93703 16.5143 10.2504C16.8342 10.5621 16.9934 11.0461 16.9934 11.7007C17.0081 12.0846 16.9409 12.4062 16.7916 12.6605C16.6423 12.9164 16.447 13.1527 16.2042 13.3659C15.963 13.5792 15.7005 13.7925 15.4167 14.0058C15.1313 14.2191 14.8605 14.4701 14.6046 14.7605C14.3312 15.0788 14.1047 15.4346 13.932 15.817C13.7416 16.2288 13.6235 16.7407 13.5809 17.3527C13.5809 17.8827 14.0106 18.3124 14.5406 18.3124H15.6497C16.0973 18.3124 16.4602 17.9496 16.4602 17.502C16.5176 17.0754 16.657 16.7194 16.8769 16.4355C17.0967 16.1517 17.3494 15.8991 17.6332 15.6792C17.9187 15.4577 18.2205 15.2379 18.5405 15.018C19.2358 14.5452 19.7713 13.8724 20.0761 13.0887C20.2533 12.6457 20.3419 12.0846 20.3419 11.4021C20.3231 10.3966 19.9094 9.43896 19.1902 8.73609C18.7784 8.3243 18.2353 7.97977 17.5594 7.7025C16.8834 7.42359 16.0418 7.28578 15.0328 7.28578C14.2502 7.28578 13.5431 7.41703 12.9098 7.67953C12.2985 7.92828 11.7462 8.30278 11.2889 8.77875C10.8336 9.25871 10.4778 9.82413 10.2422 10.4423C10.1459 10.6893 10.0727 10.9266 10.0182 11.1689Z" fill="black"/>
</svg>
