<svg width="30" height="30" viewBox="0 0 30 30" xmlns="http://www.w3.org/2000/svg">
<path d="M14.9037 19.9857C13.9363 19.9857 13.152 20.77 13.152 21.7375C13.152 22.705 13.9363 23.4892 14.9037 23.4892H14.972C15.9394 23.4892 16.7237 22.705 16.7237 21.7375C16.7237 20.77 15.9394 19.9857 14.972 19.9857H14.9037ZM9.56534 10.6528C9.39575 11.4078 9.9898 12.0827 10.7537 12.2061L11.0285 12.2505C11.8308 12.3802 12.6633 11.7693 12.865 10.982C12.9457 10.6477 13.0882 10.3313 13.285 10.0492C13.4775 9.78324 13.719 9.57149 14.0147 9.41224C14.3105 9.25299 14.6622 9.17249 15.0717 9.17249C15.679 9.17249 16.1532 9.33874 16.4945 9.67299C16.8357 10.0055 17.0055 10.5217 17.0055 11.22C17.0212 11.6295 16.9495 11.9725 16.7902 12.2437C16.631 12.5167 16.4227 12.7687 16.1637 12.9962C15.9065 13.2237 15.6265 13.4512 15.3237 13.6787C15.0192 13.9062 14.7305 14.174 14.4575 14.4837C14.1659 14.8233 13.9243 15.2028 13.74 15.6107C13.537 16.05 13.411 16.596 13.3655 17.2487C13.3655 17.8141 13.8238 18.2725 14.3892 18.2725H15.5722C16.0497 18.2725 16.4367 17.8854 16.4367 17.408C16.498 16.953 16.6467 16.5732 16.8812 16.2705C17.1157 15.9677 17.3852 15.6982 17.688 15.4637C17.9925 15.2275 18.3145 14.993 18.6557 14.7585C19.3974 14.2541 19.9686 13.5365 20.2937 12.7005C20.4827 12.228 20.5772 11.6295 20.5772 10.9015C20.5572 9.829 20.1159 8.80747 19.3487 8.05774C18.9095 7.61849 18.3302 7.25099 17.6092 6.95524C16.8882 6.65774 15.9905 6.51074 14.9142 6.51074C14.0795 6.51074 13.3252 6.65074 12.6497 6.93074C11.9976 7.19607 11.4085 7.59554 10.9207 8.10324C10.435 8.6152 10.0555 9.21831 9.80422 9.87774C9.70156 10.1411 9.62342 10.3943 9.56534 10.6528Z" fill="black"/>
</svg>
