<svg width="30" height="30" viewBox="0 0 30 30" xmlns="http://www.w3.org/2000/svg">
<path d="M12.6562 14.9941C12.6562 15.6157 12.9032 16.2119 13.3427 16.6514C13.7823 17.091 14.3784 17.3379 15 17.3379C15.6216 17.3379 16.2177 17.091 16.6573 16.6514C17.0968 16.2119 17.3438 15.6157 17.3438 14.9941C17.3438 14.3725 17.0968 13.7764 16.6573 13.3369C16.2177 12.8973 15.6216 12.6504 15 12.6504C14.3784 12.6504 13.7823 12.8973 13.3427 13.3369C12.9032 13.7764 12.6562 14.3725 12.6562 14.9941Z" fill="black"/>
<path d="M29 14.9928C29 13.0325 26.6963 11.3344 23.1159 10.3074C24.0181 6.69269 23.6997 3.84898 22.0016 2.86883C20.3003 1.88867 17.6783 3.03427 15 5.62201C12.3217 3.03427 9.69967 1.88867 7.99844 2.86883C6.30033 3.84898 5.98194 6.69581 6.88406 10.3074C3.30368 11.3344 1 13.0325 1 14.9928C1 16.9531 3.30368 18.6512 6.88406 19.6782C5.98194 23.2898 6.30033 26.1366 7.99844 27.1168C8.41672 27.3602 8.89119 27.4789 9.40936 27.4789C10.6486 27.4789 12.1501 26.7984 13.7795 25.4748C14.1853 25.144 14.5942 24.7694 15 24.3761C15.4058 24.7694 15.8147 25.144 16.2205 25.4748C17.8499 26.7984 19.3483 27.4789 20.5906 27.4789C21.1088 27.4789 21.5833 27.3602 22.0016 27.1168C23.6997 26.1366 24.0181 23.2929 23.1159 19.6782C26.6963 18.6512 29 16.9531 29 14.9928ZM21.3929 3.9239C22.4948 4.56069 22.7258 6.86749 21.9423 10.0046C20.7967 9.74241 19.548 9.54575 18.2183 9.42401C17.4473 8.3346 16.6513 7.35133 15.8522 6.48979C17.7001 4.70116 19.4169 3.73037 20.5969 3.73037C20.8965 3.72725 21.165 3.7928 21.3929 3.9239ZM18.9019 17.2465C18.4711 17.9957 18.0154 18.7136 17.5503 19.4004C16.7356 19.4628 15.8865 19.4971 15 19.4971C14.1166 19.4971 13.2676 19.4628 12.4528 19.4004C11.9846 18.7136 11.532 17.9926 11.1012 17.2465C10.6611 16.4818 10.2678 15.7295 9.91193 14.9928C10.2678 14.2561 10.6611 13.5038 11.1012 12.7391C11.5414 11.9743 11.9971 11.2595 12.456 10.5821C13.2707 10.5197 14.1197 10.4853 15.0031 10.4853C15.8865 10.4853 16.7356 10.5197 17.5503 10.5821C18.0091 11.2563 18.4649 11.9743 18.905 12.7359C19.3451 13.5007 19.7385 14.253 20.0943 14.9897C19.7353 15.7295 19.342 16.4818 18.9019 17.2465ZM20.7373 16.4225C21.087 17.2528 21.3741 18.0488 21.6114 18.8104C20.8341 18.9852 19.9975 19.135 19.1048 19.2474C19.3951 18.7948 19.6792 18.3328 19.957 17.8552C20.2317 17.3745 20.4907 16.8969 20.7373 16.4225ZM15 22.6311C14.4475 22.0318 13.9043 21.3794 13.3706 20.6771C13.9043 20.7021 14.4475 20.7177 15 20.7177C15.5525 20.7177 16.0957 20.7021 16.6294 20.6771C16.0957 21.3794 15.5525 22.0318 15 22.6311ZM10.8952 19.2474C10.0025 19.135 9.16901 18.9852 8.38863 18.8104C8.62586 18.0488 8.91304 17.2528 9.26265 16.4225C9.50925 16.8969 9.76522 17.3745 10.043 17.8552C10.3208 18.3297 10.6049 18.7917 10.8952 19.2474ZM9.26265 13.5631C8.91304 12.7328 8.62586 11.9368 8.38863 11.1752C9.16589 11.0004 9.99933 10.8505 10.8921 10.7382C10.6049 11.1877 10.3177 11.6497 10.043 12.1304C9.76834 12.6111 9.50925 13.0887 9.26265 13.5631ZM15 7.35445C15.54 7.93817 16.0863 8.59681 16.6263 9.31164C16.0925 9.28667 15.5525 9.27106 15 9.27106C14.4475 9.27106 13.9075 9.28667 13.3737 9.31164C13.9137 8.59681 14.46 7.93817 15 7.35445ZM19.9538 12.1304C19.676 11.6528 19.392 11.1908 19.1048 10.7382C19.9975 10.8505 20.831 11.0004 21.6082 11.1752C21.371 11.9368 21.0838 12.7328 20.7342 13.5631C20.4907 13.0887 20.2317 12.6111 19.9538 12.1304ZM8.60714 3.9239C8.83188 3.7928 9.10033 3.73037 9.40624 3.73037C10.5862 3.73037 12.2999 4.70116 14.1478 6.48979C13.3487 7.35133 12.5527 8.33773 11.7817 9.42401C10.4551 9.54575 9.20334 9.74241 8.05775 10.0046C7.27425 6.86437 7.50836 4.55757 8.60714 3.9239ZM2.21739 14.9928C2.21739 13.7192 4.09967 12.3645 7.21182 11.478C7.55831 12.6017 8.01093 13.7816 8.56968 14.9928C8.01405 16.2039 7.55831 17.3839 7.21182 18.5076C4.09967 17.6211 2.21739 16.2633 2.21739 14.9928ZM13.0116 24.529C11.148 26.043 9.54359 26.6017 8.60714 26.0648C7.50524 25.428 7.27425 23.1212 8.05775 19.9841C9.20334 20.2463 10.452 20.443 11.7817 20.5647C12.5434 21.6416 13.3394 22.628 14.1478 23.5052C13.7701 23.8704 13.3924 24.22 13.0116 24.529ZM21.3929 26.0648C20.4595 26.6048 18.852 26.0461 16.9884 24.529C16.6107 24.22 16.2299 23.8704 15.8491 23.5052C16.6606 22.628 17.4535 21.6416 18.2152 20.5647C19.5418 20.443 20.7935 20.2463 21.9391 19.981C22.7258 23.1212 22.4916 25.428 21.3929 26.0648ZM22.7913 18.5076C22.4448 17.3839 21.9922 16.2039 21.4334 14.9928C21.9891 13.7816 22.4448 12.6017 22.7913 11.478C25.9035 12.3676 27.7857 13.7223 27.7857 14.9928C27.7826 16.2633 25.9003 17.6211 22.7913 18.5076Z" fill="black"/>
</svg>
