<svg width="31" height="30" viewBox="0 0 31 30" xmlns="http://www.w3.org/2000/svg">
<path fill-rule="evenodd" clip-rule="evenodd" d="M15.375 4C9.29987 4 4.375 8.92487 4.375 15C4.375 21.0751 9.29987 26 15.375 26C21.4501 26 26.375 21.0751 26.375 15C26.375 8.92487 21.4501 4 15.375 4ZM15.375 6.29468C10.567 6.29468 6.66943 10.1923 6.66943 15.0002C6.66943 19.8082 10.567 23.7058 15.375 23.7058C20.183 23.7058 24.0806 19.8082 24.0806 15.0002C24.0806 10.1923 20.183 6.29468 15.375 6.29468Z" fill="black"/>
<path d="M11.3069 15C11.3069 12.7532 13.1282 10.9319 15.375 10.9319C17.6218 10.9319 19.4431 12.7532 19.4431 15C19.4431 17.2468 17.6218 19.0681 15.375 19.0681C13.1282 19.0681 11.3069 17.2468 11.3069 15Z" fill="black"/>
</svg>
