<svg width="31" height="31" viewBox="0 0 31 31"  xmlns="http://www.w3.org/2000/svg">
<path d="M28.7178 13.7208C28.5028 10.7327 27.3309 8.17894 25.2021 6.05956C23.0734 3.94019 20.5246 2.76331 17.5559 2.52894C17.2434 2.50956 16.9749 2.60238 16.7506 2.80738C16.5262 3.01238 16.414 3.27113 16.414 3.58363C16.414 3.85738 16.5068 4.09675 16.6924 4.30175C16.8781 4.50675 17.1074 4.61894 17.3806 4.63831C18.4549 4.71644 19.4999 4.9705 20.5156 5.4005C21.7068 5.90863 22.7712 6.62644 23.7087 7.55394C24.6462 8.48144 25.369 9.55081 25.8771 10.7621C26.3071 11.7583 26.5612 12.7936 26.6393 13.868C26.6587 14.1418 26.7709 14.3711 26.9759 14.5561C27.1809 14.7411 27.4203 14.8339 27.694 14.8346C27.9871 14.8346 28.2412 14.7271 28.4562 14.5121C28.6712 14.2777 28.759 14.0139 28.7196 13.7208H28.7178Z" fill="black"/>
</svg>
