<svg width="31" height="30" viewBox="0 0 31 30" fill="none" xmlns="http://www.w3.org/2000/svg">
<path d="M7.35815 18.148C7.35815 17.41 7.95638 16.8118 8.69434 16.8118H22.0557C22.7936 16.8118 23.3918 17.41 23.3918 18.148C23.3918 18.886 22.7936 19.4842 22.0557 19.4842H8.69434C7.95638 19.4842 7.35815 18.886 7.35815 18.148Z" fill="black"/>
<path d="M15.3751 27.5C14.6371 27.5 14.0389 26.9018 14.0389 26.1638V12.9358C14.0389 12.1978 14.6371 11.5996 15.3751 11.5996C16.113 11.5996 16.7113 12.1978 16.7113 12.9358V26.1638C16.7113 26.9018 16.113 27.5 15.3751 27.5Z" fill="black"/>
<path d="M7.35815 12.9358C7.35815 12.1978 7.95638 11.5996 8.69434 11.5996H22.0557C22.7936 11.5996 23.3918 12.1978 23.3918 12.9358C23.3918 13.6737 22.7936 14.272 22.0557 14.272H8.69434C7.95638 14.272 7.35815 13.6737 7.35815 12.9358Z" fill="black"/>
<path d="M8.99512 2.71572C9.61402 2.3138 10.4416 2.4897 10.8435 3.1086L15.5524 10.3597C15.9543 10.9786 15.7784 11.8061 15.1595 12.2081C14.5406 12.61 13.7131 12.4341 13.3112 11.8152L8.60224 4.56407C8.20032 3.94517 8.37622 3.11764 8.99512 2.71572Z" fill="black"/>
<path d="M15.8964 12.2082C15.2775 11.8063 15.1016 10.9788 15.5035 10.3599L20.2124 3.10876C20.6143 2.48986 21.4419 2.31396 22.0608 2.71588C22.6797 3.1178 22.8556 3.94533 22.4537 4.56423L17.7447 11.8153C17.3428 12.4342 16.5153 12.6101 15.8964 12.2082Z" fill="black"/>
</svg>
