<svg width="30" height="30" viewBox="0 0 30 30"  xmlns="http://www.w3.org/2000/svg">
<path fill-rule="evenodd" clip-rule="evenodd" d="M1 8.38647C1 7.28191 1.89543 6.38647 3 6.38647H27C28.1046 6.38647 29 7.28191 29 8.38647V19.3413C29 20.4459 28.1046 21.3413 27 21.3413H17.2662C17.2828 21.4451 17.2914 21.5515 17.2914 21.6599V23.6045C17.2914 24.7091 16.396 25.6045 15.2914 25.6045H14.7086C13.604 25.6045 12.7086 24.7091 12.7086 23.6045V21.6599C12.7086 21.5515 12.7172 21.4451 12.7338 21.3413H3C1.89543 21.3413 1 20.4459 1 19.3413V8.38647ZM4.69031 8.09375C3.58574 8.09375 2.69031 8.98918 2.69031 10.0938V17.6343C2.69031 18.7388 3.58574 19.6343 4.69031 19.6343H25.3097C26.4142 19.6343 27.3097 18.7388 27.3097 17.6343V10.0938C27.3097 8.98918 26.4142 8.09375 25.3097 8.09375H4.69031Z" fill="black"/>
<path d="M3.93568 11.9172H4.99623L7.75893 14.2375L7.76186 11.9172H8.40639V16.2708H7.34584L4.58022 13.9592V16.2708H3.93568V11.9172Z" fill="black"/>
<path d="M22.171 15.304C22.3781 15.4094 22.5948 15.4885 22.8214 15.5413C23.048 15.594 23.2589 15.6204 23.4542 15.6204C23.6788 15.6204 23.8429 15.5881 23.9464 15.5237C24.0519 15.4592 24.1046 15.3713 24.1046 15.26C24.1046 15.2249 24.0978 15.1887 24.0841 15.1516C24.0724 15.1145 24.048 15.0784 24.0109 15.0432C23.9757 15.0061 23.9259 14.97 23.8615 14.9348C23.799 14.8977 23.7169 14.8616 23.6154 14.8264L23.0909 14.6477C22.7159 14.5188 22.4337 14.345 22.2443 14.1262C22.0548 13.9055 21.9601 13.6438 21.9601 13.3411C21.9601 13.1458 22.0011 12.9583 22.0831 12.7786C22.1652 12.5969 22.2892 12.4377 22.4552 12.301C22.6212 12.1624 22.8302 12.052 23.0822 11.97C23.3361 11.8879 23.6329 11.8469 23.9728 11.8469C24.1407 11.8469 24.3019 11.8567 24.4562 11.8762C24.6105 11.8958 24.755 11.9211 24.8898 11.9524C25.0265 11.9836 25.1515 12.0198 25.2648 12.0608C25.3781 12.0999 25.4777 12.1389 25.5636 12.178L25.2472 12.7493C25.1847 12.7102 25.1183 12.676 25.048 12.6467C24.9796 12.6174 24.9103 12.593 24.84 12.5735C24.7716 12.554 24.7042 12.5393 24.6378 12.5295C24.5714 12.5198 24.5109 12.5149 24.4562 12.5149C24.3624 12.5149 24.2804 12.5276 24.2101 12.553C24.1398 12.5764 24.0802 12.6086 24.0314 12.6497C23.9845 12.6887 23.9484 12.7336 23.923 12.7844C23.8995 12.8333 23.8878 12.8821 23.8878 12.9309C23.8878 12.9739 23.8976 13.0159 23.9171 13.0569C23.9386 13.0959 23.9738 13.135 24.0226 13.1741C24.0734 13.2112 24.1388 13.2493 24.2189 13.2883C24.3009 13.3254 24.4025 13.3645 24.5236 13.4055L24.8751 13.5227C25.256 13.6497 25.547 13.8245 25.7482 14.0471C25.9493 14.2698 26.0499 14.5393 26.0499 14.8557C26.0499 15.0706 26.0011 15.2688 25.9034 15.4504C25.8077 15.6321 25.6642 15.7893 25.4728 15.9221C25.2814 16.053 25.0431 16.1555 24.7579 16.2297C24.4747 16.302 24.1456 16.3381 23.7706 16.3381C23.5909 16.3381 23.4171 16.3284 23.2491 16.3088C23.0831 16.2913 22.92 16.2639 22.7599 16.2268C22.6017 16.1897 22.4454 16.1428 22.2911 16.0862C22.1368 16.0295 21.9825 15.9631 21.8282 15.887L22.171 15.304Z" fill="black"/>
</svg>
