<svg width="30" height="30" viewBox="0 0 30 30" xmlns="http://www.w3.org/2000/svg">
<path d="M13.802 16.0583C14.0184 15.6513 14.5238 15.4968 14.9309 15.7132C15.3379 15.9296 15.4924 16.4351 15.276 16.8421L13.7528 19.7068C13.5364 20.1139 13.0309 20.2684 12.6239 20.052C12.2169 19.8355 12.0623 19.3301 12.2788 18.9231L13.802 16.0583Z" fill="black"/>
<path d="M17.8889 15.7132C17.4818 15.4968 16.9764 15.6513 16.76 16.0583L15.2368 18.9231C15.0203 19.3301 15.1749 19.8355 15.5819 20.052C15.9889 20.2684 16.4944 20.1139 16.7108 19.7068L18.234 16.8421C18.4504 16.4351 18.2959 15.9296 17.8889 15.7132Z" fill="black"/>
<path fill-rule="evenodd" clip-rule="evenodd" d="M4.21388 3.84097L1.4873 17.3948C1.4873 18.9295 1.4873 21.83 4.80932 22.244C2.96951 22.274 1.4873 23.7748 1.4873 25.6218C1.4873 27.4875 2.99979 29 4.86553 29C6.73128 29 8.24376 27.4875 8.24376 25.6218C8.24376 27.4875 9.75625 29 11.622 29C13.4877 29 15.0002 27.4875 15.0002 25.6218C15.0002 27.4875 16.5127 29 18.3785 29C20.2442 29 21.7567 27.4875 21.7567 25.6218C21.7567 27.4875 23.2692 29 25.1349 29C27.0007 29 28.5131 27.4875 28.5131 25.6218C28.5131 23.756 27.0007 22.2435 25.1349 22.2435C23.2692 22.2435 21.7567 23.756 21.7567 25.6218C21.7567 23.911 20.485 22.4972 18.8354 22.2742H23.8452C25.1349 22.2438 26.453 21.6019 26.9873 21C27.3473 20.5945 28.9957 17.4484 25.1349 14.5527C24.3737 13.7915 22.7119 13.7057 20.9486 13.6146C18.7095 13.4989 15.3978 12.9371 15.0002 10.6917C15.7273 10.3302 16.9306 9.53094 16.9306 7.79605C16.9306 6.06116 15.4828 4.90065 14.5176 4.90065V2.97003C13.0698 -0.408435 8.72637 1.00901 8.57639 3.84097C5.95888 1.23864 4.57742 2.75667 4.21388 3.84097ZM15.0002 25.6218C15.0002 23.911 13.7285 22.4972 12.0789 22.2742H17.9215C16.2719 22.4972 15.0002 23.911 15.0002 25.6218ZM8.24376 25.6218C8.24376 23.911 6.97208 22.4972 5.32244 22.2742H11.1651C9.51544 22.4972 8.24376 23.911 8.24376 25.6218ZM5.66199 4.86984C5.77223 4.06987 6.16337 3.23647 8.57639 5.64949C8.95402 6.02712 9.83712 5.83558 9.83712 4.90065C9.83712 2.32176 12.5021 1.90052 13.1531 3.9435V5.98648C14.0411 5.98648 15.6923 6.29988 15.6923 7.79605C15.6923 8.55066 15.456 8.75119 14.9954 9.14215L14.9169 9.20891L5.11932 9.08254L5.66199 4.86984ZM3.37949 16.5683L4.59443 10.6917H13.1531C13.6614 14.6803 17.9464 15.0221 19.6963 15.1524C19.9721 15.1499 20.548 15.1512 20.8132 15.1524C22.0052 15.1578 22.9842 15.3283 23.6614 15.5991C25.6637 16.7719 26.2676 18.8556 25.6637 19.4931C25.1721 20.0122 24.4836 20.4145 23.0357 20.4147H5.66199C3.52037 20.4147 2.89686 18.0161 3.37949 16.5683ZM4.86553 27.3109C3.93266 27.3109 3.17642 26.5546 3.17642 25.6218C3.17642 24.6889 3.93266 23.9327 4.86553 23.9327C5.79841 23.9327 6.55465 24.6889 6.55465 25.6218C6.55465 26.5546 5.79841 27.3109 4.86553 27.3109ZM11.622 27.3109C10.6891 27.3109 9.93288 26.5546 9.93288 25.6218C9.93288 24.6889 10.6891 23.9327 11.622 23.9327C12.5549 23.9327 13.3111 24.6889 13.3111 25.6218C13.3111 26.5546 12.5549 27.3109 11.622 27.3109ZM20.0676 25.6218C20.0676 26.5546 19.3113 27.3109 18.3785 27.3109C17.4456 27.3109 16.6893 26.5546 16.6893 25.6218C16.6893 24.6889 17.4456 23.9327 18.3785 23.9327C19.3113 23.9327 20.0676 24.6889 20.0676 25.6218ZM25.1349 27.3109C24.202 27.3109 23.4458 26.5546 23.4458 25.6218C23.4458 24.6889 24.202 23.9327 25.1349 23.9327C26.0678 23.9327 26.824 24.6889 26.824 25.6218C26.824 26.5546 26.0678 27.3109 25.1349 27.3109Z" fill="black"/>
</svg>
