<svg width="30" height="30" viewBox="0 0 30 30" xmlns="http://www.w3.org/2000/svg">
<path d="M15 29C7.2685 29 1 22.7315 1 15C1 7.2685 7.2685 1 15 1C22.7315 1 29 7.2685 29 15C29 22.7315 22.7315 29 15 29ZM15 27.5147C21.9483 27.5147 27.5769 21.7938 27.5769 15C27.5769 8.07387 21.9922 2.36987 15 2.36987C7.67005 2.36987 2.45452 8.20408 2.45452 15C2.45452 21.6815 7.89362 27.5147 15 27.5147ZM15 3.33333C15.0774 3.33333 15.1515 3.36406 15.2062 3.41876C15.2609 3.47346 15.2917 3.54765 15.2917 3.625V4.79167C15.2917 4.82997 15.2841 4.8679 15.2695 4.90328C15.2548 4.93867 15.2333 4.97082 15.2062 4.99791C15.1792 5.02499 15.147 5.04647 15.1116 5.06113C15.0762 5.07579 15.0383 5.08333 15 5.08333C14.9617 5.08333 14.9238 5.07579 14.8884 5.06113C14.853 5.04647 14.8208 5.02499 14.7938 4.99791C14.7667 4.97082 14.7452 4.93867 14.7305 4.90328C14.7159 4.8679 14.7083 4.82997 14.7083 4.79167V3.625C14.7083 3.54765 14.7391 3.47346 14.7938 3.41876C14.8485 3.36406 14.9226 3.33333 15 3.33333ZM15 24.9167C15.0774 24.9167 15.1515 24.9474 15.2062 25.0021C15.2609 25.0568 15.2917 25.131 15.2917 25.2083V26.375C15.2917 26.4133 15.2841 26.4512 15.2695 26.4866C15.2548 26.522 15.2333 26.5542 15.2062 26.5812C15.1792 26.6083 15.147 26.6298 15.1116 26.6445C15.0762 26.6591 15.0383 26.6667 15 26.6667C14.9617 26.6667 14.9238 26.6591 14.8884 26.6445C14.853 26.6298 14.8208 26.6083 14.7938 26.5812C14.7667 26.5542 14.7452 26.522 14.7305 26.4866C14.7159 26.4512 14.7083 26.4133 14.7083 26.375V25.2083C14.7083 25.131 14.7391 25.0568 14.7938 25.0021C14.8485 24.9474 14.9226 24.9167 15 24.9167ZM23.2495 6.7505C23.304 6.80517 23.3346 6.87922 23.3346 6.95642C23.3346 7.03361 23.304 7.10766 23.2495 7.16233L22.4247 7.98833C22.3699 8.0431 22.2956 8.07387 22.2182 8.07387C22.1407 8.07387 22.0664 8.0431 22.0117 7.98833C21.9569 7.93357 21.9261 7.85929 21.9261 7.78183C21.9261 7.70438 21.9569 7.6301 22.0117 7.57533L22.8377 6.7505C22.8923 6.696 22.9664 6.66539 23.0436 6.66539C23.1208 6.66539 23.1948 6.696 23.2495 6.7505ZM7.98833 22.0117C8.0155 22.0388 8.03705 22.0709 8.05175 22.1064C8.06645 22.1418 8.07402 22.1798 8.07402 22.2182C8.07402 22.2565 8.06645 22.2945 8.05175 22.33C8.03705 22.3654 8.0155 22.3976 7.98833 22.4247L7.16233 23.2495C7.13589 23.2791 7.10369 23.303 7.06771 23.3197C7.03172 23.3364 6.9927 23.3456 6.95304 23.3467C6.91338 23.3478 6.87391 23.3408 6.83705 23.3261C6.80018 23.3114 6.7667 23.2894 6.73864 23.2614C6.71059 23.2333 6.68855 23.1998 6.67388 23.163C6.65921 23.1261 6.65222 23.0866 6.65333 23.047C6.65444 23.0073 6.66363 22.9683 6.68034 22.9323C6.69705 22.8963 6.72092 22.8641 6.7505 22.8377L7.57533 22.0117C7.60243 21.9845 7.63461 21.963 7.67005 21.9483C7.70548 21.9335 7.74347 21.926 7.78183 21.926C7.8202 21.926 7.85818 21.9335 7.89362 21.9483C7.92905 21.963 7.96124 21.9845 7.98833 22.0117ZM6.7505 6.75167C6.80517 6.69717 6.87922 6.66656 6.95642 6.66656C7.03361 6.66656 7.10766 6.69717 7.16233 6.75167L7.98833 7.5765C8.0431 7.63127 8.07387 7.70555 8.07387 7.783C8.07387 7.86045 8.0431 7.93473 7.98833 7.9895C7.93357 8.04427 7.85929 8.07504 7.78183 8.07504C7.70438 8.07504 7.6301 8.04427 7.57533 7.9895L6.7505 7.1635C6.696 7.10883 6.66539 7.03478 6.66539 6.95758C6.66539 6.88039 6.696 6.80634 6.7505 6.75167ZM22.0117 22.0117C22.0388 21.9845 22.0709 21.963 22.1064 21.9483C22.1418 21.9335 22.1798 21.926 22.2182 21.926C22.2565 21.926 22.2945 21.9335 22.33 21.9483C22.3654 21.963 22.3976 21.9845 22.4247 22.0117L23.2495 22.8377C23.2791 22.8641 23.303 22.8963 23.3197 22.9323C23.3364 22.9683 23.3456 23.0073 23.3467 23.047C23.3478 23.0866 23.3408 23.1261 23.3261 23.163C23.3114 23.1998 23.2894 23.2333 23.2614 23.2614C23.2333 23.2894 23.1998 23.3114 23.163 23.3261C23.1261 23.3408 23.0866 23.3478 23.047 23.3467C23.0073 23.3456 22.9683 23.3364 22.9323 23.3197C22.8963 23.303 22.8641 23.2791 22.8377 23.2495L22.0117 22.4247C21.9845 22.3976 21.963 22.3654 21.9483 22.33C21.9335 22.2945 21.926 22.2565 21.926 22.2182C21.926 22.1798 21.9335 22.1418 21.9483 22.1064C21.963 22.0709 21.9845 22.0388 22.0117 22.0117ZM3.33333 15C3.33333 14.9226 3.36406 14.8485 3.41876 14.7938C3.47346 14.7391 3.54765 14.7083 3.625 14.7083H4.79167C4.82997 14.7083 4.8679 14.7159 4.90328 14.7305C4.93867 14.7452 4.97082 14.7667 4.99791 14.7938C5.02499 14.8208 5.04647 14.853 5.06113 14.8884C5.07579 14.9238 5.08333 14.9617 5.08333 15C5.08333 15.0383 5.07579 15.0762 5.06113 15.1116C5.04647 15.147 5.02499 15.1792 4.99791 15.2062C4.97082 15.2333 4.93867 15.2548 4.90328 15.2695C4.8679 15.2841 4.82997 15.2917 4.79167 15.2917H3.625C3.54765 15.2917 3.47346 15.2609 3.41876 15.2062C3.36406 15.1515 3.33333 15.0774 3.33333 15ZM24.9167 15C24.9167 14.9226 24.9474 14.8485 25.0021 14.7938C25.0568 14.7391 25.131 14.7083 25.2083 14.7083H26.375C26.4133 14.7083 26.4512 14.7159 26.4866 14.7305C26.522 14.7452 26.5542 14.7667 26.5812 14.7938C26.6083 14.8208 26.6298 14.853 26.6445 14.8884C26.6591 14.9238 26.6667 14.9617 26.6667 15C26.6667 15.0383 26.6591 15.0762 26.6445 15.1116C26.6298 15.147 26.6083 15.1792 26.5812 15.2062C26.5542 15.2333 26.522 15.2548 26.4866 15.2695C26.4512 15.2841 26.4133 15.2917 26.375 15.2917H25.2083C25.131 15.2917 25.0568 15.2609 25.0021 15.2062C24.9474 15.1515 24.9167 15.0774 24.9167 15ZM19.5582 4.26083C19.5935 4.27574 19.6256 4.29747 19.6525 4.32477C19.6794 4.35208 19.7007 4.38444 19.7151 4.41998C19.7295 4.45553 19.7368 4.49356 19.7365 4.53192C19.7362 4.57027 19.7283 4.60819 19.7133 4.6435L19.2572 5.71683C19.2433 5.75354 19.2221 5.78706 19.1949 5.81539C19.1677 5.84372 19.1351 5.86627 19.099 5.88169C19.0629 5.89711 19.0241 5.90509 18.9848 5.90515C18.9456 5.90521 18.9067 5.89734 18.8706 5.88202C18.8344 5.8667 18.8018 5.84424 18.7745 5.81599C18.7473 5.78774 18.726 5.75428 18.712 5.71762C18.698 5.68095 18.6915 5.64183 18.693 5.60261C18.6944 5.56338 18.7038 5.52485 18.7205 5.48933L19.1755 4.416C19.1904 4.38066 19.2121 4.3486 19.2394 4.32167C19.2668 4.29474 19.2991 4.27345 19.3346 4.25904C19.3702 4.24463 19.4082 4.23737 19.4466 4.23768C19.4849 4.23798 19.5229 4.24585 19.5582 4.26083ZM11.1267 24.1292C11.1975 24.1595 11.2535 24.2166 11.2824 24.2881C11.3112 24.3596 11.3106 24.4396 11.2807 24.5107L10.8257 25.584C10.7936 25.6522 10.7363 25.7054 10.6659 25.7323C10.5954 25.7592 10.5173 25.7578 10.4479 25.7284C10.3785 25.699 10.3232 25.6438 10.2935 25.5745C10.2639 25.5051 10.2623 25.427 10.289 25.3565L10.744 24.2832C10.7589 24.2478 10.7806 24.2158 10.8079 24.1888C10.8352 24.1619 10.8676 24.1406 10.9031 24.1262C10.9387 24.1118 10.9767 24.1045 11.0151 24.1048C11.0534 24.1052 11.0914 24.113 11.1267 24.128V24.1292ZM25.8173 10.6285C25.8462 10.7001 25.8454 10.7803 25.8152 10.8514C25.785 10.9224 25.7279 10.9787 25.6563 11.0077L24.5748 11.4452C24.5393 11.4596 24.5013 11.4668 24.4629 11.4665C24.4246 11.4662 24.3866 11.4584 24.3513 11.4434C24.316 11.4285 24.284 11.4067 24.2571 11.3794C24.2302 11.3521 24.2089 11.3197 24.1945 11.2842C24.1801 11.2486 24.1728 11.2106 24.1731 11.1722C24.1734 11.1339 24.1813 11.096 24.1962 11.0607C24.2112 11.0253 24.2329 10.9933 24.2603 10.9664C24.2876 10.9395 24.32 10.9182 24.3555 10.9038L25.437 10.4675C25.4725 10.453 25.5106 10.4457 25.5489 10.446C25.5873 10.4463 25.6252 10.4541 25.6606 10.4691C25.6959 10.484 25.7279 10.5058 25.7548 10.5332C25.7817 10.5605 25.803 10.5929 25.8173 10.6285ZM5.8055 18.7135C5.81995 18.749 5.82725 18.7871 5.82698 18.8254C5.82671 18.8638 5.81887 18.9017 5.80391 18.9371C5.78896 18.9724 5.76718 19.0044 5.73982 19.0313C5.71247 19.0582 5.68008 19.0795 5.6445 19.0938L4.563 19.5302C4.52726 19.5461 4.48868 19.5547 4.44955 19.5554C4.41042 19.5561 4.37155 19.549 4.33525 19.5344C4.29895 19.5197 4.26596 19.498 4.23824 19.4703C4.21053 19.4427 4.18866 19.4098 4.17394 19.3735C4.15922 19.3373 4.15194 19.2984 4.15254 19.2593C4.15315 19.2202 4.16162 19.1816 4.17746 19.1458C4.1933 19.11 4.21617 19.0777 4.24473 19.051C4.27328 19.0242 4.30693 19.0035 4.34367 18.99L5.42517 18.5525C5.46071 18.538 5.49875 18.5307 5.53711 18.531C5.57547 18.5313 5.61341 18.5391 5.64874 18.5541C5.68407 18.569 5.7161 18.5908 5.743 18.6182C5.7699 18.6455 5.79114 18.6779 5.8055 18.7135ZM10.6297 4.18267C10.7013 4.15384 10.7815 4.1546 10.8525 4.18479C10.9236 4.21497 10.9798 4.2721 11.0088 4.34367L11.4463 5.42517C11.4754 5.49695 11.4748 5.57735 11.4446 5.64868C11.4144 5.72 11.3571 5.77641 11.2853 5.8055C11.2135 5.83459 11.1331 5.83396 11.0618 5.80377C10.9905 5.77358 10.9341 5.71629 10.905 5.6445L10.4687 4.563C10.4542 4.52746 10.4469 4.48942 10.4472 4.45106C10.4475 4.41269 10.4553 4.37476 10.4703 4.33943C10.4852 4.3041 10.507 4.27207 10.5343 4.24517C10.5617 4.21827 10.5941 4.19703 10.6297 4.18267ZM18.7147 24.1945C18.7502 24.18 18.7882 24.1727 18.8266 24.173C18.865 24.1733 18.9029 24.1811 18.9382 24.1961C18.9736 24.211 19.0056 24.2328 19.0325 24.2602C19.0594 24.2875 19.0806 24.3199 19.095 24.3555L19.5313 25.437C19.5473 25.4727 19.5559 25.5113 19.5566 25.5504C19.5573 25.5896 19.5501 25.6284 19.5355 25.6648C19.5209 25.7011 19.4991 25.734 19.4715 25.7618C19.4439 25.7895 19.411 25.8113 19.3747 25.8261C19.3384 25.8408 19.2996 25.8481 19.2605 25.8475C19.2213 25.8468 19.1827 25.8384 19.1469 25.8225C19.1112 25.8067 19.0789 25.7838 19.0522 25.7553C19.0254 25.7267 19.0047 25.6931 18.9912 25.6563L18.5537 24.5748C18.5392 24.5393 18.5319 24.5013 18.5322 24.4629C18.5325 24.4245 18.5403 24.3866 18.5553 24.3513C18.5702 24.3159 18.592 24.2839 18.6193 24.257C18.6467 24.2301 18.6791 24.2089 18.7147 24.1945ZM4.26083 10.4418C4.27574 10.4065 4.29747 10.3744 4.32477 10.3475C4.35208 10.3206 4.38444 10.2993 4.41998 10.2849C4.45553 10.2705 4.49356 10.2632 4.53192 10.2635C4.57027 10.2638 4.60819 10.2717 4.6435 10.2867L5.71683 10.7428C5.78506 10.7749 5.83821 10.8322 5.86513 10.9026C5.89205 10.9731 5.89065 11.0512 5.86122 11.1206C5.83179 11.19 5.77662 11.2453 5.70729 11.275C5.63795 11.3046 5.55984 11.3062 5.48933 11.2795L4.416 10.8245C4.38066 10.8096 4.3486 10.7879 4.32167 10.7606C4.29474 10.7333 4.27345 10.7009 4.25904 10.6654C4.24463 10.6298 4.23737 10.5918 4.23768 10.5534C4.23798 10.5151 4.24585 10.4771 4.26083 10.4418ZM24.1292 18.8745C24.1595 18.8036 24.2166 18.7476 24.2881 18.7188C24.3596 18.6899 24.4396 18.6905 24.5107 18.7205L25.584 19.1755C25.6207 19.1894 25.6542 19.2106 25.6826 19.2378C25.7109 19.2649 25.7334 19.2975 25.7489 19.3336C25.7643 19.3697 25.7723 19.4086 25.7723 19.4478C25.7724 19.4871 25.7645 19.5259 25.7492 19.5621C25.7339 19.5982 25.7114 19.6309 25.6832 19.6581C25.6549 19.6854 25.6214 19.7067 25.5848 19.7207C25.5481 19.7347 25.509 19.7412 25.4698 19.7397C25.4305 19.7382 25.392 19.7289 25.3565 19.7122L24.2832 19.2572C24.2478 19.2423 24.2158 19.2205 24.1888 19.1932C24.1619 19.1659 24.1406 19.1336 24.1262 19.098C24.1118 19.0625 24.1045 19.0244 24.1048 18.9861C24.1052 18.9477 24.113 18.9098 24.128 18.8745H24.1292ZM16.0255 16.0255L13.9733 13.9733L9.14217 20.8567L16.0243 16.0243L16.0255 16.0255ZM23.2495 6.7505L16.4432 16.4432L6.7505 23.2495L13.5568 13.5568L23.2495 6.7505Z" fill="black"/>
</svg>
