<svg width="30" height="31" viewBox="0 0 30 31" xmlns="http://www.w3.org/2000/svg">
<path d="M3 20.7586V25.5753C2.99986 26.1493 3.21909 26.7016 3.61282 27.1193C4.00655 27.5369 4.54501 27.7883 5.118 27.822L5.25 27.8253H10.0667C10.2133 27.8253 10.3333 27.9453 10.3333 28.092V29.5587C10.3333 29.5937 10.3264 29.6283 10.313 29.6607C10.2996 29.6931 10.28 29.7225 10.2552 29.7472C10.2305 29.772 10.2011 29.7916 10.1687 29.805C10.1364 29.8184 10.1017 29.8253 10.0667 29.8253H5.42133C4.24872 29.8253 3.12414 29.3595 2.29498 28.5303C1.46582 27.7012 1 26.5766 1 25.404V20.7586C1 20.612 1.12 20.492 1.26667 20.492H2.73333C2.88 20.492 3 20.612 3 20.7586ZM29 20.7586V25.404C29 26.5766 28.5342 27.7012 27.705 28.5303C26.8759 29.3595 25.7513 29.8253 24.5787 29.8253H19.9333C19.8983 29.8253 19.8636 29.8184 19.8313 29.805C19.7989 29.7916 19.7695 29.772 19.7448 29.7472C19.72 29.7225 19.7004 29.6931 19.687 29.6607C19.6736 29.6283 19.6667 29.5937 19.6667 29.5587V28.092C19.6667 27.9453 19.7867 27.8253 19.9333 27.8253H24.75C25.324 27.8255 25.8763 27.6062 26.294 27.2125C26.7116 26.8188 26.963 26.2803 26.9967 25.7073L27 25.5753V20.7586C27 20.612 27.12 20.492 27.2667 20.492H28.7333C28.88 20.492 29 20.612 29 20.7586ZM29 15.4253V16.892C29 16.927 28.9931 16.9617 28.9797 16.994C28.9663 17.0264 28.9467 17.0558 28.9219 17.0805C28.8971 17.1053 28.8677 17.125 28.8354 17.1384C28.803 17.1518 28.7684 17.1587 28.7333 17.1587H1.26667C1.23165 17.1587 1.19697 17.1518 1.16462 17.1384C1.13226 17.125 1.10287 17.1053 1.0781 17.0805C1.05334 17.0558 1.0337 17.0264 1.0203 16.994C1.0069 16.9617 1 16.927 1 16.892V15.4253C1 15.2787 1.12 15.1587 1.26667 15.1587H28.7333C28.88 15.1587 29 15.2787 29 15.4253ZM10.3333 2.09198V3.55865C10.3333 3.59367 10.3264 3.62835 10.313 3.6607C10.2996 3.69305 10.28 3.72245 10.2552 3.74721C10.2305 3.77197 10.2011 3.79162 10.1687 3.80502C10.1364 3.81842 10.1017 3.82532 10.0667 3.82532H5.25C4.67602 3.82518 4.12369 4.04441 3.70604 4.43814C3.28839 4.83187 3.03701 5.37033 3.00333 5.94332L3 6.07532V10.892C3 10.927 2.9931 10.9617 2.9797 10.994C2.9663 11.0264 2.94666 11.0558 2.9219 11.0805C2.89713 11.1053 2.86774 11.125 2.83538 11.1384C2.80303 11.1518 2.76835 11.1587 2.73333 11.1587H1.26667C1.23165 11.1587 1.19697 11.1518 1.16462 11.1384C1.13226 11.125 1.10287 11.1053 1.0781 11.0805C1.05334 11.0558 1.0337 11.0264 1.0203 10.994C1.0069 10.9617 1 10.927 1 10.892V6.24665C1 5.07404 1.46582 3.94946 2.29498 3.1203C3.12414 2.29114 4.24872 1.82532 5.42133 1.82532H10.0667C10.2133 1.82532 10.3333 1.94532 10.3333 2.09198ZM24.5787 1.82532C25.7513 1.82532 26.8759 2.29114 27.705 3.1203C28.5342 3.94946 29 5.07404 29 6.24665V10.892C29 10.927 28.9931 10.9617 28.9797 10.994C28.9663 11.0264 28.9467 11.0558 28.9219 11.0805C28.8971 11.1053 28.8677 11.125 28.8354 11.1384C28.803 11.1518 28.7684 11.1587 28.7333 11.1587H27.2667C27.2316 11.1587 27.197 11.1518 27.1646 11.1384C27.1323 11.125 27.1029 11.1053 27.0781 11.0805C27.0533 11.0558 27.0337 11.0264 27.0203 10.994C27.0069 10.9617 27 10.927 27 10.892V6.07532C27.0001 5.50134 26.7809 4.94901 26.3872 4.53136C25.9935 4.11371 25.455 3.86232 24.882 3.82865L24.75 3.82532H19.9333C19.8983 3.82532 19.8636 3.81842 19.8313 3.80502C19.7989 3.79162 19.7695 3.77197 19.7448 3.74721C19.72 3.72245 19.7004 3.69305 19.687 3.6607C19.6736 3.62835 19.6667 3.59367 19.6667 3.55865V2.09198C19.6667 1.94532 19.7867 1.82532 19.9333 1.82532H24.5787Z" fill="black"/>
</svg>
