<svg width="31" height="30" viewBox="0 0 31 30" xmlns="http://www.w3.org/2000/svg">
<path d="M19.7209 25.0328C19.9217 25.2118 20.2376 25.152 20.359 24.9119L29.7335 6.37026C30.222 5.40407 29.9578 4.22724 29.1032 3.5626C28.5818 3.15709 27.9092 2.99963 27.2619 3.13154L2.3053 8.21764C1.97641 8.28466 1.86334 8.69712 2.11207 8.92249L7.3168 13.6386C7.44964 13.759 7.64533 13.7789 7.79977 13.6879L9.34612 12.7766C9.52458 12.6715 9.54992 12.4234 9.39641 12.2843L7.23601 10.327C6.98725 10.1016 7.10034 9.68911 7.42925 9.6221L22.5562 6.54024C22.8961 6.471 23.0723 6.93001 22.7734 7.10597L9.25056 15.0671C9.09427 15.1591 8.99832 15.327 8.99832 15.5083V26.5036C8.99832 26.8462 9.3939 27.0374 9.66237 26.8246L14.2337 23.2003C14.383 23.0819 14.3896 22.8575 14.2475 22.7305L12.8967 21.5236C12.7852 21.424 12.6182 21.4191 12.5011 21.512L11.8964 21.9919C11.695 22.1516 11.3982 22.0082 11.3982 21.7512V18.2967C11.3982 18.0314 11.7119 17.8909 11.9099 18.0675L19.7209 25.0328ZM25.4165 8.33307C25.6808 8.17749 25.9848 8.46271 25.8464 8.73642L19.6237 21.0433C19.5023 21.2834 19.1864 21.3432 18.9856 21.1642L13.2939 16.0895C13.0866 15.9048 13.1194 15.5717 13.3587 15.4308L25.4165 8.33307Z" fill="black"/>
</svg>
