<svg width="30" height="30" viewBox="0 0 30 30" xmlns="http://www.w3.org/2000/svg">
<path d="M6.98475 1C5.9602 1 5.10133 1.77425 4.99546 2.79332L3.11459 20.8967C3.05329 21.4866 3.51608 22 4.10924 22H25.8907C26.4838 22 26.9466 21.4866 26.8853 20.8967L25.0045 2.79332C24.8986 1.77425 24.0397 1 23.0152 1H6.98475ZM8.62766 2.43182H21.3723C22.3996 2.43182 23.2598 3.21013 23.3623 4.23232L24.8897 19.4684C24.9487 20.0572 24.4864 20.5682 23.8947 20.5682H6.10522C5.5135 20.5682 5.05118 20.0572 5.11021 19.4684L6.63764 4.23232C6.74011 3.21013 7.60035 2.43182 8.62766 2.43182Z" fill="black"/>
<path d="M7 25C6.44772 25 6 25.4477 6 26C6 26.5523 6.44772 27 7 27H9C9.55229 27 10 26.5523 10 26C10 25.4477 9.55229 25 9 25H7Z" fill="black"/>
<path d="M5 23C3.89543 23 3 23.8954 3 25V27C3 28.1046 3.89543 29 5 29H25C26.1046 29 27 28.1046 27 27V25C27 23.8954 26.1046 23 25 23H5ZM5.5 24.5H24.5C25.0523 24.5 25.5 24.9477 25.5 25.5V26.5C25.5 27.0523 25.0523 27.5 24.5 27.5H5.5C4.94772 27.5 4.5 27.0523 4.5 26.5V25.5C4.5 24.9477 4.94772 24.5 5.5 24.5Z" fill="black"/>
</svg>
