<svg width="31" height="31" viewBox="0 0 31 31"  xmlns="http://www.w3.org/2000/svg">
<path d="M29.4884 13.6935C29.3787 13.0888 28.7913 12.4731 28.1821 12.3369L27.7264 12.2334C26.6561 11.9119 25.7065 11.2091 25.1026 10.1739C24.4988 9.13328 24.3561 7.951 24.6196 6.86679L24.7623 6.44184C24.9435 5.8534 24.7074 5.04163 24.2299 4.63843C24.2299 4.63843 23.8017 4.27886 22.5941 3.58691C21.3865 2.90043 20.865 2.70973 20.865 2.70973C20.2777 2.49727 19.4543 2.69885 19.0262 3.15105L18.7078 3.48884C17.8954 4.25161 16.8031 4.71472 15.5955 4.71472C14.3879 4.71472 13.2846 4.24617 12.4722 3.47796L12.1648 3.15105C11.7421 2.69882 10.9133 2.49724 10.3259 2.7097C10.3259 2.7097 9.79899 2.9004 8.59137 3.58688C7.38376 4.28427 6.9611 4.64387 6.9611 4.64387C6.48356 5.0416 6.24752 5.84793 6.42865 6.44181L6.56039 6.87223C6.81839 7.95644 6.68116 9.13325 6.07737 10.1739C5.47355 11.2145 4.51295 11.9228 3.43708 12.2388L2.99795 12.3369C2.39416 12.4731 1.80135 13.0833 1.69159 13.6935C1.69159 13.6935 1.59277 14.2383 1.59277 15.6222C1.59277 17.0061 1.69159 17.5509 1.69159 17.5509C1.80135 18.1611 2.3887 18.7714 2.99798 18.9076L3.42613 19.0056C4.502 19.3216 5.46809 20.0299 6.07191 21.076C6.6757 22.1166 6.81841 23.2989 6.55493 24.3831L6.42868 24.8026C6.24752 25.3911 6.48356 26.2028 6.96113 26.606C6.96113 26.606 7.38928 26.9656 8.59689 27.6575C9.8045 28.3495 10.326 28.5347 10.326 28.5347C10.9133 28.7472 11.7367 28.5456 12.1648 28.0934L12.4667 27.7719C13.2846 27.0037 14.3824 26.5352 15.5955 26.5352C16.8086 26.5352 17.9119 27.0092 18.7243 27.7774L19.0262 28.0989C19.4489 28.551 20.2777 28.7527 20.8651 28.5402C20.8651 28.5402 21.392 28.3495 22.5996 27.663C23.8072 26.9711 24.2299 26.6115 24.2299 26.6115C24.7074 26.2137 24.9435 25.4019 24.7624 24.8081L24.6306 24.3722C24.3726 23.2934 24.5098 22.1166 25.1136 21.0814C25.7175 20.0408 26.6835 19.3271 27.7594 19.0111L28.1875 18.913C28.7914 18.7768 29.3842 18.1666 29.494 17.5564C29.494 17.5564 29.5928 17.0115 29.5928 15.6277C29.5873 14.2383 29.4885 13.6935 29.4885 13.6935H29.4884ZM15.5955 21.1631C12.5161 21.1631 10.013 18.6842 10.013 15.6222C10.013 12.5657 12.5106 10.0868 15.5955 10.0868C18.6749 10.0868 21.1779 12.5657 21.1779 15.6277C21.1724 18.6841 18.6749 21.1631 15.5955 21.1631Z" fill="black"/>
</svg>
