<svg width="30" height="31" viewBox="0 0 30 31" xmlns="http://www.w3.org/2000/svg">
<path d="M14.6417 28.2053C12.1384 28.2053 9.63508 28.2053 7.13177 28.2053C4.31377 28.2053 2.01073 25.9165 2.01073 23.0985C1.99642 18.0776 1.99642 13.0567 2.01073 8.03579C2.01073 5.23209 4.27085 2.91475 7.07455 2.84323C8.57654 2.81462 10.0785 2.82892 11.5805 2.82892C11.9667 2.82892 12.31 2.92906 12.3816 3.3725C12.4531 3.81594 12.1527 3.9876 11.7951 4.14495C11.0798 4.44534 10.3646 4.78865 9.63507 5.08905C9.3919 5.18918 9.12011 5.21779 8.86263 5.23209C8.07587 5.27501 7.27482 5.21779 6.51667 5.36084C5.28648 5.60401 4.4139 6.71977 4.4139 7.99288C4.39959 13.0138 4.39959 18.0347 4.4139 23.0556C4.4139 24.5862 5.58688 25.7878 7.13177 25.7878C12.1527 25.8164 17.1736 25.8164 22.1945 25.7878C23.7966 25.7735 24.9553 24.529 24.9553 22.9126C24.9553 21.7539 24.941 20.5952 24.9696 19.4222C24.9696 19.1648 25.0697 18.8358 25.2557 18.6641C25.599 18.3351 26.0138 18.0776 26.4287 17.8344C26.8149 17.5913 27.3585 17.8344 27.3442 18.2779C27.3012 20.3091 27.6446 22.3547 27.1582 24.3573C26.6003 26.6461 24.5405 28.1766 22.1945 28.1766C19.6769 28.2053 17.1593 28.2053 14.6417 28.2053Z" fill="black"/>
<path d="M16.82 6.56255C17.0967 6.83924 17.4656 7.0237 17.8806 6.97759L22.4922 6.97759L15.8977 13.5721C15.2982 14.1716 15.2982 15.0939 15.8977 15.6934C16.4972 16.2929 17.4195 16.2929 18.019 15.6934L24.5674 9.14502V13.7566C24.5674 14.1255 24.7058 14.5406 24.9824 14.8172C25.2591 15.0939 25.6281 15.2784 26.0431 15.2323C26.8732 15.2323 27.5188 14.5867 27.5188 13.7566V5.548C27.5188 5.17908 27.3805 4.76404 27.1038 4.48734C26.8271 4.21065 26.4581 4.02619 26.0431 4.0723L17.9268 4.0723C17.0967 4.0723 16.4511 4.71792 16.4511 5.548C16.4049 5.96304 16.5894 6.33197 16.82 6.56255Z" fill="black"/>
</svg>
