<svg width="30" height="30" viewBox="0 0 30 30" xmlns="http://www.w3.org/2000/svg">
<path d="M21.5853 1.9626C21.3354 2.21119 21.1252 2.49642 20.9623 2.80834H20.9204L18.957 6.67275L6.68463 18.8723L2.79716 20.8344C2.79716 20.8344 2.79716 20.8578 2.77621 20.8631C2.47348 21.0223 2.19713 21.2268 1.95683 21.4694C1.46769 21.9498 1.14611 22.5733 1.03917 23.2485C0.932243 23.9238 1.04558 24.6153 1.36259 25.2219C1.74042 25.9541 2.38005 26.5194 3.1558 26.8067C3.56827 26.9581 4.00811 27.0217 4.44688 26.9935C4.88565 26.9652 5.31356 26.8457 5.70295 26.6427L10.0034 24.3452C10.0011 24.3966 10 24.4481 10 24.5C10 26.433 11.567 28 13.5 28C15.433 28 17 26.433 17 24.5C17 22.567 15.433 21 13.5 21C13.4782 21 13.4565 21.0002 13.4348 21.0006L21 13.5098C21.0053 15.4383 22.5703 17 24.5 17C26.433 17 28 15.433 28 13.5C28 11.567 26.433 10 24.5 10C24.4525 10 24.4052 10.0009 24.3582 10.0028L26.6037 5.80879C26.9911 5.07954 27.099 4.23528 26.9074 3.43289C26.7821 2.88324 26.5096 2.37752 26.1186 1.96937C25.7277 1.56122 25.2329 1.26585 24.6867 1.11458C24.1406 0.963316 23.5634 0.961794 23.0165 1.11018C22.4696 1.25856 21.9732 1.55131 21.5801 1.95739L21.5853 1.9626ZM23.0775 3.42769C23.2363 3.25716 23.4468 3.14297 23.677 3.10256C23.9072 3.06215 24.1444 3.09774 24.3524 3.20389C24.9257 3.50055 25.0801 4.27343 24.7817 4.84594L22.4256 9.26984L9.1166 22.5415L4.7422 24.7951C4.49651 24.9161 4.2154 24.9458 3.94962 24.8788C3.68384 24.8118 3.45091 24.6526 3.29289 24.4298C3.13487 24.2071 3.06217 23.9355 3.08792 23.6642C3.11366 23.3928 3.23616 23.1395 3.43329 22.9501C3.51392 22.8489 3.61024 22.761 3.71863 22.6899L7.90716 20.5768L20.6795 7.90623L22.8052 3.74257C22.8761 3.62748 22.9644 3.52391 23.067 3.4355L23.0775 3.42769ZM24.5 15.4444C23.4261 15.4444 22.5556 14.5739 22.5556 13.5C22.5556 12.4261 23.4261 11.5556 24.5 11.5556C25.5739 11.5556 26.4444 12.4261 26.4444 13.5C26.4444 14.5739 25.5739 15.4444 24.5 15.4444ZM15.4444 24.5C15.4444 25.5739 14.5739 26.4444 13.5 26.4444C12.4261 26.4444 11.5556 25.5739 11.5556 24.5C11.5556 23.4261 12.4261 22.5556 13.5 22.5556C14.5739 22.5556 15.4444 23.4261 15.4444 24.5Z" fill="black"/>
</svg>
