<svg width="30" height="30" viewBox="0 0 30 30"  xmlns="http://www.w3.org/2000/svg">
<path d="M22.3832 18.0459C22.3832 17.4377 22.265 16.8816 22.0286 16.3777C21.7922 15.8737 21.4974 15.4576 21.1443 15.1294C20.7912 14.8012 20.3479 14.5034 19.8144 14.2358C19.2809 13.9683 18.7793 13.7614 18.3096 13.6152C17.8398 13.469 17.3079 13.329 16.7137 13.1953L14.8168 12.759C14.4529 12.6734 14.1853 12.6096 14.0142 12.5676C13.8432 12.5257 13.6308 12.4557 13.3773 12.3577C13.1238 12.2597 12.9418 12.1625 12.8313 12.066C12.7209 11.9696 12.6206 11.842 12.5304 11.6834C12.4402 11.5247 12.3943 11.3427 12.3927 11.1374C12.3927 10.2011 13.2676 9.73288 15.0175 9.73288C15.5401 9.73288 16.0083 9.80599 16.422 9.9522C16.8358 10.0984 17.164 10.2718 17.4066 10.4725C17.6493 10.6731 17.8803 10.8769 18.0996 11.0838C18.3189 11.2906 18.5615 11.4672 18.8275 11.6134C19.0935 11.7596 19.3851 11.8327 19.7024 11.8327C20.2733 11.8327 20.7321 11.6383 21.079 11.2494C21.4259 10.8606 21.5993 10.3924 21.5993 9.84487C21.5993 9.17604 21.2586 8.57175 20.5774 8.03202C19.8961 7.49229 19.0336 7.08243 17.9899 6.80246C16.9462 6.52248 15.8403 6.38249 14.6722 6.38249C13.8463 6.38249 13.0444 6.4766 12.2667 6.6648C11.489 6.85301 10.7626 7.13843 10.0876 7.52106C9.41252 7.9037 8.87201 8.43254 8.46604 9.1076C8.06008 9.78265 7.85632 10.5635 7.85476 11.4501C7.85476 12.192 7.96986 12.8391 8.20007 13.3912C8.43027 13.9434 8.77091 14.4023 9.22198 14.7678C9.67305 15.1333 10.1591 15.4281 10.6802 15.6521C11.2013 15.876 11.8273 16.0736 12.5584 16.2447L15.2205 16.9003C16.3139 17.1678 16.9944 17.3864 17.262 17.5559C17.6508 17.7985 17.8453 18.1633 17.8453 18.6501C17.8453 19.1245 17.6026 19.5165 17.1173 19.826C16.632 20.1356 15.9943 20.2903 15.2042 20.2903C14.5851 20.2903 14.029 20.1931 13.536 19.9987C13.0429 19.8043 12.6478 19.5702 12.3507 19.2964C12.0536 19.0227 11.7775 18.7489 11.5225 18.4752C11.2674 18.2014 10.9882 17.9673 10.6849 17.7729C10.3816 17.5785 10.0534 17.4812 9.70027 17.4812C9.0921 17.4812 8.63325 17.6632 8.32372 18.0272C8.01419 18.3912 7.85943 18.8469 7.85943 19.3944C7.85943 20.5128 8.60059 21.4694 10.0829 22.2642C11.5652 23.059 13.333 23.4572 15.3861 23.4587C16.2727 23.4587 17.1235 23.346 17.9386 23.1204C18.7536 22.8949 19.4979 22.5698 20.1714 22.1452C20.8449 21.7206 21.3823 21.1528 21.7836 20.442C22.1849 19.7312 22.3856 18.9325 22.3856 18.0459H22.3832ZM29 22.0005C29 23.9324 28.3164 25.5819 26.9492 26.9491C25.582 28.3163 23.9324 28.9999 22.0006 28.9999C20.4203 28.9999 18.9986 28.5139 17.7356 27.5417C16.7992 27.7362 15.8878 27.8334 15.0012 27.8334C13.2638 27.8334 11.6018 27.4958 10.0152 26.8208C8.42871 26.1457 7.06149 25.2343 5.91359 24.0864C4.76569 22.9385 3.85421 21.5712 3.17915 19.9847C2.5041 18.3982 2.16657 16.7362 2.16657 14.9988C2.16657 14.1122 2.26378 13.2007 2.45821 12.2643C1.48607 10.9998 1 9.57812 1 7.99936C1 6.06752 1.68361 4.41799 3.05083 3.05077C4.41805 1.68355 6.06758 0.999939 7.99942 0.999939C9.57973 0.999939 11.0014 1.48601 12.2644 2.45815C13.2008 2.26372 14.1122 2.16651 14.9988 2.16651C16.7362 2.16651 18.3982 2.50404 19.9848 3.17909C21.5713 3.85415 22.9385 4.76563 24.0864 5.91353C25.2343 7.06144 26.1458 8.42866 26.8208 10.0152C27.4959 11.6017 27.8334 13.2637 27.8334 15.0011C27.8334 15.8877 27.7362 16.7992 27.5418 17.7356C28.5139 19.0001 29 20.4218 29 22.0005Z" fill="black"/>
</svg>
