<svg width="30" height="30" viewBox="0 0 30 30" xmlns="http://www.w3.org/2000/svg">
<path d="M7.5 23.111C7.5 22.5587 7.94771 22.111 8.5 22.111H10.5C11.0523 22.111 11.5 22.5587 11.5 23.111C11.5 23.6633 11.0523 24.111 10.5 24.111H8.5C7.94771 24.111 7.5 23.6633 7.5 23.111Z" fill="black"/>
<path d="M19.5 22.111C18.9477 22.111 18.5 22.5587 18.5 23.111C18.5 23.6633 18.9477 24.111 19.5 24.111H21.5C22.0523 24.111 22.5 23.6633 22.5 23.111C22.5 22.5587 22.0523 22.111 21.5 22.111H19.5Z" fill="black"/>
<path fill-rule="evenodd" clip-rule="evenodd" d="M5.5 4.11098C3.84315 4.11098 2.5 5.45412 2.5 7.11098V26.111C2.5 27.7678 3.84315 29.111 5.5 29.111H24.5C26.1569 29.111 27.5 27.7678 27.5 26.111V7.11098C27.5 5.45412 26.1569 4.11098 24.5 4.11098H5.5ZM6.5 6.11098H23.5C24.6046 6.11098 25.5 7.00641 25.5 8.11098V9.11098H4.5V8.11098C4.5 7.00641 5.39543 6.11098 6.5 6.11098ZM14.5 10.111V18.111H4.5V10.111H14.5ZM15.5 18.111V10.111H25.5V18.111H15.5ZM4.5 19.111H25.5V25.111C25.5 26.2155 24.6046 27.111 23.5 27.111H6.5C5.39543 27.111 4.5 26.2155 4.5 25.111V19.111Z" fill="black"/>
<path fill-rule="evenodd" clip-rule="evenodd" d="M6.5 1.8894C6.5 1.33712 6.94772 0.889404 7.5 0.889404H22.5C23.0523 0.889404 23.5 1.33712 23.5 1.8894C23.5 2.44169 23.0523 2.8894 22.5 2.8894H7.5C6.94772 2.8894 6.5 2.44169 6.5 1.8894Z" fill="black"/>
</svg>
