<svg width="30" height="30" viewBox="0 0 30 30" xmlns="http://www.w3.org/2000/svg">
<path d="M26.5603 14.0558C27.2558 14.0558 27.8362 14.2829 28.3017 14.7371C28.7672 15.1913 29 15.7608 29 16.4455C29 17.5336 28.4783 18.2626 27.4348 18.6326L24.541 19.6258L25.4833 22.4358C25.5618 22.6714 25.6011 22.9349 25.6011 23.2264C25.6011 23.8886 25.3655 24.4605 24.8943 24.9424C24.4232 25.4242 23.8565 25.6655 23.1944 25.6661C22.6673 25.6661 22.1877 25.5147 21.7555 25.2119C21.3233 24.9091 21.0233 24.5051 20.8556 24.0001L19.9302 21.224L14.7135 23.0078L15.6389 25.7679C15.7287 26.0374 15.7736 26.3009 15.7736 26.5585C15.7736 27.2206 15.5381 27.7926 15.0669 28.2744C14.5957 28.7563 14.0238 28.9975 13.3509 28.9981C12.8239 28.9981 12.3471 28.8467 11.9205 28.5439C11.494 28.2411 11.1968 27.8372 11.0291 27.3321L10.1037 24.589L7.52931 25.4804C7.2039 25.5816 6.9234 25.6322 6.68782 25.6322C6.0037 25.6322 5.43423 25.4079 4.9794 24.9593C4.52458 24.5108 4.29748 23.9442 4.29811 23.2594C4.29811 22.7323 4.45234 22.2555 4.76079 21.829C5.06924 21.4024 5.47035 21.1053 5.96413 20.9375L8.58942 20.0461L6.82258 14.7795L4.19728 15.6879C3.90579 15.7777 3.6366 15.8226 3.38972 15.8226C2.7169 15.8226 2.15026 15.5955 1.68978 15.1413C1.2293 14.6872 0.999373 14.1233 1 13.4499C1 12.9228 1.15423 12.446 1.46268 12.0195C1.77113 11.5929 2.17224 11.2958 2.66602 11.128L5.30827 10.2366L4.41684 7.56135C4.32701 7.29185 4.28209 7.02831 4.28209 6.77075C4.28209 6.09793 4.51767 5.52312 4.98883 5.04631C5.45999 4.5695 6.03197 4.33109 6.70479 4.33109C7.23186 4.33109 7.70867 4.48249 8.13522 4.78529C8.56178 5.08808 8.85892 5.49202 9.02665 5.99711L9.93505 8.6893L15.1517 6.92246L14.2433 4.23026C14.1535 3.96076 14.1086 3.69722 14.1086 3.43966C14.1086 2.77752 14.347 2.20554 14.8238 1.7237C15.3006 1.24186 15.8698 1.00063 16.5313 1C17.0583 1 17.538 1.15423 17.9702 1.46268C18.4024 1.77113 18.7024 2.17224 18.8701 2.66602L19.7615 5.37518L22.4876 4.44982C22.7232 4.3826 22.9645 4.34899 23.2113 4.34899C23.8842 4.34899 24.459 4.57044 24.9358 5.01333C25.4126 5.45622 25.651 6.00873 25.651 6.67086C25.651 7.17594 25.4826 7.63297 25.1459 8.04193C24.8092 8.4509 24.3943 8.73988 23.9011 8.90886L21.2589 9.81726L23.0257 15.1348L25.7858 14.1924C26.0553 14.1026 26.3131 14.0577 26.5594 14.0577L26.5603 14.0558ZM13.1992 18.4649L18.4159 16.6981L16.6491 11.3975L11.4324 13.1983L13.1992 18.4649Z" fill="black"/>
</svg>
