<svg width="30" height="30" viewBox="0 0 30 30" xmlns="http://www.w3.org/2000/svg">
<path d="M14.9967 2.67104C16.5975 2.67104 18.1583 2.97517 19.6355 3.57341C21.1628 4.19169 22.5364 5.10408 23.7128 6.2805C24.8892 7.45691 25.8016 8.83051 26.4199 10.3578C27.0181 11.835 27.3223 13.3958 27.3223 14.9967C27.3223 16.5975 27.0181 18.1583 26.4199 19.6355C25.8016 21.1628 24.8892 22.5364 23.7128 23.7128C22.5364 24.8892 21.1628 25.8016 19.6355 26.4199C18.1583 27.0181 16.5975 27.3223 14.9967 27.3223C13.3958 27.3223 11.835 27.0181 10.3578 26.4199C8.83051 25.8016 7.45691 24.8892 6.2805 23.7128C5.10408 22.5364 4.19169 21.1628 3.57341 19.6355C2.97517 18.1583 2.67104 16.5975 2.67104 14.9967C2.67104 13.3958 2.97517 11.835 3.57341 10.3578C4.19169 8.83051 5.10408 7.45691 6.2805 6.2805C7.45691 5.10408 8.83051 4.19169 10.3578 3.57341C11.835 2.97183 13.3958 2.67104 14.9967 2.67104ZM14.9967 1C11.4139 1 7.83457 2.36357 5.10074 5.0974C-0.366913 10.5651 -0.366913 19.4283 5.10074 24.8926C7.83457 27.6264 11.4173 28.9933 15 28.9933C18.5827 28.9933 22.1654 27.6264 24.8993 24.8926C30.3669 19.4249 30.3669 10.5617 24.8993 5.0974C22.1621 2.36357 18.5794 1 14.9967 1Z" fill="black"/>
<path d="M17.1222 11.9019L18.4724 16.2399L15.0067 18.8668L11.5409 16.2399L12.8911 11.9019H17.1222ZM18.3521 10.2308H11.6646L9.59919 16.8649L15.01 20.9656L20.4209 16.8649L18.3521 10.2308Z" fill="black"/>
<path d="M11.5777 28.3115L10.5517 26.9914L14.1979 24.1473V19.9496H15.8689V24.1272L19.5185 26.9947L18.4858 28.3082L15.0568 25.6145L11.5777 28.3115ZM26.6672 22.5665L25.0931 23.1246L23.5357 18.7665L19.5519 17.4464L20.0766 15.8623L24.0437 17.1757L27.9138 14.6123L28.8362 16.006L25.2 18.4156L26.6672 22.5665ZM25.5577 6.01313L25.6245 7.68083L21.0024 7.87467L18.5593 11.2903L17.1991 10.3177L19.6321 6.91883L18.3321 2.46383L19.9363 1.99594L21.1561 6.18358L25.5577 6.01313ZM10.0136 2.00263L11.6212 2.45715L10.3645 6.90881L12.8444 10.2943L11.4975 11.2836L9.02769 7.91143L4.38888 7.7577L4.44569 6.09L8.80377 6.23371L10.0136 2.00263ZM1.24063 16.6443L2.08284 15.2005L6.08331 17.5266L9.98019 15.9659L10.6018 17.5166L6.72165 19.0707L5.42158 23.5257L3.81738 23.0544L5.04058 18.8701L1.24063 16.6443Z" fill="black"/>
</svg>
