<svg width="31" height="31" viewBox="0 0 31 31"  xmlns="http://www.w3.org/2000/svg">
<path d="M11.7521 5.43108C11.7401 4.93541 11.8338 4.44249 12.0275 3.98127C12.2213 3.52005 12.5113 3.09982 12.8804 2.74525C13.2495 2.39069 13.6904 2.10893 14.1771 1.91652C14.6638 1.72412 15.1866 1.62494 15.7147 1.62482C16.2428 1.62469 16.7656 1.72362 17.2524 1.9158C17.7392 2.10798 18.1802 2.38953 18.5495 2.74392C18.9188 3.09832 19.209 3.51841 19.403 3.97954C19.597 4.44067 19.691 4.93354 19.6793 5.42922C19.6564 6.40173 19.2289 7.32719 18.4882 8.00747C17.7476 8.68775 16.7528 9.0688 15.7166 9.06904C14.6805 9.06929 13.6855 8.68871 12.9445 8.00877C12.2035 7.32884 11.7755 6.40359 11.7521 5.43108ZM20.163 8.70096C20.151 8.20528 20.2447 7.71237 20.4385 7.25115C20.6322 6.78993 20.9222 6.3697 21.2913 6.01513C21.6604 5.66056 22.1013 5.37881 22.588 5.1864C23.0747 4.99399 23.5975 4.89482 24.1256 4.89469C24.6537 4.89457 25.1765 4.9935 25.6633 5.18568C26.1501 5.37785 26.5911 5.65941 26.9604 6.0138C27.3297 6.36819 27.6199 6.78829 27.8139 7.24942C28.0079 7.71055 28.1019 8.20342 28.0902 8.6991C28.0673 9.67161 27.6398 10.5971 26.8991 11.2773C26.1585 11.9576 25.1637 12.3387 24.1275 12.3389C23.0914 12.3392 22.0964 11.9586 21.3554 11.2786C20.6144 10.5987 20.1864 9.67346 20.163 8.70096ZM25.6282 16.5974C25.6282 16.1038 25.837 15.6305 26.2088 15.2815C26.5805 14.9324 27.0847 14.7364 27.6105 14.7364C28.1362 14.7364 28.6404 14.9324 29.0122 15.2815C29.3839 15.6305 29.5928 16.1038 29.5928 16.5974C29.5928 17.091 29.3839 17.5644 29.0122 17.9134C28.6404 18.2624 28.1362 18.4585 27.6105 18.4585C27.0847 18.4585 26.5805 18.2624 26.2088 17.9134C25.837 17.5644 25.6282 17.091 25.6282 16.5974ZM22.1453 24.4939C22.1453 24.0003 22.3541 23.5269 22.7259 23.1779C23.0976 22.8289 23.6018 22.6328 24.1276 22.6328C24.6533 22.6328 25.1575 22.8289 25.5293 23.1779C25.901 23.5269 26.1099 24.0003 26.1099 24.4939C26.1099 24.9875 25.901 25.4608 25.5293 25.8099C25.1575 26.1589 24.6533 26.3549 24.1276 26.3549C23.6018 26.3549 23.0976 26.1589 22.7259 25.8099C22.3541 25.4608 22.1453 24.9875 22.1453 24.4939ZM13.7344 27.7638C13.7344 27.2702 13.9432 26.7968 14.315 26.4478C14.6867 26.0988 15.1909 25.9027 15.7167 25.9027C16.2424 25.9027 16.7466 26.0988 17.1184 26.4478C17.4901 26.7968 17.699 27.2702 17.699 27.7638C17.699 28.2573 17.4901 28.7307 17.1184 29.0797C16.7466 29.4287 16.2424 29.6248 15.7167 29.6248C15.1909 29.6248 14.6867 29.4287 14.315 29.0797C13.9432 28.7307 13.7344 28.2573 13.7344 27.7638ZM5.32346 24.4939C5.32346 24.0003 5.53231 23.5269 5.90407 23.1779C6.27582 22.8289 6.78003 22.6328 7.30576 22.6328C7.8315 22.6328 8.33571 22.8289 8.70746 23.1779C9.07922 23.5269 9.28807 24.0003 9.28807 24.4939C9.28807 24.9875 9.07922 25.4608 8.70746 25.8099C8.33571 26.1589 7.8315 26.3549 7.30576 26.3549C6.78003 26.3549 6.27582 26.1589 5.90407 25.8099C5.53231 25.4608 5.32346 24.9875 5.32346 24.4939ZM4.33231 8.70096C4.33231 7.96058 4.64559 7.25053 5.20322 6.72701C5.76085 6.20348 6.51716 5.90937 7.30576 5.90937C8.09437 5.90937 8.85068 6.20348 9.40831 6.72701C9.96594 7.25053 10.2792 7.96058 10.2792 8.70096C10.2792 9.44133 9.96594 10.1514 9.40831 10.6749C8.85068 11.1984 8.09437 11.4925 7.30576 11.4925C6.51716 11.4925 5.76085 11.1984 5.20322 10.6749C4.64559 10.1514 4.33231 9.44133 4.33231 8.70096ZM1.59277 16.5974C1.59277 16.0421 1.82773 15.5096 2.24595 15.117C2.66417 14.7243 3.23141 14.5037 3.82286 14.5037C4.41432 14.5037 4.98155 14.7243 5.39977 15.117C5.818 15.5096 6.05295 16.0421 6.05295 16.5974C6.05295 17.1527 5.818 17.6852 5.39977 18.0779C4.98155 18.4705 4.41432 18.6911 3.82286 18.6911C3.23141 18.6911 2.66417 18.4705 2.24595 18.0779C1.82773 17.6852 1.59277 17.1527 1.59277 16.5974Z" fill="black"/>
</svg>
