<svg width="30" height="31" viewBox="0 0 30 31" xmlns="http://www.w3.org/2000/svg">
<path d="M7.90909 27.5H22.0909C22.3756 27.5 22.5963 27.5 22.8023 27.4875C24.0293 27.413 25.6364 26.9525 25.6364 25.7142C25.6364 25.3985 25.5118 25.0957 25.2902 24.8724C25.0686 24.6492 24.768 24.5237 24.4545 24.5237H5.54545C5.23202 24.5237 4.93142 24.6492 4.70978 24.8724C4.48815 25.0957 4.36364 25.3985 4.36364 25.7142C4.36364 26.9525 5.97067 27.413 7.19766 27.4875C7.40372 27.5 7.62437 27.5 7.90909 27.5Z" fill="black"/>
<path d="M25.6364 21.5474V20.3569C25.6364 20.0412 25.5119 19.7384 25.2902 19.5151C25.0686 19.2919 24.768 19.1664 24.4545 19.1664H5.54545C5.23202 19.1664 4.93142 19.2919 4.70978 19.5151C4.48815 19.7384 4.36364 20.0412 4.36364 20.3569V21.5474H25.6364ZM5.54545 16.7854H24.4545C25.3949 16.7854 26.2967 17.1617 26.9616 17.8315C27.6265 18.5013 28 19.4097 28 20.3569V22.738C28 23.0537 27.8755 23.3565 27.6539 23.5798C27.4322 23.803 27.1316 23.9285 26.8182 23.9285H3.18182C2.86838 23.9285 2.56778 23.803 2.34615 23.5798C2.12451 23.3565 2 23.0537 2 22.738V20.3569C2 19.4097 2.37354 18.5013 3.03844 17.8315C3.70334 17.1617 4.60514 16.7854 5.54545 16.7854Z" fill="black"/>
<path d="M13.8146 17.8771C13.8407 18.1919 13.7415 18.5042 13.5389 18.7453C13.3363 18.9865 13.047 19.1366 12.7345 19.1629C12.422 19.1891 12.1119 19.0891 11.8726 18.8851C11.6332 18.681 11.4841 18.3895 11.4581 18.0747L10.5717 7.34823C10.5207 6.73119 10.5972 6.11018 10.7966 5.52447C10.9959 4.93876 11.3138 4.40108 11.7299 3.94542C12.1461 3.48977 12.6516 3.12605 13.2145 2.87725C13.7774 2.62846 14.3853 2.5 15 2.5C15.6147 2.5 16.2226 2.62846 16.7855 2.87725C17.3484 3.12605 17.8539 3.48977 18.2701 3.94542C18.6862 4.40108 19.0041 4.93876 19.2034 5.52447C19.4028 6.11018 19.4793 6.73119 19.4283 7.34823L18.9319 13.3436C18.8963 13.6505 18.7438 13.9314 18.5064 14.127C18.2691 14.3226 17.9655 14.4176 17.6599 14.392C17.3543 14.3663 17.0706 14.222 16.8686 13.9895C16.6667 13.757 16.5624 13.4545 16.5777 13.146L17.0741 7.1506C17.0957 6.86297 17.058 6.57394 16.9636 6.30163C16.8691 6.02932 16.7199 5.77958 16.5252 5.56807C16.3305 5.35656 16.0945 5.18782 15.8321 5.07243C15.5696 4.95704 15.2864 4.89748 15 4.89748C14.7136 4.89748 14.4304 4.95704 14.1679 5.07243C13.9055 5.18782 13.6695 5.35656 13.4748 5.56807C13.2801 5.77958 13.1309 6.02932 13.0364 6.30163C12.942 6.57394 12.9043 6.86297 12.9259 7.1506L13.8146 17.8771Z" fill="black"/>
</svg>
