<svg width="31" height="31" viewBox="0 0 31 31"  xmlns="http://www.w3.org/2000/svg">
<path d="M17.0497 2.07162L20.1153 8.56695C20.3534 9.06789 20.8103 9.416 21.3412 9.49653L28.1995 10.5378C29.5314 10.7405 30.0654 12.4531 29.1002 13.4357L24.1366 18.4926C23.7538 18.8817 23.58 19.4446 23.6701 19.9947L24.8411 27.1349C25.0694 28.5211 23.6749 29.5809 22.483 28.9265L16.3485 25.5558C15.8758 25.2953 15.3095 25.2953 14.8367 25.5558L8.70207 28.9264C7.51014 29.5809 6.11567 28.5211 6.34408 27.1349L7.51504 19.9947C7.60583 19.4446 7.43056 18.8817 7.04773 18.4926L2.08559 13.4357C1.1206 12.4531 1.65299 10.7403 2.98629 10.5378L9.84393 9.49653C10.3731 9.41614 10.8307 9.06792 11.0679 8.56695L14.1343 2.07162C14.7312 0.809215 16.4545 0.809215 17.0497 2.07162Z" fill="black"/>
</svg>
