<svg width="31" height="31" viewBox="0 0 31 31"  xmlns="http://www.w3.org/2000/svg">
<path d="M27.8901 10.7891L20.86 9.70326C20.6601 9.70326 20.5132 9.5986 20.4632 9.44489L17.3919 2.77637C17.195 2.36429 16.8982 2.05359 16.5014 1.84755C15.5109 1.33081 14.3205 1.74289 13.8268 2.77637L10.7086 9.38929C10.6086 9.49394 10.4618 9.64766 10.3118 9.64766L3.28171 10.7335C2.83803 10.8381 2.44122 11.0442 2.1444 11.3549C1.40077 12.1823 1.40077 13.5265 2.19439 14.3016L7.19356 19.4689C7.29354 19.5703 7.39353 19.7796 7.34354 19.9333L6.15623 27.22C6.05625 27.6321 6.15623 28.0997 6.35308 28.5118C6.84987 29.5453 8.03717 29.9083 9.02763 29.3916L15.3141 25.9281C15.4609 25.8758 15.6609 25.8758 15.8078 25.9281L22.0973 29.3916C22.4442 29.5976 22.8878 29.65 23.3346 29.5976C24.4251 29.3916 25.1656 28.3581 24.9687 27.22L23.7814 19.9333C23.7814 19.7796 23.8314 19.5736 23.9314 19.4689L28.9806 14.3016C29.3274 13.9941 29.5242 13.5788 29.5742 13.1144C29.7211 11.9762 28.9806 10.9428 27.8901 10.7891ZM22.1973 17.9187C21.6755 18.4649 21.3881 19.3021 21.5318 20.0969L22.6691 27.0761L16.6482 23.7631C15.9859 23.3673 15.1297 23.3673 14.4705 23.7696L8.4496 27.0826L9.54005 20.1034C9.68065 19.3119 9.44319 18.4714 8.87453 17.9253L4.03783 12.977L10.7711 11.8879C11.5772 11.7866 12.2396 11.2927 12.5739 10.5503L15.5609 4.21538L18.5011 10.5928C18.8822 11.2894 19.5415 11.8291 20.3039 11.9305L27.0371 12.9705L22.1973 17.9187Z" fill="black"/>
</svg>
