<svg width="30" height="30" viewBox="0 0 30 30" xmlns="http://www.w3.org/2000/svg">
<path d="M8.46154 2.36612V25.2308H2V2.36612C2 1.62569 2.56864 1 3.25138 1H7.00616C7.6889 1 8.46154 1.62569 8.46154 2.36612Z" fill="black"/>
<path d="M18.1538 15.0658V25.2308H11.6923V15.0658C11.6923 14.326 12.2616 13.7003 12.9443 13.7003H16.9025C17.5852 13.7003 18.1538 14.326 18.1538 15.0658Z" fill="black"/>
<path d="M27.8462 10.334V25.2308H21.3846V10.334C21.3846 9.65063 21.9539 9.02494 22.636 9.02494H26.5948C27.2775 9.02494 27.8462 9.59421 27.8462 10.334Z" fill="black"/>
<path d="M3.07692 26.8462C2.48215 26.8462 2 27.3283 2 27.9231C2 28.5178 2.48216 29 3.07692 29H26.7692C27.364 29 27.8462 28.5178 27.8462 27.9231C27.8462 27.3283 27.364 26.8462 26.7692 26.8462H3.07692Z" fill="black"/>
</svg>
