<svg width="30" height="30" viewBox="0 0 30 30" xmlns="http://www.w3.org/2000/svg">
<path d="M19.6 9C21.036 9 22.2 10.1641 22.2 11.6C22.2 13.0359 21.036 14.2 19.6 14.2C18.1641 14.2 17 13.0359 17 11.6C17 10.1641 18.1641 9 19.6 9Z" fill="black"/>
<path d="M1 15C1 7.26801 7.26801 1 15 1C22.732 1 29 7.26801 29 15C29 22.732 22.732 29 15 29C7.26801 29 1 22.732 1 15ZM3 15C3 15.1431 3.00251 15.2857 3.00748 15.4276L7.8829 17.4971C8.43269 17.1809 9.07023 17 9.75001 17C10.0347 17 10.3119 17.0317 10.5784 17.0918L10.5 17.0003L14 11.5C14 8.46243 16.4624 6 19.5 6C22.5376 6 25 8.46243 25 11.5C25 14.5376 22.5376 17 19.5 17L13.5 20.5003L13.4911 20.49C13.497 20.5759 13.5 20.6626 13.5 20.75C13.5 22.8211 11.8211 24.5 9.75001 24.5C7.89802 24.5 6.35958 23.1575 6.05484 21.3925L4.44177 20.7078C6.47187 24.4551 10.4387 27 15 27C21.6274 27 27 21.6274 27 15C27 8.37258 21.6274 3 15 3C8.37258 3 3 8.37258 3 15ZM8.89172 22.5967L7.2515 21.9005C7.687 22.8447 8.64198 23.5 9.75001 23.5C11.2688 23.5 12.5 22.2688 12.5 20.75C12.5 19.2312 11.2688 18 9.75001 18C9.56098 18 9.37639 18.0191 9.19809 18.0554L10.4389 18.5821C11.5065 19.0353 12.0046 20.2681 11.5514 21.3357L11.4559 21.5607C11.0339 22.5549 9.88588 23.0187 8.89172 22.5967ZM19.5 8C17.567 8 16 9.567 16 11.5C16 13.433 17.567 15 19.5 15C21.433 15 23 13.433 23 11.5C23 9.567 21.433 8 19.5 8Z" fill="black"/>
</svg>
