<svg width="31" height="30" viewBox="0 0 31 30" fill="none" xmlns="http://www.w3.org/2000/svg">
<path fill-rule="evenodd" clip-rule="evenodd" d="M15.375 4C9.29987 4 4.375 8.92487 4.375 15C4.375 21.0751 9.29987 26 15.375 26C21.4501 26 26.375 21.0751 26.375 15C26.375 8.92487 21.4501 4 15.375 4ZM15.375 6.29468C10.567 6.29468 6.66943 10.1923 6.66943 15.0002C6.66943 19.8082 10.567 23.7058 15.375 23.7058C20.183 23.7058 24.0806 19.8082 24.0806 15.0002C24.0806 10.1923 20.183 6.29468 15.375 6.29468Z" fill="black"/>
<path d="M12.0354 12.6602C12.0354 12.1079 12.4831 11.6602 13.0354 11.6602H17.7146C18.2669 11.6602 18.7146 12.1079 18.7146 12.6602V17.3394C18.7146 17.8916 18.2669 18.3394 17.7146 18.3394H13.0354C12.4831 18.3394 12.0354 17.8916 12.0354 17.3394V12.6602Z" fill="black"/>
</svg>
