<svg width="30" height="30" viewBox="0 0 30 30"  xmlns="http://www.w3.org/2000/svg">
<path fill-rule="evenodd" clip-rule="evenodd" d="M1 8.38647C1 7.28191 1.89543 6.38647 3 6.38647H27C28.1046 6.38647 29 7.28191 29 8.38647V19.3413C29 20.4459 28.1046 21.3413 27 21.3413H17.2662C17.2828 21.4451 17.2914 21.5515 17.2914 21.6599V23.6045C17.2914 24.7091 16.396 25.6045 15.2914 25.6045H14.7086C13.604 25.6045 12.7086 24.7091 12.7086 23.6045V21.6599C12.7086 21.5515 12.7172 21.4451 12.7338 21.3413H3C1.89543 21.3413 1 20.4459 1 19.3413V8.38647ZM4.69031 8.09375C3.58574 8.09375 2.69031 8.98918 2.69031 10.0938V17.6343C2.69031 18.7388 3.58574 19.6343 4.69031 19.6343H25.3097C26.4142 19.6343 27.3097 18.7388 27.3097 17.6343V10.0938C27.3097 8.98918 26.4142 8.09375 25.3097 8.09375H4.69031Z" fill="black"/>
<path d="M3.49916 11.9172H5.35365L6.09779 14.7151L6.57533 13.0657L6.22084 11.9172H8.07533L8.76088 14.7151L9.48158 11.9172L10.2462 11.9143L8.94252 16.2708L7.56264 16.2678L6.91811 14.179L6.27943 16.2708L4.89955 16.2678L3.49916 11.9172Z" fill="black"/>
<path d="M22.3116 11.9172H25.9913V12.5881H24.0079L24.005 13.7629H25.5226V14.4338H24.005V15.5999H25.9913V16.2708H22.3116V11.9172Z" fill="black"/>
</svg>
