<svg width="31" height="30" viewBox="0 0 31 30" xmlns="http://www.w3.org/2000/svg">
<path fill-rule="evenodd" clip-rule="evenodd" d="M8.30371 2.90925C8.30371 2.68323 8.48694 2.5 8.71296 2.5H23.2412C23.4673 2.5 23.6505 2.68323 23.6505 2.90925V27.0899C23.6505 27.4545 23.2097 27.6371 22.9518 27.3793L16.1941 20.6216C16.0743 20.5017 15.8799 20.5017 15.7601 20.6216L9.00234 27.3793C8.74453 27.6371 8.30371 27.4545 8.30371 27.0899V2.90925ZM10.4302 4.9272C10.4302 4.70118 10.6134 4.51795 10.8394 4.51795H21.2715C21.4975 4.51795 21.6807 4.70118 21.6807 4.9272L21.8301 22.8517L16.1941 17.3231C16.0743 17.2032 15.8799 17.2032 15.7601 17.3231L10.4302 22.6604L10.4302 4.9272Z" fill="black"/>
</svg>
