<svg width="30" height="30" viewBox="0 0 30 30" xmlns="http://www.w3.org/2000/svg">
<path d="M7.5 20C7.5 19.4477 7.94771 19 8.5 19H10.5C11.0523 19 11.5 19.4477 11.5 20C11.5 20.5523 11.0523 21 10.5 21H8.5C7.94771 21 7.5 20.5523 7.5 20Z" fill="black"/>
<path d="M19.5 19C18.9477 19 18.5 19.4477 18.5 20C18.5 20.5523 18.9477 21 19.5 21H21.5C22.0523 21 22.5 20.5523 22.5 20C22.5 19.4477 22.0523 19 21.5 19H19.5Z" fill="black"/>
<path fill-rule="evenodd" clip-rule="evenodd" d="M5.5 1C3.84315 1 2.5 2.34315 2.5 4V23C2.5 24.6569 3.84315 26 5.5 26H24.5C26.1569 26 27.5 24.6569 27.5 23V4C27.5 2.34315 26.1569 1 24.5 1H5.5ZM6.5 3H23.5C24.6046 3 25.5 3.89543 25.5 5V6H4.5V5C4.5 3.89543 5.39543 3 6.5 3ZM14.5 7V15H4.5V7H14.5ZM15.5 15V7H25.5V15H15.5ZM4.5 16H25.5V22C25.5 23.1046 24.6046 24 23.5 24H6.5C5.39543 24 4.5 23.1046 4.5 22V16Z" fill="black"/>
<path fill-rule="evenodd" clip-rule="evenodd" d="M6.5 28C6.5 27.4477 6.94772 27 7.5 27H22.5C23.0523 27 23.5 27.4477 23.5 28C23.5 28.5523 23.0523 29 22.5 29H7.5C6.94772 29 6.5 28.5523 6.5 28Z" fill="black"/>
</svg>
