<svg width="30" height="30" viewBox="0 0 30 30" xmlns="http://www.w3.org/2000/svg">
<path d="M20.1544 9.71715C20.8128 9.0588 21.8802 9.0588 22.5385 9.71715C23.1968 10.3755 23.1968 11.4429 22.5385 12.1012L14.3575 20.2823C13.6992 20.9406 12.6318 20.9406 11.9734 20.2823C11.3151 19.6239 11.3151 18.5565 11.9734 17.8982L20.1544 9.71715Z" fill="black"/>
<path d="M7.05233 15.4408C6.40558 14.7711 6.4242 13.7039 7.09394 13.0571C7.76367 12.4103 8.8309 12.429 9.47765 13.0987L14.084 17.9196C14.7308 18.5893 14.7121 19.6565 14.0424 20.3033C13.3727 20.95 12.3054 20.9314 11.6587 20.2617L7.05233 15.4408Z" fill="black"/>
<path fill-rule="evenodd" clip-rule="evenodd" d="M15 1C22.732 1 29 7.26801 29 15C29 22.732 22.732 29 15 29C7.26801 29 1 22.732 1 15C1 7.26801 7.26801 1 15 1ZM15 3.54785C8.67515 3.54785 3.54785 8.67515 3.54785 15C3.54785 21.3248 8.67515 26.4521 15 26.4521C21.3248 26.4521 26.4521 21.3248 26.4521 15C26.4521 8.67515 21.3248 3.54785 15 3.54785Z" fill="black"/>
</svg>
