<svg width="30" height="30" viewBox="0 0 30 30" xmlns="http://www.w3.org/2000/svg">
<path d="M22.818 8.28697C23.4763 7.62863 24.5437 7.62863 25.2021 8.28697C25.8604 8.94532 25.8604 10.0127 25.2021 10.671L14.1602 21.7129C13.5019 22.3712 12.4345 22.3712 11.7761 21.7129C11.1178 21.0545 11.1178 19.9872 11.7761 19.3288L22.818 8.28697Z" fill="black"/>
<path d="M4.77735 14.7708C4.1306 14.101 4.14923 13.0338 4.81896 12.387C5.48869 11.7403 6.55592 11.7589 7.20267 12.4287L13.8867 19.3502C14.5334 20.0199 14.5148 21.0871 13.8451 21.7339C13.1754 22.3806 12.1081 22.362 11.4614 21.6923L4.77735 14.7708Z" fill="black"/>
</svg>
