<svg width="30" height="31" viewBox="0 0 30 31" xmlns="http://www.w3.org/2000/svg">
<path d="M14.9997 2.1915C7.79505 2.1915 1.93286 8.05369 1.93286 15.2584C1.93286 22.464 7.79411 28.3253 14.9997 28.3253C22.2054 28.3253 28.0666 22.464 28.0666 15.2584C28.0666 8.05369 22.2054 2.1915 14.9997 2.1915ZM21.3054 13.1031L13.7988 20.6912C13.7988 20.6912 13.7932 20.694 13.7913 20.6968C13.7885 20.6987 13.7885 20.7024 13.7857 20.7043C13.7257 20.7624 13.6516 20.7981 13.5822 20.8374C13.5476 20.8571 13.5194 20.8871 13.4829 20.9012C13.3704 20.9462 13.2513 20.9696 13.1322 20.9696C13.0122 20.9696 12.8913 20.9462 12.7779 20.8993C12.7404 20.8834 12.7104 20.8515 12.6747 20.8318C12.6054 20.7924 12.5332 20.7578 12.4732 20.6987L12.4685 20.6912C12.4666 20.6884 12.4629 20.6884 12.461 20.6856L8.76911 16.8915C8.40817 16.5203 8.41661 15.9268 8.78786 15.5659C9.15911 15.2059 9.75161 15.2124 10.1135 15.5846L13.1388 18.6934L19.9732 11.784C20.3369 11.4156 20.9313 11.4118 21.2988 11.7765C21.6654 12.1412 21.6691 12.7346 21.3054 13.1031Z" fill="black"/>
</svg>
