<svg width="31" height="30" viewBox="0 0 31 30" fill="none" xmlns="http://www.w3.org/2000/svg">
<path d="M7.78668 15C7.78668 10.5817 11.3684 7 15.7867 7C20.205 7 23.7867 10.5817 23.7867 15C23.7867 19.4183 20.205 23 15.7867 23C11.3684 23 7.78668 19.4183 7.78668 15Z" fill="black"/>
<path d="M13.7867 3C13.7867 1.89543 14.6821 1 15.7867 1C16.8913 1 17.7867 1.89543 17.7867 3C17.7867 4.10457 16.8913 5 15.7867 5C14.6821 5 13.7867 4.10457 13.7867 3Z" fill="black"/>
<path d="M22.2971 6.54492C22.2971 5.44035 23.1925 4.54492 24.2971 4.54492C25.4016 4.54492 26.2971 5.44035 26.2971 6.54492C26.2971 7.64949 25.4016 8.54492 24.2971 8.54492C23.1925 8.54492 22.2971 7.64949 22.2971 6.54492Z" fill="black"/>
<path d="M22.3112 23.4448C22.3112 22.3403 23.2067 21.4448 24.3112 21.4448C25.4158 21.4448 26.3112 22.3403 26.3112 23.4448C26.3112 24.5494 25.4158 25.4448 24.3112 25.4448C23.2067 25.4448 22.3112 24.5494 22.3112 23.4448Z" fill="black"/>
<path d="M5.35575 6.45931C5.35575 5.35474 6.25118 4.45931 7.35575 4.45931C8.46032 4.45931 9.35575 5.35474 9.35575 6.45931C9.35575 7.56388 8.46032 8.45931 7.35575 8.45931C6.25118 8.45931 5.35575 7.56388 5.35575 6.45931Z" fill="black"/>
<path d="M5.48204 23.6453C5.48204 22.5407 6.37747 21.6453 7.48204 21.6453C8.58661 21.6453 9.48204 22.5407 9.48204 23.6453C9.48204 24.7499 8.58661 25.6453 7.48204 25.6453C6.37747 25.6453 5.48204 24.7499 5.48204 23.6453Z" fill="black"/>
<path d="M13.7867 27C13.7867 25.8954 14.6821 25 15.7867 25C16.8913 25 17.7867 25.8954 17.7867 27C17.7867 28.1046 16.8913 29 15.7867 29C14.6821 29 13.7867 28.1046 13.7867 27Z" fill="black"/>
<path d="M25.7867 15C25.7867 13.8954 26.6821 13 27.7867 13C28.8913 13 29.7867 13.8954 29.7867 15C29.7867 16.1046 28.8913 17 27.7867 17C26.6821 17 25.7867 16.1046 25.7867 15Z" fill="black"/>
<path d="M1.78668 15C1.78668 13.8954 2.68211 13 3.78668 13C4.89125 13 5.78668 13.8954 5.78668 15C5.78668 16.1046 4.89125 17 3.78668 17C2.68211 17 1.78668 16.1046 1.78668 15Z" fill="black"/>
</svg>
