<svg width="31" height="30" viewBox="0 0 31 30" xmlns="http://www.w3.org/2000/svg">
<path d="M6.5508 19.7573C5.94655 18.6058 5.5692 17.3728 5.43346 16.0909C5.29226 14.7746 5.40822 13.462 5.77323 12.1814C6.13824 10.9008 6.73807 9.7248 7.55534 8.68333C8.40039 7.60606 9.44001 6.72027 10.6499 6.04961C11.8598 5.37895 13.1619 4.96671 14.5207 4.82237C15.8344 4.68262 17.1496 4.79714 18.429 5.16619C18.8294 5.281 19.2228 5.42007 19.6052 5.58225L18.7167 7.6734C18.6379 7.85652 18.8059 8.04912 18.9981 7.997L24.1899 6.58176C24.3373 6.54087 24.41 6.37132 24.3364 6.23863L21.7482 1.5202C21.6515 1.34587 21.3964 1.35806 21.3217 1.54234L20.4902 3.50323C17.0701 2.05204 13.0482 2.13518 9.55118 4.07359C3.59017 7.37783 1.38819 14.8434 4.56757 20.843C4.62987 20.9615 4.7769 21.0058 4.89399 20.9409L6.45514 20.0756C6.56963 20.0121 6.61022 19.8706 6.5508 19.7573ZM26.3339 9.05664L24.7727 9.922C24.6582 9.98546 24.6176 10.127 24.677 10.2403C25.2813 11.3918 25.6586 12.6248 25.7944 13.9067C25.9356 15.223 25.8211 16.5382 25.4546 17.8162C25.0882 19.0942 24.4898 20.2728 23.6725 21.3143C22.8274 22.3915 21.7878 23.2773 20.5779 23.948C19.368 24.6186 18.0659 25.0309 16.7045 25.1767C15.3908 25.3164 14.0757 25.2019 12.7962 24.8328C12.3959 24.718 12.0024 24.579 11.62 24.4168L12.5085 22.3256C12.5873 22.1425 12.4193 21.9499 12.2271 22.002L7.03535 23.4173C6.88795 23.4582 6.81526 23.6277 6.88881 23.7604L9.48111 28.48C9.57774 28.6543 9.8329 28.6421 9.90762 28.4578L10.7391 26.497C14.1577 27.9455 18.1797 27.8624 21.6767 25.924C27.6403 22.6183 29.8382 15.1516 26.6603 9.15461C26.598 9.03608 26.4509 8.99173 26.3339 9.05664Z" fill="black"/>
</svg>
