<svg width="31" height="30" viewBox="0 0 31 30" xmlns="http://www.w3.org/2000/svg">
<path fill-rule="evenodd" clip-rule="evenodd" d="M1.61386 9.44123C1.61386 7.54259 3.153 6.00346 5.05164 6.00346H26.1761C28.0747 6.00346 29.6139 7.54259 29.6139 9.44123V20.5588C29.6139 22.4574 28.0747 23.9966 26.1761 23.9966H5.05164C3.153 23.9966 1.61386 22.4574 1.61386 20.5588L1.61386 9.44123ZM27.8543 20.5573V9.44123C27.8543 8.23303 27.3828 7.80306 26.1745 7.80306L25.6469 7.79729L25.6469 22.2285L26.1745 22.2342C27.3828 22.2342 27.8543 21.7655 27.8543 20.5573ZM3.53842 20.4912C3.53842 21.4301 4.29954 22.1912 5.23842 22.1912L23.9174 22.1854V7.80306L5.23842 7.80884C4.29954 7.80884 3.53842 8.56995 3.53842 9.50884L3.53842 20.4912Z" fill="black"/>
</svg>
