<svg width="30" height="31" viewBox="0 0 30 31" xmlns="http://www.w3.org/2000/svg">
<path d="M20.5369 7.45062C22.0875 7.45062 23.3494 8.7125 23.3494 10.2631C23.3494 11.8137 22.0875 13.0756 20.5369 13.0756C18.9862 13.0756 17.7244 11.8137 17.7244 10.2631C17.7244 8.7125 18.9862 7.45062 20.5369 7.45062ZM20.5369 11.2006C21.0534 11.2006 21.4744 10.7806 21.4744 10.2631C21.4744 9.74562 21.0534 9.32562 20.5369 9.32562C20.0203 9.32562 19.5994 9.74562 19.5994 10.2631C19.5994 10.7806 20.0203 11.2006 20.5369 11.2006Z" fill="black"/>
<path d="M18.2717 1.55815H22.7097C28.0922 1.55815 29 3.55153 29 8.01969V12.7582C29 15.2577 28.5186 15.9975 26.62 17.8391L15.6138 28.6051C14.3829 29.7994 12.0503 29.7962 10.8248 28.6083L1.97138 19.9918C1.35431 19.3931 0.999998 18.5261 0.999998 17.614C0.999998 16.6954 1.35861 15.8209 1.98431 15.2157L11.7445 5.30153C13.9489 3.1283 15.5417 1.55815 18.2717 1.55815ZM13.2188 27.3903C13.572 27.3903 13.8972 27.2718 14.1115 27.064L25.1177 16.2969C26.7988 14.6654 26.8462 14.4618 26.8462 12.7582V8.01969C26.8462 4.30861 26.5651 3.71199 22.7097 3.71199H18.2717C16.4991 3.71199 15.4534 4.67046 13.2575 6.83507L12.3605 7.71492L3.50169 16.7428C3.27338 16.9646 3.15384 17.2748 3.15384 17.614C3.15384 17.9468 3.26908 18.2494 3.47261 18.4465L12.326 27.0629C12.5392 27.2708 12.8655 27.3903 13.2188 27.3903Z" fill="black"/>
</svg>
