<svg width="30" height="30" viewBox="0 0 30 30" xmlns="http://www.w3.org/2000/svg">
<path d="M4.47009 10.3461L2.9784 12.6491L5.72995 14.3625C5.72995 14.3625 7.55928 15.3049 6.68242 17.0738C5.87106 18.7469 1.87476 22.4106 1.87476 22.4106L5.45278 24.6582C7.9322 19.2508 7.7659 19.9715 8.38576 18.0262C9.02577 16.0508 9.16688 14.5339 8.08339 13.4302C6.69249 12.0242 6.53627 11.8932 4.47009 10.3461Z" fill="black"/>
<path d="M6.42537 9.47926C7.72555 9.47926 8.7788 8.53184 8.7788 7.36268C8.7788 6.18344 7.72555 5.23602 6.42537 5.23602C5.11511 5.23602 4.06689 6.18848 4.06689 7.36268C4.07193 8.5268 5.11511 9.47926 6.42537 9.47926Z" fill="black"/>
<path d="M27.6818 9.74132C27.6818 9.74132 26.9007 3.65363 13.6721 7.42316C14.2415 6.43038 14.5086 5.79037 14.5086 5.79037L11.2077 4.85303C11.2077 4.85303 9.87229 9.23737 7.49365 11.2784C7.49365 11.2784 9.80173 12.6189 9.77654 12.5785C10.4367 11.9133 11.0314 11.238 11.5353 10.5829C12.0645 10.3461 12.5734 10.1294 13.0673 9.92778C12.4525 11.0365 11.4698 12.6995 10.4821 13.7477L11.873 14.9773C11.873 14.9773 12.8254 14.0551 13.8585 12.9515H15.0378V14.9975H10.4317V16.6303H15.0378V20.546L14.8614 20.5409C14.3524 20.5157 13.5662 20.4301 13.2538 19.9362C12.8809 19.3314 13.158 18.2379 13.1731 17.5576H9.99323L9.87733 17.6231C9.87733 17.6231 8.70817 22.8792 13.2387 22.7633C17.4718 22.8792 19.9008 21.569 21.07 20.6669L21.5336 22.4106L24.1441 21.3069L22.3752 16.9528L20.2587 17.6231L20.6517 19.1097C20.1175 19.5229 19.4876 19.8253 18.8174 20.0521V16.6303H23.3075V14.9925H18.8174V12.9464H23.3227V11.3136H15.3099C15.8894 10.6031 16.3379 9.95298 16.4589 9.54478L15.0579 9.16178C21.0549 6.99481 24.3961 7.36773 24.3709 10.9155V20.2587C24.3709 20.2587 24.7236 23.4638 21.075 23.237L19.0996 22.8087L18.641 24.6985C18.641 24.6985 27.1627 27.1578 27.8582 20.556C28.5486 13.9543 27.6818 9.74132 27.6818 9.74132Z" fill="black"/>
</svg>
