<svg width="30" height="30" viewBox="0 0 30 30" xmlns="http://www.w3.org/2000/svg">
<path d="M21.8222 14.3179H26.4653C26.5361 14.3179 26.5982 14.2705 26.617 14.2021L28.9943 5.5414C29.0218 5.44116 28.9465 5.3422 28.8426 5.3422H20.085C19.8142 5.33345 19.2306 5.46293 19.0628 6.05081C18.9725 6.36745 18.5181 8.01295 18.0103 9.85628L16.7812 14.3191H21.8219L21.8222 14.3179Z" fill="black"/>
<path d="M21.6377 14.9901H15.6604L17.2456 9.86078L17.8676 9.85628H15.0897L15.0886 9.86078H14.1139C13.405 9.86078 13.1097 10.5106 13.0506 10.8355L11.6511 15.7766L11.6541 15.7767L9.21162 24.4581C9.18336 24.5585 9.25875 24.6582 9.36299 24.6582H18.8643C18.9351 24.6582 18.9972 24.6109 19.016 24.5425L21.6377 14.9901Z" fill="black"/>
<path d="M10.5721 15.7698L10.565 15.7694L12.1163 10.6758C12.3949 9.86761 12.9019 9.19649 13.9344 9.19649H15.1407L15.7335 6.98343C15.7603 6.88356 15.6879 6.78542 15.5846 6.78518C11.8675 6.77648 4.68444 6.76504 4.14913 6.78566C3.60396 6.80665 3.3104 7.19682 3.23177 7.38928L1.0057 15.511C0.978334 15.6108 1.05297 15.7095 1.15635 15.7101L10.5721 15.7698Z" fill="black"/>
</svg>
