<svg width="30" height="30" viewBox="0 0 30 30" xmlns="http://www.w3.org/2000/svg">
<path d="M15 1C7.26613 1 1 7.26613 1 15C1 22.7339 7.26613 29 15 29C22.7339 29 29 22.7339 29 15C29 7.26613 22.7339 1 15 1ZM21.8758 10.5911L19.5782 21.4185C19.4089 22.1863 18.9516 22.3726 18.3137 22.0113L14.8137 19.4315L13.1258 21.0573C12.9395 21.2435 12.7815 21.4016 12.4202 21.4016L12.6685 17.8395L19.1548 11.9798C19.4371 11.7315 19.0927 11.5903 18.7202 11.8387L10.704 16.8855L7.24919 15.8073C6.49839 15.5702 6.48145 15.0565 7.40726 14.6952L20.9048 9.49032C21.5315 9.26452 22.079 9.64274 21.8758 10.5911Z" fill="black"/>
</svg>
