<svg width="30" height="30" viewBox="0 0 30 30" xmlns="http://www.w3.org/2000/svg">
<g clip-path="url(#clip0_1038_1026)">
<path d="M19.764 1.87542L19.7807 1.82378L18.8464 1.55435C15.338 0.546571 11.6278 0.933746 8.40059 2.64968C5.25359 4.32297 2.88394 7.10469 1.7271 10.4795L1.40201 11.4292L1.4798 11.4502C1.05749 13.0345 0.917627 14.6597 1.06244 16.2904C1.22829 18.1567 1.76362 19.9508 2.65025 21.6183C3.53689 23.2858 4.72485 24.7328 6.17937 25.9139C7.4344 26.9344 8.83756 27.7177 10.3627 28.2527L10.3566 28.2704L10.6402 28.3469C10.7324 28.3772 10.825 28.4065 10.918 28.4349C12.6589 28.9672 14.4542 29.1548 16.2563 28.9948C18.1226 28.8289 19.9166 28.2936 21.5841 27.4069C23.2516 26.5203 24.6987 25.3323 25.8798 23.8778C27.0229 22.4719 27.8685 20.8801 28.4008 19.1392C28.933 17.3983 29.1206 15.603 28.9606 13.8009C28.7948 11.9346 28.2594 10.1406 27.3728 8.47308C26.4861 6.80555 25.2982 5.35854 23.8437 4.17741C22.6171 3.18015 21.2491 2.4093 19.764 1.87542ZM10.941 26.4568C8.19141 25.4773 5.78461 23.5104 4.30949 20.7361C2.82356 17.9414 2.54547 14.8212 3.29118 11.9772C4.20162 12.3 5.05879 12.7241 5.85077 13.2402L5.21022 13.8587C4.83622 14.2199 4.82587 14.8133 5.18703 15.1873C5.54819 15.5613 6.14162 15.5717 6.51562 15.2105L7.35412 14.4008C8.13561 15.1107 8.82566 15.9274 9.40767 16.8376L8.28524 17.4344C7.82619 17.6785 7.65266 18.2461 7.89674 18.7052C8.14082 19.1642 8.70842 19.3377 9.16747 19.0937L10.297 18.4931C10.8068 19.6481 11.1297 20.8722 11.2616 22.1161L10.2964 22.3212C9.78787 22.4293 9.46461 22.9271 9.57271 23.4357C9.6808 23.9442 10.1786 24.2675 10.6871 24.1594L11.314 24.0261C11.2724 24.8432 11.1485 25.658 10.941 26.4568ZM11.0714 15.953C10.4096 14.8944 9.61732 13.9385 8.70382 13.0974L9.49178 12.3365C9.86578 11.9753 9.87613 11.3819 9.51497 11.0079C9.15381 10.6339 8.56038 10.6235 8.18639 10.9847L7.22705 11.9111C6.19971 11.1937 5.08683 10.6221 3.90543 10.203C4.96007 7.77765 6.80982 5.67894 9.32115 4.34364C11.8978 2.97362 14.7512 2.63035 17.4097 3.16961C17.1255 4.33062 16.992 5.51147 17.0109 6.70238L15.7276 6.97515C15.2191 7.08325 14.8958 7.58102 15.0039 8.08957C15.112 8.59812 15.6098 8.92138 16.1183 8.81328L17.1679 8.59018C17.3543 9.82027 17.704 11.0137 18.2124 12.156L17.1147 12.7397C16.6557 12.9838 16.4821 13.5514 16.7262 14.0104C16.9703 14.4695 17.5379 14.643 17.9969 14.3989L19.0877 13.819C19.8412 15.048 20.7696 16.142 21.8572 17.0805L20.9698 17.9375C20.5958 18.2987 20.5854 18.8921 20.9466 19.2661C21.3077 19.6401 21.9012 19.6504 22.2752 19.2893L23.3781 18.2242C24.2576 18.7969 25.1963 19.267 26.1871 19.6297C25.1134 22.2403 23.1802 24.3819 20.6665 25.7185C18.2274 27.0154 15.454 27.4365 12.7596 26.9324C13.0439 25.8475 13.195 24.7406 13.2133 23.6224L14.7341 23.2992C15.2426 23.1911 15.5659 22.6933 15.4578 22.1847C15.3497 21.6762 14.8519 21.3529 14.3434 21.461L13.1162 21.7219C12.9458 20.2973 12.5583 18.9189 11.961 17.6083L12.8205 17.1513C13.2796 16.9072 13.4531 16.3396 13.209 15.8806C12.965 15.4215 12.3974 15.248 11.9383 15.4921L11.0714 15.953ZM24.7692 16.8808L25.2513 16.4152C25.6253 16.0541 25.6357 15.4606 25.2745 15.0866C24.9134 14.7126 24.3199 14.7023 23.9459 15.0634L23.2127 15.7715C22.2573 14.9683 21.4271 14.015 20.7506 12.9348L21.65 12.4566C22.1091 12.2125 22.2826 11.6449 22.0385 11.1858C21.7944 10.7268 21.2268 10.5533 20.7678 10.7973L19.8764 11.2713C19.4477 10.2794 19.157 9.24798 19.0064 8.19941L20.1653 7.95308C20.6738 7.84498 20.9971 7.34721 20.889 6.83866C20.7809 6.33011 20.2831 6.00685 19.7746 6.11495L18.8867 6.30367C18.9011 5.42892 19.0115 4.55161 19.2189 3.68427C21.9114 4.67972 24.263 6.62713 25.7136 9.3553C27.1541 12.0645 27.4594 15.0797 26.7974 17.8526C26.0863 17.589 25.4082 17.2634 24.7692 16.8808Z" fill="black"/>
</g>
<defs>
<clipPath id="clip0_1038_1026">
<rect width="30" height="30" fill="white"/>
</clipPath>
</defs>
</svg>
