<svg width="31" height="31" viewBox="0 0 31 31" xmlns="http://www.w3.org/2000/svg">
<g clip-path="url(#clip0_219_12)">
<mask id="mask0_219_12" style="mask-type:luminance" maskUnits="userSpaceOnUse" x="0" y="0" width="31" height="31">
<path d="M30.9772 0.0535889H0.977173V30.0536H30.9772V0.0535889Z" fill="white"/>
</mask>
<g mask="url(#mask0_219_12)">
<path fill-rule="evenodd" clip-rule="evenodd" d="M8.36917 3.35359C8.63317 3.86559 8.83317 4.36159 8.96917 4.84159C7.84917 4.84159 6.89917 4.83159 6.11917 4.81159C5.33917 4.79159 4.64117 4.76159 4.02517 4.72159V5.87359C4.34517 5.84959 4.68517 5.82959 5.04517 5.81359C5.40517 5.79759 5.78917 5.78559 6.19717 5.77759C6.25317 6.16159 6.34117 6.57159 6.46117 7.00759C6.58117 7.44359 6.73117 7.87759 6.91117 8.30959C7.09117 8.74159 7.29717 9.16159 7.52917 9.56959C7.76117 9.97759 8.02117 10.3416 8.30917 10.6616C7.75717 11.0616 7.10317 11.4036 6.34717 11.6876C5.59117 11.9716 4.80117 12.1576 3.97717 12.2456C4.23317 12.4056 4.42917 12.5816 4.56517 12.7736C4.70117 12.9656 4.78917 13.1776 4.82917 13.4096C5.13317 13.3376 5.47317 13.2296 5.84917 13.0856C6.22517 12.9416 6.60517 12.7756 6.98917 12.5876C7.37317 12.3996 7.74517 12.1996 8.10517 11.9876C8.46517 11.7756 8.78517 11.5656 9.06517 11.3576C9.33717 11.5736 9.65117 11.7856 10.0072 11.9936C10.3632 12.2016 10.7432 12.3976 11.1472 12.5816C11.5512 12.7656 11.9732 12.9296 12.4132 13.0736C12.8532 13.2176 13.2892 13.3256 13.7212 13.3976C13.7612 13.2696 13.8072 13.1536 13.8592 13.0496C13.9112 12.9456 13.9752 12.8416 14.0512 12.7376C14.1272 12.6336 14.2192 12.5296 14.3272 12.4256C14.4352 12.3216 14.5692 12.2056 14.7292 12.0776C12.9852 12.1256 11.3772 11.6296 9.90517 10.5896C10.3852 10.0696 10.7992 9.42559 11.1472 8.65759C11.4952 7.88959 11.7612 6.92959 11.9452 5.77759C12.4092 5.79359 12.8332 5.80759 13.2172 5.81959C13.6012 5.83159 13.9612 5.84959 14.2972 5.87359V4.72159C13.7532 4.76159 13.1432 4.78959 12.4672 4.80559C11.7912 4.82159 10.9892 4.83359 10.0612 4.84159C9.97317 4.54559 9.89517 4.23759 9.82717 3.91759C9.75917 3.59759 9.70917 3.30959 9.67717 3.05359L8.36917 3.35359ZM7.42717 6.77959C7.32717 6.40759 7.25717 6.06959 7.21717 5.76559H10.7812C10.7172 6.31759 10.6332 6.80759 10.5292 7.23559C10.4252 7.66359 10.3032 8.04559 10.1632 8.38159C10.0232 8.71759 9.86517 9.01359 9.68917 9.26959C9.51317 9.52559 9.32517 9.75759 9.12517 9.96559C8.84517 9.69359 8.59717 9.37759 8.38117 9.01759C8.16517 8.65759 7.97717 8.28759 7.81717 7.90759C7.65717 7.52759 7.52717 7.15159 7.42717 6.77959ZM18.0122 8.31599C17.6409 8.13138 17.2537 7.99484 16.8544 7.9071C16.5743 7.84556 16.3532 7.60696 16.3532 7.32017C16.3532 6.98821 16.6423 6.72607 16.9682 6.78918C17.5001 6.89219 18.0255 7.06718 18.5311 7.31853C20.2898 8.19299 21.4231 9.79879 21.756 11.5897L22.7959 11.3783C22.8927 11.3571 22.9674 11.457 22.9216 11.5449L21.673 13.9123C21.6381 13.9792 21.548 13.9972 21.4907 13.9489L19.4858 12.2417C19.4117 12.1784 19.4456 12.0565 19.543 12.0373L20.6525 11.8125C20.6152 11.6123 20.5654 11.4141 20.5036 11.2198C20.307 10.5984 19.9952 10.0337 19.5784 9.5407C19.1473 9.03069 18.6207 8.61855 18.0122 8.31599ZM14.3532 27.702C13.8009 27.702 13.3532 27.2543 13.3532 26.702V15.702C13.3532 15.1498 13.8009 14.702 14.3532 14.702C14.9055 14.702 15.3532 15.1498 15.3532 15.702V26.702C15.3532 27.2543 14.9055 27.702 14.3532 27.702ZM18.3532 25.702C17.8009 25.702 17.3532 25.2543 17.3532 24.702V17.702C17.3532 17.1498 17.8009 16.702 18.3532 16.702C18.9055 16.702 19.3532 17.1498 19.3532 17.702V24.702C19.3532 25.2543 18.9055 25.702 18.3532 25.702ZM26.3532 25.702C25.8009 25.702 25.3532 25.2543 25.3532 24.702V17.702C25.3532 17.1498 25.8009 16.702 26.3532 16.702C26.9055 16.702 27.3532 17.1498 27.3532 17.702V24.702C27.3532 25.2543 26.9055 25.702 26.3532 25.702ZM10.3532 24.702C9.80086 24.702 9.35315 24.2543 9.35315 23.702V18.702C9.35315 18.1498 9.80086 17.702 10.3532 17.702C10.9054 17.702 11.3532 18.1498 11.3532 18.702V23.702C11.3532 24.2543 10.9054 24.702 10.3532 24.702ZM22.3532 24.702C21.8009 24.702 21.3532 24.2543 21.3532 23.702V18.702C21.3532 18.1498 21.8009 17.702 22.3532 17.702C22.9055 17.702 23.3532 18.1498 23.3532 18.702V23.702C23.3532 24.2543 22.9055 24.702 22.3532 24.702Z" fill="black"/>
</g>
</g>
<defs>
<clipPath id="clip0_219_12">
<rect width="30" height="30" fill="white" transform="translate(0.977173 0.0535889)"/>
</clipPath>
</defs>
</svg>
