<svg width="30" height="31" viewBox="0 0 30 31"  xmlns="http://www.w3.org/2000/svg">
<path d="M27.4444 25.936H11.1111H10.3333H8.77778C8.77778 25.0774 8.08089 24.3805 7.22222 24.3805C6.36278 24.3805 5.66667 25.0774 5.66667 25.936H4.11111H3.33333H2.55556C1.69611 25.936 1 25.2399 1 24.3805V7.27016C1 6.41071 1.69611 5.7146 2.55556 5.7146H3.33333H4.11111H5.66667C5.66667 6.57327 6.36278 7.26938 7.22222 7.26938C8.08089 7.26938 8.77778 6.57327 8.77778 5.7146H10.3333H11.1111H27.4444C28.3031 5.7146 29 6.41071 29 7.27016V24.3805C29 25.2399 28.3031 25.936 27.4444 25.936ZM27 7.7146H9.90167C9.36267 8.64093 8.371 9.2146 7.22222 9.2146C6.07344 9.2146 5.08178 8.64093 4.54278 7.7146H3V23.7146H4.54278C5.08178 22.789 6.07344 22.3336 7.22222 22.3336C8.371 22.3336 9.36267 22.789 9.90167 23.7146H27V7.7146ZM13.8333 12.7138H23.9444C24.1591 12.7138 24.3333 12.888 24.3333 13.1027V14.2146C24.3333 14.4293 24.1591 14.6035 23.9444 14.6035H13.8333C13.6187 14.6035 13.4444 14.4293 13.4444 14.2146V13.1027C13.4444 12.888 13.6187 12.7138 13.8333 12.7138ZM13.8333 16.9916H23.9444C24.1591 16.9916 24.3333 17.1658 24.3333 17.3805V18.5479C24.3333 18.7626 24.1591 18.936 23.9444 18.936H13.8333C13.6187 18.936 13.4444 18.7626 13.4444 18.5479V17.3805C13.4444 17.1658 13.6187 16.9916 13.8333 16.9916ZM7.61111 21.2694H6.83333C6.61867 21.2694 6.44444 21.0952 6.44444 20.8805V16.9916C6.44444 16.7769 6.61867 16.6027 6.83333 16.6027H7.61111C7.82578 16.6027 8 16.7769 8 16.9916V20.8805C8 21.0952 7.82578 21.2694 7.61111 21.2694ZM7.61111 15.0479H6.83333C6.61867 15.0479 6.44444 14.8737 6.44444 14.659V10.7694C6.44444 10.5547 6.61867 10.3805 6.83333 10.3805H7.61111C7.82578 10.3805 8 10.5547 8 10.7694V14.659C8 14.8737 7.82578 15.0479 7.61111 15.0479Z" fill="black"/>
</svg>
