<svg width="30" height="30" viewBox="0 0 30 30"  xmlns="http://www.w3.org/2000/svg">
<path d="M15.7759 1.02333C17.3042 1 18.8209 1.01167 20.3375 1C20.4308 2.78498 21.0725 4.60495 22.3791 5.86494C23.6858 7.15992 25.5291 7.75492 27.3258 7.95325V12.6549C25.6458 12.5965 23.9541 12.2465 22.4258 11.5232C21.7608 11.2199 21.1425 10.8349 20.5358 10.4382C20.5242 13.8448 20.5475 17.2515 20.5125 20.6464C20.4192 22.2797 19.8825 23.9014 18.9375 25.243C17.4092 27.483 14.7609 28.9413 12.0426 28.988C10.3743 29.0813 8.70598 28.6263 7.28267 27.7863C4.92603 26.398 3.26938 23.8547 3.02439 21.1247C3.00105 20.5414 2.98939 19.9581 3.01272 19.3864C3.22272 17.1698 4.31937 15.0465 6.02268 13.5998C7.95932 11.9199 10.666 11.1149 13.1976 11.5932C13.2209 13.3198 13.1509 15.0465 13.1509 16.7731C11.9959 16.3998 10.6426 16.5048 9.62764 17.2048C8.89265 17.6831 8.33265 18.4181 8.04099 19.2464C7.79599 19.8414 7.86599 20.4948 7.87766 21.1247C8.15765 23.0381 10.001 24.648 11.9609 24.473C13.2676 24.4614 14.5159 23.7031 15.1926 22.5947C15.4142 22.2097 15.6592 21.8131 15.6709 21.3581C15.7876 19.2698 15.7409 17.1931 15.7526 15.1048C15.7642 10.4032 15.7409 5.71327 15.7759 1.02333Z" fill="black"/>
</svg>
