<svg width="30" height="31" viewBox="0 0 30 31" xmlns="http://www.w3.org/2000/svg">
<path d="M23.825 8.4375C24.3125 7.95 24.3125 7.15 23.825 6.6625C23.3375 6.175 22.55 6.175 22.0625 6.6625L13.6625 13.3875L13.225 13.7375C12.25 14.7125 12.25 16.3 13.225 17.275C14.2 18.25 15.7875 18.25 16.7625 17.275L17.1125 16.8375L23.825 8.4375ZM15 25.5C9.475 25.5 5 21.025 5 15.5C5 12.7375 6.125 10.2375 7.925 8.425L6.1625 6.6625C3.9 8.925 2.5 12.05 2.5 15.5C2.5 22.4 8.1 28 15 28C21.9 28 27.5 22.4 27.5 15.5H25C25 21.025 20.525 25.5 15 25.5ZM15 1.75C13.625 1.75 12.5 2.875 12.5 4.25C12.5 5.625 13.625 6.75 15 6.75C16.375 6.75 17.5 5.625 17.5 4.25C17.5 2.875 16.375 1.75 15 1.75Z" fill="black"/>
</svg>
