<svg width="30" height="31" viewBox="0 0 30 31" xmlns="http://www.w3.org/2000/svg">
<path d="M15 27.1667C8.567 27.1667 3.33333 21.933 3.33333 15.5C3.33333 9.067 8.567 3.83333 15 3.83333C21.433 3.83333 26.6667 9.067 26.6667 15.5C26.6667 21.933 21.433 27.1667 15 27.1667ZM15 1.5C7.28017 1.5 1 7.78017 1 15.5C1 23.2198 7.28017 29.5 15 29.5C22.7198 29.5 29 23.2198 29 15.5C29 7.78017 22.7198 1.5 15 1.5Z" fill="black"/>
<path d="M16.2418 14.5573V8.53662C16.2418 8.26169 16.1237 7.99803 15.9135 7.80362C15.7033 7.60922 15.4182 7.5 15.1209 7.5C14.8236 7.5 14.5385 7.60922 14.3283 7.80362C14.1181 7.99803 14 8.26169 14 8.53662V14.9865C14 15.2612 14.1177 15.5255 14.3284 15.7194L18.0868 19.1952C18.1907 19.2918 18.3142 19.3685 18.4502 19.4208C18.5862 19.4731 18.732 19.5 18.8793 19.5C19.0266 19.5 19.1725 19.4731 19.3085 19.4208C19.4445 19.3685 19.568 19.2918 19.6718 19.1952C19.8819 19.0008 20 18.7372 20 18.4623C20 18.1874 19.8819 17.9238 19.6718 17.7294L16.2418 14.5573Z" fill="black"/>
</svg>
