<svg width="30" height="31" viewBox="0 0 30 31" xmlns="http://www.w3.org/2000/svg">
<g clip-path="url(#clip0_1038_655)">
<path d="M21.7382 4.63985L14.9938 11.3843L8.25491 4.64546C8.00192 4.39161 7.70137 4.19012 7.37045 4.05251C7.03954 3.9149 6.68474 3.84387 6.32635 3.84348C5.96796 3.84309 5.61301 3.91335 5.28179 4.05024C4.95058 4.18713 4.64959 4.38796 4.39605 4.64126C4.14274 4.89482 3.9419 5.19584 3.80504 5.52709C3.66819 5.85835 3.59799 6.21334 3.59846 6.57175C3.59894 6.93017 3.67009 7.28497 3.80783 7.61586C3.94557 7.94675 4.1472 8.24723 4.40119 8.50011L11.1443 15.2432L4.39652 21.9909C3.88383 22.5034 3.59566 23.1985 3.5954 23.9233C3.59514 24.6482 3.8828 25.3435 4.39511 25.8563C4.64879 26.1113 4.95023 26.3139 5.28222 26.4523C5.6142 26.5908 5.97022 26.6624 6.32991 26.6632C6.68886 26.665 7.04462 26.5959 7.37674 26.4597C7.70886 26.3236 8.0108 26.1231 8.26518 25.8699L15.0181 19.117L21.7518 25.8507C22.2854 26.3843 22.9801 26.6558 23.6782 26.6548C24.0366 26.6557 24.3916 26.5857 24.7228 26.4487C25.054 26.3117 25.3548 26.1106 25.6078 25.8568C25.8613 25.6032 26.0623 25.3023 26.1993 24.971C26.3364 24.6398 26.4068 24.2848 26.4067 23.9263C26.4065 23.5678 26.3357 23.2129 26.1983 22.8817C26.0609 22.5506 25.8596 22.2498 25.606 21.9965L18.8718 15.2623L25.6163 8.51787C26.6829 7.45118 26.6755 5.71402 25.6083 4.6478C24.5416 3.58204 22.804 3.5741 21.7382 4.63985Z" fill="black"/>
</g>
<defs>
<clipPath id="clip0_1038_655">
<rect width="30" height="30" fill="white" transform="translate(0 0.250336)"/>
</clipPath>
</defs>
</svg>
