<svg width="31" height="31" viewBox="0 0 31 31" xmlns="http://www.w3.org/2000/svg">
<rect x="3.43115" y="7" width="24" height="2" rx="1" fill="black"/>
<rect x="3.43115" y="12" width="13.3491" height="2" rx="1" fill="black"/>
<rect x="22.0693" y="22" width="10.6746" height="2" rx="1" transform="rotate(-90 22.0693 22)" fill="black"/>
<path d="M23.5693 23.3708C23.1401 23.7184 22.5104 23.6522 22.1628 23.223L19.7561 20.2509C19.4085 19.8217 19.4747 19.192 19.9039 18.8445C20.3331 18.4969 20.9628 18.5631 21.3104 18.9923L23.7171 21.9643C24.0647 22.3935 23.9985 23.0232 23.5693 23.3708Z" fill="black"/>
<path d="M22.5693 23.3708C22.9985 23.7184 23.6282 23.6522 23.9757 23.223L26.3824 20.2509C26.73 19.8217 26.6638 19.192 26.2346 18.8445C25.8054 18.4969 25.1757 18.5631 24.8281 18.9923L22.4214 21.9643C22.0739 22.3935 22.1401 23.0232 22.5693 23.3708Z" fill="black"/>
<rect x="3.43115" y="17" width="13.3491" height="2" rx="1" fill="black"/>
<rect x="3.43115" y="22" width="13.3491" height="2" rx="1" fill="black"/>
</svg>
