<svg width="31" height="30" viewBox="0 0 31 30" xmlns="http://www.w3.org/2000/svg">
<rect x="3.43115" y="22.6721" width="24" height="2" rx="1" fill="black"/>
<rect x="14.4312" y="20.2009" width="14.873" height="2" rx="1" transform="rotate(-90 14.4312 20.2009)" fill="black"/>
<path d="M15.9311 21.5717C15.5019 21.9193 14.8722 21.8531 14.5246 21.4239L12.1179 18.4519C11.7703 18.0227 11.8365 17.393 12.2657 17.0454C12.6949 16.6978 13.3246 16.764 13.6722 17.1932L16.0789 20.1653C16.4265 20.5945 16.3603 21.2242 15.9311 21.5717Z" fill="black"/>
<path d="M14.9311 21.5717C15.3603 21.9193 15.99 21.8531 16.3375 21.4239L18.7443 18.4519C19.0918 18.0227 19.0256 17.393 18.5964 17.0454C18.1672 16.6978 17.5375 16.764 17.19 17.1932L14.7833 20.1653C14.4357 20.5945 14.5019 21.2242 14.9311 21.5717Z" fill="black"/>
</svg>
