<svg width="31" height="30" viewBox="0 0 31 30" fill="none" xmlns="http://www.w3.org/2000/svg">
<rect width="24" height="2" rx="1" transform="matrix(1 0 0 -1 3.43115 7.32788)" fill="black"/>
<rect width="14.873" height="2" rx="1" transform="matrix(0 1 1 0 14.4312 9.79907)" fill="black"/>
<path d="M15.9311 8.42828C15.5019 8.08071 14.8722 8.1469 14.5246 8.5761L12.1179 11.5481C11.7703 11.9773 11.8365 12.607 12.2657 12.9546C12.6949 13.3022 13.3246 13.236 13.6722 12.8068L16.0789 9.83474C16.4265 9.40554 16.3603 8.77584 15.9311 8.42828Z" fill="black"/>
<path d="M14.9311 8.42828C15.3603 8.08071 15.99 8.1469 16.3375 8.5761L18.7443 11.5481C19.0918 11.9773 19.0256 12.607 18.5964 12.9546C18.1672 13.3022 17.5375 13.236 17.19 12.8068L14.7833 9.83474C14.4357 9.40554 14.5019 8.77584 14.9311 8.42828Z" fill="black"/>
</svg>
