<svg width="31" height="30" viewBox="0 0 31 30" fill="none" xmlns="http://www.w3.org/2000/svg">
<rect width="24" height="2" rx="1" transform="matrix(1 0 0 -1 3.43115 23.5)" fill="black"/>
<rect width="13.3491" height="2" rx="1" transform="matrix(1 0 0 -1 3.43115 18.5)" fill="black"/>
<rect width="10.6746" height="2" rx="1" transform="matrix(0 1 1 0 22.0693 8.5)" fill="black"/>
<path d="M23.5693 7.1292C23.1401 6.78164 22.5104 6.84782 22.1628 7.27703L19.7561 10.2491C19.4085 10.6783 19.4747 11.308 19.9039 11.6555C20.3331 12.0031 20.9628 11.9369 21.3104 11.5077L23.7171 8.53567C24.0647 8.10646 23.9985 7.47677 23.5693 7.1292Z" fill="black"/>
<path d="M22.5693 7.1292C22.9985 6.78164 23.6282 6.84782 23.9757 7.27703L26.3824 10.2491C26.73 10.6783 26.6638 11.308 26.2346 11.6555C25.8054 12.0031 25.1757 11.9369 24.8281 11.5077L22.4214 8.53567C22.0739 8.10646 22.1401 7.47677 22.5693 7.1292Z" fill="black"/>
<rect width="13.3491" height="2" rx="1" transform="matrix(1 0 0 -1 3.43115 13.5)" fill="black"/>
<rect width="13.3491" height="2" rx="1" transform="matrix(1 0 0 -1 3.43115 8.5)" fill="black"/>
</svg>
