<svg width="31" height="30" viewBox="0 0 31 30" xmlns="http://www.w3.org/2000/svg">
<path fill-rule="evenodd" clip-rule="evenodd" d="M15.7867 1C8.0547 1 1.78668 7.26801 1.78668 15C1.78668 22.732 8.0547 29 15.7867 29C23.5187 29 29.7867 22.732 29.7867 15C29.7867 7.26801 23.5187 1 15.7867 1ZM15.7867 3C9.15927 3 3.78668 8.37258 3.78668 15C3.78668 21.6274 9.15927 27 15.7867 27C22.4141 27 27.7867 21.6274 27.7867 15C27.7867 8.37258 22.4141 3 15.7867 3Z" fill="black"/>
<path d="M11.798 21V9.36364H16.389C17.2677 9.36364 18.0177 9.52083 18.639 9.83523C19.264 10.1458 19.7393 10.5871 20.0651 11.1591C20.3946 11.7273 20.5594 12.3958 20.5594 13.1648C20.5594 13.9375 20.3927 14.6023 20.0594 15.1591C19.7261 15.7121 19.2431 16.1364 18.6105 16.4318C17.9818 16.7273 17.2204 16.875 16.3265 16.875H13.2526V14.8977H15.9287C16.3984 14.8977 16.7886 14.8333 17.0992 14.7045C17.4098 14.5758 17.6408 14.3826 17.7924 14.125C17.9477 13.8674 18.0253 13.5473 18.0253 13.1648C18.0253 12.7784 17.9477 12.4527 17.7924 12.1875C17.6408 11.9223 17.4079 11.7216 17.0935 11.5852C16.7829 11.4451 16.3908 11.375 15.9174 11.375H14.2583V21H11.798ZM18.0821 15.7045L20.9742 21H18.2583L15.4287 15.7045H18.0821Z" fill="black"/>
</svg>
