<svg width="30" height="30" viewBox="0 0 30 30" xmlns="http://www.w3.org/2000/svg">
<path d="M6.75 9C3.57436 9 1 11.5744 1 14.75C1 17.9256 3.57436 20.5 6.75 20.5H23.25C26.4256 20.5 29 17.9256 29 14.75C29 11.5744 26.4256 9 23.25 9H6.75ZM6.75 11C8.82107 11 10.5 12.6789 10.5 14.75C10.5 16.8211 8.82107 18.5 6.75 18.5C4.67893 18.5 3 16.8211 3 14.75C3 12.6789 4.67893 11 6.75 11ZM15.25 11C17.3211 11 19 12.6789 19 14.75C19 16.8211 17.3211 18.5 15.25 18.5C13.1789 18.5 11.5 16.8211 11.5 14.75C11.5 12.6789 13.1789 11 15.25 11ZM20 14.75C20 12.6789 21.6789 11 23.75 11C25.8211 11 27.5 12.6789 27.5 14.75C27.5 16.8211 25.8211 18.5 23.75 18.5C21.6789 18.5 20 16.8211 20 14.75Z" fill="black"/>
</svg>
