<svg width="31" height="30" viewBox="0 0 31 30" fill="none" xmlns="http://www.w3.org/2000/svg">
<path d="M20.6212 4.98301H21.2692V6.00901H23.3992V8.93701H22.7692V8.60701H21.2692V10.611H20.6212V8.60701H19.1272V8.93701H18.4972V6.00901H20.6212V4.98301ZM19.1272 7.99501H20.6212V6.62101H19.1272V7.99501ZM21.2692 7.99501H22.7692V6.62101H21.2692V7.99501Z" fill="black"/>
<path d="M16.2022 6.50436C11.5579 6.59408 7.82065 10.387 7.82065 15.0527C7.82065 15.9655 7.96367 16.8448 8.22852 17.6695C8.37425 18.1233 8.90627 18.2947 9.31829 18.0552C9.6638 17.8543 9.80288 17.4303 9.68873 17.0473C9.5004 16.4154 9.39926 15.7459 9.39926 15.0528C9.39926 11.2672 12.4166 8.18629 16.1776 8.08397L16.7782 6.88241L16.2022 6.50436Z" fill="black"/>
<path d="M22.941 12.7163C22.802 12.3253 22.9351 11.8774 23.2938 11.6689C23.6908 11.438 24.2039 11.5897 24.3668 12.0191C24.7247 12.9619 24.9206 13.9844 24.9206 15.0527C24.9206 19.7564 21.1224 23.573 16.4256 23.6026L15.5329 23.0166L16.033 22.0163C16.1449 22.0216 16.2575 22.0243 16.3707 22.0243C20.221 22.0243 23.3422 18.9031 23.3422 15.0528C23.3422 14.2333 23.2008 13.4467 22.941 12.7163Z" fill="black"/>
<path d="M17.1622 19.9674C17.485 20.1463 17.6016 20.553 17.4227 20.8758L16.1972 23.0867C16.0183 23.4095 15.6116 23.5261 15.2888 23.3472C14.966 23.1683 14.8494 22.7616 15.0283 22.4388L16.2538 20.2279C16.4327 19.9051 16.8394 19.7885 17.1622 19.9674Z" fill="black"/>
<path d="M15.0682 22.6191C15.2692 22.3095 15.6831 22.2216 15.9926 22.4226L18.1126 23.7993C18.4221 24.0003 18.5101 24.4142 18.3091 24.7237C18.1081 25.0332 17.6943 25.1212 17.3847 24.9202L15.2647 23.5434C14.9552 23.3424 14.8672 22.9286 15.0682 22.6191Z" fill="black"/>
<path d="M13.3152 5.33704C13.4827 5.00822 13.8851 4.87748 14.2139 5.04502L16.4662 6.19264C16.7951 6.36018 16.9258 6.76256 16.7583 7.09138C16.5907 7.4202 16.1883 7.55094 15.8595 7.3834L13.6072 6.23578C13.2784 6.06824 13.1476 5.66586 13.3152 5.33704Z" fill="black"/>
<path d="M16.5142 6.59733C16.8165 6.809 16.89 7.22566 16.6783 7.52797L15.2284 9.59866C15.0167 9.90096 14.6001 9.97443 14.2978 9.76276C13.9955 9.55108 13.922 9.13442 14.1337 8.83212L15.5836 6.76142C15.7953 6.45912 16.2119 6.38565 16.5142 6.59733Z" fill="black"/>
<path d="M7.03271 20.8055H9.49581V21.2838H7.59229V22.2308H9.38103V22.7091H7.59229V23.7421H9.57712V24.2204H7.03271V20.8055Z" fill="black"/>
<path d="M10.1013 20.8055H10.6609L12.3492 23.2686H12.3683V20.8055H12.9327V24.2204H12.3875L10.68 21.7238H10.6609V24.2204H10.1013V20.8055Z" fill="black"/>
</svg>
