<svg width="31" height="30" viewBox="0 0 31 30" xmlns="http://www.w3.org/2000/svg">
<rect x="1.72742" y="14.45" width="28" height="1.1" fill="black"/>
<rect x="1.72742" y="10.3499" width="28" height="1.1" fill="black"/>
<rect x="1.72742" y="6.24976" width="28" height="1.1" fill="black"/>
<rect x="1.72742" y="18.55" width="28" height="1.1" fill="black"/>
<rect x="1.72742" y="22.6501" width="28" height="1.1" fill="black"/>
<path d="M17.3783 5.26444C16.6617 6.59174 16.512 8.21564 16.8144 9.81897C18.5294 8.34778 19.4103 7.02928 19.6276 5.72547C19.9536 3.76682 18.456 3.27348 17.3783 5.26444ZM17.6073 16.7726L18.1711 21.2831C19.4133 20.8192 19.9712 20.0116 19.8449 18.8605C19.7187 17.7094 18.9728 17.0134 17.6073 16.7726ZM16.3123 12.638C14.7325 13.7304 13.6195 14.7964 12.9735 15.8388C12.0044 17.4011 12.7239 20.4345 14.2685 21.1304C15.2992 21.5944 16.2859 21.753 17.2314 21.6032L16.6823 16.9224C15.7221 17.2219 15.1905 17.8474 15.0936 18.7959C14.9967 19.7444 15.4108 20.4726 16.3387 20.9777C14.5621 20.4315 13.7105 19.483 13.7869 18.1264C13.8632 16.7697 14.7706 15.7331 16.509 15.0107L16.3123 12.638ZM18.6615 1.55562C19.9095 1.68483 21.0137 5.47587 20.1415 8.01008C19.5601 9.69858 18.5 10.9143 17.064 12.1153L17.3401 14.6378C17.3548 14.7699 17.3636 14.8639 17.3694 14.9226C19.4162 14.8345 21.3983 16.7668 21.1546 19.0661C20.9931 20.5989 20.0681 21.7265 18.3796 22.4519L18.4119 22.7044C18.6351 24.5015 18.6997 25.823 18.6116 26.6746C18.4706 28.0107 17.2373 29.4554 15.214 29.5465C13.1908 29.6346 11.3643 28.0753 11.5874 26.7685C11.8106 25.4618 13.044 25.1212 13.8427 25.4295C14.6385 25.7378 15.1436 26.6892 14.7736 27.3265C14.4036 27.9637 13.6871 28.0812 13.9102 28.3601C14.1334 28.642 14.8147 28.7595 15.7749 28.5539C17.2138 28.2456 17.622 26.795 17.6572 25.7496C17.6807 25.0507 17.6044 24.1198 17.4252 22.9511C13.4198 22.7837 11.1 21.4182 10.4686 18.8517C9.52014 15.0019 12.2658 12.5881 15.9893 10.2007C15.7191 9.31389 15.4666 7.51381 15.5341 5.95452C15.6369 3.5642 17.4164 1.42641 18.6615 1.55562Z" fill="black"/>
</svg>
