<svg width="30" height="30" viewBox="0 0 30 30" xmlns="http://www.w3.org/2000/svg">
<path d="M29 6.70208C27.9703 7.14626 26.8498 7.46593 25.6956 7.59043C26.8868 6.88042 27.792 5.75988 28.2193 4.42735C27.119 5.08352 25.8739 5.56472 24.5784 5.81372C23.5285 4.69319 22.0379 4 20.3857 4C17.2057 4 14.6484 6.57757 14.6484 9.74066C14.6484 10.1848 14.7022 10.629 14.7897 11.0564C10.0282 10.8074 5.78164 8.53263 2.95842 5.04987C2.4604 5.90458 2.17774 6.88042 2.17774 7.94712C2.17774 9.93919 3.1906 11.6957 4.73513 12.7288C3.79293 12.6917 2.90458 12.4259 2.14073 11.9986V12.0692C2.14073 14.8588 4.11261 17.1705 6.74066 17.7022C6.25946 17.8267 5.74462 17.8974 5.22978 17.8974C4.85627 17.8974 4.50294 17.8604 4.14626 17.8099C4.87309 20.0846 6.98966 21.7368 9.51003 21.7907C7.53816 23.3352 5.06826 24.2437 2.38637 24.2437C1.90518 24.2437 1.461 24.2269 1 24.1731C3.54393 25.8051 6.56231 26.7473 9.81288 26.7473C20.3655 26.7473 26.1398 18.005 26.1398 10.417C26.1398 10.168 26.1398 9.919 26.1229 9.66999C27.2401 8.8523 28.2193 7.83944 29 6.70208Z" fill="black"/>
</svg>
