<svg width="30" height="30" viewBox="0 0 30 30" xmlns="http://www.w3.org/2000/svg">
<path d="M6.23395 6.02253C5.42018 6.12824 4.61331 6.79576 4.35026 7.58256C4.18616 8.06811 1.01225 21.8426 1.00107 22.1056C0.976337 22.8226 1.38316 23.3576 2.05753 23.4948C2.30931 23.5464 23.596 23.5486 23.8634 23.4993C24.6255 23.3532 25.3447 22.744 25.6188 22.0135C25.7247 21.7302 28.9839 7.68147 28.9974 7.44769C29.0357 6.78684 28.6513 6.24504 28.0038 6.04953C27.8577 6.00683 6.57338 5.97759 6.23395 6.02253ZM5.98671 10.5002C5.98671 10.5159 5.96641 10.5991 5.94177 10.6845C5.60453 11.8354 5.26962 13.3796 5.31232 13.5774C5.436 14.1574 6.26538 14.1102 6.56886 13.5077C6.65426 13.3415 7.29036 10.6553 7.29036 10.4665C7.29036 10.4575 8.2862 10.4709 8.29512 10.48C8.29739 10.4822 8.29072 10.5204 8.27717 10.5631C8.26596 10.6058 8.10413 11.2307 7.91981 11.9545C7.52413 13.5168 7.47243 13.6764 7.26571 13.9798C6.5868 14.9824 4.32777 14.9508 4.14345 13.9371C4.103 13.71 4.58858 11.1723 4.8043 10.4822C4.81558 10.4462 5.98671 10.4643 5.98671 10.5002ZM21.0357 10.5002C21.7124 10.6486 21.9191 11.1948 21.6065 11.9995C21.2919 12.8065 20.6355 13.1684 19.4735 13.1684C19.1228 13.1684 19.1497 13.1145 18.9228 14.2135C18.8801 14.4226 18.8396 14.616 18.8329 14.6407C18.8172 14.7126 17.7719 14.7126 17.7832 14.6407C18.6665 10.8532 18.7363 10.5272 18.743 10.5002L18.7542 10.4508L19.8174 10.4575C20.667 10.4643 20.9098 10.4732 21.0357 10.5002ZM11.9569 11.9568C12.0985 11.9928 12.2131 12.1052 12.2131 12.2063C12.2131 12.5727 11.4601 12.8244 11.1859 12.5502C10.9048 12.2693 11.4713 11.8354 11.9569 11.9568ZM9.34485 12.2355C9.34485 12.2714 9.33594 12.3299 9.32688 12.3636L9.30894 12.4243L9.48647 12.3345C9.95409 12.0984 10.4126 12.1388 10.5632 12.4333C10.6554 12.6087 10.6441 12.7143 10.4081 13.809C10.3654 14.0067 10.3114 14.2698 10.2912 14.3933C10.2395 14.6901 10.2778 14.6699 9.75176 14.6789C9.30215 14.6856 9.30215 14.6856 9.30666 14.6362C9.30894 14.6115 9.36291 14.3687 9.42355 14.0967C9.66403 13.0469 9.66855 12.8986 9.46174 12.8986C9.34709 12.8986 9.18299 12.9683 9.1718 13.02C9.14934 13.1211 8.88186 14.4024 8.85713 14.5283L8.83013 14.6632L8.36933 14.6789C7.80967 14.6968 7.8501 14.7418 7.97366 14.2316C8.13113 13.5842 8.22544 13.1256 8.28845 12.7211C8.35815 12.2759 8.31093 12.3254 8.73122 12.258C8.92232 12.2287 9.11783 12.1951 9.16729 12.1815C9.31345 12.1479 9.34709 12.1568 9.34485 12.2355ZM16.3355 12.2243C16.3355 12.2557 16.3265 12.3142 16.3175 12.3524L16.2995 12.4266L16.4771 12.3367C17.3943 11.8624 17.747 12.2535 17.4773 13.4493C17.4167 13.7213 17.3379 14.0945 17.3043 14.281C17.2704 14.4653 17.2301 14.6294 17.2165 14.6451C17.1649 14.6968 16.2926 14.6946 16.2972 14.6407C16.2994 14.616 16.3511 14.3776 16.4141 14.1125C16.6613 13.0402 16.6636 12.9009 16.4477 12.8986C16.2746 12.8986 16.178 12.957 16.1488 13.0852C16.1105 13.2448 15.8881 14.3125 15.8498 14.5058L15.8206 14.6632L15.3598 14.6766C14.7978 14.6923 14.8428 14.7486 14.9755 14.2001C15.1169 13.6179 15.2315 13.0627 15.2924 12.6626C15.3485 12.2827 15.3081 12.3254 15.6746 12.2693C15.8409 12.2423 16.0387 12.2085 16.1129 12.1906C16.2996 12.1501 16.3378 12.1546 16.3355 12.2243ZM25.2818 12.1996C25.3358 13.1032 25.3537 13.3661 25.3628 13.3774C25.3694 13.3864 25.4976 13.1571 25.6436 12.8649C25.9426 12.2737 25.8775 12.3389 26.2057 12.2918C26.2933 12.2782 26.4687 12.2468 26.5967 12.2221C26.9182 12.1568 26.9204 12.1343 26.5473 12.7772C26.0438 13.6471 25.3491 14.87 25.1042 15.315C24.3557 16.6862 24.3603 16.6793 23.7174 16.6929L23.3397 16.7019L23.3734 16.5917C23.3914 16.5334 23.4273 16.4097 23.4543 16.3198L23.5038 16.158H23.6206C23.7554 16.158 23.7802 16.1355 23.906 15.9221C23.951 15.8479 24.0184 15.7309 24.0589 15.6635C24.1017 15.5961 24.2432 15.3511 24.3736 15.1196L24.6141 14.7015L24.5512 14.153C24.4792 13.5146 24.3848 12.775 24.3466 12.5436C24.3128 12.3412 24.3128 12.3435 24.5781 12.3031C24.6948 12.2851 24.8816 12.2513 24.9917 12.2266C25.2278 12.1771 25.2662 12.1726 25.2818 12.1996ZM14.1821 12.2265C15.3196 12.4355 14.9194 14.4114 13.6854 14.6856C12.8492 14.8721 12.276 14.5529 12.276 13.8989C12.2738 12.766 13.1122 12.0287 14.1821 12.2265ZM22.654 12.2782C22.717 12.3052 22.798 12.3659 22.8384 12.4108C22.9058 12.4873 22.9103 12.4895 22.9171 12.4423C22.9261 12.3839 22.9193 12.3861 23.5061 12.2895C23.9825 12.213 23.9623 12.2108 23.9286 12.3547C23.7308 13.1819 23.5712 13.9011 23.5083 14.2518C23.4117 14.7778 23.4836 14.7216 22.9104 14.7148L22.4294 14.7081L22.4361 14.6451C22.4429 14.5845 22.4114 14.562 22.3844 14.6069C22.2181 14.8744 21.4268 14.762 21.2044 14.4406C20.6423 13.6224 21.8089 11.8826 22.654 12.2782ZM12.0827 12.7098C12.0894 12.7165 12.0827 12.7795 12.0647 12.8491C11.9523 13.3212 11.7366 14.272 11.7028 14.4496L11.6624 14.6632L11.1791 14.6766C10.5991 14.6923 10.6351 14.7193 10.7498 14.3731C10.8577 14.0382 10.9543 13.6157 11.0218 13.1796C11.0779 12.8042 11.0195 12.8582 11.4422 12.7953C11.6376 12.766 11.8377 12.7323 11.8871 12.7211C11.9973 12.6963 12.067 12.6918 12.0827 12.7098H12.0827ZM14.6631 15.7533C14.6631 15.7669 14.634 15.8298 14.5957 15.8949C14.5598 15.9624 14.5283 16.023 14.5283 16.0298C15.3982 16.0455 15.4297 16.0478 15.4185 16.0837L15.2634 16.6074H14.0023L13.9326 16.6727C13.7753 16.8233 12.9099 17.0121 12.9099 16.8952L13.0695 16.3602H13.1864C13.3864 16.3602 13.4381 16.3175 13.6134 16.0052L13.7664 15.7309C14.5035 15.7307 14.6631 15.7398 14.6631 15.7533ZM16.5963 15.7579C16.5963 15.7736 16.5762 15.8523 16.5515 15.9332C16.5268 16.014 16.5064 16.0861 16.5064 16.095C16.5064 16.1017 16.5806 16.059 16.6705 15.9983C16.9964 15.7826 17.2685 15.7307 18.1001 15.7307C18.4305 15.7307 18.707 15.7353 18.7137 15.742C18.7339 15.7644 18.2416 17.3649 18.1698 17.5066C18.0732 17.6976 17.9697 17.8032 17.8056 17.8798L17.6641 17.9449L16.8212 17.956L15.9782 17.9673L15.8276 18.4619C15.5353 19.4128 15.5265 19.3497 15.958 19.307C16.3019 19.2733 16.2794 19.2418 16.1737 19.5993L16.0838 19.9004L15.65 19.9072C14.7194 19.9228 14.598 19.8667 14.6992 19.4756C14.7486 19.2868 15.805 15.778 15.8208 15.7511C15.8433 15.7173 16.5963 15.7241 16.5963 15.7579H16.5963ZM20.4625 15.7511C20.4625 15.7622 20.4468 15.814 20.4287 15.8657C20.3793 16.0073 20.3792 16.0073 20.5704 15.9106C20.822 15.7825 21.4088 15.7307 22.6158 15.7307H23.0024V15.9084C23.0024 16.1175 23.0137 16.1309 23.2002 16.1534L23.3351 16.1692L23.2542 16.4321L23.1755 16.6974L22.9149 16.7019C22.2405 16.7154 22.128 16.6502 22.1236 16.2478V16.0568L22.0785 16.1961L22.0336 16.3377H21.8898C21.8088 16.3377 21.7437 16.3423 21.7437 16.349C21.7437 16.3557 21.0266 18.7429 20.921 19.0846C20.9098 19.1182 20.9232 19.125 21.0086 19.125C21.1345 19.125 21.139 19.1317 21.1008 19.2418C21.0558 19.3721 21.0558 19.3721 21.2108 19.3721C21.312 19.3721 21.3795 19.3586 21.4514 19.3205C21.557 19.2688 21.548 19.2777 22.0201 18.6125L22.2157 18.3382H21.8156C21.3367 18.3382 21.3727 18.365 21.4604 18.0729L21.5322 17.8325L22.0178 17.8258L22.5011 17.8213C22.5933 17.5134 22.6203 17.4167 22.6203 17.4099C22.6203 17.401 22.4089 17.3919 22.1526 17.3897L21.6852 17.3829L21.7638 17.1178L21.8402 16.8548H23.1641C23.8901 16.8548 24.4859 16.8615 24.4859 16.8705C24.4859 16.8817 24.4521 16.9986 24.4117 17.1357L24.3374 17.3829L23.8901 17.3942L23.4451 17.4055C23.3686 17.6325 23.3394 17.7247 23.3304 17.7585L23.3168 17.8214H23.7418C24.243 17.8214 24.2093 17.7989 24.1171 18.0934L24.0452 18.3271L23.5597 18.3339L23.0719 18.3384L23.0022 18.4283L22.9324 18.516L23.1191 18.5228L23.3056 18.5294L23.3618 18.8845C23.4247 19.2846 23.4225 19.2824 23.6158 19.2824C23.7686 19.2824 23.7642 19.2511 23.6607 19.6016L23.5753 19.8895H23.299C22.811 19.8895 22.7211 19.8107 22.6425 19.3185L22.5931 18.9881L22.4155 19.2309C21.9321 19.8962 21.9052 19.912 21.278 19.912C20.8825 19.912 20.8869 19.9142 20.9341 19.7906C20.9543 19.7322 20.9543 19.7322 20.8374 19.7322C20.7184 19.7322 20.7184 19.7322 20.6959 19.8153L20.6757 19.9007L20.2643 19.9075L19.8531 19.912L19.8665 19.8625C19.9071 19.7185 19.9879 19.7322 19.0798 19.7322C18.3065 19.7322 18.257 19.7299 18.2682 19.6916L18.3492 19.4332C18.4324 19.1612 18.4257 19.1701 18.5177 19.1701C18.5875 19.1701 18.5942 19.1634 18.6279 19.0622C19.327 16.7446 19.5473 16.0186 19.5765 15.9153L19.6327 15.7309H20.0484C20.2759 15.7307 20.4625 15.7398 20.4625 15.7511ZM15.2409 17.0166L15.0835 17.5291H14.1934C14.1035 17.8168 14.072 17.9179 14.0653 17.9382C14.054 17.9765 14.0855 17.9786 14.5035 17.9786C14.7531 17.9786 14.9554 17.9877 14.9554 17.9989C14.9554 18.0078 14.9464 18.0459 14.933 18.0821C14.906 18.1687 14.8798 18.2556 14.8542 18.3427L14.7959 18.5406H13.8832L13.7798 18.8868C13.627 19.388 13.6427 19.4038 14.2091 19.3228C14.4429 19.2914 14.4339 19.2712 14.3305 19.6106L14.2429 19.9005H13.6269C12.6626 19.9005 12.6447 19.878 12.8987 19.0374C12.9796 18.7744 13.0447 18.5541 13.0447 18.5496C13.0447 18.5451 12.9346 18.5405 12.7975 18.5405C12.6626 18.5405 12.5503 18.5339 12.5503 18.5271C12.6581 18.1584 12.6942 18.0393 12.6986 18.0168C12.7099 17.983 12.7413 17.9785 12.9661 17.9785H13.2201L13.3437 17.529H13.1032C12.9234 17.529 12.8649 17.5222 12.8649 17.4997C12.8649 17.4706 12.9975 17.0368 13.0156 17.0053C13.0336 16.9738 15.2543 16.9851 15.2409 17.0166ZM18.0933 18.0843C18.0867 18.1068 18.0664 18.1967 18.0485 18.2822C17.963 18.6934 17.8461 18.7856 17.3651 18.8126C17.1987 18.8216 17.0593 18.8351 17.0505 18.8418C17.0144 18.8801 17.0188 19.2374 17.0571 19.2959L17.0953 19.3544L17.3853 19.3387C17.5449 19.3296 17.6752 19.325 17.6752 19.3296C17.6752 19.3544 17.5178 19.8713 17.5044 19.8938C17.4819 19.9299 16.5716 19.9029 16.4525 19.8624C16.2705 19.8018 16.2726 19.822 16.2951 18.8958L16.3152 18.0799L16.6929 18.0731L17.0682 18.0686V18.3834H17.2145C17.3806 18.3834 17.3943 18.3699 17.4617 18.163L17.4999 18.0461H17.8011C18.0799 18.0459 18.1046 18.0483 18.0933 18.0843ZM19.4825 11.7815L19.3229 12.4827L19.5454 12.4895C20.6738 12.521 21.1527 11.2128 20.0466 11.1229C19.8736 11.1093 19.7117 11.0936 19.687 11.0891C19.6443 11.0802 19.6309 11.1318 19.4825 11.7815V11.7815ZM13.6157 12.7862C13.3303 12.9009 13.074 13.9618 13.2898 14.1282C13.4516 14.2541 13.6854 14.045 13.7978 13.6741C14.0046 12.984 13.9371 12.6559 13.6157 12.7862ZM22.3957 12.8582C22.1012 13.0065 21.8742 14.0495 22.1079 14.1708C22.4069 14.3259 22.7778 13.7708 22.7778 13.1661C22.7778 12.8784 22.6159 12.7481 22.3957 12.8582ZM16.4502 16.3647L16.3716 16.6277C16.3309 16.7558 16.2951 16.8751 16.2882 16.8907C16.2814 16.9086 16.3602 16.8772 16.4635 16.8232C16.7513 16.6704 16.848 16.6501 17.275 16.6367L17.6504 16.6232C17.7045 16.4411 17.7201 16.376 17.7201 16.3624C17.7201 16.3243 16.4636 16.3288 16.4502 16.3647V16.3647ZM16.1917 17.2076L16.1265 17.4391L17.3898 17.4278L17.4706 17.1919C16.4795 17.1919 16.1916 17.1987 16.1916 17.2076H16.1917ZM20.1905 16.6749C20.1344 16.8592 20.0939 17.0122 20.1006 17.0122C20.1074 17.0122 20.1905 16.9829 20.2827 16.947C20.3747 16.911 20.5277 16.8705 20.6198 16.8571C20.7119 16.8413 20.7884 16.8279 20.7907 16.8256C20.7974 16.8188 20.9346 16.367 20.9346 16.3513C20.9346 16.3446 20.7907 16.3378 20.6133 16.3378H20.2918L20.1905 16.6749ZM19.9612 17.4323C19.9567 17.4436 19.9074 17.5965 19.8556 17.7762C19.8039 17.956 19.7567 18.109 19.7522 18.1157C19.7478 18.1247 19.8241 18.0955 19.9254 18.0528C20.0242 18.01 20.1794 17.9606 20.2693 17.9448C20.4671 17.911 20.476 17.9066 20.4918 17.8279C20.5009 17.7921 20.5322 17.6864 20.5615 17.5896L20.6155 17.4166H20.2942C20.1163 17.4167 19.9658 17.4235 19.9612 17.4323ZM19.4511 19.1294L20.0939 19.1475C20.2243 18.7069 20.2693 18.5652 20.2759 18.5495L19.6331 18.5181L19.4512 19.1294H19.4511Z" fill="black"/>
</svg>
