<svg width="31" height="31" viewBox="0 0 31 31"  xmlns="http://www.w3.org/2000/svg">
<path d="M16.76 15.8064V22.8064H14.4255V15.8064H10.9255L15.5928 10.7174L20.26 15.8099H16.76V15.8064ZM29.5928 19.6301C29.5928 23.5326 26.7455 26.6249 23.13 26.6249H9.13002C4.98077 26.6249 1.59277 22.9499 1.59277 18.4629C1.59277 14.4834 4.18102 11.1899 7.78427 10.4094C9.36277 7.46938 12.3063 5.62488 15.5928 5.62488C19.7578 5.62488 23.3068 8.58938 24.4355 12.7649C27.3475 13.4299 29.5928 16.3174 29.5928 19.6301ZM22.5053 14.0161C21.8368 10.4881 18.9808 7.92613 15.5928 7.92613C12.9328 7.92613 10.5878 9.49413 9.45027 11.9581L9.19652 12.5111L8.62427 12.5916C5.79802 12.9854 3.74702 15.4441 3.74702 18.4629C3.74702 21.6881 6.17602 24.3254 9.13177 24.3254H23.1318C25.5468 24.3254 27.4385 22.2709 27.4385 19.6301C27.4385 17.2221 25.636 15.1204 23.4748 14.9331L22.668 14.8631L22.507 14.0161H22.5053Z" fill="black"/>
</svg>
