<svg width="31" height="30" viewBox="0 0 31 30" fill="none" xmlns="http://www.w3.org/2000/svg">
<path d="M23.3639 15.3369V6.33691C23.3639 5.78379 22.917 5.33691 22.3639 5.33691H8.86386C8.31074 5.33691 7.86386 5.78379 7.86386 6.33691V15.3369C5.79511 15.3369 4.11386 16.965 4.11386 18.9619V24.4128C4.11386 24.5503 4.22636 24.6628 4.36386 24.6628H6.11386C6.25136 24.6628 6.36386 24.5503 6.36386 24.4128V18.9619C6.36386 18.2025 7.03886 17.5869 7.86699 17.5869H23.3607C24.1889 17.5869 24.8639 18.2025 24.8639 18.9619V24.4128C24.8639 24.5503 24.9764 24.6628 25.1139 24.6628H26.8639C27.0014 24.6628 27.1139 24.5503 27.1139 24.4128V18.9619C27.1139 16.965 25.4326 15.3369 23.3639 15.3369ZM10.1139 15.3369V7.58691H21.1139V15.3369H10.1139ZM13.8639 9.58691H12.3639C12.2264 9.58691 12.1139 9.69941 12.1139 9.83691V11.3369C12.1139 11.4744 12.2264 11.5869 12.3639 11.5869H13.8639C14.0014 11.5869 14.1139 11.4744 14.1139 11.3369V9.83691C14.1139 9.69941 14.0014 9.58691 13.8639 9.58691ZM18.8639 9.58691H17.3639C17.2264 9.58691 17.1139 9.69941 17.1139 9.83691V11.3369C17.1139 11.4744 17.2264 11.5869 17.3639 11.5869H18.8639C19.0014 11.5869 19.1139 11.4744 19.1139 11.3369V9.83691C19.1139 9.69941 19.0014 9.58691 18.8639 9.58691Z" fill="black"/>
</svg>
