<svg width="31" height="30" viewBox="0 0 31 30" fill="none" xmlns="http://www.w3.org/2000/svg">
<path d="M16.7365 25.1464V26.0668C16.7365 26.8583 16.0948 27.5 15.3033 27.5C14.5118 27.5 13.8701 26.8583 13.8701 26.0668V25.1464C11.2062 25.1464 8.95144 23.3049 8.31605 20.832C8.11907 20.0653 8.77899 19.4136 9.57053 19.4136C10.3621 19.4136 10.975 20.0937 11.3566 20.7872C11.8451 21.675 12.7904 22.28 13.8701 22.28V16.5472C10.7171 16.5472 8.13733 13.9674 8.13733 10.8144C8.13733 7.66138 10.7171 5.08163 13.8701 5.08163V3.9332C13.8701 3.14166 14.5118 2.5 15.3033 2.5C16.0948 2.5 16.7365 3.14166 16.7365 3.9332V5.08163C19.4005 5.08163 21.6552 6.92313 22.2906 9.39603C22.4875 10.1627 21.8276 10.8144 21.0361 10.8144C20.2446 10.8144 19.6316 10.1343 19.25 9.44079C18.7615 8.55304 17.8162 7.94802 16.7365 7.94802V13.6808H17.3098C18.313 13.6808 19.6029 14.2541 20.6061 15.114C21.7527 16.1172 22.6126 17.6938 22.6126 19.4136C22.4693 22.5666 19.8895 25.1464 16.7365 25.1464ZM16.7365 22.28C18.313 22.28 19.6029 20.9901 19.6029 19.4136C19.6029 17.8371 18.313 16.5472 16.7365 16.5472V22.28ZM13.8701 7.94802C12.2936 7.94802 11.0037 9.23789 11.0037 10.8144C11.0037 12.3909 12.2936 13.6808 13.8701 13.6808V7.94802Z" fill="black"/>
</svg>
