<svg width="30" height="30" viewBox="0 0 30 30" xmlns="http://www.w3.org/2000/svg">
<path d="M23.1053 28.2631H6.89474C3.63937 28.2631 1 25.6238 1 22.3684V7.63155C1 4.37618 3.63937 1.73682 6.89474 1.73682H23.1053C26.3606 1.73682 29 4.37618 29 7.63155V22.3684C29 25.6238 26.3606 28.2631 23.1053 28.2631ZM27.1644 8.51576C27.1644 5.58608 25.1507 3.68449 22.2211 3.68449H7.77895C4.84926 3.68449 2.91149 5.58608 2.91149 8.51576V21.4842C2.91149 24.4139 4.84926 26.261 7.77895 26.261H22.2211C25.1507 26.261 27.1644 24.4139 27.1644 21.4842V8.51576ZM11.3158 9.13471L20.1579 15L11.3158 20.8652V9.13471Z" fill="black"/>
</svg>
