<svg width="31" height="30" viewBox="0 0 31 30" xmlns="http://www.w3.org/2000/svg">
<path d="M1.78668 7.63155V22.3684C1.78668 25.6238 4.42605 28.2631 7.68142 28.2631H20.5676C21.1205 28.2631 21.5686 27.8149 21.5686 27.2621C21.5686 26.7092 21.1205 26.261 20.5676 26.261H8.56563C5.63595 26.261 3.69818 24.4139 3.69818 21.4842V8.51576C3.69818 5.58608 5.63595 3.68449 8.56563 3.68449H23.0077C25.9374 3.68449 27.9511 5.58608 27.9511 8.51576V19.8531C27.9511 20.36 28.362 20.7709 28.8689 20.7709C29.3758 20.7709 29.7867 20.36 29.7867 19.8531V7.63155C29.7867 4.37618 27.1473 1.73682 23.8919 1.73682H7.68142C4.42605 1.73682 1.78668 4.37618 1.78668 7.63155Z" fill="black"/>
<path d="M20.9446 15L12.1025 9.13471V20.8652L20.9446 15Z" fill="black"/>
<path d="M28.2659 21.9615L26.3226 23.9049L24.3808 21.9632C24.3079 21.89 24.2213 21.832 24.1259 21.7923C24.0306 21.7527 23.9284 21.7322 23.8251 21.7321C23.7218 21.732 23.6196 21.7522 23.5241 21.7916C23.4287 21.8311 23.342 21.889 23.2689 21.9619C23.1959 22.035 23.138 22.1217 23.0986 22.2172C23.0592 22.3126 23.0389 22.4149 23.0391 22.5182C23.0392 22.6215 23.0597 22.7237 23.0994 22.8191C23.1391 22.9144 23.1972 23.001 23.2704 23.0739L25.2133 25.0168L23.269 26.9611C23.1213 27.1088 23.0383 27.3091 23.0382 27.5179C23.0381 27.7268 23.121 27.9272 23.2686 28.0749C23.3417 28.1484 23.4286 28.2068 23.5242 28.2467C23.6199 28.2866 23.7225 28.3072 23.8261 28.3074C23.9296 28.308 24.0321 28.288 24.1278 28.2488C24.2235 28.2096 24.3105 28.1518 24.3838 28.0788L26.3296 26.133L28.2698 28.0733C28.4236 28.2271 28.6238 28.3053 28.8249 28.305C28.9282 28.3053 29.0305 28.2851 29.1259 28.2456C29.2213 28.2061 29.308 28.1482 29.3809 28.0751C29.454 28.002 29.5119 27.9153 29.5514 27.8198C29.5909 27.7244 29.6112 27.6221 29.6111 27.5188C29.6111 27.4155 29.5907 27.3132 29.5511 27.2178C29.5115 27.1224 29.4535 27.0357 29.3804 26.9628L27.44 25.0223L29.3834 23.079C29.6907 22.7716 29.6886 22.2711 29.3811 21.9638C29.0737 21.6567 28.573 21.6545 28.2659 21.9615Z" fill="black"/>
</svg>
