<svg width="30" height="30" viewBox="0 0 30 30" xmlns="http://www.w3.org/2000/svg">
<path d="M25.0017 16.4758H23.3247C23.4381 16.176 23.7054 15.4509 24.1267 14.3004L24.1632 14.191C24.1956 14.11 24.2361 14.0047 24.2847 13.8751C24.3333 13.7454 24.3698 13.6401 24.3941 13.5591L24.5399 14.2275L25.0017 16.4758ZM7.45312 15.6858L6.74826 12.1008C6.65914 11.6633 6.35532 11.4445 5.83681 11.4445H2.57986L2.55556 11.6025C5.07523 12.2425 6.70775 13.6036 7.45312 15.6858ZM9.62847 11.4445L7.65972 16.7674L7.45312 15.6858C7.24248 15.1187 6.89815 14.5941 6.42014 14.112C5.94213 13.63 5.41146 13.2715 4.82813 13.0365L6.46875 19.2344H8.59549L11.7674 11.4445H9.62847ZM11.3177 19.2466H13.3351L14.599 11.4445H12.5816L11.3177 19.2466ZM20.651 11.639C20.092 11.4202 19.4884 11.3108 18.8403 11.3108C17.8438 11.3108 17.0295 11.5498 16.3976 12.0278C15.7656 12.5058 15.4456 13.1256 15.4375 13.8872C15.4294 14.7136 16.0168 15.4185 17.1997 16.0018C17.5885 16.1881 17.86 16.3542 18.0139 16.5001C18.1678 16.6459 18.2448 16.8039 18.2448 16.974C18.2448 17.2171 18.1233 17.4034 17.8802 17.533C17.6372 17.6627 17.3576 17.7275 17.0417 17.7275C16.3449 17.7275 15.713 17.5938 15.1458 17.3265L14.8785 17.1928L14.599 18.9428C15.1985 19.2182 15.9479 19.356 16.8472 19.356C17.9005 19.3641 18.7451 19.1251 19.3811 18.639C20.0171 18.1528 20.3432 17.5047 20.3594 16.6945C20.3594 15.8357 19.7922 15.1308 18.658 14.5799C18.261 14.3774 17.9734 14.2072 17.7951 14.0695C17.6169 13.9318 17.5278 13.7778 17.5278 13.6077C17.5278 13.4295 17.627 13.2735 17.8255 13.1398C18.024 13.0061 18.3096 12.9393 18.6823 12.9393C19.2494 12.9312 19.7517 13.0284 20.1892 13.231L20.3715 13.3282L20.651 11.639ZM25.816 11.4445H24.2604C23.7338 11.4445 23.3814 11.6633 23.2031 12.1008L20.2135 19.2466H22.3281L22.7535 18.0799H25.3299C25.3704 18.2582 25.4514 18.6471 25.5729 19.2466H27.4444L25.816 11.4445ZM29 7.55562V23.1112C29 23.5325 28.8461 23.8971 28.5382 24.2049C28.2303 24.5128 27.8657 24.6667 27.4444 24.6667H2.55556C2.13426 24.6667 1.76968 24.5128 1.46181 24.2049C1.15394 23.8971 1 23.5325 1 23.1112V7.55562C1 7.13432 1.15394 6.76974 1.46181 6.46187C1.76968 6.154 2.13426 6.00006 2.55556 6.00006H27.4444C27.8657 6.00006 28.2303 6.154 28.5382 6.46187C28.8461 6.76974 29 7.13432 29 7.55562Z" fill="black"/>
</svg>
