<svg width="30" height="30" viewBox="0 0 30 30"  xmlns="http://www.w3.org/2000/svg">
<path d="M14.8614 1C22.5168 1 28.7228 7.20602 28.7228 14.8614C28.7228 22.5168 22.5168 28.7228 14.8614 28.7228C7.20602 28.7228 1 22.5168 1 14.8614C1 7.20602 7.20602 1 14.8614 1ZM14.8614 2.38614C7.97145 2.38614 2.38614 7.97145 2.38614 14.8614C2.38614 21.7513 7.97145 27.3366 14.8614 27.3366C21.7513 27.3366 27.3366 21.7513 27.3366 14.8614C27.3366 7.97145 21.7513 2.38614 14.8614 2.38614Z" fill="black"/>
<path d="M14.5509 14.2415C18.3536 12.3381 22.713 12.3381 27.5856 14.2146C27.6714 14.2466 27.7501 14.2953 27.817 14.3579C27.8839 14.4205 27.9378 14.4958 27.9754 14.5794C28.0131 14.6629 28.0338 14.7531 28.0363 14.8447C28.0389 14.9363 28.0232 15.0275 27.9903 15.113C27.9574 15.1985 27.9079 15.2767 27.8445 15.3429C27.7812 15.4091 27.7054 15.4622 27.6215 15.4989C27.5375 15.5357 27.4471 15.5554 27.3555 15.557C27.2639 15.5586 27.1728 15.542 27.0877 15.5082C22.5589 13.7644 18.6017 13.7644 15.1716 15.4813C15.0072 15.5635 14.8168 15.5771 14.6424 15.5191C14.468 15.461 14.3238 15.336 14.2415 15.1716C14.1592 15.0072 14.1456 14.8168 14.2037 14.6424C14.2618 14.468 14.3865 14.3238 14.5509 14.2415Z" fill="black"/>
<path d="M15.603 14.8955C15.3501 19.1401 13.1706 22.9157 9.10919 26.1972C9.03838 26.2544 8.95699 26.2971 8.86968 26.3229C8.78237 26.3487 8.69083 26.357 8.60031 26.3474C8.50978 26.3377 8.42204 26.3104 8.34208 26.2669C8.26213 26.2233 8.19153 26.1645 8.13432 26.0937C8.0771 26.0229 8.0344 25.9415 8.00864 25.8542C7.98288 25.7669 7.97457 25.6753 7.98419 25.5848C7.9938 25.4943 8.02115 25.4065 8.06468 25.3266C8.1082 25.2466 8.16705 25.176 8.23786 25.1188C12.0126 22.0693 13.9914 18.6419 14.2193 14.8131C14.2317 14.6307 14.3156 14.4606 14.4529 14.3398C14.5901 14.219 14.7695 14.1573 14.952 14.1682C15.1345 14.1791 15.3053 14.2616 15.4272 14.3978C15.5492 14.534 15.6123 14.7129 15.603 14.8955Z" fill="black"/>
<path d="M14.3042 15.3451C10.7545 13.0037 8.57469 9.2284 7.76353 4.0703C7.73697 3.88964 7.78279 3.7058 7.89101 3.55873C7.99924 3.41166 8.16114 3.31324 8.34152 3.28486C8.5219 3.25648 8.70619 3.30044 8.85435 3.40718C9.00251 3.51391 9.10255 3.6748 9.13275 3.85489C9.88681 8.64871 11.8654 12.0761 15.0674 14.188C15.2208 14.2892 15.3278 14.4472 15.3647 14.6273C15.4016 14.8074 15.3655 14.9947 15.2643 15.1482C15.1631 15.3016 15.0051 15.4086 14.825 15.4455C14.645 15.4825 14.4576 15.4464 14.3042 15.3451ZM12.2286 20.9612C7.37236 17.3315 4.52107 12.9244 3.70879 7.76131C3.69465 7.67138 3.69835 7.57956 3.7197 7.49107C3.74104 7.40258 3.77961 7.31916 3.83319 7.24557C3.88678 7.17198 3.95433 7.10967 4.032 7.06219C4.10966 7.01471 4.19592 6.983 4.28584 6.96885C4.37576 6.95471 4.46759 6.95841 4.55608 6.97976C4.64457 7.0011 4.72799 7.03967 4.80158 7.09325C4.87517 7.14684 4.93748 7.21439 4.98496 7.29206C5.03244 7.36972 5.06415 7.45598 5.0783 7.5459C5.83152 12.335 8.48016 16.4291 13.0583 19.8509C13.1321 19.9051 13.1944 19.9733 13.2417 20.0517C13.289 20.13 13.3203 20.217 13.3338 20.3075C13.3473 20.398 13.3427 20.4903 13.3204 20.5791C13.298 20.6679 13.2583 20.7513 13.2035 20.8246C13.1487 20.8979 13.0799 20.9597 13.0011 21.0063C12.9224 21.0529 12.8351 21.0834 12.7445 21.0961C12.6538 21.1088 12.5616 21.1034 12.473 21.0803C12.3845 21.0571 12.3014 21.0167 12.2286 20.9612ZM1.57275 13.6568C1.65719 13.6228 1.74752 13.6057 1.83856 13.6066C1.9296 13.6075 2.01958 13.6263 2.10335 13.6619C2.18713 13.6976 2.26305 13.7494 2.3268 13.8144C2.39054 13.8794 2.44085 13.9563 2.47485 14.0408C3.88483 17.5422 6.55814 20.5296 10.5164 23.0063C10.6723 23.1038 10.783 23.2593 10.8243 23.4384C10.8656 23.6176 10.834 23.8058 10.7365 23.9617C10.639 24.1175 10.4836 24.2283 10.3044 24.2696C10.1253 24.3109 9.93706 24.2793 9.78119 24.1818C5.58618 21.5564 2.71465 18.3475 1.18851 14.5584C1.15451 14.474 1.13747 14.3837 1.13836 14.2926C1.13925 14.2016 1.15807 14.1117 1.19372 14.0279C1.22937 13.9442 1.28117 13.8683 1.34616 13.8046C1.41115 13.7409 1.48833 13.6908 1.57275 13.6568Z" fill="black"/>
<path d="M11.233 10.2048C16.8045 7.81398 22.0469 7.5484 26.9241 9.42661C27.01 9.45862 27.0886 9.50733 27.1556 9.56994C27.2225 9.63255 27.2763 9.7078 27.3139 9.79135C27.3516 9.8749 27.3723 9.96508 27.3748 10.0567C27.3774 10.1483 27.3618 10.2395 27.3289 10.325C27.2959 10.4105 27.2464 10.4887 27.1831 10.5549C27.1198 10.6211 27.0439 10.6742 26.96 10.7109C26.876 10.7477 26.7857 10.7674 26.694 10.769C26.6024 10.7706 26.5114 10.754 26.4262 10.7202C21.9021 8.97806 17.0321 9.22479 11.7797 11.4787C11.6961 11.5146 11.6062 11.5336 11.5152 11.5348C11.4242 11.5359 11.3338 11.5191 11.2493 11.4854C11.1648 11.4516 11.0877 11.4015 11.0225 11.338C10.9574 11.2745 10.9053 11.1987 10.8694 11.1151C10.8335 11.0314 10.8145 10.9415 10.8133 10.8505C10.8122 10.7595 10.829 10.6692 10.8627 10.5846C10.8965 10.5001 10.9466 10.4231 11.0101 10.3579C11.0736 10.2927 11.1494 10.2407 11.233 10.2048ZM22.8866 4.62891C22.8608 4.81088 22.7637 4.97514 22.6168 5.08556C22.4699 5.19599 22.2851 5.24353 22.1031 5.21774C18.3658 4.68824 14.4419 5.50939 10.3176 7.69893C10.2371 7.74307 10.1487 7.77078 10.0574 7.78044C9.96606 7.79011 9.87376 7.78154 9.7858 7.75523C9.69784 7.72892 9.61599 7.6854 9.54499 7.62719C9.47399 7.56899 9.41527 7.49726 9.37223 7.41616C9.32918 7.33507 9.30268 7.24624 9.29426 7.15482C9.28583 7.0634 9.29566 6.97122 9.32315 6.88362C9.35065 6.79603 9.39528 6.71478 9.45445 6.64458C9.51361 6.57438 9.58613 6.51663 9.6678 6.47469C14.0383 4.1543 18.253 3.27216 22.2975 3.84547C22.3876 3.85822 22.4743 3.8886 22.5527 3.93488C22.6311 3.98115 22.6996 4.04242 22.7543 4.11517C22.809 4.18792 22.8488 4.27073 22.8715 4.35888C22.8942 4.44703 22.8993 4.53879 22.8866 4.62891ZM20.7763 14.1877C20.0611 20.208 17.67 24.881 13.6044 28.1658C13.5338 28.2243 13.4522 28.2682 13.3645 28.2949C13.2768 28.3216 13.1846 28.3307 13.0934 28.3215C13.0021 28.3124 12.9136 28.2852 12.8329 28.2416C12.7523 28.198 12.681 28.1388 12.6234 28.0675C12.5658 27.9961 12.5229 27.9141 12.4972 27.826C12.4715 27.738 12.4635 27.6457 12.4738 27.5546C12.484 27.4635 12.5122 27.3753 12.5568 27.2951C12.6013 27.215 12.6614 27.1445 12.7334 27.0877C16.5042 24.041 18.7259 19.6998 19.3999 14.0242C19.4102 13.9334 19.4383 13.8456 19.4827 13.7658C19.527 13.686 19.5867 13.6157 19.6583 13.559C19.7299 13.5023 19.812 13.4603 19.8998 13.4355C19.9877 13.4106 20.0796 13.4034 20.1703 13.4141C20.261 13.4249 20.3486 13.4535 20.4282 13.4983C20.5078 13.543 20.5778 13.6031 20.6341 13.675C20.6904 13.7468 20.732 13.8292 20.7564 13.9171C20.7808 14.0051 20.7876 14.0971 20.7763 14.1877ZM19.7786 27.0677C19.7069 27.0116 19.647 26.9419 19.6022 26.8627C19.5575 26.7834 19.5288 26.6961 19.5178 26.6057C19.5068 26.5153 19.5138 26.4237 19.5382 26.336C19.5626 26.2483 19.6041 26.1663 19.6602 26.0947C21.9875 23.1228 23.2381 19.3142 23.4039 14.6479C23.4104 14.4642 23.4896 14.2906 23.6241 14.1653C23.7586 14.04 23.9374 13.9733 24.1211 13.9798C24.3048 13.9863 24.4784 14.0655 24.6037 14.2C24.729 14.3345 24.7957 14.5133 24.7892 14.697C24.6134 19.6422 23.27 23.7332 20.7514 26.9493C20.6953 27.021 20.6256 27.0809 20.5463 27.1257C20.467 27.1704 20.3797 27.1991 20.2894 27.2101C20.199 27.2211 20.1074 27.2142 20.0197 27.1897C19.932 27.1653 19.8502 27.1238 19.7786 27.0677Z" fill="black"/>
</svg>
