<svg width="30" height="30" viewBox="0 0 30 30" xmlns="http://www.w3.org/2000/svg">
<path d="M13.9351 2.94738C15.5061 1.74509 16.7279 2.43208 16.7279 4.32145V25.7913C16.7279 27.6806 15.5061 28.1959 14.1096 26.9936L7.82566 21.8408H4.33458C2.41447 21.8408 0.843506 20.295 0.843506 18.4056V11.3635C0.843506 9.4742 2.41445 7.92835 4.33458 7.92835H7.65109L13.9351 2.94738Z" fill="black"/>
<path d="M29.2857 6H20.7143C20.3199 6 20 6.31987 20 6.71429V7.42857C20 7.82299 20.3199 8.14286 20.7143 8.14286H29.2857C29.6801 8.14286 30 7.82299 30 7.42857V6.71429C30 6.31987 29.6801 6 29.2857 6Z" fill="black"/>
</svg>
