<svg width="30" height="30" viewBox="0 0 30 30" xmlns="http://www.w3.org/2000/svg">
<g clip-path="url(#clip0_1046_432)">
<path d="M13.9351 2.94738C15.5061 1.74509 16.7279 2.43208 16.7279 4.32145V25.7913C16.7279 27.6806 15.5061 28.1959 14.1096 26.9936L7.82566 21.8408H4.33458C2.41447 21.8408 0.843506 20.295 0.843506 18.4056V11.3635C0.843506 9.4742 2.41445 7.92835 4.33458 7.92835H7.65109L13.9351 2.94738Z" fill="black"/>
<path d="M26.858 10.4967L23.9962 13.3584L21.1366 10.4988C21.0292 10.3911 20.9017 10.3056 20.7613 10.2472C20.6208 10.1888 20.4703 10.1586 20.3182 10.1584C20.1661 10.1583 20.0155 10.1881 19.875 10.2461C19.7344 10.3042 19.6067 10.3894 19.4991 10.4969C19.3917 10.6045 19.3064 10.7322 19.2484 10.8728C19.1903 11.0134 19.1605 11.164 19.1607 11.3161C19.1609 11.4682 19.1911 11.6187 19.2496 11.7591C19.3081 11.8995 19.3936 12.027 19.5014 12.1343L22.3628 14.9958L19.4997 17.8589C19.2821 18.0763 19.1599 18.3713 19.1598 18.6789C19.1597 18.9865 19.2817 19.2815 19.4991 19.4991C19.6068 19.6073 19.7347 19.6933 19.8756 19.752C20.0165 19.8108 20.1675 19.8412 20.3202 19.8415C20.4725 19.8423 20.6234 19.813 20.7644 19.7552C20.9053 19.6974 21.0334 19.6124 21.1413 19.5049L24.0067 16.6396L26.8641 19.4971C27.0905 19.7235 27.3853 19.8387 27.6815 19.8383C27.8336 19.8387 27.9843 19.809 28.1248 19.7509C28.2653 19.6927 28.393 19.6074 28.5003 19.4997C28.6079 19.3921 28.6932 19.2644 28.7513 19.1239C28.8095 18.9833 28.8394 18.8327 28.8393 18.6805C28.8392 18.5284 28.8091 18.3778 28.7508 18.2373C28.6925 18.0968 28.6071 17.9692 28.4995 17.8617L25.6418 15.004L28.5036 12.1423C28.9562 11.6897 28.953 10.9525 28.5001 10.5001C28.0475 10.0478 27.3102 10.0444 26.858 10.4967Z" fill="black"/>
</g>
<defs>
<clipPath id="clip0_1046_432">
<rect width="30" height="30" fill="white"/>
</clipPath>
</defs>
</svg>
