<svg width="30" height="30" viewBox="0 0 30 30" xmlns="http://www.w3.org/2000/svg">
<path d="M20.3936 20.6385C20.0444 20.6385 19.6954 20.4667 19.5208 20.295C18.9971 19.7797 18.9971 19.0927 19.5208 18.5774C21.6154 16.5163 21.6154 13.4247 19.5208 11.3636C18.9971 10.8483 18.9971 10.1613 19.5208 9.646C20.0445 9.1307 20.7427 9.1307 21.2663 9.646C24.4083 12.5659 24.4083 17.2034 21.2663 20.1233C20.9172 20.4668 20.7426 20.6385 20.3936 20.6385ZM13.9351 2.94738C15.5061 1.74509 16.7279 2.43208 16.7279 4.32145V25.7913C16.7279 27.6806 15.5061 28.1959 14.1096 26.9936L7.82566 21.8408H4.33458C2.41447 21.8408 0.843506 20.295 0.843506 18.4056V11.3635C0.843506 9.4742 2.41445 7.92835 4.33458 7.92835H7.65109L13.9351 2.94738Z" fill="black"/>
</svg>
