<svg width="30" height="30" viewBox="0 0 30 30" xmlns="http://www.w3.org/2000/svg">
<path d="M13.9351 2.94738C15.5061 1.74509 16.7279 2.43208 16.7279 4.32145V25.7913C16.7279 27.6806 15.5061 28.1959 14.1096 26.9936L7.82566 21.8408H4.33458C2.41447 21.8408 0.843506 20.295 0.843506 18.4056V11.3635C0.843506 9.4742 2.41445 7.92835 4.33458 7.92835H7.65109L13.9351 2.94738Z" fill="black"/>
<path d="M29.0896 6.08717L25.9099 6.08717V2.91051C25.9101 2.79105 25.8867 2.67272 25.8411 2.56229C25.7956 2.45186 25.7287 2.3515 25.6443 2.26693C25.5599 2.18237 25.4597 2.11527 25.3493 2.06946C25.239 2.02366 25.1207 2.00006 25.0012 2C24.8817 2.00006 24.7634 2.02367 24.6531 2.06949C24.5427 2.11531 24.4425 2.18243 24.3581 2.26702C24.2738 2.35161 24.2069 2.45201 24.1614 2.56246C24.1158 2.67292 24.0925 2.79126 24.0928 2.91073V6.08938H20.9115C20.6699 6.08932 20.4381 6.18523 20.2671 6.35602C20.0962 6.52681 20.0001 6.75849 20 7.00011C19.9997 7.12001 20.023 7.23879 20.0686 7.34967C20.1142 7.46055 20.1813 7.56136 20.2659 7.64632C20.3501 7.73135 20.4502 7.7989 20.5606 7.84509C20.671 7.89128 20.7894 7.9152 20.9091 7.91547H24.0928V11.0897C24.0928 11.3412 24.1926 11.569 24.3573 11.7333C24.4416 11.818 24.5418 11.8851 24.6522 11.9309C24.7625 11.9767 24.8809 12.0002 25.0003 12C25.1198 12 25.2382 11.9764 25.3486 11.9306C25.459 11.8849 25.5593 11.8178 25.6437 11.7333C25.7282 11.6487 25.7952 11.5484 25.8408 11.438C25.8865 11.3275 25.9099 11.2092 25.9099 11.0897V7.91525L29.0896 7.91525C29.5925 7.91525 30.0002 7.50404 30 7.00121C29.9998 6.4986 29.592 6.08717 29.0896 6.08717Z" fill="black"/>
</svg>
