<svg width="30" height="31" viewBox="0 0 30 31"  xmlns="http://www.w3.org/2000/svg">
<path d="M19.6875 15.5V17.375C20.1848 17.375 20.6617 17.1775 21.0133 16.8258C21.365 16.4742 21.5625 15.9973 21.5625 15.5H19.6875ZM19.6875 15.5H17.8125C17.8125 15.9973 18.01 16.4742 18.3617 16.8258C18.7133 17.1775 19.1902 17.375 19.6875 17.375V15.5ZM19.6875 15.5V13.625C19.1902 13.625 18.7133 13.8225 18.3617 14.1742C18.01 14.5258 17.8125 15.0027 17.8125 15.5H19.6875ZM19.6875 15.5H21.5625C21.5625 15.0027 21.365 14.5258 21.0133 14.1742C20.6617 13.8225 20.1848 13.625 19.6875 13.625V15.5ZM1.875 7.0625V23.9375H3.75V7.0625H1.875ZM23.4375 26.75H6.5625V28.625H23.4375V26.75ZM26.25 7.0625V23.9375H28.125V7.0625H26.25ZM23.4375 2.375H6.5625V4.25H23.4375V2.375ZM28.125 7.0625C28.125 5.8193 27.6311 4.62701 26.7521 3.74794C25.873 2.86886 24.6807 2.375 23.4375 2.375V4.25C24.1834 4.25 24.8988 4.54632 25.4262 5.07376C25.9537 5.60121 26.25 6.31658 26.25 7.0625H28.125ZM3.75 7.0625C3.75 6.31658 4.04632 5.60121 4.57376 5.07376C5.10121 4.54632 5.81658 4.25 6.5625 4.25V2.375C5.3193 2.375 4.12701 2.86886 3.24794 3.74794C2.36886 4.62701 1.875 5.8193 1.875 7.0625H3.75ZM1.875 23.9375C1.875 25.1807 2.36886 26.373 3.24794 27.2521C4.12701 28.1311 5.3193 28.625 6.5625 28.625V26.75C5.81658 26.75 5.10121 26.4537 4.57376 25.9262C4.04632 25.3988 3.75 24.6834 3.75 23.9375H1.875ZM23.4375 28.625C24.6807 28.625 25.873 28.1311 26.7521 27.2521C27.6311 26.373 28.125 25.1807 28.125 23.9375H26.25C26.25 24.6834 25.9537 25.3988 25.4262 25.9262C24.8988 26.4537 24.1834 26.75 23.4375 26.75V28.625ZM14.0625 14.5625V16.4375H15.9375V14.5625H14.0625ZM26.25 19.25H18.75V21.125H26.25V19.25ZM26.25 9.875H18.75V11.75H26.25V9.875ZM15.9375 14.5625C15.9375 13.8166 16.2338 13.1012 16.7613 12.5738C17.2887 12.0463 18.0041 11.75 18.75 11.75V9.875C17.5068 9.875 16.3145 10.3689 15.4354 11.2479C14.5564 12.127 14.0625 13.3193 14.0625 14.5625H15.9375ZM14.0625 16.4375C14.0625 17.6807 14.5564 18.873 15.4354 19.7521C16.3145 20.6311 17.5068 21.125 18.75 21.125V19.25C18.0041 19.25 17.2887 18.9537 16.7613 18.4262C16.2338 17.8988 15.9375 17.1834 15.9375 16.4375H14.0625Z" fill="black"/>
</svg>
