<svg width="30" height="31" viewBox="0 0 30 31" xmlns="http://www.w3.org/2000/svg">
<path d="M15 2.21878C7.75195 2.21878 1.875 8.09573 1.875 15.3438C1.875 22.5918 7.75195 28.4688 15 28.4688C22.248 28.4688 28.125 22.5918 28.125 15.3438C28.125 8.09573 22.248 2.21878 15 2.21878ZM14.0625 9.01566C14.0625 8.88675 14.168 8.78128 14.2969 8.78128H15.7031C15.832 8.78128 15.9375 8.88675 15.9375 9.01566V16.9844C15.9375 17.1133 15.832 17.2188 15.7031 17.2188H14.2969C14.168 17.2188 14.0625 17.1133 14.0625 16.9844V9.01566ZM15 21.9063C14.2236 21.9063 13.5938 21.2764 13.5938 20.5C13.5938 19.7237 14.2236 19.0938 15 19.0938C15.7764 19.0938 16.4062 19.7237 16.4062 20.5C16.4062 21.2764 15.7764 21.9063 15 21.9063Z" fill="black"/>
</svg>
