<svg width="30" height="30" viewBox="0 0 30 30" xmlns="http://www.w3.org/2000/svg">
<path d="M16.7043 22.2204C16.7043 23.1617 15.9413 23.9247 15 23.9247C14.0587 23.9247 13.2957 23.1617 13.2957 22.2204C13.2957 21.2791 14.0587 20.5161 15 20.5161C15.9413 20.5161 16.7043 21.2791 16.7043 22.2204Z" fill="black"/>
<path d="M16.7043 17.1712C16.7043 18.1125 15.9413 18.8756 15 18.8756C14.0587 18.8756 13.2957 18.1125 13.2957 17.1712L13.2957 7.77954C13.2957 6.83826 14.0587 6.0752 15 6.0752C15.9413 6.0752 16.7043 6.83826 16.7043 7.77954L16.7043 17.1712Z" fill="black"/>
<path fill-rule="evenodd" clip-rule="evenodd" d="M15 1C22.732 1 29 7.26801 29 15C29 22.732 22.732 29 15 29C7.26801 29 1 22.732 1 15C1 7.26801 7.26801 1 15 1ZM15 3.54785C8.67515 3.54785 3.54785 8.67515 3.54785 15C3.54785 21.3248 8.67515 26.4521 15 26.4521C21.3248 26.4521 26.4521 21.3248 26.4521 15C26.4521 8.67515 21.3248 3.54785 15 3.54785Z" fill="black"/>
</svg>
