<svg width="30" height="30" viewBox="0 0 30 30" xmlns="http://www.w3.org/2000/svg">
<path d="M11.1834 18.6264C11.0571 18.6903 10.9146 18.7271 10.7632 18.7271C10.4134 18.7271 10.1091 18.5343 9.9494 18.2497L9.88817 18.1154L7.33947 12.523C7.31197 12.4619 7.29476 12.3934 7.29476 12.3266C7.29476 12.0688 7.50369 11.8596 7.76154 11.8596C7.86626 11.8596 7.96283 11.8943 8.04094 11.9523L11.0483 14.0935C11.2682 14.2375 11.5305 14.3217 11.8127 14.3217C11.9815 14.3217 12.1419 14.2904 12.2917 14.2358L26.4356 7.9407C23.9006 4.95287 19.725 3 14.9999 3C7.26778 3 1 8.22323 1 14.6665C1 18.1822 2.88588 21.3464 5.83735 23.485C6.07429 23.6539 6.22912 23.9316 6.22912 24.245C6.22912 24.3486 6.20686 24.4437 6.18007 24.5424C5.94431 25.422 5.56681 26.8298 5.54922 26.8958C5.51984 27.006 5.47373 27.1214 5.47373 27.2369C5.47373 27.4946 5.68285 27.7035 5.9407 27.7035C6.04228 27.7035 6.12475 27.666 6.21035 27.6167L9.27526 25.8474C9.50577 25.7141 9.74988 25.6318 10.0187 25.6318C10.1617 25.6318 10.3 25.6538 10.4303 25.6936C11.86 26.1048 13.4027 26.3335 14.9999 26.3335C22.7317 26.3335 29 21.1101 29 14.6666C29 12.7152 28.4219 10.8771 27.4053 9.26052L11.2855 18.5674L11.1834 18.6264Z" fill="black"/>
</svg>
