<svg width="30" height="30" viewBox="0 0 30 30" xmlns="http://www.w3.org/2000/svg">
<path d="M28.9991 19.9977C28.9991 15.899 25.0867 12.578 20.2619 12.578C15.4344 12.578 11.522 15.8998 11.522 19.9977C11.522 24.0956 15.4344 27.4174 20.2619 27.4174C21.778 27.4174 23.2049 27.0867 24.4498 26.5084L27.8942 27.9992L27.4952 24.1568C28.4462 22.9705 29 21.5375 29 19.9977H28.9991ZM17.3162 17.9873C16.6286 17.9873 16.073 17.4309 16.073 16.7441C16.073 16.0573 16.6286 15.5009 17.3162 15.5009C18.003 15.5009 18.5585 16.0582 18.5585 16.7441C18.5585 17.43 18.0012 17.9873 17.3162 17.9873ZM23.2049 17.9873C22.5199 17.9873 21.9626 17.4309 21.9626 16.7441C21.9626 16.0573 22.5199 15.5009 23.2049 15.5009C23.8934 15.5009 24.4498 16.0582 24.4498 16.7441C24.4498 17.43 23.8934 17.9873 23.2049 17.9873ZM20.2619 11.5955C21.6118 11.5955 22.8978 11.8361 24.0693 12.2692C24.078 12.1126 24.0964 11.9621 24.0964 11.8046C24.0964 6.38922 18.9251 2.00003 12.5473 2.00003C6.17132 2.00003 1 6.38834 1 11.8046C1 13.8413 1.73314 15.7354 2.98769 17.3031L2.46102 22.3791L7.01119 20.408C8.13801 20.9329 9.38381 21.2873 10.6987 21.4684C10.5999 20.9898 10.5395 20.4999 10.5395 19.9977C10.5404 15.3653 14.9016 11.5964 20.2619 11.5964V11.5955ZM16.4396 5.86517C17.3468 5.86517 18.08 6.60006 18.08 7.50554C18.08 8.41278 17.3468 9.14766 16.4396 9.14766C15.5324 9.14766 14.7983 8.41278 14.7983 7.50554C14.7983 6.59918 15.5332 5.86517 16.4396 5.86517ZM8.65505 9.14766C7.74782 9.14766 7.01469 8.41278 7.01469 7.50554C7.01469 6.59918 7.7487 5.86517 8.65505 5.86517C9.56229 5.86517 10.2963 6.60006 10.2963 7.50554C10.2963 8.41103 9.56141 9.14766 8.65505 9.14766Z" fill="black"/>
</svg>
