<svg width="30" height="30" viewBox="0 0 30 30"  xmlns="http://www.w3.org/2000/svg">
<path d="M14.8593 10.7127C14.9584 10.7061 15.0459 10.6924 15.1085 10.6753C15.6213 10.2665 16.6731 9.72818 17.6286 9.43487C19.2036 8.95186 20.5897 9.03586 21.5144 10.0481C21.793 10.3533 21.9851 10.69 22.0849 11.0554C22.2921 11.8114 22.1654 12.2755 21.6992 13.3277C21.3544 14.1061 21.3334 14.3084 21.5742 14.6248C21.7349 14.8351 21.9165 14.9174 22.3057 14.9608C22.4093 14.9727 22.4944 14.979 22.7118 14.9923C24.5976 15.1106 25.4999 15.8757 25.4999 18.2257C25.4999 21.0772 23.5042 23.4103 20.2452 25.0718C17.6429 26.3977 14.3375 27.2006 11.8192 27.2006C8.84059 27.2006 6.04823 26.6091 4.03218 25.2356C1.26887 23.3533 0.288848 20.226 1.53033 15.9632C2.5198 12.5657 6.72654 7.86228 10.689 6.17174C11.5777 5.79234 12.7131 5.71358 13.5342 6.11574C14.7935 6.73176 15.0007 8.12339 14.1947 9.78908C13.8821 10.4348 13.9133 10.523 14.1807 10.6266C14.3616 10.6966 14.6147 10.7285 14.8593 10.7127ZM28.9023 11.6837C28.8832 11.8215 28.8368 11.9541 28.7659 12.0738C28.695 12.1935 28.6011 12.2979 28.4895 12.381C28.3779 12.4641 28.2509 12.5242 28.1159 12.5578C27.9809 12.5914 27.8406 12.5979 27.7031 12.5768C27.5656 12.5557 27.4336 12.5074 27.3149 12.4349C27.1962 12.3624 27.0931 12.267 27.0115 12.1542C26.93 12.0415 26.8717 11.9137 26.84 11.7782C26.8083 11.6428 26.8038 11.5024 26.8268 11.3652C26.8755 11.0477 26.9 10.7257 26.9 10.4002C26.9 6.92076 24.0792 4.10005 20.5998 4.10005C20.5081 4.10005 20.4168 4.10215 20.3258 4.106C20.188 4.11188 20.0504 4.09057 19.9209 4.04328C19.7913 3.99599 19.6724 3.92365 19.5708 3.83039C19.4692 3.73713 19.387 3.62477 19.3288 3.49973C19.2706 3.37469 19.2377 3.23943 19.2318 3.10165C19.2259 2.96387 19.2472 2.82629 19.2945 2.69675C19.3418 2.56721 19.4142 2.44825 19.5074 2.34667C19.6007 2.24509 19.713 2.16287 19.8381 2.10471C19.9631 2.04655 20.0984 2.01358 20.2361 2.0077C20.3573 2.00245 20.4784 2 20.5998 2C25.2392 2 29 5.76084 29 10.4002C29 10.8325 28.9671 11.2612 28.9023 11.6837ZM25.4803 11.1923C25.4682 11.3298 25.4292 11.4636 25.3653 11.586C25.3015 11.7084 25.2141 11.817 25.1083 11.9056C25.0024 11.9942 24.8801 12.0611 24.7483 12.1024C24.6166 12.1437 24.478 12.1586 24.3405 12.1463C24.203 12.1339 24.0693 12.0946 23.947 12.0305C23.8247 11.9664 23.7163 11.8789 23.6278 11.7729C23.5394 11.6668 23.4728 11.5444 23.4318 11.4126C23.3907 11.2808 23.3761 11.1421 23.3887 11.0047C23.424 10.6171 23.3782 10.2264 23.2541 9.85749C23.1301 9.4886 22.9304 9.14963 22.668 8.86222C22.4056 8.5748 22.0861 8.34525 21.73 8.18821C21.3739 8.03116 20.989 7.95008 20.5998 7.95014C20.3213 7.95014 20.0542 7.83951 19.8573 7.64259C19.6604 7.44567 19.5498 7.1786 19.5498 6.90011C19.5498 6.62163 19.6604 6.35455 19.8573 6.15763C20.0542 5.96072 20.3213 5.85009 20.5998 5.85009C23.3061 5.85009 25.4999 8.04394 25.4999 10.7502C25.4999 10.8983 25.4933 11.046 25.4803 11.1923Z" fill="black"/>
</svg>
