<svg width="30" height="30" viewBox="0 0 30 30" xmlns="http://www.w3.org/2000/svg">
<path d="M27.4122 9.33516C24.0926 6.61172 19.8434 4.97656 15.2141 4.97656C10.6149 4.97656 6.39301 6.58984 3.08169 9.28047C2.98598 9.35703 2.97231 9.49648 3.05161 9.59219L4.03598 10.7652C4.11255 10.8555 4.24927 10.8691 4.3395 10.7953C7.31177 8.38633 11.0934 6.94531 15.2141 6.94531C19.3649 6.94531 23.1711 8.4082 26.1516 10.8473C26.2446 10.9238 26.3813 10.9102 26.4579 10.8172L27.4422 9.64414C27.5215 9.55117 27.5079 9.41172 27.4122 9.33516Z" fill="black"/>
<path d="M21.011 16.9668C19.4743 15.6297 17.4673 14.8203 15.2689 14.8203C13.0704 14.8203 11.0634 15.6297 9.52393 16.9695C9.43643 17.0461 9.42549 17.1828 9.50205 17.2758L10.4864 18.4488C10.5657 18.5418 10.7052 18.5527 10.7981 18.4734C11.9903 17.4234 13.5544 16.7891 15.2689 16.7891C16.9833 16.7891 18.5474 17.4234 19.7396 18.4707C19.8325 18.55 19.972 18.5391 20.0513 18.4461L21.0356 17.273C21.1122 17.1828 21.1013 17.0461 21.011 16.9668Z" fill="black"/>
<path d="M24.2212 13.1359C21.7958 11.1152 18.6759 9.89844 15.2689 9.89844C11.8618 9.89844 8.7419 11.1152 6.31377 13.1359C6.2208 13.2125 6.20987 13.352 6.28643 13.4449L7.2708 14.618C7.34737 14.7109 7.48682 14.7219 7.57705 14.6453C9.66338 12.9117 12.3458 11.8672 15.2689 11.8672C18.1919 11.8672 20.8743 12.9117 22.9579 14.6453C23.0509 14.7219 23.1876 14.7109 23.2642 14.618L24.2485 13.4449C24.3251 13.352 24.3142 13.2125 24.2212 13.1359Z" fill="black"/>
<path d="M13.6517 19.3483L12.591 20.409L14.182 22L12.591 23.591L13.6517 24.6517L15.2426 23.0607L16.8336 24.6517L17.8943 23.591L16.3033 22L17.8943 20.409L16.8336 19.3483L15.2426 20.9393L13.6517 19.3483Z" fill="black"/>
</svg>
