<svg width="30" height="30" viewBox="0 0 30 30" xmlns="http://www.w3.org/2000/svg">
<path d="M20.7695 17.9668C19.2327 16.6297 17.2257 15.8203 15.0273 15.8203C12.8288 15.8203 10.8218 16.6297 9.28235 17.9695C9.19485 18.0461 9.18391 18.1828 9.26048 18.2758L10.2449 19.4488C10.3241 19.5418 10.4636 19.5527 10.5566 19.4734C11.7488 18.4234 13.3128 17.7891 15.0273 17.7891C16.7417 17.7891 18.3058 18.4234 19.498 19.4707C19.5909 19.55 19.7304 19.5391 19.8097 19.4461L20.7941 18.273C20.8706 18.1828 20.8597 18.0461 20.7695 17.9668ZM23.9796 14.1359C21.5542 12.1152 18.4343 10.8984 15.0273 10.8984C11.6202 10.8984 8.50032 12.1152 6.0722 14.1359C5.97923 14.2125 5.96829 14.352 6.04485 14.4449L7.02923 15.618C7.10579 15.7109 7.24524 15.7219 7.33548 15.6453C9.42181 13.9117 12.1042 12.8672 15.0273 12.8672C17.9503 12.8672 20.6327 13.9117 22.7163 15.6453C22.8093 15.7219 22.946 15.7109 23.0226 15.618L24.007 14.4449C24.0835 14.352 24.0726 14.2125 23.9796 14.1359Z" fill="black"/>
<path d="M27.1707 10.3352C23.8512 7.61172 19.602 5.97656 14.9727 5.97656C10.3734 5.97656 6.15156 7.58984 2.84023 10.2805C2.74453 10.357 2.73086 10.4965 2.81015 10.5922L3.79453 11.7652C3.87109 11.8555 4.00781 11.8691 4.09804 11.7953C7.07031 9.38633 10.852 7.94531 14.9727 7.94531C19.1234 7.94531 22.9297 9.4082 25.9102 11.8473C26.0031 11.9238 26.1398 11.9102 26.2164 11.8172L27.2008 10.6441C27.2801 10.5512 27.2664 10.4117 27.1707 10.3352Z" fill="black"/>
<path d="M13.25 22.2734C13.25 22.7376 13.4344 23.1827 13.7626 23.5109C14.0908 23.8391 14.5359 24.0234 15 24.0234C15.4641 24.0234 15.9092 23.8391 16.2374 23.5109C16.5656 23.1827 16.75 22.7376 16.75 22.2734C16.75 21.8093 16.5656 21.3642 16.2374 21.036C15.9092 20.7078 15.4641 20.5234 15 20.5234C14.5359 20.5234 14.0908 20.7078 13.7626 21.036C13.4344 21.3642 13.25 21.8093 13.25 22.2734Z" fill="black"/>
</svg>
