<svg width="30" height="30" viewBox="0 0 30 30" xmlns="http://www.w3.org/2000/svg">
<path fill-rule="evenodd" clip-rule="evenodd" d="M4.32786 20.3961C-0.109285 15.959 -0.109285 8.76496 4.32786 4.32784C8.765 -0.109281 15.959 -0.109281 20.3962 4.32784C24.4212 8.35285 24.795 14.6464 21.5177 19.0928L27.9252 25.5003C28.8458 26.4209 29.1857 27.4335 28.3096 28.3096C27.4335 29.1857 26.255 28.7309 25.3344 27.8104L19.0633 21.5393C14.6186 24.7933 8.34397 24.4122 4.32786 20.3961ZM3.77637 12.4332C3.77637 17.1187 7.57473 20.9171 12.2603 20.9171C16.9458 20.9171 20.7441 17.1187 20.7441 12.4332C20.7441 7.74771 16.9458 3.94934 12.2603 3.94934C7.57473 3.94934 3.77637 7.74771 3.77637 12.4332Z" fill="black"/>
<path d="M7.16478 12.5052C7.16478 13.1525 7.68951 13.6772 8.33678 13.6772H16.2765C16.9238 13.6772 17.4485 13.1525 17.4485 12.5052C17.4485 11.858 16.9238 11.3333 16.2765 11.3333H8.33678C7.68951 11.3333 7.16478 11.858 7.16478 12.5052Z" fill="black"/>
</svg>
