<svg width="30" height="30" viewBox="0 0 30 30" xmlns="http://www.w3.org/2000/svg">
<path fill-rule="evenodd" clip-rule="evenodd" d="M4.32786 20.3961C-0.109285 15.959 -0.109285 8.76496 4.32786 4.32784C8.765 -0.109281 15.959 -0.109281 20.3962 4.32784C24.4212 8.35285 24.795 14.6464 21.5177 19.0928L27.9252 25.5003C28.8458 26.4209 29.1857 27.4335 28.3096 28.3096C27.4335 29.1857 26.255 28.7309 25.3344 27.8104L19.0633 21.5393C14.6186 24.7933 8.34397 24.4122 4.32786 20.3961ZM3.77637 12.4332C3.77637 17.1187 7.57473 20.9171 12.2603 20.9171C16.9458 20.9171 20.7441 17.1187 20.7441 12.4332C20.7441 7.74771 16.9458 3.94934 12.2603 3.94934C7.57473 3.94934 3.77637 7.74771 3.77637 12.4332Z" fill="black"/>
<path d="M7.08785 12.5053C7.08785 11.858 7.61257 11.3333 8.25985 11.3333H16.1995C16.8468 11.3333 17.3715 11.858 17.3715 12.5053C17.3715 13.1525 16.8468 13.6773 16.1995 13.6773H8.25985C7.61257 13.6773 7.08785 13.1525 7.08785 12.5053Z" fill="black"/>
<path d="M12.2297 17.6471C11.5824 17.6471 11.0577 17.1224 11.0577 16.4751V8.5354C11.0577 7.88812 11.5824 7.3634 12.2297 7.3634C12.877 7.3634 13.4017 7.88812 13.4017 8.5354V16.4751C13.4017 17.1224 12.877 17.6471 12.2297 17.6471Z" fill="black"/>
</svg>
