<svg width="20" height="20" viewBox="0 0 20 20" fill="none" xmlns="http://www.w3.org/2000/svg">
<rect width="20" height="20" rx="10" fill="#393939"/>
<g clip-path="url(#clip0_3_1058)">
<path d="M12.3272 16.4182C11.9781 16.4182 11.7454 16.1855 11.7454 15.8364V13.5674C11.8036 13.102 11.629 12.7529 11.3381 12.462C11.1636 12.2875 11.1054 12.0548 11.2218 11.8802C11.2799 11.6475 11.5127 11.5312 11.6872 11.473C13.3744 11.2984 14.9452 10.7167 14.9452 7.98224C14.9452 7.34227 14.7125 6.7023 14.2471 6.17868C14.0725 6.00415 14.0725 5.77143 14.1307 5.59689C14.3053 5.13146 14.3053 4.66603 14.1889 4.20059C13.898 4.25877 13.4326 4.43331 12.6762 4.95692C12.5599 5.07328 12.3853 5.07328 12.2108 5.0151C10.989 4.66603 9.65093 4.66603 8.42917 5.0151C8.25463 5.07328 8.08009 5.07328 7.90556 4.95692C7.20741 4.43331 6.68379 4.25877 6.3929 4.20059C6.27654 4.66603 6.27654 5.13146 6.45108 5.59689C6.50926 5.82961 6.50926 6.06233 6.33472 6.17868C5.86929 6.7023 5.63657 7.34227 5.63657 7.98224C5.63657 10.7167 7.20741 11.2984 8.8946 11.473C9.12732 11.473 9.30186 11.6475 9.36003 11.8802C9.41821 12.113 9.36003 12.3457 9.24368 12.462C8.95278 12.7529 8.83642 13.102 8.83642 13.5093V15.7782C8.83642 16.1273 8.60371 16.36 8.25463 16.36C7.90556 16.36 7.67284 16.1273 7.67284 15.7782V14.7892C5.92747 15.0801 5.17114 14.091 4.64753 13.4511C4.41481 13.1602 4.24027 12.9275 4.00756 12.8693C3.71666 12.8111 3.48394 12.462 3.6003 12.1711C3.65848 11.8802 4.00756 11.6475 4.29845 11.7639C4.88024 11.9384 5.22932 12.3457 5.57839 12.7529C6.04382 13.3929 6.45108 13.8583 7.67284 13.6256V13.5674C7.67284 13.2184 7.73102 12.8111 7.84738 12.5202C6.21836 12.1711 4.47299 11.1239 4.47299 8.04041C4.47299 7.16773 4.76388 6.35322 5.2875 5.71325C5.05478 4.89874 5.11296 4.14241 5.46203 3.38609C5.52021 3.21155 5.63657 3.09519 5.81111 3.03701C6.04382 2.97883 6.80015 2.86247 8.37099 3.85152C9.65093 3.56062 10.989 3.56062 12.2108 3.85152C13.7235 2.86247 14.538 2.97883 14.7707 3.03701C14.9452 3.09519 15.0616 3.21155 15.1198 3.38609C15.4107 4.14241 15.4688 4.89874 15.2943 5.65507C15.8179 6.29504 16.1088 7.10955 16.1088 7.98224C16.1088 11.2984 14.1307 12.1711 12.7344 12.5202C12.8508 12.8693 12.909 13.2765 12.909 13.6256V15.8364C12.909 16.1855 12.6762 16.4182 12.3272 16.4182Z" fill="white"/>
</g>
<defs>
<clipPath id="clip0_3_1058">
<rect width="14" height="14" fill="white" transform="translate(3 3)"/>
</clipPath>
</defs>
</svg>
