<svg width="689" height="124" viewBox="0 0 689 124" fill="none" xmlns="http://www.w3.org/2000/svg">
<g clip-path="url(#clip0_29_195)">
<path d="M157.875 28.2812H179.156V97H157.875V28.2812ZM230.297 77.5469L248.438 79.6094C247.438 83.3906 245.797 86.6719 243.516 89.4531C241.234 92.2031 238.312 94.3438 234.75 95.875C231.219 97.4062 226.719 98.1719 221.25 98.1719C215.969 98.1719 211.562 97.6875 208.031 96.7188C204.531 95.7188 201.516 94.125 198.984 91.9375C196.453 89.7188 194.469 87.125 193.031 84.1562C191.594 81.1875 190.875 77.25 190.875 72.3438C190.875 67.2188 191.75 62.9531 193.5 59.5469C194.781 57.0469 196.531 54.8125 198.75 52.8438C200.969 50.8438 203.25 49.3594 205.594 48.3906C209.312 46.8594 214.078 46.0938 219.891 46.0938C228.016 46.0938 234.203 47.5469 238.453 50.4531C242.734 53.3594 245.734 57.6094 247.453 63.2031L229.5 65.5938C228.938 63.4688 227.906 61.875 226.406 60.8125C224.938 59.7188 222.953 59.1719 220.453 59.1719C217.297 59.1719 214.734 60.3125 212.766 62.5938C210.828 64.8438 209.859 68.2656 209.859 72.8594C209.859 76.9531 210.828 80.0625 212.766 82.1875C214.703 84.3125 217.172 85.375 220.172 85.375C222.672 85.375 224.766 84.7344 226.453 83.4531C228.172 82.1719 229.453 80.2031 230.297 77.5469ZM254.859 72.25C254.859 64.6562 257.422 58.4062 262.547 53.5C267.672 48.5625 274.594 46.0938 283.312 46.0938C293.281 46.0938 300.812 48.9844 305.906 54.7656C310 59.4219 312.047 65.1562 312.047 71.9688C312.047 79.625 309.5 85.9062 304.406 90.8125C299.344 95.6875 292.328 98.125 283.359 98.125C275.359 98.125 268.891 96.0938 263.953 92.0312C257.891 87 254.859 80.4062 254.859 72.25ZM273.984 72.2031C273.984 76.6406 274.875 79.9219 276.656 82.0469C278.469 84.1719 280.734 85.2344 283.453 85.2344C286.203 85.2344 288.453 84.1875 290.203 82.0938C291.984 80 292.875 76.6406 292.875 72.0156C292.875 67.7031 291.984 64.5 290.203 62.4062C288.422 60.2812 286.219 59.2188 283.594 59.2188C280.812 59.2188 278.516 60.2969 276.703 62.4531C274.891 64.5781 273.984 67.8281 273.984 72.2031ZM321.234 47.2188H339V55.3281C341.656 52.0156 344.344 49.6562 347.062 48.25C349.781 46.8125 353.094 46.0938 357 46.0938C362.281 46.0938 366.406 47.6719 369.375 50.8281C372.375 53.9531 373.875 58.7969 373.875 65.3594V97H354.703V69.625C354.703 66.5 354.125 64.2969 352.969 63.0156C351.812 61.7031 350.188 61.0469 348.094 61.0469C345.781 61.0469 343.906 61.9219 342.469 63.6719C341.031 65.4219 340.312 68.5625 340.312 73.0938V97H321.234V47.2188ZM428.812 85.6562H404.625L401.297 97H379.594L405.422 28.2812H428.578L454.406 97H432.188L428.812 85.6562ZM424.359 70.7969L416.766 46.0938L409.219 70.7969H424.359ZM460.078 115.938V47.2188H477.938V54.5781C480.406 51.4844 482.672 49.3906 484.734 48.2969C487.516 46.8281 490.594 46.0938 493.969 46.0938C500.625 46.0938 505.766 48.6406 509.391 53.7344C513.047 58.8281 514.875 65.125 514.875 72.625C514.875 80.9062 512.891 87.2344 508.922 91.6094C504.953 95.9531 499.938 98.125 493.875 98.125C490.938 98.125 488.25 97.625 485.812 96.625C483.406 95.625 481.25 94.1406 479.344 92.1719V115.938H460.078ZM479.203 72.25C479.203 76.1875 480.031 79.1094 481.688 81.0156C483.344 82.9219 485.438 83.875 487.969 83.875C490.188 83.875 492.047 82.9688 493.547 81.1562C495.047 79.3125 495.797 76.2031 495.797 71.8281C495.797 67.7969 495.016 64.8438 493.453 62.9688C491.891 61.0625 489.984 60.1094 487.734 60.1094C485.297 60.1094 483.266 61.0625 481.641 62.9688C480.016 64.875 479.203 67.9688 479.203 72.25ZM524.203 47.2188H542.062V55.375C543.781 51.8438 545.547 49.4219 547.359 48.1094C549.203 46.7656 551.469 46.0938 554.156 46.0938C556.969 46.0938 560.047 46.9688 563.391 48.7188L557.484 62.3125C555.234 61.375 553.453 60.9062 552.141 60.9062C549.641 60.9062 547.703 61.9375 546.328 64C544.359 66.9062 543.375 72.3438 543.375 80.3125V97H524.203V47.2188ZM564.328 72.25C564.328 64.6562 566.891 58.4062 572.016 53.5C577.141 48.5625 584.062 46.0938 592.781 46.0938C602.75 46.0938 610.281 48.9844 615.375 54.7656C619.469 59.4219 621.516 65.1562 621.516 71.9688C621.516 79.625 618.969 85.9062 613.875 90.8125C608.812 95.6875 601.797 98.125 592.828 98.125C584.828 98.125 578.359 96.0938 573.422 92.0312C567.359 87 564.328 80.4062 564.328 72.25ZM583.453 72.2031C583.453 76.6406 584.344 79.9219 586.125 82.0469C587.938 84.1719 590.203 85.2344 592.922 85.2344C595.672 85.2344 597.922 84.1875 599.672 82.0938C601.453 80 602.344 76.6406 602.344 72.0156C602.344 67.7031 601.453 64.5 599.672 62.4062C597.891 60.2812 595.688 59.2188 593.062 59.2188C590.281 59.2188 587.984 60.2969 586.172 62.4531C584.359 64.5781 583.453 67.8281 583.453 72.2031ZM630.703 47.2188H648.469V55.3281C651.125 52.0156 653.812 49.6562 656.531 48.25C659.25 46.8125 662.562 46.0938 666.469 46.0938C671.75 46.0938 675.875 47.6719 678.844 50.8281C681.844 53.9531 683.344 58.7969 683.344 65.3594V97H664.172V69.625C664.172 66.5 663.594 64.2969 662.438 63.0156C661.281 61.7031 659.656 61.0469 657.562 61.0469C655.25 61.0469 653.375 61.9219 651.938 63.6719C650.5 65.4219 649.781 68.5625 649.781 73.0938V97H630.703V47.2188Z" fill="white"/>
<path fill-rule="evenodd" clip-rule="evenodd" d="M103.032 5.94C104.678 5.94 106.013 4.61029 106.013 2.97C106.013 1.32971 104.678 0 103.032 0C101.385 0 100.05 1.32971 100.05 2.97C100.05 4.61029 101.385 5.94 103.032 5.94ZM68.0251 17.71C68.0251 13.9869 65.8434 12.3733 63.8558 11.6695C61.0405 11.2288 58.1547 11 55.2152 11C24.7207 11 0 35.6243 0 66C0 96.3756 24.7207 121 55.2152 121C85.7097 121 110.43 96.3756 110.43 66C110.413 65.8347 110.341 65.5542 110.248 65.1931C109.867 63.7119 109.136 60.8749 110.43 59.07C112.04 56.8251 112.418 54.01 111.535 52.14C109.657 49.17 106.676 48.07 100.933 47.74C95.191 47.41 92.0721 41.3164 93.3137 37.4L93.3969 37.1371C93.9874 35.2695 94.1364 34.7984 95.4118 33.22C99.056 28.71 98.9131 25.647 96.4057 22.55C93.645 19.14 86.9087 17.25 82.2706 22.99C80.1647 25.5962 76.3083 26.5968 72.9945 25.3C69.9024 24.09 68.0251 21.2059 68.0251 17.71ZM108.222 27.28C110.295 27.28 111.976 25.6055 111.976 23.54C111.976 21.4745 110.295 19.8 108.222 19.8C106.148 19.8 104.467 21.4745 104.467 23.54C104.467 25.6055 106.148 27.28 108.222 27.28ZM97.1787 14.74C97.1787 16.8055 95.4977 18.48 93.4241 18.48C91.3505 18.48 89.6695 16.8055 89.6695 14.74C89.6695 12.6745 91.3505 11 93.4241 11C95.4977 11 97.1787 12.6745 97.1787 14.74ZM62.5971 33.3904L94.9075 82.8398C97.5963 86.9547 94.6318 92.4 89.7028 92.4C84.0791 92.4 78.8578 89.4949 75.9087 84.7252L58.8311 57.1041C57.475 54.9108 54.2737 54.912 52.9193 57.1064L42.6793 73.6977C41.2576 76.0011 42.9214 78.9654 45.6359 78.9654H49.3032C55.6986 78.9654 61.6823 82.1077 65.2959 87.3638C66.7641 89.4994 65.229 92.4 62.6304 92.4H25.6831C19.3637 92.4 15.5501 85.4329 18.973 80.1416L49.1968 33.4209C52.3317 28.5748 59.44 28.5586 62.5971 33.3904ZM108.222 39.6C108.222 42.8806 105.552 45.54 102.259 45.54C98.9651 45.54 96.2953 42.8806 96.2953 39.6C96.2953 36.3194 98.9651 33.66 102.259 33.66C105.552 33.66 108.222 36.3194 108.222 39.6ZM76.6387 22.88C79.9321 22.88 82.6019 20.2206 82.6019 16.94C82.6019 13.6594 79.9321 11 76.6387 11C73.3453 11 70.6754 13.6594 70.6754 16.94C70.6754 20.2206 73.3453 22.88 76.6387 22.88Z" fill="white"/>
</g>
<defs>
<clipPath id="clip0_29_195">
<rect width="689" height="124" fill="white"/>
</clipPath>
</defs>
</svg>
