<svg width="220" height="300" viewBox="0 0 220 300" fill="none" xmlns="http://www.w3.org/2000/svg">
<g filter="url(#filter0_i_2_13)">
<rect x="60" y="180" width="100" height="120" fill="#D9D9D9"/>
</g>
<path d="M28 40H192L190 60H30L28 40Z" fill="#D9D9D9"/>
<g filter="url(#filter1_i_2_13)">
<path d="M40 160H180L178 180H42L40 160Z" fill="#D9D9D9"/>
</g>
<path d="M30 60H190L180 160H40L30 60Z" fill="#C3DEF2"/>
<line x1="35" y1="109.75" x2="185" y2="109.75" stroke="white" stroke-width="0.5"/>
<path d="M136 160L140 60M84 160L80 60" stroke="white" stroke-width="0.5"/>
<rect x="60" y="30" width="100" height="10" fill="#D9D9D9"/>
<line x1="109.75" y1="30" x2="109.75" y2="1.05636e-08" stroke="black" stroke-width="0.5"/>
<line x1="176.75" y1="40" x2="176.75" y2="21" stroke="black" stroke-width="0.5"/>
<defs>
<filter id="filter0_i_2_13" x="60" y="180" width="100" height="124" filterUnits="userSpaceOnUse" color-interpolation-filters="sRGB">
<feFlood flood-opacity="0" result="BackgroundImageFix"/>
<feBlend mode="normal" in="SourceGraphic" in2="BackgroundImageFix" result="shape"/>
<feColorMatrix in="SourceAlpha" type="matrix" values="0 0 0 0 0 0 0 0 0 0 0 0 0 0 0 0 0 0 127 0" result="hardAlpha"/>
<feOffset dy="4"/>
<feGaussianBlur stdDeviation="2"/>
<feComposite in2="hardAlpha" operator="arithmetic" k2="-1" k3="1"/>
<feColorMatrix type="matrix" values="0 0 0 0 0 0 0 0 0 0 0 0 0 0 0 0 0 0 0.18 0"/>
<feBlend mode="normal" in2="shape" result="effect1_innerShadow_2_13"/>
</filter>
<filter id="filter1_i_2_13" x="40" y="160" width="140" height="24" filterUnits="userSpaceOnUse" color-interpolation-filters="sRGB">
<feFlood flood-opacity="0" result="BackgroundImageFix"/>
<feBlend mode="normal" in="SourceGraphic" in2="BackgroundImageFix" result="shape"/>
<feColorMatrix in="SourceAlpha" type="matrix" values="0 0 0 0 0 0 0 0 0 0 0 0 0 0 0 0 0 0 127 0" result="hardAlpha"/>
<feOffset dy="4"/>
<feGaussianBlur stdDeviation="2"/>
<feComposite in2="hardAlpha" operator="arithmetic" k2="-1" k3="1"/>
<feColorMatrix type="matrix" values="0 0 0 0 0 0 0 0 0 0 0 0 0 0 0 0 0 0 0.13 0"/>
<feBlend mode="normal" in2="shape" result="effect1_innerShadow_2_13"/>
</filter>
</defs>
</svg>
