<svg width="20" height="20" viewBox="0 0 20 20" fill="none" xmlns="http://www.w3.org/2000/svg">
<path d="M13.3245 19.1689C12.8258 19.1689 12.4934 18.8364 12.4934 18.3377V15.0963C12.5765 14.4314 12.3272 13.9327 11.9116 13.5172C11.6623 13.2678 11.5791 12.9354 11.7454 12.6861C11.8285 12.3536 12.1609 12.1874 12.4103 12.1043C14.8205 11.8549 17.0646 11.0238 17.0646 7.11748C17.0646 6.20324 16.7321 5.28899 16.0672 4.54098C15.8179 4.29164 15.8179 3.95919 15.901 3.70985C16.1504 3.04494 16.1504 2.38004 15.9841 1.71513C15.5686 1.79825 14.9037 2.04759 13.8232 2.7956C13.657 2.96183 13.4076 2.96183 13.1583 2.87872C11.4129 2.38004 9.50131 2.38004 7.75594 2.87872C7.5066 2.96183 7.25726 2.96183 7.00792 2.7956C6.01056 2.04759 5.26255 1.79825 4.84698 1.71513C4.68076 2.38004 4.68076 3.04494 4.93009 3.70985C5.01321 4.0423 5.01321 4.37475 4.76387 4.54098C4.09896 5.28899 3.76651 6.20324 3.76651 7.11748C3.76651 11.0238 6.01056 11.8549 8.42084 12.1043C8.75329 12.1043 9.00263 12.3536 9.08575 12.6861C9.16886 13.0185 9.08575 13.351 8.91952 13.5172C8.50395 13.9327 8.33773 14.4314 8.33773 15.0132V18.2546C8.33773 18.7533 8.00528 19.0858 7.5066 19.0858C7.00792 19.0858 6.67547 18.7533 6.67547 18.2546V16.8417C4.18208 17.2573 3.10161 15.8443 2.35359 14.9301C2.02114 14.5145 1.7718 14.1821 1.43935 14.099C1.02378 14.0159 0.691331 13.5172 0.857557 13.1016C0.94067 12.6861 1.43935 12.3536 1.85491 12.5198C2.68604 12.7692 3.18472 13.351 3.6834 13.9327C4.3483 14.847 4.93009 15.5119 6.67547 15.1794V15.0963C6.67547 14.5976 6.75858 14.0159 6.92481 13.6003C4.59764 13.1016 2.10425 11.6056 2.10425 7.20059C2.10425 5.9539 2.51982 4.79032 3.26783 3.87607C2.93538 2.71249 3.0185 1.63202 3.51717 0.551552C3.60029 0.302213 3.76651 0.135987 4.01585 0.052874C4.3483 -0.030239 5.42877 -0.196465 7.67282 1.21646C9.50131 0.800891 11.4129 0.800891 13.1583 1.21646C15.3192 -0.196465 16.4828 -0.030239 16.8153 0.052874C17.0646 0.135987 17.2308 0.302213 17.3139 0.551552C17.7295 1.63202 17.8126 2.71249 17.5633 3.79296C18.3113 4.7072 18.7269 5.87078 18.7269 7.11748C18.7269 11.8549 15.901 13.1016 13.9063 13.6003C14.0725 14.099 14.1556 14.6808 14.1556 15.1794V18.3377C14.1556 18.8364 13.8232 19.1689 13.3245 19.1689Z" fill="white"/>
</svg>
